<svg width="500" height="500" viewBox="0 0 500 500" fill="none" xmlns="http://www.w3.org/2000/svg">
<path d="M385.5 306.902C385.5 306.902 414.1 180.502 400.1 171.802C386.1 163.102 290 155.602 277.9 171.802C265.8 188.002 257 288.702 257 288.702L385.5 306.902Z" fill="#22262E"/>
<path d="M385.5 307.601H385.4L256.9 289.301C256.5 289.201 256.3 288.901 256.3 288.501C256.7 284.401 265.1 187.401 277.3 171.301C285.1 161.001 322.5 161.101 338.3 161.701C366.2 162.701 393.5 166.801 400.5 171.201C414.8 180.101 387.4 301.901 386.2 307.101C386.1 307.401 385.8 307.701 385.5 307.601ZM257.8 288.101L385 306.101C393 270.601 410.9 179.201 399.8 172.301C386.5 164.001 290.6 156.001 278.5 172.101C267 187.401 258.5 279.301 257.8 288.101Z" fill="#22262E"/>
<path d="M86.5 333.5C103.1 304.6 170 283 250 283C330 283 396.9 304.6 413.5 333.5H417.5V347.5C417.5 383.2 342.5 412.1 250 412.1C157.5 412.1 82.5 383.2 82.5 347.5V333.5H86.5Z" fill="#22262E"/>
<path d="M250 412.799C157.3 412.799 81.7998 383.499 81.7998 347.499V333.499C81.7998 333.099 82.0998 332.799 82.4998 332.799H86.0998C94.3998 318.699 115.1 305.899 144.3 296.699C174 287.299 211.6 282.199 250 282.199C288.4 282.199 326 287.299 355.7 296.699C384.9 305.799 405.6 318.699 413.9 332.799H417.5C417.9 332.799 418.2 333.099 418.2 333.499V347.499C418.2 383.499 342.7 412.799 250 412.799ZM83.1998 334.199V347.499C83.1998 382.699 158 411.399 250 411.399C342 411.399 416.8 382.799 416.8 347.499V334.199H413.5C413.3 334.199 413 334.099 412.9 333.799C396.2 304.699 327.7 283.599 250 283.599C172.3 283.599 103.8 304.699 87.0998 333.799C86.9998 333.999 86.6998 334.199 86.4998 334.199H83.1998Z" fill="#22262E"/>
<path d="M265.3 89.3989C265.3 89.3989 276.8 83.7989 284.4 93.7989C292 103.799 287.4 115.199 304.4 122.299C321.4 129.399 307.6 149.999 320 157.599C320 157.599 310.6 164.299 302.7 166.399L297 161.799L297.4 166.899C297.4 166.899 248.2 189.099 227.8 174.999L225.2 168.899L221.4 173.199L208.8 164.899C208.8 164.899 218.6 159.799 215.7 149.899C212.8 139.999 206.4 131.399 218.4 118.699C230.4 105.999 221.2 98.0989 236 92.3989C245.4 88.9989 255.4 87.9989 265.3 89.3989Z" fill="#FFFDFA"/>
<path d="M246.5 180.401C238.5 180.401 232.1 178.801 227.5 175.601C227.4 175.501 227.3 175.401 227.3 175.301L225.2 170.201L222.1 173.601C221.9 173.901 221.5 173.901 221.2 173.701L208.6 165.401C208.4 165.301 208.3 165.001 208.3 164.801C208.3 164.601 208.5 164.301 208.7 164.201C209.1 164.001 217.9 159.201 215.2 150.001C214.7 148.401 214.1 146.701 213.6 145.101C210.8 137.201 207.8 129.001 218.1 118.101C223.4 112.501 224.5 108.001 225.4 104.001C226.5 99.1007 227.5 94.9007 236 91.7007C249.8 86.4007 263.6 88.4007 265.5 88.6007C267.1 87.9007 278 83.7007 285.3 93.3007C288.1 96.9007 289.2 100.701 290.4 104.401C292.4 110.901 294.4 117.101 305 121.601C314.6 125.601 314.8 134.001 315 141.401C315.2 147.701 315.3 153.601 320.7 156.901C320.9 157.001 321 157.201 321 157.501C321 157.701 320.9 158.001 320.7 158.101C320.3 158.401 311.1 164.901 303.2 167.001C303 167.101 302.7 167.001 302.6 166.901L298.2 163.301L298.5 166.701C298.5 167.001 298.4 167.301 298.1 167.401C289.3 171.201 280.2 174.301 270.8 176.801C262.6 179.001 254.6 180.201 246.5 180.401ZM228.4 174.501C247.3 187.301 291.7 168.601 296.7 166.401L296.3 161.801C296.3 161.401 296.6 161.101 297 161.101C297.2 161.101 297.3 161.101 297.5 161.201L302.9 165.601C309.2 163.801 316.3 159.201 318.8 157.601C313.7 153.801 313.5 147.601 313.3 141.501C313.1 133.901 312.9 126.601 304.2 122.901C292.9 118.201 290.8 111.401 288.8 104.801C287.7 101.201 286.5 97.5007 283.9 94.1007C276.8 84.7007 265.8 89.8007 265.7 89.9007C265.6 90.0007 265.4 90.0007 265.3 90.0007C265.2 90.0007 250.8 87.4007 236.4 92.9007C228.6 95.9007 227.8 99.3007 226.7 104.201C225.7 109.801 223 114.901 219.1 119.001C209.4 129.201 212.1 136.701 214.9 144.501C215.5 146.101 216.1 147.801 216.5 149.401C218.9 157.801 212.7 163.001 210.3 164.601L221.5 172.001L224.9 168.201C225.1 168.001 225.3 167.901 225.5 168.001C225.7 168.001 225.9 168.201 226 168.401L228.4 174.501Z" fill="#22262E"/>
<path d="M276.1 169.799C276.1 169.799 319.7 169.399 338.5 181.599C357.3 193.799 346.9 234.599 344.3 248.199C341.7 261.799 330.1 314.499 330.1 314.499L231.4 320.199C231.4 320.199 214 233.699 212.7 208.499C212.4 203.199 218.6 183.499 222.8 180.499C236.7 170.399 256.4 168.999 276.1 169.799Z" fill="#3185FF"/>
<path d="M286.3 182.402L276.3 265.102L250.7 198.902C250.7 198.902 276.5 192.602 286.3 182.402Z" fill="#22262E"/>
<path d="M276.2 265.801C275.9 265.801 275.6 265.601 275.5 265.301L250 199.201C249.9 199.001 249.9 198.801 250 198.601C250.1 198.401 250.3 198.301 250.4 198.201C250.7 198.101 276.2 191.801 285.7 181.901C286 181.601 286.4 181.601 286.7 181.901C286.9 182.101 286.9 182.301 286.9 182.501L276.9 265.201C276.9 265.501 276.6 265.801 276.2 265.801ZM251.6 199.401L275.9 262.201L285.4 184.301C275.7 192.801 255.8 198.301 251.6 199.401Z" fill="#22262E"/>
<path d="M250 398.102C342.508 398.102 417.5 369.18 417.5 333.502C417.5 297.825 342.508 268.902 250 268.902C157.492 268.902 82.5 297.825 82.5 333.502C82.5 369.18 157.492 398.102 250 398.102Z" fill="#FFFDFA"/>
<path d="M250 398.799C157.3 398.799 81.7998 369.499 81.7998 333.499C81.7998 297.499 157.2 268.199 250 268.199C342.8 268.199 418.2 297.499 418.2 333.499C418.2 369.499 342.7 398.799 250 398.799ZM250 269.599C158 269.599 83.1998 298.199 83.1998 333.499C83.1998 368.799 158 397.399 250 397.399C342 397.399 416.8 368.799 416.8 333.499C416.8 298.199 342 269.599 250 269.599Z" fill="#22262E"/>
<path d="M212.5 275.801L278.5 301.801L168.4 342.001L108.6 309.701L212.5 275.801Z" fill="#FFFDFA"/>
<path d="M168.399 342.601C168.299 342.601 168.199 342.601 168.099 342.501L108.299 310.201C108.099 310.101 107.899 309.801 107.899 309.501C107.899 309.201 108.099 309.001 108.399 308.901L212.299 275.001C212.499 274.901 212.599 274.901 212.799 275.001L278.799 301.001C279.199 301.101 279.299 301.501 279.199 301.901C279.099 302.101 278.999 302.201 278.799 302.301L168.699 342.501C168.599 342.601 168.499 342.701 168.399 342.601ZM110.399 309.801L168.499 341.201L276.499 301.701L212.499 276.501L110.399 309.801Z" fill="#D1D3D4"/>
<path d="M222.9 275L288.9 301L178.9 341.2L119.1 309L222.9 275Z" fill="#FFFDFA"/>
<path d="M178.899 341.902C178.799 341.902 178.699 341.902 178.599 341.802L118.799 309.502C118.499 309.302 118.299 308.902 118.499 308.502C118.599 308.302 118.699 308.202 118.899 308.202L222.799 274.302C222.999 274.202 223.099 274.202 223.299 274.302L289.299 300.302C289.699 300.402 289.799 300.802 289.699 301.202C289.599 301.402 289.499 301.502 289.299 301.602L179.199 341.802C178.999 341.902 178.899 341.902 178.899 341.902ZM120.899 309.102L178.999 340.502L286.999 301.002L222.999 275.802L120.899 309.102Z" fill="#D1D3D4"/>
<path d="M233.799 276.402L299.699 302.402L189.699 342.602L129.899 310.302L233.799 276.402Z" fill="#FFFDFA"/>
<path d="M189.7 343.3C189.6 343.3 189.5 343.3 189.4 343.2L129.6 310.9C129.4 310.8 129.2 310.5 129.2 310.2C129.2 309.9 129.4 309.7 129.7 309.6L233.6 275.7C233.8 275.6 233.9 275.6 234.1 275.7L300.1 301.7C300.4 301.8 300.5 302.1 300.6 302.4C300.6 302.7 300.4 302.9 300.1 303L190 343.2C189.8 343.3 189.7 343.3 189.7 343.3ZM131.7 310.4L189.8 341.8L297.8 302.3L233.8 277.1L131.7 310.4Z" fill="#22262E"/>
<path d="M177.499 328.503C177.199 328.503 176.999 328.303 176.899 328.003C176.799 327.603 176.899 327.203 177.299 327.103L264.199 294.003C264.599 293.903 264.999 294.103 265.099 294.403C265.199 294.703 264.999 295.103 264.699 295.303L177.799 328.403C177.599 328.503 177.599 328.503 177.499 328.503Z" fill="#D1D3D4"/>
<path d="M265.6 307.5C265.5 307.5 265.4 307.5 265.3 307.4L219.1 287.5C218.7 287.3 218.6 286.9 218.7 286.6C218.8 286.2 219.3 286.1 219.6 286.2L265.8 306.1C266.2 306.2 266.3 306.7 266.2 307C266.1 307.4 265.9 307.6 265.6 307.5Z" fill="#D1D3D4"/>
<path d="M250.8 313.502C250.1 313.502 245.9 311.502 203.6 290.002C203.2 289.902 203.1 289.402 203.2 289.102C203.3 288.802 203.8 288.602 204.1 288.702C204.1 288.702 204.2 288.702 204.2 288.802C216.6 295.102 249.1 311.502 250.7 312.202C250.9 312.202 251 312.402 251.1 312.502C251.3 312.802 251.2 313.302 250.9 313.502C250.9 313.502 250.9 313.502 250.8 313.502Z" fill="#D1D3D4"/>
<path d="M231 321.002C230.9 321.002 230.8 321.002 230.7 320.902L183.9 298.002C183.6 297.802 183.5 297.402 183.7 297.002C183.9 296.702 184.2 296.602 184.5 296.702L231.3 319.602C231.6 319.802 231.8 320.202 231.6 320.502C231.5 320.802 231.2 321.002 231 321.002Z" fill="#D1D3D4"/>
<path d="M191.9 335.902C191.8 335.902 191.7 335.902 191.6 335.802L143.2 310.902C142.9 310.802 142.8 310.502 142.8 310.202C142.8 309.902 143 309.702 143.3 309.602L232.7 281.302C232.9 281.202 233 281.202 233.2 281.302L281.3 300.702C281.6 300.802 281.7 301.102 281.7 301.302C281.7 301.602 281.5 301.802 281.2 301.902L192.1 335.802C192 335.902 191.9 335.902 191.9 335.902ZM145.3 310.402L191.9 334.402L279.1 301.302L232.9 282.702L145.3 310.402Z" fill="#D1D3D4"/>
<path d="M249.4 171.099L250.3 195.299C250.3 195.299 252.4 204.199 268.2 200.699C276.7 198.999 283.3 192.199 285 183.699C283.5 175.299 281 134.699 279.3 124.199L269.3 125.999C269.1 121.299 268.3 116.699 267.1 112.199C265.4 115.699 264.4 119.599 264.2 123.499L246.1 125.399C245.7 125.499 245.3 125.399 245 125.299C244.7 124.999 244.5 124.699 244.4 124.299L242.8 119.499L241.5 125.299C241.5 126.499 240.5 127.499 239.3 127.599C239.2 127.599 239.1 127.599 239 127.599L231.7 127.999C230.7 127.999 229.6 128.199 228.7 128.699C226 130.599 227.4 141.499 227.6 144.399C228 150.399 229.4 156.299 231.7 161.899C236.4 173.199 249.4 171.099 249.4 171.099Z" fill="#FFFDFA"/>
<path d="M261.4 202.2C258.4 202.3 255.5 201.5 253 199.9C251.4 198.8 250.3 197.3 249.7 195.5L248.8 171.9C245.8 172.1 235.3 172.2 231 162.1C228.7 156.4 227.3 150.4 226.9 144.3L226.8 143.3C226.1 136.3 225.8 129.7 228.3 128C229.3 127.4 230.5 127.1 231.7 127.2L239 126.8C239.4 126.8 239.9 126.7 240.2 126.5C240.6 126.1 240.8 125.6 240.8 125.1L242.1 119.4C242.2 119.1 242.4 118.9 242.7 118.9C243 118.9 243.3 119.1 243.4 119.4L245 124.2C245.1 124.4 245.2 124.7 245.3 124.8C245.5 124.9 245.8 124.9 246 124.8L263.6 122.9C263.9 119.1 264.9 115.4 266.5 111.9C266.6 111.6 266.9 111.5 267.2 111.5C267.5 111.5 267.7 111.7 267.8 112C269 116.3 269.7 120.7 270 125.2L279.2 123.5C279.4 123.5 279.6 123.5 279.7 123.6C279.9 123.7 280 123.9 280 124.1C280.8 129.3 281.8 141.6 282.8 153.6C283.8 166.3 284.9 179.4 285.7 183.6C284.1 192.5 277.3 199.6 268.4 201.4C266.1 201.8 263.7 202.1 261.4 202.2ZM249.4 170.4C249.6 170.4 249.7 170.5 249.8 170.6C250 170.7 250.1 170.9 250.1 171.1L251 195.3C251.1 195.5 253.1 203.4 268 200C276.2 198.4 282.6 191.9 284.2 183.7C283.4 179.3 282.4 166.8 281.3 153.6C280.4 142.2 279.4 130.4 278.6 124.9L269.3 126.6C268.9 126.7 268.6 126.4 268.5 126.1V126C268.3 122 267.8 118.1 266.9 114.3C265.7 117.2 265.1 120.4 264.9 123.5C264.9 123.8 264.6 124.1 264.3 124.2L246.1 126.1C245.6 126.2 245 126.1 244.5 125.9C244 125.6 243.7 125.1 243.6 124.5L242.8 122.1L242 125.4C242 127 240.6 128.3 239 128.2C238.9 128.2 238.9 128.2 238.8 128.2L231.5 128.6C230.6 128.6 229.7 128.8 228.9 129.2C226.8 130.6 227.7 140.1 228 143.2L228.1 144.3C228.5 150.2 229.9 156.1 232.1 161.6C236.6 172.3 248.6 170.5 249.1 170.5L249.4 170.4Z" fill="#22262E"/>
<path d="M249.899 183.799C255.499 183.499 260.599 180.499 263.499 175.699C268.599 167.499 266.699 162.199 266.699 162.199C266.699 162.199 259.899 170.599 249.399 171.099L249.899 183.799Z" fill="#22262E"/>
<path d="M249.9 184.502C249.5 184.502 249.2 184.202 249.2 183.802L248.7 171.102C248.7 170.702 249 170.402 249.4 170.402C259.4 169.902 266.2 161.902 266.2 161.802C266.4 161.502 266.9 161.502 267.2 161.702C267.3 161.802 267.4 161.902 267.4 162.002C267.5 162.202 269.3 167.702 264.1 176.102C261.1 181.102 255.8 184.202 249.9 184.502ZM250.1 171.702L250.5 183.002C255.6 182.502 260.1 179.602 262.9 175.302C266.3 169.802 266.5 165.702 266.3 163.702C264.1 166.002 258.3 171.102 250.1 171.702Z" fill="#22262E"/>
<path d="M247.5 135.602C247.5 135.602 245.1 148.202 247.5 149.902C249.9 151.602 254.1 148.402 254.1 148.402" fill="#FFFDFA"/>
<path d="M249.1 151.001C248.4 151.001 247.6 150.801 247 150.401C244.4 148.501 246.4 137.601 246.8 135.401C246.9 135.001 247.2 134.801 247.6 134.801C248 134.901 248.2 135.201 248.2 135.601C247.1 141.401 246.6 148.301 247.9 149.201C249.5 150.301 252.6 148.501 253.7 147.701C254 147.401 254.4 147.401 254.7 147.701C255 148.001 255 148.401 254.7 148.701L254.6 148.801C254.4 149.001 251.6 151.001 249.1 151.001Z" fill="#22262E"/>
<path d="M258.294 141.052C259.382 140.862 260.04 139.428 259.764 137.851C259.488 136.273 258.382 135.149 257.294 135.339C256.206 135.529 255.548 136.962 255.824 138.54C256.1 140.118 257.206 141.242 258.294 141.052Z" fill="#22262E"/>
<path d="M237.195 143.544C238.283 143.354 238.941 141.921 238.665 140.343C238.389 138.765 237.284 137.641 236.196 137.831C235.108 138.021 234.449 139.455 234.725 141.032C235.001 142.61 236.107 143.735 237.195 143.544Z" fill="#22262E"/>
<path d="M256.2 143.202C253.8 143.202 251.7 141.402 251.4 139.002L250.5 131.802C250.5 131.402 250.7 131.102 251.1 131.002L270.2 128.602C270.6 128.602 270.9 128.802 271 129.202L271.9 136.402C272.2 139.002 270.4 141.502 267.7 141.802L256.8 143.202H256.2ZM252 132.302L252.8 138.802C253 140.702 254.7 142.002 256.6 141.802L267.5 140.402C268.4 140.302 269.2 139.802 269.8 139.102C270.4 138.402 270.6 137.502 270.5 136.602L269.7 130.102L252 132.302Z" fill="#22262E"/>
<path d="M228.7 147.002C226.3 147.002 224.2 145.202 223.9 142.802L223 135.602C222.9 135.202 223.2 134.902 223.6 134.802L242.7 132.402C243.1 132.402 243.4 132.602 243.5 133.002L244.4 140.202C244.7 142.802 242.9 145.202 240.3 145.602L229.4 147.002C229.1 147.002 228.9 147.002 228.7 147.002ZM224.5 136.102L225.3 142.602C225.5 144.502 227.2 145.802 229.1 145.602C229.1 145.602 229.1 145.602 229.2 145.602L240.1 144.202C242 144.002 243.3 142.302 243.1 140.402L242.3 133.902L224.5 136.102Z" fill="#22262E"/>
<path d="M284.5 136.302L270.9 135.002C270.5 134.902 270.3 134.602 270.3 134.202C270.4 133.902 270.7 133.602 271 133.602L284.5 134.802C284.9 134.802 285.2 135.102 285.2 135.502C285.2 135.902 284.8 136.202 284.5 136.302Z" fill="#22262E"/>
<path d="M274.1 143.302C274.1 142.002 274.4 140.702 275.2 139.602C276.1 137.802 277.4 136.202 278.9 134.802C280.4 133.402 282.4 132.702 284.5 132.602C288.5 132.602 291.9 136.402 292.1 140.402C292.3 144.402 289.9 148.202 286.6 150.402C283.9 152.202 280.4 152.902 277.4 151.802" fill="#FFFDFA"/>
<path d="M280.5 153.1C279.4 153.1 278.2 152.9 277.2 152.5C276.8 152.4 276.7 151.9 276.8 151.6C276.9 151.2 277.4 151.1 277.7 151.2C280.6 152.2 283.8 151.7 286.2 149.9C289.5 147.9 291.4 144.4 291.4 140.5C291.2 136.7 287.9 133.4 284.5 133.4C282.6 133.5 280.8 134.2 279.4 135.4C277.9 136.7 276.7 138.3 275.8 140C275.1 140.9 274.8 142.1 274.8 143.2C274.8 143.6 274.6 143.9 274.2 144C273.8 144 273.5 143.8 273.4 143.4C273.3 142 273.7 140.5 274.6 139.3C275.6 137.4 276.9 135.7 278.5 134.3C280.2 132.8 282.3 132 284.5 132C288.7 132 292.5 135.9 292.8 140.4C293.1 144.4 290.8 148.6 287 151C285.1 152.3 282.8 153 280.5 153.1Z" fill="#22262E"/>
<path d="M243.4 136.302C243.2 136.302 243 136.202 242.9 136.102C242.6 135.802 242.7 135.402 243 135.102C245.6 132.502 249.7 132.502 252.3 135.102C252.6 135.402 252.6 135.802 252.3 136.102C252 136.402 251.6 136.402 251.3 136.102C251.2 136.002 248 132.702 243.9 136.202C243.7 136.202 243.5 136.302 243.4 136.302Z" fill="#22262E"/>
<path d="M241.8 160.2C241.4 160.2 241.1 159.9 241.1 159.5C241.1 159.1 241.4 158.8 241.8 158.8C241.9 158.8 256.1 158.7 263.9 150.6C264.2 150.3 264.6 150.3 264.9 150.6C265.2 150.9 265.2 151.3 264.9 151.6C256.7 160.1 242.4 160.2 241.8 160.2Z" fill="#22262E"/>
<path d="M234.6 376.699L301.6 347.799L248.1 328.199L206.7 345.299L173.8 346.399L234.6 376.699Z" fill="#FFFDFA"/>
<path d="M234.6 377.402C234.5 377.402 234.4 377.402 234.3 377.302L173.4 347.002C173.1 346.802 172.9 346.402 173.1 346.102C173.2 345.902 173.5 345.702 173.7 345.702L206.6 344.602L247.8 327.602C248 327.502 248.1 327.502 248.3 327.602L301.8 347.102C302.1 347.202 302.2 347.502 302.3 347.702C302.3 348.002 302.1 348.302 301.9 348.402L235 377.302C234.8 377.402 234.7 377.402 234.6 377.402ZM176.6 347.002L234.7 376.002L299.7 347.902L248.1 329.002L207 346.002C206.9 346.002 206.8 346.002 206.8 346.002L176.6 347.002Z" fill="#22262E"/>
<path d="M301.6 347.801L302.3 354.601L233.8 384.901L232.3 369.901L254.5 368.101L301.6 347.801Z" fill="#FFFDFA"/>
<path d="M233.8 385.602C233.7 385.602 233.6 385.602 233.4 385.502C233.2 385.402 233.1 385.202 233 385.002L231.5 370.002C231.5 369.802 231.5 369.602 231.7 369.502C231.8 369.402 232 369.302 232.2 369.302L254.4 367.602L301.3 347.302C301.5 347.202 301.7 347.202 301.9 347.302C302.1 347.402 302.2 347.602 302.2 347.802L302.9 354.602C302.9 354.902 302.8 355.202 302.5 355.302L234 385.502C233.9 385.502 233.8 385.602 233.8 385.602ZM233 370.502L234.3 383.802L301.5 354.102L301 348.802L254.8 368.802C254.7 368.802 254.7 368.802 254.6 368.802L233 370.502Z" fill="#22262E"/>
<path d="M233.8 384.902L175.1 359.202L173.8 346.402L232.3 369.902L233.8 384.902Z" fill="#FFFDFA"/>
<path d="M233.8 385.599C233.7 385.599 233.6 385.599 233.5 385.499L174.8 359.899C174.6 359.799 174.4 359.599 174.4 359.299L173.1 346.499C173.1 346.299 173.2 345.999 173.4 345.899C173.6 345.799 173.9 345.699 174.1 345.799L232.6 369.299C232.8 369.399 233 369.599 233 369.899L234.5 384.899C234.5 385.099 234.4 385.399 234.2 385.499C234.1 385.499 233.9 385.599 233.8 385.599ZM175.7 358.799L232.9 383.799L231.6 370.399L174.6 347.499L175.7 358.799Z" fill="#22262E"/>
<path d="M231.899 366.502C231.799 366.502 231.699 366.502 231.599 366.502L193.299 350.802C192.899 350.602 192.799 350.202 192.899 349.902C192.999 349.702 193.199 349.502 193.499 349.502L209.699 347.902C209.799 347.902 209.899 347.902 209.999 347.902L247.699 363.702C248.099 363.902 248.199 364.302 248.099 364.602C247.999 364.802 247.799 365.002 247.499 365.002L231.899 366.502ZM196.399 350.502L231.999 365.102L244.699 363.802L209.699 349.202L196.399 350.502Z" fill="#D1D3D4"/>
<path d="M255.899 363.2C255.299 363.1 227.999 351.7 216.299 346.8C215.999 346.7 215.899 346.4 215.899 346.2C215.899 345.9 216.099 345.7 216.299 345.6L248.799 332.2C248.999 332.1 249.199 332.1 249.299 332.2L288.999 347.9C289.399 348.1 289.499 348.5 289.399 348.8C289.299 349 289.199 349.1 288.999 349.2C258.899 362.4 256.399 363.2 255.899 363.2ZM218.399 346.2C231.499 351.7 253.799 360.9 255.999 361.8C257.999 361.1 274.899 353.8 286.999 348.6L249.099 333.6L218.399 346.2Z" fill="#D1D3D4"/>
<path d="M266.8 358.101C266.7 358.101 266.6 358.101 266.5 358.001L227.5 342.201C227.1 342.201 226.8 341.901 226.8 341.501C226.8 341.101 227.1 340.801 227.5 340.801C227.6 340.801 227.8 340.901 227.9 341.001L266.9 356.801C267.3 356.901 267.4 357.301 267.3 357.701C267.3 358.001 267 358.101 266.8 358.101Z" fill="#D1D3D4"/>
<path d="M279.5 352.6C279.4 352.6 279.3 352.6 279.2 352.5C278.5 352.2 253.4 342.2 240.2 337C239.8 336.9 239.7 336.5 239.8 336.1C239.9 335.7 240.4 335.6 240.7 335.7C242.3 336.3 279 350.8 279.8 351.2C280.1 351.4 280.3 351.8 280.1 352.1C280 352.4 279.8 352.6 279.5 352.6Z" fill="#D1D3D4"/>
<path d="M225.4 350.6C225 350.6 224.7 350.3 224.7 349.9C224.7 349.6 224.9 349.4 225.1 349.3L258.9 336.2C259.3 336.1 259.7 336.2 259.8 336.6C259.9 337 259.8 337.4 259.4 337.5L225.6 350.5C225.6 350.5 225.5 350.6 225.4 350.6Z" fill="#D1D3D4"/>
<path d="M241.2 357.101C240.8 357.101 240.5 356.801 240.5 356.401C240.5 356.101 240.7 355.901 240.9 355.801C253.8 350.801 273.3 343.201 274.9 342.101C275 341.901 275.2 341.801 275.4 341.801C275.8 341.801 276.1 342.101 276.1 342.501C276.1 343.101 276.1 343.701 241.4 357.001C241.4 357.101 241.3 357.201 241.2 357.101Z" fill="#D1D3D4"/>
<path d="M314.5 319.301C314.3 320.001 292.1 327.201 292.1 327.201C292.1 327.201 276.9 320.301 267.4 321.501C256.8 322.901 247 325.601 239.2 333.401C238.6 334.001 237.9 334.901 238.2 335.801C238.5 336.701 239.7 336.901 240.6 336.901C245.4 336.501 249 332.101 253.7 331.101C251.2 332.401 248.8 333.901 246.6 335.601C244.4 337.401 242.8 339.801 242 342.501C241.8 343.001 241.8 343.601 242.1 344.101C242.5 344.901 243.7 344.901 244.5 344.701C249 343.701 252.1 339.701 256.1 337.401C253.8 339.101 251.6 341.001 249.7 343.101C247.8 345.301 246.7 348.101 246.7 350.901C246.7 352.001 247.4 353.301 248.4 353.001C248.7 352.901 248.9 352.701 249.1 352.501C252.3 349.501 255.3 346.201 258.1 342.701C256.6 345.201 255.9 348.101 256.2 350.901C256.3 352.801 257.2 354.701 258.7 355.901C260.3 356.901 262.9 356.501 263.6 354.701C264 353.701 263.7 352.501 263.7 351.401C263.9 346.901 270.7 345.001 274.3 345.501C280.5 346.301 294.4 349.501 297.8 349.601C301.2 349.701 328.3 337.301 328.3 337.301" fill="#FFFDFA"/>
<path d="M260.699 357.299C259.899 357.299 258.999 357.099 258.299 356.599C256.199 355.199 255.599 352.599 255.499 351.099C255.299 349.599 255.399 348.099 255.799 346.599C253.799 348.799 251.699 350.999 249.599 353.099C249.299 353.399 248.999 353.599 248.599 353.699C248.099 353.899 247.599 353.799 247.099 353.499C246.399 352.899 245.899 351.899 245.899 350.999C245.899 348.399 246.699 345.899 248.199 343.899C247.099 344.599 245.799 345.099 244.499 345.399C242.999 345.699 241.899 345.399 241.299 344.499C240.999 343.799 240.899 343.099 241.199 342.399C241.799 340.099 242.999 338.099 244.599 336.399C243.299 336.999 241.899 337.399 240.499 337.599C239.299 337.699 237.799 337.299 237.299 336.099C236.799 334.899 238.099 333.399 238.499 332.999C247.099 324.499 257.799 322.099 267.199 320.899C276.199 319.799 289.999 325.599 291.999 326.499C299.999 323.899 312.599 319.699 313.899 318.899C314.099 318.699 314.399 318.599 314.699 318.699C315.099 318.799 315.299 319.199 315.099 319.599C314.999 319.999 314.699 320.699 292.199 327.899C291.999 327.999 291.899 327.999 291.699 327.899C291.599 327.799 276.499 321.099 267.399 322.299C258.299 323.499 247.899 325.799 239.599 333.999C238.899 334.699 238.599 335.199 238.699 335.599C238.799 335.999 239.699 336.299 240.399 336.199C242.799 335.999 244.899 334.699 247.199 333.299C249.099 331.999 251.199 330.999 253.499 330.399C253.799 330.299 254.199 330.499 254.299 330.799C254.399 331.099 254.299 331.499 253.999 331.699C251.499 332.899 249.199 334.399 246.999 336.199C244.899 337.899 243.399 340.199 242.599 342.799C242.499 343.099 242.499 343.499 242.599 343.899C242.799 344.299 243.699 344.299 244.299 344.199C246.999 343.599 249.199 341.899 251.499 340.099C252.799 338.999 254.199 337.999 255.699 337.099C255.999 336.899 256.399 336.999 256.599 337.299C256.799 337.599 256.699 337.999 256.499 338.299C254.199 339.899 252.099 341.799 250.299 343.899C248.499 345.899 247.499 348.599 247.399 351.299C247.399 351.799 247.599 352.299 247.999 352.699C248.099 352.699 248.199 352.699 248.199 352.699C248.399 352.599 248.499 352.499 248.599 352.399C251.799 349.399 254.799 346.099 257.599 342.699C257.799 342.399 258.299 342.299 258.599 342.499C258.899 342.699 258.999 343.099 258.799 343.399C257.399 345.699 256.699 348.499 256.999 351.199C257.099 352.399 257.599 354.599 259.199 355.599C259.999 356.099 260.899 356.199 261.699 355.899C262.299 355.699 262.799 355.299 262.999 354.799C263.199 354.199 263.199 353.599 263.099 352.999C263.099 352.599 263.099 352.199 263.099 351.799C263.199 350.199 263.999 348.799 265.299 347.799C267.999 345.799 271.199 344.899 274.499 345.299C277.299 345.699 281.699 346.499 285.999 347.399C290.999 348.399 296.099 349.399 297.899 349.399C300.399 349.399 317.299 342.099 327.999 337.099C328.399 336.899 328.799 337.099 328.899 337.399C328.999 337.699 328.899 338.199 328.599 338.299C325.799 339.599 301.299 350.799 297.799 350.699C295.899 350.599 290.899 349.699 285.699 348.699C281.399 347.899 276.999 346.999 274.299 346.699C271.399 346.399 268.499 347.199 266.199 348.899C265.199 349.599 264.599 350.699 264.499 351.899C264.499 352.299 264.499 352.599 264.499 352.999C264.599 353.799 264.499 354.599 264.299 355.399C263.899 356.399 263.099 357.099 262.099 357.399C261.699 357.199 261.199 357.299 260.699 357.299Z" fill="#22262E"/>
<path d="M342 185.101C342 185.101 409.5 271.701 388.8 297.401C368.1 323.101 306 347.501 306 347.501L290.6 319.001C290.6 319.001 350 290.401 351.3 284.601L307.6 233.301C307.7 233.301 318.1 180.701 342 185.101Z" fill="#3185FF"/>
<path d="M350.7 283.701C350.5 283.701 350.3 283.601 350.2 283.501L316.999 245.501C316.699 245.201 316.8 244.801 317.1 244.501C317.4 244.201 317.8 244.301 318.1 244.601L351.299 282.601C351.599 282.901 351.5 283.301 351.2 283.601C351.1 283.601 350.9 283.701 350.7 283.701Z" fill="#22262E"/>
<path d="M264.4 261.002C264.2 261.002 264 260.902 263.9 260.802C263.7 260.602 246.9 243.202 243.5 239.402C240.1 235.602 246.9 227.202 249 224.802C246.7 223.102 238.7 217.002 237.7 216.202C237.2 215.802 236.1 214.902 247 194.002C247.2 193.702 247.6 193.502 247.9 193.702C248.2 193.902 248.4 194.302 248.2 194.602C243.6 203.502 238.8 213.402 238.7 215.202C240.5 216.602 250.3 224.102 250.4 224.102C250.6 224.202 250.7 224.402 250.7 224.602C250.7 224.802 250.7 225.002 250.5 225.102C248 227.902 242.1 235.602 244.5 238.402C247.8 242.202 264.7 259.602 264.9 259.802C265.2 260.102 265.2 260.502 264.9 260.802C264.7 260.902 264.6 261.002 264.4 261.002Z" fill="#22262E"/>
<path d="M292.2 259.002C291.8 259.002 291.5 258.702 291.5 258.302C291.5 258.202 291.5 258.002 291.6 257.902C297.1 250.402 311.5 230.002 311.5 225.902C311.5 222.002 300.5 215.702 296.3 213.602C296.1 213.502 296 213.302 296 213.002C296 212.702 296.1 212.502 296.4 212.402C296.5 212.302 310.6 204.602 313.7 200.702C313.8 200.502 313.9 200.402 313.8 200.202C313.1 196.702 299.5 188.502 288.2 182.402L288.1 182.302C287.8 182.102 287.6 181.702 287.8 181.302C288 181.002 288.4 180.802 288.8 181.002L288.9 181.102C296.5 185.102 314.2 195.002 315.3 199.802C315.4 200.402 315.3 201.002 314.9 201.502C312.1 205.002 301.8 211.002 298.3 212.902C302.2 214.902 313.1 221.102 313.1 225.902C313.1 231.202 295 255.902 293 258.702C292.7 259.002 292.4 259.002 292.2 259.002Z" fill="#22262E"/>
<path d="M231 305.2L225.6 306.9L213.6 264.1L218.9 262.5L231 305.2Z" fill="#FFFDFA"/>
<path d="M225.6 307.499C225.3 307.499 225 307.299 225 306.999L212.9 264.299C212.8 263.899 213 263.599 213.4 263.399L218.7 261.799C218.9 261.699 219.1 261.799 219.2 261.899C219.4 261.999 219.5 262.099 219.5 262.299L231.6 304.999C231.7 305.399 231.5 305.799 231.1 305.899L225.8 307.499C225.8 307.499 225.7 307.499 225.6 307.499ZM214.4 264.599L226.1 305.999L230.1 304.799L218.4 263.399L214.4 264.599Z" fill="#22262E"/>
<path d="M231 305.199L225.6 306.899L230.9 315.299L231 305.199Z" fill="#FFFDFA"/>
<path d="M230.899 316C230.699 316 230.399 315.9 230.299 315.7L224.999 307.2C224.899 307 224.899 306.8 224.899 306.6C224.999 306.4 225.199 306.2 225.399 306.2L230.699 304.6C230.899 304.5 231.099 304.6 231.299 304.7C231.499 304.8 231.599 305 231.599 305.3V315.4C231.599 315.7 231.399 316 231.099 316.1C230.999 316 230.999 316 230.899 316ZM226.699 307.2L230.199 312.8V306.1L226.699 307.2Z" fill="#22262E"/>
<path d="M190.2 280.902C190.2 280.902 173.1 284.702 169.6 293.802C169.6 293.802 196.9 306.702 201.4 307.802C205.9 308.902 234.4 307.202 234.5 302.102C234.6 297.002 232.6 290.502 230.5 288.602C228.4 286.702 219.4 286.902 219.4 286.902C219.2 285.102 218.8 283.302 218 281.602C214.3 281.902 200.7 285.002 190.2 280.902Z" fill="#FFFDFA"/>
<path d="M206.299 308.801C204.599 308.901 202.899 308.701 201.199 308.501C196.599 307.401 170.299 295.001 169.199 294.501C168.899 294.301 168.699 294.001 168.799 293.601C172.399 284.201 189.199 280.401 189.899 280.301C189.999 280.301 190.199 280.301 190.299 280.301C198.699 283.601 209.199 282.101 214.799 281.401C216.099 281.201 217.099 281.101 217.799 281.001C218.099 281.001 218.299 281.101 218.499 281.401C219.199 283.001 219.699 284.601 219.899 286.301C222.099 286.301 228.999 286.401 230.899 288.201C233.199 290.301 235.199 297.001 235.099 302.201C234.999 303.001 234.599 303.801 233.899 304.301C229.999 307.401 214.799 308.801 206.299 308.801ZM170.399 293.501C174.499 295.401 197.399 306.201 201.499 307.201C205.599 308.201 228.299 306.901 233.099 303.201C233.499 303.001 233.699 302.601 233.799 302.201C233.899 297.001 231.799 290.901 229.999 289.201C228.599 287.901 222.799 287.601 219.399 287.701C218.999 287.701 218.699 287.401 218.699 287.101C218.499 285.501 218.199 284.001 217.599 282.501C216.999 282.601 216.099 282.701 215.099 282.801C209.399 283.601 198.799 285.001 190.099 281.701C188.299 282.101 174.099 285.701 170.399 293.501Z" fill="#22262E"/>
<path d="M215 269.502C214.6 269.502 214.3 269.202 214.3 268.802C214.3 268.502 214.5 268.302 214.7 268.202L219.9 266.202C220.2 266.002 220.7 266.202 220.8 266.502C221 266.802 220.8 267.302 220.5 267.402H220.4L215.2 269.402C215.2 269.402 215.1 269.502 215 269.502Z" fill="#22262E"/>
<path d="M226.9 309.602C226.6 309.602 226.3 309.402 226.2 309.002C226.1 308.602 226.4 308.302 226.8 308.202L230.8 307.502C231.2 307.402 231.6 307.602 231.7 308.002C231.8 308.402 231.6 308.802 231.2 308.902H231.1L226.9 309.602Z" fill="#22262E"/>
<path d="M222.7 180.602C222.7 180.602 100.3 267.402 114.6 281.002C128.9 294.602 186.2 305.302 186.2 305.302L199.3 280.102L171.3 266.202C179.3 261.002 222.7 233.102 222.7 233.102V180.602Z" fill="#3185FF"/>
<path d="M218.799 256.301C218.399 256.301 218.099 256.001 218.099 255.701L211.899 206.101C211.899 205.701 212.099 205.401 212.499 205.301C212.899 205.201 213.199 205.501 213.299 205.901L219.499 255.501C219.599 255.901 219.299 256.201 218.799 256.301C218.899 256.301 218.899 256.301 218.799 256.301Z" fill="#22262E"/>
<path d="M211.3 328.502C211.2 328.502 211.1 328.502 211 328.402L163.6 304.402C163.2 304.302 163.1 303.902 163.2 303.502C163.3 303.102 163.7 303.002 164.1 303.102C164.2 303.102 164.2 303.102 164.2 303.202L211.6 327.202C211.9 327.402 212.1 327.802 211.9 328.102C211.9 328.302 211.6 328.502 211.3 328.502Z" fill="#D1D3D4"/>
<path d="M348.6 346.902L306 366.302L337.5 380.802L380.4 359.402L348.6 346.902Z" fill="#FFFDFA"/>
<path d="M337.5 381.502C337.4 381.502 337.3 381.502 337.2 381.402L305.7 367.002C305.3 366.802 305.2 366.402 305.4 366.102C305.5 366.002 305.6 365.802 305.7 365.802L348.3 346.302C348.5 346.202 348.7 346.202 348.8 346.302L380.6 358.802C380.9 358.902 381 359.102 381 359.402C381 359.702 380.9 359.902 380.6 360.102L337.7 381.402C337.7 381.402 337.6 381.502 337.5 381.502ZM307.7 366.302L337.5 380.002L378.7 359.502L348.6 347.602L307.7 366.302Z" fill="#D1D3D4"/>
<path d="M335.9 348.699L293.3 368.199L324.8 382.599L367.7 361.199L335.9 348.699Z" fill="#FFFDFA"/>
<path d="M324.8 383.302C324.7 383.302 324.6 383.302 324.5 383.202L293 368.802C292.6 368.602 292.5 368.202 292.7 367.902C292.8 367.702 292.9 367.602 293 367.602L335.6 348.102C335.8 348.002 336 348.002 336.1 348.102L368 360.702C368.3 360.802 368.4 361.002 368.4 361.302C368.4 361.602 368.3 361.802 368 362.002L325.1 383.402C325 383.302 324.9 383.302 324.8 383.302ZM295 368.202L324.8 381.902L366 361.402L335.9 349.502L295 368.202Z" fill="#D1D3D4"/>
<path d="M327.3 376.2C327.2 376.2 327.1 376.2 327 376.1L306.7 367C306.3 366.8 306.2 366.4 306.3 366.1C306.5 365.7 306.9 365.6 307.2 365.7L327.5 374.9C327.9 375.1 328 375.5 327.9 375.8C327.8 376.1 327.5 376.2 327.3 376.2Z" fill="#D1D3D4"/>
<path d="M334.8 372.399C334.7 372.399 334.6 372.399 334.5 372.299L314.2 363.099C313.8 362.899 313.7 362.499 313.8 362.199C313.9 361.899 314.4 361.699 314.7 361.799L335 370.999C335.4 371.199 335.5 371.599 335.4 371.899C335.3 372.299 335.1 372.399 334.8 372.399Z" fill="#D1D3D4"/>
<path d="M342.2 369.101C342.1 369.101 342 369.101 341.9 369.001L321.6 359.801C321.2 359.601 321.1 359.201 321.2 358.901C321.4 358.501 321.8 358.401 322.1 358.501L342.4 367.701C342.7 367.901 342.9 368.301 342.8 368.601C342.7 368.901 342.5 369.101 342.2 369.101Z" fill="#D1D3D4"/>
<path d="M350 364.501C349.9 364.501 349.8 364.501 349.7 364.401L329.4 355.201C329.1 355.001 329 354.601 329.1 354.201C329.3 353.901 329.6 353.801 329.9 353.901L350.2 363.101C350.6 363.301 350.7 363.701 350.6 364.001C350.6 364.401 350.3 364.501 350 364.501Z" fill="#D1D3D4"/>
</svg>
