<svg width="348" height="319" viewBox="0 0 348 319" fill="none" xmlns="http://www.w3.org/2000/svg">
<path d="M106.4 131.578C106.3 131.578 106.2 131.578 106.1 131.478L18.1998 88.3782C17.8998 88.1782 17.6998 87.7782 17.8998 87.4782C18.0998 87.1782 18.4998 86.9782 18.7998 87.1782L106.7 130.278C107 130.478 107.2 130.878 107 131.178C107 131.478 106.7 131.578 106.4 131.578Z" fill="#D1D3D4"/>
<path d="M23.3003 301.878C23.1003 301.878 22.9003 301.778 22.8003 301.678C22.5003 301.378 22.6003 300.978 22.9003 300.678L91.5003 243.378C91.8003 243.178 92.2003 243.178 92.5003 243.478C92.8003 243.778 92.7003 244.178 92.4003 244.478L23.8003 301.778C23.6003 301.778 23.4003 301.878 23.3003 301.878Z" fill="#D1D3D4"/>
<path d="M338.9 277.579C338.7 277.579 338.6 277.579 338.5 277.479L233.4 197.879C233.1 197.679 233 197.179 233.3 196.879C233.5 196.579 234 196.479 234.3 196.779L339.4 276.379C339.7 276.579 339.8 277.079 339.6 277.379C339.3 277.579 339.1 277.679 338.9 277.579Z" fill="#D1D3D4"/>
<path d="M117.2 101.279C117 101.279 116.8 101.179 116.7 101.079L65.4003 43.7788C65.1003 43.4788 65.2003 43.0788 65.4003 42.7788C65.7003 42.4788 66.1003 42.5788 66.4003 42.8788L117.7 100.279C118 100.579 117.9 100.979 117.6 101.279C117.6 101.279 117.4 101.379 117.2 101.279Z" fill="#D1D3D4"/>
<path d="M292.4 144.678C292.1 144.678 291.9 144.478 291.8 144.278C291.7 143.878 291.8 143.478 292.2 143.378L346.3 122.278C346.7 122.178 347.1 122.278 347.2 122.678C347.3 123.078 347.2 123.478 346.8 123.578L292.6 144.578C292.5 144.578 292.4 144.578 292.4 144.678Z" fill="#D1D3D4"/>
<path d="M207.9 96.4782C207.8 96.4782 207.7 96.4782 207.6 96.3782C207.3 96.1782 207.1 95.7782 207.3 95.4782L226.6 56.4782C226.8 56.1782 227.2 55.9782 227.5 56.1782C227.8 56.3782 228 56.7782 227.8 57.0782L208.5 96.0782C208.4 96.2782 208.2 96.4782 207.9 96.4782Z" fill="#D1D3D4"/>
<path d="M338.9 191.178L275.6 182.978C275.2 182.878 275 182.578 275 182.178C275 181.778 275.4 181.578 275.8 181.578L339 189.778C339.4 189.878 339.6 190.178 339.6 190.578C339.5 190.978 339.2 191.278 338.9 191.178Z" fill="#D1D3D4"/>
<path d="M221.6 119.778C221.4 119.778 221.2 119.678 221.1 119.478C220.9 119.178 220.9 118.678 221.2 118.478L230.6 110.878C230.9 110.678 231.3 110.678 231.6 110.978C231.8 111.278 231.8 111.778 231.5 111.978L222.1 119.578C221.9 119.778 221.8 119.778 221.6 119.778Z" fill="#D1D3D4"/>
<path d="M282.1 301.878C281.9 301.878 281.6 301.778 281.5 301.578L245.2 240.178C245 239.878 245.1 239.478 245.4 239.178C245.4 239.178 245.4 239.178 245.5 239.178C245.8 238.978 246.3 239.078 246.5 239.378C246.5 239.378 246.5 239.378 246.5 239.478L282.7 300.778C282.9 301.078 282.8 301.478 282.5 301.778C282.5 301.778 282.5 301.778 282.4 301.778C282.4 301.778 282.2 301.878 282.1 301.878Z" fill="#D1D3D4"/>
<path d="M83.2 305.377C83.1 305.377 83 305.377 82.9 305.277C82.6 305.077 82.4 304.677 82.6 304.377L97.3 276.677C97.5 276.377 97.9 276.177 98.2 276.377C98.5 276.577 98.7 276.977 98.5 277.377L83.8 305.077C83.7 305.177 83.4 305.377 83.2 305.377Z" fill="#D1D3D4"/>
<path d="M0.699997 217.979C0.299997 217.979 0 217.679 0 217.279C0 216.979 0.2 216.679 0.5 216.579L45.6 206.379C46 206.279 46.4 206.579 46.4 206.879C46.5 207.279 46.3 207.679 45.9 207.679L0.799995 217.979H0.699997Z" fill="#D1D3D4"/>
<path d="M144.3 52.7778C144 52.7778 143.7 52.5778 143.6 52.2778L132.9 15.0778C132.8 14.6778 133 14.2778 133.4 14.1778C133.8 14.0778 134.2 14.2778 134.3 14.6778L145 51.8778C145.1 52.2778 144.9 52.6778 144.5 52.7778C144.5 52.7778 144.4 52.7778 144.3 52.7778Z" fill="#D1D3D4"/>
<path d="M192 40.8786C191.9 40.8786 191.9 40.8786 191.8 40.8786C191.4 40.7786 191.2 40.3786 191.3 40.0786L198.8 6.97861C198.9 6.57861 199.3 6.37861 199.6 6.47861C199.9 6.57861 200.2 6.9786 200.1 7.2786L192.5 40.3786C192.5 40.5786 192.2 40.7786 192 40.8786Z" fill="#D1D3D4"/>
<path d="M41.9004 149.08H14.1004C13.7004 149.08 13.4004 148.78 13.4004 148.38C13.4004 147.98 13.7004 147.68 14.1004 147.68H42.0004C42.4004 147.68 42.7004 147.98 42.7004 148.38C42.6004 148.78 42.3004 149.08 41.9004 149.08Z" fill="#D1D3D4"/>
<path d="M267.399 105.68C267.399 105.68 271.499 97.4797 270.899 94.0797C270.299 90.6797 269.199 80.6797 269.199 80.6797L296.799 83.2797L287.899 115.28" fill="white"/>
<path d="M287.9 115.98C287.8 115.98 287.8 115.98 287.7 115.98C287.3 115.88 287.1 115.48 287.2 115.08L295.8 83.8805L270 81.4805C270.3 83.9805 271.2 91.2805 271.6 93.9805C272.2 97.5805 268.2 105.68 268 105.98C267.8 106.38 267.4 106.48 267 106.28C266.6 106.08 266.5 105.68 266.7 105.28C267.8 103.08 270.6 96.6805 270.2 94.1805C269.6 90.8805 268.5 81.1805 268.4 80.7805C268.4 80.5805 268.5 80.3805 268.6 80.1805C268.7 79.9805 269 79.9805 269.2 79.9805L296.8 82.5805C297.2 82.5805 297.5 82.9805 297.5 83.3805V83.4805L288.6 115.48C288.5 115.78 288.2 115.98 287.9 115.98Z" fill="#231F20"/>
<path d="M74.5 145.981C74.5 145.981 74.8 129.681 74.5 125.981C74.2 122.281 79.8 101.881 78.4 98.681C77 95.481 73.4 94.281 72.1 97.981C70.8 101.681 68.4 110.181 68.4 110.181C68.4 110.181 54 101.281 51.1 107.481C48.2 113.681 45.5 124.981 48.5 127.881C50.4 129.581 52.7 130.681 55.3 130.981L54.5 151.681L74.5 145.981Z" fill="white"/>
<path d="M54.4997 152.282C54.2997 152.282 54.1997 152.182 54.0997 152.082C53.8997 151.982 53.7997 151.682 53.7997 151.482L54.5997 131.482C52.1997 131.082 49.8997 129.982 48.0997 128.282C44.3997 124.882 47.8997 112.582 50.4997 107.082C50.9997 105.982 51.9997 105.082 53.1997 104.782C57.6997 103.482 65.4997 107.582 67.9997 109.082C68.5997 106.782 70.3997 100.782 71.3997 97.7816C71.9997 95.9816 73.1997 94.9816 74.5997 94.9816C76.2997 94.8816 78.0997 96.2816 78.9997 98.3816C79.7997 100.282 78.6997 106.282 76.8997 115.182C75.8997 119.982 74.9997 124.382 75.0997 125.882C75.3997 129.582 75.0997 145.282 75.0997 145.882C75.0997 146.182 74.8997 146.482 74.5997 146.582L54.5997 152.182C54.5997 152.282 54.4997 152.282 54.4997 152.282ZM55.1997 106.082C54.6997 106.082 54.0997 106.182 53.5997 106.282C52.7997 106.482 52.0997 107.082 51.6997 107.882C48.7997 113.982 46.2997 124.882 48.9997 127.382C50.6997 128.982 52.8997 129.982 55.2997 130.182C55.6997 130.182 55.9997 130.582 55.9997 130.882L55.1997 150.582L73.6998 145.382C73.6998 142.482 73.8998 129.282 73.6998 125.982C73.5998 124.382 74.4997 119.982 75.4997 114.882C76.6997 108.882 78.3998 100.582 77.6998 98.8816C77.0998 97.3816 75.8998 96.2816 74.6998 96.2816C73.4998 96.2816 73.0997 97.2816 72.7997 98.0816C71.4997 101.782 69.1997 110.182 69.0997 110.182C68.9997 110.382 68.8998 110.582 68.6998 110.682C68.4998 110.782 68.2997 110.782 68.0997 110.582C67.9997 110.782 60.1997 106.082 55.1997 106.082Z" fill="#231F20"/>
<path d="M130.2 243.88L110.7 318.28L159.5 315.08L170.3 278.28L187.3 313.68H231L204.4 212.18L130.2 243.88Z" fill="#231F20"/>
<path d="M199.5 234.179L127.1 247.679L145.1 140.779C145.1 140.779 181.9 133.379 190.8 133.379C198.4 133.379 199.5 234.179 199.5 234.179Z" fill="white"/>
<path d="M127.099 248.38C126.899 248.38 126.699 248.28 126.599 248.18C126.399 247.98 126.399 247.78 126.399 247.58L144.399 140.68C144.399 140.38 144.699 140.18 144.999 140.08C146.499 139.78 181.999 132.68 190.899 132.68C192.499 132.68 196.299 132.78 198.699 183.78C199.899 208.68 200.199 233.98 200.199 234.18C200.199 234.48 199.999 234.78 199.599 234.88L127.199 248.38H127.099ZM145.699 141.38L127.999 246.78L198.799 233.58C198.199 177.68 194.699 134.08 190.899 134.08C182.699 134.08 149.999 140.48 145.699 141.38Z" fill="#231F20"/>
<path d="M157.4 133.38C156.3 134.08 159.5 149.58 159.6 151.08C161.2 165.18 162 179.38 161.9 193.58C161.8 209.38 158.7 225.08 152.7 239.78C150 246.58 146.9 253.18 143.6 259.78C140.3 266.38 133.9 267.38 127.1 266.88C119.8 266.38 112.6 264.98 105.5 262.88C103.1 262.08 100.5 261.18 98.9 259.18C96 255.58 99.1 250.78 100.8 247.38C103.1 242.48 105.2 237.58 107.3 232.68C110.5 224.68 119.3 205.58 121.5 197.28C124.4 186.48 120.1 186.48 120.6 175.28C120.8 170.78 120.9 166.28 121 161.78C121.1 159.08 120.3 150.58 122.1 148.58C135.7 132.98 157.4 133.38 157.4 133.38Z" fill="#3185FF"/>
<path d="M211.4 130.879C211.9 130.979 209.6 167.179 209.8 168.979C211 182.679 231.1 236.679 231.1 236.679C231.1 241.679 180.9 271.379 177.7 262.479C192.6 184.079 182.3 133.379 182 133.379C181.9 133.379 199.8 128.679 211.4 130.879Z" fill="#3185FF"/>
<path d="M174.599 152.582L169.099 157.982L173.599 161.082C173.599 161.082 168.899 195.982 152.399 200.882C135.899 205.782 129.499 204.182 129.499 204.182L120.399 215.982C120.399 215.982 134.499 219.982 135.499 220.382C136.499 220.782 166.499 213.782 171.199 195.182C173.999 184.282 175.899 173.082 176.699 161.782L179.699 158.082L174.599 152.582Z" fill="#231F20"/>
<path d="M153.999 187.08C153.799 187.08 153.6 186.98 153.4 186.78L139.499 167.78C139.299 167.48 139.3 167.08 139.6 166.88L148.3 157.88L137.4 155.18C137 155.08 136.8 154.68 136.9 154.28C136.9 154.18 137 154.08 137.1 153.98L149.9 140.28C150.2 139.98 150.6 139.98 150.9 140.28C151.2 140.58 151.2 140.98 150.9 141.28L138.9 154.08L149.8 156.98C150.2 157.08 150.4 157.48 150.3 157.78C150.3 157.88 150.2 157.98 150.1 158.08L140.999 167.48L154.6 185.98C154.8 186.28 154.8 186.78 154.4 186.98C154.3 187.08 154.099 187.08 153.999 187.08Z" fill="#231F20"/>
<path d="M188.999 185.081C188.899 185.081 188.799 185.08 188.699 184.98C188.299 184.78 188.199 184.381 188.299 184.081L198.599 160.181L188.099 154.881C187.899 154.781 187.799 154.681 187.699 154.481C187.699 154.281 187.699 154.081 187.799 153.881L195.599 141.081L185.299 136.281C184.899 136.081 184.799 135.681 184.999 135.381C185.199 135.081 185.599 134.881 185.899 135.081L196.899 140.181C197.099 140.281 197.199 140.381 197.299 140.581C197.399 140.781 197.299 140.981 197.199 141.181L189.299 153.981L199.799 159.181C200.099 159.381 200.299 159.781 200.099 160.081L189.599 184.681C189.499 184.881 189.199 185.081 188.999 185.081Z" fill="#231F20"/>
<path d="M211.4 130.882C211.4 130.882 237.6 139.682 244.4 137.782C251.2 135.882 264.8 103.582 264.8 103.582L292.4 106.982C292.4 106.982 280.9 175.182 259 178.882C237.1 182.582 208 172.782 208 172.782L211.4 130.882Z" fill="#3185FF"/>
<path d="M147.499 105.679C146.399 100.579 144.899 95.579 144.399 90.479C143.899 85.379 144.599 79.879 147.599 75.579C150.699 70.979 154.799 71.479 159.599 70.879C165.999 70.079 171.799 66.779 177.699 64.479C178.799 64.079 180.599 63.979 180.799 65.179C180.799 65.579 180.799 65.979 180.599 66.279C179.799 68.179 178.799 69.979 177.399 71.479C182.099 70.379 186.599 68.679 190.699 66.279C191.599 70.879 190.299 75.679 187.299 79.279L195.199 75.379C196.599 81.979 191.899 89.279 185.299 90.579" fill="white"/>
<path d="M147.5 106.38C147.2 106.38 146.9 106.18 146.8 105.78C146.5 104.48 146.2 103.18 145.9 101.78C144.9 98.0805 144.2 94.2805 143.7 90.3805C143.3 86.0805 143.6 79.9805 147 74.9805C149.8 70.8805 153.3 70.5805 157.1 70.2805C157.9 70.1805 158.7 70.1805 159.5 70.0805C164.1 69.4805 168.4 67.5805 172.6 65.7805C174.2 65.0805 175.8 64.3805 177.4 63.7805C178.4 63.3805 179.6 63.3805 180.6 63.7805C181.1 64.0805 181.4 64.4805 181.5 64.9805C181.6 65.4805 181.5 65.9805 181.3 66.4805C180.8 67.7805 180.1 69.0805 179.3 70.2805C183.2 69.1805 186.9 67.6805 190.4 65.6805C190.6 65.5805 190.9 65.5805 191.1 65.6805C191.3 65.7805 191.5 65.9805 191.5 66.1805C192.2 69.9805 191.5 73.9805 189.6 77.2805L194.9 74.6805C195.1 74.5805 195.3 74.5805 195.5 74.6805C195.7 74.7805 195.9 74.9805 195.9 75.1805C197.2 82.4805 192.6 89.5805 185.4 91.2805C185 91.3805 184.6 91.0805 184.5 90.7805C184.4 90.4805 184.7 89.9805 185 89.8805C188.1 89.1805 190.8 87.2805 192.5 84.5805C194.1 82.1805 194.8 79.3805 194.5 76.4805L187.5 79.9805C187.2 80.1805 186.8 80.0805 186.6 79.7805C186.4 79.4805 186.4 79.0805 186.6 78.8805C189.3 75.7805 190.5 71.5805 190 67.4805C186.1 69.6805 181.8 71.2805 177.5 72.2805C177.1 72.3805 176.7 72.0805 176.6 71.7805C176.5 71.5805 176.6 71.2805 176.8 71.1805C178.1 69.6805 179.1 67.9805 179.9 66.1805C180 65.9805 180.1 65.7805 180.1 65.4805C180.1 65.3805 180 65.2805 179.9 65.2805C179.2 65.0805 178.5 65.0805 177.9 65.3805C176.3 65.9805 174.7 66.6805 173.1 67.3805C168.8 69.2805 164.4 71.1805 159.6 71.7805C158.7 71.8805 157.9 71.9805 157.1 72.0805C153.4 72.3805 150.5 72.6805 148.1 76.1805C144.9 80.7805 144.7 86.5805 145 90.5805C145.4 94.3805 146.1 98.0805 147.1 101.78C147.4 103.08 147.7 104.38 148 105.78C148.1 106.18 147.8 106.58 147.5 106.68V106.38Z" fill="#231F20"/>
<path d="M182 127.38L183.6 138.18C183.6 138.18 181.9 153.98 169.9 151.18C157.9 148.38 153.2 137.68 153.2 137.68L151.7 108.98C151.7 108.98 160.5 104.18 157.7 84.9805C167.5 89.0805 178.2 90.4805 188.7 88.9805C188.7 88.9805 192.9 108.68 191.6 117.98C190.3 127.28 181.9 127.28 181.9 127.28L182 127.38Z" fill="white"/>
<path d="M172.7 152.281C171.7 152.281 170.8 152.181 169.8 151.881C157.6 149.081 152.8 138.381 152.6 137.881C152.6 137.781 152.5 137.681 152.5 137.681L151 108.981C151 108.681 151.1 108.481 151.4 108.281C151.5 108.281 159.7 103.381 157 85.0812C157 84.6812 157.2 84.2812 157.6 84.2812C157.7 84.2812 157.8 84.2812 158 84.2812C167.7 88.2812 178.2 89.6812 188.6 88.1812C189 88.0812 189.3 88.3812 189.4 88.7812C189.6 89.5813 193.7 108.781 192.3 117.981C191.1 125.981 184.9 127.481 182.7 127.881L184.3 137.981C184.3 138.081 184.3 138.081 184.3 138.181C184.3 138.581 183.3 146.781 178.1 150.481C176.5 151.681 174.6 152.281 172.7 152.281ZM154 137.581C154.6 138.681 159.4 148.081 170.1 150.581C172.6 151.281 175.2 150.881 177.3 149.481C181.7 146.381 182.8 139.181 182.9 138.281L181.2 127.481C181.1 127.081 181.4 126.681 181.8 126.681H181.9C182.2 126.681 189.7 126.481 190.9 117.981C192.1 109.881 188.9 93.3812 188.1 89.8812C178.1 91.0812 167.9 89.8812 158.5 86.1812C160.5 102.581 154.1 108.181 152.3 109.381L154 137.581Z" fill="#231F20"/>
<path d="M175.8 100.582C175.8 100.582 181.5 110.982 179.8 112.582C178.1 114.182 173.8 112.582 173.8 112.582" fill="white"/>
<path d="M177.4 113.981C176.1 113.981 174.8 113.681 173.6 113.281C173.2 113.181 173.1 112.781 173.2 112.381C173.3 111.981 173.7 111.881 174.1 111.981C175.1 112.381 178.2 113.081 179.4 112.081C180.1 111.481 178.1 106.181 175.3 100.981C175.1 100.681 175.2 100.181 175.6 100.081C175.9 99.8806 176.4 99.9806 176.6 100.281C176.6 100.281 176.6 100.281 176.6 100.381C178.4 103.681 182.3 111.481 180.4 113.181C179.5 113.781 178.5 114.081 177.4 113.981Z" fill="#231F20"/>
<path d="M165.709 101.478C166.371 101.45 166.857 100.219 166.795 98.7295C166.732 97.2396 166.144 96.0545 165.482 96.0824C164.82 96.1102 164.334 97.3406 164.397 98.8304C164.459 100.32 165.047 101.505 165.709 101.478Z" fill="#231F20"/>
<path d="M184.509 101.474C185.171 101.446 185.657 100.215 185.594 98.7256C185.532 97.2357 184.944 96.0506 184.282 96.0784C183.62 96.1063 183.134 97.3367 183.197 98.8265C183.259 100.316 183.847 101.501 184.509 101.474Z" fill="#231F20"/>
<path d="M159.4 104.08C158.3 102.28 156.899 100.68 155.299 99.3805C154.399 98.5805 153.4 98.1805 152.2 97.9805C151.3 97.9805 150.4 98.2805 149.6 98.7805C147.2 100.18 145.499 102.48 144.999 105.18C144.699 106.38 144.8 107.68 145.1 108.88C145.8 110.78 147.099 112.38 148.799 113.38C150.499 114.38 152.3 115.18 154.2 115.78" fill="white"/>
<path d="M154.299 116.579C154.199 116.579 154.099 116.579 154.099 116.579C152.099 115.979 150.299 115.179 148.499 114.179C146.599 113.079 145.199 111.379 144.499 109.279C144.099 107.979 144.099 106.579 144.299 105.179C144.899 102.279 146.699 99.7789 149.199 98.2789C150.099 97.6789 151.099 97.3789 152.199 97.3789C153.499 97.4789 154.699 98.0789 155.699 98.8789C157.399 100.179 158.899 101.879 159.999 103.779C160.199 104.079 160.099 104.579 159.699 104.779C159.399 104.979 158.899 104.879 158.699 104.479C157.699 102.779 156.399 101.279 154.799 99.9789C154.099 99.2789 153.099 98.8789 152.199 98.7789C151.399 98.7789 150.599 99.0789 149.999 99.4789C147.799 100.779 146.199 102.979 145.799 105.479C145.599 106.579 145.599 107.779 145.899 108.879C146.499 110.579 147.699 112.079 149.299 112.979C150.999 113.879 152.799 114.679 154.599 115.179C154.999 115.279 155.199 115.679 155.099 116.079C154.999 116.379 154.699 116.579 154.299 116.579Z" fill="#231F20"/>
<path d="M182 127.382C175.2 128.382 168.1 127.282 162 124.082C162 124.082 172.2 139.782 183.6 137.582L182 127.382Z" fill="#231F20"/>
<path d="M181.3 138.479C170.6 138.479 161.7 125.079 161.4 124.479C161.2 124.179 161.3 123.879 161.5 123.579C161.7 123.379 162.1 123.279 162.3 123.379C168.3 126.479 175.2 127.579 181.9 126.579C182.3 126.479 182.7 126.779 182.7 127.079L184.3 137.279C184.4 137.679 184.1 137.979 183.7 138.079C182.9 138.379 182.1 138.479 181.3 138.479ZM164.1 125.779C167.2 129.779 174.7 137.979 182.8 136.879L181.4 128.079C175.5 128.979 169.5 128.079 164.1 125.779Z" fill="#231F20"/>
<path d="M166.8 108.281C161.6 108.281 157.3 104.081 157.3 98.7812C157.3 93.5813 161.5 89.2812 166.8 89.2812C172 89.2812 176.3 93.4812 176.3 98.7812C176.3 103.981 172 108.181 166.8 108.281ZM166.8 90.6812C162.4 90.6812 158.7 94.2812 158.7 98.7812C158.7 103.281 162.3 106.881 166.8 106.881C171.3 106.881 174.9 103.281 174.9 98.7812C174.8 94.2812 171.2 90.6812 166.8 90.6812Z" fill="#231F20"/>
<path d="M185.7 108.281C180.5 108.281 176.2 104.081 176.2 98.7812C176.2 93.4812 180.4 89.2812 185.7 89.2812C191 89.2812 195.2 93.4812 195.2 98.7812C195.2 103.981 191 108.181 185.7 108.281ZM185.7 90.6812C181.3 90.6812 177.6 94.2812 177.6 98.6812C177.6 103.081 181.2 106.781 185.6 106.781C190 106.781 193.7 103.181 193.7 98.7812C193.8 94.2812 190.2 90.6812 185.7 90.6812Z" fill="#231F20"/>
<path d="M175.9 119.779C171.4 119.779 167.1 117.079 163.1 111.879C162.9 111.579 163 111.079 163.3 110.879C163.6 110.679 164 110.779 164.2 110.979C167.9 115.879 171.8 118.279 175.8 118.379H175.9C181.4 118.379 185.2 113.679 185.2 113.579C185.4 113.279 185.9 113.179 186.2 113.479C186.5 113.679 186.6 114.179 186.3 114.479C186.1 114.779 182 119.779 175.9 119.779Z" fill="#231F20"/>
<path d="M127.1 143.78C122.1 148.58 85.2999 185.78 82.5999 178.88C79.8999 171.98 77.8999 140.48 77.8999 140.48L52.7 144.18C52.7 144.18 38.1999 215.08 63.3999 222.88C88.5999 230.68 127.1 193.48 127.1 193.48V143.78Z" fill="#3185FF"/>
<path d="M106.4 235.58C106.3 235.58 106.2 235.58 106 235.48C105.7 235.28 105.5 234.88 105.7 234.58C105.9 234.28 122 205.48 127.2 159.78C127.3 159.38 127.6 159.08 128 159.18C128.4 159.18 128.7 159.58 128.6 159.98C123.3 205.98 107.1 234.98 106.9 235.28C106.9 235.48 106.7 235.58 106.4 235.58Z" fill="#231F20"/>
<path d="M253.5 179.579C234.7 179.579 199.6 171.679 199.3 171.579C198.9 171.479 198.7 171.079 198.8 170.779C198.9 170.379 199.2 170.179 199.6 170.279C200 170.379 234.8 178.179 253.5 178.179C254 178.179 254.5 178.179 255 178.179C255.4 178.179 255.7 178.479 255.7 178.879C255.7 179.279 255.4 179.579 255 179.579H253.5Z" fill="#231F20"/>
<path d="M63.0994 107.48C63.0994 107.48 67.4994 112.18 65.3994 120.48C63.2994 128.78 59.5994 130.38 53.3994 126.58" fill="white"/>
<path d="M58.7994 129.28C56.6994 129.18 54.6994 128.48 52.9994 127.28C52.6994 127.08 52.5994 126.58 52.7994 126.28C52.9994 125.98 53.4994 125.88 53.7994 126.08C56.5994 127.78 58.7994 128.28 60.3994 127.58C62.2994 126.78 63.6994 124.48 64.7994 120.38C66.7994 112.58 62.8994 108.28 62.6994 108.08C62.3994 107.78 62.3994 107.38 62.6994 107.08C62.9994 106.78 63.3994 106.78 63.6994 107.08C63.8994 107.28 68.3994 112.18 66.0994 120.78C64.8994 125.38 63.1994 127.98 60.8994 128.98C60.1994 129.18 59.4994 129.28 58.7994 129.28Z" fill="#231F20"/>
<path d="M275.7 0.679688L292.4 34.5797L329.7 39.9797L302.7 66.2797L309.1 103.58L275.7 85.9797L242.3 103.58L248.6 66.2797L221.6 39.9797L259 34.5797L275.7 0.679688Z" fill="white"/>
<path d="M309.1 104.281C309 104.281 308.9 104.281 308.8 104.181L275.7 86.7805L242.6 104.181C242.4 104.281 242.1 104.28 241.9 104.08C241.7 103.88 241.6 103.681 241.6 103.381L247.9 66.5805L221.1 40.4805C220.8 40.1805 220.8 39.7805 221.1 39.4805C221.2 39.3805 221.4 39.2805 221.5 39.2805L258.5 33.8805L275 0.380502C275.2 0.0805024 275.7 -0.119493 276 0.080507C276.1 0.180507 276.2 0.280502 276.3 0.380502L292.8 33.8805L329.8 39.2805C330.1 39.2805 330.3 39.4805 330.4 39.7805C330.5 40.0805 330.4 40.2805 330.2 40.4805L303.4 66.5805L309.7 103.381C309.8 103.681 309.6 103.88 309.4 104.08C309.4 104.18 309.3 104.281 309.1 104.281ZM275.7 85.2805C275.8 85.2805 275.9 85.2805 276 85.3805L308.1 102.281L302 66.4805C302 66.2805 302 65.9805 302.2 65.8805L328.2 40.4805L292.3 35.2805C292.1 35.2805 291.9 35.0805 291.8 34.8805L275.7 2.3805L259.6 34.8805C259.5 35.0805 259.3 35.2805 259.1 35.2805L223.2 40.4805L249.2 65.8805C249.4 66.0805 249.4 66.2805 249.4 66.4805L243.3 102.281L275.4 85.3805C275.4 85.2805 275.6 85.2805 275.7 85.2805Z" fill="#231F20"/>
<path d="M271 94.0777C271 94.0777 262.9 80.4777 264.9 79.0777C266.9 77.6777 271.5 82.9777 274 86.5777C274 86.5777 281.8 87.9777 280.5 96.6777" fill="white"/>
<path d="M280.4 97.3791H280.3C279.9 97.2791 279.6 96.9791 279.7 96.5791C280.9 88.6791 274.1 87.3791 273.8 87.3791C273.6 87.3791 273.4 87.2791 273.3 87.0791C270 82.3791 266.3 78.9791 265.2 79.7791C264.7 80.6791 267.6 87.1791 271.5 93.7791C271.7 94.0791 271.6 94.5791 271.3 94.7791C271 94.9791 270.5 94.8791 270.3 94.5791C266.5 88.0791 262.3 80.0791 264.4 78.6791C267.2 76.6791 272.5 83.5791 274.3 86.0791C275.8 86.4791 282.3 88.6791 281.1 96.8791C281.1 97.1791 280.8 97.3791 280.4 97.3791Z" fill="#231F20"/>
</svg>
