<svg width="1512" height="982" viewBox="0 0 1512 982" fill="none" xmlns="http://www.w3.org/2000/svg">
<g clip-path="url(#clip0_1461_3607)">
<rect x="652" y="510" width="74" height="472" fill="#22262E" fill-opacity="0.03"/>
<rect x="726" y="567" width="36" height="415" fill="#22262E" fill-opacity="0.03"/>
<rect x="762" y="558" width="98" height="424" fill="#22262E" fill-opacity="0.03"/>
<rect x="860" y="623" width="34" height="359" fill="#22262E" fill-opacity="0.03"/>
<rect x="894" y="505" width="111" height="477" fill="#22262E" fill-opacity="0.03"/>
<rect x="1005" y="617" width="36" height="365" fill="#22262E" fill-opacity="0.03"/>
<rect x="1041" y="599" width="45" height="383" fill="#22262E" fill-opacity="0.03"/>
<rect x="1086" y="571" width="57" height="411" fill="#22262E" fill-opacity="0.03"/>
<rect x="1143" y="626" width="55" height="356" fill="#22262E" fill-opacity="0.03"/>
<rect x="1198" y="650" width="56" height="332" fill="#22262E" fill-opacity="0.03"/>
<rect x="1254" y="589" width="71" height="393" fill="#22262E" fill-opacity="0.03"/>
<rect x="1325" y="501" width="66" height="481" fill="#22262E" fill-opacity="0.03"/>
<rect x="1391" y="512" width="74" height="470" fill="#22262E" fill-opacity="0.03"/>
<rect x="1465" y="571" width="47" height="411" fill="#22262E" fill-opacity="0.03"/>
<rect x="589" y="497" width="63" height="489" fill="#22262E" fill-opacity="0.03"/>
<rect x="516" y="589" width="73" height="397" fill="#22262E" fill-opacity="0.03"/>
<rect x="489" y="636" width="27" height="350" fill="#22262E" fill-opacity="0.03"/>
<rect x="460" y="648" width="29" height="338" fill="#22262E" fill-opacity="0.03"/>
<rect x="405" y="628" width="55" height="358" fill="#22262E" fill-opacity="0.03"/>
<rect x="345" y="571" width="60" height="415" fill="#22262E" fill-opacity="0.03"/>
<rect x="304" y="597" width="41" height="389" fill="#22262E" fill-opacity="0.03"/>
<rect x="266" y="615" width="38" height="371" fill="#22262E" fill-opacity="0.03"/>
<rect x="157" y="505" width="109" height="481" fill="#22262E" fill-opacity="0.03"/>
<rect x="117" y="608" width="40" height="378" fill="#22262E" fill-opacity="0.03"/>
<rect y="560" width="117" height="426" fill="#22262E" fill-opacity="0.03"/>
</g>
<defs>
<clipPath id="clip0_1461_3607">
<rect width="1512" height="982" fill="white"/>
</clipPath>
</defs>
</svg>
