<svg width="500" height="500" viewBox="0 0 500 500" fill="none" xmlns="http://www.w3.org/2000/svg">
<path d="M307.1 365.801C288.9 352.401 281.9 328.101 282.2 305.601C282.3 294.201 284.4 282.101 292.3 273.901C296.1 270.001 301 267.301 306.1 265.101C322.2 258.101 343.7 257.001 355 270.501C358.3 274.501 360.3 279.301 362.2 284.101C368.9 300.801 375 317.701 380.4 334.901C385.7 351.801 391.4 378.401 367.5 379.901C348 381.101 323.1 377.501 307.1 365.801Z" fill="#FFFDFA"/>
<path d="M360.199 380.8C342.699 380.8 321.199 377.1 306.699 366.4C290.299 354.4 281.199 332.2 281.499 305.5C281.699 290.8 285.099 280.3 291.899 273.3C296.299 268.8 301.999 266.1 305.899 264.3C322.399 257.1 344.199 256.1 355.599 269.9C358.799 273.8 360.799 278.5 362.999 283.7C369.699 300.3 375.799 317.4 381.199 334.5C387.099 353.2 387.399 365.9 382.299 373.3C379.299 377.7 374.299 380.1 367.599 380.5C365.199 380.8 362.699 380.8 360.199 380.8ZM307.499 365.2C323.899 377.2 349.199 380.3 367.399 379.1C373.599 378.7 378.199 376.5 380.899 372.5C385.699 365.5 385.299 353.3 379.499 335C374.199 317.9 368.099 300.9 361.399 284.3C359.299 279.2 357.399 274.7 354.299 270.9C343.399 257.7 322.299 258.7 306.299 265.7C302.499 267.3 296.899 270.1 292.799 274.3C286.299 281 282.999 291.2 282.899 305.5C282.599 331.7 291.599 353.4 307.499 365.2Z" fill="#22262E"/>
<path d="M116.7 280.501L64.0996 258.801C82.7996 218.901 103.8 195.201 118.4 185.901C137 170.501 183 169.401 225.1 167.801C225.1 167.801 245.1 166.101 265.2 171.701C314.4 185.301 360.2 256.601 360.2 256.601L300.6 264.701C300.6 264.701 308.3 336.801 315.1 424.601C315.1 424.601 237.9 442.001 117.2 435.201C117.1 435.201 117.8 293.001 116.7 280.501Z" fill="#48D664"/>
<path d="M230.599 160.702L237.199 192.402C237.199 192.402 230.199 213.402 208.899 211.202C187.599 209.002 177.799 191.902 177.799 191.902L170.199 133.702C170.199 133.702 184.399 123.502 175.399 90.9023C175.399 90.9023 199.799 99.2023 229.999 91.2023C229.999 91.2023 244.199 125.902 243.799 142.202C243.399 158.502 230.599 160.702 230.599 160.702Z" fill="#FFFDFA"/>
<path d="M212 212C211 212 209.9 211.9 208.9 211.8C187.5 209.6 177.4 192.3 177.3 192.1C177.2 192 177.2 191.9 177.2 191.8L169.6 133.6C169.6 133.3 169.7 133.1 169.9 132.9C170 132.8 183.5 122.5 174.9 90.9002C174.8 90.6002 174.9 90.3002 175.1 90.2002C175.3 90.0002 175.6 89.9002 175.9 90.0002C176.1 90.1002 200.5 98.1002 230 90.3002C230.4 90.2002 230.8 90.4002 230.9 90.7002C231.5 92.1002 245.1 125.8 244.8 142C244.5 156.4 234.5 160.3 231.6 161.1L238 192.1C238 192.2 238 192.4 238 192.5C237.9 192.8 231.2 212 212 212ZM178.6 191.5C179.5 193 189.3 208.3 209 210.3C228.7 212.3 235.7 194.4 236.4 192.2L229.9 160.7C229.9 160.5 229.9 160.3 230 160.1C230.1 159.9 230.3 159.8 230.5 159.8C231 159.7 242.9 157.4 243.2 142C243.5 127.2 231.5 96.6002 229.7 91.9002C212.3 96.4002 194.1 96.4002 176.7 91.9002C184.3 121.1 173.4 132 171.2 133.9L178.6 191.5Z" fill="#22262E"/>
<path d="M182.3 130.999C181.2 128.299 179.3 125.999 176.8 124.399C174.4 123.099 171.8 122.199 169.1 121.699C167.7 121.299 166.1 121.199 164.7 121.499C163.7 121.799 162.7 122.299 161.9 122.999C159.8 124.399 158.3 126.499 157.6 128.899C157.3 130.899 157.5 132.899 158.1 134.799C158.6 136.899 159.4 138.999 160.5 140.899C165.2 148.699 175.3 151.299 183.1 146.599C183.2 146.599 183.2 146.499 183.3 146.499" fill="#FFFDFA"/>
<path d="M174.6 149.599C168.5 149.599 162.9 146.399 159.8 141.199C158.7 139.199 157.8 137.199 157.3 134.999C156.6 132.999 156.4 130.799 156.8 128.699C157.5 126.099 159.1 123.899 161.4 122.399C162.3 121.699 163.3 121.099 164.5 120.799C166.1 120.499 167.7 120.599 169.3 120.999C172.1 121.399 174.8 122.399 177.3 123.799C180 125.399 182 127.899 183.2 130.799C183.3 131.199 183.2 131.599 182.8 131.799C182.4 131.899 182 131.799 181.8 131.399C180.8 128.799 178.9 126.599 176.6 125.199C174.3 123.899 171.7 123.099 169.1 122.599C167.8 122.199 166.4 122.199 165 122.399C164.1 122.699 163.2 123.099 162.5 123.699C160.6 124.999 159.2 126.899 158.5 129.099C158.2 130.999 158.4 132.899 159 134.699C159.5 136.799 160.3 138.699 161.4 140.599C165.8 148.099 175.5 150.499 183 146.099C183.1 146.099 183.1 145.999 183.2 145.999C183.5 145.799 184 145.899 184.2 146.199C184.4 146.499 184.3 146.999 184 147.199C180.9 148.799 177.8 149.599 174.6 149.599Z" fill="#22262E"/>
<path d="M233.2 176.499C233.2 176.499 221.4 179.999 211.2 172.499C201 164.999 201 159.699 201 159.699C201 159.699 216.7 165.799 229.9 161.199L233.2 176.499Z" fill="#22262E"/>
<path d="M226.499 178.102C220.799 178.202 215.299 176.402 210.699 173.102C200.299 165.402 200.199 160.002 200.199 159.702C200.199 159.502 200.299 159.202 200.499 159.102C200.699 159.002 200.999 158.902 201.199 159.002C201.399 159.102 216.799 164.902 229.599 160.502C229.799 160.402 229.999 160.502 230.199 160.602C230.399 160.702 230.499 160.902 230.599 161.102L233.899 176.302C233.999 176.702 233.799 177.102 233.399 177.202C231.099 177.802 228.799 178.102 226.499 178.102ZM201.999 160.902C202.599 162.802 204.599 166.702 211.599 171.902C219.999 178.102 229.699 176.602 232.299 176.002L229.299 162.302C218.299 165.702 205.899 162.202 201.999 160.902Z" fill="#22262E"/>
<path d="M211.699 113.301C211.699 113.301 225.199 127.501 223.099 130.701C220.999 133.901 213.599 133.301 213.599 133.301" fill="#FFFDFA"/>
<path d="M215 134.102C214.1 134.102 213.6 134.002 213.5 134.002C213.1 134.002 212.8 133.602 212.8 133.202C212.8 132.802 213.2 132.502 213.6 132.502C215.5 132.702 220.9 132.602 222.4 130.302C223.5 128.602 217.4 120.402 211.1 113.802C210.8 113.502 210.8 113.002 211.1 112.702C211.4 112.402 211.9 112.402 212.2 112.702C215.5 116.102 225.9 127.602 223.7 131.002C222 133.702 217.4 134.102 215 134.102Z" fill="#22262E"/>
<path d="M194.832 119.515C196.215 118.959 196.702 116.929 195.918 114.982C195.135 113.035 193.378 111.908 191.995 112.465C190.612 113.021 190.125 115.051 190.909 116.998C191.692 118.945 193.449 120.072 194.832 119.515Z" fill="#22262E"/>
<path d="M222.725 114.945C224.108 114.388 224.594 112.359 223.811 110.412C223.027 108.465 221.271 107.338 219.888 107.894C218.504 108.451 218.018 110.481 218.801 112.428C219.585 114.375 221.341 115.502 222.725 114.945Z" fill="#22262E"/>
<path d="M213.599 152.799C208.399 152.799 203.599 149.699 199.599 143.899C197.299 140.499 195.499 136.899 194.199 132.999C194.099 132.599 194.299 132.199 194.699 132.099C195.099 131.999 195.499 132.199 195.599 132.599C196.799 136.299 198.599 139.799 200.699 142.999C205.199 149.499 210.699 152.299 216.399 150.899C230.199 147.599 229.999 131.199 229.999 130.999C229.999 130.599 230.299 130.199 230.699 130.199C231.099 130.199 231.399 130.499 231.499 130.899C231.499 131.099 231.799 148.599 216.799 152.299C215.799 152.699 214.699 152.799 213.599 152.799Z" fill="#22262E"/>
<path d="M135.399 267.701L109.999 328.101L166.599 279.201L202.699 291.401C202.699 291.401 194.599 345.201 145.399 390.501C96.1993 435.801 45.2993 427.201 42.3993 384.701C39.4993 342.201 69.3993 259.801 69.3993 259.801" fill="#FFFDFA"/>
<path d="M81.3997 421.6C75.5997 421.7 69.7997 420.6 64.3997 418.5C50.7997 413.1 42.6997 401.1 41.5997 384.8C38.6997 342.6 68.3997 260.4 68.6997 259.6C68.7997 259.2 69.2997 259 69.6997 259.1C70.0997 259.2 70.2997 259.7 70.1997 260C70.1997 260 70.1997 260 70.1997 260.1C69.8997 260.9 40.3997 342.8 43.1997 384.7C44.2997 400.4 51.9997 411.9 64.9997 417.1C86.6997 425.7 117.3 415.3 144.9 390C190.5 347.9 200.8 298 201.9 291.9L166.9 280L110.6 328.6C110.3 328.9 109.8 328.8 109.5 328.5C109.3 328.3 109.3 328 109.4 327.7L134.8 267.4C135 267 135.4 266.8 135.8 267C136.2 267.2 136.4 267.6 136.2 268L111.9 325.4L166.1 278.6C166.3 278.4 166.6 278.4 166.8 278.5L202.9 290.7C203.2 290.8 203.5 291.2 203.4 291.5C203.3 292 194.8 346 145.9 391.1C124.5 410.8 101.2 421.6 81.3997 421.6Z" fill="#22262E"/>
<path d="M181.1 191.199L245.5 242.299L247.3 245.399L255.8 260.299L239.4 255.299L236 254.299L171.6 203.099L181.1 191.199Z" fill="#22262E"/>
<path d="M255.799 261H255.599L235.799 255C235.699 255 235.599 254.9 235.599 254.9L171.199 203.7C170.999 203.6 170.999 203.4 170.899 203.2C170.899 203 170.899 202.8 170.999 202.6L180.499 190.7C180.799 190.4 181.199 190.4 181.499 190.6L245.899 241.8C245.999 241.9 245.999 241.9 246.099 242L256.399 259.9C256.599 260.3 256.499 260.7 256.099 260.9C256.099 261 255.999 261 255.799 261ZM236.399 253.6L254.199 259L244.999 242.8L181.299 192.2L172.699 203L236.399 253.6Z" fill="#22262E"/>
<path d="M247.299 245.402L255.799 260.302L239.399 255.302L247.299 245.402Z" fill="#48D664"/>
<path d="M255.799 261.002H255.599L239.199 256.002C238.799 255.902 238.599 255.502 238.699 255.102C238.699 255.002 238.799 254.902 238.799 254.802L246.699 244.902C246.899 244.702 247.099 244.602 247.299 244.602C247.499 244.602 247.799 244.802 247.899 245.002L256.499 259.902C256.699 260.302 256.599 260.702 256.199 260.902C256.099 261.002 255.999 261.002 255.799 261.002ZM240.699 254.902L254.299 259.002L247.199 246.702L240.699 254.902Z" fill="#22262E"/>
<path d="M156.1 190.001L164.9 178.901C165.7 177.901 167.1 177.701 168.1 178.501L199.9 203.701L188.2 218.401L156.4 193.201C155.5 192.501 155.3 191.001 156.1 190.001Z" fill="#22262E"/>
<path d="M188.2 219.3C188 219.3 187.9 219.2 187.7 219.1L156 193.9C154.7 192.9 154.4 191 155.5 189.7C155.5 189.7 155.5 189.7 155.6 189.6L164.4 178.5C165.5 177.2 167.4 177 168.7 178L200.5 203.2C200.8 203.5 200.9 203.9 200.6 204.3L188.8 219C188.7 219.2 188.5 219.3 188.2 219.3ZM166.7 178.8H166.5C166.1 178.9 165.7 179.1 165.5 179.4L156.7 190.5C156.4 190.8 156.3 191.2 156.4 191.6C156.5 192 156.7 192.4 157 192.6L188.2 217.4L198.9 204L167.7 179.2C167.4 179 167.1 178.9 166.7 178.8Z" fill="#22262E"/>
<path d="M175.899 216.399C175.699 216.399 175.599 216.299 175.399 216.199C175.299 216.099 159.499 203.699 157.399 201.699C154.799 199.299 155.899 194.399 155.999 193.799C156.099 193.399 156.499 193.199 156.899 193.199C157.299 193.299 157.499 193.699 157.399 194.099C157.399 194.099 156.299 198.599 158.299 200.499C160.199 202.199 174.199 213.299 176.199 214.899C176.499 215.199 176.599 215.599 176.299 215.999C176.399 216.199 176.199 216.299 175.899 216.399Z" fill="#22262E"/>
<path d="M201.8 295.899C202.6 292.499 204 285.499 204 285.499C204 285.499 218.1 286.599 221.1 282.299C224.1 277.999 233 247.199 230 241.899C227 236.599 215.7 229.399 212.2 227.999C208.7 226.599 194.9 229.399 194.9 229.399L205.8 218.399C205.8 218.399 223.6 228.899 231.6 228.199C239.6 227.499 241.9 224.599 237.8 219.799C233.7 214.999 203.8 201.599 198.8 202.199C193.8 202.799 171.7 223.599 171.2 226.599C170.7 229.599 153.7 287.199 157.3 293.599" fill="#FFFDFA"/>
<path d="M201.799 296.6H201.599C201.199 296.5 200.999 296.1 201.099 295.7C201.899 292.4 203.299 285.4 203.299 285.3C203.399 284.9 203.699 284.7 204.099 284.7C207.899 285 218.299 285.1 220.499 281.8C221.899 279.7 224.899 270.9 227.099 262.2C229.699 251.9 230.599 244.3 229.399 242.2C226.499 237.1 215.099 229.9 211.999 228.6C209.399 227.5 198.899 229.2 195.099 230C194.699 230.1 194.299 229.8 194.199 229.4C194.199 229.2 194.199 228.9 194.399 228.7L205.299 217.7C205.499 217.5 205.899 217.4 206.199 217.6C206.399 217.7 223.899 228 231.499 227.3C235.599 226.9 238.199 225.9 238.799 224.5C239.399 223.1 238.199 221.4 237.099 220.1C233.199 215.6 203.499 202.2 198.799 202.8C194.099 203.4 172.299 223.7 171.799 226.6C171.699 227.2 171.099 229.6 169.799 234.4C165.799 249.2 155.099 288.3 157.899 293.1C158.099 293.5 157.999 293.9 157.599 294.1C157.199 294.3 156.799 294.2 156.599 293.8C153.899 289.1 160.999 260.9 168.399 233.9C169.499 230 170.299 226.8 170.399 226.3C170.899 222.8 193.399 202 198.599 201.3C203.799 200.6 233.899 214.1 238.299 219.1C240.199 221.4 240.899 223.4 240.199 225C239.299 227.1 236.499 228.3 231.599 228.8C224.199 229.4 208.899 220.9 205.899 219.2L197.099 228C201.299 227.3 209.699 226 212.499 227.1C215.899 228.5 227.599 235.9 230.699 241.3C232.599 244.6 230.199 255.9 228.599 262.4C226.399 271.4 223.399 280.2 221.799 282.5C218.999 286.6 207.799 286.3 204.699 286.1C204.299 287.9 203.299 293.2 202.599 295.9C202.499 296.4 202.199 296.6 201.799 296.6Z" fill="#22262E"/>
<path d="M190.399 243C190.399 243 209.099 239.8 213.199 241C217.299 242.2 229.199 254.9 229.199 254.9" fill="#FFFDFA"/>
<path d="M229.1 255.599C228.9 255.599 228.7 255.499 228.5 255.399C225.3 251.899 216.1 242.599 212.9 241.699C209.7 240.799 195.6 242.899 190.4 243.799C190 243.899 189.6 243.599 189.5 243.199C189.4 242.799 189.7 242.399 190.1 242.299C190.9 242.199 209 239.099 213.2 240.299C217.4 241.499 229 253.899 229.5 254.399C229.8 254.699 229.8 255.199 229.5 255.499C229.5 255.599 229.3 255.699 229.1 255.599Z" fill="#22262E"/>
<path d="M204 285.501C204 285.501 206.8 276.601 206.1 270.301Z" fill="#FFFDFA"/>
<path d="M204 286.2C203.9 286.2 203.9 286.2 203.8 286.2C203.4 286.1 203.2 285.7 203.3 285.3C203.3 285.2 206 276.5 205.4 270.3C205.4 269.9 205.6 269.5 206.1 269.5C206.5 269.5 206.9 269.7 206.9 270.2C207.6 276.7 204.9 285.4 204.8 285.8C204.6 286 204.3 286.2 204 286.2Z" fill="#22262E"/>
<path d="M193.8 269.999C194.7 269.799 210.4 270.199 211.4 269.999Z" fill="#FFFDFA"/>
<path d="M209.1 270.8C207.7 270.8 205.5 270.8 202.6 270.7C199 270.7 194.5 270.6 194 270.7C193.6 270.8 193.2 270.5 193.1 270.1C193 269.7 193.3 269.3 193.6 269.2C194.1 269.1 196.7 269.1 202.6 269.2C206.2 269.2 210.7 269.3 211.2 269.2C211.6 269.1 212 269.4 212.1 269.8C212.2 270.2 212 270.6 211.6 270.7C210.7 270.8 209.9 270.8 209.1 270.8Z" fill="#22262E"/>
<path d="M187.399 255.601C187.399 255.601 200.899 252.601 207.199 254.001C213.499 255.401 224.599 268.501 225.799 269.701" fill="#FFFDFA"/>
<path d="M225.799 270.401C225.599 270.401 225.399 270.301 225.299 270.201C225.099 270.001 224.799 269.701 224.399 269.201C221.399 265.901 212.499 255.901 207.099 254.801C200.999 253.501 187.699 256.401 187.599 256.401C187.199 256.501 186.799 256.301 186.699 255.901C186.599 255.501 186.799 255.101 187.199 255.001H187.299C187.899 254.901 200.999 252.001 207.499 253.401C212.699 254.501 220.299 262.401 225.599 268.301C225.999 268.801 226.299 269.101 226.499 269.301C226.799 269.601 226.799 270.101 226.499 270.401C226.199 270.401 225.999 270.401 225.799 270.401Z" fill="#22262E"/>
<path d="M82.2996 350.001C81.8996 350.001 81.5996 349.701 81.5996 349.201C81.5996 349.001 81.6996 348.801 81.8996 348.601L109.6 327.401C109.9 327.201 110.4 327.201 110.6 327.501C110.9 327.801 110.8 328.301 110.5 328.501L82.8996 349.701C82.5996 350.001 82.4996 350.001 82.2996 350.001Z" fill="#22262E"/>
<path d="M157.699 118.501C157.399 118.501 157.099 118.301 156.999 117.901C154.499 107.301 151.999 96.6005 149.799 86.2005L149.599 85.1005C148.599 80.6005 147.499 75.5005 147.799 70.8005C148.099 65.1005 152.599 64.7005 155.399 64.8005C156.099 59.9005 158.699 55.5005 162.799 52.7005C173.199 45.5005 184.199 48.7005 194.799 51.8005C201.699 53.8005 208.799 55.9005 215.399 54.9005C219.799 54.3005 223.899 52.2005 227.899 50.2005H227.999C229.399 49.5005 230.899 48.8005 232.299 48.1005C235.199 46.8005 249.599 40.8005 253.499 48.7005C254.699 51.1005 253.799 53.6005 252.699 55.7005C251.299 58.6005 249.699 61.4005 247.899 64.1005C248.799 63.6005 249.799 63.2005 250.799 62.8005C254.699 61.1005 259.099 61.0005 263.099 62.5005C264.799 63.2005 266.299 64.3005 267.299 65.9005C269.299 69.1005 268.499 73.3005 264.899 78.3005C262.899 81.1005 260.799 83.9005 258.499 86.5005C261.299 84.8005 264.399 83.3005 267.799 84.2005C269.399 84.5005 270.699 85.6005 271.499 87.0005C272.899 89.9005 270.599 92.9005 269.799 93.9005C263.799 101.801 256.099 108.301 247.399 113.101C246.999 113.301 246.599 113.201 246.399 112.801C246.199 112.401 246.299 112.001 246.699 111.801C246.699 111.801 246.699 111.801 246.799 111.801C255.299 107.201 262.799 100.801 268.699 93.0005C269.299 92.2005 271.199 89.7005 270.199 87.6005C269.599 86.6005 268.699 85.8005 267.499 85.6005C264.099 84.7005 260.999 86.7005 257.999 88.6005C256.999 89.2005 256.099 89.8005 255.099 90.4005C254.699 90.6005 254.299 90.4005 254.099 90.1005C253.999 89.8005 253.999 89.5005 254.199 89.3005C257.699 85.6005 260.899 81.7005 263.799 77.5005C266.899 73.0005 267.699 69.4005 266.099 66.8005C265.299 65.5005 263.999 64.6005 262.599 64.0005C259.399 62.7005 255.399 62.8005 251.399 64.3005C249.499 65.1005 247.599 66.0005 245.899 67.2005C245.599 67.4005 245.199 67.4005 244.899 67.1005C244.699 66.8005 244.599 66.4005 244.799 66.2005C247.199 62.7005 249.399 59.0005 251.299 55.2005C252.199 53.4005 252.899 51.3005 252.099 49.5005C248.699 42.7005 234.499 48.9005 232.799 49.6005C231.399 50.2005 229.899 50.9005 228.599 51.6005H228.499C224.399 53.6005 220.099 55.8005 215.499 56.4005C208.599 57.4005 201.299 55.3005 194.299 53.3005C183.999 50.3005 173.299 47.2005 163.499 54.0005C159.599 56.7005 157.099 61.0005 156.699 65.7005C156.599 66.1005 156.299 66.4005 155.899 66.4005C152.499 66.3005 149.499 66.6005 149.199 71.0005C148.899 75.4005 150.099 80.6005 151.099 85.0005L151.299 86.1005C153.599 96.6005 155.999 107.201 158.499 117.801C158.599 118.201 158.399 118.601 157.999 118.701C157.799 118.501 157.799 118.501 157.699 118.501Z" fill="#22262E"/>
<path d="M163.2 197.402C162.8 197.402 162.4 197.002 162.5 196.602C162.5 196.402 162.6 196.302 162.7 196.102L172.8 183.902C173.1 183.602 173.6 183.502 173.9 183.802C174.2 184.102 174.3 184.602 174 184.902L163.9 197.102C163.7 197.302 163.5 197.402 163.2 197.402Z" fill="#FFFDFA"/>
<path d="M257.5 262.202C257.3 262.202 257.2 262.102 257 262.002L254.9 260.402C254.6 260.202 254.5 259.702 254.7 259.402C254.9 259.102 255.4 259.002 255.7 259.202C255.7 259.202 255.8 259.202 255.8 259.302L257.9 260.902C258.2 261.202 258.3 261.602 258 262.002C258 262.102 257.8 262.202 257.5 262.202Z" fill="#22262E"/>
<path d="M270.9 110.301H446.2C449.1 110.301 451.4 112.601 451.4 115.501V345.401C451.4 348.301 449.1 350.601 446.2 350.601H270.9C268 350.601 265.7 348.301 265.7 345.401V115.501C265.7 112.601 268.1 110.301 270.9 110.301Z" fill="#22262E"/>
<path d="M440.001 125H277.101V335.8H440.001V125Z" fill="#FFFDFA"/>
<path d="M440.1 336.599H277.1C276.7 336.599 276.3 336.299 276.3 335.799V124.999C276.3 124.599 276.6 124.299 277 124.199H439.9C440.3 124.199 440.6 124.499 440.7 124.899V335.799C440.8 336.299 440.5 336.599 440.1 336.599ZM277.9 335.099H439.3V125.799H277.9V335.099Z" fill="#22262E"/>
<path d="M401.2 101.8H377.8C375.7 91.1998 365.5 84.2998 354.9 86.3998C347.1 87.8998 341 93.9998 339.5 101.8H316C312.9 101.8 310.4 104.3 310.4 107.4V127C310.4 130.1 312.9 132.6 316 132.6H401.2C404.3 132.6 406.8 130.1 406.8 127V107.4C406.8 104.3 404.3 101.8 401.2 101.8ZM358.6 104.4C355.8 104.4 353.6 102.2 353.6 99.3998C353.6 96.5998 355.8 94.3998 358.6 94.3998C361.4 94.3998 363.6 96.5998 363.6 99.3998C363.6 102.1 361.4 104.4 358.6 104.4Z" fill="#48D664"/>
<path d="M339.9 193.401H300.5C299.7 193.401 299 192.701 299 191.901V149.801C299 149.001 299.7 148.301 300.5 148.301H339.9C340.7 148.301 341.4 149.001 341.4 149.801V191.901C341.4 192.701 340.7 193.401 339.9 193.401ZM300.5 149.801V191.901H339.9V149.901L300.5 149.801Z" fill="#22262E"/>
<path d="M349.1 160.099C348.9 160.499 348.7 160.799 348.4 161.099C339.9 169.599 331.5 177.999 323 186.499C322.6 187.199 321.7 187.399 321 186.999C320.8 186.899 320.7 186.699 320.5 186.499L306.2 171.699C305.6 171.199 305.5 170.299 305.9 169.699C306 169.599 306.1 169.499 306.2 169.399L309.8 166.199C310.3 165.599 311.1 165.499 311.7 165.999C311.8 166.099 311.9 166.099 311.9 166.199L320.4 174.799C321.3 175.699 321.9 175.699 322.8 174.799L342.6 155.099C343 154.399 343.9 154.299 344.6 154.699C344.8 154.799 344.9 154.899 345 155.099C346.1 156.199 347.2 157.299 348.3 158.499C348.5 158.799 348.8 159.099 349 159.399L349.1 160.099Z" fill="#48D664"/>
<path d="M339.9 250.799H300.5C299.7 250.799 299 250.099 299 249.299V207.199C299 206.399 299.7 205.699 300.5 205.699H339.9C340.7 205.699 341.4 206.399 341.4 207.199V249.299C341.4 250.099 340.7 250.799 339.9 250.799ZM300.5 207.199V249.299H339.9V207.199H300.5Z" fill="#22262E"/>
<path d="M349.1 217.501C348.9 217.901 348.7 218.201 348.4 218.501C339.9 227.001 331.5 235.401 323 243.901C322.6 244.601 321.7 244.801 321 244.401C320.8 244.301 320.7 244.101 320.5 243.901L306.2 229.101C305.6 228.601 305.5 227.701 305.9 227.101C306 227.001 306.1 226.901 306.2 226.801L309.8 223.601C310.3 223.001 311.1 222.901 311.7 223.401C311.8 223.501 311.9 223.501 311.9 223.601L320.4 232.201C321.3 233.101 321.9 233.101 322.8 232.201L342.6 212.501C343 211.801 343.9 211.701 344.6 212.101C344.8 212.201 344.9 212.301 345 212.501C346.1 213.601 347.2 214.701 348.3 215.901C348.5 216.201 348.8 216.501 349 216.801L349.1 217.501Z" fill="#48D664"/>
<path d="M339.9 308.199H300.5C299.7 308.199 299 307.499 299 306.699V264.699C299 263.899 299.7 263.199 300.5 263.199H339.9C340.7 263.199 341.4 263.899 341.4 264.699V306.699C341.4 307.599 340.7 308.199 339.9 308.199ZM300.5 264.699V306.799H339.9V264.799L300.5 264.699Z" fill="#22262E"/>
<path d="M420.401 164.998H362.401C362.001 164.998 361.601 164.698 361.601 164.198C361.601 163.698 361.901 163.398 362.401 163.398H420.401C420.801 163.398 421.201 163.698 421.201 164.198C421.201 164.698 420.801 164.998 420.401 164.998Z" fill="#22262E"/>
<path d="M405.3 178.202H362.3C361.9 178.202 361.5 177.902 361.5 177.402C361.5 176.902 361.8 176.602 362.3 176.602H405.3C405.7 176.602 406.1 176.902 406.1 177.402C406.1 177.902 405.7 178.202 405.3 178.202Z" fill="#22262E"/>
<path d="M420.401 222.299H362.401C362.001 222.299 361.601 221.999 361.601 221.499C361.601 220.999 361.901 220.699 362.401 220.699H420.401C420.801 220.699 421.201 220.999 421.201 221.499C421.201 221.999 420.801 222.299 420.401 222.299Z" fill="#22262E"/>
<path d="M405.3 235.498H362.3C361.9 235.498 361.5 235.198 361.5 234.698C361.5 234.198 361.8 233.898 362.3 233.898H405.3C405.7 233.898 406.1 234.198 406.1 234.698C406.1 235.198 405.7 235.498 405.3 235.498Z" fill="#22262E"/>
<path d="M420.401 279.799H362.401C362.001 279.799 361.601 279.499 361.601 278.999C361.601 278.499 361.901 278.199 362.401 278.199H420.401C420.801 278.199 421.201 278.499 421.201 278.999C421.201 279.499 420.801 279.799 420.401 279.799Z" fill="#22262E"/>
<path d="M405.3 292.998H362.3C361.9 292.998 361.5 292.698 361.5 292.198C361.5 291.698 361.8 291.398 362.3 291.398H405.3C405.7 291.398 406.1 291.698 406.1 292.198C406.1 292.698 405.7 292.998 405.3 292.998Z" fill="#22262E"/>
<path d="M415.6 350.001C416 347.401 416.2 344.701 416.4 342.101C416.8 336.801 415.5 330.901 413.9 326.001C413.2 323.801 412.2 321.501 410.3 320.001C408.4 318.501 405.3 318.501 404 320.501C402.8 322.201 403.3 324.501 403.8 326.501C405 332.001 405.3 337.601 404.6 343.201C403.7 335.701 402.7 327.901 398.6 321.501C397.7 320.001 396.5 318.801 395.1 317.901C393.6 317.001 391.7 317.101 390.3 318.001C388.2 319.501 388.4 322.601 388.6 325.201C389.3 331.801 389.2 338.501 388.3 345.101C388.8 339.301 388.4 333.501 387.1 327.801C386.2 324.101 384.6 320.001 381 318.801C380.2 318.501 379.4 318.501 378.5 318.601C376.8 319.201 375.6 320.601 375.3 322.301C375 324.001 375 325.701 375.3 327.401C376 334.101 375.8 340.801 374.7 347.401C375.5 341.601 375.3 335.701 374.1 330.001C373.8 327.701 372.9 325.501 371.5 323.701C370 322.001 367.4 320.901 365.3 321.901C363.7 322.801 362.6 324.301 362.3 326.101C362 327.901 362 329.701 362.1 331.401C362.3 338.101 361 344.801 358.4 351.101C356.3 356.301 353.5 362.001 354 367.801C354.5 373.801 359.3 379.001 364.9 381.201C370.5 383.401 376.9 383.201 382.8 382.101C402.3 378.201 418.5 368.901 425.4 350.201" fill="#FFFDFA"/>
<path d="M374.4 383.802C371 383.902 367.6 383.302 364.4 382.002C358.1 379.502 353.5 373.902 353 368.002C352.5 362.602 354.8 357.302 356.8 352.602L357.5 350.902C360 344.802 361.3 338.202 361.1 331.502V330.702C361 329.102 361.1 327.602 361.3 326.002C361.6 324.002 362.9 322.202 364.7 321.302C367.2 320.202 370.2 321.402 371.8 323.302C373.3 325.202 374.2 327.402 374.6 329.802C374.5 329.102 374.5 328.302 374.4 327.602V327.202C374.1 325.602 374.1 323.902 374.4 322.302C374.7 320.302 376.2 318.602 378.1 318.002C379 317.802 380 317.802 381 318.202C384.2 319.202 386.4 322.402 387.6 327.702C387.7 328.302 387.9 329.002 388 329.602C387.9 328.202 387.8 326.802 387.7 325.402C387.4 322.502 387.3 319.202 389.7 317.502C391.4 316.402 393.6 316.302 395.3 317.402C396.9 318.302 398.2 319.702 399.1 321.302C401.6 325.402 403.2 330.002 403.9 334.802C403.8 332.102 403.4 329.402 402.8 326.802C402.3 324.702 401.8 322.102 403.2 320.202C403.9 319.302 405 318.602 406.1 318.502C407.7 318.302 409.3 318.602 410.6 319.602C412.7 321.102 413.7 323.702 414.5 325.902C416.6 332.202 417.4 337.702 417.1 342.302C417 343.102 417 343.802 417 344.502C416.9 346.402 416.7 348.402 416.4 350.302C416.3 350.702 415.9 351.002 415.5 350.902C415.1 350.802 414.8 350.402 414.9 350.002C415.2 348.102 415.4 346.302 415.5 344.402C415.5 343.702 415.6 343.002 415.6 342.202C415.9 337.802 415.1 332.502 413.1 326.302C412.4 324.302 411.5 322.002 409.8 320.702C408.8 320.002 407.6 319.702 406.4 319.902C405.6 320.002 404.9 320.402 404.5 321.002C403.5 322.402 404 324.502 404.4 326.402C405.7 332.002 405.9 337.702 405.2 343.402C405.2 343.802 404.8 344.102 404.4 344.102C404 344.102 403.7 343.802 403.7 343.402C402.9 336.402 401.9 328.402 397.8 322.102C397 320.702 395.9 319.602 394.5 318.702C393.2 318.002 391.7 318.002 390.5 318.702C388.8 320.002 388.9 322.702 389.1 325.202C389.8 331.902 389.7 338.602 388.8 345.302C388.7 345.702 388.4 346.002 387.9 345.902C387.5 345.802 387.2 345.502 387.3 345.102C387.8 339.402 387.3 333.702 386 328.102C384.9 323.402 383 320.502 380.4 319.702C379.8 319.502 379.1 319.402 378.4 319.602C377 320.102 376 321.302 375.8 322.802C375.6 324.302 375.6 325.802 375.8 327.302V327.702C376.5 334.402 376.3 341.202 375.2 347.902C375.1 348.302 374.7 348.602 374.3 348.502C373.9 348.402 373.7 348.102 373.7 347.702C374.5 342.002 374.3 336.202 373.1 330.602C372.8 328.402 371.9 326.402 370.6 324.602C369.4 323.202 367.1 322.202 365.3 323.002C363.9 323.702 363 325.102 362.7 326.702C362.5 328.102 362.4 329.602 362.5 331.002V331.802C362.7 338.702 361.4 345.502 358.8 351.802C358.6 352.302 358.3 352.902 358.1 353.502C356.1 358.302 354 363.202 354.5 368.202C355 373.502 359.1 378.702 364.9 381.002C369.7 382.902 375.5 383.202 382.4 381.802C404.2 377.502 418.4 366.902 424.5 350.402C424.6 350.002 425 349.802 425.4 349.902C425.8 350.002 426 350.402 425.9 350.802V350.902C419.6 367.902 405.1 378.802 382.7 383.302C380 383.502 377.2 383.802 374.4 383.802Z" fill="#22262E"/>
</svg>
