<svg width="643" height="300" viewBox="0 0 643 300" fill="none" xmlns="http://www.w3.org/2000/svg">
<g clip-path="url(#clip0_1281_8000)">
<g opacity="0.3">
<path d="M19.9219 290.625C19.9219 285.447 15.7245 281.25 10.5469 281.25C5.3692 281.25 1.17188 285.447 1.17188 290.625C1.17188 295.803 5.3692 300 10.5469 300C15.7245 300 19.9219 295.803 19.9219 290.625Z" fill="#3185FF" fill-opacity="0.3"/>
<path d="M19.9219 234.375C19.9219 229.197 15.7245 225 10.5469 225C5.3692 225 1.17188 229.197 1.17188 234.375C1.17188 239.553 5.3692 243.75 10.5469 243.75C15.7245 243.75 19.9219 239.553 19.9219 234.375Z" fill="#3185FF" fill-opacity="0.3"/>
<path d="M76.1719 234.375C76.1719 229.197 71.9745 225 66.7969 225C61.6192 225 57.4219 229.197 57.4219 234.375C57.4219 239.553 61.6192 243.75 66.7969 243.75C71.9745 243.75 76.1719 239.553 76.1719 234.375Z" fill="#3185FF" fill-opacity="0.3"/>
<path d="M76.1719 290.625C76.1719 285.447 71.9745 281.25 66.7969 281.25C61.6192 281.25 57.4219 285.447 57.4219 290.625C57.4219 295.803 61.6192 300 66.7969 300C71.9745 300 76.1719 295.803 76.1719 290.625Z" fill="#3185FF" fill-opacity="0.3"/>
<path d="M19.9219 178.125C19.9219 172.947 15.7245 168.75 10.5469 168.75C5.3692 168.75 1.17188 172.947 1.17188 178.125C1.17188 183.303 5.3692 187.5 10.5469 187.5C15.7245 187.5 19.9219 183.303 19.9219 178.125Z" fill="#3185FF" fill-opacity="0.3"/>
<path d="M19.9219 121.875C19.9219 116.697 15.7245 112.5 10.5469 112.5C5.3692 112.5 1.17188 116.697 1.17188 121.875C1.17188 127.053 5.3692 131.25 10.5469 131.25C15.7245 131.25 19.9219 127.053 19.9219 121.875Z" fill="#3185FF" fill-opacity="0.3"/>
<path d="M76.1719 121.875C76.1719 116.697 71.9745 112.5 66.7969 112.5C61.6192 112.5 57.4219 116.697 57.4219 121.875C57.4219 127.053 61.6192 131.25 66.7969 131.25C71.9745 131.25 76.1719 127.053 76.1719 121.875Z" fill="#3185FF" fill-opacity="0.3"/>
<path d="M76.1719 178.125C76.1719 172.947 71.9745 168.75 66.7969 168.75C61.6192 168.75 57.4219 172.947 57.4219 178.125C57.4219 183.303 61.6192 187.5 66.7969 187.5C71.9745 187.5 76.1719 183.303 76.1719 178.125Z" fill="#3185FF" fill-opacity="0.3"/>
<path d="M19.9219 65.625C19.9219 60.4473 15.7245 56.25 10.5469 56.25C5.3692 56.25 1.17188 60.4473 1.17188 65.625C1.17188 70.8027 5.3692 75 10.5469 75C15.7245 75 19.9219 70.8027 19.9219 65.625Z" fill="#3185FF" fill-opacity="0.3"/>
<path d="M19.9219 9.375C19.9219 4.19733 15.7245 0 10.5469 0C5.3692 0 1.17188 4.19733 1.17188 9.375C1.17188 14.5527 5.3692 18.75 10.5469 18.75C15.7245 18.75 19.9219 14.5527 19.9219 9.375Z" fill="#3185FF" fill-opacity="0.3"/>
<path d="M76.1719 9.375C76.1719 4.19733 71.9745 0 66.7969 0C61.6192 0 57.4219 4.19733 57.4219 9.375C57.4219 14.5527 61.6192 18.75 66.7969 18.75C71.9745 18.75 76.1719 14.5527 76.1719 9.375Z" fill="#3185FF" fill-opacity="0.3"/>
<path d="M76.1719 65.625C76.1719 60.4473 71.9745 56.25 66.7969 56.25C61.6192 56.25 57.4219 60.4473 57.4219 65.625C57.4219 70.8027 61.6192 75 66.7969 75C71.9745 75 76.1719 70.8027 76.1719 65.625Z" fill="#3185FF" fill-opacity="0.3"/>
<path d="M132.422 290.625C132.422 285.447 128.225 281.25 123.047 281.25C117.869 281.25 113.672 285.447 113.672 290.625C113.672 295.803 117.869 300 123.047 300C128.225 300 132.422 295.803 132.422 290.625Z" fill="#3185FF" fill-opacity="0.3"/>
<path d="M132.422 234.375C132.422 229.197 128.225 225 123.047 225C117.869 225 113.672 229.197 113.672 234.375C113.672 239.553 117.869 243.75 123.047 243.75C128.225 243.75 132.422 239.553 132.422 234.375Z" fill="#3185FF" fill-opacity="0.3"/>
<path d="M188.672 234.375C188.672 229.197 184.475 225 179.297 225C174.119 225 169.922 229.197 169.922 234.375C169.922 239.553 174.119 243.75 179.297 243.75C184.475 243.75 188.672 239.553 188.672 234.375Z" fill="#3185FF" fill-opacity="0.3"/>
<path d="M188.672 290.625C188.672 285.447 184.475 281.25 179.297 281.25C174.119 281.25 169.922 285.447 169.922 290.625C169.922 295.803 174.119 300 179.297 300C184.475 300 188.672 295.803 188.672 290.625Z" fill="#3185FF" fill-opacity="0.3"/>
<path d="M132.422 178.125C132.422 172.947 128.225 168.75 123.047 168.75C117.869 168.75 113.672 172.947 113.672 178.125C113.672 183.303 117.869 187.5 123.047 187.5C128.225 187.5 132.422 183.303 132.422 178.125Z" fill="#3185FF" fill-opacity="0.3"/>
<path d="M132.422 121.875C132.422 116.697 128.225 112.5 123.047 112.5C117.869 112.5 113.672 116.697 113.672 121.875C113.672 127.053 117.869 131.25 123.047 131.25C128.225 131.25 132.422 127.053 132.422 121.875Z" fill="#3185FF" fill-opacity="0.3"/>
<path d="M188.672 121.875C188.672 116.697 184.475 112.5 179.297 112.5C174.119 112.5 169.922 116.697 169.922 121.875C169.922 127.053 174.119 131.25 179.297 131.25C184.475 131.25 188.672 127.053 188.672 121.875Z" fill="#3185FF" fill-opacity="0.3"/>
<path d="M188.672 178.125C188.672 172.947 184.475 168.75 179.297 168.75C174.119 168.75 169.922 172.947 169.922 178.125C169.922 183.303 174.119 187.5 179.297 187.5C184.475 187.5 188.672 183.303 188.672 178.125Z" fill="#3185FF" fill-opacity="0.3"/>
<path d="M132.422 65.625C132.422 60.4473 128.225 56.25 123.047 56.25C117.869 56.25 113.672 60.4473 113.672 65.625C113.672 70.8027 117.869 75 123.047 75C128.225 75 132.422 70.8027 132.422 65.625Z" fill="#3185FF" fill-opacity="0.3"/>
<path d="M132.422 9.375C132.422 4.19733 128.225 0 123.047 0C117.869 0 113.672 4.19733 113.672 9.375C113.672 14.5527 117.869 18.75 123.047 18.75C128.225 18.75 132.422 14.5527 132.422 9.375Z" fill="#3185FF" fill-opacity="0.3"/>
<path d="M188.672 9.375C188.672 4.19733 184.475 0 179.297 0C174.119 0 169.922 4.19733 169.922 9.375C169.922 14.5527 174.119 18.75 179.297 18.75C184.475 18.75 188.672 14.5527 188.672 9.375Z" fill="#3185FF" fill-opacity="0.3"/>
<path d="M188.672 65.625C188.672 60.4473 184.475 56.25 179.297 56.25C174.119 56.25 169.922 60.4473 169.922 65.625C169.922 70.8027 174.119 75 179.297 75C184.475 75 188.672 70.8027 188.672 65.625Z" fill="#3185FF" fill-opacity="0.3"/>
<path d="M244.922 290.625C244.922 285.447 240.725 281.25 235.547 281.25C230.369 281.25 226.172 285.447 226.172 290.625C226.172 295.803 230.369 300 235.547 300C240.725 300 244.922 295.803 244.922 290.625Z" fill="#3185FF" fill-opacity="0.3"/>
<path d="M244.922 234.375C244.922 229.197 240.725 225 235.547 225C230.369 225 226.172 229.197 226.172 234.375C226.172 239.553 230.369 243.75 235.547 243.75C240.725 243.75 244.922 239.553 244.922 234.375Z" fill="#3185FF" fill-opacity="0.3"/>
<path d="M301.172 234.375C301.172 229.197 296.975 225 291.797 225C286.619 225 282.422 229.197 282.422 234.375C282.422 239.553 286.619 243.75 291.797 243.75C296.975 243.75 301.172 239.553 301.172 234.375Z" fill="#3185FF" fill-opacity="0.3"/>
<path d="M301.172 290.625C301.172 285.447 296.975 281.25 291.797 281.25C286.619 281.25 282.422 285.447 282.422 290.625C282.422 295.803 286.619 300 291.797 300C296.975 300 301.172 295.803 301.172 290.625Z" fill="#3185FF" fill-opacity="0.3"/>
<path d="M244.922 178.125C244.922 172.947 240.725 168.75 235.547 168.75C230.369 168.75 226.172 172.947 226.172 178.125C226.172 183.303 230.369 187.5 235.547 187.5C240.725 187.5 244.922 183.303 244.922 178.125Z" fill="#3185FF" fill-opacity="0.3"/>
<path d="M244.922 121.875C244.922 116.697 240.725 112.5 235.547 112.5C230.369 112.5 226.172 116.697 226.172 121.875C226.172 127.053 230.369 131.25 235.547 131.25C240.725 131.25 244.922 127.053 244.922 121.875Z" fill="#3185FF" fill-opacity="0.3"/>
<path d="M301.172 121.875C301.172 116.697 296.975 112.5 291.797 112.5C286.619 112.5 282.422 116.697 282.422 121.875C282.422 127.053 286.619 131.25 291.797 131.25C296.975 131.25 301.172 127.053 301.172 121.875Z" fill="#3185FF" fill-opacity="0.3"/>
<path d="M301.172 178.125C301.172 172.947 296.975 168.75 291.797 168.75C286.619 168.75 282.422 172.947 282.422 178.125C282.422 183.303 286.619 187.5 291.797 187.5C296.975 187.5 301.172 183.303 301.172 178.125Z" fill="#3185FF" fill-opacity="0.3"/>
<path d="M244.922 65.625C244.922 60.4473 240.725 56.25 235.547 56.25C230.369 56.25 226.172 60.4473 226.172 65.625C226.172 70.8027 230.369 75 235.547 75C240.725 75 244.922 70.8027 244.922 65.625Z" fill="#3185FF" fill-opacity="0.3"/>
<path d="M244.922 9.375C244.922 4.19733 240.725 0 235.547 0C230.369 0 226.172 4.19733 226.172 9.375C226.172 14.5527 230.369 18.75 235.547 18.75C240.725 18.75 244.922 14.5527 244.922 9.375Z" fill="#3185FF" fill-opacity="0.3"/>
<path d="M301.172 9.375C301.172 4.19733 296.975 0 291.797 0C286.619 0 282.422 4.19733 282.422 9.375C282.422 14.5527 286.619 18.75 291.797 18.75C296.975 18.75 301.172 14.5527 301.172 9.375Z" fill="#3185FF" fill-opacity="0.3"/>
<path d="M301.172 65.625C301.172 60.4473 296.975 56.25 291.797 56.25C286.619 56.25 282.422 60.4473 282.422 65.625C282.422 70.8027 286.619 75 291.797 75C296.975 75 301.172 70.8027 301.172 65.625Z" fill="#3185FF" fill-opacity="0.3"/>
<path d="M357.422 290.625C357.422 285.447 353.225 281.25 348.047 281.25C342.869 281.25 338.672 285.447 338.672 290.625C338.672 295.803 342.869 300 348.047 300C353.225 300 357.422 295.803 357.422 290.625Z" fill="#3185FF" fill-opacity="0.3"/>
<path d="M357.422 234.375C357.422 229.197 353.225 225 348.047 225C342.869 225 338.672 229.197 338.672 234.375C338.672 239.553 342.869 243.75 348.047 243.75C353.225 243.75 357.422 239.553 357.422 234.375Z" fill="#3185FF" fill-opacity="0.3"/>
<path d="M413.672 234.375C413.672 229.197 409.475 225 404.297 225C399.119 225 394.922 229.197 394.922 234.375C394.922 239.553 399.119 243.75 404.297 243.75C409.475 243.75 413.672 239.553 413.672 234.375Z" fill="#3185FF" fill-opacity="0.3"/>
<path d="M413.672 290.625C413.672 285.447 409.475 281.25 404.297 281.25C399.119 281.25 394.922 285.447 394.922 290.625C394.922 295.803 399.119 300 404.297 300C409.475 300 413.672 295.803 413.672 290.625Z" fill="#3185FF" fill-opacity="0.3"/>
<path d="M357.422 178.125C357.422 172.947 353.225 168.75 348.047 168.75C342.869 168.75 338.672 172.947 338.672 178.125C338.672 183.303 342.869 187.5 348.047 187.5C353.225 187.5 357.422 183.303 357.422 178.125Z" fill="#3185FF" fill-opacity="0.3"/>
<path d="M357.422 121.875C357.422 116.697 353.225 112.5 348.047 112.5C342.869 112.5 338.672 116.697 338.672 121.875C338.672 127.053 342.869 131.25 348.047 131.25C353.225 131.25 357.422 127.053 357.422 121.875Z" fill="#3185FF" fill-opacity="0.3"/>
<path d="M413.672 121.875C413.672 116.697 409.475 112.5 404.297 112.5C399.119 112.5 394.922 116.697 394.922 121.875C394.922 127.053 399.119 131.25 404.297 131.25C409.475 131.25 413.672 127.053 413.672 121.875Z" fill="#3185FF" fill-opacity="0.3"/>
<path d="M413.672 178.125C413.672 172.947 409.475 168.75 404.297 168.75C399.119 168.75 394.922 172.947 394.922 178.125C394.922 183.303 399.119 187.5 404.297 187.5C409.475 187.5 413.672 183.303 413.672 178.125Z" fill="#3185FF" fill-opacity="0.3"/>
<path d="M357.422 65.625C357.422 60.4473 353.225 56.25 348.047 56.25C342.869 56.25 338.672 60.4473 338.672 65.625C338.672 70.8027 342.869 75 348.047 75C353.225 75 357.422 70.8027 357.422 65.625Z" fill="#3185FF" fill-opacity="0.3"/>
<path d="M357.422 9.375C357.422 4.19733 353.225 0 348.047 0C342.869 0 338.672 4.19733 338.672 9.375C338.672 14.5527 342.869 18.75 348.047 18.75C353.225 18.75 357.422 14.5527 357.422 9.375Z" fill="#3185FF" fill-opacity="0.3"/>
<path d="M413.672 9.375C413.672 4.19733 409.475 0 404.297 0C399.119 0 394.922 4.19733 394.922 9.375C394.922 14.5527 399.119 18.75 404.297 18.75C409.475 18.75 413.672 14.5527 413.672 9.375Z" fill="#3185FF" fill-opacity="0.3"/>
<path d="M413.672 65.625C413.672 60.4473 409.475 56.25 404.297 56.25C399.119 56.25 394.922 60.4473 394.922 65.625C394.922 70.8027 399.119 75 404.297 75C409.475 75 413.672 70.8027 413.672 65.625Z" fill="#3185FF" fill-opacity="0.3"/>
<path d="M469.922 290.625C469.922 285.447 465.725 281.25 460.547 281.25C455.369 281.25 451.172 285.447 451.172 290.625C451.172 295.803 455.369 300 460.547 300C465.725 300 469.922 295.803 469.922 290.625Z" fill="#3185FF" fill-opacity="0.3"/>
<path d="M469.922 234.375C469.922 229.197 465.725 225 460.547 225C455.369 225 451.172 229.197 451.172 234.375C451.172 239.553 455.369 243.75 460.547 243.75C465.725 243.75 469.922 239.553 469.922 234.375Z" fill="#3185FF" fill-opacity="0.3"/>
<path d="M526.172 234.375C526.172 229.197 521.975 225 516.797 225C511.619 225 507.422 229.197 507.422 234.375C507.422 239.553 511.619 243.75 516.797 243.75C521.975 243.75 526.172 239.553 526.172 234.375Z" fill="#3185FF" fill-opacity="0.3"/>
<path d="M526.172 290.625C526.172 285.447 521.975 281.25 516.797 281.25C511.619 281.25 507.422 285.447 507.422 290.625C507.422 295.803 511.619 300 516.797 300C521.975 300 526.172 295.803 526.172 290.625Z" fill="#3185FF" fill-opacity="0.3"/>
<path d="M469.922 178.125C469.922 172.947 465.725 168.75 460.547 168.75C455.369 168.75 451.172 172.947 451.172 178.125C451.172 183.303 455.369 187.5 460.547 187.5C465.725 187.5 469.922 183.303 469.922 178.125Z" fill="#3185FF" fill-opacity="0.3"/>
<path d="M469.922 121.875C469.922 116.697 465.725 112.5 460.547 112.5C455.369 112.5 451.172 116.697 451.172 121.875C451.172 127.053 455.369 131.25 460.547 131.25C465.725 131.25 469.922 127.053 469.922 121.875Z" fill="#3185FF" fill-opacity="0.3"/>
<path d="M526.172 121.875C526.172 116.697 521.975 112.5 516.797 112.5C511.619 112.5 507.422 116.697 507.422 121.875C507.422 127.053 511.619 131.25 516.797 131.25C521.975 131.25 526.172 127.053 526.172 121.875Z" fill="#3185FF" fill-opacity="0.3"/>
<path d="M526.172 178.125C526.172 172.947 521.975 168.75 516.797 168.75C511.619 168.75 507.422 172.947 507.422 178.125C507.422 183.303 511.619 187.5 516.797 187.5C521.975 187.5 526.172 183.303 526.172 178.125Z" fill="#3185FF" fill-opacity="0.3"/>
<path d="M469.922 65.625C469.922 60.4473 465.725 56.25 460.547 56.25C455.369 56.25 451.172 60.4473 451.172 65.625C451.172 70.8027 455.369 75 460.547 75C465.725 75 469.922 70.8027 469.922 65.625Z" fill="#3185FF" fill-opacity="0.3"/>
<path d="M469.922 9.375C469.922 4.19733 465.725 0 460.547 0C455.369 0 451.172 4.19733 451.172 9.375C451.172 14.5527 455.369 18.75 460.547 18.75C465.725 18.75 469.922 14.5527 469.922 9.375Z" fill="#3185FF" fill-opacity="0.3"/>
<path d="M526.172 9.375C526.172 4.19733 521.975 0 516.797 0C511.619 0 507.422 4.19733 507.422 9.375C507.422 14.5527 511.619 18.75 516.797 18.75C521.975 18.75 526.172 14.5527 526.172 9.375Z" fill="#3185FF" fill-opacity="0.3"/>
<path d="M526.172 65.625C526.172 60.4473 521.975 56.25 516.797 56.25C511.619 56.25 507.422 60.4473 507.422 65.625C507.422 70.8027 511.619 75 516.797 75C521.975 75 526.172 70.8027 526.172 65.625Z" fill="#3185FF" fill-opacity="0.3"/>
<path d="M582.422 290.625C582.422 285.447 578.225 281.25 573.047 281.25C567.869 281.25 563.672 285.447 563.672 290.625C563.672 295.803 567.869 300 573.047 300C578.225 300 582.422 295.803 582.422 290.625Z" fill="#3185FF" fill-opacity="0.3"/>
<path d="M582.422 234.375C582.422 229.197 578.225 225 573.047 225C567.869 225 563.672 229.197 563.672 234.375C563.672 239.553 567.869 243.75 573.047 243.75C578.225 243.75 582.422 239.553 582.422 234.375Z" fill="#3185FF" fill-opacity="0.3"/>
<path d="M638.672 234.375C638.672 229.197 634.475 225 629.297 225C624.119 225 619.922 229.197 619.922 234.375C619.922 239.553 624.119 243.75 629.297 243.75C634.475 243.75 638.672 239.553 638.672 234.375Z" fill="#3185FF" fill-opacity="0.3"/>
<path d="M638.672 290.625C638.672 285.447 634.475 281.25 629.297 281.25C624.119 281.25 619.922 285.447 619.922 290.625C619.922 295.803 624.119 300 629.297 300C634.475 300 638.672 295.803 638.672 290.625Z" fill="#3185FF" fill-opacity="0.3"/>
<path d="M582.422 178.125C582.422 172.947 578.225 168.75 573.047 168.75C567.869 168.75 563.672 172.947 563.672 178.125C563.672 183.303 567.869 187.5 573.047 187.5C578.225 187.5 582.422 183.303 582.422 178.125Z" fill="#3185FF" fill-opacity="0.3"/>
<path d="M582.422 121.875C582.422 116.697 578.225 112.5 573.047 112.5C567.869 112.5 563.672 116.697 563.672 121.875C563.672 127.053 567.869 131.25 573.047 131.25C578.225 131.25 582.422 127.053 582.422 121.875Z" fill="#3185FF" fill-opacity="0.3"/>
<path d="M638.672 121.875C638.672 116.697 634.475 112.5 629.297 112.5C624.119 112.5 619.922 116.697 619.922 121.875C619.922 127.053 624.119 131.25 629.297 131.25C634.475 131.25 638.672 127.053 638.672 121.875Z" fill="#3185FF" fill-opacity="0.3"/>
<path d="M638.672 178.125C638.672 172.947 634.475 168.75 629.297 168.75C624.119 168.75 619.922 172.947 619.922 178.125C619.922 183.303 624.119 187.5 629.297 187.5C634.475 187.5 638.672 183.303 638.672 178.125Z" fill="#3185FF" fill-opacity="0.3"/>
<path d="M582.422 65.625C582.422 60.4473 578.225 56.25 573.047 56.25C567.869 56.25 563.672 60.4473 563.672 65.625C563.672 70.8027 567.869 75 573.047 75C578.225 75 582.422 70.8027 582.422 65.625Z" fill="#3185FF" fill-opacity="0.3"/>
<path d="M582.422 9.375C582.422 4.19733 578.225 0 573.047 0C567.869 0 563.672 4.19733 563.672 9.375C563.672 14.5527 567.869 18.75 573.047 18.75C578.225 18.75 582.422 14.5527 582.422 9.375Z" fill="#3185FF" fill-opacity="0.3"/>
<path d="M638.672 9.375C638.672 4.19733 634.475 0 629.297 0C624.119 0 619.922 4.19733 619.922 9.375C619.922 14.5527 624.119 18.75 629.297 18.75C634.475 18.75 638.672 14.5527 638.672 9.375Z" fill="#3185FF" fill-opacity="0.3"/>
<path d="M638.672 65.625C638.672 60.4473 634.475 56.25 629.297 56.25C624.119 56.25 619.922 60.4473 619.922 65.625C619.922 70.8027 624.119 75 629.297 75C634.475 75 638.672 70.8027 638.672 65.625Z" fill="#3185FF" fill-opacity="0.3"/>
</g>
</g>
<defs>
<clipPath id="clip0_1281_8000">
<rect width="300" height="642.188" fill="white" transform="matrix(0 -1 1 0 0 300)"/>
</clipPath>
</defs>
</svg>
