<svg width="64" height="137" viewBox="0 0 64 137" fill="none" xmlns="http://www.w3.org/2000/svg">
<g opacity="0.3">
<path d="M2 4.25C3.10457 4.25 4 3.35457 4 2.25C4 1.14543 3.10457 0.25 2 0.25C0.89543 0.25 0 1.14543 0 2.25C0 3.35457 0.89543 4.25 2 4.25Z" fill="#3185FF"/>
<path d="M14 4.25C15.1046 4.25 16 3.35457 16 2.25C16 1.14543 15.1046 0.25 14 0.25C12.8954 0.25 12 1.14543 12 2.25C12 3.35457 12.8954 4.25 14 4.25Z" fill="#3185FF"/>
<path d="M14 16.25C15.1046 16.25 16 15.3546 16 14.25C16 13.1454 15.1046 12.25 14 12.25C12.8954 12.25 12 13.1454 12 14.25C12 15.3546 12.8954 16.25 14 16.25Z" fill="#3185FF"/>
<path d="M2 16.25C3.10457 16.25 4 15.3546 4 14.25C4 13.1454 3.10457 12.25 2 12.25C0.89543 12.25 0 13.1454 0 14.25C0 15.3546 0.89543 16.25 2 16.25Z" fill="#3185FF"/>
<path d="M26 4.25C27.1046 4.25 28 3.35457 28 2.25C28 1.14543 27.1046 0.25 26 0.25C24.8954 0.25 24 1.14543 24 2.25C24 3.35457 24.8954 4.25 26 4.25Z" fill="#3185FF"/>
<path d="M38 4.25C39.1046 4.25 40 3.35457 40 2.25C40 1.14543 39.1046 0.25 38 0.25C36.8954 0.25 36 1.14543 36 2.25C36 3.35457 36.8954 4.25 38 4.25Z" fill="#3185FF"/>
<path d="M38 16.25C39.1046 16.25 40 15.3546 40 14.25C40 13.1454 39.1046 12.25 38 12.25C36.8954 12.25 36 13.1454 36 14.25C36 15.3546 36.8954 16.25 38 16.25Z" fill="#3185FF"/>
<path d="M26 16.25C27.1046 16.25 28 15.3546 28 14.25C28 13.1454 27.1046 12.25 26 12.25C24.8954 12.25 24 13.1454 24 14.25C24 15.3546 24.8954 16.25 26 16.25Z" fill="#3185FF"/>
<path d="M50 4.25C51.1046 4.25 52 3.35457 52 2.25C52 1.14543 51.1046 0.25 50 0.25C48.8954 0.25 48 1.14543 48 2.25C48 3.35457 48.8954 4.25 50 4.25Z" fill="#3185FF"/>
<path d="M62 4.25C63.1046 4.25 64 3.35457 64 2.25C64 1.14543 63.1046 0.25 62 0.25C60.8954 0.25 60 1.14543 60 2.25C60 3.35457 60.8954 4.25 62 4.25Z" fill="#3185FF"/>
<path d="M62 16.25C63.1046 16.25 64 15.3546 64 14.25C64 13.1454 63.1046 12.25 62 12.25C60.8954 12.25 60 13.1454 60 14.25C60 15.3546 60.8954 16.25 62 16.25Z" fill="#3185FF"/>
<path d="M50 16.25C51.1046 16.25 52 15.3546 52 14.25C52 13.1454 51.1046 12.25 50 12.25C48.8954 12.25 48 13.1454 48 14.25C48 15.3546 48.8954 16.25 50 16.25Z" fill="#3185FF"/>
<path d="M2 28.25C3.10457 28.25 4 27.3546 4 26.25C4 25.1454 3.10457 24.25 2 24.25C0.89543 24.25 0 25.1454 0 26.25C0 27.3546 0.89543 28.25 2 28.25Z" fill="#3185FF"/>
<path d="M14 28.25C15.1046 28.25 16 27.3546 16 26.25C16 25.1454 15.1046 24.25 14 24.25C12.8954 24.25 12 25.1454 12 26.25C12 27.3546 12.8954 28.25 14 28.25Z" fill="#3185FF"/>
<path d="M14 40.25C15.1046 40.25 16 39.3546 16 38.25C16 37.1454 15.1046 36.25 14 36.25C12.8954 36.25 12 37.1454 12 38.25C12 39.3546 12.8954 40.25 14 40.25Z" fill="#3185FF"/>
<path d="M2 40.25C3.10457 40.25 4 39.3546 4 38.25C4 37.1454 3.10457 36.25 2 36.25C0.89543 36.25 0 37.1454 0 38.25C0 39.3546 0.89543 40.25 2 40.25Z" fill="#3185FF"/>
<path d="M26 28.25C27.1046 28.25 28 27.3546 28 26.25C28 25.1454 27.1046 24.25 26 24.25C24.8954 24.25 24 25.1454 24 26.25C24 27.3546 24.8954 28.25 26 28.25Z" fill="#3185FF"/>
<path d="M38 28.25C39.1046 28.25 40 27.3546 40 26.25C40 25.1454 39.1046 24.25 38 24.25C36.8954 24.25 36 25.1454 36 26.25C36 27.3546 36.8954 28.25 38 28.25Z" fill="#3185FF"/>
<path d="M38 40.25C39.1046 40.25 40 39.3546 40 38.25C40 37.1454 39.1046 36.25 38 36.25C36.8954 36.25 36 37.1454 36 38.25C36 39.3546 36.8954 40.25 38 40.25Z" fill="#3185FF"/>
<path d="M26 40.25C27.1046 40.25 28 39.3546 28 38.25C28 37.1454 27.1046 36.25 26 36.25C24.8954 36.25 24 37.1454 24 38.25C24 39.3546 24.8954 40.25 26 40.25Z" fill="#3185FF"/>
<path d="M50 28.25C51.1046 28.25 52 27.3546 52 26.25C52 25.1454 51.1046 24.25 50 24.25C48.8954 24.25 48 25.1454 48 26.25C48 27.3546 48.8954 28.25 50 28.25Z" fill="#3185FF"/>
<path d="M62 28.25C63.1046 28.25 64 27.3546 64 26.25C64 25.1454 63.1046 24.25 62 24.25C60.8954 24.25 60 25.1454 60 26.25C60 27.3546 60.8954 28.25 62 28.25Z" fill="#3185FF"/>
<path d="M62 40.25C63.1046 40.25 64 39.3546 64 38.25C64 37.1454 63.1046 36.25 62 36.25C60.8954 36.25 60 37.1454 60 38.25C60 39.3546 60.8954 40.25 62 40.25Z" fill="#3185FF"/>
<path d="M50 40.25C51.1046 40.25 52 39.3546 52 38.25C52 37.1454 51.1046 36.25 50 36.25C48.8954 36.25 48 37.1454 48 38.25C48 39.3546 48.8954 40.25 50 40.25Z" fill="#3185FF"/>
<path d="M2 52.25C3.10457 52.25 4 51.3546 4 50.25C4 49.1454 3.10457 48.25 2 48.25C0.89543 48.25 0 49.1454 0 50.25C0 51.3546 0.89543 52.25 2 52.25Z" fill="#3185FF"/>
<path d="M14 52.25C15.1046 52.25 16 51.3546 16 50.25C16 49.1454 15.1046 48.25 14 48.25C12.8954 48.25 12 49.1454 12 50.25C12 51.3546 12.8954 52.25 14 52.25Z" fill="#3185FF"/>
<path d="M14 64.25C15.1046 64.25 16 63.3546 16 62.25C16 61.1454 15.1046 60.25 14 60.25C12.8954 60.25 12 61.1454 12 62.25C12 63.3546 12.8954 64.25 14 64.25Z" fill="#3185FF"/>
<path d="M2 64.25C3.10457 64.25 4 63.3546 4 62.25C4 61.1454 3.10457 60.25 2 60.25C0.89543 60.25 0 61.1454 0 62.25C0 63.3546 0.89543 64.25 2 64.25Z" fill="#3185FF"/>
<path d="M26 52.25C27.1046 52.25 28 51.3546 28 50.25C28 49.1454 27.1046 48.25 26 48.25C24.8954 48.25 24 49.1454 24 50.25C24 51.3546 24.8954 52.25 26 52.25Z" fill="#3185FF"/>
<path d="M38 52.25C39.1046 52.25 40 51.3546 40 50.25C40 49.1454 39.1046 48.25 38 48.25C36.8954 48.25 36 49.1454 36 50.25C36 51.3546 36.8954 52.25 38 52.25Z" fill="#3185FF"/>
<path d="M38 64.25C39.1046 64.25 40 63.3546 40 62.25C40 61.1454 39.1046 60.25 38 60.25C36.8954 60.25 36 61.1454 36 62.25C36 63.3546 36.8954 64.25 38 64.25Z" fill="#3185FF"/>
<path d="M26 64.25C27.1046 64.25 28 63.3546 28 62.25C28 61.1454 27.1046 60.25 26 60.25C24.8954 60.25 24 61.1454 24 62.25C24 63.3546 24.8954 64.25 26 64.25Z" fill="#3185FF"/>
<path d="M50 52.25C51.1046 52.25 52 51.3546 52 50.25C52 49.1454 51.1046 48.25 50 48.25C48.8954 48.25 48 49.1454 48 50.25C48 51.3546 48.8954 52.25 50 52.25Z" fill="#3185FF"/>
<path d="M62 52.25C63.1046 52.25 64 51.3546 64 50.25C64 49.1454 63.1046 48.25 62 48.25C60.8954 48.25 60 49.1454 60 50.25C60 51.3546 60.8954 52.25 62 52.25Z" fill="#3185FF"/>
<path d="M62 64.25C63.1046 64.25 64 63.3546 64 62.25C64 61.1454 63.1046 60.25 62 60.25C60.8954 60.25 60 61.1454 60 62.25C60 63.3546 60.8954 64.25 62 64.25Z" fill="#3185FF"/>
<path d="M50 64.25C51.1046 64.25 52 63.3546 52 62.25C52 61.1454 51.1046 60.25 50 60.25C48.8954 60.25 48 61.1454 48 62.25C48 63.3546 48.8954 64.25 50 64.25Z" fill="#3185FF"/>
<path d="M2 76.25C3.10457 76.25 4 75.3546 4 74.25C4 73.1454 3.10457 72.25 2 72.25C0.89543 72.25 0 73.1454 0 74.25C0 75.3546 0.89543 76.25 2 76.25Z" fill="#3185FF"/>
<path d="M14 76.25C15.1046 76.25 16 75.3546 16 74.25C16 73.1454 15.1046 72.25 14 72.25C12.8954 72.25 12 73.1454 12 74.25C12 75.3546 12.8954 76.25 14 76.25Z" fill="#3185FF"/>
<path d="M14 88.25C15.1046 88.25 16 87.3546 16 86.25C16 85.1454 15.1046 84.25 14 84.25C12.8954 84.25 12 85.1454 12 86.25C12 87.3546 12.8954 88.25 14 88.25Z" fill="#3185FF"/>
<path d="M2 88.25C3.10457 88.25 4 87.3546 4 86.25C4 85.1454 3.10457 84.25 2 84.25C0.89543 84.25 0 85.1454 0 86.25C0 87.3546 0.89543 88.25 2 88.25Z" fill="#3185FF"/>
<path d="M26 76.25C27.1046 76.25 28 75.3546 28 74.25C28 73.1454 27.1046 72.25 26 72.25C24.8954 72.25 24 73.1454 24 74.25C24 75.3546 24.8954 76.25 26 76.25Z" fill="#3185FF"/>
<path d="M38 76.25C39.1046 76.25 40 75.3546 40 74.25C40 73.1454 39.1046 72.25 38 72.25C36.8954 72.25 36 73.1454 36 74.25C36 75.3546 36.8954 76.25 38 76.25Z" fill="#3185FF"/>
<path d="M38 88.25C39.1046 88.25 40 87.3546 40 86.25C40 85.1454 39.1046 84.25 38 84.25C36.8954 84.25 36 85.1454 36 86.25C36 87.3546 36.8954 88.25 38 88.25Z" fill="#3185FF"/>
<path d="M26 88.25C27.1046 88.25 28 87.3546 28 86.25C28 85.1454 27.1046 84.25 26 84.25C24.8954 84.25 24 85.1454 24 86.25C24 87.3546 24.8954 88.25 26 88.25Z" fill="#3185FF"/>
<path d="M50 76.25C51.1046 76.25 52 75.3546 52 74.25C52 73.1454 51.1046 72.25 50 72.25C48.8954 72.25 48 73.1454 48 74.25C48 75.3546 48.8954 76.25 50 76.25Z" fill="#3185FF"/>
<path d="M62 76.25C63.1046 76.25 64 75.3546 64 74.25C64 73.1454 63.1046 72.25 62 72.25C60.8954 72.25 60 73.1454 60 74.25C60 75.3546 60.8954 76.25 62 76.25Z" fill="#3185FF"/>
<path d="M62 88.25C63.1046 88.25 64 87.3546 64 86.25C64 85.1454 63.1046 84.25 62 84.25C60.8954 84.25 60 85.1454 60 86.25C60 87.3546 60.8954 88.25 62 88.25Z" fill="#3185FF"/>
<path d="M50 88.25C51.1046 88.25 52 87.3546 52 86.25C52 85.1454 51.1046 84.25 50 84.25C48.8954 84.25 48 85.1454 48 86.25C48 87.3546 48.8954 88.25 50 88.25Z" fill="#3185FF"/>
<path d="M2 100.25C3.10457 100.25 4 99.3546 4 98.25C4 97.1454 3.10457 96.25 2 96.25C0.89543 96.25 0 97.1454 0 98.25C0 99.3546 0.89543 100.25 2 100.25Z" fill="#3185FF"/>
<path d="M14 100.25C15.1046 100.25 16 99.3546 16 98.25C16 97.1454 15.1046 96.25 14 96.25C12.8954 96.25 12 97.1454 12 98.25C12 99.3546 12.8954 100.25 14 100.25Z" fill="#3185FF"/>
<path d="M14 112.25C15.1046 112.25 16 111.355 16 110.25C16 109.145 15.1046 108.25 14 108.25C12.8954 108.25 12 109.145 12 110.25C12 111.355 12.8954 112.25 14 112.25Z" fill="#3185FF"/>
<path d="M2 112.25C3.10457 112.25 4 111.355 4 110.25C4 109.145 3.10457 108.25 2 108.25C0.89543 108.25 0 109.145 0 110.25C0 111.355 0.89543 112.25 2 112.25Z" fill="#3185FF"/>
<path d="M26 100.25C27.1046 100.25 28 99.3546 28 98.25C28 97.1454 27.1046 96.25 26 96.25C24.8954 96.25 24 97.1454 24 98.25C24 99.3546 24.8954 100.25 26 100.25Z" fill="#3185FF"/>
<path d="M38 100.25C39.1046 100.25 40 99.3546 40 98.25C40 97.1454 39.1046 96.25 38 96.25C36.8954 96.25 36 97.1454 36 98.25C36 99.3546 36.8954 100.25 38 100.25Z" fill="#3185FF"/>
<path d="M38 112.25C39.1046 112.25 40 111.355 40 110.25C40 109.145 39.1046 108.25 38 108.25C36.8954 108.25 36 109.145 36 110.25C36 111.355 36.8954 112.25 38 112.25Z" fill="#3185FF"/>
<path d="M26 112.25C27.1046 112.25 28 111.355 28 110.25C28 109.145 27.1046 108.25 26 108.25C24.8954 108.25 24 109.145 24 110.25C24 111.355 24.8954 112.25 26 112.25Z" fill="#3185FF"/>
<path d="M50 100.25C51.1046 100.25 52 99.3546 52 98.25C52 97.1454 51.1046 96.25 50 96.25C48.8954 96.25 48 97.1454 48 98.25C48 99.3546 48.8954 100.25 50 100.25Z" fill="#3185FF"/>
<path d="M62 100.25C63.1046 100.25 64 99.3546 64 98.25C64 97.1454 63.1046 96.25 62 96.25C60.8954 96.25 60 97.1454 60 98.25C60 99.3546 60.8954 100.25 62 100.25Z" fill="#3185FF"/>
<path d="M62 112.25C63.1046 112.25 64 111.355 64 110.25C64 109.145 63.1046 108.25 62 108.25C60.8954 108.25 60 109.145 60 110.25C60 111.355 60.8954 112.25 62 112.25Z" fill="#3185FF"/>
<path d="M50 112.25C51.1046 112.25 52 111.355 52 110.25C52 109.145 51.1046 108.25 50 108.25C48.8954 108.25 48 109.145 48 110.25C48 111.355 48.8954 112.25 50 112.25Z" fill="#3185FF"/>
<path d="M2 124.25C3.10457 124.25 4 123.355 4 122.25C4 121.145 3.10457 120.25 2 120.25C0.89543 120.25 0 121.145 0 122.25C0 123.355 0.89543 124.25 2 124.25Z" fill="#3185FF"/>
<path d="M14 124.25C15.1046 124.25 16 123.355 16 122.25C16 121.145 15.1046 120.25 14 120.25C12.8954 120.25 12 121.145 12 122.25C12 123.355 12.8954 124.25 14 124.25Z" fill="#3185FF"/>
<path d="M14 136.25C15.1046 136.25 16 135.355 16 134.25C16 133.145 15.1046 132.25 14 132.25C12.8954 132.25 12 133.145 12 134.25C12 135.355 12.8954 136.25 14 136.25Z" fill="#3185FF"/>
<path d="M2 136.25C3.10457 136.25 4 135.355 4 134.25C4 133.145 3.10457 132.25 2 132.25C0.89543 132.25 0 133.145 0 134.25C0 135.355 0.89543 136.25 2 136.25Z" fill="#3185FF"/>
<path d="M26 124.25C27.1046 124.25 28 123.355 28 122.25C28 121.145 27.1046 120.25 26 120.25C24.8954 120.25 24 121.145 24 122.25C24 123.355 24.8954 124.25 26 124.25Z" fill="#3185FF"/>
<path d="M38 124.25C39.1046 124.25 40 123.355 40 122.25C40 121.145 39.1046 120.25 38 120.25C36.8954 120.25 36 121.145 36 122.25C36 123.355 36.8954 124.25 38 124.25Z" fill="#3185FF"/>
<path d="M38 136.25C39.1046 136.25 40 135.355 40 134.25C40 133.145 39.1046 132.25 38 132.25C36.8954 132.25 36 133.145 36 134.25C36 135.355 36.8954 136.25 38 136.25Z" fill="#3185FF"/>
<path d="M26 136.25C27.1046 136.25 28 135.355 28 134.25C28 133.145 27.1046 132.25 26 132.25C24.8954 132.25 24 133.145 24 134.25C24 135.355 24.8954 136.25 26 136.25Z" fill="#3185FF"/>
<path d="M50 124.25C51.1046 124.25 52 123.355 52 122.25C52 121.145 51.1046 120.25 50 120.25C48.8954 120.25 48 121.145 48 122.25C48 123.355 48.8954 124.25 50 124.25Z" fill="#3185FF"/>
<path d="M62 124.25C63.1046 124.25 64 123.355 64 122.25C64 121.145 63.1046 120.25 62 120.25C60.8954 120.25 60 121.145 60 122.25C60 123.355 60.8954 124.25 62 124.25Z" fill="#3185FF"/>
<path d="M62 136.25C63.1046 136.25 64 135.355 64 134.25C64 133.145 63.1046 132.25 62 132.25C60.8954 132.25 60 133.145 60 134.25C60 135.355 60.8954 136.25 62 136.25Z" fill="#3185FF"/>
<path d="M50 136.25C51.1046 136.25 52 135.355 52 134.25C52 133.145 51.1046 132.25 50 132.25C48.8954 132.25 48 133.145 48 134.25C48 135.355 48.8954 136.25 50 136.25Z" fill="#3185FF"/>
</g>
</svg>
