<svg width="48" height="120" viewBox="0 0 48 120" fill="none" xmlns="http://www.w3.org/2000/svg">
<g clip-path="url(#clip0_1402_3883)">
<g clip-path="url(#clip1_1402_3883)">
<g opacity="0.3">
<path d="M6 8.25C7.10457 8.25 8 7.35457 8 6.25C8 5.14543 7.10457 4.25 6 4.25C4.89543 4.25 4 5.14543 4 6.25C4 7.35457 4.89543 8.25 6 8.25Z" fill="#3185FF"/>
<path d="M30 8.25C31.1046 8.25 32 7.35457 32 6.25C32 5.14543 31.1046 4.25 30 4.25C28.8954 4.25 28 5.14543 28 6.25C28 7.35457 28.8954 8.25 30 8.25Z" fill="#3185FF"/>
<path d="M18 8.25C19.1046 8.25 20 7.35457 20 6.25C20 5.14543 19.1046 4.25 18 4.25C16.8954 4.25 16 5.14543 16 6.25C16 7.35457 16.8954 8.25 18 8.25Z" fill="#3185FF"/>
<path d="M42 8.25C43.1046 8.25 44 7.35457 44 6.25C44 5.14543 43.1046 4.25 42 4.25C40.8954 4.25 40 5.14543 40 6.25C40 7.35457 40.8954 8.25 42 8.25Z" fill="#3185FF"/>
<path d="M6 20.25C7.10457 20.25 8 19.3546 8 18.25C8 17.1454 7.10457 16.25 6 16.25C4.89543 16.25 4 17.1454 4 18.25C4 19.3546 4.89543 20.25 6 20.25Z" fill="#3185FF"/>
<path d="M6 32.25C7.10457 32.25 8 31.3546 8 30.25C8 29.1454 7.10457 28.25 6 28.25C4.89543 28.25 4 29.1454 4 30.25C4 31.3546 4.89543 32.25 6 32.25Z" fill="#3185FF"/>
<path d="M18 20.25C19.1046 20.25 20 19.3546 20 18.25C20 17.1454 19.1046 16.25 18 16.25C16.8954 16.25 16 17.1454 16 18.25C16 19.3546 16.8954 20.25 18 20.25Z" fill="#3185FF"/>
<path d="M30 20.25C31.1046 20.25 32 19.3546 32 18.25C32 17.1454 31.1046 16.25 30 16.25C28.8954 16.25 28 17.1454 28 18.25C28 19.3546 28.8954 20.25 30 20.25Z" fill="#3185FF"/>
<path d="M30 32.25C31.1046 32.25 32 31.3546 32 30.25C32 29.1454 31.1046 28.25 30 28.25C28.8954 28.25 28 29.1454 28 30.25C28 31.3546 28.8954 32.25 30 32.25Z" fill="#3185FF"/>
<path d="M18 32.25C19.1046 32.25 20 31.3546 20 30.25C20 29.1454 19.1046 28.25 18 28.25C16.8954 28.25 16 29.1454 16 30.25C16 31.3546 16.8954 32.25 18 32.25Z" fill="#3185FF"/>
<path d="M42 20.25C43.1046 20.25 44 19.3546 44 18.25C44 17.1454 43.1046 16.25 42 16.25C40.8954 16.25 40 17.1454 40 18.25C40 19.3546 40.8954 20.25 42 20.25Z" fill="#3185FF"/>
<path d="M42 32.25C43.1046 32.25 44 31.3546 44 30.25C44 29.1454 43.1046 28.25 42 28.25C40.8954 28.25 40 29.1454 40 30.25C40 31.3546 40.8954 32.25 42 32.25Z" fill="#3185FF"/>
<path d="M6 44.25C7.10457 44.25 8 43.3546 8 42.25C8 41.1454 7.10457 40.25 6 40.25C4.89543 40.25 4 41.1454 4 42.25C4 43.3546 4.89543 44.25 6 44.25Z" fill="#3185FF"/>
<path d="M6 56.25C7.10457 56.25 8 55.3546 8 54.25C8 53.1454 7.10457 52.25 6 52.25C4.89543 52.25 4 53.1454 4 54.25C4 55.3546 4.89543 56.25 6 56.25Z" fill="#3185FF"/>
<path d="M18 44.25C19.1046 44.25 20 43.3546 20 42.25C20 41.1454 19.1046 40.25 18 40.25C16.8954 40.25 16 41.1454 16 42.25C16 43.3546 16.8954 44.25 18 44.25Z" fill="#3185FF"/>
<path d="M30 44.25C31.1046 44.25 32 43.3546 32 42.25C32 41.1454 31.1046 40.25 30 40.25C28.8954 40.25 28 41.1454 28 42.25C28 43.3546 28.8954 44.25 30 44.25Z" fill="#3185FF"/>
<path d="M30 56.25C31.1046 56.25 32 55.3546 32 54.25C32 53.1454 31.1046 52.25 30 52.25C28.8954 52.25 28 53.1454 28 54.25C28 55.3546 28.8954 56.25 30 56.25Z" fill="#3185FF"/>
<path d="M18 56.25C19.1046 56.25 20 55.3546 20 54.25C20 53.1454 19.1046 52.25 18 52.25C16.8954 52.25 16 53.1454 16 54.25C16 55.3546 16.8954 56.25 18 56.25Z" fill="#3185FF"/>
<path d="M42 44.25C43.1046 44.25 44 43.3546 44 42.25C44 41.1454 43.1046 40.25 42 40.25C40.8954 40.25 40 41.1454 40 42.25C40 43.3546 40.8954 44.25 42 44.25Z" fill="#3185FF"/>
<path d="M42 56.25C43.1046 56.25 44 55.3546 44 54.25C44 53.1454 43.1046 52.25 42 52.25C40.8954 52.25 40 53.1454 40 54.25C40 55.3546 40.8954 56.25 42 56.25Z" fill="#3185FF"/>
<path d="M6 68.25C7.10457 68.25 8 67.3546 8 66.25C8 65.1454 7.10457 64.25 6 64.25C4.89543 64.25 4 65.1454 4 66.25C4 67.3546 4.89543 68.25 6 68.25Z" fill="#3185FF"/>
<path d="M6 80.25C7.10457 80.25 8 79.3546 8 78.25C8 77.1454 7.10457 76.25 6 76.25C4.89543 76.25 4 77.1454 4 78.25C4 79.3546 4.89543 80.25 6 80.25Z" fill="#3185FF"/>
<path d="M18 68.25C19.1046 68.25 20 67.3546 20 66.25C20 65.1454 19.1046 64.25 18 64.25C16.8954 64.25 16 65.1454 16 66.25C16 67.3546 16.8954 68.25 18 68.25Z" fill="#3185FF"/>
<path d="M30 68.25C31.1046 68.25 32 67.3546 32 66.25C32 65.1454 31.1046 64.25 30 64.25C28.8954 64.25 28 65.1454 28 66.25C28 67.3546 28.8954 68.25 30 68.25Z" fill="#3185FF"/>
<path d="M30 80.25C31.1046 80.25 32 79.3546 32 78.25C32 77.1454 31.1046 76.25 30 76.25C28.8954 76.25 28 77.1454 28 78.25C28 79.3546 28.8954 80.25 30 80.25Z" fill="#3185FF"/>
<path d="M18 80.25C19.1046 80.25 20 79.3546 20 78.25C20 77.1454 19.1046 76.25 18 76.25C16.8954 76.25 16 77.1454 16 78.25C16 79.3546 16.8954 80.25 18 80.25Z" fill="#3185FF"/>
<path d="M42 68.25C43.1046 68.25 44 67.3546 44 66.25C44 65.1454 43.1046 64.25 42 64.25C40.8954 64.25 40 65.1454 40 66.25C40 67.3546 40.8954 68.25 42 68.25Z" fill="#3185FF"/>
<path d="M42 80.25C43.1046 80.25 44 79.3546 44 78.25C44 77.1454 43.1046 76.25 42 76.25C40.8954 76.25 40 77.1454 40 78.25C40 79.3546 40.8954 80.25 42 80.25Z" fill="#3185FF"/>
<path d="M6 92.25C7.10457 92.25 8 91.3546 8 90.25C8 89.1454 7.10457 88.25 6 88.25C4.89543 88.25 4 89.1454 4 90.25C4 91.3546 4.89543 92.25 6 92.25Z" fill="#3185FF"/>
<path d="M6 104.25C7.10457 104.25 8 103.355 8 102.25C8 101.145 7.10457 100.25 6 100.25C4.89543 100.25 4 101.145 4 102.25C4 103.355 4.89543 104.25 6 104.25Z" fill="#3185FF"/>
<path d="M18 92.25C19.1046 92.25 20 91.3546 20 90.25C20 89.1454 19.1046 88.25 18 88.25C16.8954 88.25 16 89.1454 16 90.25C16 91.3546 16.8954 92.25 18 92.25Z" fill="#3185FF"/>
<path d="M30 92.25C31.1046 92.25 32 91.3546 32 90.25C32 89.1454 31.1046 88.25 30 88.25C28.8954 88.25 28 89.1454 28 90.25C28 91.3546 28.8954 92.25 30 92.25Z" fill="#3185FF"/>
<path d="M30 104.25C31.1046 104.25 32 103.355 32 102.25C32 101.145 31.1046 100.25 30 100.25C28.8954 100.25 28 101.145 28 102.25C28 103.355 28.8954 104.25 30 104.25Z" fill="#3185FF"/>
<path d="M18 104.25C19.1046 104.25 20 103.355 20 102.25C20 101.145 19.1046 100.25 18 100.25C16.8954 100.25 16 101.145 16 102.25C16 103.355 16.8954 104.25 18 104.25Z" fill="#3185FF"/>
<path d="M42 92.25C43.1046 92.25 44 91.3546 44 90.25C44 89.1454 43.1046 88.25 42 88.25C40.8954 88.25 40 89.1454 40 90.25C40 91.3546 40.8954 92.25 42 92.25Z" fill="#3185FF"/>
<path d="M42 104.25C43.1046 104.25 44 103.355 44 102.25C44 101.145 43.1046 100.25 42 100.25C40.8954 100.25 40 101.145 40 102.25C40 103.355 40.8954 104.25 42 104.25Z" fill="#3185FF"/>
<path d="M6 116.25C7.10457 116.25 8 115.355 8 114.25C8 113.145 7.10457 112.25 6 112.25C4.89543 112.25 4 113.145 4 114.25C4 115.355 4.89543 116.25 6 116.25Z" fill="#3185FF"/>
<path d="M18 116.25C19.1046 116.25 20 115.355 20 114.25C20 113.145 19.1046 112.25 18 112.25C16.8954 112.25 16 113.145 16 114.25C16 115.355 16.8954 116.25 18 116.25Z" fill="#3185FF"/>
<path d="M30 116.25C31.1046 116.25 32 115.355 32 114.25C32 113.145 31.1046 112.25 30 112.25C28.8954 112.25 28 113.145 28 114.25C28 115.355 28.8954 116.25 30 116.25Z" fill="#3185FF"/>
<path d="M42 116.25C43.1046 116.25 44 115.355 44 114.25C44 113.145 43.1046 112.25 42 112.25C40.8954 112.25 40 113.145 40 114.25C40 115.355 40.8954 116.25 42 116.25Z" fill="#3185FF"/>
</g>
</g>
</g>
<defs>
<clipPath id="clip0_1402_3883">
<rect width="48" height="120" fill="white"/>
</clipPath>
<clipPath id="clip1_1402_3883">
<rect width="64" height="137" fill="white" transform="translate(-8 -8)"/>
</clipPath>
</defs>
</svg>
