<svg width="500" height="500" viewBox="0 0 500 500" fill="none" xmlns="http://www.w3.org/2000/svg">
<path d="M240.1 405.702C354.478 405.702 447.2 398.852 447.2 390.402C447.2 381.952 354.478 375.102 240.1 375.102C125.722 375.102 33 381.952 33 390.402C33 398.852 125.722 405.702 240.1 405.702Z" fill="#D1D3D4"/>
<path d="M377 184.299C390 184.299 400.5 194.499 400.5 207.099V366.499C400.5 377.299 391.4 386.099 380.3 386.099H155.8C144.6 386.099 135.6 377.299 135.6 366.499V179.799C135.6 168.899 144.7 160.199 155.8 160.199H242.5C256.2 160.199 267.4 170.999 267.4 184.299H377Z" fill="#22262E"/>
<path d="M172 360.001V111.801H337.5L376.2 150.501V355.701L172 360.001Z" fill="#3185FF"/>
<path d="M172 360.7C171.8 360.7 171.6 360.6 171.5 360.5C171.4 360.4 171.3 360.2 171.3 360V111.8C171.3 111.4 171.6 111 172 111H337.5C337.7 111 337.9 111.1 338 111.2L376.7 149.9C376.8 150 376.9 150.2 376.9 150.4V355.7C376.9 356.1 376.6 356.4 376.2 356.5L172 360.7ZM172.8 112.5V359.2L375.5 355V150.8L337.3 112.6L172.8 112.5Z" fill="#22262E"/>
<path d="M355.699 164.1H188.999C188.599 164.1 188.199 163.8 188.199 163.3C188.199 162.8 188.499 162.5 188.999 162.5H355.699C356.099 162.5 356.499 162.8 356.499 163.3C356.499 163.8 356.099 164.1 355.699 164.1Z" fill="#FFFDFA"/>
<path d="M355.699 190.698H188.999C188.599 190.698 188.199 190.398 188.199 189.898C188.199 189.398 188.499 189.098 188.999 189.098H355.699C356.099 189.098 356.499 189.398 356.499 189.898C356.499 190.398 356.099 190.698 355.699 190.698Z" fill="#FFFDFA"/>
<path d="M355.699 217.299H188.999C188.599 217.299 188.199 216.999 188.199 216.499C188.199 215.999 188.499 215.699 188.999 215.699H355.699C356.099 215.699 356.499 215.999 356.499 216.499C356.499 216.999 356.099 217.299 355.699 217.299Z" fill="#FFFDFA"/>
<path d="M355.699 243.299H188.999C188.599 243.299 188.199 242.999 188.199 242.499C188.199 241.999 188.499 241.699 188.999 241.699H355.699C356.099 241.699 356.499 241.999 356.499 242.499C356.499 242.999 356.099 243.299 355.699 243.299Z" fill="#FFFDFA"/>
<path d="M240.199 136.499C238.299 136.399 236.499 135.299 235.699 133.599C234.299 130.899 229.899 115.599 229.099 108.899C228.699 106.099 230.099 104.099 232.999 103.299C236.099 102.399 239.699 103.499 240.499 105.399C241.299 107.299 242.899 110.999 242.999 111.299C243.199 111.699 242.999 112.099 242.599 112.299C242.199 112.499 241.799 112.299 241.599 111.999C241.499 111.699 239.999 108.099 239.099 106.099C238.599 104.899 235.799 104.099 233.299 104.799C231.199 105.399 230.299 106.699 230.499 108.699C231.299 115.199 235.599 130.199 236.999 132.899C237.599 134.299 239.199 135.199 240.699 134.899C241.999 134.599 242.199 133.099 242.099 132.299C241.899 127.499 235.399 109.699 235.099 108.899L236.499 108.399C237.199 110.299 243.399 127.299 243.599 132.299C243.699 134.399 242.699 135.899 240.999 136.399C240.899 136.499 240.599 136.499 240.199 136.499Z" fill="#22262E"/>
<path d="M375.899 151.198H337.499C337.099 151.198 336.799 150.898 336.699 150.498V112.198C336.699 111.798 336.999 111.398 337.499 111.398C337.999 111.398 338.299 111.698 338.299 112.198V149.798H375.899C376.299 149.798 376.699 150.098 376.699 150.598C376.699 151.098 376.299 151.198 375.899 151.198Z" fill="#22262E"/>
<path d="M212.1 131.401H188.8C188.4 131.401 188 131.101 188 130.601C188 130.101 188.3 129.801 188.8 129.801H212.1C212.5 129.801 212.9 130.101 212.9 130.601C212.9 131.101 212.5 131.401 212.1 131.401Z" fill="#FFFDFA"/>
<path d="M113.7 231.002C110.9 232.102 106.3 233.102 105.1 229.202C104.9 228.502 104.8 227.802 104.9 227.102C105 226.102 105.2 225.002 105.5 224.002C106.3 221.202 107.3 218.402 108.5 215.702C108.8 215.002 109.4 214.202 110.1 214.502C110.8 214.802 110.8 215.502 110.8 216.102C110.8 217.902 110.5 219.602 110.6 221.402C114.3 220.502 116.6 216.502 120.2 215.702C121.2 215.502 122.4 215.402 122.5 216.702C122.6 218.302 119.8 219.502 118.8 220.402C119.9 219.502 121.1 218.802 122.4 218.302C122.8 218.102 123.2 218.102 123.6 218.102C124 218.102 124.3 218.502 124.4 218.902C124.4 219.202 124.2 219.502 124 219.802C123.5 220.402 122.8 221.002 122.2 221.502C122.9 220.702 123.8 220.202 124.8 220.002C125.3 219.802 125.9 220.002 126.2 220.402C126.6 221.102 125.8 221.802 125.1 222.202C125.6 221.702 126.3 221.402 127 221.202C127.7 221.102 128.4 221.602 128.6 222.302C128.6 222.902 128.3 223.402 127.8 223.702C124 227.102 118.4 229.202 113.7 231.002Z" fill="#FFFDFA"/>
<path d="M109.2 232.7C108.3 232.7 107.4 232.5 106.6 232.2C105.5 231.6 104.6 230.6 104.3 229.4C104.1 228.6 104 227.8 104.1 227C104.2 225.9 104.4 224.8 104.7 223.8C105.5 220.9 106.5 218.1 107.7 215.4C108.3 214 109.2 213.4 110.2 213.7C110.8 213.9 111.4 214.5 111.4 216C111.4 216.8 111.3 217.5 111.3 218.3C111.3 219.1 111.2 219.6 111.2 220.3C112.5 219.7 113.7 218.8 114.8 217.9C116.2 216.6 117.9 215.5 119.8 215C120.6 214.7 121.5 214.8 122.3 215.2C122.7 215.5 123 216.1 123 216.6C123 216.8 123 217 123 217.2C123.2 217.2 123.4 217.2 123.6 217.2C124.4 217.3 125 217.9 125 218.7C125 218.8 125 218.9 125 219C125.6 219 126.3 219.2 126.6 219.8C126.7 220 126.8 220.1 126.8 220.3C127.4 220.2 128 220.4 128.5 220.8C128.9 221.1 129.1 221.6 129.2 222C129.2 222.8 128.8 223.5 128.2 224C124.6 227.6 119.3 229.6 114.6 231.4L114 231.6C112.5 232.3 110.9 232.7 109.2 232.7ZM109.8 215.1C109.7 215.1 109.4 215.4 109.2 215.9C108 218.5 107 221.3 106.3 224.1C106 225.1 105.9 226.1 105.8 227.1C105.7 227.7 105.8 228.3 106 228.9C106.2 229.7 106.7 230.4 107.5 230.8C108.8 231.4 111 231.2 113.6 230.3L114.2 230.1C118.8 228.3 123.9 226.4 127.3 223C127.4 222.9 127.9 222.4 127.8 222.2C127.8 222.1 127.7 222 127.7 222C127.5 221.9 127.3 221.8 127.1 221.8C126.7 221.8 126.4 222 126.1 222.2C125.9 222.4 125.7 222.5 125.4 222.7C125 222.9 124.6 222.8 124.4 222.4C124.2 222.1 124.3 221.7 124.6 221.5C124.8 221.4 125 221.2 125.2 221.1C125.3 221 125.4 220.8 125.5 220.7C125.3 220.6 125.1 220.6 124.9 220.7C124.5 220.8 124.1 220.9 123.8 221.1C123.4 221.5 123.1 221.8 122.7 222.1C122.4 222.3 121.9 222.2 121.7 221.9C121.5 221.6 121.5 221.3 121.7 221C122.1 220.6 122.5 220.2 122.9 219.9C123.1 219.7 123.3 219.5 123.5 219.3C123.7 219.1 123.7 219 123.7 218.9C123.6 218.9 123.6 218.8 123.5 218.8C123.2 218.8 122.9 218.8 122.7 219C122.2 219.2 121.8 219.4 121.4 219.6C121 219.9 120.7 220.1 120.3 220.3C120 220.5 119.6 220.7 119.3 221C119 221.3 118.5 221.2 118.2 220.9C117.9 220.6 118 220.1 118.3 219.8C119 219.2 119.7 218.7 120.5 218.3C121.2 217.8 121.7 217.3 121.7 216.8C121.7 216.7 121.7 216.6 121.6 216.5C121.5 216.5 121.3 216.3 120.3 216.5C118.7 217 117.2 217.9 115.9 219.1C114.4 220.5 112.7 221.5 110.7 222.1C110.5 222.2 110.2 222.1 110.1 222C109.9 221.9 109.8 221.6 109.8 221.4C109.8 220.3 109.8 219.3 109.9 218.3C110 217.6 110 216.8 110 216.1C110 215.4 109.8 215.1 109.8 215.1Z" fill="#22262E"/>
<path d="M110.6 221.402C112.3 223.502 112.4 226.502 110.7 228.702H111.1" fill="#FFFDFA"/>
<path d="M110.7 229.502C110.3 229.502 110 229.202 110 228.702C110 228.502 110.1 228.402 110.2 228.202C111.6 226.302 111.6 223.702 110.1 221.902C109.8 221.602 109.9 221.102 110.2 220.802C110.5 220.502 111 220.602 111.3 220.902C113.1 223.002 113.3 226.002 111.9 228.402C111.9 228.502 111.9 228.502 111.9 228.602C111.9 229.002 111.6 229.402 111.2 229.402L110.7 229.502Z" fill="#22262E"/>
<path d="M117.127 174.561L104.684 304.262L283.756 321.442L296.199 191.741L117.127 174.561Z" fill="#FFFDFA"/>
<path d="M283.8 322.201L104.6 305.001C104.2 305.001 103.9 304.601 103.9 304.201L116.3 174.501C116.3 174.301 116.4 174.101 116.6 174.001C116.8 173.901 117 173.801 117.2 173.801L296.3 191.001C296.7 191.001 297 191.401 297 191.801L284.6 321.501C284.5 321.901 284.2 322.201 283.8 322.201ZM105.5 303.601L283.1 320.601L295.4 192.401L117.8 175.401L105.5 303.601Z" fill="#22262E"/>
<path d="M269.1 309.102L121.4 295.002C121 295.002 120.7 294.602 120.7 294.202L131 187.602C131 187.402 131.1 187.202 131.3 187.102C131.5 187.002 131.7 186.902 131.9 186.902L279.5 201.002C279.9 201.002 280.2 201.402 280.2 201.802L270 308.302C269.9 308.802 269.5 309.102 269.1 309.102ZM122.3 293.502L268.4 307.502L278.5 202.502L132.4 188.502L122.3 293.502Z" fill="#D1D3D4"/>
<path d="M238 267.001C237.8 267.001 237.6 266.902 237.4 266.702C235.3 264.202 184.8 206.502 178.2 201.802C174.8 199.402 161 207.302 150 214.302C140.6 220.302 131.7 226.802 128.2 229.302C127.9 229.502 127.4 229.502 127.1 229.102C126.8 228.702 126.9 228.301 127.3 228.001C130.7 225.501 139.7 219.001 149.1 213.001C166.3 201.901 175.6 198.101 179 200.501C185.8 205.301 236.3 263.202 238.5 265.702C238.8 266.002 238.7 266.502 238.4 266.702C238.3 267.002 238.2 267.101 238 267.001Z" fill="#D1D3D4"/>
<path d="M275.8 257.101C275.5 257.101 275.3 257.001 275.2 256.701C253.9 221.601 249.6 219.501 249 219.501C246.7 219.801 230.8 232.401 217.1 243.801C216.8 244.101 216.3 244.001 216.1 243.701C215.8 243.401 215.9 242.901 216.2 242.601C223 236.901 245.4 218.401 248.9 217.901C251.7 217.401 261 230.201 276.6 255.801C276.8 256.101 276.7 256.601 276.4 256.801C276.1 257.101 275.9 257.101 275.8 257.101Z" fill="#D1D3D4"/>
<path d="M221.001 219.999C217.401 219.999 214.601 217.099 214.601 213.599C214.601 210.099 217.501 207.199 221.001 207.199C224.601 207.199 227.401 210.099 227.401 213.599C227.401 217.099 224.601 219.999 221.001 219.999ZM221.001 208.599C218.301 208.599 216.101 210.799 216.101 213.499C216.101 216.199 218.301 218.399 221.001 218.399C223.701 218.399 225.901 216.199 225.901 213.499C226.001 210.799 223.701 208.599 221.001 208.599Z" fill="#D1D3D4"/>
<path d="M49.4994 382.797L48.3994 391.097C48.3994 391.097 71.4994 393.497 70.5994 391.497C69.6994 389.497 64.9994 383.197 64.9994 383.197" fill="#FFFDFA"/>
<path d="M65.5996 393C60.9996 393 54.1996 392.4 48.2996 391.8C48.0996 391.8 47.8996 391.7 47.7996 391.5C47.6996 391.3 47.5996 391.1 47.5996 390.9L48.6996 382.6C48.7996 382.2 49.0996 381.9 49.4996 382C49.8996 382.1 50.1996 382.4 50.0996 382.8L49.0996 390.3C57.8996 391.2 67.2996 391.7 69.4996 391.2C68.2996 388.9 64.2996 383.5 64.1996 383.5C63.9996 383.2 63.9996 382.7 64.3996 382.5C64.6996 382.3 65.1996 382.4 65.3996 382.7C65.5996 383 70.0996 389.1 71.0996 391.2C71.1996 391.5 71.1996 391.9 70.9996 392.2C70.6996 392.8 68.5996 393 65.5996 393Z" fill="#22262E"/>
<path d="M106.399 232.097C106.399 232.097 121.399 242.097 127.199 239.097C130.599 237.297 133.399 234.797 136.499 232.597C139.499 230.597 142.399 228.497 145.099 226.197C145.399 225.897 145.699 225.597 145.899 225.297C146.099 224.897 146.299 224.597 146.399 224.197C146.899 222.697 147.599 221.197 148.299 219.797C148.499 219.197 148.999 218.697 149.499 218.397C152.599 217.197 150.599 223.597 149.999 224.697C152.399 222.497 154.799 220.197 157.399 218.197C157.699 217.897 157.999 217.797 158.399 217.797C158.799 217.897 158.999 218.397 158.899 218.697C158.799 219.097 158.599 219.397 158.299 219.697L154.199 224.597C155.399 223.197 156.699 221.797 158.099 220.497C158.599 220.097 159.999 218.697 160.699 219.297C161.899 220.197 157.499 225.197 156.799 226.097C157.999 224.497 159.299 223.097 160.899 221.797C161.299 221.397 161.899 221.097 162.399 221.097C162.699 221.397 162.399 221.897 162.099 222.197L159.199 225.497C160.599 223.897 162.299 222.197 164.399 221.797C164.399 222.197 164.299 222.597 163.999 222.797C159.799 227.797 155.499 232.597 151.099 237.397C145.099 243.697 138.699 250.997 130.199 253.397C120.199 256.297 111.199 250.397 102.899 245.297" fill="#FFFDFA"/>
<path d="M124.8 255C117 255 109.9 250.6 103.5 246.6L102.5 246C102.1 245.8 102 245.4 102.2 245C102.4 244.6 102.8 244.5 103.2 244.7C103.2 244.7 103.3 244.7 103.3 244.8L104.3 245.4C112.3 250.4 120.7 255.5 130 252.8C137.8 250.5 144 243.9 149.5 238.1L150.5 237C154.8 232.5 158.9 227.8 162.4 223.7C161.4 224.4 160.5 225.3 159.8 226.2C159.5 226.5 159.1 226.5 158.7 226.3C158.4 226 158.4 225.6 158.6 225.3L160.1 223.5C159.8 223.7 159.6 224 159.3 224.3C158.5 225.3 157.7 226.2 157.2 226.8C156.9 227.1 156.5 227.1 156.2 226.9C155.9 226.6 155.9 226.2 156.1 225.9C156.7 225 157.4 224.2 158.2 223.5C159.1 222.5 159.7 221.4 160.2 220.3C159.6 220.6 159.1 221 158.7 221.4L158.6 221.5C157.6 222.4 156.7 223.3 155.9 224.3L154.9 225.5C154.6 225.8 154.2 225.8 153.9 225.6C153.6 225.3 153.5 224.9 153.8 224.5C154.1 224.1 154.5 223.7 154.9 223.3L158 219.7C158.2 219.5 158.3 219.3 158.4 219C158.3 219.1 158.2 219.1 158.2 219.2C155.5 221.3 153 223.6 150.8 225.6C150.5 225.9 150 225.9 149.7 225.6C149.5 225.4 149.4 225 149.6 224.7C150.2 223.6 151.1 220 150.5 219.4C150.5 219.3 150.3 219.4 150 219.5C149.6 219.7 149.3 220.1 149.1 220.5C148.4 221.9 147.7 223.3 147.2 224.8C147.1 225.2 146.9 225.7 146.6 226.1C146.3 226.5 146 226.8 145.6 227.1C143.1 229.3 140.4 231.3 137.7 233.1L137 233.6C135.9 234.3 134.9 235.1 133.9 235.9C131.9 237.5 129.8 238.9 127.6 240.2C121.5 243.3 106.7 233.6 106.1 233.2C105.8 233 105.7 232.5 105.9 232.2C106.1 231.9 106.6 231.8 106.9 232C111 234.7 122.5 241.2 126.9 238.9C129.1 237.7 131.1 236.3 133 234.8C134 234 135 233.2 136.1 232.5L136.8 232C139.5 230.2 142.1 228.3 144.6 226.1C144.9 225.9 145.1 225.6 145.3 225.4C145.5 225.1 145.6 224.8 145.7 224.5C146.2 222.9 146.9 221.4 147.7 219.9C148 219.1 148.6 218.5 149.3 218.2C150 217.8 150.9 217.9 151.5 218.5C152.2 219.4 152.1 221.1 151.7 222.6C153.3 221.1 155.1 219.5 157 218.1C157.4 217.7 158 217.5 158.6 217.6C159.2 217.8 159.7 218.4 159.7 219C160.2 218.8 160.7 218.9 161.1 219.2C161.4 219.4 161.6 219.8 161.6 220.2C161.6 220.5 161.6 220.8 161.5 221C161.8 220.9 162.1 220.9 162.4 220.9C162.6 220.9 162.7 221 162.9 221.1C163.1 221.3 163.3 221.6 163.3 222C163.6 221.9 164 221.8 164.3 221.7C164.7 221.6 165 221.9 165.2 222.2C165.3 222.8 165.1 223.4 164.7 223.9C160.9 228.3 156.4 233.5 151.7 238.5L150.7 239.6C145.1 245.6 138.7 252.4 130.5 254.7C128.6 254.8 126.7 255.1 124.8 255Z" fill="#22262E"/>
<path d="M101.1 270.498L115.8 384.298L100.1 383.898L80.3998 303.398L66.4998 384.098L48.7998 382.798L58.6998 265.098L101.1 270.498Z" fill="#22262E"/>
<path d="M75.4 227.498C75.8 217.998 74 198.698 74 198.698C74 198.698 86.1 199.398 90.2 193.598C95.2 197.498 96.2 208.498 95.3 211.798C93.4 218.298 85 216.898 85 216.898L86.1 228.798L75.4 227.498Z" fill="#FFFDFA"/>
<path d="M86.0992 229.498L75.3992 228.298C74.9992 228.298 74.6992 227.898 74.6992 227.498C75.0992 218.198 73.1992 198.998 73.1992 198.798C73.1992 198.598 73.2992 198.398 73.3992 198.198C73.5992 198.098 73.7992 197.998 73.9992 197.998C74.0992 197.998 85.6992 198.598 89.4992 193.198C89.5992 192.998 89.7992 192.898 89.9992 192.898C90.1992 192.898 90.3992 192.898 90.5992 193.098C95.7992 197.198 96.8992 208.598 95.9992 212.098C94.5992 217.198 89.1992 218.098 85.8992 217.798L86.8992 228.798C86.8992 228.998 86.7992 229.198 86.6992 229.398C86.3992 229.498 86.2992 229.498 86.0992 229.498ZM76.1992 226.798L85.1992 227.898L84.1992 216.898C84.1992 216.698 84.2992 216.398 84.3992 216.298C84.5992 216.098 84.7992 216.098 84.9992 216.098C85.2992 216.198 92.7992 217.298 94.3992 211.598C95.1992 208.798 94.3992 198.798 90.0992 194.698C86.1992 199.298 77.3992 199.598 74.6992 199.498C75.0992 203.198 76.4992 218.398 76.1992 226.798Z" fill="#22262E"/>
<path d="M84.9998 216.899C84.9998 216.899 81.4998 216.499 79.7998 214.699C79.7998 214.699 82.0998 220.499 85.5998 221.299L84.9998 216.899Z" fill="#22262E"/>
<path d="M85.5994 222.1C85.4994 222.1 85.4994 222.1 85.3994 222.1C81.4994 221.2 79.0994 215.3 78.9994 215C78.7994 214.6 78.9994 214.2 79.3994 214C79.6994 213.9 79.9994 214 80.1994 214.2C81.6994 215.7 84.9994 216.2 84.9994 216.2C85.2994 216.2 85.5994 216.5 85.6994 216.8L86.2994 221.3C86.2994 221.5 86.2994 221.8 86.0994 222C85.9994 222 85.7994 222.1 85.5994 222.1ZM81.5994 216.7C82.2994 218 83.3994 219.2 84.5994 220.1L84.1994 217.5C83.3994 217.3 82.4994 217.1 81.5994 216.7Z" fill="#22262E"/>
<path d="M94.0991 222.598L121.699 237.798L114.999 257.098C114.999 257.098 80.1991 238.698 79.9991 233.698C79.7991 228.698 94.0991 222.598 94.0991 222.598Z" fill="#3185FF"/>
<path d="M102.899 280.999C102.899 280.999 103.999 255.999 101.599 240.999C100.499 234.599 100.899 230.099 98.7992 226.599C91.6992 214.999 63.9992 218.499 59.8992 226.499C55.7992 234.499 52.6992 281.199 52.6992 281.199L102.899 280.999Z" fill="#3185FF"/>
<path d="M75.8998 205.499C75.5998 203.999 74.4998 202.799 72.9998 202.299C72.2998 202.099 71.5998 202.199 70.9998 202.499C70.2998 203.099 69.9998 203.999 70.0998 204.899C70.1998 206.299 70.8998 207.699 71.8998 208.699C72.9998 209.699 74.3998 210.199 75.7998 210.199" fill="#FFFDFA"/>
<path d="M75.6996 210.998C74.0996 210.998 72.5996 210.398 71.3996 209.298C70.1996 208.198 69.3996 206.598 69.2996 204.998C69.0996 203.798 69.5996 202.598 70.4996 201.898C71.2996 201.398 72.1996 201.298 73.0996 201.598C74.8996 202.098 76.1996 203.498 76.5996 205.398C76.6996 205.798 76.3996 206.198 75.9996 206.298C75.5996 206.398 75.1996 206.098 75.0996 205.698C74.7996 204.498 73.8996 203.498 72.6996 203.098C72.1996 202.898 71.6996 202.998 71.2996 203.198C70.7996 203.698 70.5996 204.298 70.6996 204.998C70.7996 206.198 71.3996 207.398 72.2996 208.298C73.1996 209.098 74.3996 209.598 75.6996 209.598C76.0996 209.598 76.3996 209.898 76.4996 210.298C76.5996 210.598 76.1996 210.898 75.6996 210.998Z" fill="#22262E"/>
<path d="M90.8375 200.843C91.1538 200.745 91.2636 200.194 91.0826 199.614C90.9016 199.035 90.4985 198.644 90.1821 198.743C89.8658 198.842 89.7561 199.392 89.9371 199.972C90.118 200.552 90.5212 200.942 90.8375 200.843Z" fill="#22262E"/>
<path d="M100.1 383.898C100.1 383.898 99.7 390.798 100.5 391.898C101.3 392.998 123.5 394.398 122.4 391.698C121.3 388.998 114.5 383.398 114.5 383.398" fill="#FFFDFA"/>
<path d="M113.7 393.898C107.7 393.898 100.8 393.298 99.9996 392.298C98.9996 391.098 99.1996 385.998 99.3996 383.798C99.3996 383.398 99.7996 383.098 100.2 383.098C100.6 383.098 100.9 383.498 100.9 383.898C100.7 386.898 100.8 390.498 101.1 391.298C101.9 391.598 106 392.198 111.5 392.398C117.8 392.598 120.9 392.198 121.7 391.798C120.6 389.698 115.9 385.498 114.1 383.998C113.8 383.698 113.7 383.298 114 382.898C114.3 382.598 114.7 382.498 115.1 382.798C115.8 383.398 122.1 388.598 123.3 391.398C123.6 391.998 123.3 392.698 122.6 392.998C121.4 393.698 117.7 393.898 113.7 393.898Z" fill="#22262E"/>
<path d="M93.1994 200.098C93.1994 200.098 98.0994 205.598 96.8994 206.798C95.6994 207.998 92.8994 207.398 92.8994 207.398" fill="#FFFDFA"/>
<path d="M94.3995 208.3C93.7995 208.3 93.2995 208.2 92.6995 208.1C92.2995 208 91.9995 207.6 92.0995 207.2C92.1995 206.8 92.5995 206.5 92.9995 206.6C93.5995 206.7 95.5995 206.9 96.2995 206.2C96.4995 205.6 94.6995 202.9 92.5995 200.5C92.2995 200.2 92.3995 199.7 92.6995 199.4C92.9995 199.1 93.4995 199.2 93.7995 199.5C98.1995 204.5 98.1995 206.5 97.3995 207.3C96.4995 208 95.3995 208.4 94.3995 208.3Z" fill="#22262E"/>
<path d="M114.5 256.899C114.3 256.799 94.9 245.999 88 242.199Z" fill="#22262E"/>
<path d="M114.499 257.6C114.399 257.6 114.199 257.6 114.099 257.5C113.699 257.2 94.5992 246.7 87.5992 242.9C87.1992 242.7 87.0992 242.3 87.2992 241.9C87.4992 241.5 87.8992 241.4 88.2992 241.6C95.1992 245.4 114.699 256.1 114.899 256.3C115.299 256.5 115.399 257 115.199 257.3C114.999 257.5 114.799 257.6 114.499 257.6Z" fill="#22262E"/>
<path d="M85.7998 209C86.3998 210.5 87.7998 211.5 89.3998 211.6C90.9998 211.7 92.4998 211.1 93.5998 209.9" fill="#FFFDFA"/>
<path d="M89.7999 212.3C89.5999 212.3 89.4999 212.3 89.2999 212.3C87.3999 212.2 85.7999 211 85.0999 209.2C84.8999 208.8 85.0999 208.4 85.4999 208.2C85.8999 208 86.2999 208.2 86.4999 208.6C86.9999 209.8 88.1999 210.6 89.3999 210.7C90.6999 210.8 91.9999 210.2 92.8999 209.2C93.1999 208.9 93.6999 208.9 93.9999 209.2C94.2999 209.5 94.2999 210 93.9999 210.3C92.8999 211.6 91.3999 212.3 89.7999 212.3Z" fill="#22262E"/>
<path d="M70.5993 216.898C67.7993 216.898 65.0993 216.198 62.5993 214.998C61.2993 214.398 60.1993 213.398 59.3993 212.198C59.0993 211.698 58.8993 211.098 58.8993 210.398C57.9993 210.398 56.9993 210.198 56.1993 209.698C54.6993 208.898 53.3993 207.698 52.3993 206.298C51.4993 205.298 51.4993 203.798 52.4993 202.898L53.3993 201.898C54.9993 200.298 56.3993 198.498 57.5993 196.598C58.2993 195.198 58.8993 193.698 59.2993 192.198C59.6993 191.098 60.0993 189.798 60.5993 188.598C64.3993 180.098 71.2993 178.698 77.5993 178.498C81.4993 178.398 86.4993 179.498 89.0993 183.098C89.9993 182.798 90.9993 182.798 91.8993 183.198C92.9993 183.798 93.8993 184.798 94.3993 185.998C96.6993 190.198 97.7993 194.898 97.3993 199.698C97.2993 200.098 96.8993 200.398 96.4993 200.298C96.0993 200.198 95.8993 199.898 95.8993 199.598C96.1993 195.098 95.2993 190.698 93.0993 186.698C92.6993 185.798 91.9993 185.098 91.1993 184.598C90.6993 184.398 90.0993 184.298 89.5993 184.498C89.4993 184.498 89.3993 184.598 89.2993 184.698C89.0993 184.798 88.8993 184.898 88.6993 184.798C88.4993 184.798 88.2993 184.598 88.1993 184.398C86.0993 180.898 81.1993 179.798 77.6993 179.898C71.8993 180.098 65.4993 181.398 62.0993 189.098C61.5993 190.198 61.1993 191.398 60.7993 192.498C60.2993 194.098 59.6993 195.598 58.9993 197.098C57.7993 199.198 56.2993 201.098 54.5993 202.698L53.6993 203.698C53.4993 203.898 53.2993 204.198 53.2993 204.498C53.2993 204.798 53.4993 205.098 53.6993 205.298C54.4993 206.498 55.5993 207.598 56.8993 208.298C57.6993 208.698 58.6993 208.898 59.5993 208.798C59.7993 208.798 60.0993 208.798 60.2993 208.998C60.4993 209.198 60.4993 209.398 60.4993 209.598C60.3993 210.198 60.4993 210.798 60.7993 211.298C61.3993 212.298 62.2993 212.998 63.3993 213.498C65.8993 214.798 68.7993 215.398 71.5993 215.198C71.9993 215.198 72.3993 215.498 72.3993 215.898C72.3993 216.298 72.0993 216.698 71.6993 216.698L70.5993 216.898Z" fill="#22262E"/>
<path d="M80.2995 302.798C80.0995 302.798 79.8995 302.698 79.6995 302.598C75.1995 297.798 74.0995 290.598 74.0995 290.298C73.9995 289.898 74.2995 289.498 74.6995 289.398C75.0995 289.298 75.4995 289.598 75.4995 289.998C75.4995 290.098 76.4995 297.098 80.6995 301.498C80.9995 301.798 80.9995 302.298 80.6995 302.598C80.6995 302.698 80.4995 302.798 80.2995 302.798Z" fill="#FFFDFA"/>
<path d="M225.2 229H454.2C464.2 229 469.4 235.9 466 244.4L414.5 371.8C411 380.3 400.2 387.3 390.2 387.3H161.2C151.2 387.3 146 380.4 149.4 371.8L200.9 244.4C204.3 235.9 215.2 229 225.2 229Z" fill="#FFFDFA"/>
<path d="M390.2 388.101H161.2C155.9 388.101 151.6 386.201 149.3 382.801C147.2 379.701 147 375.801 148.7 371.601L200.2 244.201C203.8 235.401 215 228.301 225.2 228.301H454.2C459.5 228.301 463.8 230.201 466.1 233.601C468.2 236.701 468.4 240.701 466.7 244.801L415.2 372.201C411.6 380.901 400.4 388.101 390.2 388.101ZM225.2 229.801C215.5 229.801 205 236.501 201.6 244.801L150.1 372.201C148.6 375.801 148.8 379.301 150.6 382.001C152.6 384.901 156.5 386.601 161.2 386.601H390.2C399.9 386.601 410.4 379.901 413.8 371.601L465.3 244.201C466.8 240.501 466.6 237.101 464.8 234.401C462.8 231.501 458.9 229.801 454.2 229.801H225.2Z" fill="#22262E"/>
<path d="M427.7 271.899H349.3C347.4 271.999 345.6 271.099 344.4 269.499C343.3 267.599 343.2 265.299 344.2 263.399L346.9 256.999C348.6 252.999 353.3 249.699 357.4 249.699H435.8C437.7 249.599 439.5 250.499 440.7 252.099C441.8 253.999 441.9 256.299 440.9 258.199L438.2 264.699C436.5 268.599 431.8 271.899 427.7 271.899ZM357.3 251.199C353.8 251.199 349.7 254.099 348.2 257.599L345.5 263.999C344.7 265.499 344.8 267.199 345.6 268.699C346.4 269.799 347.8 270.499 349.2 270.399H427.6C431.1 270.399 435.2 267.499 436.7 263.999L439.4 257.599C440.2 256.099 440.1 254.399 439.3 252.899C438.5 251.799 437.1 251.099 435.7 251.199H357.3Z" fill="#D1D3D4"/>
</svg>
