<svg width="659" height="524" viewBox="0 0 659 524" fill="none" xmlns="http://www.w3.org/2000/svg">
<g clip-path="url(#clip0_1311_8746)">
<path d="M549.993 303.958L518.876 291.004L560.553 190.754C564.636 181.039 582.095 165.974 588.15 168.367C594.204 170.761 595.753 193.993 591.81 203.708L549.993 303.958Z" fill="#FFFDFA"/>
<path d="M549.992 304.943C549.851 304.943 549.711 304.943 549.57 304.943L518.453 291.989C518.171 291.848 518.031 291.708 517.89 291.426C517.749 291.144 517.749 290.863 517.89 290.722L559.567 190.472C563.509 181.18 581.391 164.706 588.431 167.663C595.471 170.62 596.456 194.978 592.514 204.271L550.837 304.52C550.837 304.802 550.415 304.943 549.992 304.943ZM520.143 290.44L549.429 302.69L590.824 203.285C594.907 193.711 592.795 171.464 587.727 169.352C582.658 167.24 565.48 181.461 561.397 191.176L520.143 290.44Z" fill="#22262E"/>
<path d="M523.345 289.391L521.302 294.336L544.077 303.743L546.119 298.798L523.345 289.391Z" fill="#FFFDFA"/>
<path d="M544.22 308.462C544.079 308.462 543.938 308.462 543.798 308.462L520.988 298.747C520.425 298.606 520.284 298.043 520.425 297.48L522.537 292.552C522.678 292.27 522.818 292.129 523.1 291.988C523.382 291.848 523.663 291.848 523.804 291.988L546.754 301.563C547.318 301.704 547.458 302.267 547.318 302.83L545.206 307.758C545.065 308.04 544.924 308.18 544.642 308.321C544.502 308.462 544.361 308.462 544.22 308.462ZM522.678 297.48L543.798 306.209L545.065 303.112L523.945 294.382L522.678 297.48Z" fill="#22262E"/>
<path d="M555.214 203.85L527.74 269.891L558.94 282.87L586.414 216.83L555.214 203.85Z" fill="#D1D3D4"/>
<path d="M558.863 283.823C558.722 283.823 558.582 283.823 558.441 283.683L527.324 270.729C527.042 270.588 526.902 270.447 526.761 270.166C526.62 269.884 526.62 269.603 526.761 269.462L554.217 203.427C554.358 203.145 554.498 203.004 554.78 202.863C555.062 202.723 555.343 202.723 555.484 202.863L586.601 215.817C587.164 216.099 587.305 216.662 587.164 217.084L559.708 283.119C559.567 283.683 559.286 283.823 558.863 283.823ZM529.014 269.321L558.3 281.571L585.052 217.366L555.766 205.116L529.014 269.321Z" fill="#22262E"/>
<path d="M506.062 287.343H520.424L526.619 272.418L509.582 278.895L506.062 287.343Z" fill="#FFFDFA"/>
<path d="M506.062 288.33C505.781 288.33 505.358 288.189 505.218 287.908C505.077 287.626 504.936 287.344 505.077 287.063L508.597 278.615C508.738 278.333 508.878 278.192 509.16 278.052L526.197 271.575C526.619 271.434 527.042 271.575 527.323 271.856C527.605 272.138 527.605 272.56 527.464 272.983L521.269 287.908C521.128 288.33 520.706 288.471 520.424 288.471L506.062 288.33ZM510.286 279.741L507.47 286.359H519.72L524.789 274.25L510.286 279.741Z" fill="#22262E"/>
<path d="M561.678 310.574L551.682 300.296L557.877 285.371L565.198 302.126L561.678 310.574Z" fill="#FFFDFA"/>
<path d="M561.679 311.561C561.397 311.561 561.116 311.42 560.975 311.28L550.837 301.001C550.556 300.72 550.415 300.297 550.696 299.875L556.892 284.95C557.032 284.528 557.455 284.387 557.736 284.387C558.159 284.387 558.44 284.668 558.581 284.95L566.044 301.705C566.184 301.987 566.184 302.268 566.044 302.409L562.524 310.857C562.383 311.139 562.101 311.42 561.82 311.42L561.679 311.561ZM552.808 300.016L561.397 308.745L564.213 302.128L557.877 287.907L552.808 300.016Z" fill="#22262E"/>
<path d="M243.189 80.6484L431.58 86.2804L568.437 215.957L543.516 275.938L218.268 140.629L243.189 80.6484Z" fill="#FFFDFA"/>
<path d="M543.516 276.925C543.375 276.925 543.234 276.925 543.093 276.784L217.986 141.475C217.705 141.334 217.564 141.193 217.423 140.912C217.282 140.63 217.282 140.349 217.423 140.208L242.345 80.3679C242.485 79.9455 242.908 79.8047 243.33 79.8047L431.721 85.4367C432.002 85.4367 432.143 85.5775 432.425 85.7183L569.141 215.395C569.423 215.677 569.564 216.099 569.423 216.521L544.501 276.502C544.361 276.784 544.22 276.925 543.938 277.066C543.797 276.925 543.657 276.925 543.516 276.925ZM219.676 140.067L542.953 274.672L567.17 216.24L431.157 87.2671L243.753 81.6351L219.676 140.067Z" fill="#22262E"/>
<path d="M396.661 64.8791L471.426 95.9959C484.38 101.346 490.434 116.271 485.084 129.225L448.053 218.069C442.703 231.023 427.778 237.077 414.825 231.727L340.06 200.61C327.106 195.26 321.052 180.335 326.402 167.381L363.433 78.5367C368.924 65.7239 383.849 59.5287 396.661 64.8791Z" fill="#D1D3D4"/>
<path d="M419.189 231.587C414.402 231.587 409.615 230.601 405.109 228.771L349.212 205.398C330.626 197.654 321.756 176.253 329.5 157.667L358.645 87.5486C366.389 68.963 387.65 60.0926 406.236 67.8366C406.236 67.8366 406.236 67.8366 406.377 67.8366L462.415 91.0686C481.001 98.8126 489.871 120.214 482.127 138.8L452.981 208.918C447.209 222.576 433.973 231.446 419.189 231.587ZM392.437 67.1326C378.498 67.1326 365.967 75.5806 360.617 88.3934L331.471 158.512C324.149 176.112 332.457 196.387 350.057 203.709L406.095 226.941C423.695 234.262 443.97 225.955 451.292 208.355L480.437 138.237C487.759 120.637 479.452 100.361 461.711 93.0398L405.673 69.8078C401.449 67.9774 396.943 67.1326 392.437 67.1326Z" fill="#22262E"/>
<path d="M223.618 168.225L192.501 155.271L234.178 55.0215C238.261 45.3063 255.72 30.2407 261.775 32.7751C267.829 35.3095 269.378 58.4007 265.435 68.1159L223.618 168.225Z" fill="#FFFDFA"/>
<path d="M223.618 169.211C223.477 169.211 223.337 169.211 223.196 169.071L192.079 156.117C191.797 155.976 191.657 155.835 191.516 155.554C191.375 155.272 191.375 154.991 191.516 154.85L233.193 54.6003C235.164 49.9539 240.373 43.6179 246.428 38.5491C249.666 35.8739 257.551 29.9603 261.916 31.7907C266.281 33.6211 267.689 43.4771 268.111 47.5603C268.815 55.5859 267.97 63.6115 266.14 68.3987L224.463 168.648C224.322 168.93 224.041 169.211 223.618 169.211ZM193.769 154.709L223.055 166.959L264.45 67.5539C266.281 63.1891 266.985 55.3043 266.421 47.7011C265.858 40.0979 263.746 34.6067 261.493 33.6211C259.241 32.6355 253.89 35.1699 247.977 40.0979C242.063 45.0259 236.994 51.0803 235.164 55.4451L193.769 154.709Z" fill="#22262E"/>
<path d="M196.99 157.126L194.935 162.066L217.815 171.585L219.87 166.645L196.99 157.126Z" fill="#FFFDFA"/>
<path d="M217.845 172.591C217.704 172.591 217.564 172.591 217.423 172.45L194.472 162.876C193.909 162.735 193.768 162.031 193.909 161.609L196.021 156.681C196.162 156.399 196.303 156.258 196.584 156.117C196.866 155.977 197.148 155.977 197.288 156.117L220.239 165.692C220.52 165.833 220.661 165.973 220.802 166.255C220.943 166.537 220.943 166.818 220.802 166.959L218.69 171.887C218.549 172.169 218.408 172.309 218.127 172.45C218.127 172.591 217.986 172.591 217.845 172.591ZM196.303 161.609L217.423 170.338L218.69 167.241L197.57 158.511L196.303 161.609Z" fill="#22262E"/>
<path d="M228.776 68.0222L201.303 134.062L232.503 147.042L259.976 81.0017L228.776 68.0222Z" fill="#D1D3D4"/>
<path d="M232.488 148.093C232.347 148.093 232.207 148.093 232.066 147.952L200.949 134.999C200.667 134.858 200.527 134.717 200.386 134.435C200.245 134.154 200.245 133.872 200.386 133.731L227.842 67.6961C227.983 67.4145 228.123 67.2737 228.405 67.1329C228.687 66.9921 228.968 66.9921 229.109 67.1329L260.226 80.0865C260.789 80.2273 260.93 80.9313 260.789 81.3537L233.333 147.389C233.192 147.811 232.911 148.093 232.488 148.093ZM202.639 133.591L231.925 145.84L258.677 81.6353L229.391 69.3857L202.639 133.591Z" fill="#22262E"/>
<path d="M179.688 151.612L194.05 151.472L200.245 136.547L183.208 143.164L179.688 151.612Z" fill="#FFFDFA"/>
<path d="M179.688 152.455C179.407 152.455 178.984 152.314 178.844 152.033C178.703 151.751 178.562 151.47 178.703 151.047L182.223 142.599C182.364 142.318 182.504 142.177 182.786 142.036L199.964 135.559C200.386 135.418 200.808 135.559 201.09 135.841C201.372 136.122 201.512 136.545 201.231 136.967L195.036 151.892C194.895 152.314 194.472 152.455 194.191 152.455H179.688ZM183.912 143.866L181.096 150.484H193.346L198.415 138.375L183.912 143.866Z" fill="#22262E"/>
<path d="M235.305 174.703L225.167 164.425L231.503 149.5L238.825 166.255L235.305 174.703Z" fill="#FFFDFA"/>
<path d="M235.305 175.69C235.023 175.69 234.742 175.549 234.601 175.408L224.463 165.13C224.182 164.848 224.041 164.426 224.322 164.004L230.518 149.079C230.658 148.656 231.081 148.516 231.362 148.516C231.785 148.516 232.066 148.797 232.207 149.079L239.529 165.834C239.67 166.116 239.67 166.397 239.529 166.679L236.009 175.127C235.868 175.408 235.586 175.69 235.305 175.69ZM226.434 164.144L235.023 172.874L237.839 166.256L231.503 152.036L226.434 164.144Z" fill="#22262E"/>
<path d="M347.1 95.9955L263.887 92.1938C263.324 92.1938 262.901 91.7715 262.901 91.2083C262.901 90.6451 263.324 90.2227 263.887 90.2227L347.1 94.0243C347.663 94.0243 348.085 94.4466 348.085 95.0098C348.226 95.573 347.804 95.9955 347.1 95.9955Z" fill="#D1D3D4"/>
<path d="M557.314 218.631C557.032 218.631 556.75 218.49 556.61 218.349L485.928 152.737C485.506 152.314 485.506 151.751 485.928 151.329C486.351 150.906 486.914 150.906 487.336 151.329L558.018 217.082C558.44 217.505 558.44 218.068 558.018 218.49C557.877 218.49 557.595 218.631 557.314 218.631Z" fill="#D1D3D4"/>
<path d="M345.269 402.375L326.824 417.722C326.824 417.722 365.826 486.996 371.458 476.717C374.133 471.789 367.938 437.293 367.938 437.293" fill="#FFFDFA"/>
<path d="M369.768 478.692C360.194 478.692 329.5 424.343 325.98 418.148C325.698 417.725 325.839 417.162 326.261 416.88L344.565 401.533C344.988 401.252 345.692 401.392 345.973 401.815C346.255 402.237 346.114 402.66 345.832 403.082L328.092 417.866C341.045 440.957 363.573 476.58 369.768 476.58C369.909 476.58 370.332 476.58 370.472 476.016C372.303 472.637 369.346 450.954 366.812 437.296C366.671 436.733 366.952 436.17 367.516 436.029C368.079 435.888 368.642 436.17 368.783 436.733V436.874C369.487 440.394 375.119 471.792 372.303 476.861C371.88 477.988 370.895 478.692 369.768 478.692Z" fill="#22262E"/>
<path d="M472.411 137.953C472.411 137.953 581.391 227.502 536.053 234.12C498.178 239.611 463.823 219.476 463.823 219.476L474.523 195.681C474.523 195.681 509.442 211.873 508.175 204.692C506.907 197.512 459.599 169.211 459.599 169.211L472.411 137.953Z" fill="#3185FF"/>
<path d="M375.259 101.91C375.259 101.91 265.576 89.8012 262.619 106.556C259.663 123.312 306.971 160.342 308.239 157.948C309.506 155.555 334.568 140.912 334.568 140.912L312.603 123.452L365.122 135.28L375.259 101.91Z" fill="#3185FF"/>
<path d="M469.174 77.8323C472.271 71.9187 470.159 64.4563 466.498 58.8243C457.205 44.4627 440.591 36.5779 423.554 38.5491C415.951 39.5347 408.066 42.9139 404.124 49.5315C408.348 48.6867 412.572 48.5459 416.796 49.1091C407.362 53.1924 400.181 61.0771 396.943 70.7923C396.521 71.7779 396.521 72.9043 396.802 73.8899C397.506 75.5795 400.041 75.5796 401.73 75.1572C403.42 74.7348 405.532 73.8899 407.222 74.7347C401.871 76.8467 397.506 81.0708 395.254 86.4212C394.127 88.674 393.705 91.3492 394.268 93.8836C394.831 95.714 395.817 97.2627 397.225 98.5299C400.463 101.628 404.828 103.176 409.193 104.584C416.937 107.119 424.962 109.231 432.988 108.245C442.703 106.978 450.588 101.205 457.628 94.8692C460.866 91.9124 463.964 91.9123 467.484 89.6595C469.596 88.2515 470.863 86.1396 471.145 83.6052C470.722 81.634 470.018 79.6627 469.174 77.8323Z" fill="#FFFDFA"/>
<path d="M428.905 109.372C422.005 109.372 415.388 107.401 409.052 105.43C404.546 103.881 400.04 102.332 396.802 99.2345C395.253 97.8265 394.127 96.1369 393.564 94.1657C393 91.3497 393.282 88.5337 394.549 85.9993C396.38 81.7753 399.336 78.2553 403.279 75.8617L402.997 76.0025L402.293 76.1433C400.181 76.7065 397.224 76.7065 396.098 74.4537C395.676 73.1865 395.676 71.9193 396.239 70.6521C399.196 61.9225 405.25 54.4601 413.276 49.9545C410.319 49.8137 407.362 50.0953 404.546 50.6585C404.124 50.7993 403.842 50.5177 403.561 50.2361C403.42 49.9545 403.42 49.5321 403.561 49.1097C407.221 43.0553 414.543 38.8313 423.695 37.5641C441.013 35.4521 458.05 43.6185 467.625 58.2617C469.737 61.6409 474.242 70.2297 470.441 77.8329C471.285 79.6633 471.848 81.6345 472.271 83.6057C471.989 86.4217 470.44 88.8153 468.188 90.3641C466.78 91.2089 465.372 91.9129 463.823 92.4761C461.852 93.1801 460.021 94.1657 458.473 95.4329C452.277 101.065 443.689 107.683 433.269 108.95C431.721 109.231 430.313 109.372 428.905 109.372ZM405.673 73.3273C406.377 73.3273 407.221 73.4681 407.785 73.8905C408.207 74.1721 408.488 74.7353 408.207 75.1577C408.066 75.2985 407.925 75.5801 407.644 75.5801C402.575 77.6921 398.351 81.6345 396.239 86.7033C395.112 88.8153 394.831 91.2089 395.394 93.6025C395.957 95.1513 396.802 96.7001 398.069 97.6857C401.026 100.643 405.25 102.05 409.615 103.458C417.077 105.852 424.962 108.105 432.847 107.119C442.703 105.852 450.588 99.7977 456.924 94.0249C458.613 92.4761 460.725 91.3497 462.837 90.6457C464.245 90.0825 465.512 89.5193 466.78 88.8153C468.61 87.6889 469.736 85.7177 470.018 83.6057C469.596 81.7753 468.892 80.0857 468.188 78.3961C468.047 78.1145 468.047 77.6921 468.188 77.4105C471.848 70.6521 467.625 62.4857 465.653 59.3881C456.501 45.4489 440.309 37.7049 423.695 39.5353C416.092 40.5209 409.896 43.6185 406.236 48.2649C409.756 47.8425 413.276 47.7017 416.796 48.1241C417.218 48.1241 417.641 48.5465 417.641 48.9689C417.641 49.3913 417.5 49.8137 417.077 49.9545C407.925 53.8969 400.885 61.5001 397.788 70.9337C397.506 71.6377 397.365 72.4825 397.647 73.3273C398.21 74.4537 400.041 74.4537 401.449 74.0313L402.153 73.8905C403.42 73.6089 404.546 73.3273 405.673 73.3273Z" fill="#22262E"/>
<path d="M404.124 250.171C404.124 250.171 439.746 329.019 433.692 344.507C427.637 359.995 367.797 437.294 367.797 437.294L335.976 410.401C335.976 410.401 391.874 336.622 389.621 331.553C387.368 326.485 359.631 273.121 359.631 273.121L209.116 437.153L193.909 397.729L315.983 222.574L404.124 250.171Z" fill="#22262E"/>
<path d="M367.798 438.279C367.516 438.279 367.375 438.139 367.094 437.998L335.273 411.105C334.851 410.823 334.71 410.119 335.132 409.697C356.252 381.959 389.34 336.199 388.636 331.694C386.524 327.188 363.574 282.555 359.35 274.529L209.961 437.716C209.679 437.998 209.398 438.139 209.116 437.998C208.835 437.998 208.553 437.716 208.412 437.435L193.206 398.011C193.065 397.729 193.065 397.307 193.347 397.166L315.42 222.011C315.702 221.729 316.124 221.447 316.547 221.588L404.687 249.185C404.969 249.326 405.11 249.467 405.251 249.748C406.659 252.987 441.014 329.159 434.819 344.788C428.764 360.276 371.177 434.759 368.783 437.857C368.361 437.998 368.22 438.139 367.798 438.279ZM337.385 410.119L367.657 435.745C374.134 427.438 427.215 358.305 432.847 343.943C438.479 329.582 406.236 256.929 403.42 250.875L316.406 223.7L195.036 397.729L209.398 435.041L358.927 272.135C359.209 271.854 359.491 271.854 359.772 271.854C360.054 271.854 360.335 272.135 360.476 272.417C361.603 274.529 388.214 325.921 390.467 330.99C392.719 336.059 351.183 391.956 337.385 410.119Z" fill="#22262E"/>
<path d="M404.124 250.172L315.983 222.576L398.633 114.582C398.633 114.582 439.747 134.435 444.815 142.46C449.884 150.486 404.124 250.172 404.124 250.172Z" fill="#FFFDFA"/>
<path d="M404.124 251.157C403.983 251.157 403.983 251.157 403.843 251.157L315.702 223.56C315.42 223.419 315.139 223.279 314.998 222.997C314.857 222.715 314.998 222.293 315.139 222.152L397.788 114.159C398.07 113.736 398.633 113.595 399.055 113.877C400.745 114.722 440.591 134.011 445.66 142.037C450.729 150.063 409.756 240.456 405.11 250.735C404.828 250.875 404.547 251.157 404.124 251.157ZM317.673 222.011L403.702 248.904C421.302 210.466 447.491 148.373 444.111 142.882C439.606 135.842 404.547 118.383 399.055 115.707L317.673 222.011Z" fill="#22262E"/>
<path d="M420.879 113.597C419.33 113.456 411.164 131.76 410.46 133.309C402.575 147.952 395.254 163.299 386.946 177.52C370.614 205.821 334.991 222.858 307.394 237.501C303.734 239.472 299.65 241.443 295.567 240.739C292.61 239.894 290.076 238.346 287.964 236.234C278.53 227.786 270.927 217.507 265.718 205.962C264.873 204.413 264.45 202.864 264.591 201.174C265.014 198.358 267.126 196.106 269.942 195.402C284.585 192.867 306.127 191.178 317.954 183.574C337.666 171.043 360.335 134.154 375.401 101.77C393.564 106.275 409.474 110.922 420.879 113.597Z" fill="#3185FF"/>
<path d="M472.412 137.955C472.834 138.236 454.671 181.744 453.826 183.856C447.068 199.766 423.273 228.912 409.052 238.064C418.204 221.731 420.879 195.964 421.583 177.52C421.865 168.508 429.327 152.88 432.706 144.572C432.988 143.728 435.945 117.961 435.522 117.68C435.381 117.68 461.007 128.803 472.412 137.955Z" fill="#3185FF"/>
<path d="M441.155 119.934L436.086 137.393C436.086 137.393 431.439 144.715 420.598 138.52C409.756 132.324 410.319 123.876 410.319 123.876L421.02 91.7739C421.02 91.7739 429.75 88.8171 432.566 69.3867C432.566 69.3867 448.899 80.0875 466.921 82.7627C466.921 82.7627 461.148 104.024 457.206 112.612C453.263 121.201 441.155 119.934 441.155 119.934Z" fill="#FFFDFA"/>
<path d="M428.623 141.896C425.666 141.755 422.709 140.91 420.175 139.361C408.911 133.025 409.333 124.155 409.333 123.873C409.333 123.733 409.333 123.733 409.333 123.592L420.034 91.4894C420.175 91.2078 420.316 90.9262 420.597 90.9262C420.597 90.9262 428.763 87.8286 431.439 69.3838C431.439 69.1022 431.72 68.8206 432.002 68.6798C432.283 68.539 432.706 68.539 432.987 68.6798C433.128 68.8206 449.461 79.2398 466.92 81.915C467.202 81.915 467.484 82.0558 467.624 82.3374C467.765 82.619 467.765 82.9006 467.765 83.1822C467.484 84.027 461.992 104.584 457.909 113.173C454.248 121.057 444.674 121.198 441.717 121.057L436.789 137.672C436.789 137.813 436.789 137.813 436.648 137.953C434.959 140.488 431.861 142.037 428.623 141.896ZM411.304 124.014C411.304 125 411.445 132.181 421.16 137.531C430.453 142.741 434.536 137.672 435.24 136.827L440.309 119.649C440.45 119.227 440.872 118.945 441.435 118.945C441.576 118.945 452.84 120.072 456.36 112.187C459.74 104.865 464.527 87.9694 465.794 83.4638C451.151 80.9294 437.634 73.3262 433.41 70.9326C430.735 87.1246 423.836 91.4894 422.005 92.3342L411.304 124.014Z" fill="#22262E"/>
<path d="M426.792 92.4762C426.792 90.7866 426.37 89.097 425.384 87.689C424.399 86.4218 423.272 85.2954 421.864 84.4506C421.16 83.8874 420.456 83.465 419.612 83.3242C419.048 83.3242 418.344 83.3242 417.781 83.465C416.373 83.7466 415.106 84.4506 414.12 85.577C413.557 86.5626 413.135 87.689 412.994 88.8154C412.712 90.0826 412.712 91.3498 412.853 92.617C413.557 97.8266 418.344 101.628 423.554 100.924H423.695" fill="#FFFDFA"/>
<path d="M422.428 102.052C417.077 102.052 412.572 98.1093 411.868 92.7589C411.727 91.3509 411.727 90.0837 412.009 88.6757C412.149 87.4085 412.572 86.0005 413.276 84.8741C414.402 83.6069 415.81 82.6213 417.5 82.3397C418.204 82.1989 418.908 82.0581 419.753 82.1989C420.738 82.4805 421.724 82.9029 422.569 83.4661C423.977 84.4517 425.244 85.5781 426.229 86.8453C427.356 88.3941 427.919 90.3653 427.778 92.1957C427.778 92.7589 427.356 93.1814 426.793 93.1814C426.229 93.1814 425.807 92.7589 425.807 92.1957C425.807 90.6469 425.385 89.2389 424.54 87.9717C423.695 86.8453 422.569 85.8597 421.301 85.0149C420.738 84.5925 420.034 84.1701 419.33 84.0293C418.908 84.0293 418.345 84.0293 417.922 84.1701C416.655 84.3109 415.669 85.0149 414.825 85.8597C414.261 86.7045 413.98 87.6901 413.98 88.6757C413.839 89.8021 413.698 91.0693 413.839 92.1957C414.402 96.8421 418.767 100.221 423.413 99.6581H423.554C424.117 99.5173 424.54 99.9397 424.681 100.503C424.821 101.066 424.399 101.489 423.836 101.629C423.554 102.052 422.991 102.052 422.428 102.052Z" fill="#22262E"/>
<path d="M448.617 90.9258C448.617 90.9258 452.559 101.627 450.729 102.894C448.898 104.161 445.097 102.049 445.097 102.049" fill="#FFFDFA"/>
<path d="M449.039 104.304C447.49 104.163 445.8 103.741 444.392 103.037C443.829 102.756 443.688 102.192 443.829 101.77C444.111 101.207 444.674 101.066 445.096 101.207C445.096 101.207 445.237 101.207 445.237 101.347C446.364 101.911 448.898 102.896 449.883 102.192C450.447 101.488 449.32 96.4195 447.49 91.3507C447.349 90.7875 447.631 90.2243 448.053 90.0835C448.616 89.9427 449.179 90.2243 449.32 90.6467C451.291 95.8563 452.981 102.333 451.01 103.741C450.587 104.164 449.743 104.304 449.039 104.304Z" fill="#22262E"/>
<path d="M441.154 119.934C441.154 119.934 432.143 117.118 428.764 113.316C428.764 113.316 428.904 124.721 437.916 130.353L441.154 119.934Z" fill="#22262E"/>
<path d="M437.916 131.337C437.775 131.337 437.494 131.337 437.353 131.196C428.06 125.282 427.778 113.877 427.778 113.314C427.778 112.892 428.06 112.469 428.342 112.329C428.764 112.188 429.186 112.329 429.468 112.61C432.566 116.13 441.295 118.946 441.436 118.946C441.999 119.087 442.281 119.65 442.14 120.213L438.902 130.633C438.761 130.914 438.62 131.196 438.338 131.196C438.198 131.337 438.057 131.337 437.916 131.337ZM430.031 115.708C430.735 120.777 433.41 125.423 437.353 128.661L439.887 120.495C436.508 119.369 433.129 117.82 430.031 115.708Z" fill="#22262E"/>
<path d="M437.493 83.7449C437.493 83.7449 442.14 80.3657 444.392 86.4201Z" fill="#FFFDFA"/>
<path d="M444.392 87.4072C443.97 87.4072 443.547 87.1256 443.547 86.7032C443.266 85.436 442.421 84.4504 441.295 83.8872C440.168 83.7464 439.183 83.8872 438.197 84.4504C437.775 84.732 437.071 84.5912 436.789 84.1688C436.507 83.7464 436.648 83.1832 437.071 82.9016C438.479 81.916 440.168 81.6344 441.858 81.916C443.688 82.62 444.955 84.1688 445.378 85.9992C445.519 86.5624 445.237 87.1256 444.815 87.2664C444.533 87.4072 444.533 87.4072 444.392 87.4072Z" fill="#22262E"/>
<path d="M452.981 91.2096C452.981 91.2096 457.205 86.1407 459.881 92.1951Z" fill="#FFFDFA"/>
<path d="M459.88 93.1815C459.458 93.1815 459.176 92.8999 459.036 92.6183C458.613 91.6327 457.909 90.3655 456.924 90.2247C455.938 90.0839 454.389 91.3511 453.967 91.9143C453.685 92.3367 452.981 92.3367 452.559 92.0551C452.136 91.6327 452.136 91.0695 452.418 90.6471C452.7 90.3655 454.671 87.9719 457.205 88.2535C458.754 88.5351 460.021 89.6615 460.866 91.7735C461.007 92.3367 460.866 92.8999 460.303 93.0407C460.162 93.0407 460.021 93.1815 459.88 93.1815Z" fill="#22262E"/>
<path d="M454.39 107.121C454.39 107.121 434.678 118.666 434.678 98.1094Z" fill="#FFFDFA"/>
<path d="M443.688 111.342C441.999 111.342 440.309 110.92 438.76 110.075C435.381 108.104 433.691 104.161 433.691 98.1067C433.691 97.5435 434.114 97.1211 434.677 97.1211C435.24 97.1211 435.663 97.5435 435.663 98.1067C435.663 103.457 437.071 106.836 439.746 108.385C444.955 111.342 453.826 106.273 453.967 106.273C454.389 105.991 455.093 106.273 455.234 106.695C455.375 107.118 455.375 107.681 454.952 107.963C451.432 109.934 447.631 111.06 443.688 111.342Z" fill="#22262E"/>
<path d="M422.287 142.742L412.994 145.417L416.092 151.472C416.092 151.472 392.438 181.744 377.654 183.011C369.065 183.574 360.617 181.603 353.154 177.238L337.385 184.56C337.385 184.56 351.746 196.809 352.591 197.795C353.436 198.781 377.231 205.68 393.423 187.798C402.998 177.379 411.586 165.974 419.19 154.006L424.681 151.613L422.287 142.742Z" fill="#22262E"/>
<path d="M382.722 175.831C382.299 175.831 381.877 175.409 381.736 174.986L377.371 145.7C377.231 145.278 377.653 144.714 378.075 144.574L392.859 139.786L382.581 130.353C382.299 130.071 382.159 129.79 382.299 129.367C382.44 129.086 382.581 128.804 383.003 128.663L405.25 121.06C405.813 120.919 406.376 121.201 406.517 121.623C406.658 122.186 406.376 122.75 405.954 122.89L385.397 130.071L395.675 139.505C395.957 139.786 396.098 140.068 395.957 140.49C395.816 140.772 395.675 141.054 395.253 141.194L379.765 146.263L383.989 174.705C384.13 175.268 383.707 175.69 383.144 175.831H382.722Z" fill="#22262E"/>
<path d="M329.077 207.511H328.936C328.795 207.511 308.52 203.428 297.538 200.893C296.975 200.752 296.693 200.189 296.834 199.767C296.975 199.344 297.538 198.922 297.96 199.063C308.943 201.597 329.077 205.54 329.359 205.68C329.922 205.821 330.203 206.384 330.063 206.807C329.922 207.229 329.499 207.511 329.077 207.511Z" fill="#22262E"/>
<path d="M430.876 178.082C430.313 178.082 429.891 177.659 429.891 177.096C429.891 176.814 430.031 176.533 430.172 176.392L452.419 156.117L442.563 147.387C442.281 147.246 442.14 146.824 442.281 146.542C442.281 146.261 442.422 145.979 442.703 145.838L456.643 137.813L447.631 130.491C447.209 130.21 447.209 129.506 447.491 129.083C447.772 128.661 448.476 128.661 448.899 128.942L459.036 137.25C459.318 137.39 459.459 137.813 459.459 138.094C459.459 138.376 459.177 138.658 458.895 138.939L444.956 146.965L454.671 155.554C454.812 155.694 454.953 155.976 454.953 156.258C454.953 156.539 454.812 156.821 454.671 156.962L431.721 177.941C431.439 177.941 431.158 178.082 430.876 178.082Z" fill="#22262E"/>
<path d="M378.075 233.136C377.512 233.136 377.09 232.714 377.09 232.151C377.09 232.01 377.09 231.869 377.231 231.728C377.371 231.306 399.055 192.304 409.615 171.184C409.896 170.762 410.459 170.48 410.882 170.762C411.304 171.043 411.586 171.607 411.304 172.029C400.744 193.149 379.061 232.151 378.92 232.573C378.779 232.995 378.357 233.136 378.075 233.136Z" fill="#D1D3D4"/>
<path d="M194.05 397.73L176.591 419.414C176.591 419.414 188.84 476.719 196.584 470.242C204.328 463.766 209.256 437.154 209.256 437.154L194.05 397.73Z" fill="#FFFDFA"/>
<path d="M195.177 471.652C194.895 471.652 194.473 471.652 194.191 471.511C186.165 468.695 176.591 424.625 175.465 419.556C175.324 419.275 175.465 418.993 175.605 418.711L193.065 397.028C193.346 396.747 193.628 396.606 193.909 396.747C194.332 396.747 194.613 397.028 194.754 397.31L209.961 436.734C209.961 436.875 209.961 437.156 209.961 437.297C209.82 438.423 204.751 464.331 196.866 470.948C196.444 471.371 195.881 471.652 195.177 471.652ZM177.577 419.556C181.519 438.142 189.685 467.851 194.895 469.54C195.177 469.681 195.599 469.54 195.881 469.399C202.78 463.627 207.708 439.972 208.271 437.156L193.769 399.563L177.577 419.556Z" fill="#22262E"/>
<path d="M386.383 97.5465C386.383 97.5465 371.458 148.235 357.659 161.611C343.861 174.987 314.293 191.46 317.954 183.575C321.615 175.691 338.792 169.495 350.901 147.249C363.01 125.003 370.895 94.0265 370.895 94.0265C370.895 94.0265 369.768 88.5353 377.935 90.3657C386.101 92.1961 386.383 97.5465 386.383 97.5465Z" fill="#22262E"/>
<path d="M434.536 213C444.251 203.567 452.559 192.725 459.317 181.039C467.906 165.973 474.523 144.994 476.917 136.968C477.48 134.997 476.635 133.026 474.805 132.04L472.13 130.632C470.018 129.647 467.483 130.492 466.498 132.604C466.357 132.885 466.357 133.026 466.216 133.308C462.415 146.965 450.728 186.108 434.536 213Z" fill="#22262E"/>
<path d="M326.965 143.023C328.373 144.572 341.327 152.879 341.327 152.879C341.327 152.879 347.1 144.854 352.732 143.587L349.071 150.063L367.234 150.345C367.234 150.345 367.234 167.523 351.324 170.902C335.413 174.281 308.38 157.807 308.38 157.807" fill="#FFFDFA"/>
<path d="M346.537 172.449C330.486 172.449 308.802 159.354 307.817 158.791C307.394 158.51 307.254 157.806 307.535 157.383C307.817 156.961 308.38 156.82 308.802 157.102C309.084 157.242 335.836 173.434 351.183 170.055C364.278 167.239 365.967 154.99 366.249 151.329L349.071 151.047C348.79 151.047 348.367 150.906 348.226 150.484C348.086 150.202 348.086 149.78 348.226 149.498L350.479 145.415C346.114 147.809 342.031 153.3 342.031 153.3C341.75 153.722 341.186 153.863 340.623 153.582C339.215 152.737 327.388 145.134 325.98 143.585C325.558 143.162 325.698 142.599 325.98 142.177C326.402 141.754 326.966 141.895 327.388 142.177C328.233 143.162 335.836 148.09 340.764 151.329C342.313 149.217 347.241 143.585 352.169 142.458C352.732 142.318 353.154 142.74 353.295 143.162C353.295 143.444 353.295 143.585 353.154 143.866L350.338 148.794L366.812 149.076C367.375 149.076 367.798 149.498 367.798 150.062C367.798 150.202 367.657 168.084 351.042 171.604C349.916 172.308 348.226 172.449 346.537 172.449Z" fill="#22262E"/>
<path d="M473.96 198.78L462.133 191.599L459.317 181.039L453.826 187.234C453.826 187.234 446.082 180.757 441.013 183.151C436.93 184.981 435.24 195.26 439.042 200.329C442.844 205.397 465.653 217.506 465.653 217.506" fill="#FFFDFA"/>
<path d="M465.653 218.494C465.512 218.494 465.371 218.494 465.231 218.353C464.245 217.79 442.14 206.103 438.197 200.894C435.522 197.374 435.522 192.023 436.367 188.644C437.071 185.546 438.619 183.153 440.591 182.308C445.237 180.196 451.573 184.42 453.826 185.969L458.754 180.478C459.176 180.055 459.739 180.055 460.162 180.337C460.303 180.478 460.443 180.618 460.443 180.759L463.119 190.897L474.523 197.937C474.946 198.218 475.227 198.782 474.946 199.345C474.664 199.767 474.101 200.049 473.679 199.767C473.679 199.767 473.679 199.767 473.538 199.767L461.711 192.586C461.429 192.446 461.288 192.305 461.288 192.023L459.035 183.153L454.811 187.94C454.53 188.362 453.826 188.362 453.403 188.081C451.291 186.391 445.237 182.449 441.576 184.138C440.309 184.702 439.183 186.673 438.479 189.207C437.634 192.446 437.775 197.092 439.887 199.908C443.547 204.695 465.935 216.663 466.216 216.804C466.779 217.086 466.92 217.649 466.639 218.212C466.357 218.353 465.935 218.494 465.653 218.494Z" fill="#22262E"/>
<path d="M65.0772 369.429C64.9364 369.429 64.6548 369.429 64.514 369.288C64.0916 369.007 63.9508 368.303 64.2324 367.88L186.869 173.858C187.151 173.435 187.855 173.295 188.277 173.576C188.7 173.858 188.84 174.562 188.559 174.984L65.922 368.866C65.6404 369.147 65.3588 369.429 65.0772 369.429Z" fill="#D1D3D4"/>
<path d="M144.348 357.742C143.785 357.742 143.362 357.319 143.362 356.756C143.362 356.615 143.362 356.475 143.503 356.334L209.82 183.572C209.961 183.009 210.665 182.727 211.087 183.009C211.65 183.15 211.932 183.854 211.65 184.276L145.333 357.038C145.193 357.46 144.77 357.742 144.348 357.742Z" fill="#D1D3D4"/>
<path d="M407.784 491.642C407.643 491.642 407.362 491.642 407.221 491.501C406.799 491.219 406.658 490.515 406.939 490.093L514.792 312.262C515.074 311.699 515.637 311.558 516.2 311.84C516.763 312.122 516.904 312.685 516.623 313.248C516.623 313.248 516.623 313.389 516.482 313.389L408.629 491.219C408.488 491.501 408.207 491.642 407.784 491.642Z" fill="#D1D3D4"/>
<path d="M488.463 485.025H488.181C487.618 484.884 487.336 484.321 487.477 483.758C492.546 466.862 537.743 319.444 538.447 317.755C538.728 317.191 539.292 317.051 539.855 317.332C540.277 317.614 540.559 318.177 540.277 318.599C539.292 321.134 506.485 428.001 489.308 484.321C489.308 484.743 488.885 485.025 488.463 485.025Z" fill="#D1D3D4"/>
<path d="M463.541 475.874C463.4 475.874 463.26 475.874 463.119 475.733C462.556 475.592 462.415 474.888 462.556 474.466L500.572 379.848C500.712 379.285 501.416 379.144 501.839 379.285C502.261 379.426 502.543 380.13 502.402 380.552L464.386 475.17C464.245 475.592 463.964 475.874 463.541 475.874Z" fill="#D1D3D4"/>
<path d="M121.115 325.358C120.552 325.358 120.13 324.935 120.13 324.372C120.13 324.231 120.13 323.95 120.271 323.809L167.439 239.329C167.72 238.766 168.283 238.625 168.847 238.906C169.41 239.188 169.551 239.751 169.269 240.314L122.101 324.794C121.819 325.217 121.538 325.358 121.115 325.358Z" fill="#D1D3D4"/>
<path d="M112.245 389C112.105 389 111.964 389 111.823 388.859C111.26 388.578 111.119 388.015 111.26 387.592L123.65 358.024C123.932 357.461 124.495 357.32 125.058 357.461C125.481 357.743 125.762 358.306 125.621 358.728L113.231 388.296C112.949 388.719 112.668 389 112.245 389Z" fill="#D1D3D4"/>
<path d="M429.326 492.63C428.763 492.63 428.341 492.208 428.341 491.644C428.341 491.504 428.341 491.363 428.482 491.222L448.757 454.473C449.038 454.051 449.602 453.769 450.165 454.051C450.728 454.332 450.869 454.896 450.587 455.459L430.312 492.208C430.03 492.489 429.749 492.63 429.326 492.63Z" fill="#D1D3D4"/>
</g>
<defs>
<clipPath id="clip0_1311_8746">
<rect width="659" height="524" fill="white"/>
</clipPath>
</defs>
</svg>
