<svg width="113" height="25" viewBox="0 0 113 25" fill="none" xmlns="http://www.w3.org/2000/svg">
<path d="M-3.41187e-05 18.6641V0.314388H11.2981V3.09305H3.04077V7.96882H10.3282V10.6951H3.04077V15.8854H11.3768V18.6641H-3.41187e-05ZM22.9067 18.6641L22.7757 16.2V11.9271C22.7757 11.0358 22.6796 10.2931 22.4873 9.69894C22.3126 9.08728 22.0155 8.62417 21.5961 8.3096C21.1941 7.97756 20.6524 7.81154 19.9708 7.81154C19.3417 7.81154 18.7912 7.94261 18.3193 8.20475C17.8475 8.46689 17.4455 8.87757 17.1135 9.4368L14.5445 8.4931C14.8242 7.9164 15.1911 7.38338 15.6455 6.89406C16.1174 6.38726 16.7028 5.98531 17.4018 5.68822C18.1184 5.39113 18.9747 5.24259 19.9708 5.24259C21.2465 5.24259 22.3126 5.49599 23.1689 6.00279C24.0252 6.49211 24.6543 7.19989 25.0563 8.12611C25.4757 9.05233 25.6854 10.1708 25.6854 11.4815L25.6068 18.6641H22.9067ZM19.132 18.9786C17.5591 18.9786 16.3358 18.6291 15.462 17.9301C14.6057 17.231 14.1775 16.2437 14.1775 14.9679C14.1775 13.6048 14.6319 12.565 15.5407 11.8485C16.4669 11.132 17.7514 10.7737 19.3941 10.7737H22.9067V13.0281H20.3378C19.1669 13.0281 18.3455 13.1941 17.8737 13.5262C17.4018 13.8407 17.1659 14.2951 17.1659 14.8893C17.1659 15.3961 17.3669 15.798 17.7688 16.0951C18.1883 16.3747 18.765 16.5145 19.499 16.5145C20.163 16.5145 20.7397 16.366 21.2291 16.0689C21.7184 15.7718 22.0941 15.3786 22.3563 14.8893C22.6359 14.3999 22.7757 13.8495 22.7757 13.2378H23.6407C23.6407 15.0203 23.2825 16.4271 22.566 17.4582C21.8495 18.4718 20.7048 18.9786 19.132 18.9786ZM33.4293 18.9786C32.5556 18.9786 31.7517 18.8476 31.0177 18.5854C30.2837 18.3233 29.6546 17.9563 29.1303 17.4844C28.606 16.9951 28.2041 16.4271 27.9244 15.7805L30.4672 14.6533C30.7293 15.1427 31.1138 15.5534 31.6206 15.8854C32.1449 16.2174 32.7216 16.3835 33.3507 16.3835C34.0323 16.3835 34.574 16.2699 34.976 16.0427C35.3954 15.798 35.6051 15.466 35.6051 15.0466C35.6051 14.6446 35.4478 14.3388 35.1332 14.1291C34.8187 13.9019 34.373 13.7184 33.7963 13.5786L32.5643 13.2378C31.3235 12.9232 30.3536 12.4252 29.6546 11.7436C28.9555 11.0446 28.606 10.2494 28.606 9.35816C28.606 8.04747 29.0254 7.03386 29.8643 6.31735C30.7206 5.60084 31.9439 5.24259 33.5342 5.24259C34.3381 5.24259 35.0721 5.36492 35.7362 5.60958C36.4177 5.83677 37.0032 6.16881 37.4925 6.60571C37.9818 7.02513 38.3226 7.52319 38.5148 8.09989L36.0769 9.20087C35.9022 8.76398 35.5701 8.43193 35.0808 8.20475C34.5915 7.96009 34.0497 7.83775 33.4556 7.83775C32.8614 7.83775 32.3983 7.96882 32.0662 8.23096C31.7342 8.47562 31.5682 8.82514 31.5682 9.27951C31.5682 9.54165 31.7167 9.78632 32.0138 10.0135C32.3109 10.2232 32.739 10.398 33.2983 10.5378L34.8449 10.9048C35.7012 11.1145 36.4002 11.4465 36.942 11.9009C37.4837 12.3378 37.8857 12.8359 38.1478 13.3951C38.41 13.9368 38.541 14.4873 38.541 15.0466C38.541 15.833 38.3139 16.5233 37.8595 17.1174C37.4226 17.7116 36.8197 18.1747 36.0507 18.5068C35.2818 18.8213 34.408 18.9786 33.4293 18.9786ZM42.9403 24.2214C42.5208 24.2214 42.049 24.1428 41.5247 23.9855C41.0179 23.8282 40.5286 23.6272 40.0567 23.3826L41.1577 20.9971C41.4898 21.1544 41.7956 21.2767 42.0752 21.3641C42.3548 21.4689 42.582 21.5214 42.7568 21.5214C43.1762 21.5214 43.5257 21.4078 43.8053 21.1806C44.1024 20.9709 44.3383 20.6563 44.5131 20.2369L46.0597 16.6194L50.4898 5.55715H53.6879L47.6063 20.0534C47.2393 20.8922 46.8636 21.6262 46.4791 22.2554C46.1121 22.8845 45.649 23.3651 45.0898 23.6971C44.5306 24.0466 43.814 24.2214 42.9403 24.2214ZM45.2733 18.6641L39.4014 5.55715H42.5995L47.1607 16.5932L48.1044 18.6641H45.2733ZM63.9287 18.9786C62.1637 18.9786 60.5908 18.5767 59.2102 17.7728C57.8471 16.9514 56.7723 15.833 55.9859 14.4174C55.217 12.9844 54.8325 11.3417 54.8325 9.48923C54.8325 7.63678 55.217 6.00279 55.9859 4.58724C56.7723 3.15422 57.8471 2.03576 59.2102 1.23187C60.5733 0.410506 62.1374 -0.000177312 63.9025 -0.000177312C65.0909 -0.000177312 66.2093 0.218271 67.2579 0.655168C68.3064 1.07459 69.2326 1.66003 70.0365 2.41149C70.8579 3.16296 71.487 4.03675 71.9239 5.03288L69.1453 6.16007C68.8307 5.49599 68.4025 4.91054 67.8608 4.40374C67.3365 3.87947 66.7336 3.47752 66.052 3.19791C65.3705 2.91829 64.654 2.77849 63.9025 2.77849C62.7491 2.77849 61.718 3.06684 60.8093 3.64354C59.918 4.22025 59.2102 5.0154 58.686 6.029C58.1792 7.02513 57.9258 8.17853 57.9258 9.48923C57.9258 10.7999 58.1792 11.9621 58.686 12.9757C59.2102 13.9893 59.9267 14.7844 60.8355 15.3611C61.7617 15.9378 62.8103 16.2262 63.9811 16.2262C64.7501 16.2262 65.4666 16.0776 66.1307 15.7805C66.8122 15.466 67.4152 15.0378 67.9394 14.4961C68.4812 13.9543 68.9093 13.3252 69.2239 12.6087L72.0026 13.7359C71.5657 14.7669 70.9453 15.6844 70.1414 16.4883C69.3375 17.2747 68.4025 17.8864 67.3365 18.3233C66.2705 18.7602 65.1346 18.9786 63.9287 18.9786ZM82.3742 18.6641L82.2432 16.2V11.9271C82.2432 11.0358 82.147 10.2931 81.9548 9.69894C81.7801 9.08728 81.483 8.62417 81.0635 8.3096C80.6616 7.97756 80.1198 7.81154 79.4383 7.81154C78.8092 7.81154 78.2587 7.94261 77.7868 8.20475C77.315 8.46689 76.913 8.87757 76.581 9.4368L74.012 8.4931C74.2916 7.9164 74.6586 7.38338 75.113 6.89406C75.5849 6.38726 76.1703 5.98531 76.8693 5.68822C77.5858 5.39113 78.4422 5.24259 79.4383 5.24259C80.714 5.24259 81.7801 5.49599 82.6364 6.00279C83.4927 6.49211 84.1218 7.19989 84.5238 8.12611C84.9432 9.05233 85.1529 10.1708 85.1529 11.4815L85.0743 18.6641H82.3742ZM78.5994 18.9786C77.0266 18.9786 75.8033 18.6291 74.9295 17.9301C74.0732 17.231 73.645 16.2437 73.645 14.9679C73.645 13.6048 74.0994 12.565 75.0081 11.8485C75.9344 11.132 77.2188 10.7737 78.8616 10.7737H82.3742V13.0281H79.8053C78.6344 13.0281 77.813 13.1941 77.3412 13.5262C76.8693 13.8407 76.6334 14.2951 76.6334 14.8893C76.6334 15.3961 76.8344 15.798 77.2363 16.0951C77.6557 16.3747 78.2324 16.5145 78.9664 16.5145C79.6305 16.5145 80.2072 16.366 80.6965 16.0689C81.1859 15.7718 81.5616 15.3786 81.8237 14.8893C82.1034 14.3999 82.2432 13.8495 82.2432 13.2378H83.1082C83.1082 15.0203 82.75 16.4271 82.0335 17.4582C81.3169 18.4718 80.1723 18.9786 78.5994 18.9786ZM92.8968 18.9786C92.023 18.9786 91.2191 18.8476 90.4852 18.5854C89.7512 18.3233 89.122 17.9563 88.5978 17.4844C88.0735 16.9951 87.6715 16.4271 87.3919 15.7805L89.9347 14.6533C90.1968 15.1427 90.5813 15.5534 91.0881 15.8854C91.6124 16.2174 92.1891 16.3835 92.8182 16.3835C93.4997 16.3835 94.0415 16.2699 94.4434 16.0427C94.8629 15.798 95.0726 15.466 95.0726 15.0466C95.0726 14.6446 94.9153 14.3388 94.6007 14.1291C94.2862 13.9019 93.8405 13.7184 93.2638 13.5786L92.0318 13.2378C90.791 12.9232 89.8211 12.4252 89.122 11.7436C88.423 11.0446 88.0735 10.2494 88.0735 9.35816C88.0735 8.04747 88.4929 7.03386 89.3317 6.31735C90.1881 5.60084 91.4114 5.24259 93.0017 5.24259C93.8056 5.24259 94.5396 5.36492 95.2036 5.60958C95.8852 5.83677 96.4706 6.16881 96.96 6.60571C97.4493 7.02513 97.7901 7.52319 97.9823 8.09989L95.5444 9.20087C95.3697 8.76398 95.0376 8.43193 94.5483 8.20475C94.059 7.96009 93.5172 7.83775 92.923 7.83775C92.3289 7.83775 91.8658 7.96882 91.5337 8.23096C91.2017 8.47562 91.0356 8.82514 91.0356 9.27951C91.0356 9.54165 91.1842 9.78632 91.4813 10.0135C91.7784 10.2232 92.2065 10.398 92.7658 10.5378L94.3124 10.9048C95.1687 11.1145 95.8677 11.4465 96.4095 11.9009C96.9512 12.3378 97.3532 12.8359 97.6153 13.3951C97.8775 13.9368 98.0085 14.4873 98.0085 15.0466C98.0085 15.833 97.7813 16.5233 97.327 17.1174C96.8901 17.7116 96.2871 18.1747 95.5182 18.5068C94.7493 18.8213 93.8755 18.9786 92.8968 18.9786ZM106.183 18.9786C104.907 18.9786 103.771 18.6903 102.775 18.1136C101.796 17.5194 101.018 16.7068 100.442 15.6757C99.8825 14.6446 99.6029 13.4563 99.6029 12.1106C99.6029 10.765 99.8912 9.5766 100.468 8.54553C101.045 7.51445 101.831 6.71056 102.827 6.13386C103.841 5.53968 104.994 5.24259 106.287 5.24259C107.458 5.24259 108.516 5.54841 109.459 6.16007C110.403 6.75425 111.146 7.61931 111.687 8.75524C112.247 9.89117 112.526 11.2456 112.526 12.8184H102.224L102.617 12.4514C102.617 13.2553 102.792 13.9543 103.142 14.5485C103.491 15.1252 103.954 15.5708 104.531 15.8854C105.108 16.2 105.746 16.3572 106.445 16.3572C107.249 16.3572 107.913 16.1825 108.437 15.833C108.961 15.466 109.372 14.9941 109.669 14.4174L112.264 15.5184C111.897 16.2174 111.425 16.8291 110.849 17.3534C110.289 17.8776 109.617 18.2796 108.83 18.5592C108.061 18.8388 107.179 18.9786 106.183 18.9786ZM102.801 10.931L102.382 10.564H109.774L109.381 10.931C109.381 10.2145 109.223 9.62903 108.909 9.17466C108.594 8.70281 108.192 8.35329 107.703 8.12611C107.231 7.88144 106.733 7.75911 106.209 7.75911C105.684 7.75911 105.16 7.88144 104.636 8.12611C104.112 8.35329 103.675 8.70281 103.325 9.17466C102.976 9.62903 102.801 10.2145 102.801 10.931Z" fill="#22262E"/>
</svg>
