<svg width="185" height="26" viewBox="0 0 185 26" fill="none" xmlns="http://www.w3.org/2000/svg">
<path d="M7.21406 20.312C6.33005 20.312 5.48072 20.1993 4.66605 19.974C3.86872 19.7313 3.14072 19.4107 2.48205 19.012C1.84072 18.596 1.31205 18.1367 0.896055 17.634C0.480055 17.114 0.220055 16.5593 0.116055 15.97L4.25005 14.8C4.44072 15.3027 4.77005 15.7447 5.23805 16.126C5.72339 16.49 6.33006 16.6807 7.05806 16.698C7.76872 16.7153 8.35806 16.5507 8.82605 16.204C9.31139 15.8573 9.55406 15.4067 9.55406 14.852C9.55406 14.4187 9.38072 14.0373 9.03406 13.708C8.70472 13.3787 8.22806 13.1273 7.60406 12.954L5.03005 12.304C4.12872 12.0787 3.34005 11.7233 2.66405 11.238C2.00539 10.7527 1.48539 10.1633 1.10405 9.47C0.740055 8.75933 0.558055 7.95333 0.558055 7.052C0.558055 5.30133 1.13872 3.94067 2.30005 2.97C3.46139 1.982 5.09939 1.488 7.21406 1.488C8.37539 1.488 9.38939 1.65267 10.2561 1.982C11.1227 2.294 11.8594 2.762 12.4661 3.386C13.0901 4.01 13.5841 4.79 13.9481 5.726L9.84005 6.948C9.70139 6.48 9.39806 6.05533 8.93006 5.674C8.47939 5.29267 7.89006 5.102 7.16206 5.102C6.43405 5.102 5.86205 5.26667 5.44605 5.596C5.04739 5.92533 4.84805 6.402 4.84805 7.026C4.84805 7.45933 5.01272 7.82333 5.34206 8.118C5.67139 8.39533 6.12206 8.60333 6.69406 8.742L9.26806 9.392C10.7414 9.756 11.8854 10.4407 12.7001 11.446C13.5321 12.434 13.9481 13.5607 13.9481 14.826C13.9481 15.97 13.6794 16.9493 13.1421 17.764C12.6221 18.5787 11.8594 19.2113 10.8541 19.662C9.84872 20.0953 8.63539 20.312 7.21406 20.312ZM24.6221 20L24.3881 17.608V7H28.4441V20H24.6221ZM16.0161 13.656V7H20.0721V13.656H16.0161ZM20.0721 13.656C20.0721 14.332 20.1501 14.878 20.3061 15.294C20.4621 15.71 20.6874 16.0133 20.9821 16.204C21.2767 16.3947 21.6234 16.4987 22.0221 16.516C22.8021 16.516 23.3914 16.2993 23.7901 15.866C24.1887 15.4153 24.3881 14.748 24.3881 13.864H25.6101C25.6101 15.2333 25.4021 16.4033 24.9861 17.374C24.5701 18.3273 23.9981 19.0553 23.2701 19.558C22.5594 20.0607 21.7274 20.312 20.7741 20.312C19.7341 20.312 18.8587 20.104 18.1481 19.688C17.4374 19.2547 16.9001 18.6047 16.5361 17.738C16.1894 16.8713 16.0161 15.762 16.0161 14.41V13.656H20.0721ZM31.2324 25.2V7H35.0544L35.2884 9.392V25.2H31.2324ZM38.9804 20.312C37.9057 20.312 37.0044 20.0433 36.2764 19.506C35.5484 18.9513 35.0024 18.1627 34.6384 17.14C34.2744 16.1173 34.0924 14.904 34.0924 13.5C34.0924 12.0787 34.2744 10.8653 34.6384 9.86C35.0024 8.83733 35.5484 8.05733 36.2764 7.52C37.0044 6.96533 37.9057 6.688 38.9804 6.688C40.1937 6.688 41.2424 6.96533 42.1264 7.52C43.0104 8.05733 43.6864 8.83733 44.1544 9.86C44.6224 10.8653 44.8564 12.0787 44.8564 13.5C44.8564 14.904 44.6224 16.1173 44.1544 17.14C43.6864 18.1627 43.0104 18.9513 42.1264 19.506C41.2424 20.0433 40.1937 20.312 38.9804 20.312ZM37.9404 16.568C38.4604 16.568 38.9197 16.438 39.3184 16.178C39.717 15.918 40.0377 15.5627 40.2804 15.112C40.523 14.644 40.6444 14.1067 40.6444 13.5C40.6444 12.8933 40.5317 12.3647 40.3064 11.914C40.081 11.446 39.7604 11.082 39.3444 10.822C38.9457 10.562 38.4864 10.432 37.9664 10.432C37.4464 10.432 36.9784 10.562 36.5624 10.822C36.1637 11.082 35.8517 11.446 35.6264 11.914C35.401 12.382 35.2884 12.9107 35.2884 13.5C35.2884 14.1067 35.401 14.644 35.6264 15.112C35.8517 15.5627 36.1637 15.918 36.5624 16.178C36.961 16.438 37.4204 16.568 37.9404 16.568ZM53.0846 20.312C51.7326 20.312 50.5366 20.026 49.4966 19.454C48.4566 18.882 47.6419 18.0847 47.0526 17.062C46.4632 16.0393 46.1686 14.852 46.1686 13.5C46.1686 12.148 46.4632 10.9607 47.0526 9.938C47.6419 8.91533 48.4566 8.118 49.4966 7.546C50.5539 6.974 51.7672 6.688 53.1366 6.688C54.3672 6.688 55.4766 6.98267 56.4646 7.572C57.4526 8.16133 58.2326 9.04533 58.8046 10.224C59.3939 11.3853 59.6886 12.824 59.6886 14.54H49.9126L50.3546 14.046C50.3546 14.6353 50.4759 15.1553 50.7186 15.606C50.9612 16.0567 51.2992 16.4033 51.7326 16.646C52.1659 16.8713 52.6512 16.984 53.1886 16.984C53.8299 16.984 54.3672 16.8453 54.8006 16.568C55.2339 16.2733 55.5372 15.9093 55.7106 15.476L59.3246 16.698C58.9779 17.53 58.4839 18.2147 57.8426 18.752C57.2186 19.2893 56.4992 19.688 55.6846 19.948C54.8699 20.1907 54.0032 20.312 53.0846 20.312ZM50.4586 12.382L50.0426 11.836H55.8666L55.4766 12.382C55.4766 11.7233 55.3466 11.212 55.0866 10.848C54.8266 10.4667 54.5059 10.1893 54.1246 10.016C53.7606 9.84267 53.3879 9.756 53.0066 9.756C52.6252 9.756 52.2352 9.84267 51.8366 10.016C51.4552 10.1893 51.1259 10.4667 50.8486 10.848C50.5886 11.212 50.4586 11.7233 50.4586 12.382ZM64.3834 13.266C64.3834 11.862 64.6607 10.692 65.2154 9.756C65.7874 8.82 66.498 8.118 67.3474 7.65C68.214 7.182 69.1154 6.948 70.0514 6.948V10.9C69.2541 10.9 68.5001 10.9867 67.7894 11.16C67.096 11.3333 66.5327 11.602 66.0994 11.966C65.666 12.3127 65.4494 12.7633 65.4494 13.318L64.3834 13.266ZM61.3934 20V7H65.4494V20H61.3934ZM71.7528 20V7H75.5748L75.8088 9.392V20H71.7528ZM80.1248 20V13.344H84.1808V20H80.1248ZM80.1248 13.344C80.1248 12.6507 80.0468 12.1047 79.8908 11.706C79.7348 11.29 79.5094 10.9867 79.2148 10.796C78.9374 10.6053 78.5908 10.5013 78.1748 10.484C77.3948 10.4667 76.8054 10.6833 76.4068 11.134C76.0081 11.5673 75.8088 12.2347 75.8088 13.136H74.5868C74.5868 11.7667 74.7948 10.6053 75.2108 9.652C75.6268 8.68133 76.1901 7.94467 76.9008 7.442C77.6288 6.93933 78.4694 6.688 79.4228 6.688C80.4628 6.688 81.3381 6.90467 82.0488 7.338C82.7594 7.754 83.2881 8.39533 83.6348 9.262C83.9988 10.1287 84.1808 11.238 84.1808 12.59V13.344H80.1248ZM92.9491 20.312C91.5797 20.312 90.3751 20.026 89.3351 19.454C88.2951 18.8647 87.4717 18.0587 86.8651 17.036C86.2757 16.0133 85.9811 14.8347 85.9811 13.5C85.9811 12.1653 86.2671 10.9867 86.8391 9.964C87.4284 8.94133 88.2431 8.144 89.2831 7.572C90.3404 6.98267 91.5364 6.688 92.8711 6.688C94.2404 6.688 95.4451 6.98267 96.4851 7.572C97.5424 8.144 98.3571 8.94133 98.9291 9.964C99.5184 10.9867 99.8131 12.1653 99.8131 13.5C99.8131 14.8347 99.5184 16.0133 98.9291 17.036C98.3571 18.0587 97.5511 18.8647 96.5111 19.454C95.4711 20.026 94.2837 20.312 92.9491 20.312ZM92.9491 16.568C93.4691 16.568 93.9284 16.438 94.3271 16.178C94.7431 15.918 95.0637 15.5627 95.2891 15.112C95.5317 14.644 95.6531 14.1067 95.6531 13.5C95.6531 12.8933 95.5317 12.3647 95.2891 11.914C95.0637 11.446 94.7431 11.082 94.3271 10.822C93.9111 10.562 93.4344 10.432 92.8971 10.432C92.3597 10.432 91.8831 10.562 91.4671 10.822C91.0511 11.082 90.7217 11.446 90.4791 11.914C90.2537 12.3647 90.1411 12.8933 90.1411 13.5C90.1411 14.1067 90.2537 14.644 90.4791 15.112C90.7217 15.5627 91.0511 15.918 91.4671 16.178C91.9004 16.438 92.3944 16.568 92.9491 16.568ZM107.38 20.312C105.837 20.312 104.685 19.948 103.922 19.22C103.177 18.4747 102.804 17.4173 102.804 16.048V2.944H106.86V15.034C106.86 15.554 106.955 15.9353 107.146 16.178C107.337 16.4207 107.631 16.542 108.03 16.542C108.186 16.542 108.368 16.5073 108.576 16.438C108.784 16.3513 108.975 16.2473 109.148 16.126L110.552 19.09C110.136 19.4367 109.633 19.7313 109.044 19.974C108.472 20.1993 107.917 20.312 107.38 20.312ZM100.776 10.406V7H109.824V10.406H100.776ZM119.973 20L119.843 17.192V13.526C119.843 12.8327 119.782 12.226 119.661 11.706C119.557 11.186 119.34 10.7873 119.011 10.51C118.699 10.2153 118.239 10.068 117.633 10.068C117.147 10.068 116.723 10.1807 116.359 10.406C115.995 10.6313 115.683 10.9347 115.423 11.316L111.861 10.146C112.173 9.50467 112.58 8.924 113.083 8.404C113.603 7.884 114.235 7.468 114.981 7.156C115.726 6.844 116.593 6.688 117.581 6.688C118.933 6.688 120.077 6.93933 121.013 7.442C121.949 7.94467 122.651 8.64667 123.119 9.548C123.587 10.4493 123.821 11.5153 123.821 12.746L123.769 20H119.973ZM116.411 20.312C114.885 20.312 113.698 19.974 112.849 19.298C111.999 18.6047 111.575 17.6167 111.575 16.334C111.575 14.9647 112.017 13.942 112.901 13.266C113.785 12.59 115.024 12.252 116.619 12.252H120.181V14.878H118.127C117.277 14.878 116.662 14.9993 116.281 15.242C115.899 15.4673 115.709 15.7967 115.709 16.23C115.709 16.542 115.847 16.7933 116.125 16.984C116.419 17.1573 116.818 17.244 117.321 17.244C117.823 17.244 118.257 17.14 118.621 16.932C119.002 16.7067 119.297 16.412 119.505 16.048C119.73 15.684 119.843 15.294 119.843 14.878H120.883C120.883 16.594 120.51 17.9287 119.765 18.882C119.037 19.8353 117.919 20.312 116.411 20.312ZM126.526 20V7H130.582V20H126.526ZM128.554 5.336C127.947 5.336 127.41 5.11067 126.942 4.66C126.491 4.192 126.266 3.65467 126.266 3.048C126.266 2.40667 126.491 1.86933 126.942 1.436C127.41 0.985333 127.947 0.76 128.554 0.76C129.178 0.76 129.715 0.985333 130.166 1.436C130.616 1.86933 130.842 2.40667 130.842 3.048C130.842 3.65467 130.616 4.192 130.166 4.66C129.715 5.11067 129.178 5.336 128.554 5.336ZM136.467 13.266C136.467 11.862 136.745 10.692 137.299 9.756C137.871 8.82 138.582 8.118 139.431 7.65C140.298 7.182 141.199 6.948 142.135 6.948V10.9C141.338 10.9 140.584 10.9867 139.873 11.16C139.18 11.3333 138.617 11.602 138.183 11.966C137.75 12.3127 137.533 12.7633 137.533 13.318L136.467 13.266ZM133.477 20V7H137.533V20H133.477ZM150.077 20.312C148.725 20.312 147.529 20.026 146.489 19.454C145.449 18.882 144.634 18.0847 144.045 17.062C143.455 16.0393 143.161 14.852 143.161 13.5C143.161 12.148 143.455 10.9607 144.045 9.938C144.634 8.91533 145.449 8.118 146.489 7.546C147.546 6.974 148.759 6.688 150.129 6.688C151.359 6.688 152.469 6.98267 153.457 7.572C154.445 8.16133 155.225 9.04533 155.797 10.224C156.386 11.3853 156.681 12.824 156.681 14.54H146.905L147.347 14.046C147.347 14.6353 147.468 15.1553 147.711 15.606C147.953 16.0567 148.291 16.4033 148.725 16.646C149.158 16.8713 149.643 16.984 150.181 16.984C150.822 16.984 151.359 16.8453 151.793 16.568C152.226 16.2733 152.529 15.9093 152.703 15.476L156.317 16.698C155.97 17.53 155.476 18.2147 154.835 18.752C154.211 19.2893 153.491 19.688 152.677 19.948C151.862 20.1907 150.995 20.312 150.077 20.312ZM147.451 12.382L147.035 11.836H152.859L152.469 12.382C152.469 11.7233 152.339 11.212 152.079 10.848C151.819 10.4667 151.498 10.1893 151.117 10.016C150.753 9.84267 150.38 9.756 149.999 9.756C149.617 9.756 149.227 9.84267 148.829 10.016C148.447 10.1893 148.118 10.4667 147.841 10.848C147.581 11.212 147.451 11.7233 147.451 12.382ZM160.544 20.39C159.885 20.39 159.322 20.156 158.854 19.688C158.386 19.22 158.152 18.6567 158.152 17.998C158.152 17.3567 158.386 16.802 158.854 16.334C159.322 15.866 159.885 15.632 160.544 15.632C161.185 15.632 161.74 15.866 162.208 16.334C162.676 16.802 162.91 17.3567 162.91 17.998C162.91 18.6567 162.676 19.22 162.208 19.688C161.74 20.156 161.185 20.39 160.544 20.39ZM166.617 20V5.804C166.617 4.38267 166.99 3.26467 167.735 2.45C168.481 1.63533 169.625 1.228 171.167 1.228C171.739 1.228 172.337 1.332 172.961 1.54C173.585 1.73067 174.123 1.956 174.573 2.216L173.065 5.076C172.857 4.93733 172.649 4.842 172.441 4.79C172.233 4.72067 172.043 4.686 171.869 4.686C171.453 4.686 171.15 4.83333 170.959 5.128C170.769 5.40533 170.673 5.87333 170.673 6.532V20H166.617ZM164.563 10.198V7H173.611V10.198H164.563ZM178.819 13.266C178.819 11.862 179.096 10.692 179.651 9.756C180.223 8.82 180.934 8.118 181.783 7.65C182.65 7.182 183.551 6.948 184.487 6.948V10.9C183.69 10.9 182.936 10.9867 182.225 11.16C181.532 11.3333 180.968 11.602 180.535 11.966C180.102 12.3127 179.885 12.7633 179.885 13.318L178.819 13.266ZM175.829 20V7H179.885V20H175.829Z" fill="#FFFDFA"/>
</svg>
