<svg width="178" height="25" viewBox="0 0 178 25" fill="none" xmlns="http://www.w3.org/2000/svg">
<path d="M8.008 20.0347C7.124 20.0347 6.27467 19.922 5.46 19.6967C4.66267 19.454 3.93467 19.1333 3.276 18.7347C2.63467 18.3187 2.106 17.8593 1.69 17.3567C1.274 16.8367 1.014 16.282 0.91 15.6927L5.044 14.5227C5.23467 15.0253 5.564 15.4673 6.032 15.8487C6.51733 16.2127 7.124 16.4033 7.852 16.4207C8.56267 16.438 9.152 16.2733 9.62 15.9267C10.1053 15.58 10.348 15.1293 10.348 14.5747C10.348 14.1413 10.1747 13.76 9.828 13.4307C9.49867 13.1013 9.022 12.85 8.398 12.6767L5.824 12.0267C4.92267 11.8013 4.134 11.446 3.458 10.9607C2.79933 10.4753 2.27933 9.88599 1.898 9.19266C1.534 8.48199 1.352 7.67599 1.352 6.77466C1.352 5.02399 1.93267 3.66332 3.094 2.69266C4.25533 1.70466 5.89333 1.21066 8.008 1.21066C9.16933 1.21066 10.1833 1.37532 11.05 1.70466C11.9167 2.01666 12.6533 2.48466 13.26 3.10865C13.884 3.73265 14.378 4.51266 14.742 5.44866L10.634 6.67066C10.4953 6.20266 10.192 5.77799 9.724 5.39666C9.27333 5.01532 8.684 4.82466 7.956 4.82466C7.228 4.82466 6.656 4.98932 6.24 5.31866C5.84133 5.64799 5.642 6.12466 5.642 6.74866C5.642 7.18199 5.80667 7.54599 6.136 7.84066C6.46533 8.11799 6.916 8.32599 7.488 8.46466L10.062 9.11466C11.5353 9.47866 12.6793 10.1633 13.494 11.1687C14.326 12.1567 14.742 13.2833 14.742 14.5487C14.742 15.6927 14.4733 16.672 13.936 17.4867C13.416 18.3013 12.6533 18.934 11.648 19.3847C10.6427 19.818 9.42933 20.0347 8.008 20.0347ZM24.896 19.7227L24.662 17.3307V6.72266H28.718V19.7227H24.896ZM16.29 13.3787V6.72266H20.346V13.3787H16.29ZM20.346 13.3787C20.346 14.0547 20.424 14.6007 20.58 15.0167C20.736 15.4327 20.9613 15.736 21.256 15.9267C21.5507 16.1173 21.8973 16.2213 22.296 16.2387C23.076 16.2387 23.6653 16.022 24.064 15.5887C24.4627 15.138 24.662 14.4707 24.662 13.5867H25.884C25.884 14.956 25.676 16.126 25.26 17.0967C24.844 18.05 24.272 18.778 23.544 19.2807C22.8333 19.7833 22.0013 20.0347 21.048 20.0347C20.008 20.0347 19.1327 19.8267 18.422 19.4107C17.7113 18.9773 17.174 18.3273 16.81 17.4607C16.4633 16.594 16.29 15.4847 16.29 14.1327V13.3787H20.346ZM30.9863 24.9227V6.72266H34.8083L35.0423 9.11466V24.9227H30.9863ZM38.7343 20.0347C37.6596 20.0347 36.7583 19.766 36.0303 19.2287C35.3023 18.674 34.7563 17.8853 34.3923 16.8627C34.0283 15.84 33.8463 14.6267 33.8463 13.2227C33.8463 11.8013 34.0283 10.588 34.3923 9.58266C34.7563 8.55999 35.3023 7.77999 36.0303 7.24266C36.7583 6.68799 37.6596 6.41066 38.7343 6.41066C39.9476 6.41066 40.9963 6.68799 41.8803 7.24266C42.7643 7.77999 43.4403 8.55999 43.9083 9.58266C44.3763 10.588 44.6103 11.8013 44.6103 13.2227C44.6103 14.6267 44.3763 15.84 43.9083 16.8627C43.4403 17.8853 42.7643 18.674 41.8803 19.2287C40.9963 19.766 39.9476 20.0347 38.7343 20.0347ZM37.6943 16.2907C38.2143 16.2907 38.6736 16.1607 39.0723 15.9007C39.471 15.6407 39.7916 15.2853 40.0343 14.8347C40.277 14.3667 40.3983 13.8293 40.3983 13.2227C40.3983 12.616 40.2856 12.0873 40.0603 11.6367C39.835 11.1687 39.5143 10.8047 39.0983 10.5447C38.6996 10.2847 38.2403 10.1547 37.7203 10.1547C37.2003 10.1547 36.7323 10.2847 36.3163 10.5447C35.9176 10.8047 35.6056 11.1687 35.3803 11.6367C35.155 12.1047 35.0423 12.6333 35.0423 13.2227C35.0423 13.8293 35.155 14.3667 35.3803 14.8347C35.6056 15.2853 35.9176 15.6407 36.3163 15.9007C36.715 16.1607 37.1743 16.2907 37.6943 16.2907ZM52.3185 20.0347C50.9665 20.0347 49.7705 19.7487 48.7305 19.1767C47.6905 18.6047 46.8758 17.8073 46.2865 16.7847C45.6972 15.762 45.4025 14.5747 45.4025 13.2227C45.4025 11.8707 45.6972 10.6833 46.2865 9.66066C46.8758 8.63799 47.6905 7.84066 48.7305 7.26866C49.7878 6.69666 51.0012 6.41066 52.3705 6.41066C53.6012 6.41066 54.7105 6.70532 55.6985 7.29466C56.6865 7.88399 57.4665 8.76799 58.0385 9.94666C58.6278 11.108 58.9225 12.5467 58.9225 14.2627H49.1465L49.5885 13.7687C49.5885 14.358 49.7098 14.878 49.9525 15.3287C50.1952 15.7793 50.5332 16.126 50.9665 16.3687C51.3998 16.594 51.8852 16.7067 52.4225 16.7067C53.0638 16.7067 53.6012 16.568 54.0345 16.2907C54.4678 15.996 54.7712 15.632 54.9445 15.1987L58.5585 16.4207C58.2118 17.2527 57.7178 17.9373 57.0765 18.4747C56.4525 19.012 55.7332 19.4107 54.9185 19.6707C54.1038 19.9133 53.2372 20.0347 52.3185 20.0347ZM49.6925 12.1047L49.2765 11.5587H55.1005L54.7105 12.1047C54.7105 11.446 54.5805 10.9347 54.3205 10.5707C54.0605 10.1893 53.7398 9.91199 53.3585 9.73866C52.9945 9.56532 52.6218 9.47866 52.2405 9.47866C51.8592 9.47866 51.4692 9.56532 51.0705 9.73866C50.6892 9.91199 50.3598 10.1893 50.0825 10.5707C49.8225 10.9347 49.6925 11.446 49.6925 12.1047ZM63.0973 12.9887C63.0973 11.5847 63.3747 10.4147 63.9293 9.47866C64.5013 8.54266 65.212 7.84066 66.0613 7.37266C66.928 6.90466 67.8293 6.67066 68.7653 6.67066V10.6227C67.968 10.6227 67.214 10.7093 66.5033 10.8827C65.81 11.056 65.2467 11.3247 64.8133 11.6887C64.38 12.0353 64.1633 12.486 64.1633 13.0407L63.0973 12.9887ZM60.1073 19.7227V6.72266H64.1633V19.7227H60.1073ZM69.9467 19.7227V6.72266H73.7687L74.0027 9.11466V19.7227H69.9467ZM78.3187 19.7227V13.0667H82.3747V19.7227H78.3187ZM78.3187 13.0667C78.3187 12.3733 78.2407 11.8273 78.0847 11.4287C77.9287 11.0127 77.7034 10.7093 77.4087 10.5187C77.1314 10.328 76.7847 10.224 76.3687 10.2067C75.5887 10.1893 74.9994 10.406 74.6007 10.8567C74.202 11.29 74.0027 11.9573 74.0027 12.8587H72.7807C72.7807 11.4893 72.9887 10.328 73.4047 9.37466C73.8207 8.40399 74.384 7.66732 75.0947 7.16466C75.8227 6.66199 76.6634 6.41066 77.6167 6.41066C78.6567 6.41066 79.532 6.62732 80.2427 7.06066C80.9534 7.47666 81.482 8.11799 81.8287 8.98466C82.1927 9.85132 82.3747 10.9607 82.3747 12.3127V13.0667H78.3187ZM90.623 20.0347C89.2537 20.0347 88.049 19.7487 87.009 19.1767C85.969 18.5873 85.1457 17.7813 84.539 16.7587C83.9497 15.736 83.655 14.5573 83.655 13.2227C83.655 11.888 83.941 10.7093 84.513 9.68666C85.1023 8.66399 85.917 7.86666 86.957 7.29466C88.0143 6.70532 89.2103 6.41066 90.545 6.41066C91.9143 6.41066 93.119 6.70532 94.159 7.29466C95.2163 7.86666 96.031 8.66399 96.603 9.68666C97.1923 10.7093 97.487 11.888 97.487 13.2227C97.487 14.5573 97.1923 15.736 96.603 16.7587C96.031 17.7813 95.225 18.5873 94.185 19.1767C93.145 19.7487 91.9577 20.0347 90.623 20.0347ZM90.623 16.2907C91.143 16.2907 91.6023 16.1607 92.001 15.9007C92.417 15.6407 92.7377 15.2853 92.963 14.8347C93.2057 14.3667 93.327 13.8293 93.327 13.2227C93.327 12.616 93.2057 12.0873 92.963 11.6367C92.7377 11.1687 92.417 10.8047 92.001 10.5447C91.585 10.2847 91.1083 10.1547 90.571 10.1547C90.0337 10.1547 89.557 10.2847 89.141 10.5447C88.725 10.8047 88.3957 11.1687 88.153 11.6367C87.9277 12.0873 87.815 12.616 87.815 13.2227C87.815 13.8293 87.9277 14.3667 88.153 14.8347C88.3957 15.2853 88.725 15.6407 89.141 15.9007C89.5743 16.1607 90.0683 16.2907 90.623 16.2907ZM104.534 20.0347C102.991 20.0347 101.838 19.6707 101.076 18.9427C100.33 18.1973 99.9578 17.14 99.9578 15.7707V2.66666H104.014V14.7567C104.014 15.2767 104.109 15.658 104.3 15.9007C104.49 16.1433 104.785 16.2647 105.184 16.2647C105.34 16.2647 105.522 16.23 105.73 16.1607C105.938 16.074 106.128 15.97 106.302 15.8487L107.706 18.8127C107.29 19.1593 106.787 19.454 106.198 19.6967C105.626 19.922 105.071 20.0347 104.534 20.0347ZM97.9298 10.1287V6.72266H106.978V10.1287H97.9298ZM116.607 19.7227L116.477 16.9147V13.2487C116.477 12.5553 116.416 11.9487 116.295 11.4287C116.191 10.9087 115.974 10.51 115.645 10.2327C115.333 9.93799 114.873 9.79066 114.267 9.79066C113.781 9.79066 113.357 9.90332 112.993 10.1287C112.629 10.354 112.317 10.6573 112.057 11.0387L108.495 9.86866C108.807 9.22732 109.214 8.64666 109.717 8.12666C110.237 7.60666 110.869 7.19066 111.615 6.87866C112.36 6.56666 113.227 6.41066 114.215 6.41066C115.567 6.41066 116.711 6.66199 117.647 7.16466C118.583 7.66732 119.285 8.36932 119.753 9.27066C120.221 10.172 120.455 11.238 120.455 12.4687L120.403 19.7227H116.607ZM113.045 20.0347C111.519 20.0347 110.332 19.6967 109.483 19.0207C108.633 18.3273 108.209 17.3393 108.209 16.0567C108.209 14.6873 108.651 13.6647 109.535 12.9887C110.419 12.3127 111.658 11.9747 113.253 11.9747H116.815V14.6007H114.761C113.911 14.6007 113.296 14.722 112.915 14.9647C112.533 15.19 112.343 15.5193 112.343 15.9527C112.343 16.2647 112.481 16.516 112.759 16.7067C113.053 16.88 113.452 16.9667 113.955 16.9667C114.457 16.9667 114.891 16.8627 115.255 16.6547C115.636 16.4293 115.931 16.1347 116.139 15.7707C116.364 15.4067 116.477 15.0167 116.477 14.6007H117.517C117.517 16.3167 117.144 17.6513 116.399 18.6047C115.671 19.558 114.553 20.0347 113.045 20.0347ZM122.64 19.7227V6.72266H126.696V19.7227H122.64ZM124.668 5.05866C124.061 5.05866 123.524 4.83332 123.056 4.38266C122.605 3.91466 122.38 3.37732 122.38 2.77066C122.38 2.12932 122.605 1.59199 123.056 1.15866C123.524 0.707989 124.061 0.482656 124.668 0.482656C125.292 0.482656 125.829 0.707989 126.28 1.15866C126.73 1.59199 126.956 2.12932 126.956 2.77066C126.956 3.37732 126.73 3.91466 126.28 4.38266C125.829 4.83332 125.292 5.05866 124.668 5.05866ZM132.061 12.9887C132.061 11.5847 132.339 10.4147 132.893 9.47866C133.465 8.54266 134.176 7.84066 135.025 7.37266C135.892 6.90466 136.793 6.67066 137.729 6.67066V10.6227C136.932 10.6227 136.178 10.7093 135.467 10.8827C134.774 11.056 134.211 11.3247 133.777 11.6887C133.344 12.0353 133.127 12.486 133.127 13.0407L132.061 12.9887ZM129.071 19.7227V6.72266H133.127V19.7227H129.071ZM145.151 20.0347C143.799 20.0347 142.603 19.7487 141.563 19.1767C140.523 18.6047 139.708 17.8073 139.119 16.7847C138.529 15.762 138.235 14.5747 138.235 13.2227C138.235 11.8707 138.529 10.6833 139.119 9.66066C139.708 8.63799 140.523 7.84066 141.563 7.26866C142.62 6.69666 143.833 6.41066 145.203 6.41066C146.433 6.41066 147.543 6.70532 148.531 7.29466C149.519 7.88399 150.299 8.76799 150.871 9.94666C151.46 11.108 151.755 12.5467 151.755 14.2627H141.979L142.421 13.7687C142.421 14.358 142.542 14.878 142.785 15.3287C143.027 15.7793 143.365 16.126 143.799 16.3687C144.232 16.594 144.717 16.7067 145.255 16.7067C145.896 16.7067 146.433 16.568 146.867 16.2907C147.3 15.996 147.603 15.632 147.777 15.1987L151.391 16.4207C151.044 17.2527 150.55 17.9373 149.909 18.4747C149.285 19.012 148.565 19.4107 147.751 19.6707C146.936 19.9133 146.069 20.0347 145.151 20.0347ZM142.525 12.1047L142.109 11.5587H147.933L147.543 12.1047C147.543 11.446 147.413 10.9347 147.153 10.5707C146.893 10.1893 146.572 9.91199 146.191 9.73866C145.827 9.56532 145.454 9.47866 145.073 9.47866C144.691 9.47866 144.301 9.56532 143.903 9.73866C143.521 9.91199 143.192 10.1893 142.915 10.5707C142.655 10.9347 142.525 11.446 142.525 12.1047ZM155.098 20.1127C154.439 20.1127 153.876 19.8787 153.408 19.4107C152.94 18.9427 152.706 18.3793 152.706 17.7207C152.706 17.0793 152.94 16.5247 153.408 16.0567C153.876 15.5887 154.439 15.3547 155.098 15.3547C155.739 15.3547 156.294 15.5887 156.762 16.0567C157.23 16.5247 157.464 17.0793 157.464 17.7207C157.464 18.3793 157.23 18.9427 156.762 19.4107C156.294 19.8787 155.739 20.1127 155.098 20.1127ZM160.651 19.7227V5.52666C160.651 4.10532 161.024 2.98732 161.769 2.17266C162.514 1.35799 163.658 0.950655 165.201 0.950655C165.773 0.950655 166.371 1.05465 166.995 1.26266C167.619 1.45332 168.156 1.67866 168.607 1.93866L167.099 4.79866C166.891 4.65999 166.683 4.56466 166.475 4.51266C166.267 4.44332 166.076 4.40866 165.903 4.40866C165.487 4.40866 165.184 4.55599 164.993 4.85066C164.802 5.12799 164.707 5.59599 164.707 6.25466V19.7227H160.651ZM158.597 9.92066V6.72266H167.645V9.92066H158.597ZM172.333 12.9887C172.333 11.5847 172.61 10.4147 173.165 9.47866C173.737 8.54266 174.448 7.84066 175.297 7.37266C176.164 6.90466 177.065 6.67066 178.001 6.67066V10.6227C177.204 10.6227 176.45 10.7093 175.739 10.8827C175.046 11.056 174.482 11.3247 174.049 11.6887C173.616 12.0353 173.399 12.486 173.399 13.0407L172.333 12.9887ZM169.343 19.7227V6.72266H173.399V19.7227H169.343Z" fill="#22262E"/>
</svg>
