<svg width="250" height="25" viewBox="0 0 250 25" fill="none" xmlns="http://www.w3.org/2000/svg">
<path d="M2.17575 18.6641V0.314388H13.4739V3.09305H5.21655V7.96882H12.504V10.6951H5.21655V15.8854H13.5525V18.6641H2.17575ZM25.0825 18.6641L24.9515 16.2V11.9271C24.9515 11.0358 24.8553 10.2931 24.6631 9.69894C24.4884 9.08728 24.1913 8.62417 23.7718 8.3096C23.3699 7.97756 22.8281 7.81154 22.1466 7.81154C21.5175 7.81154 20.967 7.94261 20.4951 8.20475C20.0233 8.46689 19.6213 8.87757 19.2893 9.4368L16.7203 8.4931C16.9999 7.9164 17.3669 7.38338 17.8213 6.89406C18.2932 6.38726 18.8786 5.98531 19.5776 5.68822C20.2941 5.39113 21.1505 5.24259 22.1466 5.24259C23.4223 5.24259 24.4884 5.49599 25.3447 6.00279C26.201 6.49211 26.8301 7.19989 27.2321 8.12611C27.6515 9.05233 27.8612 10.1708 27.8612 11.4815L27.7826 18.6641H25.0825ZM21.3077 18.9786C19.7349 18.9786 18.5116 18.6291 17.6378 17.9301C16.7815 17.231 16.3533 16.2437 16.3533 14.9679C16.3533 13.6048 16.8077 12.565 17.7164 11.8485C18.6427 11.132 19.9271 10.7737 21.5699 10.7737H25.0825V13.0281H22.5136C21.3427 13.0281 20.5213 13.1941 20.0495 13.5262C19.5776 13.8407 19.3417 14.2951 19.3417 14.8893C19.3417 15.3961 19.5427 15.798 19.9446 16.0951C20.364 16.3747 20.9407 16.5145 21.6747 16.5145C22.3388 16.5145 22.9155 16.366 23.4048 16.0689C23.8942 15.7718 24.2699 15.3786 24.532 14.8893C24.8117 14.3999 24.9515 13.8495 24.9515 13.2378H25.8165C25.8165 15.0203 25.4583 16.4271 24.7418 17.4582C24.0252 18.4718 22.8806 18.9786 21.3077 18.9786ZM35.6051 18.9786C34.7313 18.9786 33.9274 18.8476 33.1935 18.5854C32.4595 18.3233 31.8303 17.9563 31.3061 17.4844C30.7818 16.9951 30.3798 16.4271 30.1002 15.7805L32.643 14.6533C32.9051 15.1427 33.2896 15.5534 33.7964 15.8854C34.3206 16.2174 34.8974 16.3835 35.5265 16.3835C36.208 16.3835 36.7498 16.2699 37.1517 16.0427C37.5712 15.798 37.7809 15.466 37.7809 15.0466C37.7809 14.6446 37.6236 14.3388 37.309 14.1291C36.9945 13.9019 36.5488 13.7184 35.9721 13.5786L34.7401 13.2378C33.4993 12.9232 32.5294 12.4252 31.8303 11.7436C31.1313 11.0446 30.7818 10.2494 30.7818 9.35816C30.7818 8.04747 31.2012 7.03386 32.04 6.31735C32.8964 5.60084 34.1197 5.24259 35.71 5.24259C36.5139 5.24259 37.2479 5.36492 37.9119 5.60958C38.5935 5.83677 39.1789 6.16881 39.6683 6.60571C40.1576 7.02513 40.4984 7.52319 40.6906 8.09989L38.2527 9.20087C38.078 8.76398 37.7459 8.43193 37.2566 8.20475C36.7673 7.96009 36.2255 7.83775 35.6313 7.83775C35.0372 7.83775 34.574 7.96882 34.242 8.23096C33.91 8.47562 33.7439 8.82514 33.7439 9.27951C33.7439 9.54165 33.8925 9.78632 34.1896 10.0135C34.4867 10.2232 34.9148 10.398 35.4741 10.5378L37.0207 10.9048C37.877 11.1145 38.576 11.4465 39.1178 11.9009C39.6595 12.3378 40.0615 12.8359 40.3236 13.3951C40.5858 13.9368 40.7168 14.4873 40.7168 15.0466C40.7168 15.833 40.4896 16.5233 40.0353 17.1174C39.5984 17.7116 38.9954 18.1747 38.2265 18.5068C37.4576 18.8213 36.5838 18.9786 35.6051 18.9786ZM45.116 24.2214C44.6966 24.2214 44.2248 24.1428 43.7005 23.9855C43.1937 23.8282 42.7044 23.6272 42.2325 23.3826L43.3335 20.9971C43.6655 21.1544 43.9714 21.2767 44.251 21.3641C44.5306 21.4689 44.7578 21.5214 44.9325 21.5214C45.352 21.5214 45.7015 21.4078 45.9811 21.1806C46.2782 20.9709 46.5141 20.6563 46.6889 20.2369L48.2355 16.6194L52.6656 5.55715H55.8637L49.7821 20.0534C49.4151 20.8922 49.0394 21.6262 48.6549 22.2554C48.2879 22.8845 47.8248 23.3651 47.2656 23.6971C46.7063 24.0466 45.9898 24.2214 45.116 24.2214ZM47.4491 18.6641L41.5772 5.55715H44.7753L49.3365 16.5932L50.2802 18.6641H47.4491ZM66.1045 18.9786C64.3394 18.9786 62.7666 18.5767 61.386 17.7728C60.0229 16.9514 58.9481 15.833 58.1617 14.4174C57.3928 12.9844 57.0083 11.3417 57.0083 9.48923C57.0083 7.63678 57.3928 6.00279 58.1617 4.58724C58.9481 3.15422 60.0229 2.03576 61.386 1.23187C62.7491 0.410506 64.3132 -0.000177312 66.0783 -0.000177312C67.2666 -0.000177312 68.3851 0.218271 69.4337 0.655168C70.4822 1.07459 71.4084 1.66003 72.2123 2.41149C73.0337 3.16296 73.6628 4.03675 74.0997 5.03288L71.321 6.16007C71.0065 5.49599 70.5783 4.91054 70.0366 4.40374C69.5123 3.87947 68.9094 3.47752 68.2278 3.19791C67.5463 2.91829 66.8297 2.77849 66.0783 2.77849C64.9249 2.77849 63.8938 3.06684 62.9851 3.64354C62.0938 4.22025 61.386 5.0154 60.8617 6.029C60.3549 7.02513 60.1015 8.17853 60.1015 9.48923C60.1015 10.7999 60.3549 11.9621 60.8617 12.9757C61.386 13.9893 62.1025 14.7844 63.0113 15.3611C63.9375 15.9378 64.986 16.2262 66.1569 16.2262C66.9259 16.2262 67.6424 16.0776 68.3065 15.7805C68.988 15.466 69.5909 15.0378 70.1152 14.4961C70.657 13.9543 71.0851 13.3252 71.3997 12.6087L74.1784 13.7359C73.7415 14.7669 73.1211 15.6844 72.3172 16.4883C71.5133 17.2747 70.5783 17.8864 69.5123 18.3233C68.4463 18.7602 67.3103 18.9786 66.1045 18.9786ZM84.55 18.6641L84.4189 16.2V11.9271C84.4189 11.0358 84.3228 10.2931 84.1306 9.69894C83.9558 9.08728 83.6587 8.62417 83.2393 8.3096C82.8374 7.97756 82.2956 7.81154 81.6141 7.81154C80.9849 7.81154 80.4344 7.94261 79.9626 8.20475C79.4907 8.46689 79.0888 8.87757 78.7568 9.4368L76.1878 8.4931C76.4674 7.9164 76.8344 7.38338 77.2888 6.89406C77.7606 6.38726 78.3461 5.98531 79.0451 5.68822C79.7616 5.39113 80.6179 5.24259 81.6141 5.24259C82.8898 5.24259 83.9558 5.49599 84.8122 6.00279C85.6685 6.49211 86.2976 7.19989 86.6995 8.12611C87.119 9.05233 87.3287 10.1708 87.3287 11.4815L87.25 18.6641H84.55ZM80.7752 18.9786C79.2024 18.9786 77.9791 18.6291 77.1053 17.9301C76.249 17.231 75.8208 16.2437 75.8208 14.9679C75.8208 13.6048 76.2752 12.565 77.1839 11.8485C78.1102 11.132 79.3946 10.7737 81.0374 10.7737H84.55V13.0281H81.9811C80.8102 13.0281 79.9888 13.1941 79.517 13.5262C79.0451 13.8407 78.8092 14.2951 78.8092 14.8893C78.8092 15.3961 79.0102 15.798 79.4121 16.0951C79.8315 16.3747 80.4082 16.5145 81.1422 16.5145C81.8063 16.5145 82.383 16.366 82.8723 16.0689C83.3617 15.7718 83.7374 15.3786 83.9995 14.8893C84.2791 14.3999 84.4189 13.8495 84.4189 13.2378H85.284C85.284 15.0203 84.9257 16.4271 84.2092 17.4582C83.4927 18.4718 82.3481 18.9786 80.7752 18.9786ZM95.0726 18.9786C94.1988 18.9786 93.3949 18.8476 92.6609 18.5854C91.927 18.3233 91.2978 17.9563 90.7735 17.4844C90.2493 16.9951 89.8473 16.4271 89.5677 15.7805L92.1104 14.6533C92.3726 15.1427 92.7571 15.5534 93.2639 15.8854C93.7881 16.2174 94.3648 16.3835 94.994 16.3835C95.6755 16.3835 96.2173 16.2699 96.6192 16.0427C97.0386 15.798 97.2484 15.466 97.2484 15.0466C97.2484 14.6446 97.0911 14.3388 96.7765 14.1291C96.4619 13.9019 96.0163 13.7184 95.4396 13.5786L94.2076 13.2378C92.9668 12.9232 91.9969 12.4252 91.2978 11.7436C90.5988 11.0446 90.2493 10.2494 90.2493 9.35816C90.2493 8.04747 90.6687 7.03386 91.5075 6.31735C92.3638 5.60084 93.5872 5.24259 95.1775 5.24259C95.9814 5.24259 96.7153 5.36492 97.3794 5.60958C98.061 5.83677 98.6464 6.16881 99.1358 6.60571C99.6251 7.02513 99.9659 7.52319 100.158 8.09989L97.7202 9.20087C97.5454 8.76398 97.2134 8.43193 96.7241 8.20475C96.2348 7.96009 95.693 7.83775 95.0988 7.83775C94.5046 7.83775 94.0415 7.96882 93.7095 8.23096C93.3774 8.47562 93.2114 8.82514 93.2114 9.27951C93.2114 9.54165 93.36 9.78632 93.6571 10.0135C93.9542 10.2232 94.3823 10.398 94.9415 10.5378L96.4882 10.9048C97.3445 11.1145 98.0435 11.4465 98.5853 11.9009C99.127 12.3378 99.529 12.8359 99.7911 13.3951C100.053 13.9368 100.184 14.4873 100.184 15.0466C100.184 15.833 99.9571 16.5233 99.5027 17.1174C99.0658 17.7116 98.4629 18.1747 97.694 18.5068C96.9251 18.8213 96.0513 18.9786 95.0726 18.9786ZM108.358 18.9786C107.083 18.9786 105.947 18.6903 104.951 18.1136C103.972 17.5194 103.194 16.7068 102.617 15.6757C102.058 14.6446 101.779 13.4563 101.779 12.1106C101.779 10.765 102.067 9.5766 102.644 8.54553C103.22 7.51445 104.007 6.71056 105.003 6.13386C106.017 5.53968 107.17 5.24259 108.463 5.24259C109.634 5.24259 110.691 5.54841 111.635 6.16007C112.579 6.75425 113.321 7.61931 113.863 8.75524C114.422 9.89117 114.702 11.2456 114.702 12.8184H104.4L104.793 12.4514C104.793 13.2553 104.968 13.9543 105.318 14.5485C105.667 15.1252 106.13 15.5708 106.707 15.8854C107.284 16.2 107.921 16.3572 108.62 16.3572C109.424 16.3572 110.088 16.1825 110.613 15.833C111.137 15.466 111.548 14.9941 111.845 14.4174L114.44 15.5184C114.073 16.2174 113.601 16.8291 113.024 17.3534C112.465 17.8776 111.792 18.2796 111.006 18.5592C110.237 18.8388 109.354 18.9786 108.358 18.9786ZM104.977 10.931L104.557 10.564H111.95L111.556 10.931C111.556 10.2145 111.399 9.62903 111.085 9.17466C110.77 8.70281 110.368 8.35329 109.879 8.12611C109.407 7.88144 108.909 7.75911 108.385 7.75911C107.86 7.75911 107.336 7.88144 106.812 8.12611C106.287 8.35329 105.851 8.70281 105.501 9.17466C105.151 9.62903 104.977 10.2145 104.977 10.931Z" fill="#22262E"/>
</svg>
