<svg width="500" height="500" viewBox="0 0 500 500" fill="none" xmlns="http://www.w3.org/2000/svg">
<path d="M404.5 385.201H91.7996C91.3996 385.201 91.0996 384.901 91.0996 384.501C91.0996 384.101 91.3996 383.801 91.7996 383.801H404.5C404.9 383.801 405.2 384.101 405.2 384.501C405.2 384.901 404.9 385.201 404.5 385.201Z" fill="#D1D3D4"/>
<path d="M112.5 174.898H383.7C388.7 174.898 392.7 178.998 392.7 183.998V351.198C392.7 356.198 388.6 360.198 383.7 360.198H112.5C107.5 360.198 103.4 356.098 103.4 351.198V183.998C103.5 178.998 107.5 174.898 112.5 174.898Z" fill="white"/>
<path d="M383.7 360.899H112.5C107.1 360.899 102.8 356.499 102.7 351.099V183.999C102.7 178.599 107.1 174.199 112.5 174.199H383.7C389.1 174.199 393.5 178.599 393.5 183.999V351.099C393.5 356.499 389.1 360.899 383.7 360.899ZM112.5 175.599C107.9 175.599 104.1 179.299 104.1 183.999V351.099C104.1 355.699 107.8 359.399 112.5 359.499H383.7C388.3 359.499 392 355.799 392.1 351.099V183.999C392.1 179.399 388.4 175.599 383.7 175.599H112.5Z" fill="#22262E"/>
<path d="M392.8 331.599H103.5C103.1 331.599 102.8 331.299 102.8 330.899C102.8 330.499 103.1 330.199 103.5 330.199H392.8C393.2 330.199 393.5 330.499 393.5 330.899C393.5 331.199 393.2 331.599 392.8 331.599Z" fill="#22262E"/>
<path d="M285.101 395.999H211.101L224.801 360.199H271.501L285.101 395.999Z" fill="white"/>
<path d="M285.1 396.7H211.1C210.9 396.7 210.7 396.6 210.5 396.4C210.4 396.2 210.3 396 210.4 395.8L224 360C224.1 359.7 224.4 359.6 224.6 359.5H271.3C271.6 359.5 271.8 359.7 271.9 360L285.5 395.8C285.6 396 285.6 396.3 285.4 396.4C285.5 396.5 285.3 396.7 285.1 396.7ZM212.2 395.3H284.1L271 360.9H225.3L212.2 395.3Z" fill="#22262E"/>
<path d="M202.5 393.898H293.8C296.2 393.898 298.1 395.798 298.1 398.198V399.198C298.1 401.598 296.2 403.498 293.8 403.498H202.5C200.1 403.498 198.2 401.598 198.2 399.198V398.198C198.1 395.798 200.1 393.898 202.5 393.898Z" fill="white"/>
<path d="M293.8 404.199H202.5C199.7 404.199 197.5 401.999 197.5 399.199V398.199C197.5 395.399 199.7 393.199 202.5 393.199H293.8C296.6 393.199 298.8 395.399 298.8 398.199V399.199C298.8 401.999 296.5 404.199 293.8 404.199ZM202.5 394.599C200.5 394.599 198.9 396.199 198.9 398.199V399.199C198.9 401.199 200.5 402.799 202.5 402.799H293.8C295.8 402.799 297.4 401.199 297.4 399.199V398.199C297.4 396.199 295.8 394.599 293.8 394.599H202.5Z" fill="#22262E"/>
<path d="M382.5 183.598H113.8V319.498H382.5V183.598Z" fill="#9035FF"/>
<path d="M382.5 183.598H113.8V319.498H382.5V183.598Z" fill="#22262E"/>
<path d="M218 376.499L273.1 365.799L270.9 360.199H224.3L218 376.499Z" fill="#22262E"/>
<path d="M218.001 377.198C217.801 377.198 217.601 377.098 217.501 376.998C217.301 376.798 217.301 376.498 217.401 376.298L223.601 359.898C223.701 359.598 224.001 359.398 224.201 359.398H270.901C271.201 359.398 271.501 359.598 271.601 359.898L273.701 365.598C273.801 365.998 273.701 366.398 273.301 366.498H273.201L218.101 377.198H218.001ZM224.701 360.898L219.101 375.598L272.101 365.298L270.401 360.898H224.701Z" fill="#22262E"/>
<path d="M192.7 196.302C192.2 187.902 190.3 179.702 187 172.002C186.5 170.802 185.4 169.502 184.3 170.102C184.9 173.702 185.6 177.202 186.2 180.702C179.6 176.402 173.9 170.802 169.3 164.302C168.9 163.602 168.4 163.102 167.7 162.702C167 162.302 166.1 162.602 165.7 163.202C165.5 163.802 165.7 164.502 166.1 165.002C168 168.502 170.3 171.802 172.8 174.902C169.5 170.102 162.7 161.902 161.2 163.802C159.7 165.702 163.6 173.102 167.1 177.502L159 168.402C158.3 167.602 157 166.702 156.2 167.402C155.4 168.102 155.9 169.402 156.5 170.302L162.2 178.802C159.3 176.302 155.3 170.202 153.2 171.602C151.1 173.002 157.7 180.902 161.9 183.902C166.1 186.902 170.8 189.402 174.3 193.302C176.4 195.802 178.1 198.602 179.6 201.502" fill="white"/>
<path d="M179.4 202.302C179.2 202.302 178.9 202.202 178.8 202.002C177.4 199.102 175.7 196.402 173.6 193.902C171.1 191.302 168.2 189.102 165.1 187.202C163.8 186.402 162.5 185.502 161.3 184.602C157.6 181.902 151.9 175.502 151.9 172.602C151.9 172.102 152.1 171.502 152.6 171.202C153.9 170.302 155.5 171.302 157.2 173.002L155.7 170.802C154.6 169.202 154.6 167.802 155.5 167.002C156.4 166.202 157.9 166.602 159.2 168.102L162.1 171.402C160.4 168.202 159.3 164.902 160.5 163.502C160.8 163.102 161.3 163.002 161.7 163.002C163 163.302 164.2 164.002 165.1 165.002C164.8 164.402 164.7 163.702 164.9 163.102C165.1 162.702 165.5 162.302 165.9 162.202C166.5 162.002 167.2 162.002 167.7 162.302C168.5 162.702 169.1 163.402 169.5 164.102C173.7 170.102 178.9 175.302 184.9 179.502C184.3 176.502 183.8 173.402 183.2 170.402C183.2 170.102 183.3 169.902 183.5 169.702C184 169.502 184.5 169.402 185 169.602C186 170.102 186.7 170.902 187.1 172.002C190.4 179.802 192.4 188.102 192.9 196.502C192.9 196.902 192.7 197.202 192.3 197.202C191.9 197.202 191.6 197.002 191.6 196.602C191.1 188.302 189.2 180.102 185.9 172.502C185.7 171.802 185.2 171.202 184.5 170.902C185.1 174.202 185.7 177.602 186.3 180.902C186.3 181.202 186.2 181.402 186 181.502C185.8 181.602 185.5 181.602 185.3 181.502C178.7 177.102 172.9 171.502 168.3 165.002C168 164.402 167.5 163.902 166.9 163.602C166.6 163.502 166.3 163.502 166.1 163.602C166 163.602 165.9 163.702 165.8 163.902C165.7 164.202 165.9 164.702 166.1 165.102C167 166.802 168 168.402 169.1 169.902C170.7 171.902 172.1 173.802 172.8 174.902C173 175.202 172.8 175.602 172.5 175.802C172.3 175.902 172 175.902 171.8 175.702C170.5 174.102 169.2 172.402 168 170.702C165.2 167.402 162.5 164.702 161.3 164.602C161.2 164.602 161.2 164.602 161.1 164.702C160 166.002 162.9 172.402 167 177.602C167.2 177.902 167.2 178.302 166.9 178.502C166.6 178.702 166.2 178.702 166 178.402L157.8 169.202C157.3 168.702 156.3 167.802 155.8 168.302C155.3 168.802 155.9 169.802 156.2 170.402L161.9 178.902C162.1 179.202 162.1 179.602 161.8 179.802C161.5 180.002 161.1 180.002 160.9 179.702C159.9 178.802 158.9 177.802 158 176.702C156.2 174.702 153.7 171.902 152.7 172.602C152.7 172.602 152.6 172.702 152.6 172.902C152.6 175.102 157.7 181.202 161.4 183.902C162.6 184.802 163.9 185.602 165.2 186.502C168.4 188.402 171.3 190.702 173.9 193.402C176 196.002 177.8 198.802 179.3 201.802C179.5 202.102 179.4 202.502 179 202.702C179.6 202.302 179.5 202.302 179.4 202.302Z" fill="#22262E"/>
<path d="M331.701 172.501C330.201 166.401 328.701 160.301 327.201 154.201C322.301 134.501 315.501 114.101 293.901 108.001C287.501 106.201 281.001 106.901 276.801 112.701C272.401 109.001 265.601 111.001 261.101 114.501C251.001 122.301 246.401 134.401 246.201 146.601C245.901 160.401 244.501 174.801 237.201 186.801C234.201 191.701 230.401 196.001 227.801 201.201C225.201 206.401 224.001 212.601 226.801 217.701C228.501 220.501 230.801 222.801 233.601 224.401C247.601 233.501 265.301 234.501 281.901 233.401C298.901 232.201 317.401 228.301 328.301 215.101C333.001 209.301 335.801 202.201 336.401 194.801C336.801 186.401 333.601 180.201 331.701 172.501Z" fill="white"/>
<path d="M271.1 234.3C259 234.3 244.6 232.5 232.9 224.8C230.7 223.4 227.7 221.1 225.9 217.8C223.4 213.2 223.8 206.9 226.9 200.7C228.5 197.7 230.3 194.8 232.4 192.1C233.8 190.2 235.1 188.3 236.3 186.3C243.7 174.1 245 159.3 245.3 146.4C245.6 132.9 251.1 121.1 260.5 113.8C265 110.3 271.8 108.3 276.5 111.6C280.4 106.7 286.6 105.1 293.9 107.2C315.9 113.4 322.6 133.7 327.7 153.9L332.2 172.2C332.7 174.3 333.3 176.3 333.9 178.2C335.5 183.5 337.1 188.5 336.6 194.6C336 202.2 333.1 209.3 328.4 215.2C319.3 226.3 304.4 232.1 281.6 233.7C278.5 234.1 274.9 234.3 271.1 234.3ZM270.9 111.3C267.4 111.5 264.1 112.7 261.3 114.9C252.2 121.9 246.9 133.4 246.6 146.5C246.3 159.6 245 174.6 237.5 187.1C236.3 189.1 234.9 191.1 233.5 193C231.5 195.7 229.7 198.5 228.1 201.4C226.7 204.2 223.8 211.2 227 217.3C228.2 219.6 230.3 221.7 233.6 223.8C248.6 233.7 268.2 233.6 281.5 232.7C304 231.2 318.5 225.4 327.4 214.7C332 209 334.8 202.1 335.4 194.8C335.9 188.9 334.4 184 332.8 178.9C332.2 176.9 331.6 174.9 331 172.8L326.5 154.5C321.5 134.6 314.9 114.7 293.6 108.7C288.6 107.3 281.7 106.9 277.1 113.1C277 113.2 276.8 113.3 276.7 113.4C276.5 113.4 276.3 113.4 276.2 113.2C274.8 111.9 272.9 111.2 270.9 111.3Z" fill="#22262E"/>
<path d="M246.101 195.598C240.501 200.798 228.101 220.398 216.801 240.898L193.401 191.698L174.301 197.398C174.301 197.398 191.501 288.398 208.501 292.098C225.501 295.798 248.701 255.298 248.701 255.298L274.701 183.898C274.701 183.898 254.401 187.798 246.101 195.598Z" fill="#9035FF"/>
<path d="M313.2 319.102C310.7 294.102 305.4 235.002 310.2 219.502C316.4 199.702 316.2 194.202 310.2 192.202C304.2 190.202 287.8 179.802 276.6 192.202C276.6 192.202 250.9 206.702 245.9 231.602C242.3 249.902 246.5 295.802 249 319.002H313.2V319.102Z" fill="white"/>
<path d="M262.3 319.1C264.2 291.6 266.6 270.3 267.2 261.6C268.1 249 271.3 212.6 274.8 196.7C279.3 186.8 277.3 183.9 277.3 183.9C277.3 183.9 252 180.3 244.4 218.2C242.5 227.5 238.3 274.5 233.7 319.1H262.3Z" fill="#9035FF"/>
<path d="M274.8 177.198L274.701 196.698C274.701 196.698 276.7 207.598 288.5 204.298C295.6 202.198 301.401 197.098 304.201 190.298L302.9 156.598C302.8 155.198 300.7 150.898 300.9 138.498C286.5 138.298 275.201 127.398 275.201 127.398C275.201 127.398 270.2 134.798 268.1 137.198C266.4 138.998 264.9 140.898 263.6 143.098C261.6 146.898 261.7 151.498 261.8 155.698C261.8 160.598 262.3 165.498 263.3 170.398C265.2 179.498 274.8 177.198 274.8 177.198Z" fill="white"/>
<path d="M284.201 205.599C282.301 205.599 280.401 205.099 278.801 204.099C276.301 202.399 274.601 199.799 274.001 196.799L274.101 177.999C271.501 178.399 268.901 177.899 266.601 176.599C264.501 175.199 263.101 172.899 262.701 170.399C261.801 165.499 261.301 160.599 261.201 155.599C261.101 151.599 261.001 146.699 263.101 142.699C264.401 140.499 265.901 138.499 267.601 136.699C269.701 134.399 274.601 127.099 274.601 126.999C274.701 126.799 274.901 126.699 275.101 126.699C275.301 126.699 275.501 126.699 275.601 126.899C275.701 126.999 286.901 137.599 300.901 137.799C301.101 137.799 301.201 137.899 301.401 137.999C301.501 138.099 301.601 138.299 301.601 138.399C301.401 147.799 302.601 152.499 303.201 154.799C303.401 155.299 303.501 155.899 303.501 156.499C303.501 156.499 303.501 157.099 304.801 190.199C304.801 190.299 304.801 190.399 304.801 190.399C301.901 197.399 295.901 202.699 288.601 204.799C287.201 205.299 285.701 205.499 284.201 205.599ZM275.201 196.699C275.801 199.199 277.301 201.499 279.401 202.999C281.701 204.399 284.601 204.599 288.201 203.699C295.001 201.699 300.601 196.799 303.501 190.299C303.401 187.999 302.201 156.899 302.201 156.699C302.101 156.199 302.001 155.799 301.901 155.299C301.301 152.999 300.101 148.399 300.201 139.199C287.701 138.699 277.701 130.599 275.201 128.499C274.001 130.299 270.301 135.699 268.401 137.699C266.701 139.399 265.301 141.299 264.001 143.399C262.101 146.999 262.201 151.599 262.201 155.699C262.201 160.599 262.701 165.499 263.701 170.299C264.001 172.499 265.301 174.399 267.101 175.699C270.201 177.699 274.401 176.799 274.401 176.799C274.601 176.799 274.801 176.799 274.901 176.899C275.101 176.999 275.101 177.199 275.101 177.399L275.201 196.699Z" fill="#22262E"/>
<path d="M274.901 186.801C274.901 186.801 282.801 187.201 287.901 181.901C293.001 176.601 292.201 171.301 292.201 171.301C292.201 171.301 283.701 177.001 274.801 177.201L274.901 186.801Z" fill="#22262E"/>
<path d="M275.201 187.402H274.801C274.501 187.402 274.201 187.102 274.201 186.802L274.101 177.202C274.101 176.902 274.401 176.602 274.701 176.602C283.301 176.402 291.701 170.802 291.801 170.802C292.001 170.702 292.201 170.702 292.401 170.802C292.601 170.902 292.701 171.102 292.801 171.302C292.801 171.502 293.501 177.002 288.301 182.402C283.701 187.102 276.901 187.402 275.201 187.402ZM275.401 177.802L275.501 186.202C277.401 186.102 283.401 185.702 287.401 181.502C289.901 179.102 291.301 175.902 291.601 172.502C289.201 173.902 282.501 177.502 275.401 177.802Z" fill="#22262E"/>
<path d="M281.6 149.301C281.6 149.301 275.3 158.701 276.8 160.301C278.3 161.901 282.5 160.901 282.5 160.901" fill="white"/>
<path d="M279.8 161.8C278.6 161.9 277.4 161.5 276.4 160.7C274.8 158.9 279.2 151.9 281.1 149C281.2 148.7 281.6 148.5 281.9 148.6C282.2 148.7 282.4 149.1 282.3 149.4C282.3 149.5 282.2 149.6 282.1 149.6C278.9 154.4 276.6 159.2 277.3 159.8C278.3 160.9 281.3 160.4 282.3 160.2C282.6 160.1 283 160.3 283.1 160.6C283.2 160.9 283 161.3 282.7 161.4C281.7 161.6 280.7 161.7 279.8 161.8Z" fill="#22262E"/>
<path d="M270.23 147.543C270.274 146.439 269.818 145.525 269.211 145.5C268.604 145.476 268.076 146.351 268.032 147.455C267.988 148.558 268.444 149.473 269.051 149.497C269.658 149.521 270.186 148.646 270.23 147.543Z" fill="#22262E"/>
<path d="M287.924 146.082C287.968 144.978 287.512 144.064 286.905 144.039C286.297 144.015 285.77 144.89 285.725 145.994C285.681 147.097 286.138 148.012 286.745 148.036C287.352 148.06 287.88 147.185 287.924 146.082Z" fill="#22262E"/>
<path d="M277.4 165.698L282.4 164.398C282.4 164.398 283.4 171.698 280.6 172.298C277.8 172.898 277.4 165.698 277.4 165.698Z" fill="white"/>
<path d="M280.201 172.998C279.801 172.998 279.301 172.798 279.001 172.598C277.101 171.198 276.801 166.298 276.801 165.798C276.801 165.498 277.001 165.198 277.301 165.198L282.301 163.898C282.501 163.898 282.701 163.898 282.801 163.998C282.901 164.098 283.001 164.298 283.101 164.398C283.201 165.198 284.101 172.298 280.801 172.998C280.601 172.998 280.401 172.998 280.201 172.998ZM278.001 166.198C278.201 168.098 278.701 170.898 279.701 171.598C279.901 171.798 280.101 171.798 280.401 171.698C281.901 171.298 282.001 167.498 281.801 165.198L278.001 166.198Z" fill="#22262E"/>
<path d="M296.301 146.601C297.601 143.201 301.901 141.901 305.301 142.601C307.501 143.001 309.301 144.601 309.801 146.801C310.101 148.101 310.101 149.501 309.801 150.901C309.401 153.401 308.601 155.801 307.401 158.001C306.801 159.101 306.001 160.101 305.001 160.801C303.601 161.601 301.901 161.501 300.701 160.501" fill="white"/>
<path d="M303.2 161.901C302.2 161.901 301.2 161.601 300.4 161.001C300.1 160.801 300.1 160.401 300.3 160.101C300.5 159.801 300.9 159.801 301.2 159.901C302.2 160.701 303.7 160.801 304.8 160.201C305.7 159.501 306.5 158.601 307 157.601C308.2 155.501 309 153.201 309.4 150.701C309.6 149.401 309.6 148.201 309.4 146.901C309 145.001 307.4 143.501 305.4 143.101C302.3 142.501 298.3 143.701 297.2 146.701C297.1 147.001 296.8 147.201 296.4 147.201C296 147.201 295.9 146.801 295.9 146.401V146.301C297.3 142.601 301.9 141.201 305.6 141.901C308.1 142.301 310 144.201 310.6 146.601C310.9 148.001 310.9 149.501 310.6 150.901C310.2 153.501 309.4 155.901 308.1 158.201C307.5 159.401 306.6 160.501 305.5 161.301C304.7 161.701 303.9 161.901 303.2 161.901Z" fill="#22262E"/>
<path d="M337.9 319.102C337.8 318.302 337.7 317.502 337.7 316.702C335.7 293.602 337.7 215.102 332.8 199.502C330.4 192.002 305.3 186.602 305.3 186.602C305.3 186.602 289.8 269.102 283.7 319.202H337.9V319.102Z" fill="#9035FF"/>
<path d="M300.2 280.202C294.3 279.202 288.9 276.402 283.4 274.102C281.2 273.202 278.9 272.302 276.6 271.602C273.9 270.802 271.3 269.202 268.4 269.102C266.6 269.102 267.1 271.602 267.8 272.502C268.5 273.302 269.3 274.002 270.3 274.602C272 275.702 275.5 277.902 276.2 279.902C274 280.502 271.7 280.202 269.4 280.402C267 280.702 264.6 281.002 262.2 281.502C259.8 282.002 257.5 282.502 255.2 283.202C253.2 283.802 251 284.002 249.1 284.802C248.6 285.002 248.1 285.402 248.1 285.902C248 287.702 252.1 287.502 253.1 287.402L272 285.502C265.4 286.102 258.8 287.302 252.4 289.002C251.8 289.102 251.2 289.402 250.8 289.902C249.2 292.302 256 292.402 256.7 292.502C260.2 292.602 263.7 292.502 267.2 292.202L258.7 293.602C256.8 293.902 254.9 294.202 253 294.702C252 294.902 251 295.402 250.2 296.102C250.1 296.202 250 296.302 250 296.502C250 296.702 250.2 296.802 250.4 296.902C252 297.502 253.7 297.802 255.4 297.802C258.9 297.902 262.5 297.602 266 297.102L255.5 298.202C254.6 298.202 253.7 298.502 252.9 299.102C252.7 299.702 253 300.402 253.5 300.702C254 301.002 254.7 301.202 255.3 301.202C259.2 301.702 263 301.202 266.9 301.202C271.1 301.202 275.3 301.002 279.5 300.402C287.8 299.402 295.8 297.002 303.3 293.302" fill="white"/>
<path d="M259.501 302.299C258.101 302.299 256.701 302.199 255.301 302.099C254.601 302.099 253.801 301.799 253.201 301.499C252.401 300.999 252.001 299.999 252.301 299.099C252.301 298.999 252.401 298.999 252.401 298.899C252.601 298.699 252.701 298.599 252.901 298.499C251.901 298.399 250.901 298.099 250.001 297.699C249.601 297.599 249.301 297.199 249.201 296.699C249.201 296.399 249.301 296.099 249.601 295.899C250.501 295.099 251.501 294.599 252.701 294.399C254.301 293.999 255.901 293.699 257.501 293.399H256.501C252.701 293.299 250.501 292.699 249.901 291.599C249.601 290.999 249.701 290.399 250.101 289.899C250.601 289.299 251.301 288.799 252.101 288.699L253.801 288.199L253.001 288.299C252.401 288.399 249.001 288.599 247.801 287.399C247.401 287.099 247.201 286.599 247.301 286.099C247.401 285.299 247.901 284.699 248.701 284.499C250.001 283.899 251.401 283.499 252.801 283.299C253.501 283.199 254.201 282.999 254.901 282.799C257.201 282.099 259.601 281.599 261.901 281.099C264.201 280.599 266.801 280.199 269.201 279.999C270.101 279.899 271.001 279.899 271.801 279.899C272.901 279.899 274.001 279.799 275.201 279.699C274.301 278.299 272.101 276.799 270.701 275.899L269.701 275.199C268.801 274.699 268.001 273.999 267.301 273.099C266.601 272.099 266.401 270.799 266.801 269.599C267.101 268.999 267.801 268.599 268.401 268.699C270.401 268.899 272.301 269.399 274.201 270.299C275.101 270.699 275.901 270.999 276.801 271.299C279.101 271.999 281.401 272.899 283.601 273.799L286.601 275.099C291.001 276.999 295.501 278.999 300.201 279.799C300.501 279.899 300.801 280.199 300.701 280.599C300.601 280.899 300.301 281.099 300.001 281.099C295.101 280.299 290.501 278.199 286.101 276.299C285.101 275.899 284.101 275.399 283.101 274.999C280.901 274.099 278.701 273.199 276.401 272.499C275.501 272.199 274.601 271.799 273.701 271.499C272.001 270.699 270.201 270.199 268.401 269.999C268.201 269.999 268.001 270.099 267.901 270.199C267.701 270.899 267.801 271.699 268.301 272.399C268.901 273.099 269.501 273.699 270.301 274.199L271.301 274.899C273.201 276.199 276.101 278.099 276.701 279.999C276.801 280.199 276.801 280.299 276.701 280.499C276.601 280.599 276.501 280.799 276.301 280.799C274.901 281.199 273.401 281.299 271.901 281.299C271.001 281.299 270.201 281.299 269.401 281.399C267.001 281.699 264.601 281.999 262.201 282.499C259.801 282.999 257.501 283.499 255.301 284.199C254.601 284.399 253.901 284.599 253.101 284.699C251.801 284.899 250.501 285.299 249.301 285.799C248.901 285.999 248.701 286.199 248.701 286.399C248.701 286.499 248.701 286.599 248.801 286.699C249.401 287.299 251.401 287.399 253.001 287.199L271.901 285.299C272.201 285.199 272.601 285.499 272.601 285.799C272.701 286.099 272.401 286.499 272.101 286.499H272.001C265.401 287.099 258.901 288.299 252.501 289.999C252.001 290.099 251.601 290.299 251.301 290.599C251.101 290.899 251.201 290.999 251.201 290.999C251.501 291.499 253.301 292.099 256.701 292.099C260.201 292.199 263.701 292.099 267.101 291.799C267.401 291.799 267.701 291.999 267.801 292.399C267.801 292.699 267.601 293.099 267.301 293.099L258.801 294.499C256.901 294.799 255.001 295.099 253.201 295.599C252.401 295.799 251.601 296.099 250.901 296.599C252.401 297.199 253.901 297.399 255.501 297.399C257.201 297.399 258.801 297.399 260.501 297.299L266.001 296.699C266.301 296.699 266.701 296.899 266.701 297.199C266.801 297.499 266.501 297.899 266.201 297.899C264.301 298.199 262.501 298.399 260.601 298.499L255.701 298.999C255.001 298.999 254.301 299.199 253.601 299.599C253.601 299.899 253.801 300.199 254.001 300.399C254.501 300.699 255.001 300.799 255.501 300.799C258.001 301.099 260.601 301.099 263.201 300.899C264.501 300.899 265.801 300.799 267.101 300.799C271.301 300.799 275.501 300.599 279.601 299.999C287.801 298.999 295.801 296.599 303.201 292.899C303.501 292.699 303.901 292.899 304.101 293.199C304.301 293.499 304.101 293.899 303.801 294.099C296.301 297.799 288.101 300.199 279.801 301.299C275.601 301.899 271.301 302.099 267.101 302.099C265.801 302.099 264.501 302.099 263.301 302.199C262.101 302.299 260.701 302.299 259.501 302.299Z" fill="#22262E"/>
<path d="M332.7 199.5C332.7 199.5 382.1 289.3 364.4 295.4C357.2 297.9 292.3 301.7 292.3 301.7L285.4 273.7L334.1 266.1L332.7 199.5Z" fill="#9035FF"/>
<path d="M268.9 158.999C262.6 158.999 257.5 153.899 257.5 147.599C257.5 141.299 262.6 136.199 268.9 136.199C275.2 136.199 280.3 141.299 280.3 147.599C280.2 153.899 275.1 158.999 268.9 158.999ZM268.9 137.599C263.3 137.599 258.8 142.199 258.9 147.699C259 153.199 263.5 157.799 269 157.699C274.6 157.699 279.1 153.099 279 147.599C279 141.999 274.5 137.499 268.9 137.599C268.9 137.499 268.9 137.499 268.9 137.599Z" fill="#22262E"/>
<path d="M291.001 157.101C284.701 157.101 279.601 152.001 279.601 145.701C279.601 139.401 284.701 134.301 291.001 134.301C297.301 134.301 302.401 139.401 302.401 145.701C302.401 152.001 297.301 157.101 291.001 157.101ZM291.001 135.701C285.401 135.701 280.901 140.201 280.901 145.801C280.901 151.401 285.401 155.901 291.001 155.901C296.601 155.901 301.101 151.401 301.101 145.801C301.101 140.201 296.601 135.701 291.001 135.701Z" fill="#22262E"/>
<path d="M285.3 274.201C285 274.201 284.7 274.001 284.7 273.701C284.6 273.401 284.9 273 285.2 273L333.2 265.6L321.6 215.7C321.5 215.4 321.7 215 322.1 214.9C322.4 214.8 322.8 215 322.9 215.4L334.6 265.9C334.6 266.1 334.6 266.3 334.5 266.4C334.4 266.5 334.2 266.601 334.1 266.701L285.5 274.201H285.3Z" fill="#22262E"/>
<path d="M239.7 265.2C239.3 265.2 239 264.8 239.1 264.5C241.3 246.5 245.4 212.3 245.5 211.6H246.1L246.2 211C246.8 211.1 246.8 211.1 245.7 220L240.3 264.7C240.3 265 240.1 265.2 239.7 265.2Z" fill="#22262E"/>
<path d="M226.1 258.399C225.9 258.399 225.6 258.299 225.5 257.999L196.4 199.699C196.2 199.399 196.3 198.999 196.6 198.799C196.9 198.599 197.3 198.699 197.5 198.999C197.5 198.999 197.5 199.099 197.6 199.099L226.7 257.399C226.8 257.699 226.7 258.099 226.4 258.299C226.3 258.399 226.2 258.399 226.1 258.399Z" fill="#22262E"/>
<path d="M301.801 247.999C301.601 247.999 301.501 247.899 301.401 247.799C301.101 247.599 301.101 247.199 301.301 246.899L315.701 230.299L305.901 220.299C305.801 220.199 305.701 219.999 305.701 219.799C305.701 219.599 305.801 219.499 305.901 219.399L315.701 210.299C312.001 204.699 306.601 196.699 306.101 196.199C305.901 195.999 305.901 195.499 306.101 195.299C306.301 195.099 306.701 194.999 307.001 195.299C307.701 195.999 315.501 207.699 317.001 210.099C317.201 210.399 317.101 210.699 316.901 210.899L307.201 219.999L316.901 229.899C317.101 230.099 317.101 230.499 316.901 230.799L302.101 247.899C302.101 247.899 301.901 247.999 301.801 247.999Z" fill="#22262E"/>
<path d="M265.4 243.9C265.2 243.9 265 243.8 264.9 243.6L252.9 226.5C252.7 226.2 252.8 225.8 253 225.6L265.1 216L257.7 208.3C257.6 208.2 257.5 208 257.5 207.8C257.5 207.6 257.6 207.5 257.7 207.4L271 195.3C271.3 195.1 271.7 195.1 271.9 195.4C272.1 195.6 272.1 196 271.9 196.2L259 207.8L266.4 215.6C266.5 215.7 266.6 215.9 266.6 216.1C266.6 216.3 266.5 216.4 266.4 216.5L254.2 226.2L265.9 242.8C266.1 243.1 266 243.5 265.7 243.7C265.6 243.8 265.5 243.9 265.4 243.9Z" fill="#22262E"/>
<path d="M181.301 188.8C181.001 188.8 180.701 188.5 180.701 188.2C180.301 183.1 185.701 180.2 186.001 180.1C186.301 179.9 186.701 180.1 186.901 180.4C187.101 180.7 186.901 181.1 186.601 181.3C186.501 181.3 181.601 183.9 182.001 188.1C182.001 188.5 181.701 188.8 181.301 188.8Z" fill="#22262E"/>
<path d="M301 302.301C300.7 302.301 300.4 302.001 300.4 301.701C300.4 301.401 300.6 301.101 301 301.001L336.7 298.301C337 298.301 337.3 298.501 337.4 298.801V298.901C337.4 299.201 337.2 299.601 336.8 299.601L301 302.301Z" fill="#22262E"/>
<path d="M112.5 334.399C129.4 334.399 143.1 320.699 143.1 303.799C143.1 286.899 129.4 273.199 112.5 273.199C95.6005 273.199 81.9004 286.899 81.9004 303.799C81.9004 320.699 95.6005 334.399 112.5 334.399Z" fill="white"/>
<path d="M112.5 335.1C95.2002 335.1 81.2002 321.1 81.2002 303.8C81.2002 286.5 95.2002 272.5 112.5 272.5C129.8 272.5 143.8 286.5 143.8 303.8C143.8 321.1 129.8 335.1 112.5 335.1ZM112.5 273.9C96.0002 273.9 82.6002 287.3 82.6002 303.8C82.6002 320.3 96.0002 333.7 112.5 333.7C129 333.7 142.4 320.3 142.4 303.8C142.4 287.3 129.1 273.9 112.5 273.9Z" fill="#D1D3D4"/>
<path d="M111.4 282.102H113.9C114 282.102 114.1 282.202 114.2 282.202C117.9 282.402 121.5 283.602 124.5 285.702C131.6 290.602 134.9 297.502 134.2 306.102C133.8 310.902 131.7 315.402 128.3 318.802C123.7 323.702 117 326.202 110.3 325.402C106.8 325.102 103.5 323.902 100.6 321.902C95.4004 318.502 92.0004 313.002 91.1004 306.902C91.0004 306.302 90.9004 305.702 90.9004 305.002V302.602C90.9004 302.502 90.9004 302.302 91.0004 302.102C91.1004 301.202 91.2004 300.202 91.4004 299.302C93.3004 290.402 100.5 283.602 109.6 282.202L111.4 282.102ZM128.5 315.902C131 312.702 132.3 308.702 132.5 304.702H123.9C123.8 306.202 123.7 307.802 123.5 309.302C123.3 310.802 123 312.302 122.7 313.702L128.5 315.902ZM92.6004 304.702C92.8004 308.802 94.2004 312.702 96.7004 315.902L102.5 313.602C101.8 310.702 101.4 307.602 101.3 304.602L92.6004 304.702ZM132.5 302.902C132.7 299.702 130.3 293.402 128.4 291.702L122.6 294.002C123.4 296.902 123.8 300.002 123.8 303.002L132.5 302.902ZM102.5 293.902L96.7004 291.702C94.6004 293.902 92.3004 300.302 92.7004 302.902H101.3C101.4 299.902 101.8 296.902 102.5 293.902ZM113.5 312.402C114.8 312.502 116 312.602 117.3 312.702C118.6 312.802 119.8 313.102 121 313.202C121 313.102 121.1 313.002 121.1 312.902C121.7 310.302 122.1 307.702 122.2 305.002C122.2 304.602 122.1 304.502 121.8 304.502C119.2 304.502 116.6 304.502 114 304.502H113.6L113.5 312.402ZM103 304.702C103 307.602 103.4 310.502 104.1 313.302L111.6 312.402V304.702H103ZM122.1 302.902C122.1 300.002 121.7 297.102 121 294.402L113.5 295.302V303.002L122.1 302.902ZM104.1 294.402C103.4 297.202 103 300.102 103 302.902H111.6V295.202L104.1 294.402ZM120.4 292.602C119.8 290.702 118.9 288.902 117.8 287.302C117.1 286.202 116.1 285.202 114.9 284.502C114.4 284.302 113.9 284.102 113.4 283.902V293.402C115.8 293.302 118.1 293.102 120.4 292.602ZM113.4 314.302V323.702C114.4 323.502 115.4 323.002 116.2 322.302C117.8 320.702 119.1 318.802 119.8 316.702C120 316.202 120.2 315.702 120.4 315.202C118.1 314.602 115.8 314.302 113.4 314.302ZM111.6 323.702V314.202C109.2 314.202 106.9 314.502 104.6 315.002C105 316.002 105.4 317.002 105.8 317.902C106.5 319.602 107.6 321.102 109 322.302C109.8 323.002 110.7 323.502 111.6 323.702ZM104.6 292.602C106.9 293.102 109.3 293.402 111.7 293.402V284.002C111 284.102 110.3 284.402 109.7 284.902C108.3 285.902 107.1 287.302 106.4 288.902C105.7 290.002 105.2 291.202 104.6 292.602ZM127.2 317.402C125.6 316.602 123.9 315.902 122.1 315.502C120.5 319.702 120 320.502 117.9 323.102C121.5 322.102 124.7 320.102 127.2 317.402ZM107.1 284.602C104.9 284.702 98.9004 288.402 97.8004 290.302L102.8 292.202C103.4 290.802 104 289.402 104.6 288.202C105.3 286.902 106.2 285.702 107.1 284.602ZM97.8004 317.402C100.3 320.102 103.6 322.102 107.2 323.102C105.2 320.902 103.8 318.302 102.9 315.502C101.2 315.902 99.5004 316.502 97.8004 317.402ZM118 284.602C119 285.702 119.8 286.902 120.4 288.202C121 289.502 121.6 290.802 122.2 292.202C123.9 291.702 125.6 291.102 127.2 290.302C124.7 287.602 121.5 285.602 118 284.602Z" fill="#D1D3D4"/>
<path d="M406.301 291.201C419.39 291.201 430.001 280.59 430.001 267.501C430.001 254.412 419.39 243.801 406.301 243.801C393.211 243.801 382.601 254.412 382.601 267.501C382.601 280.59 393.211 291.201 406.301 291.201Z" fill="white"/>
<path d="M406.3 291.902C392.8 291.902 381.9 281.002 381.9 267.502C381.9 254.002 392.8 243.102 406.3 243.102C419.8 243.102 430.7 254.002 430.7 267.502C430.7 281.002 419.8 291.902 406.3 291.902ZM406.3 244.502C393.6 244.502 383.3 254.802 383.3 267.502C383.3 280.202 393.6 290.502 406.3 290.502C419 290.502 429.3 280.202 429.3 267.502C429.3 254.802 419 244.502 406.3 244.502Z" fill="#D1D3D4"/>
<path d="M418.9 280.1H393.7C390.7 280.1 388.2 277.7 388.2 274.7V260.4C388.2 257.4 390.6 255 393.7 255H418.9C421.9 255 424.4 257.4 424.4 260.4V274.7C424.4 277.7 421.9 280.1 418.9 280.1ZM393.7 256.3C391.5 256.3 389.7 258.1 389.7 260.3V274.6C389.7 276.8 391.5 278.6 393.7 278.6H418.9C421.1 278.6 423 276.8 423 274.6V260.3C423 258.1 421.2 256.3 418.9 256.3H393.7Z" fill="#D1D3D4"/>
<path d="M400.501 275.502C400.401 275.502 400.201 275.502 400.101 275.402C399.901 275.302 399.801 275.002 399.801 274.802V260.302C399.801 259.902 400.101 259.602 400.501 259.602C400.601 259.602 400.701 259.602 400.801 259.702L415.801 267.002C416.001 267.102 416.201 267.402 416.201 267.602C416.201 267.902 416.001 268.102 415.801 268.202L400.801 275.502C400.801 275.502 400.701 275.502 400.501 275.502ZM401.201 261.402V273.702L413.801 267.602L401.201 261.402Z" fill="#D1D3D4"/>
<path d="M112.701 254.802C136.504 254.802 155.801 235.505 155.801 211.702C155.801 187.898 136.504 168.602 112.701 168.602C88.8971 168.602 69.6006 187.898 69.6006 211.702C69.6006 235.505 88.8971 254.802 112.701 254.802Z" fill="white"/>
<path d="M112.7 255.502C88.5004 255.502 68.9004 235.902 68.9004 211.702C68.9004 187.502 88.5004 167.902 112.7 167.902C136.9 167.902 156.5 187.502 156.5 211.702C156.5 235.902 136.9 255.502 112.7 255.502ZM112.7 169.302C89.3004 169.302 70.3004 188.302 70.3004 211.702C70.3004 235.102 89.3004 254.102 112.7 254.102C136.1 254.102 155.1 235.102 155.1 211.702C155.1 188.302 136.1 169.302 112.7 169.302Z" fill="#D1D3D4"/>
<path d="M140.2 231.601H85.2C84.8 231.601 84.5 231.301 84.5 230.901V192.501C84.5 192.101 84.8 191.801 85.2 191.801H140.2C140.6 191.801 140.9 192.101 140.9 192.501V230.901C140.9 231.301 140.6 231.601 140.2 231.601ZM85.9 230.201H139.5V193.201H85.9V230.201Z" fill="#D1D3D4"/>
<path d="M85.2001 231.6C85.0001 231.6 84.9001 231.6 84.8001 231.5C84.5001 231.3 84.4001 230.9 84.6001 230.5L106.3 201.3C106.4 201.1 106.6 201 106.8 201C107 201 107.2 201.1 107.4 201.2L124.4 221.3C124.6 221.6 124.6 222 124.3 222.3C124 222.5 123.6 222.5 123.4 222.2L107 202.7L85.8001 231.3C85.6001 231.5 85.4001 231.6 85.2001 231.6Z" fill="#D1D3D4"/>
<path d="M119.2 217.002C119.1 217.002 118.9 217.002 118.8 216.902C118.5 216.702 118.4 216.302 118.6 215.902L127.4 203.202C127.5 203.002 127.7 202.902 127.9 202.902C128.1 202.902 128.3 203.002 128.5 203.102L140.7 215.802C141 216.102 141 216.502 140.7 216.802C140.4 217.102 140 217.102 139.7 216.802L128.1 204.702L119.8 216.702C119.7 216.902 119.5 217.002 119.2 217.002Z" fill="#D1D3D4"/>
<path d="M120.201 204.302C117.901 204.302 116.101 202.502 116.101 200.202C116.101 197.902 117.901 196.102 120.201 196.102C122.501 196.102 124.301 197.902 124.301 200.202C124.301 202.402 122.401 204.302 120.201 204.302ZM120.201 197.502C118.701 197.502 117.501 198.702 117.501 200.202C117.501 201.702 118.701 202.902 120.201 202.902C121.701 202.902 122.901 201.702 122.901 200.202C122.901 198.702 121.701 197.502 120.201 197.502Z" fill="#D1D3D4"/>
<path d="M390.901 214.501C412.771 214.501 430.501 196.771 430.501 174.901C430.501 153.03 412.771 135.301 390.901 135.301C369.03 135.301 351.301 153.03 351.301 174.901C351.301 196.771 369.03 214.501 390.901 214.501Z" fill="white"/>
<path d="M390.901 215.2C368.701 215.2 350.601 197.2 350.701 174.9C350.801 152.6 368.701 134.6 391.001 134.7C413.201 134.7 431.201 152.7 431.201 175C431.101 197.1 413.101 215.2 390.901 215.2ZM390.901 136C369.401 136 352.001 153.4 352.001 174.9C352.001 196.4 369.401 213.8 390.901 213.8C412.401 213.8 429.801 196.4 429.801 174.9C429.701 153.5 412.301 136.1 390.901 136Z" fill="#D1D3D4"/>
<path d="M416.701 189.8H365.001C364.601 189.8 364.301 189.5 364.301 189.1V160.7C364.301 160.3 364.601 160 365.001 160H416.601C417.001 160 417.301 160.3 417.301 160.7V189.1C417.301 189.5 417.001 189.8 416.701 189.8ZM365.701 188.4H416.001V161.3H365.701V188.4Z" fill="#D1D3D4"/>
<path d="M390.9 179.102C390.8 179.102 390.6 179.102 390.5 179.002L364.7 161.202C364.4 161.002 364.4 160.502 364.6 160.202C364.8 159.902 365.2 159.902 365.5 160.002L390.9 177.502L416.3 160.002C416.6 159.802 417.1 159.802 417.3 160.202C417.5 160.502 417.5 160.902 417.2 161.202L391.3 179.002C391.1 179.102 391 179.102 390.9 179.102Z" fill="#D1D3D4"/>
<path d="M365 189.799C364.8 189.799 364.6 189.699 364.4 189.499C364.2 189.199 364.2 188.799 364.5 188.499L385.2 174.299C385.5 174.099 386 174.199 386.2 174.499C386.4 174.799 386.4 175.299 386 175.499L365.3 189.699C365.3 189.799 365.1 189.799 365 189.799Z" fill="#D1D3D4"/>
<path d="M416.7 189.799C416.6 189.799 416.4 189.799 416.3 189.699L395.6 175.499C395.3 175.299 395.2 174.799 395.4 174.499C395.6 174.199 396.1 174.099 396.4 174.299L417.1 188.499C417.4 188.699 417.5 189.099 417.3 189.499C417.1 189.699 416.9 189.899 416.7 189.799Z" fill="#D1D3D4"/>
<path d="M184.2 161.5C202.149 161.5 216.7 146.949 216.7 129C216.7 111.051 202.149 96.5 184.2 96.5C166.251 96.5 151.7 111.051 151.7 129C151.7 146.949 166.251 161.5 184.2 161.5Z" fill="white"/>
<path d="M184.2 162.201C165.8 162.201 151 147.301 151 129.001C151 110.701 165.9 95.8008 184.2 95.8008C202.6 95.8008 217.4 110.701 217.4 129.001C217.4 147.401 202.5 162.201 184.2 162.201ZM184.2 97.2008C166.6 97.2008 152.4 111.401 152.4 129.001C152.4 146.601 166.6 160.801 184.2 160.801C201.8 160.801 216 146.601 216 129.001C216 111.401 201.7 97.2008 184.2 97.2008Z" fill="#D1D3D4"/>
<path d="M179.901 134.302H167.501C164.301 134.302 161.601 131.702 161.601 128.402V126.802C161.601 123.602 164.201 120.902 167.501 120.902H179.901C180.301 120.902 180.601 121.202 180.601 121.602V133.502C180.601 133.902 180.201 134.302 179.901 134.302ZM167.401 122.302C164.901 122.302 162.901 124.302 162.901 126.802V128.402C162.901 130.902 164.901 132.902 167.401 132.902H179.101V122.402L167.401 122.302Z" fill="#D1D3D4"/>
<path d="M199.9 144.199C199.8 144.199 199.7 144.199 199.6 144.099L179.6 134.199C179.4 134.099 179.2 133.799 179.2 133.599V121.299C179.2 120.999 179.4 120.799 179.6 120.699L199.6 110.799C199.9 110.599 200.4 110.799 200.5 111.099C200.5 111.199 200.6 111.299 200.6 111.399V143.499C200.6 143.699 200.5 143.999 200.3 144.099C200.1 144.099 200 144.199 199.9 144.199ZM180.6 133.199L199.2 142.399V112.599L180.6 121.799V133.199Z" fill="#D1D3D4"/>
<path d="M199.9 134.402C199.5 134.402 199.2 134.102 199.2 133.702C199.2 133.302 199.5 133.002 199.9 133.002C203 133.002 205.4 130.502 205.4 127.502C205.4 124.402 202.9 122.002 199.9 122.002C199.5 122.002 199.2 121.702 199.2 121.302C199.2 120.902 199.5 120.602 199.9 120.602C203.7 120.602 206.8 123.702 206.8 127.502C206.8 131.302 203.7 134.402 199.9 134.402Z" fill="#D1D3D4"/>
<path d="M172.801 147.302C170.801 147.302 169.301 145.702 169.301 143.802V133.602C169.301 133.202 169.601 132.902 170.001 132.902H175.701C176.101 132.902 176.401 133.202 176.401 133.602V143.802C176.301 145.702 174.701 147.302 172.801 147.302ZM170.601 134.302V143.802C170.601 145.002 171.601 145.902 172.701 145.902C173.901 145.902 174.801 144.902 174.801 143.802V134.302H170.601Z" fill="#D1D3D4"/>
<path d="M171.7 126.099H166.4C166 126.099 165.7 125.799 165.7 125.399C165.7 124.999 166 124.699 166.4 124.699H171.7C172.1 124.699 172.4 124.999 172.4 125.399C172.4 125.699 172 126.099 171.7 126.099Z" fill="#D1D3D4"/>
<path d="M187.9 309.599H152.2C151.8 309.599 151.5 309.299 151.5 308.899C151.5 308.499 151.8 308.199 152.2 308.199H187.9C188.3 308.199 188.6 308.499 188.6 308.899C188.6 309.299 188.3 309.599 187.9 309.599Z" fill="#D1D3D4"/>
<path d="M196.3 300.9H152.2C151.8 300.9 151.5 300.6 151.5 300.2C151.5 299.8 151.8 299.5 152.2 299.5H196.3C196.7 299.5 197 299.8 197 300.2C197 300.6 196.7 300.9 196.3 300.9Z" fill="#D1D3D4"/>
<path d="M194.3 292.4H152.2C151.8 292.4 151.5 292.1 151.5 291.7C151.5 291.3 151.8 291 152.2 291H194.3C194.7 291 195 291.3 195 291.7C195 292 194.7 292.4 194.3 292.4Z" fill="#D1D3D4"/>
</svg>
