<svg width="500" height="500" viewBox="0 0 500 500" fill="none" xmlns="http://www.w3.org/2000/svg">
<path d="M250 412C310.365 412 359.3 403.493 359.3 393C359.3 382.507 310.365 374 250 374C189.635 374 140.7 382.507 140.7 393C140.7 403.493 189.635 412 250 412Z" fill="#D1D3D4"/>
<path d="M328.2 222.597C318.7 214.197 322 186.297 322 186.297H218.7C218.7 186.297 222 214.197 212.5 222.597C203 230.997 184.4 235.197 184.4 259.897V389.297H356.2V259.897C356.2 235.197 337.6 230.997 328.2 222.597Z" fill="#FFFDFA"/>
<path d="M356.2 389.998H184.4C184 389.998 183.7 389.698 183.7 389.298V259.898C183.7 240.698 195.1 233.398 204.2 227.598C206.9 225.998 209.5 224.098 212 222.098C221.1 213.998 218 186.698 217.9 186.398C217.9 186.198 217.9 185.998 218.1 185.798C218.2 185.698 218.4 185.598 218.6 185.598H322C322.2 185.598 322.4 185.698 322.5 185.798C322.6 185.898 322.7 186.198 322.7 186.398C322.7 186.698 319.6 213.998 328.6 222.098C331.1 224.098 333.7 225.998 336.4 227.598C345.5 233.398 356.9 240.698 356.9 259.898V389.298C356.9 389.698 356.6 389.998 356.2 389.998ZM185.1 388.598H355.5V259.898C355.5 241.398 344.9 234.698 335.6 228.798C332.8 227.098 330.1 225.198 327.6 223.098C318.8 215.198 320.6 191.698 321.1 186.998H219.5C220 191.698 221.9 215.198 213 223.098C210.5 225.198 207.8 227.098 205 228.798C195.7 234.698 185.1 241.498 185.1 259.898V388.598Z" fill="#22262E"/>
<path d="M252.1 339.598C247.1 347.898 252.7 366.298 252.7 366.298L260.1 371.698C271.2 378.298 285.5 374.798 292.2 363.698C298.8 352.598 295.3 338.298 284.2 331.598L276 327.598C275.9 327.698 257.1 331.398 252.1 339.598Z" fill="#48D664"/>
<path d="M272.1 375.698C267.7 375.698 263.5 374.498 259.7 372.298L252.3 366.898C252.2 366.798 252.1 366.698 252.1 366.498C251.9 365.698 246.5 347.698 251.6 339.198C256.7 330.698 275.1 326.998 275.9 326.898C276 326.898 276.2 326.898 276.3 326.898L284.5 330.898C295.9 337.698 299.6 352.498 292.8 363.898C288.4 371.298 280.6 375.798 272.1 375.698ZM253.3 365.898L260.5 371.098C271.2 377.498 285.2 373.998 291.6 363.298C298 352.598 294.5 338.598 283.8 332.198L275.9 328.298C273.8 328.798 257.2 332.498 252.7 339.898C248.2 347.298 252.7 363.798 253.3 365.898Z" fill="#22262E"/>
<path d="M267.001 371.999C279.924 371.999 290.401 361.523 290.401 348.599C290.401 335.676 279.924 325.199 267.001 325.199C254.077 325.199 243.601 335.676 243.601 348.599C243.601 361.523 254.077 371.999 267.001 371.999Z" fill="#48D664"/>
<path d="M267 372.7C253.7 372.7 242.9 361.9 242.9 348.6C242.9 335.3 253.7 324.5 267 324.5C280.3 324.5 291.1 335.3 291.1 348.6C291.1 353 289.9 357.2 287.7 361C283.3 368.3 275.5 372.7 267 372.7ZM267.1 325.9C254.6 325.9 244.4 336 244.4 348.5C244.4 361 254.5 371.2 267 371.2C279.5 371.2 289.7 361.1 289.7 348.6C289.7 340.6 285.5 333.2 278.7 329.1C275.2 327.1 271.2 326 267.1 325.9Z" fill="#22262E"/>
<path d="M253.901 337.899L256.801 339.699C256.901 339.799 257.101 339.799 257.201 339.699C258.301 338.399 259.801 337.499 261.301 336.899C263.001 336.299 264.801 336.299 266.501 336.999C267.001 337.199 267.401 337.399 267.901 337.599L265.201 342.099C264.501 341.699 263.701 341.499 262.901 341.599C262.301 341.799 261.701 341.999 261.101 342.199V342.299L266.701 345.699L267.101 345.299C268.101 344.199 269.201 343.299 270.401 342.399C272.201 341.099 274.501 340.899 276.501 341.899C278.401 342.699 279.901 344.099 280.701 345.999C281.401 347.499 281.501 349.199 281.201 350.799C281.001 351.799 280.701 352.799 280.401 353.799L282.601 355.099L280.101 359.199L277.901 357.899C277.201 358.599 276.501 359.299 275.801 359.899C274.401 361.099 272.601 361.799 270.801 361.899C269.201 361.899 267.601 361.499 266.301 360.699L269.001 356.299C270.601 357.199 272.601 356.899 273.901 355.599L267.901 351.999C267.101 352.699 266.401 353.399 265.701 354.099C264.801 354.899 263.701 355.599 262.601 355.899C261.401 356.199 260.101 356.099 258.901 355.699C257.501 355.199 256.201 354.299 255.201 353.099C253.801 351.399 253.201 349.099 253.701 346.899C253.901 345.999 254.201 345.199 254.501 344.299C254.501 344.199 254.601 344.099 254.601 343.999L251.601 342.199L253.901 337.899ZM276.401 351.499C276.701 350.799 276.801 349.899 276.701 349.099C276.401 347.699 275.201 346.699 273.801 346.799C272.801 347.099 272.001 347.599 271.301 348.299L276.401 351.499ZM258.301 346.199C258.201 346.899 258.201 347.599 258.201 348.299C258.301 349.699 259.601 350.799 261.001 350.699C261.101 350.699 261.301 350.699 261.401 350.599C262.101 350.299 262.801 349.799 263.401 349.199L258.301 346.199Z" fill="#FFFDFA"/>
<path d="M266.8 210.9C260.5 218.3 263 237.3 263 237.3L269.4 243.8C279.2 252.2 294 251 302.3 241.2C310.7 231.4 309.5 216.6 299.7 208.3L292.3 203C292.3 203 273 203.5 266.8 210.9Z" fill="#48D664"/>
<path d="M284.5 250.099C278.8 250.099 273.2 248.099 268.9 244.299L262.5 237.699C262.4 237.599 262.3 237.499 262.3 237.299C262.2 236.499 259.9 217.799 266.3 210.299C272.7 202.799 291.5 202.199 292.3 202.199C292.5 202.199 292.6 202.299 292.7 202.299L300.1 207.599C310.2 216.199 311.5 231.399 302.9 241.499C298.3 246.999 291.6 250.099 284.5 250.099ZM263.6 236.999L269.8 243.299C279.4 251.399 293.7 250.199 301.8 240.599C309.8 231.099 308.7 216.899 299.3 208.799L292.1 203.699C289.9 203.799 273 204.699 267.3 211.299C261.6 217.899 263.4 234.799 263.6 236.999Z" fill="#22262E"/>
<path d="M280.001 245.597C292.924 245.597 303.401 235.12 303.401 222.197C303.401 209.273 292.924 198.797 280.001 198.797C267.077 198.797 256.601 209.273 256.601 222.197C256.601 235.12 267.077 245.597 280.001 245.597Z" fill="#48D664"/>
<path d="M280 246.2C266.7 246.2 255.9 235.4 255.9 222.1C255.9 208.8 266.7 198 280 198C285.7 198 291.3 200.1 295.7 203.8C305.8 212.4 307 227.6 298.4 237.7C293.7 243.2 287 246.3 280 246.2ZM280 199.5C267.5 199.5 257.3 209.6 257.3 222.1C257.3 234.6 267.4 244.8 279.9 244.8C292.4 244.8 302.6 234.7 302.6 222.2C302.6 215.6 299.7 209.3 294.7 205C290.6 201.5 285.4 199.5 280 199.5Z" fill="#22262E"/>
<path d="M268.9 209.5C269.8 210.2 270.6 211 271.5 211.7C271.6 211.8 271.8 211.8 271.9 211.7C273.2 210.6 274.8 209.9 276.5 209.6C278.3 209.3 280.1 209.7 281.6 210.6C282 210.8 282.4 211.1 282.8 211.4L279.4 215.4C278.8 214.9 278 214.6 277.2 214.6C276.6 214.7 276 214.7 275.3 214.9V215L280.3 219.3C280.4 219.2 280.6 219.1 280.8 218.9C281.9 218 283.2 217.2 284.5 216.6C286.5 215.6 288.8 215.8 290.6 217.1C293.8 219.1 295.2 223.2 293.7 226.7C293.3 227.7 292.8 228.6 292.4 229.6L294.3 231.3L291.2 235L289.2 233.3C288.4 233.9 287.6 234.4 286.8 234.9C285.2 235.9 283.4 236.3 281.5 236.1C279.9 235.9 278.5 235.2 277.3 234.1L280.7 230.2C282.2 231.4 284.2 231.4 285.7 230.3L280.3 225.7C279.4 226.3 278.6 226.8 277.7 227.4C276.7 228.1 275.5 228.5 274.3 228.7C273.1 228.8 271.8 228.5 270.7 227.8C269.4 227.1 268.2 226 267.5 224.6C266.4 222.6 266.2 220.3 267 218.2C267.4 217.4 267.7 216.6 268.2 215.8C268.2 215.7 268.3 215.6 268.4 215.5L265.7 213.2L268.9 209.5ZM288.9 226.5C289.3 225.8 289.6 225 289.6 224.2C289.6 222.8 288.5 221.6 287.1 221.5C286.1 221.6 285.1 222 284.3 222.6L288.9 226.5ZM271.9 218.4C271.7 219.1 271.5 219.7 271.4 220.4C271.3 221.8 272.3 223.1 273.8 223.2C273.9 223.2 274.1 223.2 274.2 223.2C275 223 275.7 222.7 276.3 222.2L271.9 218.4Z" fill="#FFFDFA"/>
<path d="M206.2 177.898V196.798C206.2 204.598 234.9 210.998 270.3 210.998C305.7 210.998 334.4 204.598 334.4 196.798V177.898H206.2Z" fill="#FFFDFA"/>
<path d="M270.3 211.797C238.4 211.797 205.5 206.197 205.5 196.897V177.997C205.5 177.597 205.8 177.297 206.2 177.297H334.4C334.8 177.297 335.1 177.597 335.1 177.997V196.897C335.2 206.197 302.2 211.797 270.3 211.797ZM206.9 178.597V196.797C206.9 203.297 232.4 210.297 270.3 210.297C308.2 210.297 333.7 203.297 333.7 196.797V178.597H206.9Z" fill="#22262E"/>
<path d="M270.3 192.099C305.702 192.099 334.4 185.742 334.4 177.899C334.4 170.057 305.702 163.699 270.3 163.699C234.899 163.699 206.2 170.057 206.2 177.899C206.2 185.742 234.899 192.099 270.3 192.099Z" fill="#FFFDFA"/>
<path d="M270.3 192.8C238.4 192.8 205.5 187.2 205.5 177.9C205.5 168.6 238.5 163 270.3 163C302.1 163 335.1 168.6 335.1 177.9C335.1 187.2 302.2 192.8 270.3 192.8ZM270.3 164.4C232.4 164.4 206.9 171.4 206.9 177.9C206.9 184.4 232.4 191.4 270.3 191.4C308.2 191.4 333.7 184.4 333.7 177.9C333.7 171.4 308.3 164.4 270.3 164.4Z" fill="#22262E"/>
<path d="M270.3 408.297C317.742 408.297 356.2 399.79 356.2 389.297C356.2 378.803 317.742 370.297 270.3 370.297C222.859 370.297 184.4 378.803 184.4 389.297C184.4 399.79 222.859 408.297 270.3 408.297Z" fill="#FFFDFA"/>
<path d="M270.3 408.998C221.7 408.998 183.7 400.398 183.7 389.298C183.7 378.198 221.7 369.598 270.3 369.598C318.9 369.598 356.9 378.198 356.9 389.298C356.9 400.398 318.9 408.998 270.3 408.998ZM270.3 370.998C229.2 370.998 185.1 378.398 185.1 389.298C185.1 400.198 229.1 407.598 270.3 407.598C311.5 407.598 355.5 400.198 355.5 389.298C355.5 378.398 311.5 370.998 270.3 370.998Z" fill="#22262E"/>
<path d="M194.801 373.197C194.401 373.197 194.101 372.897 194.101 372.497V256.197C194.101 248.597 204.101 241.097 213.001 234.597C218.301 230.697 223.301 226.997 224.101 224.497C225.401 220.097 226.201 215.597 226.401 210.997C226.401 210.597 226.701 210.297 227.001 210.297H227.101C227.501 210.297 227.801 210.597 227.801 210.997C227.501 215.697 226.701 220.297 225.401 224.797C224.501 227.697 219.501 231.397 213.801 235.697C205.601 241.697 195.501 249.197 195.501 256.197V372.497C195.401 372.897 195.101 373.197 194.801 373.197Z" fill="#D1D3D4"/>
<path d="M345.9 373.197C345.5 373.197 345.2 372.897 345.2 372.497V256.197C345.2 249.297 335 241.797 326.9 235.697C321.1 231.497 316.2 227.797 315.3 224.797C314 220.297 313.2 215.697 312.9 210.997C312.9 210.597 313.2 210.297 313.6 210.297C314 210.297 314.3 210.597 314.3 210.997C314.6 215.597 315.4 220.097 316.6 224.497C317.4 226.997 322.4 230.697 327.7 234.597C336.6 241.097 346.6 248.597 346.6 256.197V372.397C346.6 372.897 346.3 373.197 345.9 373.197Z" fill="#D1D3D4"/>
<path d="M206.5 369.297V381.297C206.5 385.797 217.6 389.497 231.3 389.497C245 389.497 256.1 385.797 256.1 381.297V369.297H206.5Z" fill="#48D664"/>
<path d="M231.4 390.299C218.8 390.299 205.9 386.999 205.9 381.399V369.399C205.9 368.999 206.2 368.699 206.6 368.699H256.3C256.7 368.699 257 368.999 257 369.399V381.399C256.9 386.899 243.9 390.299 231.4 390.299ZM207.2 369.999V381.299C207.2 384.899 216.9 388.799 231.3 388.799C245.7 388.799 255.4 384.899 255.4 381.299V369.999H207.2Z" fill="#22262E"/>
<path d="M231.401 377.498C245.097 377.498 256.201 373.826 256.201 369.298C256.201 364.769 245.097 361.098 231.401 361.098C217.704 361.098 206.601 364.769 206.601 369.298C206.601 373.826 217.704 377.498 231.401 377.498Z" fill="#22262E"/>
<path d="M231.4 378.197C218.8 378.197 205.9 374.797 205.9 369.297C205.9 363.797 218.9 360.297 231.4 360.297C243.9 360.297 256.9 363.697 256.9 369.297C256.9 374.897 243.9 378.197 231.4 378.197ZM231.4 361.797C217 361.797 207.3 365.697 207.3 369.297C207.3 372.897 217 376.797 231.4 376.797C245.8 376.797 255.5 372.897 255.5 369.297C255.5 365.697 245.8 361.797 231.4 361.797Z" fill="#22262E"/>
<path d="M212.4 352.797V364.797C212.4 369.297 223.5 372.997 237.2 372.997C250.9 372.997 262 369.297 262 364.797V352.797H212.4Z" fill="#48D664"/>
<path d="M237.2 373.799C224.6 373.799 211.7 370.499 211.7 364.899V352.899C211.7 352.499 212 352.199 212.4 352.199H262.1C262.5 352.199 262.8 352.499 262.8 352.899V364.899C262.8 370.499 249.8 373.799 237.2 373.799ZM213.1 353.499V364.799C213.1 368.399 222.8 372.299 237.2 372.299C251.6 372.299 261.3 368.399 261.3 364.799V353.499H213.1Z" fill="#22262E"/>
<path d="M237.2 360.998C250.897 360.998 262 357.326 262 352.798C262 348.269 250.897 344.598 237.2 344.598C223.504 344.598 212.4 348.269 212.4 352.798C212.4 357.326 223.504 360.998 237.2 360.998Z" fill="#22262E"/>
<path d="M237.2 361.8C224.6 361.8 211.7 358.5 211.7 352.9C211.7 347.3 224.7 344 237.2 344C249.7 344 262.7 347.3 262.7 352.9C262.7 358.5 249.8 361.8 237.2 361.8ZM237.2 345.3C222.8 345.3 213.1 349.2 213.1 352.8C213.1 356.4 222.8 360.3 237.2 360.3C251.6 360.3 261.3 356.4 261.3 352.8C261.3 349.2 251.6 345.3 237.2 345.3Z" fill="#22262E"/>
<path d="M207.3 334.5V346.5C207.3 351 218.4 354.7 232.1 354.7C245.8 354.7 257 351 257 346.5V334.5H207.3Z" fill="#48D664"/>
<path d="M232.101 355.397C219.501 355.397 206.601 352.097 206.601 346.497V334.497C206.601 334.097 206.901 333.797 207.301 333.797H257.001C257.401 333.797 257.701 334.097 257.701 334.497V346.497C257.701 352.097 244.701 355.397 232.101 355.397ZM208.001 335.097V346.397C208.001 349.997 217.701 353.897 232.101 353.897C246.501 353.897 256.201 349.997 256.201 346.397V335.097H208.001Z" fill="#22262E"/>
<path d="M232.1 342.697C245.796 342.697 256.9 339.026 256.9 334.497C256.9 329.968 245.796 326.297 232.1 326.297C218.403 326.297 207.3 329.968 207.3 334.497C207.3 339.026 218.403 342.697 232.1 342.697Z" fill="#22262E"/>
<path d="M232.101 343.4C219.501 343.4 206.601 340 206.601 334.5C206.601 329 219.601 325.5 232.101 325.5C244.601 325.5 257.601 328.9 257.601 334.5C257.601 340.1 244.701 343.4 232.101 343.4ZM232.101 326.9C217.701 326.9 208.001 330.8 208.001 334.4C208.001 338 217.701 341.9 232.101 341.9C246.501 341.9 256.201 338 256.201 334.4C256.201 330.8 246.601 326.9 232.101 326.9Z" fill="#22262E"/>
<path d="M271.9 367.199V379.199C271.9 383.699 283 387.399 296.7 387.399C310.4 387.399 321.5 383.699 321.5 379.199V367.199H271.9Z" fill="#48D664"/>
<path d="M296.8 388.198C284.3 388.198 271.3 384.898 271.3 379.298V367.298C271.3 366.898 271.6 366.598 272 366.598H321.7C322.1 366.598 322.4 366.898 322.4 367.298V379.298C322.3 384.798 309.3 388.198 296.8 388.198ZM272.6 367.898V379.198C272.6 382.798 282.3 386.698 296.7 386.698C311.1 386.698 320.8 382.798 320.8 379.198V367.898H272.6Z" fill="#22262E"/>
<path d="M296.8 375.4C310.497 375.4 321.6 371.729 321.6 367.2C321.6 362.671 310.497 359 296.8 359C283.103 359 272 362.671 272 367.2C272 371.729 283.103 375.4 296.8 375.4Z" fill="#22262E"/>
<path d="M296.8 376.197C284.3 376.197 271.3 372.797 271.3 367.197C271.3 361.597 284.3 358.297 296.8 358.297C309.3 358.297 322.3 361.697 322.3 367.197C322.3 372.697 309.3 376.197 296.8 376.197ZM296.8 359.697C282.4 359.697 272.7 363.597 272.7 367.197C272.7 370.797 282.4 374.697 296.8 374.697C311.2 374.697 320.9 370.797 320.9 367.197C320.9 363.597 311.2 359.697 296.8 359.697Z" fill="#22262E"/>
<path d="M268.7 353V365C268.7 369.6 279.8 373.2 293.5 373.2C307.2 373.2 318.3 369.5 318.3 365V353H268.7Z" fill="#48D664"/>
<path d="M293.5 373.897C281 373.897 268 370.497 268 364.997V352.997C268 352.597 268.3 352.297 268.7 352.297H318.4C318.8 352.297 319.1 352.597 319.1 352.997V364.997C319.1 370.597 306.1 373.897 293.5 373.897ZM269.4 353.697V364.997C269.4 368.597 279.1 372.497 293.5 372.497C307.9 372.497 317.6 368.597 317.6 364.997V353.697H269.4Z" fill="#22262E"/>
<path d="M293.5 361.197C307.197 361.197 318.3 357.526 318.3 352.997C318.3 348.468 307.197 344.797 293.5 344.797C279.804 344.797 268.7 348.468 268.7 352.997C268.7 357.526 279.804 361.197 293.5 361.197Z" fill="#22262E"/>
<path d="M293.5 361.9C281 361.9 268 358.6 268 353C268 347.4 281 344 293.5 344C306 344 319 347.3 319 352.9C319 358.5 306.1 361.9 293.5 361.9ZM293.5 345.4C279.1 345.4 269.4 349.3 269.4 352.9C269.4 356.5 279.1 360.4 293.5 360.4C307.9 360.4 317.6 356.5 317.6 352.9C317.6 349.3 308 345.4 293.5 345.4Z" fill="#22262E"/>
<path d="M272.7 335.598V347.598C272.7 352.098 283.8 355.798 297.5 355.798C311.2 355.798 322.3 352.098 322.3 347.598V335.598H272.7Z" fill="#48D664"/>
<path d="M297.5 356.6C285 356.6 272 353.3 272 347.7V335.7C272 335.3 272.3 335 272.7 335H322.4C322.8 335 323.1 335.3 323.1 335.7V347.7C323.1 353.2 310.1 356.6 297.5 356.6ZM273.4 336.3V347.6C273.4 351.2 283.1 355.1 297.5 355.1C311.9 355.1 321.6 351.2 321.6 347.6V336.3H273.4Z" fill="#22262E"/>
<path d="M297.5 343.798C311.197 343.798 322.3 340.127 322.3 335.598C322.3 331.07 311.197 327.398 297.5 327.398C283.804 327.398 272.7 331.07 272.7 335.598C272.7 340.127 283.804 343.798 297.5 343.798Z" fill="#22262E"/>
<path d="M297.5 344.498C285 344.498 272 341.098 272 335.498C272 329.898 285 326.598 297.5 326.598C310 326.598 323 329.998 323 335.498C323 340.998 310.1 344.498 297.5 344.498ZM297.5 328.098C283.1 328.098 273.4 331.998 273.4 335.598C273.4 339.198 283.1 343.098 297.5 343.098C311.9 343.098 321.6 339.198 321.6 335.598C321.6 331.998 312 327.998 297.5 328.098Z" fill="#22262E"/>
<path d="M268.7 318.199V330.199C268.7 334.699 279.8 338.399 293.5 338.399C307.2 338.399 318.3 334.699 318.3 330.199V318.199H268.7Z" fill="#48D664"/>
<path d="M293.5 339.1C280.9 339.1 268 335.8 268 330.2V318.2C268 317.8 268.3 317.5 268.7 317.5H318.4C318.8 317.5 319.1 317.8 319.1 318.2V330.2C319.1 335.8 306.1 339.1 293.5 339.1ZM269.4 318.9V330.2C269.4 333.8 279.1 337.7 293.5 337.7C307.9 337.7 317.6 333.8 317.6 330.2V318.9H269.4Z" fill="#22262E"/>
<path d="M293.5 326.4C307.197 326.4 318.3 322.729 318.3 318.2C318.3 313.671 307.197 310 293.5 310C279.804 310 268.7 313.671 268.7 318.2C268.7 322.729 279.804 326.4 293.5 326.4Z" fill="#22262E"/>
<path d="M293.5 327.099C280.9 327.099 268 323.699 268 318.099C268 312.499 281 309.199 293.5 309.199C306 309.199 319 312.599 319 318.099C319 323.599 306.1 327.099 293.5 327.099ZM293.5 310.599C279.1 310.599 269.4 314.499 269.4 318.099C269.4 321.699 279.1 325.599 293.5 325.599C307.9 325.599 317.6 321.699 317.6 318.099C317.6 314.499 308 310.599 293.5 310.599Z" fill="#22262E"/>
<path d="M276.7 303.898V315.898C276.7 320.398 287.8 324.098 301.6 324.098C315.4 324.098 326.4 320.398 326.4 315.898V303.898H276.7Z" fill="#48D664"/>
<path d="M301.5 324.897C288.9 324.897 276 321.497 276 315.997V303.997C276 303.597 276.3 303.297 276.7 303.297H326.4C326.8 303.297 327.1 303.597 327.1 303.997V315.997C327.1 321.497 314.1 324.897 301.5 324.897ZM277.4 304.597V315.897C277.4 319.497 287.1 323.397 301.5 323.397C315.9 323.397 325.6 319.497 325.6 315.897V304.597H277.4Z" fill="#22262E"/>
<path d="M301.5 312.099C315.197 312.099 326.3 308.428 326.3 303.899C326.3 299.37 315.197 295.699 301.5 295.699C287.804 295.699 276.7 299.37 276.7 303.899C276.7 308.428 287.804 312.099 301.5 312.099Z" fill="#22262E"/>
<path d="M301.5 312.898C288.9 312.898 276 309.598 276 303.998C276 298.398 289 295.098 301.5 295.098C314 295.098 327 298.398 327 303.998C327 309.598 314.1 312.898 301.5 312.898ZM301.5 296.398C287 296.398 277.4 300.298 277.4 303.898C277.4 307.498 287.1 311.398 301.5 311.398C315.9 311.398 325.6 307.498 325.6 303.898C325.6 300.298 316 296.398 301.5 296.398Z" fill="#22262E"/>
<path d="M271.2 289.598V301.598C271.2 306.098 282.3 309.798 296.1 309.798C309.9 309.798 320.9 306.098 320.9 301.598V289.598H271.2Z" fill="#48D664"/>
<path d="M296.101 310.6C283.601 310.6 270.601 307.3 270.601 301.7V289.7C270.601 289.3 270.901 289 271.301 289H321.001C321.401 289 321.701 289.3 321.701 289.7V301.7C321.601 307.3 308.601 310.6 296.101 310.6ZM271.901 290.4V301.7C271.901 305.3 281.601 309.2 296.001 309.2C310.401 309.2 320.101 305.3 320.101 301.7V290.4H271.901Z" fill="#22262E"/>
<path d="M296.1 297.798C309.796 297.798 320.9 294.127 320.9 289.598C320.9 285.07 309.796 281.398 296.1 281.398C282.403 281.398 271.3 285.07 271.3 289.598C271.3 294.127 282.403 297.798 296.1 297.798Z" fill="#48D664"/>
<path d="M296.101 298.599C283.601 298.599 270.601 295.199 270.601 289.599C270.601 283.999 283.601 280.699 296.101 280.699C308.601 280.699 321.601 284.099 321.601 289.599C321.601 295.099 308.601 298.599 296.101 298.599ZM296.101 282.099C281.701 282.099 272.001 285.999 272.001 289.599C272.001 293.199 281.701 297.099 296.101 297.099C310.501 297.099 320.201 293.199 320.201 289.599C320.201 285.999 310.501 282.099 296.101 282.099Z" fill="#22262E"/>
<path d="M243.9 382.297L244.4 391.297C244.5 397.297 256 401.997 270 401.697C284 401.397 295.3 396.297 295.2 390.297L294.7 381.297L243.9 382.297Z" fill="#48D664"/>
<path d="M268.9 402.399C263.1 402.499 257.2 401.499 251.8 399.499C246.7 397.399 243.8 394.499 243.8 391.299L243.3 382.399C243.3 382.199 243.4 381.999 243.5 381.899C243.6 381.799 243.8 381.699 244 381.699L294.8 380.699C295.2 380.699 295.5 380.999 295.5 381.299L296 390.299C296.1 396.799 284.8 402.099 270.1 402.399H268.9ZM244.6 382.999L245.1 391.199C245.2 393.799 247.7 396.299 252.2 398.199C257.9 400.299 263.9 401.199 270 400.999C283.4 400.799 294.6 395.899 294.5 390.399L294 382.099L244.6 382.999Z" fill="#22262E"/>
<path d="M269.398 392.786C283.423 392.524 294.702 387.433 294.589 381.414C294.477 375.395 283.016 370.729 268.991 370.991C254.965 371.252 243.687 376.344 243.799 382.363C243.912 388.381 255.372 393.048 269.398 392.786Z" fill="#48D664"/>
<path d="M268.3 393.501C262.5 393.601 256.6 392.601 251.2 390.601C246.1 388.501 243.2 385.601 243.2 382.401C243.1 375.901 254.4 370.601 269.1 370.301C275.3 370.101 281.5 371.001 287.4 373.201C292.5 375.301 295.4 378.201 295.4 381.401C295.5 387.901 284.2 393.201 269.5 393.501H268.3ZM270.2 371.701H269.1C255.7 371.901 244.5 376.801 244.6 382.301C244.6 384.901 247.2 387.401 251.7 389.201C257.4 391.301 263.4 392.201 269.5 392.001C282.9 391.801 294.1 386.901 294 381.401C294 378.801 291.4 376.301 286.9 374.501C281.5 372.501 275.9 371.501 270.2 371.701Z" fill="#22262E"/>
<path d="M287.3 380.298L283.7 380.698C283.5 380.698 283.4 380.798 283.5 380.898C284.3 381.598 284.6 382.598 284.5 383.598C284.2 384.598 283.2 385.198 281.4 385.598C280.9 385.698 280.4 385.798 279.9 385.898L276.4 382.898C277.1 382.898 277.7 382.698 278.2 382.298C278.4 381.998 278.5 381.698 278.6 381.398H278.5L271.8 382.098C271.9 382.198 271.9 382.298 272 382.398C272.5 383.098 272.8 383.898 273 384.798C273.2 386.198 272.1 386.998 269.7 387.398C267.4 387.798 265.1 387.698 262.8 387.098C261.1 386.698 259.5 385.998 258 385.098C257.3 384.598 256.6 384.098 255.9 383.598L253.4 383.798L251.7 381.398L254.1 381.198C254 380.698 253.9 380.298 253.8 379.798C253.8 378.898 254.3 377.998 255.2 377.598C256.3 377.098 257.5 376.698 258.7 376.698L260.7 378.898C259 379.198 258.1 379.798 258.4 380.698L265 379.998C264.8 379.498 264.6 378.998 264.5 378.498C264.3 377.998 264.4 377.398 264.7 376.998C265.3 376.398 266.1 376.098 266.9 375.998C268.3 375.698 269.7 375.598 271.1 375.698C273.4 375.798 275.7 376.298 277.8 377.198C278.6 377.498 279.3 377.898 280 378.298L280.3 378.398L283.8 377.998L287.3 380.298ZM260.5 382.998C261.1 383.498 261.7 383.798 262.4 384.098C263.8 384.598 265.8 384.498 266.4 383.998C267 383.498 266.6 382.998 266.5 382.498L260.5 382.998ZM275.9 378.798C275.2 378.498 274.6 378.198 273.9 377.998C272.3 377.498 270.3 377.598 270 378.298C269.8 378.598 270 378.998 270.2 379.398L275.9 378.798Z" fill="#FFFDFA"/>
<path d="M286.1 276.598L284.3 285.398C282.8 291.198 292.7 298.698 306.3 302.098C319.9 305.498 332.1 303.498 333.6 297.698L335.4 288.898L286.1 276.598Z" fill="#48D664"/>
<path d="M319.1 304.498C314.8 304.498 310.4 303.898 306.2 302.798C292 299.298 282.1 291.598 283.7 285.298L285.5 276.498C285.5 276.298 285.7 276.198 285.8 275.998C286 275.898 286.2 275.898 286.3 275.898L335.6 288.198C336 288.298 336.2 288.698 336.1 288.998L334.3 297.798C333.5 300.898 330.1 303.098 324.7 303.998C322.8 304.398 321 304.498 319.1 304.498ZM286.7 277.498L285 285.598C283.7 290.998 293.5 298.198 306.5 301.498C312.3 303.098 318.4 303.498 324.4 302.698C329.2 301.898 332.3 300.098 332.9 297.598L334.5 289.498L286.7 277.498Z" fill="#22262E"/>
<path d="M335.451 288.951C336.904 283.11 327.047 275.629 313.434 272.242C299.821 268.856 287.608 270.847 286.155 276.688C284.701 282.53 294.559 290.011 308.172 293.397C321.784 296.784 333.998 294.793 335.451 288.951Z" fill="#48D664"/>
<path d="M320.9 295.699C316.6 295.699 312.2 295.099 308 293.999C301.9 292.599 296.2 289.999 291.1 286.499C286.7 283.199 284.7 279.599 285.5 276.499C286.3 273.399 289.7 271.199 295.1 270.299C307.6 268.899 320.1 272.099 330.5 279.099C334.9 282.399 336.9 285.999 336.1 289.099C335.3 292.199 331.9 294.399 326.5 295.299C324.6 295.599 322.8 295.699 320.9 295.699ZM300.7 271.299C298.9 271.299 297.1 271.399 295.3 271.699C290.5 272.499 287.4 274.399 286.8 276.799C286.2 279.199 288 282.399 291.9 285.299C302 292.099 314.1 295.099 326.2 293.799C331 292.999 334.1 291.199 334.7 288.699C335.3 286.199 333.5 283.099 329.6 280.199C324.7 276.699 319.1 274.199 313.2 272.899C309.2 271.799 305 271.299 300.7 271.299Z" fill="#22262E"/>
<path d="M328.6 285.998L325 285.398C324.8 285.398 324.7 285.398 324.8 285.498C325.4 286.398 325.4 287.398 325 288.398C324.5 289.298 323.3 289.598 321.5 289.498C321 289.498 320.5 289.398 320 289.398L317.4 285.598C318 285.798 318.7 285.698 319.3 285.398C319.5 285.198 319.7 284.898 319.9 284.698L319.8 284.598L313.1 283.498C313.1 283.598 313.2 283.698 313.2 283.798C313.5 284.598 313.6 285.498 313.6 286.398C313.5 287.798 312.1 288.298 309.7 288.098C307.4 287.898 305.2 287.198 303.1 286.098C301.6 285.298 300.2 284.198 299 282.998C298.4 282.298 297.9 281.598 297.4 280.998L294.9 280.598L293.9 277.798L296.3 278.198C296.3 277.698 296.3 277.298 296.4 276.798C296.6 275.898 297.4 275.198 298.3 274.998C299.5 274.798 300.7 274.798 301.9 274.998L303.3 277.698C301.6 277.598 300.6 277.898 300.6 278.898L307.2 279.998C307.2 279.498 307.1 278.998 307 278.498C306.9 277.898 307.1 277.398 307.6 277.098C308.3 276.698 309.2 276.598 310 276.698C311.4 276.798 312.8 276.998 314.2 277.498C316.4 278.198 318.4 279.298 320.3 280.698C321 281.198 321.5 281.798 322.2 282.398L322.4 282.598L325.9 283.198L328.6 285.998ZM302 281.598C302.4 282.198 303 282.698 303.6 283.098C304.8 283.898 306.7 284.398 307.5 283.998C308.3 283.598 308 283.098 308 282.498L302 281.598ZM318 281.498C317.4 280.998 316.9 280.598 316.3 280.298C314.9 279.398 312.9 278.998 312.4 279.498C312.1 279.798 312.2 280.198 312.3 280.598L318 281.498Z" fill="#FFFDFA"/>
<path d="M225.4 293.2L233 297.9C238 301.3 248.4 294.5 256.2 282.9C264 271.3 266.3 259.1 261.4 255.7L253.8 251L225.4 293.2Z" fill="#48D664"/>
<path d="M236.201 299.497C235.001 299.497 233.801 299.197 232.801 298.497L225.201 293.797C224.901 293.597 224.801 293.197 225.001 292.797L253.401 250.597C253.601 250.297 254.001 250.197 254.301 250.397L262.001 255.097C267.401 258.797 265.201 271.097 257.101 283.297C250.201 293.197 241.901 299.497 236.201 299.497ZM226.401 292.997L233.401 297.297C238.001 300.397 248.201 293.597 255.701 282.497C263.201 271.397 265.601 259.397 261.001 256.297L254.001 251.997L226.401 292.997Z" fill="#22262E"/>
<path d="M248.612 278.232C256.444 266.594 258.744 254.436 253.75 251.075C248.756 247.714 238.358 254.423 230.527 266.061C222.695 277.699 220.394 289.857 225.388 293.218C230.382 296.579 240.78 289.87 248.612 278.232Z" fill="#48D664"/>
<path d="M228.501 294.799C227.301 294.799 226.101 294.499 225.101 293.799C222.401 291.999 221.501 288 222.601 282.6C225.601 270.4 232.801 259.7 243.001 252.3C247.601 249.3 251.601 248.6 254.301 250.4C257.001 252.2 257.901 256.2 256.801 261.6C253.801 273.8 246.601 284.6 236.401 291.9C233.401 293.8 230.801 294.799 228.501 294.799ZM250.801 250.9C248.801 250.9 246.401 251.8 243.701 253.5C233.901 260.6 226.901 271 223.901 282.9C223.001 287.7 223.701 291.2 225.801 292.7C227.901 294.2 231.501 293.499 235.601 290.799C245.401 283.699 252.401 273.3 255.401 261.4C256.301 256.6 255.601 253.1 253.501 251.6C252.601 251.2 251.701 250.9 250.801 250.9Z" fill="#22262E"/>
<path d="M248.701 256.5C248.101 257.6 247.501 258.6 246.901 259.6C246.801 259.8 246.801 259.9 247.001 259.8C248.001 259.6 249.001 259.9 249.801 260.6C250.401 261.4 250.401 262.6 249.601 264.3C249.401 264.8 249.201 265.2 248.901 265.7L244.401 266.8C244.801 266.3 244.901 265.6 244.901 265C244.801 264.7 244.601 264.4 244.401 264.2L244.301 264.3L241.001 270.2C241.101 270.2 241.201 270.2 241.401 270.2C242.301 270.2 243.201 270.4 244.001 270.7C245.201 271.3 245.301 272.7 244.301 274.9C243.301 277 241.901 278.9 240.101 280.4C238.801 281.6 237.401 282.5 235.701 283.2C234.901 283.5 234.101 283.7 233.201 284L232.001 286.2H229.001L230.201 284.1C229.801 283.9 229.301 283.8 228.901 283.5C228.101 283 227.701 282 227.901 281.1C228.101 279.9 228.501 278.7 229.101 277.7L232.101 277.3C231.401 278.8 231.301 279.9 232.301 280.2C233.401 278.2 234.401 276.3 235.501 274.4C235.001 274.3 234.501 274.2 234.001 274C233.501 273.9 233.001 273.5 232.901 273C232.801 272.2 232.901 271.4 233.301 270.6C233.901 269.3 234.601 268.1 235.501 267C236.901 265.2 238.601 263.6 240.601 262.4C241.301 261.9 242.001 261.6 242.801 261.2L243.101 261.1L244.801 258L248.701 256.5ZM235.501 280C236.201 279.8 236.901 279.5 237.501 279C238.701 278.1 239.801 276.5 239.701 275.7C239.601 275 239.001 275 238.501 274.8L235.501 280ZM240.901 264.9C240.301 265.3 239.701 265.7 239.101 266.1C237.801 267.1 236.801 268.8 237.001 269.5C237.201 269.9 237.601 269.9 238.001 270L240.901 264.9Z" fill="#FFFDFA"/>
<path d="M207 320.199L207.5 329.199C207.6 335.199 219.1 339.899 233.1 339.599C247.1 339.299 258.4 334.199 258.3 328.199L257.8 319.199L207 320.199Z" fill="#48D664"/>
<path d="M232 340.298C217.9 340.298 207 335.498 206.9 329.198L206.4 320.298C206.4 320.098 206.5 319.898 206.6 319.798C206.7 319.698 206.9 319.598 207.1 319.598L257.9 318.598C258.3 318.598 258.6 318.898 258.6 319.198L259.1 328.198C259.2 331.398 256.4 334.398 251.4 336.698C245.6 339.098 239.5 340.298 233.2 340.298H232ZM207.7 320.898L208.2 329.098C208.3 334.598 219.7 339.098 233.1 338.898C239.1 338.898 245.1 337.698 250.7 335.398C255.1 333.398 257.6 330.798 257.6 328.198L257.1 319.898L207.7 320.898Z" fill="#22262E"/>
<path d="M232.497 330.591C246.523 330.329 257.801 325.237 257.689 319.219C257.576 313.2 246.115 308.533 232.09 308.795C218.065 309.057 206.786 314.149 206.899 320.167C207.011 326.186 218.472 330.853 232.497 330.591Z" fill="#48D664"/>
<path d="M231.4 331.297C217.3 331.297 206.4 326.497 206.3 320.197C206.2 313.697 217.5 308.397 232.2 308.097C239.1 307.997 245.6 308.997 250.5 310.997C255.6 313.097 258.5 315.997 258.5 319.197C258.6 322.397 255.8 325.397 250.8 327.697C245 330.097 238.9 331.297 232.6 331.297H231.4ZM233.3 309.497H232.2C218.8 309.697 207.6 314.597 207.7 320.097C207.8 325.597 219.2 330.097 232.6 329.797C238.6 329.797 244.6 328.597 250.2 326.297C254.6 324.297 257.1 321.697 257.1 319.097C257.1 316.497 254.5 313.997 250 312.197C244.6 310.397 239 309.397 233.3 309.497Z" fill="#22262E"/>
<path d="M250.4 318.2L246.8 318.6C246.6 318.6 246.5 318.7 246.6 318.8C247.4 319.5 247.7 320.5 247.6 321.5C247.3 322.5 246.3 323.1 244.5 323.5C244 323.6 243.5 323.7 243 323.8L239.5 320.8C240.2 320.8 240.8 320.6 241.3 320.2C241.5 319.9 241.6 319.6 241.7 319.3H241.6L234.9 320C235 320.1 235 320.2 235.1 320.3C235.6 321 235.9 321.8 236.1 322.7C236.3 324.1 235.2 324.9 232.8 325.3C230.5 325.7 228.2 325.6 225.9 325C224.2 324.6 222.6 323.9 221.1 323C220.4 322.5 219.7 322 219 321.5L216.5 321.7L214.8 319.3L217.2 319.1C217.1 318.6 217 318.2 216.9 317.7C216.9 316.8 217.4 315.9 218.3 315.5C219.4 315 220.6 314.6 221.8 314.6L223.8 316.8C222.1 317.1 221.2 317.7 221.5 318.6L228.1 317.9C227.9 317.4 227.7 316.9 227.5 316.4C227.3 315.9 227.4 315.3 227.7 314.9C228.3 314.3 229.1 314 229.9 313.9C231.3 313.6 232.7 313.5 234.1 313.6C236.4 313.7 238.7 314.2 240.8 315.1C241.6 315.4 242.3 315.8 243 316.2L243.3 316.3L246.8 315.9L250.4 318.2ZM223.6 320.9C224.2 321.4 224.8 321.7 225.5 322C226.9 322.5 228.9 322.4 229.5 321.9C230.1 321.4 229.7 320.9 229.6 320.4L223.6 320.9ZM239 316.6C238.3 316.3 237.7 316 237 315.8C235.4 315.3 233.4 315.4 233.1 316.1C232.9 316.4 233.1 316.8 233.3 317.2L239 316.6Z" fill="#FFFDFA"/>
<path d="M278 131.497L283.9 138.197C287.6 142.897 299.5 139.597 310.4 130.797C321.3 121.997 327.1 111.197 323.4 106.497L317.5 99.7969L278 131.497Z" fill="#48D664"/>
<path d="M289.4 140.998C286.7 140.998 284.6 140.198 283.3 138.598L277.4 131.898C277.1 131.598 277.2 131.198 277.5 130.898L317 99.2983C317.3 98.9983 317.7 99.0983 318 99.3983L323.9 106.098C325.9 108.598 325.6 112.698 323 117.498C319.9 122.898 315.8 127.598 310.8 131.398C303.1 137.598 295.1 140.998 289.4 140.998ZM279 131.598L284.4 137.798C287.9 142.098 299.5 138.698 310 130.398C314.8 126.698 318.8 122.198 321.8 116.998C324.1 112.698 324.5 109.198 322.9 107.198L317.5 100.998L279 131.598Z" fill="#22262E"/>
<path d="M304.555 124.091C315.461 115.356 321.28 104.502 317.551 99.8462C313.823 95.1908 301.959 98.4975 291.053 107.232C280.148 115.966 274.329 126.821 278.058 131.476C281.786 136.132 293.65 132.825 304.555 124.091Z" fill="#48D664"/>
<path d="M283.6 134.299C280.9 134.299 278.8 133.499 277.5 131.899C273.5 126.799 279.2 115.799 290.6 106.699C295.4 102.699 300.9 99.6989 306.8 97.8989C312.1 96.3989 316.1 96.9989 318.1 99.4989C322.1 104.499 316.4 115.699 305 124.799C297.2 130.799 289.2 134.299 283.6 134.299ZM312 98.3989C310.4 98.3989 308.7 98.6989 307.2 99.0989C301.5 100.899 296.1 103.799 291.5 107.699C281.1 115.999 275.2 126.699 278.6 130.999C282 135.299 293.7 131.899 304.1 123.499C314.5 115.099 320.4 104.499 317 100.199C316 99.0989 314.2 98.3989 312 98.3989Z" fill="#22262E"/>
<path d="M311 103.5L308.4 106C308.2 106.2 308.2 106.2 308.4 106.2C309.4 106.3 310.3 106.9 310.8 107.8C311.2 108.7 310.7 109.9 309.5 111.3C309.2 111.7 308.8 112 308.5 112.4L303.9 112.1C304.4 111.7 304.7 111.1 304.9 110.5C304.9 110.2 304.8 109.9 304.7 109.6H304.6L299.7 114.2L300 114.3C300.8 114.6 301.6 115 302.3 115.6C303.3 116.5 302.9 117.9 301.3 119.7C299.7 121.4 297.8 122.8 295.7 123.7C294.1 124.5 292.4 124.9 290.7 125C289.8 125 289 125 288.1 125L286.3 126.7L283.5 125.8L285.3 124.1C284.9 123.8 284.6 123.5 284.2 123.2C283.6 122.5 283.5 121.5 284 120.6C284.5 119.5 285.3 118.5 286.2 117.7L289.2 118.2C288.1 119.4 287.7 120.4 288.5 121L293.3 116.4C292.8 116.1 292.4 115.9 292 115.6C291.5 115.3 291.2 114.8 291.2 114.3C291.3 113.5 291.7 112.7 292.3 112.2C293.2 111.1 294.3 110.2 295.4 109.4C297.3 108.1 299.4 107.1 301.6 106.5C302.5 106.3 303.2 106.2 304.1 106H304.4L307 103.6L311 103.5ZM291.5 121.9C292.2 121.9 293 121.8 293.7 121.6C295.1 121.1 296.6 119.9 296.7 119.1C296.8 118.4 296.2 118.2 295.8 117.8L291.5 121.9ZM301.1 109.2C300.4 109.4 299.7 109.5 299.1 109.8C297.6 110.4 296.1 111.7 296.2 112.4C296.2 112.8 296.6 113 297 113.2L301.1 109.2Z" fill="#FFFDFA"/>
<path d="M227.001 90.0977L220.801 96.4977C216.401 100.598 220.701 112.198 230.201 122.298C239.701 132.398 251.101 137.398 255.401 133.298L261.701 126.898L227.001 90.0977Z" fill="#48D664"/>
<path d="M251.2 135.5C248.9 135.4 246.6 134.9 244.5 133.9C238.9 131.2 233.9 127.5 229.7 122.9C219.7 112.3 215.6 100.5 220.3 96.1L226.5 89.7C226.6 89.6 226.8 89.5 227 89.5C227.2 89.5 227.4 89.6 227.5 89.7L262.2 126.5C262.5 126.8 262.5 127.2 262.2 127.5L256 133.9C254.7 135 253 135.6 251.2 135.5ZM227 91.1L221.3 97C217.3 100.8 221.6 112.2 230.8 121.9C234.8 126.4 239.7 130 245.2 132.6C249.6 134.5 253.2 134.6 255.1 132.9L260.9 127L227 91.1Z" fill="#22262E"/>
<path d="M261.704 126.885C266.046 122.796 261.801 111.235 252.221 101.063C242.641 90.8904 231.355 85.9593 227.013 90.0487C222.67 94.138 226.916 105.699 236.496 115.872C246.076 126.044 257.362 130.975 261.704 126.885Z" fill="#48D664"/>
<path d="M257.5 129.099C251.8 129.099 243.5 124.399 236 116.399C226 105.799 221.9 93.9992 226.6 89.5992C228.9 87.3992 233 87.3992 238 89.5992C249.2 95.1992 258 104.599 262.9 115.999C264.8 121.199 264.5 125.199 262.2 127.399C260.9 128.599 259.2 129.199 257.5 129.099ZM231.2 89.3992C229.8 89.2992 228.5 89.7992 227.5 90.5992C223.5 94.3992 227.8 105.799 237 115.399C246.2 124.999 257.2 130.099 261.2 126.399C263.1 124.599 263.2 120.999 261.5 116.499C256.7 105.399 248.2 96.2992 237.4 90.7992C235.4 89.9992 233.4 89.4992 231.2 89.3992Z" fill="#22262E"/>
<path d="M257.5 120.8L254.8 118.4C254.6 118.2 254.6 118.2 254.6 118.4C254.6 119.4 254.1 120.4 253.2 120.9C252.3 121.3 251.1 121 249.6 119.9C249.2 119.6 248.8 119.3 248.4 119L248.3 114.4C248.7 114.9 249.3 115.2 250 115.3C250.3 115.2 250.6 115.1 250.9 115L250.8 114.9L245.8 110.4L245.7 110.7C245.5 111.6 245.1 112.4 244.6 113.1C243.7 114.2 242.3 113.9 240.5 112.4C238.7 111 237.2 109.2 236.1 107.2C235.2 105.7 234.6 104.1 234.4 102.4C234.3 101.5 234.2 100.7 234.2 99.8004L232.4 98.1004L233.1 95.2004L234.9 96.8004C235.2 96.4004 235.4 96.0004 235.7 95.7004C236.4 95.0004 237.4 94.9004 238.2 95.3004C239.3 95.7004 240.3 96.4004 241.2 97.2004L240.9 100.2C239.6 99.2004 238.5 98.9004 238 99.8004L243 104.2C243.2 103.7 243.4 103.3 243.7 102.8C243.9 102.3 244.4 101.9 245 101.9C245.8 102 246.6 102.3 247.2 102.8C248.3 103.6 249.4 104.6 250.3 105.7C251.8 107.5 252.9 109.5 253.7 111.6C254 112.4 254.1 113.2 254.4 114C254.4 114.1 254.4 114.2 254.5 114.3L257.1 116.7L257.5 120.8ZM237.6 102.8C237.6 103.5 237.8 104.3 238.1 104.9C238.7 106.3 240 107.7 240.9 107.7C241.6 107.8 241.8 107.2 242.1 106.7L237.6 102.8ZM251.1 111.4C250.8 110.7 250.6 110.1 250.3 109.4C249.6 107.9 248.2 106.5 247.5 106.7C247.1 106.8 247 107.2 246.8 107.6L251.1 111.4Z" fill="#FFFDFA"/>
<path d="M305.4 354.797C300.4 363.097 306 381.497 306 381.497L313.4 386.897C324.3 393.797 338.8 390.497 345.6 379.497C352.5 368.597 349.2 354.097 338.2 347.297C338 347.097 337.7 346.997 337.4 346.797L329.2 342.797C329.2 342.797 310.3 346.497 305.4 354.797Z" fill="#48D664"/>
<path d="M325.3 390.898C321 390.898 316.7 389.698 313 387.498L305.6 382.098C305.5 381.998 305.4 381.898 305.3 381.698C305.1 380.898 299.7 362.898 304.8 354.398C309.9 345.898 328.3 342.198 329.1 342.098C329.2 342.098 329.4 342.098 329.5 342.198L337.7 346.198C349.1 352.998 352.8 367.798 346 379.198C341.7 386.498 333.9 390.898 325.3 390.898ZM306.6 381.098L313.8 386.298C324.5 392.698 338.5 389.198 344.9 378.498C351.3 367.798 347.8 353.798 337.1 347.398L329.2 343.498C327.1 343.998 310.5 347.698 306.1 355.098C301.5 362.598 306 378.998 306.6 381.098Z" fill="#22262E"/>
<path d="M320.3 387.198C333.224 387.198 343.7 376.722 343.7 363.798C343.7 350.875 333.224 340.398 320.3 340.398C307.377 340.398 296.9 350.875 296.9 363.798C296.9 376.722 307.377 387.198 320.3 387.198Z" fill="#48D664"/>
<path d="M320.3 387.8C307 387.8 296.2 377 296.3 363.7C296.4 350.4 307.1 339.6 320.4 339.7C324.8 339.7 329.1 340.9 332.8 343.1C344.2 349.9 347.901 364.7 341.001 376.1C336.601 383.4 328.7 387.9 320.3 387.8ZM320.3 341.1C307.8 341.1 297.601 351.2 297.601 363.8C297.601 376.3 307.7 386.5 320.3 386.5C332.8 386.5 343.001 376.4 343.001 363.8C343.001 355.8 338.801 348.5 332.001 344.4C328.501 342.2 324.4 341.1 320.3 341.1Z" fill="#22262E"/>
<path d="M307.2 353.097L310.1 354.897C310.3 354.997 310.4 354.997 310.5 354.797C311.6 353.497 313.1 352.597 314.7 351.997C316.4 351.397 318.2 351.397 319.9 352.097C320.4 352.297 320.8 352.497 321.3 352.697L318.6 357.197C317.9 356.797 317.1 356.597 316.3 356.697C315.7 356.897 315.1 356.997 314.5 357.297V357.397L320.1 360.797C320.2 360.697 320.4 360.497 320.5 360.397C321.5 359.297 322.6 358.397 323.8 357.497C325.6 356.197 327.9 355.997 329.9 356.997C331.8 357.797 333.3 359.297 334.1 361.097C334.8 362.597 334.9 364.297 334.6 365.897C334.4 366.897 334.1 367.897 333.8 368.897L336 370.197L333.5 374.297L331.2 372.897C330.5 373.597 329.8 374.297 329.1 374.897C327.7 376.097 325.9 376.797 324.1 376.897C322.5 376.897 321 376.497 319.6 375.697L322.3 371.297C323.9 372.197 325.9 371.897 327.2 370.597L321.2 366.997C320.4 367.697 319.7 368.397 319 369.097C318.1 369.897 317 370.597 315.9 370.897C314.7 371.197 313.4 371.097 312.3 370.697C310.9 370.197 309.6 369.297 308.6 368.097C307.2 366.397 306.6 364.097 307.1 361.897C307.3 360.997 307.6 360.197 307.9 359.297C307.9 359.197 308 359.097 308 358.997L305 357.197L307.2 353.097ZM329.7 366.597C330 365.897 330.1 364.997 330 364.197C329.7 362.797 328.5 361.797 327.1 361.897C326.1 362.197 325.2 362.697 324.6 363.397L329.7 366.597ZM311.6 361.397C311.5 362.097 311.5 362.797 311.5 363.497C311.6 364.897 312.9 365.997 314.3 365.897C314.4 365.897 314.6 365.897 314.7 365.797C315.4 365.497 316.1 364.997 316.6 364.397L311.6 361.397Z" fill="#FFFDFA"/>
<path d="M223.401 350C213.901 348.1 198.401 359.4 198.401 359.4L195.801 368.2C193.201 380.8 201.401 393.2 214.001 395.8C226.601 398.4 239.001 390.2 241.601 377.6L242.601 368.5C242.601 368.5 232.901 352 223.401 350Z" fill="#48D664"/>
<path d="M218.8 396.998C217.2 396.998 215.5 396.798 213.9 396.498C200.9 393.898 192.5 381.198 195.1 368.198V368.098L197.7 359.298C197.7 359.198 197.8 358.998 197.9 358.898C198.5 358.398 213.8 347.398 223.4 349.298C233.1 351.298 242.7 367.398 243.1 368.098C243.2 368.198 243.2 368.398 243.2 368.498L242.2 377.598C240.1 388.898 230.2 396.998 218.8 396.998ZM199 359.898L196.5 368.398C194 380.698 201.9 392.598 214.2 395.098C226.5 397.598 238.4 389.698 240.9 377.398L241.9 368.598C240.8 366.698 231.8 352.398 223.2 350.598C214.8 348.998 200.8 358.598 199 359.898Z" fill="#22262E"/>
<path d="M219.9 390.499C232.823 390.499 243.3 380.023 243.3 367.099C243.3 354.176 232.823 343.699 219.9 343.699C206.977 343.699 196.5 354.176 196.5 367.099C196.5 380.023 206.977 390.499 219.9 390.499Z" fill="#48D664"/>
<path d="M220 391.199C218.4 391.199 216.7 390.999 215.1 390.699C202.1 387.999 193.7 375.299 196.3 362.299C199 349.299 211.7 340.899 224.7 343.499C237.7 346.199 246.1 358.899 243.5 371.899C241.2 383.099 231.4 391.099 220 391.199ZM219.9 344.399C207.4 344.399 197.2 354.599 197.3 367.099C197.3 379.599 207.5 389.799 220 389.699C230.8 389.699 240 382.099 242.2 371.599C244.7 359.299 236.8 347.399 224.6 344.799C223 344.599 221.4 344.399 219.9 344.399Z" fill="#22262E"/>
<path d="M225.601 351.198C225.401 352.298 225.201 353.398 224.901 354.498C224.901 354.698 224.901 354.798 225.101 354.898C226.701 355.598 228.001 356.598 229.101 357.898C230.201 359.298 230.801 360.998 230.701 362.798C230.701 363.298 230.601 363.798 230.601 364.298L225.501 363.198C225.601 362.398 225.501 361.598 225.201 360.898C224.901 360.398 224.501 359.898 224.101 359.398H224.001L222.701 365.798L223.201 365.998C224.501 366.598 225.801 367.298 227.001 368.098C228.801 369.398 229.801 371.498 229.501 373.698C229.401 375.698 228.501 377.598 227.001 378.998C225.801 380.098 224.201 380.798 222.601 380.998C221.601 381.098 220.501 381.098 219.501 381.198L219.001 383.698L214.301 382.698L214.801 380.098C213.901 379.598 213.001 379.298 212.201 378.798C210.601 377.898 209.301 376.498 208.601 374.798C208.001 373.298 207.901 371.698 208.301 370.198L213.401 371.198C213.101 372.998 214.101 374.798 215.701 375.598C216.201 373.298 216.601 370.998 217.101 368.698C216.201 368.198 215.301 367.798 214.401 367.298C213.301 366.698 212.401 365.898 211.701 364.898C211.001 363.898 210.701 362.598 210.701 361.398C210.701 359.898 211.101 358.398 211.901 356.998C213.101 355.098 215.001 353.798 217.301 353.498C218.201 353.398 219.101 353.398 220.001 353.398H220.301L221.001 349.898L225.601 351.198ZM220.401 376.898C221.201 376.998 222.001 376.798 222.701 376.398C223.901 375.698 224.401 374.198 223.901 372.898C223.301 372.098 222.501 371.398 221.601 370.998L220.401 376.898ZM219.301 358.098C218.601 358.198 218.001 358.398 217.301 358.598C216.001 359.198 215.401 360.698 216.001 361.998C216.101 362.098 216.101 362.298 216.201 362.398C216.701 362.998 217.401 363.498 218.101 363.798L219.301 358.098Z" fill="#FFFDFA"/>
<path d="M292.201 177.598C289.801 170.798 285.401 161.298 279.301 158.098C269.501 152.898 248.601 160.298 248.601 160.298L242.901 169.098C241.501 171.698 240.501 174.598 240.101 177.598H292.201Z" fill="#48D664"/>
<path d="M292.2 178.298H240C239.8 178.298 239.6 178.198 239.5 178.098C239.4 177.898 239.3 177.698 239.3 177.498C239.8 174.498 240.8 171.498 242.2 168.798L248 159.898C248.1 159.798 248.2 159.698 248.4 159.598C249.3 159.298 269.7 152.098 279.6 157.398C285.8 160.698 290.2 170.098 292.8 177.298C292.9 177.498 292.9 177.798 292.7 177.898C292.7 178.198 292.5 178.298 292.2 178.298ZM240.9 176.898H291.2C288.6 169.998 284.5 161.698 279 158.698C270.1 153.898 251.3 160.098 249.1 160.898L243.5 169.498C242.3 171.798 241.4 174.298 240.9 176.898Z" fill="#22262E"/>
<path d="M296.7 177.6C297.7 162.8 286.5 150 271.7 149C256.9 148 244.1 159.2 243.1 174C243 175.2 243 176.4 243.1 177.6H296.7Z" fill="#48D664"/>
<path d="M296.7 178.299H243C242.6 178.299 242.3 177.999 242.3 177.699C241.3 162.499 252.7 149.299 267.9 148.299C283.1 147.299 296.3 158.699 297.3 173.899C297.4 175.199 297.4 176.399 297.3 177.699C297.3 177.999 297.1 178.299 296.7 178.299ZM243.7 176.899H296C296.6 162.399 285.4 150.199 271 149.599C256.6 148.999 244.3 160.199 243.7 174.599C243.6 175.399 243.6 176.099 243.7 176.899Z" fill="#22262E"/>
<path d="M263.5 174.4C264.3 175.2 265.2 176 266 176.9C265.9 177.1 265.8 177.3 265.6 177.6H275.6C275 177 274.3 176.4 273.7 175.8L273.2 175.4L276.8 168.7H276.9C277.2 169.4 277.5 170 277.7 170.7C277.9 171.6 277.7 172.5 277.3 173.3L282.6 176.2C282.8 175.6 283 175.1 283.2 174.6C283.9 172.6 283.8 170.5 283 168.6C282.2 166.8 281.1 165.2 279.5 164C279.3 163.8 279.3 163.7 279.4 163.5C280 162.4 280.6 161.2 281.3 160.1L276.4 157.5L274.5 161.1C274.4 161.1 274.3 161 274.1 161C273.1 160.7 272.1 160.4 271.1 160.3C268.5 159.9 266 160.7 264 162.4C262.7 163.6 261.7 165.1 261.2 166.8C260.7 168.2 260.7 169.6 261.1 171C261.8 172.2 262.5 173.5 263.5 174.4ZM269.7 165.6C270.5 165.5 271.3 165.5 272.1 165.6L268.9 171.6C268.2 171 267.6 170.3 267.2 169.4C266.7 167.8 267.6 166.1 269.2 165.7C269.4 165.6 269.6 165.6 269.7 165.6Z" fill="#FFFDFA"/>
<path d="M304.7 178.298H234.4C234 178.298 233.7 177.998 233.7 177.598C233.7 177.198 234 176.898 234.4 176.898H304.7C305.1 176.898 305.4 177.198 305.4 177.598C305.4 177.998 305.1 178.298 304.7 178.298Z" fill="#22262E"/>
</svg>
