<svg width="500" height="500" viewBox="0 0 500 500" fill="none" xmlns="http://www.w3.org/2000/svg">
<path d="M177.4 105.402H96.2998V182.402H177.4V105.402Z" fill="#FFFDFA"/>
<path d="M177.4 183.201H96.2996C95.8996 183.201 95.5996 182.901 95.5996 182.501V105.501C95.5996 105.101 95.8996 104.801 96.2996 104.801H177.4C177.8 104.801 178.1 105.101 178.1 105.501V182.501C178.1 182.801 177.8 183.201 177.4 183.201ZM96.9996 181.701H176.7V106.101H96.9996V181.701Z" fill="#D1D3D4"/>
<path d="M161.6 119.099H119.1C118.7 119.099 118.4 118.699 118.5 118.299C118.5 117.999 118.8 117.699 119.1 117.699H161.6C162 117.699 162.3 118.099 162.2 118.499C162.2 118.799 161.9 119.099 161.6 119.099Z" fill="#D1D3D4"/>
<path d="M111.599 119.099H109.999C109.599 119.099 109.299 118.699 109.399 118.299C109.399 117.999 109.699 117.699 109.999 117.699H111.499C111.899 117.699 112.199 118.099 112.099 118.499C112.099 118.799 111.899 119.099 111.599 119.099Z" fill="#D1D3D4"/>
<path d="M145.499 128.802H119.099C118.699 128.802 118.399 128.502 118.399 128.102C118.399 127.702 118.699 127.402 119.099 127.402H145.499C145.899 127.402 146.199 127.702 146.199 128.102C146.199 128.502 145.899 128.802 145.499 128.802Z" fill="#D1D3D4"/>
<path d="M111.6 128.802H110C109.6 128.802 109.3 128.502 109.3 128.102C109.3 127.702 109.6 127.402 110 127.402H111.5C111.9 127.402 112.2 127.702 112.2 128.102C112.2 128.502 111.9 128.802 111.6 128.802Z" fill="#D1D3D4"/>
<path d="M165.799 138.502H119.099C118.699 138.502 118.399 138.202 118.399 137.802C118.399 137.402 118.699 137.102 119.099 137.102H165.799C166.199 137.102 166.499 137.402 166.499 137.802C166.499 138.202 166.199 138.502 165.799 138.502Z" fill="#D1D3D4"/>
<path d="M111.6 138.502H110C109.6 138.502 109.3 138.202 109.3 137.802C109.3 137.402 109.6 137.102 110 137.102H111.5C111.9 137.102 112.2 137.402 112.2 137.802C112.2 138.202 111.9 138.502 111.6 138.502Z" fill="#D1D3D4"/>
<path d="M151 148.099H119.1C118.7 148.099 118.4 147.699 118.5 147.299C118.5 146.999 118.8 146.699 119.1 146.699H151C151.4 146.699 151.7 147.099 151.6 147.499C151.6 147.799 151.3 148.099 151 148.099Z" fill="#D1D3D4"/>
<path d="M111.599 148.099H109.999C109.599 148.099 109.299 147.699 109.399 147.299C109.399 146.999 109.699 146.699 109.999 146.699H111.499C111.899 146.699 112.199 147.099 112.099 147.499C112.099 147.799 111.899 148.099 111.599 148.099Z" fill="#D1D3D4"/>
<path d="M162.999 157.802H119.099C118.699 157.802 118.399 157.502 118.399 157.102C118.399 156.702 118.699 156.402 119.099 156.402H162.999C163.399 156.402 163.699 156.702 163.699 157.102C163.699 157.502 163.399 157.802 162.999 157.802Z" fill="#D1D3D4"/>
<path d="M111.6 157.802H110C109.6 157.802 109.3 157.502 109.3 157.102C109.3 156.702 109.6 156.402 110 156.402H111.5C111.9 156.402 112.2 156.702 112.2 157.102C112.2 157.502 111.9 157.802 111.6 157.802Z" fill="#D1D3D4"/>
<path d="M157.699 167.502H119.099C118.699 167.502 118.399 167.202 118.399 166.802C118.399 166.402 118.699 166.102 119.099 166.102H157.699C158.099 166.102 158.399 166.402 158.399 166.802C158.399 167.202 158.099 167.502 157.699 167.502Z" fill="#D1D3D4"/>
<path d="M111.6 167.502H110C109.6 167.502 109.3 167.202 109.3 166.802C109.3 166.402 109.6 166.102 110 166.102H111.5C111.9 166.102 112.2 166.402 112.2 166.802C112.2 167.202 111.9 167.502 111.6 167.502Z" fill="#D1D3D4"/>
<path d="M400.1 104H341.5V189.2H400.1V104Z" fill="#FFFDFA"/>
<path d="M400.1 189.901H341.5C341.1 189.901 340.8 189.601 340.8 189.201V104.001C340.8 103.601 341.1 103.301 341.5 103.301H400.1C400.5 103.301 400.8 103.601 400.8 104.001V189.201C400.8 189.601 400.5 189.901 400.1 189.901ZM342.2 188.401H399.4V104.701H342.2V188.401Z" fill="#D1D3D4"/>
<path d="M360.2 115.301H348.5V127.001H360.2V115.301Z" fill="#FFFDFA"/>
<path d="M360.099 127.702H348.399C347.999 127.702 347.699 127.402 347.699 127.002V115.302C347.699 114.902 347.999 114.602 348.399 114.602H360.099C360.499 114.602 360.799 114.902 360.799 115.302V127.002C360.899 127.302 360.499 127.702 360.099 127.702ZM349.099 126.202H359.299V116.002H349.099V126.202Z" fill="#D1D3D4"/>
<path d="M353.1 124.7C353 124.7 353 124.7 352.9 124.7C352.7 124.6 352.5 124.5 352.4 124.3L350.9 120.6C350.7 120.2 350.9 119.8 351.3 119.7C351.7 119.5 352.1 119.7 352.3 120C352.3 120 352.3 120 352.3 120.1L353.5 122.9L362.2 116.6C362.5 116.4 363 116.4 363.2 116.8C363.4 117.1 363.4 117.6 363 117.8L353.6 124.6C353.4 124.7 353.3 124.7 353.1 124.7Z" fill="#D1D3D4"/>
<path d="M393.099 121.302H366.899C366.499 121.302 366.199 121.002 366.199 120.602C366.199 120.202 366.499 119.902 366.899 119.902H393.099C393.499 119.902 393.799 120.202 393.799 120.602C393.799 121.002 393.499 121.302 393.099 121.302Z" fill="#D1D3D4"/>
<path d="M360.2 132.199H348.5V143.899H360.2V132.199Z" fill="#FFFDFA"/>
<path d="M360.099 144.6H348.399C347.999 144.6 347.699 144.3 347.699 143.9V132.2C347.699 131.8 347.999 131.5 348.399 131.5H360.099C360.499 131.5 360.799 131.8 360.799 132.2V143.9C360.899 144.3 360.499 144.6 360.099 144.6ZM349.099 143.2H359.299V133H349.099V143.2Z" fill="#D1D3D4"/>
<path d="M353.1 141.702C353 141.702 353 141.702 352.9 141.702C352.7 141.602 352.5 141.502 352.4 141.302L350.9 137.702C350.7 137.302 350.9 136.902 351.3 136.802C351.7 136.602 352.1 136.802 352.3 137.202L353.5 140.002L362.2 133.702C362.5 133.502 363 133.502 363.2 133.902C363.4 134.202 363.4 134.702 363 134.902L353.6 141.702C353.4 141.702 353.3 141.702 353.1 141.702Z" fill="#D1D3D4"/>
<path d="M393.099 138.302H366.899C366.499 138.302 366.199 138.002 366.199 137.602C366.199 137.202 366.499 136.902 366.899 136.902H393.099C393.499 136.902 393.799 137.202 393.799 137.602C393.799 138.002 393.499 138.302 393.099 138.302Z" fill="#D1D3D4"/>
<path d="M360.2 149.199H348.5V160.899H360.2V149.199Z" fill="#FFFDFA"/>
<path d="M360.099 161.6H348.399C347.999 161.6 347.699 161.3 347.699 160.9V149.2C347.699 148.8 347.999 148.5 348.399 148.5H360.099C360.499 148.5 360.799 148.8 360.799 149.2V160.9C360.899 161.3 360.499 161.6 360.099 161.6ZM349.099 160.2H359.299V150H349.099V160.2Z" fill="#D1D3D4"/>
<path d="M353.1 158.7H352.9C352.7 158.6 352.5 158.5 352.4 158.3L350.9 154.7C350.7 154.3 350.9 153.9 351.2 153.7C351.6 153.5 352 153.7 352.2 154C352.2 154 352.2 154 352.2 154.1L353.4 156.9L362.1 150.6C362.4 150.4 362.9 150.4 363.1 150.8C363.3 151.1 363.3 151.6 362.9 151.8L353.5 158.7C353.5 158.6 353.3 158.7 353.1 158.7Z" fill="#D1D3D4"/>
<path d="M393.099 155.302H366.899C366.499 155.302 366.199 155.002 366.199 154.602C366.199 154.202 366.499 153.902 366.899 153.902H393.099C393.499 153.902 393.799 154.202 393.799 154.602C393.799 155.002 393.499 155.302 393.099 155.302Z" fill="#D1D3D4"/>
<path d="M360.2 166.199H348.5V177.899H360.2V166.199Z" fill="#FFFDFA"/>
<path d="M360.099 178.6H348.399C347.999 178.6 347.699 178.3 347.699 177.9V166.2C347.699 165.8 347.999 165.5 348.399 165.5H360.099C360.499 165.5 360.799 165.8 360.799 166.2V177.9C360.899 178.3 360.499 178.6 360.099 178.6ZM349.099 177.2H359.299V167H349.099V177.2Z" fill="#D1D3D4"/>
<path d="M353.1 175.702C353 175.702 353 175.702 352.9 175.702C352.7 175.602 352.5 175.502 352.4 175.302L350.9 171.702C350.7 171.302 350.9 170.902 351.3 170.802C351.7 170.602 352.1 170.802 352.3 171.102C352.3 171.102 352.3 171.102 352.3 171.202L353.5 174.002L362.2 167.702C362.5 167.502 363 167.502 363.2 167.902C363.4 168.202 363.4 168.702 363 168.902L353.6 175.702C353.4 175.702 353.3 175.702 353.1 175.702Z" fill="#D1D3D4"/>
<path d="M393.099 172.302H366.899C366.499 172.302 366.199 172.002 366.199 171.602C366.199 171.202 366.499 170.902 366.899 170.902H393.099C393.499 170.902 393.799 171.202 393.799 171.602C393.799 171.902 393.499 172.302 393.099 172.302Z" fill="#D1D3D4"/>
<path d="M403.699 235.402H321.399V285.302H403.699V235.402Z" fill="#FFFDFA"/>
<path d="M403.699 285.902H321.399C320.999 285.902 320.699 285.602 320.699 285.202V235.302C320.699 234.902 320.999 234.602 321.399 234.602H403.699C404.099 234.602 404.399 234.902 404.399 235.302V285.202C404.399 285.602 404.099 285.902 403.699 285.902ZM322.099 284.502H402.999V236.102H322.099V284.502Z" fill="#D1D3D4"/>
<path d="M403.699 246.802H321.399C320.999 246.802 320.699 246.502 320.699 246.102C320.699 245.702 320.999 245.402 321.399 245.402H403.699C404.099 245.402 404.399 245.702 404.399 246.102C404.399 246.402 404.099 246.802 403.699 246.802Z" fill="#D1D3D4"/>
<path d="M334.5 285.599C334.1 285.599 333.8 285.299 333.8 284.899V235.399C333.8 234.999 334.1 234.699 334.5 234.699C334.9 234.699 335.2 234.999 335.2 235.399V284.899C335.2 285.199 334.9 285.599 334.5 285.599Z" fill="#D1D3D4"/>
<path d="M131.723 242.181C132.567 233.663 126.345 226.074 117.826 225.23C109.308 224.386 101.719 230.608 100.875 239.127C100.031 247.645 106.253 255.235 114.772 256.078C123.29 256.922 130.88 250.7 131.723 242.181Z" fill="#FFFDFA"/>
<path d="M116.3 256.802C107.3 256.802 100.1 249.502 100.1 240.602C100.1 231.602 107.4 224.402 116.3 224.402C125.2 224.402 132.5 231.702 132.5 240.602C132.5 249.602 125.3 256.802 116.3 256.802ZM116.3 225.802C108.1 225.802 101.5 232.402 101.5 240.602C101.5 248.802 108.1 255.402 116.3 255.402C124.5 255.402 131.1 248.802 131.1 240.602C131.1 232.502 124.5 225.902 116.3 225.802Z" fill="#D1D3D4"/>
<path d="M115.199 232.602V240.602L124.199 234.102" fill="#FFFDFA"/>
<path d="M115.2 241.302C115.1 241.302 115 241.302 114.9 241.202C114.7 241.102 114.5 240.802 114.5 240.602V232.602C114.5 232.202 114.8 231.902 115.2 231.902C115.6 231.902 115.9 232.202 115.9 232.602V239.202L123.7 233.502C124 233.302 124.5 233.302 124.7 233.702C124.9 234.002 124.9 234.502 124.5 234.702L115.5 241.202C115.5 241.302 115.4 241.302 115.2 241.302Z" fill="#D1D3D4"/>
<path d="M163.799 233.599H140.899C140.499 233.599 140.199 233.299 140.199 232.899C140.199 232.499 140.499 232.199 140.899 232.199H163.799C164.199 232.199 164.499 232.499 164.499 232.899C164.499 233.299 164.199 233.599 163.799 233.599Z" fill="#D1D3D4"/>
<path d="M163.799 241.002H140.899C140.499 241.002 140.199 240.702 140.199 240.302C140.199 239.902 140.499 239.602 140.899 239.602H163.799C164.199 239.602 164.499 239.902 164.499 240.302C164.499 240.702 164.199 241.002 163.799 241.002Z" fill="#D1D3D4"/>
<path d="M154.4 248.4H140.8C140.4 248.4 140.1 248.1 140.1 247.7C140.1 247.3 140.4 247 140.8 247H154.4C154.8 247 155.1 247.3 155.1 247.7C155.1 248.1 154.8 248.4 154.4 248.4Z" fill="#D1D3D4"/>
<path d="M131.804 280.717C132.41 272.178 125.98 264.764 117.441 264.157C108.902 263.55 101.488 269.98 100.881 278.519C100.274 287.058 106.704 294.472 115.243 295.079C123.782 295.686 131.197 289.256 131.804 280.717Z" fill="#FFFDFA"/>
<path d="M116.3 295.802C107.3 295.802 100.1 288.502 100.1 279.602C100.1 270.702 107.4 263.402 116.3 263.402C125.2 263.402 132.5 270.702 132.5 279.602C132.5 288.502 125.3 295.802 116.3 295.802ZM116.3 264.802C108.1 264.802 101.5 271.402 101.5 279.602C101.5 287.802 108.1 294.402 116.3 294.402C124.5 294.402 131.1 287.802 131.1 279.602C131.1 271.402 124.5 264.802 116.3 264.802Z" fill="#D1D3D4"/>
<path d="M115.199 271.602V279.602L124.199 273.002" fill="#FFFDFA"/>
<path d="M115.2 280.302C115.1 280.302 115 280.302 114.9 280.202C114.7 280.102 114.5 279.802 114.5 279.602V271.602C114.5 271.202 114.8 270.902 115.2 270.902C115.6 270.902 115.9 271.202 115.9 271.602V278.202L123.7 272.502C124 272.302 124.5 272.302 124.7 272.702C124.9 273.002 124.9 273.502 124.5 273.702L115.5 280.202C115.5 280.302 115.4 280.302 115.2 280.302Z" fill="#D1D3D4"/>
<path d="M163.799 272.599H140.899C140.499 272.599 140.199 272.299 140.199 271.899C140.199 271.499 140.499 271.199 140.899 271.199H163.799C164.199 271.199 164.499 271.499 164.499 271.899C164.499 272.299 164.199 272.599 163.799 272.599Z" fill="#D1D3D4"/>
<path d="M163.799 279.9H140.899C140.499 279.9 140.199 279.6 140.199 279.2C140.199 278.8 140.499 278.5 140.899 278.5H163.799C164.199 278.5 164.499 278.8 164.499 279.2C164.499 279.6 164.199 279.9 163.799 279.9Z" fill="#D1D3D4"/>
<path d="M154.4 287.302H140.8C140.4 287.302 140.1 287.002 140.1 286.602C140.1 286.202 140.4 285.902 140.8 285.902H154.4C154.8 285.902 155.1 286.202 155.1 286.602C155.1 287.002 154.8 287.302 154.4 287.302Z" fill="#D1D3D4"/>
<path d="M331.2 323.102H296.1V360.602H331.2V323.102Z" fill="#FFFDFA"/>
<path d="M331.199 361.302H296.099C295.699 361.302 295.399 361.002 295.399 360.602V323.102C295.399 322.702 295.699 322.402 296.099 322.402H331.199C331.599 322.402 331.899 322.702 331.899 323.102V360.602C331.899 361.002 331.599 361.302 331.199 361.302ZM296.799 359.902H330.399V323.802H296.799V359.902Z" fill="#D1D3D4"/>
<path d="M331.199 330.201H296.099C295.699 330.201 295.399 329.901 295.399 329.501C295.399 329.101 295.699 328.801 296.099 328.801H331.199C331.599 328.801 331.899 329.101 331.899 329.501C331.899 329.901 331.599 330.201 331.199 330.201Z" fill="#D1D3D4"/>
<path d="M316.7 338.401L305.8 338.301V334.801H321.4V337.901L313.2 352.901H308.6L316.7 338.401Z" fill="#D1D3D4"/>
<path d="M305.8 327.601C305.5 327.601 305.3 327.501 305.2 327.201C305 326.901 305.1 326.401 305.4 326.201C307 325.301 307.7 323.401 307.2 321.601C306.9 320.501 305.9 319.801 304.8 319.901C303.9 319.901 303.1 320.201 302.4 320.801C302 321.401 301.7 322.101 301.8 322.901C301.8 323.301 301.6 323.601 301.2 323.701C300.8 323.801 300.5 323.501 300.4 323.101C300.3 322.001 300.6 320.801 301.3 319.901C302.2 319.001 303.4 318.401 304.7 318.401C306.5 318.201 308.1 319.401 308.6 321.201C309.3 323.601 308.2 326.101 306.1 327.401C306.1 327.601 306 327.601 305.8 327.601Z" fill="#D1D3D4"/>
<path d="M324.099 327.602C323.799 327.602 323.599 327.502 323.499 327.202C323.299 326.902 323.399 326.402 323.699 326.202C325.299 325.302 325.999 323.402 325.499 321.602C325.199 320.502 324.199 319.802 323.099 319.902C322.199 319.902 321.399 320.202 320.699 320.902C320.299 321.502 319.999 322.202 320.099 323.002C320.099 323.402 319.899 323.802 319.499 323.802C319.099 323.802 318.699 323.602 318.699 323.202C318.599 322.102 318.899 320.902 319.599 320.002C320.499 319.102 321.699 318.502 322.999 318.502C324.799 318.302 326.399 319.502 326.899 321.302C327.499 323.702 326.499 326.202 324.399 327.502C324.399 327.602 324.199 327.602 324.099 327.602Z" fill="#D1D3D4"/>
<path d="M271.6 292.699C271.6 292.699 283 327.299 276.8 327.299C270.6 327.299 255.3 308.599 255.3 308.599L267.6 292.699" fill="#FFFDFA"/>
<path d="M276.9 327.9C270.5 327.9 255.5 309.7 254.9 308.9C254.7 308.7 254.7 308.3 254.9 308.1L267.3 292.2C267.5 291.9 267.9 291.9 268.2 292.1C268.5 292.3 268.5 292.7 268.3 293L256.3 308.5C260.8 313.9 272.3 326.6 277 326.6C277.3 326.6 277.5 326.5 277.6 326.3C279.9 323.1 275 304.5 271.1 292.8C271 292.5 271.2 292.1 271.5 292C271.8 291.9 272.2 292.1 272.3 292.4C273.3 295.4 282 322.3 278.6 327C278.2 327.6 277.6 327.9 276.9 327.9Z" fill="#22262E"/>
<path d="M231.2 212.198C231.2 212.198 184 272.098 181 293.398C178 314.698 249.3 311.698 249.3 311.698L257.7 280.498C257.7 280.498 220.3 283.198 224.6 276.398C228.9 269.598 255.1 244.198 255.1 244.198L259.1 208.598L231.2 212.198Z" fill="#22262E"/>
<path d="M240.1 312.498C224.1 312.498 192 311.198 182.8 300.998C180.8 298.998 179.9 296.098 180.3 293.298C183.3 272.098 228.8 214.198 230.7 211.798C230.8 211.698 230.9 211.598 231.1 211.598L259 208.098C259.2 208.098 259.4 208.098 259.5 208.298C259.6 208.398 259.7 208.598 259.7 208.798L255.7 244.398C255.7 244.498 255.6 244.698 255.5 244.798C255.2 245.098 229.3 270.298 225.1 276.898C224.8 277.398 224.9 277.798 225 277.898C226.8 280.998 246 280.798 257.7 279.998C257.9 279.998 258.1 280.098 258.2 280.198C258.3 280.398 258.4 280.598 258.3 280.698L249.9 311.898C249.8 312.198 249.6 312.298 249.3 312.398C248.8 312.398 245.3 312.498 240.1 312.498ZM231.6 212.798C228.6 216.598 184.4 273.198 181.6 293.498C181.2 295.898 182 298.398 183.8 300.198C195 312.598 243.6 311.298 248.9 311.198L257 281.298C251.3 281.698 226.7 282.998 224 278.598C223.6 277.898 223.6 276.898 224.1 276.298C228.2 269.798 252.2 246.498 254.6 244.198L258.5 209.598L231.6 212.798Z" fill="#22262E"/>
<path d="M248.4 208.801C248.4 211.301 227.7 326.001 217.4 372.601L224.8 414.901C224.8 414.901 254.2 359.801 269.5 308.001C284.8 256.201 288.4 218.501 288.4 218.501L248.4 208.801Z" fill="#22262E"/>
<path d="M224.8 415.498H224.7C224.4 415.498 224.2 415.298 224.2 414.998L216.8 372.698C216.8 372.598 216.8 372.498 216.8 372.498C227.3 324.798 247.8 211.098 247.8 208.798C247.8 208.598 247.9 208.398 248 208.298C248.2 208.198 248.3 208.098 248.5 208.198L288.4 217.998C288.7 218.098 288.9 218.298 288.9 218.598C288.9 218.998 285.1 256.998 270 308.198C254.9 359.398 225.6 414.598 225.3 415.198C225.2 415.398 225 415.498 224.8 415.498ZM218 372.598L225 412.998C229.9 403.498 255.1 354.098 268.8 307.898C283 259.998 287.2 223.798 287.7 218.998L249 209.498C247.5 220.098 227.8 328.498 218 372.598Z" fill="#22262E"/>
<path d="M275.9 130.701C275.9 130.701 245.3 130.001 230.9 141.601C216.5 153.201 192.8 187.201 196.3 195.101C199.8 203.001 213 208.801 231.1 195.801L225.7 219.301L290 229.301C290 229.301 307.5 152.301 305.7 146.801C303.6 142.001 290.2 130.001 275.9 130.701Z" fill="#3185FF"/>
<path d="M236.1 174.698C235.8 174.698 235.5 174.398 235.5 174.098C235.5 173.998 235.5 173.898 235.6 173.798C235.9 172.598 237.4 156.298 238.3 145.598C238.4 145.298 238.7 144.998 239 145.098C239.3 145.198 239.5 145.398 239.5 145.698C238 164.298 237 173.898 236.7 174.398C236.6 174.598 236.4 174.698 236.1 174.698Z" fill="#22262E"/>
<path d="M260.7 123.7C259.6 123.9 255.4 115.6 255 114.2C254.4 112.2 254.7 109.9 254.2 108C253.6 105.6 251.6 103.4 250.2 101.4C248.5 99.2003 246.8 96.7003 246.4 94.0003C246 91.3003 247.1 88.0003 249.7 86.9003C253.1 85.4003 257.9 87.7003 260.1 84.8003C260.4 84.2003 260.8 83.7003 261.3 83.2003C262.2 82.6003 263.4 82.4003 264.4 82.7003C267.9 83.2003 271.2 84.5003 274.1 86.4003C274.7 86.9003 275.4 87.2003 276.2 87.2003C276.9 87.1003 277.4 86.5003 278 86.3003C279.1 86.0003 280.3 86.3003 281.3 86.9003C288.2 90.8003 291.3 96.2003 290.4 104L288.8 118L260.7 123.7Z" fill="#FFFDFA"/>
<path d="M260.6 124.299C260.1 124.299 259.2 123.799 257 119.799C256 117.999 255.1 116.199 254.4 114.299C254.1 113.199 254 112.099 253.9 110.899C253.9 109.899 253.7 108.999 253.5 107.999C252.8 105.999 251.7 104.199 250.4 102.699L249.6 101.699C247.9 99.3995 246.2 96.8995 245.7 93.9995C245.2 91.0995 246.3 87.4995 249.3 86.1995C250.9 85.5995 252.6 85.4995 254.3 85.5995C256.5 85.6995 258.4 85.6995 259.5 84.2995C259.6 84.0995 259.8 83.8995 259.9 83.6995C260.1 83.2995 260.4 82.8995 260.8 82.5995C261.9 81.8995 263.2 81.5995 264.5 81.9995C268.1 82.4995 271.5 83.7995 274.5 85.7995C275 86.1995 275.5 86.3995 276.2 86.4995C276.5 86.3995 276.8 86.2995 277 86.0995C277.3 85.8995 277.5 85.7995 277.8 85.5995C279.2 84.9995 280.7 85.6995 281.6 86.2995C288.8 90.3995 291.9 96.1995 291 104.099L289.5 118.099C289.5 118.399 289.3 118.599 289 118.699L260.9 124.499C260.8 124.299 260.7 124.299 260.6 124.299ZM253 86.8995C251.9 86.7995 250.9 86.9995 249.9 87.3995C247.5 88.3995 246.6 91.4995 247 93.7995C247.4 96.4995 249.1 98.7995 250.7 100.999C250.9 101.299 251.2 101.699 251.5 101.999C252.8 103.699 254.3 105.699 254.9 107.799C255.1 108.799 255.3 109.799 255.3 110.899C255.3 111.999 255.5 112.999 255.7 114.099C256.1 115.499 259.6 122.399 260.8 123.099L288.3 117.399L289.8 103.799C290.6 96.3995 287.8 91.0995 281 87.2995C280.2 86.6995 279.2 86.4995 278.3 86.6995C278.1 86.7995 277.9 86.8995 277.7 86.9995C277.3 87.2995 276.9 87.4995 276.4 87.5995C275.5 87.6995 274.6 87.3995 273.9 86.7995C271 84.9995 267.8 83.6995 264.4 83.1995C263.5 82.9995 262.6 83.0995 261.8 83.4995C261.6 83.6995 261.3 83.9995 261.2 84.2995C261.1 84.4995 260.9 84.7995 260.7 84.9995C259.2 86.8995 256.8 86.8995 254.4 86.7995L253 86.8995Z" fill="#22262E"/>
<path d="M265.7 129.401L265 141.001C265 141.001 265.8 147.601 273 146.001C277.3 145.001 280.9 142.101 282.9 138.101C282.9 138.101 284.5 110.201 285 102.801C280.5 102.501 276.3 103.701 271.7 102.801C267.8 102.001 263.9 100.801 260.1 99.3008C259.3 107.401 256.7 114.701 257.9 122.801C258.7 128.501 265.7 129.401 265.7 129.401Z" fill="#FFFDFA"/>
<path d="M270.9 146.901C269.6 146.901 268.2 146.501 267.1 145.801C265.6 144.701 264.6 143.001 264.3 141.101L265 129.901C263.2 129.501 258 128.001 257.2 123.001C256.4 117.401 257.3 112.301 258.2 107.001C258.6 104.501 259.1 102.001 259.4 99.4008C259.4 99.2008 259.5 99.0008 259.7 98.9008C259.9 98.8008 260.1 98.8008 260.3 98.8008C264 100.301 267.9 101.401 271.8 102.201C274.3 102.601 276.8 102.601 279.3 102.301C281.2 102.101 283.1 102.101 285 102.101C285.2 102.101 285.3 102.201 285.4 102.301C285.5 102.401 285.6 102.601 285.5 102.801C285 110.101 283.4 137.901 283.4 138.201C283.4 138.301 283.4 138.301 283.4 138.401C281.4 142.601 277.6 145.601 273.1 146.601C272.4 146.801 271.6 146.901 270.9 146.901ZM265.6 141.101C266 144.101 268.7 146.101 271.7 145.701C272.1 145.601 272.5 145.501 272.9 145.401C277 144.501 280.4 141.701 282.3 138.001C282.4 136.001 283.8 111.301 284.4 103.401C282.8 103.401 281.1 103.401 279.5 103.601C276.9 103.901 274.2 103.901 271.6 103.501C267.9 102.701 264.2 101.601 260.7 100.301C260.4 102.701 260 105.001 259.6 107.201C258.6 112.501 257.8 117.401 258.6 122.801C259.4 127.801 265.8 128.701 265.9 128.701C266.2 128.801 266.5 129.001 266.4 129.401L265.6 141.101Z" fill="#22262E"/>
<path d="M265.4 135.098C265.4 135.098 270.1 135.598 273.3 132.598C275.1 131.098 276.2 128.798 276.2 126.398C276.2 126.398 270.9 129.498 265.6 129.398L265.4 135.098Z" fill="#22262E"/>
<path d="M266.2 135.801C265.9 135.801 265.7 135.801 265.4 135.801C265.1 135.801 264.8 135.501 264.9 135.201L265.1 129.501C265.1 129.201 265.4 128.901 265.7 128.901C270.8 129.001 275.9 126.001 276 126.001C276.2 125.901 276.4 125.901 276.6 126.001C276.8 126.101 276.9 126.301 276.9 126.501C276.9 129.101 275.7 131.501 273.8 133.201C271.7 134.901 268.9 135.801 266.2 135.801ZM266.1 134.501C268.6 134.601 271.1 133.701 273 132.101C274.4 130.901 275.3 129.201 275.7 127.401C272.8 128.901 269.6 129.801 266.3 129.901L266.1 134.501Z" fill="#22262E"/>
<path d="M271.3 113.301C271.3 113.301 267.2 118.701 268.1 119.701C269 120.701 271.5 120.201 271.5 120.201" fill="#FFFDFA"/>
<path d="M270.1 121C269.2 121.1 268.3 120.8 267.6 120.1C266.7 118.9 268.8 115.5 270.8 112.9C271 112.6 271.4 112.6 271.7 112.8C272 113 272 113.4 271.8 113.7C269.9 116.2 268.4 118.9 268.6 119.4C269 119.9 270.4 119.8 271.3 119.6C271.6 119.5 272 119.7 272 120.1C272.1 120.4 271.9 120.8 271.5 120.8C271.1 120.9 270.6 121 270.1 121Z" fill="#22262E"/>
<path d="M269.8 125.299C267.8 125.199 266 124.299 264.7 122.799C264.5 122.599 264.5 122.199 264.7 121.899C264.9 121.699 265.3 121.699 265.6 121.899C266.7 123.199 268.4 123.999 270.1 123.999C273.3 123.799 276 120.399 276 120.299C276.2 120.099 276.6 119.999 276.9 120.299C277.1 120.499 277.2 120.799 277 121.099C276.9 121.299 274 124.999 270.2 125.199L269.8 125.299Z" fill="#22262E"/>
<path d="M260.4 113.098C258.9 113.098 257.8 111.898 257.8 110.498V108.098C257.8 106.598 259 105.398 260.4 105.398H267C267.7 105.398 268.4 105.698 268.9 106.198C269.4 106.698 269.7 107.398 269.7 108.098V110.498C269.7 111.898 268.5 113.098 267.1 113.098H260.4ZM267 106.598L260.4 106.698C260 106.698 259.7 106.898 259.4 107.098C259.1 107.398 259 107.698 259 108.098V110.498C259 110.898 259.2 111.198 259.4 111.498C259.7 111.798 260 111.898 260.4 111.898H267C267.8 111.898 268.4 111.298 268.4 110.498V108.098C268.4 107.698 268.2 107.398 268 107.098C267.7 106.798 267.4 106.598 267 106.598Z" fill="#22262E"/>
<path d="M273.6 113.001C272.1 113.001 271 111.801 271 110.401V108.001C271 106.501 272.2 105.301 273.6 105.301H280.2C281.7 105.301 282.8 106.501 282.8 107.901V110.301C282.8 111.801 281.6 113.001 280.2 113.001H273.6ZM280.2 106.501L273.6 106.601C272.8 106.601 272.2 107.201 272.2 108.001V110.401C272.2 110.801 272.4 111.101 272.6 111.401C272.9 111.701 273.2 111.801 273.6 111.801H280.2C280.6 111.801 280.9 111.601 281.2 111.401C281.5 111.101 281.6 110.801 281.6 110.401V108.001C281.6 107.601 281.4 107.301 281.2 107.001C281 106.701 280.6 106.501 280.2 106.501Z" fill="#22262E"/>
<path d="M269 108.598C268.7 108.598 268.3 108.398 268.3 108.098C268.3 107.798 268.5 107.398 268.8 107.398C268.9 107.398 268.9 107.398 269 107.398H271.5C271.8 107.398 272.1 107.698 272.1 107.998C272.1 108.298 271.8 108.598 271.5 108.598H269Z" fill="#22262E"/>
<path d="M288.8 112.899C288.7 112.899 288.6 112.899 288.5 112.799L281.9 108.399C281.6 108.199 281.5 107.799 281.7 107.499C281.9 107.199 282.3 107.099 282.6 107.299L289.2 111.699C289.5 111.899 289.6 112.299 289.4 112.599C289.2 112.799 289 112.899 288.8 112.899Z" fill="#22262E"/>
<path d="M282.5 113.7C283.8 112 285.9 109 288.5 110.1C289.2 110.4 289.7 110.9 290.2 111.5C292.1 114.1 291.6 117.3 290.1 119.9C288.8 122.2 284.9 125.5 282.5 122.4" fill="#FFFDFA"/>
<path d="M284.9 124.298C283.8 124.298 282.7 123.698 282 122.798C281.8 122.498 281.8 122.098 282.1 121.898C282.4 121.698 282.8 121.698 283 121.998C283.4 122.698 284.2 122.998 285 122.998C286.6 122.898 288.6 121.098 289.5 119.598C291.1 116.798 291.2 113.898 289.6 111.898C289.2 111.398 288.8 110.998 288.2 110.698C286.5 109.898 284.9 111.698 283.3 113.698L283 114.098C282.8 114.398 282.4 114.398 282.1 114.198C281.8 113.998 281.8 113.598 282 113.298L282.3 112.898C283.7 111.198 285.9 108.298 288.7 109.498C289.5 109.898 290.1 110.398 290.6 111.098C292.5 113.598 292.5 116.998 290.6 120.198C289.7 121.698 287.5 124.098 285.1 124.298H284.9Z" fill="#22262E"/>
<path d="M265.722 111.701C266.109 111.698 266.417 111.024 266.41 110.195C266.403 109.367 266.084 108.698 265.697 108.701C265.31 108.704 265.003 109.379 265.01 110.207C265.017 111.035 265.336 111.704 265.722 111.701Z" fill="#22262E"/>
<path d="M276.222 112.502C276.609 112.499 276.917 111.825 276.91 110.996C276.903 110.168 276.584 109.499 276.197 109.502C275.81 109.505 275.503 110.179 275.51 111.008C275.517 111.836 275.836 112.505 276.222 112.502Z" fill="#22262E"/>
<path d="M250.832 149.135L247.78 150.391L257.442 173.881L260.494 172.625L250.832 149.135Z" fill="#FFFDFA"/>
<path d="M257.5 174.501C257.2 174.501 257 174.301 256.9 174.101L247.2 150.601C247.1 150.301 247.2 149.901 247.5 149.801L250.6 148.501C250.8 148.401 250.9 148.401 251.1 148.501C251.3 148.601 251.4 148.701 251.4 148.901L261.1 172.401C261.2 172.601 261.2 172.701 261.1 172.901C261 173.101 260.9 173.201 260.7 173.301L257.6 174.601C257.6 174.501 257.5 174.501 257.5 174.501ZM248.6 150.801L257.8 173.101L259.7 172.301L250.5 150.001L248.6 150.801Z" fill="#22262E"/>
<path d="M251.404 148.882L247.242 150.594L251.655 161.321L255.816 159.61L251.404 148.882Z" fill="#FFFDFA"/>
<path d="M251.6 162C251.5 162 251.4 162 251.4 161.9C251.2 161.8 251.1 161.7 251 161.5L246.6 150.8C246.4 150.5 246.6 150.1 246.9 149.9C246.9 149.9 246.9 149.9 247 149.9L251.2 148.2C251.4 148.1 251.5 148.1 251.7 148.2C251.9 148.3 252 148.4 252.1 148.5L256.5 159.2C256.6 159.5 256.5 159.9 256.2 160L252 161.7C251.8 161.9 251.7 162 251.6 162ZM248.1 151L252 160.5L255 159.3L251.1 149.8L248.1 151Z" fill="#22262E"/>
<path d="M256.8 159.299C256.7 159.299 256.7 159.299 256.6 159.299C255.1 158.899 254.8 156.399 254.6 153.699C254.6 152.699 254.4 151.799 254.2 150.799C254.1 150.599 254 150.499 253.8 150.399C253.3 150.399 252.8 150.499 252.3 150.799C252 150.999 251.6 150.999 251.4 150.699C251.2 150.399 251.2 149.999 251.5 149.799L251.6 149.699C252.3 149.199 253.2 148.999 254.1 149.099C254.6 149.199 255 149.599 255.3 150.099C255.6 151.199 255.8 152.299 255.8 153.399C255.9 154.799 256.2 157.699 256.8 157.799C257.1 157.899 257.4 158.199 257.3 158.599C257.3 158.999 257 159.299 256.8 159.299Z" fill="#22262E"/>
<path d="M240.4 169.9C240.4 169.9 244.9 161.6 248.9 161.8C252.9 162 258.8 172.6 258.8 172.6L240.4 169.9Z" fill="#FFFDFA"/>
<path d="M258.8 173.3H258.7L240.3 170.6C240.1 170.6 239.9 170.4 239.8 170.2C239.7 170 239.7 169.8 239.8 169.6C240.3 168.7 244.7 160.9 248.9 161.2C253.1 161.5 258.7 171.2 259.4 172.3C259.6 172.6 259.5 173 259.2 173.2C259.1 173.3 258.9 173.4 258.8 173.3ZM241.4 169.4L257.6 171.8C255.6 168.5 251.5 162.6 248.8 162.4C246.1 162.2 242.9 166.9 241.4 169.4Z" fill="#22262E"/>
<path d="M283.1 222.799L274.4 172.399L230.9 166.199L239.1 215.899L283.1 222.799Z" fill="#22262E"/>
<path d="M283.1 223.398H283L239 216.498C238.7 216.498 238.5 216.298 238.5 215.998L230.3 166.298C230.3 166.098 230.3 165.898 230.5 165.798C230.6 165.698 230.8 165.598 231 165.598L274.6 171.798C274.9 171.798 275.1 171.998 275.1 172.298L283.8 222.698C283.9 222.998 283.6 223.398 283.3 223.398C283.2 223.398 283.2 223.398 283.1 223.398ZM239.6 215.298L282.4 221.998L273.9 172.898L231.6 166.898L239.6 215.298Z" fill="#22262E"/>
<path d="M305.8 146.801C305.8 146.801 336.8 209.401 325 215.401C313.2 221.401 285.8 205.001 285.8 205.001L285.7 192.001L306.6 194.101L291.1 180.001L305.8 146.801Z" fill="#3185FF"/>
<path d="M281.2 192.898L290.4 194.398C291.6 195.798 292.3 197.598 292.4 199.498C292.4 201.698 291.4 203.798 289.6 205.298L282.4 202.898C282.3 202.798 283.8 195.898 281.2 192.898Z" fill="#FFFDFA"/>
<path d="M289.6 205.899C289.5 205.899 289.5 205.899 289.4 205.899L282.2 203.499C281.9 203.399 281.7 203.099 281.8 202.799C281.8 202.699 283.1 196.199 280.8 193.499C280.6 193.299 280.6 192.999 280.7 192.799C280.8 192.599 281.1 192.399 281.4 192.499L290.6 193.999C290.7 193.999 290.9 194.099 291 194.199C292.3 195.799 293 197.699 293.1 199.699C293.1 202.099 292 204.399 290.1 205.899C289.8 205.899 289.7 205.899 289.6 205.899ZM283 202.399L289.4 204.499C290.8 203.199 291.7 201.399 291.7 199.499C291.6 197.899 291 196.299 290.1 194.999L282.6 193.799C283.8 196.699 283.3 200.899 283 202.399Z" fill="#22262E"/>
<path d="M281.2 192.898C280.5 192.498 279.7 192.298 278.9 192.198C277.4 192.098 269.3 190.798 268.5 192.498C267.9 193.798 268.5 194.098 268.5 194.098C268.5 194.098 266.1 194.098 266.7 196.198C266.7 196.198 265.7 198.598 267.6 199.198C267.6 199.198 266.4 199.898 267.8 200.998C270.5 202.998 279.9 207.798 282.7 205.398C283.6 204.498 284.3 203.398 284.5 202.198C285.4 198.798 284.2 194.598 281.2 192.898Z" fill="#FFFDFA"/>
<path d="M280.5 206.699C276.2 206.699 269.5 203.099 267.4 201.499C266.8 201.199 266.5 200.499 266.4 199.899C266.4 199.699 266.5 199.599 266.5 199.399C266.3 199.199 266.1 198.899 265.9 198.599C265.6 197.799 265.6 196.899 265.9 196.099C265.7 195.499 265.8 194.799 266.2 194.299C266.5 193.899 266.9 193.599 267.4 193.499C267.4 192.999 267.5 192.499 267.8 192.099C268.6 190.499 272.5 190.599 278 191.299C278.4 191.299 278.6 191.399 278.8 191.399C279.7 191.499 280.6 191.799 281.4 192.199C284.5 193.899 286.1 198.199 285 202.299C284.7 203.699 284 204.899 283 205.899C282.4 206.499 281.4 206.799 280.5 206.699ZM268.8 193.599C269.1 193.799 269.2 194.199 269 194.499C268.9 194.699 268.7 194.799 268.5 194.799C268.1 194.799 267.7 194.999 267.4 195.199C267.3 195.499 267.3 195.799 267.4 196.099C267.5 196.199 267.5 196.399 267.4 196.499C267.2 196.999 267.1 197.599 267.3 198.099C267.4 198.299 267.7 198.499 267.9 198.599C268.1 198.699 268.3 198.899 268.3 199.199C268.3 199.499 268.2 199.699 268 199.799C267.9 199.799 267.9 199.899 267.8 199.999C267.8 200.099 267.9 200.199 268.3 200.499C271.3 202.799 280.1 206.899 282.4 204.999C283.2 204.199 283.8 203.199 284 202.099C284.9 198.599 283.6 194.899 281 193.499C280.4 193.099 279.6 192.899 278.9 192.899L278.1 192.799C270.5 191.899 269.3 192.499 269.2 192.899C269 193.099 268.9 193.299 268.8 193.599Z" fill="#22262E"/>
<path d="M277.2 195.598L268.4 194.698C268.1 194.698 267.8 194.398 267.8 193.998C267.8 193.698 268.2 193.398 268.5 193.398L277.2 194.298C277.5 194.298 277.8 194.598 277.8 194.998C277.8 195.398 277.5 195.598 277.2 195.598Z" fill="#22262E"/>
<path d="M266.7 196.199C266.7 196.199 273.3 198.099 275.8 197.799Z" fill="#FFFDFA"/>
<path d="M275.3 198.498C272.5 198.498 266.9 196.898 266.6 196.898C266.3 196.798 266.1 196.498 266.1 196.098C266.2 195.798 266.6 195.598 266.9 195.698C268.7 196.198 273.8 197.498 275.7 197.198C276.1 197.198 276.4 197.398 276.4 197.798C276.4 198.198 276.2 198.498 275.8 198.498C275.7 198.498 275.5 198.498 275.3 198.498Z" fill="#22262E"/>
<path d="M267 198.898C267 198.898 271.5 201.298 274.9 201.298Z" fill="#FFFDFA"/>
<path d="M274.8 201.999C271.3 201.999 266.8 199.599 266.6 199.499C266.3 199.299 266.2 198.999 266.3 198.599C266.5 198.299 266.9 198.199 267.2 198.299C267.2 198.299 271.6 200.599 274.8 200.599C275.2 200.599 275.4 200.899 275.4 201.199C275.5 201.699 275.2 201.999 274.8 201.999Z" fill="#22262E"/>
<path d="M253.4 170.698C253.2 170.698 253 170.598 252.9 170.398C252.1 169.098 251.3 167.898 250.3 166.698C250.1 166.398 250.2 165.998 250.4 165.798C250.6 165.598 250.9 165.598 251.2 165.798C252.3 166.998 253.2 168.298 254 169.698C254.2 169.998 254.1 170.398 253.8 170.498C253.6 170.698 253.5 170.698 253.4 170.698Z" fill="#22262E"/>
<path d="M249.6 170.499C249.4 170.499 249.2 170.399 249.1 170.299C248.3 169.399 247.4 168.499 246.3 167.899C246 167.699 245.9 167.299 246.1 166.999C246.3 166.699 246.7 166.599 247 166.799C248.2 167.499 249.3 168.399 250.1 169.499C250.3 169.799 250.3 170.199 250 170.399C249.9 170.399 249.7 170.499 249.6 170.499Z" fill="#22262E"/>
<path d="M298.3 190.698H298.2C297.9 190.598 297.6 190.298 297.7 189.998L304.1 154.598C304.2 154.298 304.5 153.998 304.8 154.098C305.1 154.198 305.4 154.498 305.3 154.798L298.9 190.198C298.9 190.498 298.6 190.698 298.3 190.698Z" fill="#22262E"/>
<path d="M318.7 199.101C318.5 199.101 318.3 199.001 318.2 198.801C316.5 196.201 309.2 194.901 306.5 194.701L290.3 193.101C289.9 193.101 289.7 192.801 289.7 192.401C289.7 192.101 290.1 191.801 290.4 191.801L306.6 193.401C307 193.501 316.8 194.401 319.2 198.101C319.4 198.401 319.3 198.801 319 199.001C319 199.101 318.9 199.101 318.7 199.101Z" fill="#22262E"/>
<path d="M202.9 186.998C202.7 186.998 202.6 186.898 202.4 186.798C202.2 186.498 202.2 186.098 202.4 185.898C207.5 181.098 231.2 171.298 232.2 170.798C232.5 170.698 232.9 170.798 233 171.198C233.1 171.498 233 171.898 232.7 171.998C232.5 172.098 208.2 182.198 203.3 186.798C203.2 186.898 203.1 186.998 202.9 186.998Z" fill="#22262E"/>
<path d="M208 363.198C208.5 363.198 212.3 362.498 216.4 366.798C220.5 371.098 228.1 397.398 228.8 403.998C229.1 408.098 227.6 412.098 224.8 414.998L208 363.198Z" fill="#FFFDFA"/>
<path d="M224.8 415.599H224.6C224.4 415.499 224.2 415.399 224.2 415.199L207.4 363.499C207.3 363.299 207.4 363.099 207.5 362.899C207.6 362.699 207.8 362.599 208 362.699H208.2C211.3 362.499 214.3 363.799 216.9 366.499C221.3 370.999 228.8 397.699 229.4 404.099C229.7 408.399 228.2 412.499 225.2 415.599C225.1 415.499 224.9 415.599 224.8 415.599ZM208.8 363.799L225 413.699C227.2 410.999 228.3 407.499 228.1 403.999C227.4 397.099 219.8 371.199 215.9 367.199C214.1 365.199 211.6 363.899 208.8 363.799Z" fill="#22262E"/>
<path d="M226.8 409.298C226.8 409.298 220.5 377.798 215 368.998C209.5 360.198 204.4 361.798 203.9 370.898C203.4 379.998 211.5 412.598 217 416.198C222.5 419.798 228 414.898 226.8 409.298Z" fill="#FFFDFA"/>
<path d="M220.8 418.1C219.3 418.1 217.9 417.6 216.6 416.7C210.7 412.7 202.8 379.2 203.2 370.8C203.4 366.2 204.9 363.2 207.2 362.6C209.7 362 212.6 364.1 215.5 368.6C221 377.4 227.1 407.8 227.4 409.1C228.1 412.1 226.9 415.1 224.4 416.9C223.4 417.8 222.1 418.2 220.8 418.1ZM208.2 363.8C208 363.8 207.8 363.8 207.6 363.9C205.9 364.4 204.7 367 204.6 371C204.2 380 212.2 412.3 217.4 415.8C219.2 417.2 221.8 417.3 223.7 416C225.8 414.5 226.8 412 226.2 409.5C226.1 409.2 219.9 378 214.4 369.4C212.2 365.8 209.9 363.8 208.2 363.8Z" fill="#22262E"/>
<path d="M232 300.5H231.9C231.6 300.4 231.3 300.1 231.4 299.7L243 236.5C243.1 236.2 243.4 235.9 243.7 236C244 236.1 244.3 236.4 244.2 236.7L232.6 300C232.5 300.3 232.3 300.5 232 300.5Z" fill="#FFFDFA"/>
</svg>
