<svg width="619" height="524" viewBox="0 0 619 524" fill="none" xmlns="http://www.w3.org/2000/svg">
<g clip-path="url(#clip0_1311_8520)">
<g clip-path="url(#clip1_1311_8520)">
<path d="M142.135 38.8245C155.428 37.211 173.011 43.1508 183.708 50.9076C191.698 56.7019 200.848 66.7709 206.505 75.0145C207.712 76.7747 208.782 79.7484 209.519 80.8592C211.122 83.2766 214.003 91.9719 215.086 93.4156C222.152 102.826 236.419 110.303 238.389 123.262C239.674 131.714 236.543 140.342 231.6 147.198C236.772 147.131 243.44 146.812 248.488 147.399C250.866 147.676 257.436 151.654 259.808 153.107C274.024 152.256 284.524 151.992 298.8 152.268C299.827 148.023 300.703 142.629 301.55 138.218L306.371 113.562C307.741 106.639 308.773 96.5999 313.682 91.4768C328.156 93.9273 342.91 95.8145 357.402 98.1592C361.295 98.7889 368.253 99.0836 370.364 102.41C370.941 103.319 371.133 103.983 371.01 105.033C370.37 110.493 369.1 116.176 367.995 121.558C365.926 131.354 363.958 141.172 362.093 151.009C362.714 151.145 363.33 151.302 363.941 151.477C369.073 152.958 371.393 154.017 373.971 158.733C377.742 160.43 381.755 161.83 385.469 163.536C391.58 166.342 397.946 169.488 403.834 172.729C442.237 194.246 470.71 229.893 483.186 272.076C485.494 274.047 489.91 276.897 492.584 278.687C499.135 283.044 505.772 287.272 512.49 291.369C521.781 286.781 542.564 272.762 553.793 275.304C559.227 276.533 554.673 288.116 552.667 291.798C543.293 309.001 529.768 329.367 511.641 338.104C504.504 341.434 487.099 331.815 480.31 328.429C472.992 348.117 462.618 368.469 447.594 383.487C452.305 395.911 457.682 410.666 462.921 422.807C470.101 420.202 493.292 414.596 499.764 417.823C500.059 418.109 500.22 418.256 500.5 418.571C501.227 419.389 501.335 420.637 501.204 421.683C500.211 429.693 477.749 449.682 471.085 455.136C464.585 460.455 448.63 473.613 440.079 472.48C437.233 472.102 434.465 470.016 432.469 468.024C428.8 464.364 425.924 459.586 423.011 455.315C417.124 446.712 411.343 438.036 405.671 429.29C402.698 424.695 399.011 418.081 395.656 414.098C386.618 420.662 376.639 425.738 366.222 429.864C311.108 451.696 248.458 453.026 192.512 433.408C176.5 427.794 160.76 418.24 145.656 410.462C136.113 415.065 125.628 417.257 115.373 413.836C107.934 411.355 107.413 406.565 109.829 400.181C102.586 397.398 96.6582 394.45 92.1211 388.566C82.1546 375.642 81.0382 359.073 78.152 343.751C75.9825 338.411 70.9951 332.239 68.471 327.377C60.1824 311.408 46.3351 287.722 48.3899 269.493C50.518 250.614 67.8138 233.43 80.5598 220.441C92.7604 208.007 106.264 196.275 119.765 185.241C111.815 177.066 108.718 170.066 104.094 159.879C95.3911 140.822 89.7612 120.305 89.7605 99.2074C89.7599 89.1934 90.7173 74.2731 99.5047 67.1907C102.355 64.8932 106.104 65.7156 109.397 66.4633C114.137 50.4023 125.454 40.7468 142.135 38.8245Z" fill="#22262E"/>
<path d="M131.374 247.52C132.916 248.128 146.619 260.287 148.613 262.159C144.095 275.911 141.737 283.609 147.309 298.316C154.165 316.411 179.447 332.818 197.222 339.809C244.778 358.512 302.259 357.735 349.255 337.946C363.195 362.628 379.435 387.825 394.272 412.067C383.421 420.842 360.409 429.824 347.021 433.821C342.805 435.245 333.433 437.823 328.987 438.645C318.415 440.453 305.706 443.607 295.073 444.226C249.175 446.898 201.496 439.864 161.425 416.23C156.996 413.618 152.207 411.357 147.761 408.55C161.267 394.931 144.925 388.827 132.891 387.849C136.437 382.737 137.144 381.614 135.441 375.493C139.066 368.912 138.675 365.719 131.44 362.89C134.517 360.028 137.218 357.449 139.738 354.106C147.164 344.255 150.4 330.477 148.559 318.354C147.831 313.565 145.324 303.894 141.083 301.33C132.214 295.965 117.716 297.504 108.277 299.351C107.118 290.516 105.797 281.702 104.316 272.914C106.153 270.431 112.49 265.005 115.064 262.684C120.604 257.741 126.042 252.685 131.374 247.52Z" fill="#3185FF"/>
<path d="M184.282 342.371C185.275 343.026 184.976 342.601 185.376 343.554C184.846 344.424 180.416 346.509 179.007 347.391C176.848 348.77 174.773 350.276 172.793 351.902C165.262 358.021 162.892 361.813 157.284 369.035C156.559 368.833 156.599 368.786 156.048 368.251L156.079 367.52C163.264 356.275 172.304 348.197 184.282 342.371Z" fill="#22262E"/>
<path d="M354.64 265.308C364.646 264.733 372.137 264.851 381.511 268.996C403.377 278.665 411.938 299.907 419.908 320.624L428.14 341.712C439.305 369.738 450.296 397.832 461.112 425.994C466.868 424.035 494.644 415.987 498.366 420.567C498.933 423.846 494.97 427.995 492.937 430.42C482.076 443.2 469.474 454.395 455.5 463.678C449.371 467.958 441.063 473.817 434.829 466.556C427.632 458.172 421.715 448.593 415.578 439.398C398.286 413.38 381.561 386.991 365.415 360.248C362.294 355.099 353.054 337.862 349.683 334.917C338.899 339.076 331.132 342.011 319.791 345.088C319.668 337.215 319.471 328.815 319.82 320.971C320.465 306.487 323.437 292.01 325.55 277.697C325.84 275.739 326.343 272.273 327.457 270.737C331.029 268.619 349.865 265.889 354.64 265.308Z" fill="#FFFDFA"/>
<path d="M381.224 220.006C403.491 217.751 448.691 252.864 468.29 266.015C482.87 275.712 497.548 285.26 512.324 294.656C514.967 292.968 520.187 290.225 523.334 288.612C531.661 284.46 539.815 278.601 549.226 277.336C551.62 277.015 554.213 277.818 554.034 280.684C553.863 283.415 552.26 286.871 551.064 289.319C544.311 303.143 535.116 315.972 524.017 326.642C520.867 329.653 514.817 334.988 510.497 335.865C509.007 336.167 506.525 336.054 504.954 335.999C501.76 335.296 499.646 334.357 496.674 333.101C473.883 323.474 452.024 311.459 430.202 299.794C424.853 296.951 419.536 294.05 414.25 291.091C412.906 290.339 408.533 287.961 407.567 287.228C405.09 285.351 402.767 281.35 400.386 278.991C384.052 262.811 365.945 260.189 344.218 264.442C334.907 266.264 328.98 267.845 319.583 267.721C320.27 260.302 320.955 257.035 327.08 252.695C344.182 240.577 359.378 222.831 381.224 220.006Z" fill="#FFFDFA"/>
<path d="M121.65 186.688C121.972 186.769 123.613 187.55 124.124 187.749C127.917 189.227 129.948 189.583 134.001 189.023C140.879 203.003 148.665 214.128 160.795 224.136C154.355 233.528 150.608 247.058 148.576 258.179C144.433 255.067 137.423 249.036 133.626 245.436C137.642 241.282 141.893 237.663 146.028 233.655C146.641 233.06 146.599 232.684 146.654 232.013C145.918 231.341 146.351 231.601 145.208 231.413C140.708 233.929 126.898 248.337 122.494 252.498C116.757 257.918 107.208 265.676 101.919 271.219C101.722 274.004 102.556 277.525 102.945 280.327C103.817 286.605 105.533 293.718 105.822 299.995C98.4178 303.158 86.6509 308.204 85.3908 317.76C84.0375 328.021 89.4694 340.846 95.0163 349.198C97.4368 352.842 101.511 356.285 105.074 358.789C112.193 364.062 115.448 364.917 124.151 364.695C125.927 364.839 129.098 364.499 130.761 365.024C139.772 367.875 134.855 374.997 127.451 375.495C119.173 376.053 113.3 375.149 105.685 371.935C104.889 371.599 104.263 371.702 103.615 372.131C104.007 373.239 104.601 373.371 105.688 373.963C111.147 376.452 117.096 377.682 123.096 377.565C125.338 377.534 131.428 376.755 133.083 377.393C133.623 377.865 134.173 378.341 134.142 379.06C133.685 389.839 117.201 387.272 110.337 385.566C108.124 385.016 106.228 383.744 104.578 383.91L104.184 384.461C105.063 388.647 124.32 389.48 128.579 388.513C129.524 388.299 129.61 388.553 130.201 389.122C130.495 389.935 130.732 390.634 130.653 391.51C130.537 392.788 129.418 393.842 128.452 394.574C124.662 397.448 117.649 398.907 112.956 398.295C105.047 397.262 98.1879 392.416 93.4464 386.177C86.8662 377.516 83.6294 364.719 82.4517 353.976C82.0633 350.433 82.2575 345.834 80.9169 342.537C78.6049 336.853 73.3621 330.68 70.108 325.273C63.7731 314.746 59.0105 303.199 54.725 291.712C53.2011 287.627 51.4556 283.478 50.6994 279.166C50.117 275.845 50.2581 272.46 50.7467 269.136C51.7149 262.554 54.5328 255.992 58.0474 250.379C69.6655 231.823 103.903 199.93 121.65 186.688Z" fill="#FFFDFA"/>
<path d="M141.705 41.36C156.88 40.7616 167.023 43.7079 180.313 51.7371C187.737 56.2229 205.786 75.1045 207.635 83.1401C205.369 83.3232 204.421 83.41 202.22 83.9401C198.162 82.2813 191.883 78.0501 188.186 75.2793C186.479 73.9995 185.386 72.0874 183.105 70.6238C182.915 70.6353 182.725 70.6474 182.534 70.6589C180.157 74.6968 179.271 79.4684 175.806 82.8523C167.831 90.6411 157.88 93.6084 147.071 93.5797C149.491 104.281 149.356 109.29 142.329 117.987C135.988 113.529 129.128 112.439 122.211 116.574C113.801 121.603 115.912 132.769 120.611 139.564C123.517 143.765 127.009 145.559 131.934 146.447C133.18 146.524 134.569 146.763 135.816 146.945C139.006 150.26 148.483 164.082 149.039 168.457C150.91 181.907 131.158 193.325 121.287 183.197C110.457 172.084 101.344 149.812 97.274 134.931C94.8905 126.215 93.3073 117.299 92.544 108.296C91.6499 96.5815 91.8198 80.1747 99.6141 70.6296C103.571 65.7846 108.442 68.5516 112.164 72.0102C111.733 55.5198 126.254 43.4374 141.705 41.36Z" fill="#FFFDFA"/>
<path d="M188.105 108.699C190.407 109.664 193.64 112.128 195.959 113.467C198.229 114.777 203.871 116.583 204.13 119.35C204.643 124.823 195.892 126.908 193.886 129.792L194.033 130.275C195.66 131.217 199.488 129.849 200.952 128.79C205.39 125.579 206.135 120.828 207.076 115.858L214.075 111.852C216.232 125.192 217.563 143.316 205.609 152.009C194.865 159.822 185.081 160.243 172.14 159.938C169.082 159.867 160.734 156.646 159.171 157.383C159.17 158.08 159.649 158.628 160.204 159.057C172.68 168.694 185.332 177.143 201.495 177.185C201.516 178.624 201.439 180.074 202.233 181.269C203.305 181.702 202.971 181.568 204.258 181.406C205.204 180.347 204.769 160.671 204.755 157.678C209.715 158.492 213 157.465 217.665 155.917C222.613 165.072 230.985 176.72 237.663 184.681C233.393 188.791 232.575 190.138 229.988 195.53C227.404 200.91 225.863 206.94 224.322 212.686C208.38 208.512 188.151 207.037 172.601 213.002C163.06 203.295 155.031 193.428 146.512 182.844C158.488 168.507 147.227 159.185 139.338 146.806C142.022 146.445 147.194 145.658 148.155 142.752L147.745 142.389C145.963 142.159 141.72 143.664 139.588 144.069C128.631 146.149 120.588 139.371 119.229 128.638C118.389 122.015 123.666 117.068 130.164 116.505C135.001 116.085 138.122 118.224 141.623 121.203C145.934 119.239 150.778 117.626 155.272 116.036C157.08 121.141 160.166 124.848 165.295 126.916C174.843 130.766 187.848 125.314 188.468 114.089C188.568 112.271 188.322 110.507 188.105 108.699Z" fill="#FFFDFA"/>
<path d="M202.537 135.586C203.102 135.793 203.182 135.95 203.683 136.345C204.208 139.908 194.733 142.764 191.913 143.237C186.693 144.112 183.275 143.059 179.074 140.116C177.927 138.957 177.889 138.83 177.793 137.51C183.779 136.061 185.908 147.246 202.537 135.586Z" fill="#22262E"/>
<path d="M230.635 149.785C232.599 149.7 245.927 149.473 247.645 149.979C268.607 156.154 282.228 182.089 293.297 199.417C296.132 203.856 298.443 209.204 301.174 213.683C303.848 218.069 306.289 221.863 309.014 226.017C308.21 227.934 304.88 234.544 306.271 236.056L307.098 235.866C308.249 234.996 308.738 233.828 309.241 232.513C311.815 225.645 313.23 218.683 316.5 212.048C319.536 205.89 322.232 199.381 324.744 192.999C331.792 193.886 338.832 194.848 345.859 195.883L347.928 194.293C349.513 194.382 352.115 194.917 353.126 193.657C352.604 192.047 346.355 191.483 344.101 190.026C341.463 188.32 341.425 188.373 339.394 186.065C342.554 175.39 352.369 182.794 358.008 181.475C358.775 180.744 358.606 181.166 358.677 180.236C356.204 178.126 341.966 178.208 342.508 172.979C343.394 164.436 363.026 169.363 365.605 166.666L365.4 166.161C361.03 163.256 348.809 167.369 346.653 163.008C346.449 161.06 347.277 160.344 348.457 158.812C348.675 158.59 348.897 158.37 349.121 158.154C352.297 155.104 356.559 153.446 360.962 153.544C380.972 154.185 367.72 185.039 362.112 194.087C360.334 196.956 357.562 199.5 355.978 202.48C354.898 204.918 354.851 207.519 354.414 210.118C353.359 216.382 352.826 223.109 351.135 229.214C350.522 231.426 346.605 234.12 344.761 235.538C337.529 241.102 330.379 246.809 323.203 252.448C318.475 256.218 313.417 259.906 308.919 263.913C307.416 259.62 304.412 253.418 302.442 249.205C296.187 235.86 289.327 222.806 281.884 210.085C275.671 199.621 265.249 179.745 250.266 184.36C243.978 170.206 238.579 162.619 230.635 149.785Z" fill="#FFFDFA"/>
<path d="M374.733 161.715C377.852 163.323 383.636 165.491 387.13 167.071C393.704 170.091 400.128 173.427 406.379 177.067C428.518 189.684 449.279 211.324 462.778 232.808C469.091 242.856 477.318 259.765 480.405 271.049C474.167 266.971 467.8 262.532 461.664 258.29C442.255 244.659 415.557 225.136 392.743 218.731C378.229 214.656 366.007 221.19 354.076 228.628C354.788 224.352 355.463 220.071 356.101 215.784C357.993 202.484 356.792 204.924 364.59 194.743C370.505 187.02 373.489 171.566 374.733 161.715Z" fill="#3185FF"/>
<path d="M317.328 100.57C321.179 101.555 327.864 102.38 332.038 103.027C342.023 104.515 351.993 106.097 361.95 107.771C360.55 113.207 359.109 121.856 357.922 127.606C356.506 134.468 354.023 145.436 353.503 152.108C347.82 155.55 345.522 156.536 343.02 162.94C343.645 164.063 344.453 165.14 345.197 166.196C341.512 168.493 338.208 171.772 340.853 176.25L341.849 177.336C342.13 179.104 339.216 179.965 337.404 183.27L337.193 183.663C326.97 182.757 312.305 180.12 301.892 178.579C304.061 169.493 305.86 157.928 307.677 148.507L317.328 100.57Z" fill="#FFFDFA"/>
<path d="M316.338 157.973C322.447 158.054 317.12 165.355 315.675 167.703C317.618 166.617 318.87 165.731 320.689 164.434L321.712 168.993C322.799 168.29 323.482 167.718 324.674 167.19C325.652 167.938 328.34 169.946 328.7 171.081C326.55 171.697 326.53 170.066 324.206 169.302C322.707 169.892 322.218 170.251 320.802 169.392C320.379 168.463 320.316 168.253 319.702 167.408C319.285 167.362 314.73 168.817 313.355 169.02L312.76 169.104C314.624 169.836 315.276 169.972 317.171 170.343C319.219 170.724 327.705 171.729 328.39 173.352C326.795 173.905 315.55 171.378 312.997 170.89C311.966 172.276 311.241 173.589 309.516 173.988C309.711 172.436 310.868 172.255 311.107 170.752C310.607 170.393 310.366 170.208 309.912 169.795L310.211 169.281C311.33 169.242 311.517 169.236 312.6 169.001C315.405 166.264 310.38 163.158 316.338 157.973Z" fill="#3185FF"/>
<path d="M317.039 159.16C317.423 159.44 317.444 159.546 317.747 159.932C317.822 162.252 316.21 164.265 314.957 166.265L314.67 166.068C313.563 163.788 315.356 160.728 317.039 159.16Z" fill="#FFFDFA"/>
<path d="M314.923 143.887C321.278 145.576 327.757 146.76 334.299 147.43C335.928 147.603 344.066 148.253 344.912 148.755L345.091 150.095C337.99 149.516 322.344 148.164 315.243 145.33C314.868 145.181 314.965 144.482 314.923 143.887Z" fill="#22262E"/>
<path d="M317.417 132.442C318.401 132.414 327.959 134.661 330.284 135.026C335.466 135.838 341.605 136.57 346.906 137.305C347.514 137.389 347.663 137.994 347.891 138.48C345.358 139.381 325.195 135.942 321.423 134.879C319.071 134.216 318.526 134.365 317.417 132.442Z" fill="#22262E"/>
<path d="M320.17 120.938C320.852 121.059 322.997 121.796 323.867 122.023C327.049 122.846 330.26 123.551 333.495 124.139C337.702 124.878 345.477 125.37 348.88 126.246L349.366 127.249C345.412 127.913 325.148 124.852 320.662 122.511C320.233 122.288 320.266 121.551 320.17 120.938Z" fill="#22262E"/>
<path d="M335.869 160.816L336.433 160.936L336.747 161.471C335.881 163.276 331.574 166.122 329.626 166.437C329.206 166.505 328.777 165.843 328.476 165.528C327.823 164.602 327.309 164.114 327.303 163L327.748 162.681C328.913 162.982 329.263 163.751 330.003 164.755C331.886 163.421 333.939 162.101 335.869 160.816Z" fill="#E1E0E1"/>
<path d="M409.751 291.758C411.291 292.323 416.371 295.311 418.186 296.302L435.072 305.371C444.124 310.164 453.211 314.887 462.335 319.539C467.357 322.109 473.028 324.814 477.876 327.565C473.368 340.795 467.88 351.388 460.357 363.07C456.148 369.256 451.659 375.254 446.521 380.703C445.489 378.764 443.813 374.179 442.966 372.018L436.577 355.706C430.488 340.272 424.584 324.724 418.27 309.384C415.837 303.475 412.612 297.499 409.751 291.758Z" fill="#3185FF"/>
<path d="M144.927 313.637C146.612 315.867 146.608 326.441 146.252 329.675C145.173 341.071 140.01 352.347 131.187 359.805C121.171 368.27 104.657 357.642 98.2016 349.25C93.2755 342.827 90.505 334.878 88.375 327.18C98.4647 334.565 110.055 334.477 121.77 330.741C131.699 327.576 139.946 323.131 144.927 313.637Z" fill="#FFFDFA"/>
<path d="M127.034 336.139C130.644 335.565 138.087 335.864 141.063 338.341C142.537 339.567 139.941 341.592 139.525 342.837C135.238 355.67 126.176 359.734 113.207 357.239C108.761 355.572 105.83 353.458 102.821 349.802C102.14 348.974 100.211 346.818 99.4419 346.34C93.4939 342.969 100.648 339.314 104.073 338.529C111.285 336.876 119.569 336.918 127.034 336.139Z" fill="#22262E"/>
<path d="M121.912 300.099C131.786 299.277 151.08 302.671 140.168 317.134C134.042 325.253 119.313 330.089 109.354 331.088C100.801 331.839 93.7562 329.796 87.9513 323.42C87.7501 318.805 87.7546 315.751 91.1747 312.013C99.0584 303.399 110.889 300.822 121.912 300.099Z" fill="#FFFDFA"/>
<path d="M149.945 266.383C150.232 266.789 150.108 266.568 150.301 267.024C154.023 275.835 159.121 283.457 164.557 291.201C177.631 309.825 192.109 325.825 212.051 337.217C215.467 339.18 218.997 340.938 222.622 342.482C225.108 343.544 232.955 346.151 234.125 347.1C233.28 347.482 232.788 347.156 231.653 346.93C222.661 345.124 213.397 343.255 204.719 340.064C184.795 332.738 159.771 318.558 150.476 298.778C145.323 287.812 145.811 277.568 149.945 266.383Z" fill="#FFFDFA"/>
<path d="M281.331 154.317C286.57 153.878 293.256 154.351 298.451 154.915C296.653 162.178 295.593 169.934 293.822 177.19C292.892 181.002 291.329 186.467 296.447 187.541C304.883 189.309 313.693 189.946 322.092 191.905C319.904 197.85 317.327 203.987 314.879 209.831C313.727 209.395 312.494 209.032 311.315 208.658C307.569 207.462 303.683 206.671 299.842 205.812C297.817 203.045 294.392 196.785 292.431 193.627C282.751 178.031 276.699 167.543 262.812 155.266C268.735 154.734 275.28 154.667 281.331 154.317Z" fill="#3185FF"/>
<path d="M216.425 98.8672C218.03 100.076 219.913 102.226 221.373 103.555C231.941 113.178 239.642 121.756 234.34 136.727C231.525 144.675 228.396 147.998 220.798 151.938C214.73 154.727 212.076 155.497 205.597 155.478C208.73 152.998 212.992 149.671 214.557 145.85C217.166 139.156 218.883 127.563 217.846 120.354C216.573 111.507 215.727 107.948 216.425 98.8672Z" fill="#FFFDFA"/>
<path d="M183.388 74.6641C188.052 78.5552 194.806 82.8598 199.922 86.261C197.654 88.0723 195.165 90.4239 193.389 92.7067C190.894 95.912 189.515 98.48 186.428 101.225C179.517 101.369 177.154 97.5179 170.336 98.3549C164.982 99.0114 160.335 102.207 157.085 106.412C155.706 108.812 155.368 111.087 154.79 113.775C152.406 114.462 149.561 115.488 147.164 116.279C151.279 107.677 151.604 105.576 150.43 96.4128C165.729 93.6248 177.307 90.1566 183.388 74.6641Z" fill="#FFFDFA"/>
<path d="M133.176 390.254C138.101 390.229 146.528 391.786 149.334 396.246C150.263 397.693 150.56 399.457 150.156 401.128C149.456 404.059 146.517 406.945 143.977 408.468C135.945 413.285 126.784 414.203 117.832 412.306C113.902 411.055 109.794 408.411 110.765 403.362C110.927 402.525 112.738 400.503 113.466 400.55C120.541 401.001 125.339 398.89 131.384 395.604C132.3 397.479 133.689 403.253 135.665 403.659L136.156 403.209C136.731 400.407 133.45 394.12 133.176 390.254Z" fill="#FFFDFA"/>
<path d="M300.986 208.402C305.791 209.39 309.424 210.51 314.061 211.98C312.747 214.417 312.024 215.82 311.033 218.383L309.723 222.621C307.069 218.605 302.963 212.69 300.986 208.402Z" fill="#FFFDFA"/>
<path d="M321.828 270.358C322.867 270.286 322.99 270.175 323.878 270.718L323.838 271.139C321.746 272.623 294.234 278.405 290.247 279.133C289.066 279.325 288.621 279.472 287.802 278.631C288.672 277.303 297.281 275.818 299.245 275.384L321.828 270.358Z" fill="#FFFDFA"/>
<path d="M379.911 445.34L380.176 445.692C380.311 448.573 374.988 451.296 372.688 452.405C365.372 455.933 359.428 456.997 351.659 454.251C351.591 454.352 351.522 454.452 351.455 454.553C340.322 465.849 315.084 472.292 302.199 463.312C301.03 466.292 298.557 470.157 297.035 473.097C291.484 483.817 284.611 494.047 272.544 497.935C272.337 497.875 271.966 497.651 271.757 497.538C272.031 497.148 276.247 495.82 277.346 495.215C290.106 488.199 295.077 474.242 301.999 462.156C314.314 471.852 342.078 464.523 351.505 453.294C360.687 456.751 374.5 453.92 379.911 445.34Z" fill="#9B999B"/>
<path d="M137.34 441.855C138.492 443.216 137.738 448.83 141.603 451.831C148.726 457.362 160.47 455.386 168.549 453.423C170.834 452.868 174.116 451.41 176.099 451.278L176.02 451.562C174.544 452.421 172.739 453.04 171.093 453.5C159.134 456.849 140.783 460.51 136.705 444.42C135.274 446.776 133.462 448.591 131.524 450.521C125.965 456.328 116.627 461.722 109.155 464.659C107.042 465.49 97.413 469.776 96.0156 469.651C97.2649 468.093 101.773 466.841 103.873 466.018C118.329 460.353 128.807 455.081 137.34 441.855Z" fill="#9B999B"/>
<path d="M556.769 359.902C557.041 359.974 556.864 359.906 557.228 360.239C555.093 362.528 534.792 368.508 530.627 369.41C527.963 369.993 525.253 370.337 522.529 370.44C515.036 370.706 509.498 367.46 504.094 362.47C497.097 373.867 488.27 381.148 476.318 386.744L475.832 386.675L475.611 386.295C477.193 385.263 481.716 383.341 484.185 381.841C494.043 375.852 497.575 369.883 504.178 361.56C506.655 364.016 511.199 367.234 514.432 368.434C525.106 372.392 546.598 364.373 556.769 359.902Z" fill="#9B999B"/>
<path d="M416.017 99.8281C417.489 101.151 417.583 102.723 420.392 104.464C426.711 108.381 433.618 108.986 440.771 107.344C442.496 106.948 444.476 105.444 446.55 105.004C444.888 107.626 437.822 108.869 434.814 109.054C426.934 109.538 422.161 106.998 416.523 102.06C415.896 104.04 415.4 105.379 414.599 107.297C412.609 110.869 408.969 114.336 405.452 116.393C403.597 117.466 401.63 118.331 399.586 118.974C397.742 119.558 388.028 120.937 386.457 120.525C389.16 118.698 400.098 119.931 406.506 114.914C412.461 110.251 414.484 107.564 416.017 99.8281Z" fill="#9B999B"/>
<path d="M543.076 204.551L543.361 205.005C543.171 205.233 542.75 205.743 542.497 205.909C535.781 210.331 520.472 213.803 514.471 206.58C509.421 214.286 502.594 221.842 494.194 225.916C489.905 227.996 487.123 228.09 482.46 227.396L482.108 226.804L482.537 226.549C496.413 229.037 507.739 215.723 514.34 205.246C521.308 212.875 535.515 209.844 543.076 204.551Z" fill="#9B999B"/>
<path d="M73.3756 146.129C73.6821 146.43 73.5327 146.219 73.6534 146.855C70.5782 152.516 62.7251 157.113 56.272 156.748C53.1648 156.572 51.2367 155.541 48.5945 154.131C43.3569 166.984 25.4521 174.926 12.3281 174.557C12.4292 174.365 12.8301 173.848 12.9095 173.84C15.6727 173.56 19.3292 173.086 21.916 172.531C25.9841 171.658 29.9142 170.236 33.5979 168.303C41.1013 164.431 45.5132 160.682 48.1136 152.655C57.5678 159.601 67.4149 154.582 73.3756 146.129Z" fill="#9B999B"/>
<path d="M289.926 77.8438C292.519 81.0937 294.967 84.8522 301.081 82.3991C301.249 82.3321 302.511 81.3891 302.734 81.2366L303.31 81.3502L303.483 81.7113C302.419 83.3822 298.853 84.017 296.992 83.8965C293.7 83.6827 292.077 82.1751 289.975 79.9083C283.735 88.0875 277.636 91.5684 268.465 95.2631C264.846 96.4497 259.908 97.2447 256.334 95.7416C255.146 95.2414 252.796 94.3054 252.325 93.1921C253.202 92.9178 257.399 95.2631 258.778 95.4385C261.401 95.7722 264.128 95.4857 266.654 94.8688C276.36 92.4903 284.727 86.3693 289.926 77.8438Z" fill="#9B999B"/>
<path d="M26.4371 330.789L26.7001 331.035C27.9881 338.384 38.9969 341.402 44.8516 337.826C45.8084 337.241 46.9855 335.637 47.8605 335.525C47.7934 340.015 37.9342 340.811 34.7965 339.595C30.515 337.935 28.3525 336.661 26.0984 332.68C25.2631 334.498 24.792 335.012 23.575 336.529C19.659 340.939 8.94997 349.966 2.70605 347.575C12.3948 346.157 22.3397 339.885 26.4371 330.789Z" fill="#9B999B"/>
</g>
</g>
<defs>
<clipPath id="clip0_1311_8520">
<rect width="619" height="524" fill="white"/>
</clipPath>
<clipPath id="clip1_1311_8520">
<rect width="654" height="638" fill="white" transform="translate(-17.5 -57)"/>
</clipPath>
</defs>
</svg>
