<svg width="286" height="286" viewBox="0 0 286 286" fill="none" xmlns="http://www.w3.org/2000/svg">
<path d="M265.98 215.129H42.5C42.2712 215.129 42.0996 214.957 42.0996 214.729C42.0996 214.5 42.2712 214.328 42.5 214.328H265.98C266.209 214.328 266.381 214.5 266.381 214.729C266.381 214.957 266.209 215.129 265.98 215.129Z" fill="#D1D3D4"/>
<path d="M83.4547 190.305C83.5691 188.932 83.2259 187.616 82.5395 186.415C81.9675 185.557 81.0523 184.871 80.5947 183.955C79.7939 182.354 80.3659 180.523 80.1371 178.807C79.9655 177.32 79.2219 175.947 78.0779 174.975C77.0483 174.06 75.7327 173.431 74.7603 172.515C73.1587 170.971 72.7011 168.74 71.7859 166.795C70.4131 163.993 68.1823 161.647 65.4367 160.16C67.1527 163.249 63.2059 167.196 64.9791 170.285C65.5511 171.257 66.6379 172.001 67.0383 173.03C68.0679 175.547 64.6931 178.235 65.7799 180.695C66.2947 181.953 67.7819 182.64 68.5255 183.841C69.4407 185.443 68.6971 187.33 68.8115 189.103C68.9259 191.563 70.5847 193.737 72.5867 195.453C73.8451 196.539 75.2179 197.455 76.5907 198.37C78.1923 199.514 78.8787 200.715 80.3087 198.885C82.2535 196.368 83.3403 193.393 83.4547 190.305Z" fill="#D1D3D4"/>
<path d="M87.0581 191.447C86.5433 189.56 86.1429 187.501 87.0581 185.67C88.0305 183.668 90.4901 182.238 90.7761 180.007C90.9477 178.577 90.1469 177.09 90.4329 175.717C90.7189 174.345 92.0917 173.315 93.1785 172.285C95.5809 169.997 97.1253 166.851 97.3541 163.477C98.8985 165.307 100.5 167.137 101.358 169.311C102.216 171.485 102.216 174.001 100.786 175.889C100.386 176.347 100.042 176.804 99.7565 177.376C99.2417 178.806 100.615 180.065 101.301 181.437C102.159 182.982 101.93 184.869 100.786 186.185C99.3561 187.729 96.6105 188.359 95.9241 190.246C95.7525 190.933 95.6953 191.676 95.6953 192.42C95.4665 194.879 93.2929 197.282 90.5473 197.854C88.8885 198.197 88.8885 197.625 88.6025 196.367C88.2593 194.765 87.5157 193.106 87.0581 191.447Z" fill="#D1D3D4"/>
<path d="M81.7384 177.778C80.5372 174.117 80.0796 170.284 78.8212 166.681C77.7344 163.821 76.476 161.075 74.9316 158.387L80.0224 160.274C81.6812 160.904 83.4544 161.59 84.198 163.02C85.5708 165.48 83.1112 168.683 84.5412 171.085C85.056 171.943 85.914 172.572 86.5432 173.373C88.0304 175.261 87.8016 177.835 87.0008 180.008C86.6576 180.924 85.1132 185.786 83.6832 184.47C83.1112 183.898 83.054 181.896 82.8252 181.152C82.5392 180.066 82.0816 178.922 81.7384 177.778Z" fill="#D1D3D4"/>
<path d="M80.9948 211.584C80.0796 205.006 79.336 199.229 79.336 199.172L78.5352 199.286C78.5352 199.401 79.336 205.063 80.194 211.584H80.9948Z" fill="#D1D3D4"/>
<path d="M87.916 211.581C89.0028 203.058 90.1468 196.709 90.776 196.023L90.204 195.508C89.2888 196.48 88.0876 203.916 87.1152 211.638H87.916V211.581Z" fill="#D1D3D4"/>
<path d="M86.944 211.582C86.086 196.138 84.5416 180.808 84.4844 180.637L83.6836 180.694C83.6836 180.866 85.228 196.138 86.1432 211.582H86.944Z" fill="#D1D3D4"/>
<path d="M73.0439 202.43H95.6951L94.0935 219.475C93.8075 222.392 90.5471 224.68 86.5431 224.68H82.1388C78.192 224.68 74.8743 222.392 74.5883 219.475L73.0439 202.43Z" fill="#D1D3D4"/>
<path d="M89.9186 141.228C121.667 141.228 147.405 121.534 147.405 97.2407C147.405 72.9475 121.667 53.2539 89.9186 53.2539C58.17 53.2539 32.4326 72.9475 32.4326 97.2407C32.4326 121.534 58.17 141.228 89.9186 141.228Z" fill="#FFFDFA"/>
<path d="M89.9186 141.626C58.001 141.626 32.0322 121.72 32.0322 97.2388C32.0322 72.7572 58.001 52.8516 89.9186 52.8516C121.836 52.8516 147.805 72.7572 147.805 97.2388C147.805 121.72 121.836 141.626 89.9186 141.626ZM89.9186 53.6524C58.4586 53.6524 32.833 73.2148 32.833 97.2388C32.833 121.263 58.4586 140.825 89.9186 140.825C121.379 140.825 147.004 121.263 147.004 97.2388C147.004 73.2148 121.379 53.6524 89.9186 53.6524Z" fill="#D1D3D4"/>
<path d="M153.811 78.3047C153.525 78.3047 153.239 78.3619 153.011 78.4191C149.979 79.1627 149.178 83.3383 152.553 84.4251C154.383 84.9399 156.271 83.8531 156.729 82.0227C156.786 81.9083 156.786 81.7939 156.786 81.6795C157.015 80.0779 155.813 78.5335 154.212 78.3619C154.097 78.3047 153.926 78.3047 153.811 78.3047Z" fill="#FFFDFA"/>
<path d="M153.411 84.9991C151.523 84.9991 149.979 83.4547 149.922 81.5671C150.036 79.8511 151.237 78.421 152.896 78.0206C153.182 77.9634 153.525 77.9062 153.811 77.9062C155.699 77.9062 157.186 79.3935 157.243 81.2239C157.243 81.3955 157.243 81.5099 157.243 81.6815C157.129 82.7683 156.5 83.7406 155.527 84.3126C154.841 84.7702 154.155 84.9991 153.411 84.9991ZM153.811 78.7071C153.583 78.7071 153.354 78.7643 153.125 78.8215C151.809 79.1075 150.837 80.2515 150.78 81.6243C150.723 82.7683 151.523 83.7979 152.667 84.0839C154.269 84.4843 155.928 83.5691 156.328 81.9675C156.328 81.8531 156.385 81.7387 156.385 81.6815C156.557 80.2515 155.585 78.9931 154.155 78.8215C154.04 78.7071 153.926 78.7071 153.811 78.7071Z" fill="#D1D3D4"/>
<path d="M161.877 88.1428C164.165 88.6004 164.393 84.6536 161.991 85.1112C160.332 85.4544 160.161 87.7996 161.877 88.1428Z" fill="#FFFDFA"/>
<path d="M162.276 88.6006C162.105 88.6006 161.99 88.6006 161.819 88.5434C160.904 88.429 160.274 87.6282 160.274 86.713C160.274 85.7406 160.961 84.8826 161.933 84.7682C162.62 84.5966 163.363 84.8826 163.821 85.4546C164.278 86.1982 164.221 87.1134 163.764 87.7998C163.42 88.3146 162.848 88.6006 162.276 88.6006ZM161.933 87.7998C162.391 87.9142 162.848 87.7426 163.077 87.3994C163.363 86.9418 163.363 86.3698 163.134 85.9122C162.906 85.569 162.448 85.4546 162.048 85.569C161.476 85.6834 161.018 86.141 161.018 86.7702C161.075 87.2278 161.476 87.6854 161.933 87.7998Z" fill="#D1D3D4"/>
<path d="M223.766 160.332L240.354 156.156C239.725 154.955 229.658 124.81 220.449 118.919C212.498 112.341 196.654 111.712 178.636 110.968C172.858 110.625 167.081 111.197 161.476 112.627C140.483 118.404 125.726 148.205 125.726 148.205L146.432 152.266C146.432 152.266 143.114 183.04 140.254 220.563C140.254 220.563 173.259 227.999 224.739 225.082C224.682 225.139 223.252 165.651 223.766 160.332Z" fill="#3185FF"/>
<path d="M173.373 121.435L156.271 224.28L191.048 226.797L198.599 115.543L173.373 121.435Z" fill="#22262E"/>
<path d="M191.048 227.196L156.27 224.679C156.042 224.679 155.87 224.45 155.927 224.221L173.03 121.376C173.087 121.204 173.201 121.09 173.316 121.032L198.541 115.141C198.656 115.084 198.77 115.141 198.884 115.198C198.999 115.255 199.056 115.427 198.999 115.541L191.448 226.738C191.448 226.852 191.391 226.967 191.334 227.024C191.277 227.138 191.162 227.196 191.048 227.196ZM156.728 223.878L190.705 226.338L198.198 116.056L173.773 121.776L156.728 223.878Z" fill="#22262E"/>
<path d="M175.661 106.39L172.458 119.832C172.458 119.832 175.203 128.87 184.298 128.183C189.732 127.726 194.709 124.808 197.797 120.29L201.744 95.5219C201.744 95.5219 195.795 91.0031 200.028 77.2179C192.363 79.1627 184.298 78.9339 176.748 76.7031C176.748 76.7031 170.284 91.3463 170.227 98.3247C170.17 105.303 175.661 106.39 175.661 106.39Z" fill="#FFFDFA"/>
<path d="M183.383 128.642C174.86 128.642 172.172 120.062 172.115 119.948C172.115 119.89 172.115 119.833 172.115 119.719L175.204 106.677C173.888 106.22 169.77 104.389 169.827 98.3259C169.884 91.3475 176.119 77.1619 176.405 76.5327C176.462 76.3611 176.691 76.2467 176.862 76.3039C184.356 78.5347 192.306 78.7063 199.914 76.8187C200.028 76.7615 200.2 76.8187 200.314 76.9331C200.429 77.0475 200.429 77.2191 200.429 77.3335C198.312 84.3119 198.827 88.8307 199.685 91.3475C200.6 94.0931 201.973 95.1799 202.03 95.2371C202.145 95.3515 202.202 95.4659 202.202 95.6375L198.255 120.405C198.255 120.462 198.255 120.52 198.198 120.577C198.141 120.634 193.622 127.956 184.413 128.642C184.012 128.642 183.726 128.642 183.383 128.642ZM172.916 119.833C173.259 120.863 176.062 128.413 184.356 127.784C192.65 127.155 197.054 120.863 197.512 120.176L201.401 95.7519C200.372 94.8367 196.024 90.0319 199.514 77.8483C192.078 79.5071 184.356 79.3355 177.034 77.2191C176.119 79.3927 170.742 92.1483 170.685 98.3831C170.628 104.904 175.604 106.048 175.833 106.048C175.947 106.048 176.004 106.105 176.119 106.22C176.176 106.334 176.176 106.448 176.176 106.506L172.916 119.833Z" fill="#22262E"/>
<path d="M196.711 94.3223C197.225 93.1783 198.083 92.2059 199.17 91.5767C200.2 91.0619 201.344 90.6615 202.488 90.5471C203.117 90.3755 203.746 90.3755 204.375 90.4899C204.833 90.6043 205.176 90.8331 205.519 91.1191C206.377 91.7483 207.007 92.6635 207.293 93.6931C207.407 94.5511 207.293 95.4091 207.007 96.2099C206.778 97.1251 206.377 97.9831 205.92 98.7839C203.861 102.044 199.513 103.017 196.196 100.957L196.139 100.9" fill="#FFFDFA"/>
<path d="M199.971 102.442C198.541 102.442 197.111 102.042 195.91 101.241C195.739 101.127 195.681 100.898 195.796 100.669C195.91 100.44 196.139 100.44 196.368 100.555C197.855 101.527 199.685 101.87 201.401 101.47C203.117 101.07 204.662 100.04 205.577 98.5527C206.035 97.8091 206.378 96.9511 206.664 96.0931C206.95 95.3495 207.064 94.5487 206.95 93.7479C206.721 92.8327 206.149 91.9747 205.348 91.4027C205.062 91.1167 204.719 90.9451 204.319 90.8307C203.747 90.7163 203.175 90.7163 202.603 90.8879C201.516 91.0595 200.429 91.3455 199.399 91.8603C198.37 92.4323 197.569 93.3475 197.111 94.4343C196.997 94.6631 196.768 94.7203 196.597 94.6631C196.368 94.5487 196.311 94.3199 196.368 94.1483C196.883 92.8899 197.798 91.8603 198.999 91.2311C200.086 90.6591 201.23 90.3159 202.431 90.1443C203.117 89.9727 203.804 89.9727 204.49 90.1443C204.948 90.3159 205.405 90.5447 205.806 90.8879C206.778 91.5743 207.407 92.5467 207.693 93.6907C207.808 94.6059 207.693 95.5211 207.407 96.3791C207.121 97.2943 206.778 98.2095 206.263 99.0103C205.177 100.669 203.518 101.87 201.573 102.271C201.001 102.442 200.486 102.442 199.971 102.442Z" fill="#22262E"/>
<path d="M174.403 113.139C174.403 113.139 179.38 114.798 183.841 111.652C188.303 108.506 188.303 106.332 188.303 106.332C188.303 106.332 181.496 108.734 175.948 106.675L174.403 113.139Z" fill="#22262E"/>
<path d="M177.607 113.997C176.463 113.997 175.376 113.825 174.289 113.539C174.117 113.482 174.003 113.253 174.003 113.082L175.605 106.618C175.605 106.504 175.719 106.389 175.833 106.389C175.948 106.332 176.062 106.332 176.177 106.389C181.553 108.391 188.189 106.103 188.246 106.046C188.475 105.989 188.703 106.103 188.761 106.275C188.761 106.332 188.761 106.389 188.761 106.389C188.761 106.504 188.703 108.849 184.127 111.995C182.183 113.311 179.895 113.997 177.607 113.997ZM174.918 112.853C176.119 113.139 180.066 113.825 183.67 111.366C186.53 109.421 187.502 107.819 187.788 106.961C185.958 107.533 180.867 108.735 176.291 107.19L174.918 112.853Z" fill="#22262E"/>
<path d="M185.328 86.9414C185.328 86.9414 179.379 92.833 180.237 94.263C181.095 95.693 184.298 95.4642 184.298 95.4642" fill="#FFFDFA"/>
<path d="M183.898 95.8652C182.926 95.8652 180.695 95.7508 179.894 94.4352C178.979 92.8908 183.612 88.086 185.042 86.656C185.214 86.4844 185.442 86.4844 185.614 86.656C185.786 86.8276 185.786 87.0564 185.614 87.228C182.525 90.3168 180.237 93.4056 180.58 94.0348C181.152 95.0072 183.44 95.1216 184.241 95.0644C184.47 95.0072 184.642 95.1788 184.699 95.4076C184.756 95.6364 184.584 95.808 184.356 95.8652H184.298H183.898Z" fill="#22262E"/>
<path d="M192.067 87.6591C192.166 86.78 191.737 86.0104 191.109 85.9401C190.481 85.8698 189.892 86.5254 189.793 87.4044C189.695 88.2835 190.124 89.0531 190.752 89.1234C191.38 89.1937 191.969 88.5381 192.067 87.6591Z" fill="#22262E"/>
<path d="M181.302 85.9644C181.655 85.1534 181.471 84.2914 180.892 84.0392C180.313 83.787 179.557 84.24 179.204 85.051C178.851 85.862 179.034 86.724 179.613 86.9762C180.193 87.2284 180.949 86.7754 181.302 85.9644Z" fill="#22262E"/>
<path d="M189.79 102.788C189.675 102.788 189.561 102.731 189.504 102.674C185.957 99.2418 176.348 97.1826 176.233 97.1254C176.004 97.0682 175.89 96.8394 175.947 96.6678C176.004 96.439 176.233 96.3246 176.405 96.3818C176.805 96.439 186.358 98.5554 190.076 102.102C190.247 102.273 190.247 102.502 190.076 102.674C190.018 102.731 189.904 102.788 189.79 102.788Z" fill="#22262E"/>
<path d="M239.553 188.873C239.439 188.873 239.382 188.873 239.324 188.816L227.484 179.721C227.312 179.607 227.255 179.321 227.427 179.149C227.598 178.977 227.827 178.92 227.999 179.092L239.782 188.187C239.954 188.301 240.011 188.587 239.839 188.759C239.782 188.816 239.668 188.873 239.553 188.873Z" fill="#22262E"/>
<path d="M207.007 89.2881H206.893C206.664 89.2309 206.549 89.0021 206.607 88.8305C207.808 84.3689 208.952 79.8501 210.039 75.3885L210.153 74.9309C210.611 73.1005 211.125 70.9841 211.068 69.1537C211.011 67.7237 210.382 67.5521 208.38 67.5521C208.265 67.5521 208.151 67.4949 208.094 67.4377C208.037 67.3805 207.979 67.2661 207.979 67.1517C207.922 65.1497 207.007 63.2621 205.405 62.0609C202.717 60.1161 198.827 59.7157 194.652 60.9741L194.423 61.0313C190.305 62.2897 186.701 63.3765 182.182 63.5481C181.324 63.6053 180.409 63.5481 179.551 63.5481C176.348 63.2621 173.087 63.8341 170.113 65.0925C169.141 65.3785 168.168 65.8361 167.367 66.4653C166.567 67.2661 165.88 68.2385 165.48 69.3253C165.022 70.2405 164.679 71.2701 164.45 72.2997C163.993 75.4457 166.052 78.3057 167.367 79.7357C168.168 80.6509 169.369 81.6233 170.571 81.2801C170.799 81.2229 171.028 81.3373 171.085 81.5661C171.143 81.7949 171.028 81.9665 170.799 82.0809C169.541 82.4241 168.168 81.7949 166.795 80.3077C165.423 78.8205 163.192 75.7317 163.707 72.2425C163.935 71.1557 164.279 70.0689 164.793 69.0393C165.251 67.8381 165.995 66.8085 166.853 65.8933C167.768 65.2069 168.797 64.6921 169.827 64.3489C171.028 63.8913 172.229 63.4909 173.488 63.2049C175.49 62.8617 177.549 62.6901 179.551 62.8045C180.409 62.8045 181.324 62.8045 182.182 62.8045C186.587 62.6329 190.133 61.5461 194.251 60.3449L194.48 60.2877C198.885 58.9721 203.06 59.3725 205.92 61.4889C207.636 62.7473 208.666 64.6921 208.837 66.8085C210.267 66.8085 211.926 66.9801 211.983 69.2109C212.041 71.2129 211.526 73.3293 211.068 75.2169L210.954 75.6745C209.867 80.1933 208.666 84.7121 207.522 89.1165C207.293 89.1737 207.179 89.2881 207.007 89.2881Z" fill="#22262E"/>
<path d="M193.794 122.636C193.794 122.636 189.275 118.289 188.074 112.969C186.873 107.649 187.33 106.505 186.529 106.334C185.729 106.162 184.299 106.734 183.269 108.507C182.239 110.281 182.525 116.687 184.184 119.261C185.843 121.835 193.794 122.636 193.794 122.636Z" fill="#FFFDFA"/>
<path d="M193.794 123.036C193.451 122.978 185.614 122.178 183.841 119.489C182.068 116.801 181.782 110.28 182.926 108.335C184.07 106.39 185.557 105.761 186.587 105.99C187.33 106.162 187.445 106.791 187.616 108.164C187.731 109.136 187.96 110.68 188.474 112.968C189.618 118.116 194.023 122.349 194.08 122.406C194.194 122.521 194.252 122.692 194.137 122.864C194.08 122.921 193.966 123.036 193.794 123.036ZM186.186 106.734C185.557 106.734 184.47 107.248 183.612 108.736C182.754 110.223 182.869 116.572 184.528 119.032C185.672 120.748 190.133 121.72 192.764 122.063C191.392 120.519 188.646 117.087 187.731 113.026C187.216 110.68 186.987 109.193 186.873 108.164C186.701 107.02 186.644 106.734 186.472 106.676C186.358 106.734 186.301 106.734 186.186 106.734Z" fill="#22262E"/>
<path d="M126.927 148.832C126.927 148.832 106.792 198.31 114.343 213.411C121.893 228.512 196.081 235.204 196.081 235.204C196.081 235.204 205.519 239.208 208.437 239.837C211.354 240.466 222.451 241.096 222.451 241.096C222.451 241.096 218.275 241.954 219.705 243.212C221.135 244.47 229.372 244.47 230.173 241.553C230.973 238.636 228.685 226.91 226.169 224.965C223.652 223.02 195.166 216.156 193.05 215.928C190.933 215.699 144.144 199.397 144.144 199.397L150.207 153.408" fill="#FFFDFA"/>
<path d="M223.766 244.299C221.879 244.299 220.163 244.013 219.476 243.384C219.133 243.155 218.962 242.755 219.076 242.297C219.305 241.783 219.762 241.382 220.277 241.211C216.902 240.982 210.496 240.524 208.38 240.067C205.52 239.437 196.882 235.834 196.024 235.433C192.192 235.09 121.55 228.455 114 213.411C110.796 207.062 111.998 194.192 117.432 175.202C121.493 161.073 126.526 148.661 126.584 148.547C126.641 148.318 126.87 148.203 127.098 148.261C127.327 148.318 127.442 148.547 127.384 148.775V148.833C127.156 149.347 107.422 198.311 114.8 213.068C122.179 227.826 195.452 234.575 196.196 234.633C196.253 234.633 196.253 234.633 196.31 234.633C196.425 234.69 205.748 238.637 208.608 239.209C211.468 239.781 222.451 240.467 222.565 240.467C222.794 240.467 222.908 240.639 222.966 240.81C222.966 241.039 222.851 241.211 222.622 241.211C221.421 241.439 219.991 242.011 219.934 242.355C219.934 242.412 219.991 242.526 220.106 242.583C220.906 243.27 224.739 243.67 227.599 242.812C228.514 242.526 229.658 242.011 229.944 241.096C230.802 238.122 228.342 226.682 226.112 224.966C223.766 223.193 195.738 216.271 193.222 216.043C191.105 215.814 146.032 200.198 144.087 199.512C143.915 199.455 143.801 199.283 143.801 199.054L149.864 153.065C149.864 152.837 150.093 152.665 150.322 152.722C150.55 152.779 150.722 152.951 150.665 153.18L144.602 199.054C160.904 204.717 191.62 215.242 193.222 215.413C194.823 215.585 223.824 222.506 226.512 224.565C229.2 226.625 231.488 238.579 230.63 241.554C230.344 242.526 229.372 243.327 227.77 243.785C226.455 244.185 225.139 244.357 223.766 244.299Z" fill="#22262E"/>
<path d="M212.04 163.249C212.04 163.249 198.541 128.7 194.766 122.98C190.991 117.26 174.288 103.418 172.229 104.79C170.17 106.163 170.742 107.708 171.657 108.737C172.572 109.767 177.377 113.142 177.377 113.142C177.377 113.142 171.943 110.625 171.772 113.942C171.6 117.26 175.718 119.205 175.718 119.205C175.718 119.205 171.142 115.83 170.971 119.434C170.799 123.037 174.174 124.467 174.174 124.467C174.174 124.467 169.312 120.349 169.77 124.639C170.513 131.732 184.756 140.14 184.756 140.14L190.819 198.999C190.819 198.999 192.993 233.147 214.729 232.118C242.7 230.802 250.765 190.476 236.808 156.385" fill="#FFFDFA"/>
<path d="M213.7 232.517C192.65 232.517 190.362 199.341 190.305 199.055L184.299 140.425C182.583 139.395 169.999 131.559 169.255 124.695C169.141 123.551 169.37 122.75 169.942 122.464C170.285 122.292 170.685 122.292 171.086 122.35C170.571 121.492 170.342 120.462 170.399 119.432C170.456 118.46 170.8 117.831 171.429 117.545C171.772 117.373 172.172 117.316 172.573 117.373C171.658 116.458 171.2 115.2 171.2 113.884C171.2 113.198 171.543 112.568 172.115 112.168C172.973 111.768 173.946 111.71 174.861 111.939C173.545 111.024 172.344 110.052 171.2 108.965C170.056 107.935 169.999 106.162 171.028 105.018C171.257 104.732 171.543 104.56 171.886 104.389C173.431 103.359 179.494 107.992 182.983 110.852C187.445 114.513 192.936 119.604 194.995 122.693C198.77 128.356 211.812 161.646 212.327 163.076C212.384 163.248 212.327 163.476 212.098 163.591C211.869 163.648 211.64 163.591 211.583 163.362C211.469 163.019 198.027 128.756 194.309 123.15C192.593 120.519 187.788 115.829 182.468 111.482C176.005 106.162 172.802 104.732 172.344 105.075C171.715 105.418 171.314 105.99 171.143 106.62C171.143 107.306 171.372 107.935 171.829 108.45C172.516 109.251 176.119 111.882 177.435 112.797C177.606 112.912 177.664 113.14 177.549 113.312C177.435 113.484 177.206 113.541 177.034 113.484C176.176 113.083 173.66 112.168 172.516 112.854C172.172 113.083 171.944 113.484 171.944 113.941C171.829 115.772 173.316 117.202 174.46 118.06C174.918 118.288 175.376 118.574 175.776 118.86C175.948 118.975 176.005 119.204 175.89 119.375C175.776 119.547 175.547 119.604 175.376 119.547C174.918 119.318 174.46 119.032 174.003 118.746C173.145 118.346 172.23 118.002 171.715 118.288C171.372 118.46 171.2 118.86 171.143 119.49C171.086 120.748 171.543 122.006 172.401 122.922C173.03 123.265 173.602 123.722 174.174 124.18C174.346 124.294 174.346 124.523 174.232 124.695C174.117 124.866 173.946 124.924 173.717 124.866C173.088 124.58 172.458 124.123 171.944 123.665C171.2 123.265 170.514 123.036 170.17 123.208C169.827 123.379 169.77 123.837 169.884 124.638C170.628 131.444 184.585 139.796 184.699 139.853C184.814 139.91 184.871 140.024 184.871 140.139L190.934 198.998C190.934 199.341 193.279 232.746 214.443 231.716C223.195 231.316 230.516 226.911 235.55 219.018C245.102 204.031 245.331 178.92 236.179 156.555C236.122 156.326 236.179 156.098 236.408 156.04C236.637 155.983 236.866 156.04 236.923 156.269C246.189 178.863 245.903 204.26 236.236 219.475C231.031 227.598 223.538 232.116 214.5 232.574C214.386 232.517 214.043 232.517 213.7 232.517Z" fill="#22262E"/>
<path d="M211.354 161.934C211.354 161.934 222.28 191.563 225.025 201.344Z" fill="#FFFDFA"/>
<path d="M225.025 201.744C224.853 201.744 224.681 201.629 224.624 201.458C221.879 191.791 211.068 162.39 210.953 162.104C210.896 161.875 211.011 161.646 211.182 161.589C211.411 161.532 211.64 161.646 211.697 161.818C211.811 162.104 222.622 191.562 225.425 201.229C225.482 201.457 225.368 201.629 225.139 201.744C225.082 201.744 225.082 201.744 225.025 201.744Z" fill="#22262E"/>
<path d="M151.923 133.445C151.923 134.303 150.265 149.919 150.265 149.919Z" fill="#22262E"/>
<path d="M150.265 150.322C149.979 150.322 149.864 150.094 149.864 149.865C149.864 149.865 149.864 149.865 149.864 149.808C150.322 145.46 151.523 134.02 151.523 133.334C151.523 133.105 151.695 132.934 151.923 132.934C152.152 132.934 152.324 133.105 152.324 133.334C152.324 134.192 150.722 149.236 150.665 149.865C150.665 150.151 150.493 150.322 150.265 150.322Z" fill="#22262E"/>
<path d="M79.9085 103.76C79.4509 97.7545 81.7961 93.8649 88.4313 89.1173C94.4373 84.8845 96.0961 82.7109 95.8673 79.3933C95.5241 75.3893 91.9205 73.2157 86.5437 73.6161C79.8513 74.1309 76.0761 78.7641 76.1905 86.4289L61.6045 86.4861C60.9753 71.8429 70.5277 61.5469 85.6285 60.3457C99.0705 59.3161 109.481 66.6949 110.339 77.7345C110.854 84.4841 107.879 89.5749 100.443 94.9517C94.3801 99.4705 93.0645 101.244 93.2933 104.676L93.5793 108.108L80.3661 109.137L79.9085 103.76ZM79.8513 116.001L95.5241 114.8L96.7253 130.015L81.0525 131.216L79.8513 116.001Z" fill="#22262E"/>
</svg>
