<svg width="500" height="500" viewBox="0 0 500 500" fill="none" xmlns="http://www.w3.org/2000/svg">
<path d="M265.5 399.201C309.903 399.201 345.9 395.753 345.9 391.501C345.9 387.248 309.903 383.801 265.5 383.801C221.096 383.801 185.1 387.248 185.1 391.501C185.1 395.753 221.096 399.201 265.5 399.201Z" fill="#D1D3D4"/>
<path d="M240.5 366.699H290.5L296.5 342.699H234.5L240.5 366.699Z" fill="#FFFDFA"/>
<path d="M290.5 367.4H240.5C240.2 367.4 239.9 367.2 239.8 366.9L233.8 342.9C233.7 342.7 233.8 342.5 233.9 342.3C234 342.1 234.2 342 234.5 342H296.5C296.7 342 296.9 342.1 297.1 342.3C297.2 342.5 297.3 342.7 297.2 342.9L291.2 366.9C291.1 367.2 290.8 367.4 290.5 367.4ZM241 366H290L295.7 343.4H235.4L241 366Z" fill="#22262E"/>
<path d="M321.6 267.598C321.6 267.598 347.8 283.998 356.9 311.298C366 338.598 345.3 391.398 345.3 391.398L297.6 339.698L321.6 267.598Z" fill="#FFFDFA"/>
<path d="M345.3 392.201C345.1 392.201 344.9 392.101 344.8 392.001L297 340.201C296.8 340.001 296.8 339.701 296.9 339.501L320.9 267.401C321 267.001 321.4 266.901 321.8 267.001H321.9C322.2 267.201 348.4 283.801 357.5 311.101C361.3 322.601 360.5 339.601 355.1 361.801C352.6 371.901 349.5 381.901 345.8 391.701C345.7 391.901 345.5 392.101 345.3 392.201ZM298.4 339.601L345 390.201C347.8 382.601 364.5 336.301 356.2 311.601C348.1 287.401 326.2 271.701 321.9 268.801L298.4 339.601Z" fill="#22262E"/>
<path d="M208.2 267.598C208.2 267.598 182 283.998 172.9 311.298C163.8 338.598 184.5 391.398 184.5 391.398L232.2 339.698L208.2 267.598Z" fill="#FFFDFA"/>
<path d="M184.5 392.2H184.4C184.2 392.2 184 392 183.9 391.8C180.2 382 177.1 372 174.6 361.9C169.2 339.7 168.4 322.7 172.2 311.2C181.3 284 207.6 267.3 207.8 267.1C208 267 208.2 267 208.4 267C208.6 267.1 208.8 267.2 208.8 267.4L232.8 339.5C232.9 339.7 232.8 340 232.7 340.2L185 392C184.9 392.1 184.7 392.2 184.5 392.2ZM207.8 268.7C203.5 271.6 181.6 287.4 173.5 311.5C165.3 336.1 181.9 382.5 184.7 390.1L231.4 339.5L207.8 268.7Z" fill="#22262E"/>
<path d="M222.6 351.799C209.6 320.599 201.4 275.399 201.4 225.099C201.4 148.899 243.5 109.199 259.4 96.7992C263 93.9992 267.9 93.9992 271.5 96.7992C287.5 109.099 329.5 148.799 329.5 225.099C329.5 275.399 321.3 320.599 308.3 351.799C308.3 351.799 295.3 358.399 265.4 358.399C235.5 358.399 222.6 351.799 222.6 351.799Z" fill="#FFFDFA"/>
<path d="M265.5 358.999C235.8 358.999 222.9 352.599 222.3 352.399C222.1 352.299 222 352.199 222 351.999C208.5 319.599 200.7 273.299 200.7 224.999C200.7 149.299 241.5 109.699 259 96.1992C262.8 93.1992 268.2 93.1992 272 96.1992C289.5 109.799 330.3 149.399 330.3 224.999C330.3 273.299 322.5 319.599 309 351.999C308.9 352.199 308.8 352.299 308.7 352.399C308.1 352.699 295.2 358.999 265.5 358.999ZM223.2 351.199C225.1 352.099 238.3 357.599 265.5 357.599C292.7 357.599 306 352.099 307.8 351.199C321.2 318.999 328.9 272.999 328.9 224.999C328.9 149.999 288.5 110.699 271.1 97.2992C267.8 94.6992 263.2 94.6992 259.8 97.2992C242.4 110.799 202 149.999 202 224.999C202.1 273.099 209.8 318.999 223.2 351.199Z" fill="#22262E"/>
<path d="M271.6 96.7992C281.8 104.599 302.5 123.599 316.2 155.899H214.9C228.6 123.599 249.3 104.699 259.5 96.7992C263 93.9992 268 93.9992 271.6 96.7992Z" fill="#FFFDFA"/>
<path d="M316.1 156.599H214.9C214.7 156.599 214.4 156.499 214.3 156.299C214.2 156.099 214.1 155.899 214.2 155.599C227.8 123.499 248.1 104.599 259 96.1992C262.8 93.1992 268.2 93.1992 272 96.1992C282.9 104.599 303.2 123.499 316.8 155.599C316.9 155.799 316.9 156.099 316.7 156.299C316.6 156.399 316.4 156.599 316.1 156.599ZM215.9 155.199H315C301.5 123.999 281.7 105.599 271.1 97.3992C267.8 94.7992 263.2 94.7992 259.8 97.3992C249.2 105.499 229.4 123.899 215.9 155.199Z" fill="#22262E"/>
<path d="M247.3 241.199H278.6V269.099C278.6 270.999 277.1 272.499 275.2 272.499H250.7C248.8 272.499 247.3 270.999 247.3 269.099V241.199Z" fill="#FFFDFA"/>
<path d="M273.9 273.3H252.1C249.1 273.3 246.6 270.8 246.6 267.8V241.2C246.6 240.8 246.9 240.5 247.3 240.5H278.6C279 240.5 279.3 240.8 279.3 241.2V267.8C279.4 270.8 276.9 273.3 273.9 273.3ZM248 241.9V267.8C248 270 249.8 271.9 252.1 271.9H273.9C276.1 271.9 278 270.1 278 267.9C278 267.9 278 267.9 278 267.8V241.9H248Z" fill="#22262E"/>
<path d="M263 251.598C284.595 251.598 302.1 234.093 302.1 212.498C302.1 190.904 284.595 173.398 263 173.398C241.406 173.398 223.9 190.904 223.9 212.498C223.9 234.093 241.406 251.598 263 251.598Z" fill="#FFFDFA"/>
<path d="M263 252.299C241 252.299 223.2 234.499 223.2 212.499C223.2 190.499 241 172.699 263 172.699C285 172.699 302.8 190.499 302.8 212.499C302.8 234.499 285 252.299 263 252.299ZM263 174.099C241.8 174.099 224.6 191.299 224.6 212.499C224.6 233.699 241.8 250.899 263 250.899C284.2 250.899 301.4 233.699 301.4 212.499C301.4 191.299 284.2 174.199 263 174.099Z" fill="#22262E"/>
<path d="M263 236.598C276.31 236.598 287.1 225.809 287.1 212.498C287.1 199.188 276.31 188.398 263 188.398C249.69 188.398 238.9 199.188 238.9 212.498C238.9 225.809 249.69 236.598 263 236.598Z" fill="#22262E"/>
<path d="M263 237.401C249.3 237.401 238.2 226.301 238.2 212.601C238.2 198.901 249.3 187.801 263 187.801C276.7 187.801 287.8 198.901 287.8 212.601C287.8 226.201 276.7 237.301 263 237.401ZM263 189.101C250.1 189.101 239.6 199.601 239.6 212.501C239.6 225.401 250.1 235.901 263 235.901C275.9 235.901 286.4 225.401 286.4 212.501C286.4 199.601 275.9 189.101 263 189.101Z" fill="#22262E"/>
<path d="M243.9 210.999H243.8C243.4 210.899 243.2 210.599 243.2 210.199C245.9 191.599 262.9 192.599 263.1 192.599C263.5 192.599 263.8 192.899 263.8 193.299C263.8 193.699 263.5 193.999 263.1 193.999C262.5 193.899 247.2 193.199 244.7 210.399C244.5 210.799 244.2 210.999 243.9 210.999Z" fill="#FFFDFA"/>
<path d="M271.5 196.301C271.3 196.301 271.2 196.301 271.1 196.201C270 195.401 268.8 194.901 267.5 194.701C267.1 194.601 266.8 194.301 266.9 193.901C267 193.501 267.3 193.301 267.7 193.301C269.3 193.501 270.7 194.101 272 195.101C272.3 195.301 272.4 195.801 272.1 196.101C271.9 196.201 271.7 196.301 271.5 196.301Z" fill="#FFFDFA"/>
<path d="M227.4 340.9C227.1 340.9 226.8 340.7 226.7 340.4C219.9 318.9 214.4 296.9 210.3 274.8C210.2 274.4 210.5 274.1 210.9 274C211.3 273.9 211.6 274.2 211.7 274.6C215.8 296.7 221.3 318.6 228.1 340.1C228.2 340.5 228 340.9 227.7 341C227.5 340.9 227.5 340.9 227.4 340.9Z" fill="#22262E"/>
<path d="M278.7 264.799C267.6 264.599 249.6 264.299 247.8 264.699C247.4 264.899 247 264.699 246.8 264.399C246.8 264.299 246.7 264.199 246.7 264.099C246.7 263.899 246.8 263.699 246.9 263.599C247.2 263.299 247.7 262.799 278.7 263.399C279.1 263.399 279.4 263.699 279.4 264.099C279.4 264.499 279.1 264.799 278.7 264.799Z" fill="#22262E"/>
<path d="M278.7 257.799C267.6 257.599 249.6 257.299 247.8 257.699C247.4 257.899 247 257.799 246.8 257.399C246.8 257.299 246.7 257.199 246.7 257.099C246.7 256.899 246.8 256.699 246.9 256.599C247.2 256.299 247.7 255.799 278.7 256.399C279.1 256.399 279.4 256.699 279.4 257.099C279.4 257.399 279 257.799 278.7 257.799Z" fill="#22262E"/>
<path d="M250.3 272.199H275.1V273.699C275.1 275.799 273.4 277.499 271.3 277.499H254C251.9 277.499 250.2 275.799 250.2 273.699L250.3 272.199Z" fill="#22262E"/>
<path d="M269.9 278.2H255.6C252.3 278.2 249.6 275.5 249.6 272.2C249.6 271.8 249.9 271.5 250.3 271.5H275.1C275.5 271.5 275.8 271.8 275.8 272.2C275.8 275.5 273.2 278.2 269.9 278.2ZM251.1 272.9C251.4 275.1 253.4 276.8 255.6 276.8H269.9C272.2 276.8 274.1 275.1 274.4 272.9H251.1Z" fill="#22262E"/>
<path d="M86.2998 344.398C87.8998 347.298 90.4998 349.598 93.5998 350.898C96.1998 351.998 99.0998 351.698 101.9 352.298C109.7 353.798 117.5 352.798 125 350.598C132.7 348.398 140.7 344.698 144.5 337.598C147.5 331.898 147.4 324.998 144.1 319.498C142.9 317.498 141.3 315.698 140 313.798C138.1 310.598 136.6 307.198 135.6 303.598C133.6 297.198 132 290.198 128.6 284.398C127.1 282.198 124.8 280.598 122.2 280.098C121.4 279.898 114 280.198 114.4 280.698C112.9 278.698 109.6 279.298 107.4 280.398C100.8 283.698 95.7998 289.498 93.4998 296.498C91.4998 302.598 91.5998 309.198 90.0998 315.498C88.8998 320.398 86.7998 324.998 85.4998 329.798C84.1998 334.598 83.8998 339.998 86.2998 344.398Z" fill="#FFFDFA"/>
<path d="M109.4 353.699C106.8 353.699 104.2 353.499 101.7 352.899C100.7 352.699 99.5996 352.599 98.5996 352.499C96.7996 352.499 94.9996 352.099 93.2996 351.499C90.0996 350.099 87.3996 347.699 85.6996 344.699C83.4996 340.699 83.1996 335.599 84.7996 329.499C85.3996 327.199 86.1996 324.899 86.9996 322.699C87.8996 320.199 88.6996 317.699 89.2996 315.199C89.8996 312.499 90.2996 309.799 90.5996 307.099C90.8996 303.399 91.5996 299.699 92.6996 296.199C95.0996 288.999 100.2 283.099 107 279.699C109.4 278.499 112.7 277.899 114.5 279.699C116.7 279.099 122.3 279.299 122.3 279.299C125.5 280.099 127.8 281.699 129.1 283.899C131.8 288.399 133.3 293.699 134.8 298.799C135.2 300.299 135.7 301.799 136.2 303.299C137.2 306.799 138.7 310.199 140.6 313.399C141.2 314.299 141.8 315.099 142.4 315.899C143.2 316.899 144 317.999 144.7 319.199C148.1 324.999 148.3 332.099 145.1 337.999C141.8 343.999 135.3 348.399 125.1 351.299C120.1 352.799 114.7 353.599 109.4 353.699ZM111.3 279.999C110 280.099 108.8 280.399 107.6 280.999C101.2 284.199 96.2996 289.899 93.9996 296.699C92.9996 300.199 92.2996 303.799 91.9996 307.399C91.6996 310.199 91.2996 312.899 90.6996 315.699C89.9996 318.299 89.1996 320.799 88.2996 323.299C87.4996 325.499 86.6996 327.799 86.0996 329.999C85.0996 333.899 84.3996 339.599 86.8996 344.199C88.4996 346.999 90.8996 349.199 93.8996 350.399C95.4996 350.999 97.0996 351.299 98.7996 351.299C99.8996 351.399 101 351.499 102 351.699C108.7 353.099 116.2 352.499 124.8 349.999C134.6 347.199 140.8 342.999 143.9 337.399C146.8 331.899 146.7 325.299 143.5 319.999C142.8 318.899 142.1 317.899 141.3 316.899C140.7 316.099 140 315.199 139.4 314.299C137.4 311.099 135.9 307.499 134.9 303.899C134.4 302.399 134 300.899 133.5 299.399C132 294.399 130.5 289.199 127.9 284.899C126.8 282.999 124.8 281.699 121.9 280.899C119.5 280.799 117.1 280.899 114.7 281.299L114.6 281.399C114.3 281.599 113.9 281.599 113.6 281.299C113.2 280.299 112.2 279.899 111.3 279.999Z" fill="#22262E"/>
<path d="M147.099 392.598C148.499 392.598 158.799 393.698 163.599 396.098C168.399 398.498 169.499 398.698 168.499 401.898C167.499 405.098 158.999 405.898 152.599 404.698C148.399 403.798 144.399 402.398 140.699 400.398L147.099 392.598Z" fill="#FFFDFA"/>
<path d="M158.5 405.9C156.5 405.9 154.4 405.7 152.4 405.4C148.2 404.5 144.1 403.1 140.3 401C140.1 400.9 140 400.7 140 400.6C140 400.4 140 400.2 140.1 400.1L146.6 392.3C146.7 392.2 146.9 392.1 147.1 392.1C148.6 392 159 393.2 163.9 395.7L165 396.2C168.9 398.1 170.2 398.7 169.1 402.2C168.3 404.8 163.4 405.9 158.5 405.9ZM141.7 400.2C145.2 402 148.9 403.3 152.7 404.1C159.6 405.4 167.1 404.2 167.9 401.7C168.7 399.2 168.3 399.1 164.4 397.2L163.3 396.7C158.9 394.5 149.5 393.3 147.4 393.3L141.7 400.2Z" fill="#22262E"/>
<path d="M148.5 392.5C150.4 393 151.6 394.8 151.3 396.7C150.9 400.1 143.6 400.3 143.2 400.3C142.8 400.3 148.5 392.5 148.5 392.5Z" fill="#FFFDFA"/>
<path d="M143.1 400.999C142.9 400.999 142.6 400.899 142.5 400.599C142.3 400.199 142.2 399.899 147.9 392.099C148 391.899 148.3 391.799 148.6 391.899C150.8 392.399 152.3 394.599 151.9 396.799C151.4 400.599 144.5 400.999 143.1 400.999ZM148.7 393.299C146.9 395.699 145.1 398.299 144.2 399.599C146.8 399.399 150.3 398.599 150.6 396.599C150.9 395.199 150.1 393.799 148.7 393.299Z" fill="#22262E"/>
<path d="M94.6998 400.399C94.4998 400.499 92.4998 403.099 83.8998 404.099C75.2998 405.099 72.0998 406.999 70.1998 402.499C68.2998 397.999 69.5998 395.099 73.7998 393.799C77.9998 392.499 89.6998 391.399 91.9998 393.599C94.2998 395.799 94.6998 400.399 94.6998 400.399Z" fill="#FFFDFA"/>
<path d="M74.3997 405.999C72.1997 405.999 70.5997 405.299 69.5997 402.699C68.5997 400.099 68.3997 398.099 69.1997 396.499C70.0997 394.799 71.7997 393.599 73.6997 393.099C77.7997 391.799 89.8997 390.599 92.4997 392.999C94.8997 395.299 95.2997 400.099 95.2997 400.299C95.2997 400.499 95.1997 400.799 94.9997 400.899C92.3997 403.299 87.4997 404.299 83.8997 404.699C82.0997 404.899 80.4997 405.199 79.0997 405.399C77.5997 405.699 75.9997 405.899 74.3997 405.999ZM85.5997 392.899C81.6997 392.899 77.7997 393.399 73.9997 394.299C72.4997 394.599 71.0997 395.599 70.2997 396.899C69.6997 398.199 69.7997 399.999 70.6997 402.099C71.8997 405.099 73.4997 404.899 78.8997 404.099C80.2997 403.899 81.8997 403.599 83.7997 403.399C87.1997 402.999 91.5997 402.099 93.9997 400.099C93.8997 399.099 93.2997 395.599 91.5997 393.999C90.7997 393.199 88.3997 392.899 85.5997 392.899Z" fill="#22262E"/>
<path d="M97.4001 398.598C97.4001 398.598 93.5001 401.898 90.9001 401.498C88.3001 401.098 84.7001 399.698 86.1001 396.898C87.5001 394.098 96.9001 392.398 96.9001 392.398L97.4001 398.598Z" fill="#FFFDFA"/>
<path d="M91.4001 402.099C91.2001 402.099 91.1001 402.099 90.9001 402.099C89.9001 401.999 86.6001 401.299 85.6001 399.299C85.2001 398.399 85.2001 397.399 85.7001 396.499C87.3001 393.499 95.9001 391.799 96.9001 391.699C97.1001 391.699 97.3001 391.699 97.4001 391.799C97.5001 391.899 97.6001 392.099 97.6001 392.299L98.1001 398.499C98.1001 398.699 98.0001 398.899 97.9001 398.999C97.7001 399.199 94.2001 402.099 91.4001 402.099ZM96.4001 393.099C93.5001 393.699 87.8001 395.199 86.8001 397.099C86.5001 397.599 86.5001 398.199 86.7001 398.699C87.3001 399.899 89.4001 400.599 91.1001 400.799C92.8001 400.999 95.6001 399.199 96.9001 398.299L96.4001 393.099Z" fill="#22262E"/>
<path d="M144.3 371.199C144.3 371.199 140.2 387.199 125.2 390.299C110.2 393.399 102.4 392.499 97.0996 382.399C91.7996 372.299 95.2996 366.099 95.2996 366.099L142.7 365.199L144.3 371.199Z" fill="#22262E"/>
<path d="M112.799 392.6C105.399 392.6 100.299 390 96.4994 382.8C91.0994 372.4 94.5994 366 94.6994 365.8C94.7994 365.6 94.9994 365.4 95.2994 365.4L142.699 364.5C142.999 364.5 143.299 364.7 143.399 365L144.999 371C144.999 371.1 144.999 371.2 144.999 371.4C144.999 371.6 140.599 387.9 125.299 391C121.199 391.9 116.999 392.5 112.799 392.6ZM95.7994 366.8C95.1994 368.2 93.3994 373.8 97.7994 382.1C103.099 392.2 110.799 392.6 125.199 389.6C138.799 386.8 143.199 372.9 143.699 371.2L142.299 365.9L95.7994 366.8Z" fill="#22262E"/>
<path d="M91.6998 371.298C91.6998 371.298 83.8999 346.198 84.9999 330.498C86.0999 314.798 96.2999 313.598 99.7999 313.298C103.3 312.998 122.2 310.098 129.3 318.398C136.4 326.698 148.8 365.699 148.8 365.699L91.6998 371.298Z" fill="#3185FF"/>
<path d="M119.8 313.398L118.6 321.798C116.9 324.398 113.5 325.298 110.7 323.898C105.4 321.698 105.3 317.698 105.3 317.698L107.8 302.198C111.7 298.198 114.5 293.098 115.7 287.598C115.7 287.598 120.4 295.798 127.2 297.598C127 301.298 126.4 304.998 125.5 308.598C124.3 312.598 119.8 313.298 119.8 313.398Z" fill="#FFFDFA"/>
<path d="M113.5 325.201C112.4 325.201 111.4 325 110.4 324.5C104.7 322.1 104.6 317.8 104.6 317.6L107 302C107 301.8 107.1 301.7 107.2 301.6C111 297.7 113.7 292.8 115 287.4C115.1 287 115.5 286.8 115.8 286.9C116 286.9 116.1 287.101 116.2 287.201C116.2 287.301 120.8 295.1 127.2 296.9C127.5 297 127.7 297.3 127.7 297.6C127.4 301.4 126.9 305.101 126 308.701C125.2 311.301 123 313.3 120.3 313.9L119.1 321.8C119.1 321.9 119 322 119 322.1C117.9 324 115.8 325.201 113.5 325.201ZM108.4 302.5L105.9 317.8C105.9 317.8 106.1 321.3 110.9 323.3C115.2 325.1 117.5 322.2 117.9 321.5L119.1 313.3C119.1 313.1 119.3 312.9 119.4 312.8C119.5 312.8 119.6 312.701 119.7 312.701C121.2 312.301 123.9 311.3 124.8 308.4C125.6 305 126.2 301.6 126.4 298.1C121.3 296.5 117.6 291.7 116 289.3C114.6 294.2 112 298.8 108.4 302.5Z" fill="#22262E"/>
<path d="M111 302.399C110.9 301.599 110.6 300.899 110.1 300.299C109.6 299.799 109 299.399 108.3 299.099C108 298.899 107.6 298.799 107.2 298.699C106.9 298.699 106.6 298.799 106.4 298.899C105.8 299.099 105.2 299.499 104.8 300.099C104.6 300.599 104.5 301.099 104.5 301.699C104.5 302.299 104.5 302.899 104.7 303.399C105.3 305.799 107.7 307.199 110 306.599C110 306.599 110 306.599 110.1 306.599" fill="#FFFDFA"/>
<path d="M108.9 307.298C108 307.298 107.1 307.098 106.3 306.598C105.1 305.898 104.3 304.798 104 303.398C103.9 302.798 103.8 302.098 103.8 301.498C103.8 300.798 103.9 300.198 104.2 299.598C104.6 298.898 105.3 298.398 106.1 298.098C106.4 297.998 106.8 297.898 107.2 297.898C107.7 297.898 108.2 298.098 108.6 298.398C109.3 298.798 110 299.198 110.6 299.798C111.2 300.498 111.6 301.398 111.7 302.298C111.7 302.698 111.4 302.998 111 302.998C110.7 302.998 110.4 302.798 110.3 302.398C110.2 301.798 110 301.198 109.6 300.698C109.1 300.198 108.6 299.898 108 299.598C107.7 299.398 107.5 299.298 107.2 299.298C107 299.298 106.8 299.298 106.6 299.398C106.1 299.498 105.7 299.798 105.4 300.298C105.2 300.698 105.1 301.098 105.2 301.498C105.2 301.998 105.2 302.498 105.3 302.998C105.8 304.998 107.8 306.198 109.8 305.698C110.2 305.598 110.5 305.898 110.6 306.198C110.7 306.498 110.5 306.898 110.1 306.998C109.9 307.198 109.4 307.298 108.9 307.298Z" fill="#22262E"/>
<path d="M118.6 300C118.6 300 121 304.7 120.2 305.4C119.4 306.1 117.6 305.3 117.6 305.3" fill="#FFFDFA"/>
<path d="M119.199 306.297C118.499 306.297 117.899 306.097 117.299 305.897C116.899 305.797 116.799 305.397 116.899 304.997C116.999 304.597 117.399 304.497 117.799 304.597C118.399 304.897 118.999 304.897 119.699 304.797C119.399 303.197 118.799 301.697 117.999 300.297C117.799 299.997 117.999 299.497 118.299 299.397C118.599 299.197 119.099 299.397 119.199 299.697C121.799 304.897 120.899 305.597 120.599 305.897C120.199 306.197 119.699 306.297 119.199 306.297Z" fill="#22262E"/>
<path d="M115.666 298.926C115.711 298.375 115.435 297.903 115.05 297.872C114.664 297.841 114.316 298.261 114.271 298.812C114.226 299.362 114.502 299.834 114.887 299.865C115.272 299.897 115.621 299.476 115.666 298.926Z" fill="#22262E"/>
<path d="M123.105 299.927C123.146 299.376 122.867 298.907 122.481 298.878C122.096 298.849 121.75 299.272 121.709 299.823C121.668 300.374 121.947 300.844 122.333 300.872C122.718 300.901 123.064 300.478 123.105 299.927Z" fill="#22262E"/>
<path d="M117.999 310C116.999 310 115.999 309.8 115.199 309.4C113.499 308.4 112.399 306.7 112.199 304.8C112.099 304.4 112.399 304.1 112.699 304C113.099 303.9 113.399 304.2 113.499 304.6C113.599 306.1 114.399 307.4 115.699 308.2C118.099 309.4 121.499 307.9 121.499 307.9C121.899 307.7 122.299 307.9 122.399 308.2C122.499 308.5 122.399 309 122.099 309.1C120.799 309.7 119.399 310 117.999 310Z" fill="#22262E"/>
<path d="M119.8 313.398C119.8 313.398 114.4 313.898 111.6 311.598C111.6 311.598 114 319.098 119 319.098L119.8 313.398Z" fill="#22262E"/>
<path d="M118.9 319.798C113.5 319.798 111 312.098 110.9 311.798C110.8 311.498 110.9 311.198 111.2 310.998C111.4 310.798 111.8 310.798 112 310.998C114.6 312.998 119.7 312.598 119.7 312.598C120.1 312.598 120.4 312.898 120.5 313.198C120.5 313.298 120.5 313.298 120.5 313.398L119.7 319.198C119.6 319.598 119.3 319.898 118.9 319.798ZM112.9 313.198C113.8 315.198 115.6 317.998 118.3 318.398L118.9 314.098C116.9 314.198 114.9 313.898 112.9 313.198Z" fill="#22262E"/>
<path d="M89.7996 317.398C85.4996 318.298 72.1996 360.698 78.2996 365.198C87.7996 372.198 116.7 362.598 116.7 362.598L113.8 350.098C113.8 350.098 92.8996 351.098 92.4996 346.798C92.0996 342.498 104.2 322.398 102.5 319.498C100.8 316.598 89.7996 317.398 89.7996 317.398Z" fill="#3185FF"/>
<path d="M111.7 354.298C115.2 354.398 118.7 354.198 122.1 353.598C124.6 352.998 127.2 352.598 129.9 352.598C133.4 352.698 136.8 353.398 140 354.698C140.1 354.698 140.2 354.798 140.3 354.898C140.6 355.298 139.9 355.798 139.4 355.798C138 355.898 136.6 355.698 135.3 355.398C138.6 356.598 141.8 358.098 144.7 360.098C145 360.298 145.4 360.698 145.2 361.098C145 361.498 144.4 361.398 144 361.198L136.5 357.898C138.5 358.598 140.3 359.698 141.9 360.998C142.1 361.198 142.4 361.498 142.3 361.698C142.2 362.198 141.4 362.098 141 361.898C138.7 360.798 136.5 359.498 134.4 358.098L139.1 361.598C139.2 361.998 138.8 362.298 138.4 362.298C138 362.298 137.6 362.198 137.3 361.898L132.1 358.998L135.3 361.198C135.8 361.598 136.4 362.098 136.2 362.698C136 363.298 134.9 363.198 134.3 362.898C131.6 361.798 128.8 360.998 126 360.498C125 360.198 124 359.998 122.9 359.998C121.3 360.198 119.7 360.598 118.2 361.098C115.9 361.698 113.6 362.298 111.3 362.798" fill="#FFFDFA"/>
<path d="M135.2 363.798C134.7 363.798 134.3 363.698 133.8 363.498C131.2 362.398 128.4 361.598 125.6 361.198C125.2 361.098 124.9 360.998 124.5 360.998C123.9 360.798 123.3 360.698 122.6 360.698C121.6 360.798 120.5 360.998 119.5 361.398C119 361.498 118.5 361.698 118 361.798C115.7 362.398 113.4 362.898 111.1 363.498C110.8 363.598 110.4 363.398 110.3 362.998C110.2 362.698 110.4 362.298 110.8 362.198C113.1 361.598 115.4 360.998 117.8 360.498C118.2 360.398 118.7 360.198 119.2 360.098C120.3 359.698 121.4 359.498 122.6 359.398C123.4 359.398 124.1 359.498 124.8 359.698C125.1 359.798 125.5 359.898 125.8 359.898C128.7 360.398 131.5 361.198 134.2 362.298C134.5 362.498 134.9 362.498 135.3 362.498C135.4 362.398 135.2 362.098 134.7 361.798L131.5 359.598C131.2 359.398 131.1 358.998 131.3 358.698C131.5 358.398 131.9 358.298 132.2 358.498L137.4 361.398L137.8 361.598L133.8 358.598C133.5 358.398 133.4 357.998 133.7 357.698C133.9 357.398 134.3 357.298 134.6 357.498C136.6 358.898 138.8 360.198 141.1 361.298H141.2C140.1 360.398 139 359.698 137.8 359.098L136.1 358.398C135.8 358.298 135.6 357.898 135.8 357.598C135.9 357.298 136.3 357.098 136.6 357.198C137.2 357.398 137.8 357.698 138.3 357.998L144.1 360.498H144.2C141.4 358.498 138.3 356.998 135 355.898C134.7 355.798 134.5 355.398 134.6 355.098C134.7 354.798 135 354.598 135.4 354.698C136.7 354.998 138 355.198 139.3 355.098H139.4C136.4 353.898 133.1 353.298 129.9 353.198C127.7 353.198 125.4 353.498 123.2 353.998L122.2 354.198C118.7 354.798 115.2 355.098 111.7 354.898C111.3 354.898 111.1 354.598 111.1 354.298C111.1 353.898 111.4 353.698 111.7 353.698C115.1 353.798 118.6 353.598 121.9 352.998L122.9 352.798C125.2 352.198 127.5 351.898 129.8 351.898C133.3 351.998 136.8 352.698 140.1 353.998C140.3 354.098 140.6 354.198 140.7 354.398C140.9 354.698 140.9 355.098 140.8 355.398C140.5 355.898 140 356.198 139.4 356.298C141.3 357.198 143.1 358.298 144.8 359.398C145.8 360.098 145.7 360.798 145.6 361.098C145.5 361.398 145.3 361.598 145 361.698C144.5 361.798 144 361.798 143.5 361.598L142.6 361.198C142.6 361.398 142.6 361.498 142.6 361.698C142.5 361.998 142.3 362.298 142 362.498C141.5 362.698 140.9 362.698 140.4 362.398L139.4 361.898C139.4 361.998 139.3 362.198 139.2 362.298C139 362.598 138.6 362.798 138.2 362.798C137.7 362.798 137.2 362.598 136.8 362.398H136.7C136.7 362.598 136.7 362.798 136.6 362.898C136.5 363.198 136.2 363.498 135.9 363.598C135.8 363.798 135.5 363.798 135.2 363.798Z" fill="#22262E"/>
<path d="M127.1 322C128.3 323.1 131.5 341.5 132.8 350.1Z" fill="#FFFDFA"/>
<path d="M132.799 350.799C132.499 350.799 132.199 350.599 132.199 350.299C130.799 340.699 127.699 323.799 126.699 322.499C126.399 322.299 126.399 321.899 126.599 321.599C126.799 321.299 127.199 321.299 127.499 321.499L127.599 321.599C129.199 323.099 132.699 344.699 133.499 350.099C133.599 350.399 133.299 350.799 132.999 350.799C132.899 350.799 132.899 350.799 132.799 350.799Z" fill="#22262E"/>
<path d="M101 367.398C100.6 367.398 100.3 367.098 100.3 366.698C100.3 366.398 100.5 366.098 100.8 366.098L110.4 364.198L110.5 353.298L92.2996 351.798C92.0996 351.798 91.8996 351.698 91.7996 351.498C91.6996 351.298 91.5996 351.098 91.6996 350.898L99.2996 322.498C99.3996 322.098 99.6996 321.898 100.1 321.998C100.5 322.098 100.7 322.398 100.6 322.798V322.898L93.1996 350.498L111.2 351.998C111.6 351.998 111.8 352.298 111.8 352.698L111.7 364.898C111.7 365.198 111.5 365.498 111.1 365.598L101 367.598V367.398Z" fill="#22262E"/>
<path d="M157.3 370.299L166.1 346.699L130.2 347.399L122.1 374.299L157.3 370.299Z" fill="#FFFDFA"/>
<path d="M122.099 375C121.699 375 121.399 374.7 121.399 374.3C121.399 374.2 121.399 374.2 121.399 374.1L129.499 347.2C129.599 346.9 129.899 346.7 130.199 346.7L166.199 346C166.399 346 166.699 346.1 166.799 346.3C166.899 346.5 166.999 346.7 166.899 346.9L158.099 370.5C157.999 370.7 157.799 370.9 157.499 371L122.099 375ZM130.699 348.1L123.099 373.5L156.799 369.6L165.099 347.4L130.699 348.1Z" fill="#22262E"/>
<path d="M155.399 370.499C155.399 370.499 165.199 378.399 161.699 385.699C158.199 392.999 95.9992 401.299 95.9992 401.299L93.1992 391.799C93.1992 391.799 142.099 366.799 155.399 370.499Z" fill="#22262E"/>
<path d="M95.9993 401.999C95.6993 401.999 95.3993 401.799 95.2993 401.499L92.4993 391.999C92.3993 391.699 92.5993 391.299 92.7993 391.199C94.7993 390.199 142.099 366.199 155.599 369.899C155.699 369.899 155.799 369.999 155.799 369.999C156.199 370.299 165.899 378.399 162.299 385.999C158.799 393.399 102.499 401.099 95.9993 401.999ZM93.9993 392.199L96.4993 400.599C121.399 397.199 158.699 390.499 161.099 385.499C164.099 379.199 156.099 372.099 155.099 371.199C142.699 367.999 99.2993 389.499 93.9993 392.199Z" fill="#22262E"/>
<path d="M89.8993 366.897C89.8993 366.897 138.299 386.497 150.299 391.597L143.299 402.397C143.299 402.397 98.5993 401.497 85.7993 390.297C72.9993 379.097 73.8993 360.397 89.8993 366.897Z" fill="#22262E"/>
<path d="M143.4 403.098C141.6 403.098 98.3001 402.098 85.4001 390.798C76.9001 383.398 74.5001 373.098 77.6001 368.098C79.8001 364.498 84.4001 363.798 90.2001 366.198C90.7001 366.398 138.8 385.798 150.6 390.998C150.8 391.098 150.9 391.198 151 391.398C151.1 391.598 151 391.798 150.9 391.998L143.9 402.798C143.8 402.998 143.6 403.098 143.4 403.098ZM84.0001 366.198C81.9001 366.098 79.9001 367.098 78.8001 368.798C76.0001 373.298 78.4001 382.798 86.3001 389.698C98.1001 400.098 138.6 401.498 143 401.598L149.3 391.798C136.3 386.298 90.1001 367.598 89.6001 367.398C87.9001 366.698 86.0001 366.298 84.0001 366.198Z" fill="#22262E"/>
<path d="M157.5 360.899C157.6 361.199 157.7 361.399 157.9 361.699L158.8 363.099C158.7 362.599 158.1 362.199 157.6 362.299C157.5 362.299 157.5 362.299 157.4 362.399C156.9 362.699 156.5 363.299 156.5 363.899C156.5 364.499 156.7 365.099 156.9 365.699C157.6 367.399 159.1 369.999 161.3 368.699C162.8 367.799 163.2 364.699 163.4 363.099C163.8 359.999 162.9 355.999 158.9 356.599C159 358.099 159.6 359.599 160.5 360.799C159.9 359.999 157.3 359.099 157.5 360.899Z" fill="#FFFDFA"/>
<path d="M160.1 369.599C159.8 369.599 159.5 369.599 159.3 369.499C157.7 368.999 156.8 366.999 156.3 365.899C156 365.299 155.9 364.599 155.8 363.899C155.8 362.999 156.3 362.199 157 361.799C156.8 361.599 156.7 361.299 156.7 360.999C156.6 360.399 156.9 359.699 157.5 359.399C157.9 359.199 158.4 359.199 158.8 359.299C158.4 358.399 158.2 357.499 158.1 356.599C158.1 356.299 158.3 355.999 158.6 355.899C159.9 355.599 161.3 355.999 162.3 356.899C163.8 358.399 164.1 360.999 163.8 362.999C163.6 364.799 163.1 367.999 161.4 369.099C161.1 369.399 160.6 369.499 160.1 369.599ZM157.8 362.899H157.7C157.4 363.099 157.2 363.399 157.2 363.799C157.2 364.299 157.4 364.799 157.6 365.299C157.9 366.499 158.7 367.499 159.8 368.199C160.2 368.299 160.7 368.299 161.1 367.999C162.3 367.299 162.7 364.199 162.9 362.899C163.1 361.199 163 358.999 161.8 357.799C161.3 357.299 160.5 356.999 159.8 357.099C160 358.299 160.5 359.399 161.2 360.299C161.4 360.599 161.4 360.999 161.1 361.199C160.9 361.399 160.5 361.399 160.3 361.199C159.8 360.799 159.1 360.499 158.4 360.599C158.3 360.599 158.3 360.799 158.3 360.899C158.3 361.099 158.4 361.199 158.5 361.399L159 362.099C159.3 362.299 159.5 362.699 159.6 363.099C159.6 363.399 159.5 363.699 159.2 363.799C158.9 363.899 158.6 363.799 158.4 363.599L158.1 363.099H157.8V362.899Z" fill="#22262E"/>
<path d="M143.9 389.8C143.8 389.8 143.7 389.8 143.6 389.8C142.5 389.4 117.6 379.7 111.9 376.3C111.6 376.1 111.5 375.6 111.7 375.3C111.9 375 112.4 374.9 112.7 375.1C118.2 378.5 143.9 388.4 144.2 388.5C144.6 388.7 144.7 389.1 144.6 389.5C144.5 389.6 144.2 389.8 143.9 389.8Z" fill="#FFFDFA"/>
<path d="M416.601 403.699C415.701 403.699 414.801 403.099 414.601 402.199L346.101 156.399C345.801 155.299 346.401 154.099 347.601 153.799C348.801 153.499 349.901 154.099 350.201 155.299L418.601 400.999C418.901 402.099 418.301 403.299 417.101 403.599C417.001 403.599 416.801 403.699 416.601 403.699Z" fill="#22262E"/>
<path d="M367.2 403.699C366.3 403.699 365.4 403.099 365.2 402.199L296.7 156.399C296.4 155.299 297 154.099 298.2 153.799C299.4 153.499 300.5 154.099 300.8 155.299L369.2 400.999C369.5 402.099 368.9 403.299 367.7 403.599C367.6 403.599 367.4 403.699 367.2 403.699Z" fill="#22262E"/>
<path d="M352.401 176.098H303.901C302.701 176.098 301.801 175.198 301.801 173.998C301.801 172.798 302.701 171.898 303.901 171.898H352.401C353.601 171.898 354.501 172.798 354.501 173.998C354.401 175.198 353.501 176.098 352.401 176.098Z" fill="#22262E"/>
<path d="M359.701 202.501H311.201C310.001 202.501 309.101 201.601 309.101 200.401C309.101 199.201 310.001 198.301 311.201 198.301H359.701C360.901 198.301 361.801 199.201 361.801 200.401C361.801 201.501 360.801 202.501 359.701 202.501Z" fill="#22262E"/>
<path d="M367 228.798H318.5C317.3 228.798 316.4 227.898 316.4 226.698C316.4 225.498 317.3 224.598 318.5 224.598H367C368.2 224.598 369.1 225.498 369.1 226.698C369.1 227.898 368.2 228.798 367 228.798Z" fill="#22262E"/>
<path d="M374.401 255.098H325.901C324.701 255.098 323.801 254.198 323.801 252.998C323.801 251.798 324.701 250.898 325.901 250.898H374.401C375.601 250.898 376.501 251.798 376.501 252.998C376.501 254.198 375.501 255.098 374.401 255.098Z" fill="#22262E"/>
<path d="M381.701 281.501H333.201C332.001 281.501 331.101 280.601 331.101 279.401C331.101 278.201 332.001 277.301 333.201 277.301H381.701C382.901 277.301 383.801 278.201 383.801 279.401C383.801 280.601 382.801 281.501 381.701 281.501Z" fill="#22262E"/>
<path d="M389 307.798H340.5C339.3 307.798 338.4 306.898 338.4 305.698C338.4 304.498 339.3 303.598 340.5 303.598H389C390.2 303.598 391.1 304.498 391.1 305.698C391.1 306.898 390.2 307.798 389 307.798Z" fill="#22262E"/>
<path d="M396.401 334.2H347.901C346.701 334.2 345.801 333.3 345.801 332.1C345.801 330.9 346.701 330 347.901 330H396.401C397.601 330 398.501 330.9 398.501 332.1C398.501 333.3 397.501 334.2 396.401 334.2Z" fill="#22262E"/>
<path d="M403.701 360.501H355.201C354.001 360.501 353.101 359.601 353.101 358.401C353.101 357.201 354.001 356.301 355.201 356.301H403.701C404.901 356.301 405.801 357.201 405.801 358.401C405.801 359.601 404.901 360.501 403.701 360.501Z" fill="#22262E"/>
<path d="M411 386.899H362.5C361.3 386.899 360.4 385.999 360.4 384.799C360.4 383.599 361.3 382.699 362.5 382.699H411C412.2 382.699 413.1 383.599 413.1 384.799C413.1 385.999 412.2 386.899 411 386.899Z" fill="#22262E"/>
<path d="M381.2 186.2C381.2 186.2 372.899 175.2 376.299 167.9C376.299 167.9 373.199 166.9 376.199 163.1C379.199 159.3 386.599 155.2 395.299 159.4L392.599 160.8C397.499 159.3 402.899 161.4 405.299 166L402.199 167.1L400.399 182.3L381.2 186.2Z" fill="#FFFDFA"/>
<path d="M381.199 186.901C380.999 186.901 380.799 186.801 380.699 186.601C380.399 186.201 372.599 175.701 375.499 168.201C374.999 167.901 374.599 167.401 374.399 166.801C373.999 165.701 374.499 164.301 375.699 162.801C378.799 158.901 386.599 154.601 395.599 159.001C395.799 159.101 395.999 159.301 395.999 159.601C395.999 159.701 395.999 159.801 395.899 159.901C400.099 159.901 403.899 162.201 405.899 165.901C405.999 166.101 405.999 166.301 405.899 166.501C405.799 166.701 405.699 166.801 405.499 166.901L402.799 167.901L400.999 182.701C400.999 183.001 400.799 183.201 400.499 183.301L381.399 187.101L381.199 186.901ZM387.899 158.401C383.599 158.401 379.499 160.301 376.699 163.601C375.799 164.801 375.399 165.801 375.599 166.501C375.799 166.901 376.099 167.301 376.499 167.401C376.699 167.501 376.799 167.601 376.899 167.801C376.999 168.001 376.999 168.201 376.899 168.301C373.999 174.501 380.199 183.801 381.499 185.601L399.799 182.101L401.599 167.301C401.599 167.101 401.799 166.901 401.999 166.801L404.399 165.901C401.999 162.001 397.199 160.201 392.899 161.601C392.599 161.701 392.199 161.501 392.099 161.201C391.999 160.901 392.099 160.601 392.399 160.501L393.899 159.701C391.899 158.801 389.899 158.401 387.899 158.401Z" fill="#22262E"/>
<path d="M412.399 319.102L410.699 318.802C409.699 318.602 408.999 317.702 409.099 316.702L414.699 280.102C414.899 279.102 415.799 278.402 416.799 278.502L418.499 278.802C419.499 279.002 420.199 279.902 420.099 280.902L414.499 317.502C414.399 318.602 413.399 319.302 412.399 319.102Z" fill="#FFFDFA"/>
<path d="M412.099 319.702C411.899 319.702 411.799 319.702 411.599 319.702H411.399C409.599 319.402 408.399 317.802 408.699 316.002L414.099 280.902C414.399 279.102 415.999 277.902 417.799 278.202H417.999C419.799 278.502 420.999 280.102 420.699 281.902L415.299 317.002C415.199 317.802 414.699 318.602 413.999 319.102C413.399 319.402 412.799 319.702 412.099 319.702ZM411.499 318.302H411.699C412.799 318.502 413.799 317.702 413.899 316.702L419.299 281.602C419.399 281.102 419.199 280.602 418.899 280.102C418.599 279.702 418.099 279.402 417.599 279.302H417.399C416.899 279.202 416.399 279.302 415.899 279.702C415.499 280.002 415.199 280.502 415.099 281.002L409.699 316.102C409.699 317.202 410.499 318.202 411.499 318.302Z" fill="#22262E"/>
<path d="M416.6 262C416.6 262 410.2 285.3 413 284.2C416.1 282.9 417.8 275.7 417.8 275.7C417.8 275.7 420.1 279.6 420.1 281.7C420.1 283.8 417.2 291.1 419.5 291.6C421.8 292.1 427.5 279.8 426.9 277C426.3 274.7 425.4 272.5 424.4 270.4L425.5 263.9" fill="#FFFDFA"/>
<path d="M419.499 292.201H419.199C418.799 292.101 418.399 291.901 418.199 291.501C417.399 290.301 417.899 287.901 418.699 284.701C418.999 283.701 419.199 282.701 419.299 281.701C419.099 280.201 418.599 278.701 417.799 277.401C417.099 279.701 415.499 283.701 413.099 284.701C412.799 284.901 412.299 284.801 412.099 284.601C410.399 283.101 413.799 269.701 415.899 261.801C415.999 261.501 416.299 261.301 416.699 261.301C416.999 261.401 417.199 261.701 417.199 262.101C414.699 271.301 412.499 281.401 412.999 283.401C415.199 282.201 416.699 277.301 417.099 275.501C417.199 275.201 417.399 275.101 417.599 275.001C417.899 275.001 418.099 275.101 418.199 275.301C418.299 275.501 420.599 279.401 420.599 281.701C420.499 282.801 420.199 283.901 419.899 284.901C419.399 286.901 418.699 289.801 419.199 290.701C419.199 290.801 419.299 290.801 419.399 290.801C419.399 290.801 419.699 290.801 420.299 290.201C422.999 287.401 426.499 278.901 426.099 277.001C425.499 274.801 424.699 272.601 423.599 270.501C423.499 270.401 423.499 270.201 423.499 270.101L424.599 263.601C424.699 263.201 424.999 263.001 425.399 263.101C425.799 263.201 425.999 263.501 425.899 263.901L424.899 270.201C425.899 272.301 426.799 274.501 427.399 276.801C427.999 279.501 423.899 288.501 421.299 291.201C420.899 291.901 420.299 292.201 419.499 292.201Z" fill="#22262E"/>
<path d="M359.8 291.602L364.9 304.202C364.9 304.202 350 310.002 346 310.902C342 311.802 341.9 309.902 347.3 304.902C351.5 301.002 353.1 300.502 353.1 300.502L350.4 295.602L359.8 291.602Z" fill="#FFFDFA"/>
<path d="M344.399 311.802C343.699 311.902 342.999 311.602 342.599 311.002C342.199 310.202 342.299 308.702 346.799 304.502C348.399 302.902 350.199 301.502 352.199 300.302L349.799 296.002C349.699 295.802 349.699 295.602 349.799 295.502C349.899 295.302 349.999 295.202 350.199 295.102L359.699 291.102C359.899 291.002 359.999 291.002 360.199 291.102C360.399 291.202 360.499 291.302 360.599 291.502L365.599 304.102C365.699 304.302 365.699 304.402 365.599 304.602C365.499 304.802 365.399 304.902 365.199 304.902C364.599 305.102 350.199 310.802 346.199 311.602C345.599 311.702 344.999 311.702 344.399 311.802ZM351.299 295.902L353.699 300.202C353.799 300.402 353.799 300.602 353.699 300.702C353.599 300.902 353.499 301.002 353.299 301.102C353.299 301.102 351.699 301.702 347.699 305.402C343.399 309.402 343.699 310.302 343.699 310.302C343.699 310.302 343.999 310.602 345.799 310.202C349.299 309.502 361.199 304.902 363.999 303.802L359.399 292.402L351.299 295.902Z" fill="#22262E"/>
<path d="M384.299 343.703C384.499 346.203 384.299 348.703 383.699 351.203C382.799 354.303 381.899 358.603 382.199 361.303C382.499 364.003 385.399 367.203 388.299 365.903C391.199 364.603 392.299 356.403 392.199 354.203C392.099 352.003 391.799 346.203 392.399 343.203L384.299 343.703Z" fill="#FFFDFA"/>
<path d="M386.999 366.9C386.299 366.9 385.599 366.7 384.999 366.3C383.199 365.2 381.999 363.4 381.699 361.4C381.199 357.9 382.699 352.6 383.199 351C383.699 348.6 383.899 346.2 383.699 343.7C383.699 343.5 383.699 343.4 383.899 343.2C383.999 343.1 384.199 343 384.299 343L392.499 342.5C392.699 342.5 392.899 342.6 392.999 342.7C393.099 342.8 393.199 343 393.099 343.2C392.499 346 392.799 351.5 392.899 353.8V354C392.999 355.7 392.099 364.8 388.599 366.4C388.099 366.7 387.599 366.9 386.999 366.9ZM384.999 344.3C385.099 346.7 384.899 349.1 384.399 351.4C383.499 354.5 382.599 358.7 382.999 361.3C383.299 363 384.199 364.4 385.699 365.3C386.499 365.8 387.399 365.8 388.199 365.4C390.599 364.3 391.799 356.7 391.699 354.3V354C391.499 350.6 391.499 347.3 391.799 343.9L384.999 344.3Z" fill="#22262E"/>
<path d="M406.8 235.901C405.3 235.001 371.7 242.301 371.7 242.301C371.7 242.301 331 249.701 332 259.901C333 270.101 349.7 297.601 349.7 297.601L362.2 294.201L351.2 267.601H376.1C376.1 267.601 384.6 328.301 382.2 346.401L394.4 348.301L406.8 235.901Z" fill="#22262E"/>
<path d="M394.5 349.001L382.2 347.101C381.9 347.001 381.6 346.701 381.7 346.401C383.9 329.501 376.5 274.301 375.7 268.301H352.2L362.9 294.001C363 294.201 363 294.301 362.9 294.501C362.8 294.701 362.7 294.801 362.5 294.801L350 298.201C349.7 298.301 349.4 298.201 349.3 297.901C348.6 296.801 332.6 270.201 331.5 259.901C330.4 249.301 370 242.001 371.6 241.701C381.8 239.501 405.6 234.401 407.1 235.301C407.3 235.401 407.4 235.701 407.4 235.901L395.1 348.401C395 348.701 394.8 349.001 394.5 349.001ZM383 346.001L394 347.701L406.2 236.501C402.8 236.501 383.8 240.401 371.9 243.001C360.7 245.001 331.9 252.001 332.7 259.901C333.7 269.201 348 293.501 350.1 297.001L361.5 293.901L350.7 268.001C350.6 267.801 350.6 267.601 350.8 267.401C350.9 267.201 351.1 267.101 351.3 267.101H376.2C376.5 267.101 376.8 267.301 376.8 267.601C377.1 270.001 385.1 327.301 383 346.001Z" fill="#22262E"/>
<path d="M405.6 267.303L359.1 243.503C359.1 243.503 371.5 202.403 377.1 196.303C382.7 190.203 405.8 193.303 409.2 199.303C412.6 205.303 408.7 244.503 405.6 267.303Z" fill="#3185FF"/>
<path d="M384.6 190.102L384.1 198.002C384.1 198.002 384.6 202.502 389.5 201.402C392.4 200.702 394.9 198.802 396.3 196.102C396.3 196.102 397.5 177.102 397.9 172.102C394.4 171.702 391 170.502 387.9 168.702C387.4 168.302 386.9 168.102 386.4 167.802C385.4 167.702 385.5 168.202 385.1 169.002C384.3 170.502 383.1 171.702 381.5 172.502C381.3 172.602 381.1 172.702 381 172.902C380.9 173.002 380.9 173.202 380.9 173.302C380.4 177.802 379.5 182.302 380.1 186.902C380.6 190.802 384.6 190.102 384.6 190.102Z" fill="#FFFDFA"/>
<path d="M387.999 202.302C386.999 202.302 386.099 202.002 385.299 201.502C384.199 200.702 383.599 199.502 383.399 198.202L383.899 190.902C382.899 190.902 381.899 190.602 381.099 190.102C380.199 189.402 379.599 188.402 379.499 187.202C379.099 183.602 379.299 179.902 379.899 176.302C379.999 175.302 380.099 174.402 380.299 173.402C380.299 173.202 380.399 172.902 380.499 172.702C380.699 172.402 380.999 172.202 381.299 172.102C382.699 171.402 383.899 170.302 384.599 168.902C384.699 168.702 384.699 168.602 384.799 168.402C384.899 167.602 385.699 167.102 386.499 167.302H386.599C387.099 167.402 387.499 167.602 387.899 168.002L388.299 168.302C391.299 170.102 394.599 171.202 397.999 171.602C398.199 171.602 398.299 171.702 398.399 171.802C398.499 171.902 398.599 172.102 398.499 172.302C398.099 177.302 396.899 196.102 396.899 196.302C396.899 196.402 396.899 196.502 396.899 196.502C395.499 199.402 392.799 201.502 389.699 202.102C388.999 202.202 388.499 202.302 387.999 202.302ZM384.599 198.102C384.899 200.002 386.599 201.302 388.499 201.102C388.799 201.102 388.999 201.002 389.299 200.902C391.999 200.302 394.299 198.502 395.599 196.102C395.699 194.502 396.699 178.302 397.199 172.802C393.799 172.302 390.599 171.102 387.599 169.402C387.499 169.302 387.299 169.202 387.099 169.102C386.899 168.902 386.599 168.802 386.299 168.702C386.099 168.702 385.999 168.702 385.999 168.702C385.999 168.802 385.899 168.902 385.899 169.002C385.799 169.202 385.699 169.402 385.599 169.602C384.699 171.202 383.399 172.602 381.699 173.302C381.599 173.302 381.499 173.402 381.499 173.402V173.502C381.399 174.502 381.299 175.402 381.099 176.402C380.499 179.902 380.299 183.402 380.699 186.902C380.799 187.702 381.199 188.402 381.799 188.902C382.599 189.402 383.499 189.602 384.499 189.502C384.699 189.502 384.899 189.502 384.999 189.602C385.099 189.702 385.199 189.902 385.199 190.102L384.599 198.102Z" fill="#22262E"/>
<path d="M384.399 194.002C386.399 194.202 388.299 193.602 389.799 192.302C390.999 191.302 391.799 189.702 391.799 188.102C389.599 189.402 387.099 190.002 384.599 190.102L384.399 194.002Z" fill="#22262E"/>
<path d="M384.9 194.7C384.7 194.7 384.5 194.7 384.3 194.7C384 194.7 383.7 194.4 383.8 194.1L384 190.2C384 189.9 384.3 189.6 384.6 189.6C387 189.5 389.4 188.9 391.5 187.7C391.7 187.6 391.9 187.6 392.1 187.7C392.3 187.8 392.4 188 392.4 188.2C392.4 190 391.6 191.7 390.2 192.9C388.7 194.1 386.8 194.7 384.9 194.7ZM385.2 190.8L385.1 193.5C386.7 193.5 388.2 193 389.4 192C390.2 191.3 390.8 190.4 391.1 189.3C389.2 190.1 387.2 190.6 385.2 190.8Z" fill="#22262E"/>
<path d="M388.499 177.703C388.499 177.703 385.699 181.303 386.299 182.003C386.899 182.703 388.599 182.403 388.599 182.403" fill="#FFFDFA"/>
<path d="M387.6 183.102C386.9 183.202 386.2 182.902 385.7 182.402C385.5 182.102 384.8 181.302 387.9 177.302C388.1 177.002 388.5 177.002 388.8 177.202C389.1 177.402 389.1 177.802 388.9 178.102C388 179.202 387.3 180.402 386.7 181.702C387.2 181.902 387.8 181.902 388.3 181.802C388.6 181.702 389 182.002 389 182.302C389.1 182.602 388.8 183.002 388.5 183.002C388.3 183.102 388 183.102 387.6 183.102Z" fill="#22262E"/>
<path d="M385.618 176.309C385.663 175.87 385.522 175.495 385.302 175.473C385.082 175.45 384.867 175.788 384.822 176.228C384.777 176.667 384.918 177.042 385.138 177.064C385.358 177.087 385.573 176.749 385.618 176.309Z" fill="#22262E"/>
<path d="M392.884 176.587C392.899 176.145 392.731 175.781 392.511 175.774C392.29 175.766 392.099 176.118 392.084 176.56C392.07 177.001 392.237 177.365 392.457 177.373C392.678 177.38 392.869 177.028 392.884 176.587Z" fill="#22262E"/>
<path d="M396.1 179.601C397 178.501 398.5 176.401 400.2 177.201C400.7 177.401 401 177.801 401.3 178.201C402.6 180.001 402.3 182.101 401.2 183.901C400.3 185.401 397.6 187.701 396 185.601" fill="#FFFDFA"/>
<path d="M397.599 187.001C396.799 187.001 395.999 186.601 395.499 185.901C395.199 185.701 395.199 185.201 395.499 185.001C395.699 184.701 396.199 184.701 396.399 185.001L396.499 185.101C396.799 185.501 397.199 185.701 397.699 185.701C398.899 185.401 399.999 184.601 400.599 183.501C401.099 182.601 402.199 180.401 400.699 178.501C400.499 178.201 400.199 177.901 399.799 177.701C398.799 177.201 397.799 178.401 396.699 179.701L396.499 180.001C396.299 180.301 395.899 180.301 395.599 180.101C395.299 179.901 395.299 179.501 395.499 179.201L395.699 178.901C396.699 177.701 398.299 175.701 400.299 176.601C400.899 176.901 401.299 177.301 401.699 177.801C402.999 179.601 402.999 182.001 401.599 184.201C400.999 185.201 399.399 186.901 397.599 187.001Z" fill="#22262E"/>
<path d="M387.8 186.9C386.4 186.8 385.1 186.2 384.2 185.1C384 184.8 384 184.5 384.2 184.2C384.4 183.9 384.8 184 385.1 184.2C385.8 185.1 386.9 185.6 388 185.6C390.1 185.5 391.9 183.3 391.9 183.2C392.1 182.9 392.5 182.9 392.8 183.1C393.1 183.3 393.1 183.7 392.9 184C392.8 184.1 390.8 186.7 388.1 186.9H387.8Z" fill="#22262E"/>
<path d="M409.3 199.301C409.3 199.301 423.4 208.701 430.4 230.201C433.8 240.701 426.9 268.701 426.9 268.701L413.9 263.401C413.9 263.401 417.4 241.901 416.6 239.001C415.8 236.101 398.1 216.301 398.1 216.301L409.3 199.301Z" fill="#3185FF"/>
<path d="M337.199 202.202C337.199 202.202 325.299 191.202 324.199 191.502C323.099 191.802 317.899 195.102 318.099 196.102C318.299 197.102 318.299 198.102 318.299 198.102C318.299 198.102 320.499 197.602 320.999 197.902C321.999 199.002 322.899 200.102 323.699 201.302C324.399 202.102 320.699 203.002 320.699 203.002C322.199 203.502 323.699 203.902 325.199 204.102C326.699 204.202 330.599 206.002 330.599 206.002L337.199 202.202Z" fill="#FFFDFA"/>
<path d="M330.6 206.602C330.5 206.602 330.4 206.602 330.3 206.502C328.6 205.702 326.9 205.002 325.1 204.602C323.5 204.402 322 204.002 320.5 203.502C320.2 203.402 320.1 203.202 320.1 202.902C320.1 202.602 320.3 202.402 320.6 202.302C321.5 202.102 322.3 201.802 323.1 201.402L322.9 201.102C322.2 200.102 321.5 199.202 320.7 198.302C320 198.302 319.2 198.502 318.5 198.602C318.3 198.602 318.1 198.602 318 198.502C317.9 198.402 317.8 198.202 317.8 198.002C317.8 198.002 317.7 197.002 317.6 196.102C317.4 194.402 323.4 191.002 324.2 190.802C324.6 190.702 325.6 190.402 337.8 201.702C337.9 201.802 338 202.002 338 202.302C338 202.502 337.9 202.702 337.7 202.802L331 206.602C330.8 206.602 330.7 206.602 330.6 206.602ZM322.9 202.902C323.7 203.102 324.4 203.302 325.2 203.402C327.1 203.802 328.9 204.402 330.6 205.302L336.2 202.102C331.1 197.402 325.4 192.602 324.3 192.202C323.1 192.602 319 195.402 318.7 196.202C318.8 196.602 318.8 197.002 318.8 197.402C320.7 197.002 321.1 197.302 321.3 197.402C322.3 198.302 323.1 199.302 323.8 200.502L324.2 201.002C324.4 201.302 324.5 201.602 324.3 201.902C324 202.402 323.5 202.802 322.9 202.902Z" fill="#22262E"/>
<path d="M379 195.301C379 195.301 356.7 209.201 353.4 208.401C350.1 207.601 335 199.201 335 199.201L328.6 206.601C328.6 206.601 344.1 224.101 351.6 222.201C359.1 220.301 378.8 209.001 378.8 209.001L379 195.301Z" fill="#3185FF"/>
<path d="M361.5 236.402H361.3C361 236.302 360.8 235.902 360.9 235.602C365.5 222.802 376.9 198.702 377 198.502C377.2 198.202 377.5 198.002 377.9 198.202C378.2 198.402 378.4 198.702 378.2 199.102C378.1 199.302 366.7 223.302 362.1 236.102C362 236.302 361.8 236.402 361.5 236.402Z" fill="#22262E"/>
<path d="M416.6 239.001C416.6 239.001 403.7 221.901 398.1 216.301Z" fill="#FFFDFA"/>
<path d="M416.599 239.6C416.399 239.6 416.199 239.5 416.099 239.4C415.999 239.2 403.099 222.3 397.699 216.8C397.399 216.6 397.399 216.2 397.599 215.9C397.799 215.6 398.199 215.6 398.499 215.8L398.599 215.9C404.099 221.4 416.599 237.9 417.099 238.6C417.299 238.9 417.199 239.3 416.899 239.5C416.899 239.6 416.699 239.6 416.599 239.6Z" fill="#22262E"/>
<path d="M224.4 326.699C224.4 326.699 242.8 329.199 249.3 328.399L250.4 342.999C250.4 342.999 230.3 342.699 225.3 340.199L224.4 326.699Z" fill="#FFFDFA"/>
<path d="M250.4 343.7C249.6 343.7 230.1 343.4 225 340.9C224.8 340.8 224.6 340.5 224.6 340.3L223.8 326.8C223.8 326.6 223.9 326.4 224 326.2C224.2 326 224.4 326 224.6 326C224.8 326 242.9 328.5 249.3 327.7C249.5 327.7 249.7 327.7 249.9 327.9C250.1 328 250.1 328.2 250.2 328.4L251.3 343C251.3 343.2 251.2 343.4 251.1 343.5C250.8 343.6 250.6 343.7 250.4 343.7ZM226 339.7C230.8 341.7 246 342.1 249.6 342.2L248.7 329.2C242.5 329.7 228.8 328 225.2 327.6L226 339.7Z" fill="#D1D3D4"/>
<path d="M203.3 394.099C200 394.199 196.8 393.299 194.2 391.399C190.8 388.899 188.7 384.499 188 378.499C186.8 368.999 183.5 362.199 178.1 358.199C173.9 355.199 168.8 353.799 163.7 354.399C163.3 354.499 163 354.199 162.9 353.799C162.8 353.399 163.1 353.099 163.5 352.999C169 352.399 174.5 353.799 179 357.099C184.7 361.399 188.2 368.499 189.4 378.399C190.1 383.999 192 387.999 195.1 390.299C199.7 393.699 206 392.699 209.4 392.099C210 391.999 210.6 391.899 211 391.899C223.4 390.499 225.9 365.999 228 346.299C228.5 341.599 229 337.199 229.5 333.399C229.5 332.999 229.9 332.699 230.2 332.699C230.6 332.699 230.9 333.099 230.9 333.399V333.499C230.3 337.299 229.9 341.699 229.4 346.399C227.3 366.599 224.6 391.799 211.2 393.299C210.8 393.299 210.3 393.399 209.7 393.499C207.5 393.899 205.4 394.099 203.3 394.099Z" fill="#22262E"/>
<path d="M240.101 338.398C241.757 338.398 243.101 337.055 243.101 335.398C243.101 333.742 241.757 332.398 240.101 332.398C238.444 332.398 237.101 333.742 237.101 335.398C237.101 337.055 238.444 338.398 240.101 338.398Z" fill="#3185FF"/>
<path d="M186.3 150.598H74.4004V235.998H186.3V150.598Z" fill="#FFFDFA"/>
<path d="M186.3 236.698H74.4002C74.0002 236.698 73.7002 236.398 73.7002 235.998V150.598C73.7002 150.198 74.0002 149.898 74.4002 149.898H186.3C186.7 149.898 187 150.198 187 150.598V235.998C187 236.398 186.7 236.698 186.3 236.698ZM75.1002 235.198H185.5V151.298H75.1002V235.198Z" fill="#D1D3D4"/>
<path d="M172.6 221.298H90.9002C90.5002 221.298 90.2002 220.998 90.2002 220.598V162.598C90.2002 162.198 90.5002 161.898 90.9002 161.898C91.3002 161.898 91.6002 162.198 91.6002 162.598V219.898H172.6C173 219.898 173.3 220.198 173.3 220.598C173.3 220.998 173.1 221.298 172.6 221.298Z" fill="#D1D3D4"/>
<path d="M90.9002 221.297C90.8002 221.297 90.7002 221.297 90.6002 221.197C90.2002 220.997 90.1002 220.597 90.3002 220.197C90.8002 219.297 102 197.397 113.1 201.097C116 202.197 118.6 203.797 120.8 205.897C125.1 209.497 127.7 211.697 137.4 202.697C144.8 195.797 148.4 187.697 151.2 181.097C154 174.497 156.4 169.197 161.4 167.397C161.8 167.297 162.2 167.497 162.3 167.797C162.4 168.097 162.2 168.597 161.9 168.697C157.5 170.197 155.3 175.197 152.6 181.597C149.7 188.297 146.1 196.597 138.4 203.597C128.3 212.997 124.8 210.897 119.9 206.797C117.8 204.797 115.3 203.297 112.7 202.297C102.9 198.997 91.8002 220.497 91.7002 220.697C91.5002 221.097 91.2002 221.297 90.9002 221.297Z" fill="#D1D3D4"/>
<path d="M215.6 247.5H160V287.2H215.6V247.5Z" fill="#FFFDFA"/>
<path d="M215.7 287.901H160C159.6 287.901 159.3 287.601 159.3 287.201V247.501C159.3 247.101 159.6 246.801 160 246.801H215.6C216 246.801 216.3 247.101 216.3 247.501V287.201C216.4 287.601 216 287.901 215.7 287.901ZM160.8 286.501H215V248.201H160.8V286.501Z" fill="#D1D3D4"/>
<path d="M180.4 280.6C173 280.6 167.1 274.6 167.1 267.3C167.1 259.9 173.1 254 180.4 254C183.1 254 185.7 254.8 187.9 256.3C188.2 256.5 188.3 257 188.1 257.3L181.7 266.5H193C193.4 266.5 193.7 266.8 193.7 267.2C193.7 274.7 187.8 280.6 180.4 280.6ZM180.4 255.5C173.8 255.5 168.5 260.8 168.5 267.4C168.5 274 173.8 279.3 180.4 279.3C186.7 279.3 191.9 274.4 192.3 268.1H180.5C180.2 268.1 180 268 179.9 267.7C179.8 267.5 179.8 267.2 179.9 267L186.6 257.2C184.7 256 182.6 255.5 180.4 255.5Z" fill="#D1D3D4"/>
<path d="M192.999 255.402L186.399 264.002H197.499C197.499 264.102 197.699 258.402 192.999 255.402Z" fill="#D1D3D4"/>
<path d="M210.1 271.099H197.5C197.1 271.099 196.8 270.799 196.8 270.399C196.8 269.999 197.1 269.699 197.5 269.699H210.1C210.5 269.699 210.8 269.999 210.8 270.399C210.8 270.799 210.5 271.099 210.1 271.099Z" fill="#D1D3D4"/>
<path d="M205.8 276.201H197.5C197.1 276.201 196.8 275.901 196.8 275.501C196.8 275.101 197.1 274.801 197.5 274.801H205.8C206.2 274.801 206.5 275.101 206.5 275.501C206.5 275.901 206.2 276.201 205.8 276.201Z" fill="#D1D3D4"/>
</svg>
