<svg width="500" height="500" viewBox="0 0 500 500" fill="none" xmlns="http://www.w3.org/2000/svg">
<path d="M250.4 411.302C337.992 411.302 409 406.78 409 401.202C409 395.623 337.992 391.102 250.4 391.102C162.807 391.102 91.7998 395.623 91.7998 401.202C91.7998 406.78 162.807 411.302 250.4 411.302Z" fill="#D1D3D4"/>
<path d="M405.499 332.002C412.799 365.602 388.599 390.002 388.599 390.002H217.899C217.899 390.002 193.699 365.602 200.999 332.002C208.299 298.402 259.699 280.002 275.299 266.202C290.899 252.402 285.399 228.902 260.799 211.002C236.199 193.102 202.899 181.702 203.799 142.902C204.399 118.102 223.899 101.902 223.899 101.902H382.599C382.599 101.902 402.199 118.002 402.699 142.902C403.599 181.702 370.299 193.102 345.699 211.002C321.099 228.902 315.499 252.402 331.199 266.202C346.799 280.002 398.199 298.402 405.499 332.002Z" fill="#FFFDFA"/>
<path d="M388.5 390.6H217.9C217.7 390.6 217.6 390.5 217.4 390.4C217.2 390.2 193 365.4 200.3 331.8C205.6 307.5 234 290.8 254.7 278.7C263.1 273.8 270.4 269.5 274.8 265.6C280.5 260.8 283.7 253.5 283.3 246C282.8 234.3 274.4 221.6 260.3 211.4C255.5 207.9 250.2 204.5 245.1 201.3C224.1 188 202.4 174.2 203.1 142.7C203.7 117.8 223.3 101.4 223.5 101.2C223.6 101.1 223.8 101 223.9 101H382.6C382.8 101 382.9 101 383 101.2C383.2 101.4 402.8 117.8 403.4 142.7C404.1 174.2 382.4 188 361.4 201.3C356.3 204.5 351 207.9 346.2 211.4C332.1 221.7 323.8 234.3 323.2 246C322.8 253.5 326 260.7 331.7 265.6C336.1 269.5 343.4 273.7 351.8 278.7C372.5 290.8 400.9 307.5 406.2 331.8C413.5 365.4 389.3 390.2 389.1 390.4C388.9 390.6 388.7 390.6 388.5 390.6ZM218.2 389.3H388.3C390.5 386.9 411.6 363.4 404.9 332.1C399.8 308.4 371.7 291.9 351.1 279.9C342.6 274.9 335.3 270.6 330.8 266.7C324.7 261.6 321.4 254 321.8 246.1C322.4 234 330.9 221 345.3 210.5C350.2 206.9 355.5 203.6 360.6 200.3C381.3 187.2 402.7 173.6 402 142.9C401.5 119.9 384.3 104.3 382.3 102.6H224.1C222.2 104.3 204.9 119.9 204.4 142.9C203.7 173.7 225.1 187.2 245.8 200.3C250.9 203.5 256.2 206.9 261.1 210.5C275.5 221 284.1 234 284.6 246.1C285 254 281.7 261.6 275.6 266.7C271.1 270.7 263.8 275 255.3 279.9C234.8 291.9 206.7 308.4 201.5 332.1C194.9 363.4 216 386.9 218.2 389.3Z" fill="#22262E"/>
<path d="M252.8 193.002C258.1 196.302 263.5 199.802 268.7 203.602C282 213.302 290 224.502 294.9 238.302C299.7 251.802 298.4 266.102 301.3 280.102C301.2 281.802 302.5 283.202 304.1 283.302C305.2 283.402 306.2 282.802 306.8 281.902C307.6 280.902 308 279.702 308.1 278.402C309.9 267.202 309.9 256.702 310.6 245.302C311.4 230.802 321.4 215.602 337.8 203.602C343 199.802 348.4 196.402 353.7 193.002C365.6 185.502 412.1 152.202 381.2 142.302C374.6 140.202 367.2 140.702 360.2 141.402L249.6 150.902C243.2 151.502 236.7 152.002 230.8 154.302C224.9 156.602 219.8 160.702 218.8 165.902C216.8 175.902 244.1 187.502 252.8 193.002Z" fill="#9035FF"/>
<path d="M388.699 329.104C382.899 324.304 374.499 321.704 366.099 322.004C354.799 322.404 343.799 326.104 332.499 325.604C319.099 325.004 306.399 318.304 292.999 319.704C277.299 321.204 265.899 333.204 250.699 336.704C242.599 338.604 233.799 338.004 225.899 340.404C216.599 343.304 212.499 351.204 213.599 358.904C213.899 361.304 220.499 380.204 224.199 380.204H382.299C390.399 380.204 396.499 345.504 395.699 340.604C394.899 336.004 392.299 332.004 388.699 329.104Z" fill="#9035FF"/>
<path d="M221 89.4023H385.5C388.9 89.4023 391.7 92.2023 391.7 95.6023C391.7 99.0023 388.9 101.802 385.5 101.802H221C217.6 101.802 214.8 99.0023 214.8 95.6023C214.8 92.2023 217.6 89.4023 221 89.4023Z" fill="#22262E"/>
<path d="M385.5 102.402H221C217.2 102.502 214 99.6017 213.9 95.8017C213.8 92.0017 216.7 88.8017 220.5 88.7017C220.7 88.7017 220.8 88.7017 221 88.7017H385.5C389.3 88.6017 392.5 91.5017 392.6 95.3017C392.7 99.1017 389.8 102.302 386 102.402C385.8 102.502 385.6 102.502 385.5 102.402ZM221 90.0017C217.9 90.0017 215.4 92.5017 215.4 95.6017C215.4 98.7017 217.9 101.202 221 101.202H385.5C388.6 101.202 391.1 98.7017 391.1 95.6017C391.1 92.5017 388.6 90.0017 385.5 90.0017H221Z" fill="#22262E"/>
<path d="M217.8 390H388.6C392 390 394.8 392.8 394.8 396.2C394.8 399.6 392 402.4 388.6 402.4H217.8C214.4 402.4 211.6 399.6 211.6 396.2C211.6 392.7 214.4 390 217.8 390Z" fill="#22262E"/>
<path d="M388.6 403.003H217.8C214 403.103 210.8 400.203 210.7 396.403C210.6 392.603 213.5 389.403 217.3 389.303C217.5 389.303 217.6 389.303 217.8 389.303H388.6C392.4 389.203 395.6 392.103 395.7 395.903C395.8 399.703 392.9 402.903 389.1 403.003C389 403.003 388.8 403.003 388.6 403.003ZM217.8 390.603C214.7 390.603 212.2 393.103 212.2 396.203C212.2 399.303 214.7 401.803 217.8 401.803H388.6C391.7 401.803 394.2 399.303 394.2 396.203C394.2 393.103 391.7 390.603 388.6 390.603H217.8Z" fill="#22262E"/>
<path d="M300.7 288.203C296 288.203 296 303.803 300.7 303.803C305.4 303.803 305.5 288.203 300.7 288.203Z" fill="#9035FF"/>
<path d="M308.999 303.902C307.099 303.902 307.099 309.402 308.999 309.402C310.899 309.402 310.899 303.902 308.999 303.902Z" fill="#9035FF"/>
<path d="M297.299 178.403C275.599 178.203 253.999 174.903 233.199 168.703C232.899 168.603 232.699 168.203 232.799 167.903C232.899 167.603 233.299 167.403 233.599 167.503C234.499 167.803 325.099 197.203 373.699 151.803C373.999 151.503 374.399 151.503 374.599 151.803C374.899 152.103 374.899 152.503 374.599 152.703C353.199 172.703 323.799 178.403 297.299 178.403Z" fill="#22262E"/>
<path d="M276.9 354.903C259.8 354.903 242.9 352.403 226.5 347.603C226.1 347.503 226 347.103 226.1 346.803C226.2 346.503 226.6 346.303 226.9 346.403C227.4 346.603 276.7 362.703 321.2 346.403L374 327.003C374.3 326.903 374.7 327.103 374.9 327.403C375 327.703 374.8 328.103 374.5 328.303L321.7 347.603C306.5 353.003 291 354.903 276.9 354.903Z" fill="#22262E"/>
<path d="M342.8 330.303H342.6C327.4 326.503 300.8 320.203 300.6 320.103C300.2 320.003 300 319.703 300.1 319.303C300.2 318.903 300.6 318.703 300.9 318.803C301.2 318.903 327.7 325.203 342.9 329.003C343.3 329.103 343.5 329.503 343.4 329.803C343.3 330.103 343 330.303 342.8 330.303Z" fill="#22262E"/>
<path d="M144.601 373.398L126.101 394.998C126.101 394.998 90.4007 374.898 91.7007 370.898C93.0007 366.898 116.201 372.898 116.201 372.898L127.701 357.898" fill="#FFFDFA"/>
<path d="M126.2 395.797C126.1 395.797 126 395.797 125.9 395.697C115 389.597 89.8002 374.897 91.1002 370.797C92.4002 366.697 110 370.697 116.1 372.197L127.3 357.597C127.5 357.297 128 357.197 128.3 357.397C128.6 357.597 128.7 358.097 128.5 358.397L128.4 358.497L116.9 373.497C116.7 373.697 116.4 373.797 116.1 373.797C105.2 370.997 93.1002 369.297 92.4002 371.297C92.1002 373.597 109.5 384.897 126 394.197L144.1 372.997C144.4 372.697 144.8 372.697 145.1 372.897C145.4 373.197 145.4 373.597 145.2 373.897L126.7 395.497C126.6 395.697 126.4 395.797 126.2 395.797Z" fill="#22262E"/>
<path d="M204.1 167.898C202.1 166.098 199.7 164.498 197.1 164.098C194.8 163.798 193.6 164.698 191.7 165.598C190.9 165.898 190.9 167.098 190.1 167.398C189.3 167.698 187.7 166.898 186.7 166.898C181.7 166.798 176.9 168.498 173.7 172.498C171.6 175.098 170.4 178.398 169.1 181.498C163.6 195.298 155.3 209.098 141.7 215.098C154 223.898 169 229.398 184 228.498C191.4 228.098 198.5 225.998 205 222.598C210.1 219.798 219.3 214.098 220.3 207.798C221.2 201.798 218.3 192.698 216.5 187.098C214.1 179.698 209.9 173.098 204.1 167.898Z" fill="#FFFDFA"/>
<path d="M180.9 229.299C167.6 229.299 153.6 224.499 141.2 215.599C140.9 215.399 140.8 214.899 141.1 214.599C141.2 214.499 141.3 214.399 141.4 214.399C152.7 209.499 161.5 198.599 168.4 181.199L168.7 180.399C169.7 177.399 171.2 174.499 173.1 171.999C176.2 168.099 181.1 165.999 186.7 166.099C187.2 166.099 187.7 166.199 188.2 166.399C188.7 166.599 189.2 166.699 189.8 166.599C190 166.499 190.1 166.299 190.3 165.999C190.5 165.499 190.9 165.099 191.4 164.799C191.8 164.599 192.1 164.499 192.4 164.299C193.8 163.399 195.5 162.999 197.2 163.199C200.3 163.599 202.9 165.699 204.6 167.099C210.4 172.399 214.7 179.099 217.1 186.599C219.2 192.799 221.8 201.699 221 207.599C220.1 213.799 212 219.299 205.4 222.899C198.8 226.399 191.6 228.499 184.1 228.899C183 229.299 181.9 229.299 180.9 229.299ZM143.1 215.199C155.9 224.099 170.4 228.599 184 227.799C191.2 227.399 198.3 225.399 204.7 221.999C213.7 217.099 219 212.099 219.6 207.699C220.4 202.099 217.8 193.399 215.8 187.399C213.5 180.099 209.3 173.599 203.7 168.499C202.1 167.099 199.8 165.299 197 164.899C195.6 164.699 194.2 165.099 193 165.799C192.7 165.999 192.3 166.099 191.9 166.299C191.7 166.499 191.5 166.699 191.5 166.899C191.3 167.499 190.8 167.899 190.2 168.099C189.4 168.299 188.5 168.199 187.8 167.899C187.4 167.799 187 167.699 186.6 167.699C181.4 167.599 177 169.499 174.2 172.999C172.4 175.399 171 178.099 170.1 180.999L169.8 181.799C162.9 198.999 154.2 209.899 143.1 215.199Z" fill="#22262E"/>
<path d="M178.801 214.499C181.201 211.899 172.501 213.899 171.601 230.699C171.001 243.499 175.101 264.399 175.101 264.399L147.601 287.399L164.601 292.299C164.601 292.299 195.601 269.799 195.601 268.099C195.601 266.399 178.801 214.499 178.801 214.499Z" fill="#FFFDFA"/>
<path d="M164.6 292.8H164.4L147.4 287.9C147.2 287.8 147 287.6 146.9 287.4C146.9 287.2 146.9 286.9 147.1 286.8L174.3 264.1C173.7 261.2 170.3 242.4 170.9 230.7C171.5 218.6 176.3 213.5 178.5 213C178.9 212.8 179.4 213 179.7 213.4C179.9 213.8 179.8 214.4 179.5 214.7C182.6 224.1 196.2 266.4 196.2 268.1C196.2 269.8 179.2 282.4 165 292.8C164.9 292.8 164.7 292.8 164.6 292.8ZM149 287L164.4 291.4C175.7 283.2 193.5 269.9 194.8 267.9C194.3 265.4 184.6 234.9 178 214.7C176.3 216 172.6 220.3 172.1 230.8C171.5 243.4 175.6 264.1 175.6 264.3C175.6 264.5 175.6 264.8 175.4 264.9L149 287Z" fill="#22262E"/>
<path d="M227.101 200.6C226.101 199.8 181.401 202.6 173.801 217.5C166.201 232.4 193.801 277.4 193.801 277.4L250.301 260.5C250.201 260.4 254.301 221.8 227.101 200.6Z" fill="#9035FF"/>
<path d="M205 203.101L208.1 213.001C208.1 213.001 208.3 217.901 201.2 218.501C194.1 219.101 191.7 214.901 191.7 214.901L186.5 196.301C186.5 196.301 195 187.401 190.1 177.301C194.4 181.401 200.8 182.501 206.2 179.901C206.2 179.901 209.4 189.301 210.3 194.601C211.2 199.901 205 203.101 205 203.101Z" fill="#FFFDFA"/>
<path d="M199.9 219.2C193.5 219.2 191.1 215.3 191 215.1C191 215 191 215 190.9 214.9L185.7 196.3C185.6 196.1 185.7 195.8 185.9 195.6C186 195.5 194 187 189.4 177.5C189.3 177.2 189.4 176.8 189.6 176.6C189.9 176.4 190.3 176.4 190.5 176.7C194.6 180.6 200.7 181.6 205.7 179.1C205.9 179 206.1 179 206.3 179.1C206.5 179.2 206.6 179.3 206.7 179.5C206.8 179.9 210 189 210.8 194.4C211.6 199.3 207.3 202.4 205.7 203.4L208.7 212.7C208.7 212.8 208.7 212.8 208.7 212.9C208.7 213 208.8 218.5 201.1 219.1C200.8 219.2 200.4 219.2 199.9 219.2ZM192.4 214.5C192.8 215 195.1 218.2 201.2 217.7C207.1 217.2 207.4 213.7 207.5 213.1L204.4 203.3C204.3 203 204.5 202.6 204.8 202.4C204.9 202.4 210.4 199.4 209.7 194.6C208.7 189.9 207.4 185.3 205.9 180.7C201.3 182.7 196 182.2 191.9 179.3C194.3 187.6 188.8 194.7 187.5 196.2L192.4 214.5Z" fill="#22262E"/>
<path d="M189.4 194.7C188.9 193.9 188.1 193.2 187.2 192.9C186.3 192.6 185.4 192.5 184.5 192.5C184 192.5 183.5 192.5 183 192.7C182.7 192.9 182.4 193.1 182.2 193.3C181.6 193.9 181.3 194.7 181.2 195.5C181.2 196.2 181.4 196.8 181.7 197.4C182 198.1 182.4 198.7 182.9 199.2C184.9 201.5 188.4 201.7 190.6 199.7" fill="#FFFDFA"/>
<path d="M187 201.799H186.6C184.9 201.699 183.4 200.899 182.3 199.699C181.8 199.099 181.4 198.399 181 197.699C180.6 196.999 180.4 196.199 180.4 195.499C180.5 194.499 180.9 193.599 181.6 192.799C181.9 192.499 182.3 192.199 182.7 191.999C183.3 191.799 183.9 191.699 184.5 191.699C185.5 191.699 186.5 191.799 187.4 192.099C188.5 192.499 189.4 193.199 190 194.199C190.2 194.499 190.1 194.999 189.7 195.199C189.4 195.399 188.9 195.299 188.7 194.999C188.3 194.299 187.6 193.799 186.8 193.499C186 193.199 185.2 193.099 184.4 193.099C184 193.099 183.6 193.099 183.3 193.199C183.1 193.299 182.9 193.499 182.7 193.699C182.2 194.099 181.9 194.799 181.8 195.399C181.8 195.899 182 196.499 182.3 196.999C182.6 197.599 182.9 198.199 183.4 198.699C184.2 199.599 185.4 200.199 186.7 200.299C188 200.399 189.2 199.899 190.2 199.099C190.5 198.799 191 198.799 191.2 199.099C191.4 199.399 191.5 199.899 191.2 200.099C190 201.299 188.5 201.799 187 201.799Z" fill="#22262E"/>
<path d="M199.4 187.301C199.4 187.301 204.7 191.101 204.2 192.301C203.7 193.501 201.3 193.701 201.3 193.701" fill="#FFFDFA"/>
<path d="M201.2 194.498C200.8 194.498 200.5 194.198 200.5 193.798C200.5 193.398 200.8 192.998 201.1 192.998C202 192.898 203.2 192.498 203.5 191.998C203.4 191.498 201.3 189.598 199 187.898C198.7 187.698 198.6 187.198 198.8 186.898C199 186.598 199.5 186.498 199.8 186.698C203.6 189.498 205.3 191.398 204.8 192.598C204.2 194.098 201.8 194.398 201.2 194.498Z" fill="#22262E"/>
<path d="M196.095 186.099C196.513 185.83 196.537 185.123 196.149 184.519C195.761 183.915 195.107 183.643 194.689 183.912C194.271 184.181 194.246 184.888 194.635 185.492C195.023 186.096 195.677 186.368 196.095 186.099Z" fill="#22262E"/>
<path d="M201.907 185.371C202.327 185.104 202.354 184.396 201.969 183.791C201.583 183.185 200.931 182.91 200.511 183.177C200.092 183.444 200.064 184.151 200.45 184.757C200.835 185.363 201.488 185.637 201.907 185.371Z" fill="#22262E"/>
<path d="M205.8 194.898C205.8 194.898 198.7 202.398 195 194.898Z" fill="#FFFDFA"/>
<path d="M199.5 198.898C199.2 198.898 199 198.898 198.7 198.798C196.9 198.498 195.4 197.298 194.4 195.098C194.2 194.698 194.4 194.298 194.8 194.098C195.1 193.998 195.5 194.098 195.7 194.398C196.5 196.098 197.6 197.098 198.9 197.298C201.9 197.798 205.2 194.298 205.2 194.198C205.5 193.898 205.9 193.898 206.2 194.198C206.5 194.498 206.5 194.898 206.2 195.198C206.2 195.598 202.9 198.898 199.5 198.898Z" fill="#22262E"/>
<path d="M205 203.098C205 203.098 199.8 204.598 197 203.898C197 203.898 200.7 209.198 206.8 208.998L205 203.098Z" fill="#22262E"/>
<path d="M206.5 209.798C200.3 209.798 196.6 204.598 196.4 204.398C196.2 204.198 196.2 203.798 196.4 203.598C196.6 203.398 196.9 203.198 197.2 203.298C199.8 203.898 204.7 202.498 204.8 202.498C205.2 202.398 205.6 202.598 205.7 202.998L207.5 208.998C207.6 209.198 207.5 209.498 207.4 209.598C207.3 209.798 207.1 209.898 206.8 209.898L206.5 209.798ZM198.8 204.798C200.7 206.698 203.1 207.998 205.8 208.298L204.5 203.998C202.6 204.498 200.7 204.698 198.8 204.798Z" fill="#22262E"/>
<path d="M250.2 260.5C250.2 260.5 250.2 289 246.9 301C237.5 335.1 168.6 389.6 168.6 389.6L153.4 374.5L195.3 314.1L144.6 373.5L127.8 358.2L193.8 277.5L250.2 260.5Z" fill="#22262E"/>
<path d="M168.701 390.301C168.501 390.301 168.301 390.201 168.201 390.101L152.901 375.001C152.601 374.801 152.601 374.401 152.801 374.101L186.401 325.601L145.201 373.901C144.901 374.201 144.501 374.201 144.201 374.001L127.401 358.701C127.101 358.401 127.101 358.001 127.301 357.701L193.301 277.001C193.401 276.901 193.501 276.801 193.701 276.801L250.001 259.901C250.201 259.801 250.501 259.901 250.601 260.001C250.801 260.101 250.901 260.301 250.901 260.601C250.901 261.801 250.901 289.301 247.601 301.301C243.701 315.601 229.201 334.901 204.701 358.701C186.501 376.401 169.201 390.101 169.001 390.201C169.001 390.201 168.801 390.301 168.701 390.301ZM154.401 374.401L168.801 388.601C175.101 383.601 237.501 332.801 246.301 300.801C249.201 290.201 249.501 266.601 249.601 261.401L194.201 278.001L128.801 358.001L144.601 372.401L194.801 313.601C195.001 313.301 195.501 313.201 195.801 313.501C196.101 313.701 196.201 314.201 195.901 314.501L154.401 374.401Z" fill="#22262E"/>
<path d="M153.4 374.5L142.5 386.6C142.5 386.6 124.6 380.6 125.3 384C126 387.4 149.4 406.4 150.6 406.8C151.8 407.2 168.6 389.6 168.6 389.6" fill="#FFFDFA"/>
<path d="M150.601 407.498C150.501 407.498 150.501 407.498 150.401 407.498C149.001 406.998 125.501 387.898 124.601 384.198C124.501 383.698 124.601 383.198 125.001 382.798C127.001 380.998 138.201 384.398 142.201 385.798L152.801 373.998C153.101 373.698 153.501 373.698 153.801 373.998C154.101 374.298 154.101 374.698 153.801 374.998L143.001 387.098C142.801 387.298 142.501 387.398 142.201 387.298C134.301 384.598 126.801 383.098 126.001 383.798C126.701 386.698 148.101 404.298 150.701 405.898C152.401 404.898 160.801 396.598 168.101 388.998C168.401 388.698 168.801 388.698 169.101 388.998C169.401 389.298 169.401 389.698 169.101 389.998C153.901 405.998 151.401 407.498 150.601 407.498Z" fill="#22262E"/>
<path d="M170.4 380.099C170.2 380.099 170 379.999 169.9 379.899C169.7 379.599 169.7 379.299 170 378.999C170.6 378.499 226.7 330.599 237.9 303.499C249 276.699 243.1 265.999 243.1 265.899C242.9 265.599 243 265.199 243.3 264.999C243.6 264.799 244 264.899 244.2 265.199C244.5 265.599 250.4 276.399 239.1 303.899C227.8 331.199 171.4 379.399 170.9 379.899C170.7 380.099 170.6 380.099 170.4 380.099Z" fill="#FFFDFA"/>
<path d="M199.401 290.997C199.201 290.997 199.101 290.897 199.001 290.797C198.801 290.497 198.801 290.097 199.001 289.897L213.101 274.497C213.301 274.197 213.701 274.197 214.001 274.397C214.101 274.497 214.201 274.697 214.201 274.897V286.397C214.201 286.797 214.001 287.097 213.601 287.097C213.201 287.097 212.901 286.897 212.901 286.497C212.901 286.397 212.901 286.397 212.901 286.297V276.497L199.901 290.697C199.801 290.897 199.601 290.997 199.401 290.997Z" fill="#FFFDFA"/>
<path d="M185.401 298.598L204.201 277.398H157.601L132.601 302.098L185.401 298.598Z" fill="#FFFDFA"/>
<path d="M132.6 302.798C132.2 302.798 131.9 302.498 131.9 302.098C131.9 301.898 132 301.798 132.1 301.598L157.1 276.798C157.2 276.698 157.4 276.598 157.6 276.598H204.2C204.6 276.598 204.9 276.898 204.9 277.298C204.9 277.498 204.8 277.598 204.7 277.698L185.9 298.998C185.8 299.098 185.6 299.198 185.5 299.198L132.6 302.798ZM157.9 277.998L134.3 301.298L185.1 297.998L202.7 277.998H157.9Z" fill="#22262E"/>
<path d="M220.2 207.8C220.2 207.8 231.7 253.8 228.5 255.3C225.3 256.8 185.6 269.5 183.4 270.4C181.2 271.3 175.8 275.2 174.9 277.3C174 279.4 173 287.7 174.9 287.2C176.8 286.7 181.5 285.6 183 284.8C184.5 284 186.6 279.6 186.6 279.6C186.6 279.6 186.4 283.9 188.4 283C190.4 282.1 194 277.3 194 277.3C194 277.3 244.1 275.6 249 265.5C253.9 255.4 251.2 233.7 243.1 217.1C235 200.5 221 197.6 220.2 207.8Z" fill="#FFFDFA"/>
<path d="M174.7 288C174.3 288 174 287.8 173.8 287.6C172.4 286 173.4 278.9 174.3 277.2C175.4 274.9 180.8 271 183.2 269.9C184.2 269.5 192.2 266.8 201.5 263.8C213.3 259.9 226.6 255.6 228.3 254.8C229.7 253.1 225 229.7 219.6 208.1C219.6 208 219.6 208 219.6 207.9C219.8 204.4 221.6 202.1 224.5 201.5C229.7 200.5 238 205.5 243.6 217.1C251.8 233.9 254.4 255.9 249.5 266.1C244.7 276.1 198.9 278.1 194.2 278.2C193.4 279.3 190.5 283 188.6 283.8C188.1 284.1 187.5 284 187 283.7C186.5 283.3 186.2 282.7 186.1 282C185.3 283.4 184.3 284.9 183.3 285.4C181.3 286.2 179.2 286.9 177.1 287.3L175.2 287.8C174.9 287.9 174.8 288 174.7 288ZM220.9 207.8C221.2 209 223.9 219.9 226.2 230.9C231.3 254.8 229.6 255.5 228.8 255.9C227 256.7 213.6 261.1 201.8 265C192.9 267.9 184.6 270.6 183.6 271.1C181.3 272.1 176.2 275.9 175.4 277.7C174.5 279.7 174 286 174.7 286.7C175.3 286.5 175.9 286.3 176.6 286.1C178.6 285.6 180.6 285 182.6 284.3C183.5 283.8 185.1 281.1 185.9 279.4C186 279.1 186.4 279 186.7 279C187 279.1 187.2 279.4 187.2 279.7C187.1 280.8 187.3 282.2 187.7 282.5C187.8 282.5 187.9 282.5 188 282.5C189.5 281.8 192.3 278.3 193.3 277C193.4 276.8 193.6 276.7 193.8 276.7C193.9 276.7 206.5 276.2 219.4 274.6C240.8 271.9 246.9 268 248.2 265.3C253 255.4 250.3 234 242.3 217.5C237.1 206.7 229.3 201.8 224.7 202.7C222.5 203.1 221.1 204.9 220.9 207.8Z" fill="#22262E"/>
<path d="M185.4 298.599C183.6 295.999 160.4 257.699 160.4 257.699L105.7 263.099L132.5 302.099L185.4 298.599Z" fill="#FFFDFA"/>
<path d="M132.6 302.8C132.4 302.8 132.2 302.7 132 302.5L105.2 263.5C105.1 263.3 105 263.1 105.1 262.8C105.2 262.6 105.4 262.4 105.6 262.4L160.3 257C160.6 257 160.8 257.1 160.9 257.3C161.1 257.7 184.1 295.7 185.9 298.2C186 298.4 186.1 298.7 186 298.9C185.9 299.1 185.7 299.3 185.4 299.3L132.6 302.8ZM107 263.7L133 301.5L184.3 298.1C180.4 292 162.5 262.3 160.1 258.5L107 263.7Z" fill="#22262E"/>
<path d="M151.601 282.1C150.801 280.3 149.501 278.8 147.901 277.6C146.901 276.8 145.701 276.3 144.501 276.2C143.201 276.1 142.001 276.6 141.201 277.6C140.701 278.5 140.501 279.5 140.701 280.4C140.901 282.7 142.101 284.8 144.001 286.2C147.401 288.5 154.101 287.3 151.601 282.1Z" fill="#FFFDFA"/>
<path d="M147.9 287.999C146.4 287.999 145 287.599 143.8 286.799C141.7 285.299 140.4 282.999 140.2 280.499C140 279.399 140.3 278.199 140.8 277.199C141.7 275.999 143.2 275.299 144.7 275.499C146.1 275.699 147.4 276.199 148.5 276.999C150.2 278.199 151.5 279.799 152.4 281.699C153.7 284.499 152.6 286.099 151.8 286.699C150.5 287.599 149.2 287.999 147.9 287.999ZM144.3 276.799C143.4 276.799 142.4 277.199 141.9 277.999C141.5 278.699 141.3 279.599 141.5 280.399C141.7 282.499 142.8 284.499 144.5 285.699C146.3 286.899 149.4 286.999 150.8 285.799C151.7 284.999 151.8 283.899 151.1 282.299C150.3 280.599 149.1 279.199 147.7 278.099C146.8 277.399 145.8 276.899 144.6 276.799H144.3Z" fill="#22262E"/>
<path d="M144.7 279.898C144.8 279.898 146.5 282.598 146.5 282.598L147.7 279.898" fill="#FFFDFA"/>
<path d="M146.501 283.399C146.301 283.399 146.101 283.299 145.901 283.099C145.301 282.099 144.501 280.799 144.301 280.499C144.201 280.399 144.101 280.199 144.101 279.999C144.101 279.599 144.401 279.299 144.801 279.299C145.201 279.299 145.301 279.299 146.401 281.199L147.001 279.699C147.101 279.399 147.501 279.199 147.901 279.299C148.201 279.399 148.401 279.799 148.301 280.199L147.101 282.899C147.001 283.199 146.801 283.299 146.501 283.399Z" fill="#22262E"/>
</svg>
