<?xml version="1.0" standalone="no"?>
<svg id="ClockCountdown" width="32" height="32" viewBox="0 0 32 32" fill="none" xmlns="http://www.w3.org/2000/svg" style="max-width: 100%; max-height: 100%;">
<g clip-path="url(#clip0_1218_4899)">
<path d="M28 17C27.4912 23.16 22.2913 28 16 28C12.8174 28 9.76516 26.7357 7.51472 24.4853C5.26428 22.2348 4 19.1826 4 16C4 9.70875 8.84 4.50875 15 4" stroke="black" stroke-width="2" stroke-linecap="round" stroke-linejoin="round" stroke-dasharray="0,0,0,54.60907745361328"><animate attributeType="XML" attributeName="stroke-dasharray" repeatCount="1" dur="0.684931506849315s" values="0,0,0,54.60907745361328; 
          0,27.30453872680664,27.30453872680664,0; 
          54.60907745361328,0,0,0" keyTimes="0; 0.5; 1" fill="freeze"></animate></path>
<path d="M16 9V16H23" stroke="black" stroke-width="2" stroke-linecap="round" stroke-linejoin="round" stroke-dasharray="0,0,0,14"><animate attributeType="XML" attributeName="stroke-dasharray" repeatCount="1" dur="0.684931506849315s" values="0,0,0,14; 
          0,7,7,0; 
          14,0,0,0" keyTimes="0; 0.5; 1" fill="freeze"></animate></path>
<path d="M20 6C20.8284 6 21.5 5.32843 21.5 4.5C21.5 3.67157 20.8284 3 20 3C19.1716 3 18.5 3.67157 18.5 4.5C18.5 5.32843 19.1716 6 20 6Z" fill="black" stroke-dasharray="0,0,0,9.426094055175781"><animate attributeType="XML" attributeName="stroke-dasharray" repeatCount="1" dur="0.684931506849315s" values="0,0,0,9.426094055175781; 
          0,4.713047027587891,4.713047027587891,0; 
          9.426094055175781,0,0,0" keyTimes="0; 0.5; 1" fill="freeze"></animate></path>
<path d="M24.5 9C25.3284 9 26 8.32843 26 7.5C26 6.67157 25.3284 6 24.5 6C23.6716 6 23 6.67157 23 7.5C23 8.32843 23.6716 9 24.5 9Z" fill="black" stroke-dasharray="0,0,0,9.426093101501465"><animate attributeType="XML" attributeName="stroke-dasharray" repeatCount="1" dur="0.684931506849315s" values="0,0,0,9.426093101501465; 
          0,4.713046550750732,4.713046550750732,0; 
          9.426093101501465,0,0,0" keyTimes="0; 0.5; 1" fill="freeze"></animate></path>
<path d="M27.5 13.5C28.3284 13.5 29 12.8284 29 12C29 11.1716 28.3284 10.5 27.5 10.5C26.6716 10.5 26 11.1716 26 12C26 12.8284 26.6716 13.5 27.5 13.5Z" fill="black" stroke-dasharray="0,0,0,9.426066398620605"><animate attributeType="XML" attributeName="stroke-dasharray" repeatCount="1" dur="0.684931506849315s" values="0,0,0,9.426066398620605; 
          0,4.713033199310303,4.713033199310303,0; 
          9.426066398620605,0,0,0" keyTimes="0; 0.5; 1" fill="freeze"></animate></path>
</g>
<defs>
<clipPath id="clip0_1218_4899">
<rect width="32" height="32" fill="white" stroke-dasharray="0,0,0,128"><animate attributeType="XML" attributeName="stroke-dasharray" repeatCount="1" dur="0.684931506849315s" values="0,0,0,128; 
          0,64,64,0; 
          128,0,0,0" keyTimes="0; 0.5; 1" fill="freeze"></animate></rect>
</clipPath>
</defs>
</svg>