<?xml version="1.0" standalone="no"?>
<svg id="Globe" width="32" height="32" viewBox="0 0 32 32" fill="none" xmlns="http://www.w3.org/2000/svg" style="max-width: 100%; max-height: 100%;">
<g clip-path="url(#clip0_1218_4893)">
<path d="M16 28C22.6274 28 28 22.6274 28 16C28 9.37258 22.6274 4 16 4C9.37258 4 4 9.37258 4 16C4 22.6274 9.37258 28 16 28Z" stroke="black" stroke-width="2" stroke-linecap="round" stroke-linejoin="round" stroke-dasharray="0,0,0,75.40877532958984"><animate attributeType="XML" attributeName="stroke-dasharray" repeatCount="1" dur="0.684931506849315s" values="0,0,0,75.40877532958984; 
          0,37.70438766479492,37.70438766479492,0; 
          75.40877532958984,0,0,0" keyTimes="0; 0.5; 1" fill="freeze"></animate></path>
<path d="M21 16C21 24 16 28 16 28C16 28 11 24 11 16C11 8 16 4 16 4C16 4 21 8 21 16Z" stroke="black" stroke-width="2" stroke-linecap="round" stroke-linejoin="round" stroke-dasharray="0,0,0,53.536094665527344"><animate attributeType="XML" attributeName="stroke-dasharray" repeatCount="1" dur="0.684931506849315s" values="0,0,0,53.536094665527344; 
          0,26.768047332763672,26.768047332763672,0; 
          53.536094665527344,0,0,0" keyTimes="0; 0.5; 1" fill="freeze"></animate></path>
<path d="M4.68262 12H27.3176" stroke="black" stroke-width="2" stroke-linecap="round" stroke-linejoin="round" stroke-dasharray="0,0,0,22.634979248046875"><animate attributeType="XML" attributeName="stroke-dasharray" repeatCount="1" dur="0.684931506849315s" values="0,0,0,22.634979248046875; 
          0,11.317489624023438,11.317489624023438,0; 
          22.634979248046875,0,0,0" keyTimes="0; 0.5; 1" fill="freeze"></animate></path>
<path d="M4.68262 20H27.3176" stroke="black" stroke-width="2" stroke-linecap="round" stroke-linejoin="round" stroke-dasharray="0,0,0,22.634979248046875"><animate attributeType="XML" attributeName="stroke-dasharray" repeatCount="1" dur="0.684931506849315s" values="0,0,0,22.634979248046875; 
          0,11.317489624023438,11.317489624023438,0; 
          22.634979248046875,0,0,0" keyTimes="0; 0.5; 1" fill="freeze"></animate></path>
</g>
<defs>
<clipPath id="clip0_1218_4893">
<rect width="32" height="32" fill="white" stroke-dasharray="0,0,0,128"><animate attributeType="XML" attributeName="stroke-dasharray" repeatCount="1" dur="0.684931506849315s" values="0,0,0,128; 
          0,64,64,0; 
          128,0,0,0" keyTimes="0; 0.5; 1" fill="freeze"></animate></rect>
</clipPath>
</defs>
</svg>