<?xml version="1.0" standalone="no"?>
<svg id="LockKey" width="32" height="32" viewBox="0 0 32 32" fill="none" xmlns="http://www.w3.org/2000/svg" style="max-width: 100%; max-height: 100%;">
<g clip-path="url(#clip0_1218_4906)">
<path d="M16 20C17.3807 20 18.5 18.8807 18.5 17.5C18.5 16.1193 17.3807 15 16 15C14.6193 15 13.5 16.1193 13.5 17.5C13.5 18.8807 14.6193 20 16 20Z" stroke="black" stroke-width="2" stroke-linecap="round" stroke-linejoin="round" stroke-dasharray="0,0,0,15.71017074584961"><animate attributeType="XML" attributeName="stroke-dasharray" repeatCount="1" dur="0.684931506849315s" values="0,0,0,15.71017074584961; 
          0,7.855085372924805,7.855085372924805,0; 
          15.71017074584961,0,0,0" keyTimes="0; 0.5; 1" fill="freeze"></animate></path>
<path d="M16 20V23" stroke="black" stroke-width="2" stroke-linecap="round" stroke-linejoin="round" stroke-dasharray="0,0,0,3"><animate attributeType="XML" attributeName="stroke-dasharray" repeatCount="1" dur="0.684931506849315s" values="0,0,0,3; 
          0,1.5,1.5,0; 
          3,0,0,0" keyTimes="0; 0.5; 1" fill="freeze"></animate></path>
<path d="M26 11H6C5.44772 11 5 11.4477 5 12V26C5 26.5523 5.44772 27 6 27H26C26.5523 27 27 26.5523 27 26V12C27 11.4477 26.5523 11 26 11Z" stroke="black" stroke-width="2" stroke-linecap="round" stroke-linejoin="round" stroke-dasharray="0,0,0,74.28410339355469"><animate attributeType="XML" attributeName="stroke-dasharray" repeatCount="1" dur="0.684931506849315s" values="0,0,0,74.28410339355469; 
          0,37.142051696777344,37.142051696777344,0; 
          74.28410339355469,0,0,0" keyTimes="0; 0.5; 1" fill="freeze"></animate></path>
<path d="M11 11V7C11 5.67392 11.5268 4.40215 12.4645 3.46447C13.4021 2.52678 14.6739 2 16 2C17.3261 2 18.5979 2.52678 19.5355 3.46447C20.4732 4.40215 21 5.67392 21 7V11" stroke="black" stroke-width="2" stroke-linecap="round" stroke-linejoin="round" stroke-dasharray="0,0,0,23.707990646362305"><animate attributeType="XML" attributeName="stroke-dasharray" repeatCount="1" dur="0.684931506849315s" values="0,0,0,23.707990646362305; 
          0,11.853995323181152,11.853995323181152,0; 
          23.707990646362305,0,0,0" keyTimes="0; 0.5; 1" fill="freeze"></animate></path>
</g>
<defs>
<clipPath id="clip0_1218_4906">
<rect width="32" height="32" fill="white" stroke-dasharray="0,0,0,128"><animate attributeType="XML" attributeName="stroke-dasharray" repeatCount="1" dur="0.684931506849315s" values="0,0,0,128; 
          0,64,64,0; 
          128,0,0,0" keyTimes="0; 0.5; 1" fill="freeze"></animate></rect>
</clipPath>
</defs>
</svg>