<svg width="33" height="32" viewBox="0 0 33 32" fill="none" xmlns="http://www.w3.org/2000/svg">
<g id="PuzzlePiece" clip-path="url(#clip0_1452_3732)">
<path id="Vector" d="M8.24982 26.9982C7.98461 26.9982 7.73025 26.8929 7.54272 26.7053C7.35518 26.5178 7.24982 26.2634 7.24982 25.9982V20.662C6.71636 20.9144 6.12773 21.0278 5.53868 20.9916C4.94962 20.9555 4.37927 20.771 3.88065 20.4553C3.38203 20.1396 2.97133 19.703 2.68674 19.186C2.40216 18.669 2.25293 18.0884 2.25293 17.4982C2.25293 16.9081 2.40216 16.3275 2.68674 15.8105C2.97133 15.2934 3.38203 14.8568 3.88065 14.5411C4.37927 14.2254 4.94962 14.0409 5.53868 14.0048C6.12773 13.9686 6.71636 14.0821 7.24982 14.3345V8.99821C7.24982 8.733 7.35518 8.47864 7.54272 8.29111C7.73025 8.10357 7.98461 7.99821 8.24982 7.99821H14.0861C13.8334 7.46474 13.7197 6.87603 13.7557 6.28684C13.7916 5.69765 13.976 5.12713 14.2917 4.62834C14.6073 4.12954 15.044 3.71869 15.5611 3.43399C16.0782 3.14929 16.6589 3 17.2492 3C17.8395 3 18.4202 3.14929 18.9373 3.43399C19.4544 3.71869 19.891 4.12954 20.2067 4.62834C20.5224 5.12713 20.7067 5.69765 20.7427 6.28684C20.7786 6.87603 20.665 7.46474 20.4123 7.99821H26.2498C26.515 7.99821 26.7694 8.10357 26.9569 8.29111C27.1445 8.47864 27.2498 8.733 27.2498 8.99821V14.3345C26.7164 14.0821 26.1277 13.9686 25.5387 14.0048C24.9496 14.0409 24.3793 14.2254 23.8806 14.5411C23.382 14.8568 22.9713 15.2934 22.6867 15.8105C22.4022 16.3275 22.2529 16.9081 22.2529 17.4982C22.2529 18.0884 22.4022 18.669 22.6867 19.186C22.9713 19.703 23.382 20.1396 23.8806 20.4553C24.3793 20.771 24.9496 20.9555 25.5387 20.9916C26.1277 21.0278 26.7164 20.9144 27.2498 20.662V25.9982C27.2498 26.2634 27.1445 26.5178 26.9569 26.7053C26.7694 26.8929 26.515 26.9982 26.2498 26.9982H8.24982Z" stroke="black" stroke-width="2" stroke-linecap="round" stroke-linejoin="round" class="id_anim_stroke-property0" data-duration="1" data-offset="0" style="stroke-dashoffset: 0px; stroke-dasharray: 0px, 99.5722px; animation: 1s linear 0s 1 normal forwards running id_anim_stroke-property0;"></path>
</g>
<defs>
<clipPath id="clip0_1452_3732">
<rect width="32" height="32" fill="white" transform="translate(0.25)"></rect>
</clipPath>
</defs>
<style>
        @keyframes id_anim_stroke-property0{
        
            0%{
                stroke-dashoffset: 0px; 
        stroke-dasharray: 0px, 99.57215881347656px;
            }
        
            50%{
                stroke-dashoffset: -49.78607940673828px; 
        stroke-dasharray: 49.78607940673828px, 49.78607940673828px;
            }
        
            100%{
                stroke-dashoffset: -99.57215881347656px; 
        stroke-dasharray: 99.57215881347656px, 0px;
            }
        
        }
        </style></svg>
