<?xml version="1.0" standalone="no"?>
<svg id="Sparkle" width="32" height="32" viewBox="0 0 32 32" fill="none" xmlns="http://www.w3.org/2000/svg" style="max-width: 100%; max-height: 100%;">
<g clip-path="url(#clip0_1218_4886)">
<path d="M10.5339 21.4659L3.64767 18.9284C3.45779 18.8583 3.29396 18.7317 3.17824 18.5657C3.06253 18.3996 3.00049 18.2021 3.00049 17.9997C3.00049 17.7973 3.06253 17.5997 3.17824 17.4337C3.29396 17.2676 3.45779 17.141 3.64767 17.0709L10.5339 14.5334L13.0714 7.64718C13.1415 7.4573 13.2681 7.29347 13.4342 7.17775C13.6002 7.06204 13.7978 7 14.0002 7C14.2026 7 14.4001 7.06204 14.5662 7.17775C14.7322 7.29347 14.8588 7.4573 14.9289 7.64718L17.4664 14.5334L24.3527 17.0709C24.5426 17.141 24.7064 17.2676 24.8221 17.4337C24.9378 17.5997 24.9999 17.7973 24.9999 17.9997C24.9999 18.2021 24.9378 18.3996 24.8221 18.5657C24.7064 18.7317 24.5426 18.8583 24.3527 18.9284L17.4664 21.4659L14.9289 28.3522C14.8588 28.5421 14.7322 28.7059 14.5662 28.8216C14.4001 28.9373 14.2026 28.9994 14.0002 28.9994C13.7978 28.9994 13.6002 28.9373 13.4342 28.8216C13.2681 28.7059 13.1415 28.5421 13.0714 28.3522L10.5339 21.4659Z" stroke="black" stroke-width="2" stroke-linecap="round" stroke-linejoin="round" stroke-dasharray="0,0,0,68.35139465332031"><animate attributeType="XML" attributeName="stroke-dasharray" repeatCount="1" dur="0.684931506849315s" values="0,0,0,68.35139465332031; 
          0,34.175697326660156,34.175697326660156,0; 
          68.35139465332031,0,0,0" keyTimes="0; 0.5; 1" fill="freeze"></animate></path>
<path d="M22 2V8" stroke="black" stroke-width="2" stroke-linecap="round" stroke-linejoin="round" stroke-dasharray="0,0,0,6"><animate attributeType="XML" attributeName="stroke-dasharray" repeatCount="1" dur="0.684931506849315s" values="0,0,0,6; 
          0,3,3,0; 
          6,0,0,0" keyTimes="0; 0.5; 1" fill="freeze"></animate></path>
<path d="M28 9V13" stroke="black" stroke-width="2" stroke-linecap="round" stroke-linejoin="round" stroke-dasharray="0,0,0,4"><animate attributeType="XML" attributeName="stroke-dasharray" repeatCount="1" dur="0.684931506849315s" values="0,0,0,4; 
          0,2,2,0; 
          4,0,0,0" keyTimes="0; 0.5; 1" fill="freeze"></animate></path>
<path d="M19 5H25" stroke="black" stroke-width="2" stroke-linecap="round" stroke-linejoin="round" stroke-dasharray="0,0,0,6"><animate attributeType="XML" attributeName="stroke-dasharray" repeatCount="1" dur="0.684931506849315s" values="0,0,0,6; 
          0,3,3,0; 
          6,0,0,0" keyTimes="0; 0.5; 1" fill="freeze"></animate></path>
<path d="M26 11H30" stroke="black" stroke-width="2" stroke-linecap="round" stroke-linejoin="round" stroke-dasharray="0,0,0,4"><animate attributeType="XML" attributeName="stroke-dasharray" repeatCount="1" dur="0.684931506849315s" values="0,0,0,4; 
          0,2,2,0; 
          4,0,0,0" keyTimes="0; 0.5; 1" fill="freeze"></animate></path>
</g>
<defs>
<clipPath id="clip0_1218_4886">
<rect width="32" height="32" fill="white" stroke-dasharray="0,0,0,128"><animate attributeType="XML" attributeName="stroke-dasharray" repeatCount="1" dur="0.684931506849315s" values="0,0,0,128; 
          0,64,64,0; 
          128,0,0,0" keyTimes="0; 0.5; 1" fill="freeze"></animate></rect>
</clipPath>
</defs>
</svg>