<svg width="404" height="341" viewBox="0 0 404 341" fill="none" xmlns="http://www.w3.org/2000/svg">
<path d="M0.617378 146.348C2.00738 140.898 3.35738 135.428 4.80738 129.988C5.55738 127.158 6.44738 124.368 7.35738 121.598C8.57738 117.878 11.4174 115.598 15.3574 115.758C19.6974 115.888 24.0274 116.468 28.3574 116.808C30.6755 117.134 33.0183 117.251 35.3574 117.158C37.0797 117.061 38.7186 116.385 40.0074 115.238C44.5674 110.158 48.8974 104.878 53.1574 99.5481C54.7574 97.5481 54.7974 95.0381 54.0774 92.6281C52.5674 87.5281 50.9074 82.4581 49.4274 77.3481C48.7967 75.3714 48.4598 73.3127 48.4274 71.2381C48.4266 70.4764 48.5764 69.722 48.8681 69.0184C49.1599 68.3148 49.5878 67.6758 50.1274 67.1381C57.6438 61.338 65.9907 56.7027 74.8874 53.3881C76.1971 52.8477 77.6488 52.7557 79.0163 53.1265C80.3837 53.4974 81.5901 54.3101 82.4474 55.4381C86.0874 59.6881 89.8774 63.7981 93.3874 68.1481C96.1774 71.6181 99.3874 73.1481 103.927 72.4581C109.577 71.5881 115.267 71.0381 120.927 70.3181C121.967 70.1773 122.957 69.7849 123.811 69.175C124.665 68.5651 125.357 67.7561 125.827 66.8181C127.617 63.6481 129.287 60.4081 131.037 57.2181C132.537 54.4881 134.037 51.7281 135.627 49.0681C137.357 46.2181 140.007 44.8881 143.267 45.7281C151.367 47.8281 159.457 49.9881 167.487 52.3681C170.877 53.3681 172.397 56.3181 172.337 59.6281C172.257 64.0281 171.617 68.4281 171.267 72.8281C171.097 74.8981 170.957 76.9781 170.957 79.0581C170.902 80.3945 171.162 81.7251 171.719 82.9416C172.275 84.158 173.11 85.2259 174.157 86.0581C178.617 89.6481 183.157 93.1681 187.457 96.9181C188.709 98.0644 190.25 98.8465 191.914 99.1797C193.578 99.5128 195.301 99.3843 196.897 98.8081C202.437 97.1381 207.897 95.3181 213.457 93.6581C217.827 92.3381 220.977 93.4581 223.257 97.3981C226.997 103.858 230.627 110.385 234.147 116.978C236.707 121.768 236.147 124.708 232.147 128.448C229.437 130.968 226.477 133.208 223.687 135.648C221.687 137.398 219.687 139.218 217.857 141.108C217.057 141.883 216.445 142.832 216.069 143.881C215.692 144.93 215.562 146.051 215.687 147.158C216.297 153.048 216.857 158.938 217.597 164.808C217.769 166.408 218.353 167.935 219.29 169.242C220.228 170.55 221.488 171.592 222.947 172.268C226.317 173.938 229.737 175.528 233.087 177.268C235.19 178.3 237.233 179.449 239.207 180.708C242.157 182.648 243.467 185.428 242.487 188.948C240.487 196.281 238.401 203.581 236.227 210.848C235.848 211.955 235.345 213.015 234.727 214.008C233.347 216.488 231.297 217.888 228.357 217.648C223.177 217.218 217.997 216.758 212.827 216.308C212.437 216.308 212.047 216.308 211.657 216.218C206.797 215.488 203.147 217.218 200.267 221.218C197.647 224.858 194.627 228.218 191.787 231.678C190.449 233.205 189.555 235.069 189.202 237.068C188.849 239.068 189.052 241.126 189.787 243.018C191.437 247.878 193.057 252.748 194.467 257.678C195.967 262.888 195.117 265.268 190.467 267.988C183.797 271.868 177.007 275.558 170.167 279.138C166.427 281.138 163.527 280.538 160.637 277.438C157.747 274.338 154.827 270.768 151.987 267.378C145.877 260.098 144.457 259.518 134.987 260.758C131.307 261.238 127.647 261.758 123.987 262.258C122.227 262.422 120.54 263.039 119.089 264.048C117.638 265.057 116.473 266.425 115.707 268.018C113.707 271.908 111.917 275.858 109.847 279.688C108.752 281.681 107.466 283.564 106.007 285.308C105.381 286.198 104.491 286.87 103.464 287.229C102.436 287.587 101.322 287.615 100.277 287.308C92.6074 285.128 84.9274 282.968 77.2774 280.738C76.2298 280.373 75.2241 279.897 74.2774 279.318C71.7774 277.948 70.3774 275.908 70.6074 272.968C71.0074 267.848 71.4774 262.738 71.8674 257.618C71.9774 256.061 72.0075 254.499 71.9574 252.938C71.9989 251.666 71.7398 250.401 71.2012 249.247C70.6626 248.094 69.8596 247.083 68.8574 246.298C64.4874 242.908 60.1774 239.448 55.8574 235.998C54.6278 234.967 53.1424 234.287 51.5583 234.03C49.9741 233.773 48.35 233.948 46.8574 234.538C41.9874 236.158 37.0774 237.638 32.1874 239.178C31.9974 239.238 31.8174 239.318 31.6274 239.368C25.2074 241.078 23.0174 240.368 19.7174 234.618C16.0474 228.198 12.6374 221.618 9.32738 215.008C7.32738 210.948 7.83738 208.518 11.3274 205.448C15.0574 202.118 18.8774 198.868 22.8574 195.828C26.9974 192.668 28.6674 188.738 27.8574 183.588C27.0474 178.438 26.5174 173.008 25.8574 167.718C25.7556 166.61 25.3785 165.544 24.7602 164.619C24.142 163.693 23.3023 162.937 22.3174 162.418C17.6674 159.938 12.9974 157.528 8.36738 155.028C5.36738 153.388 2.25738 151.748 0.807381 148.308L0.617378 146.348ZM171.897 162.598C169.677 134.498 145.457 114.048 117.107 116.168C93.8374 117.898 69.1074 140.398 71.4774 170.638C73.6774 198.098 98.0374 218.978 125.477 216.858C157.837 214.328 175.057 184.738 171.897 162.598Z" fill="#FFFDFA"/>
<path d="M101.807 288.228C101.218 288.223 100.632 288.135 100.067 287.968L93.7274 286.158C88.1674 284.591 82.614 283.005 77.0674 281.398C76.121 281.082 75.2122 280.663 74.3574 280.148L73.9374 279.918C71.0274 278.318 69.6674 275.918 69.9374 272.918C70.1174 270.638 70.304 268.358 70.4974 266.078C70.7374 263.238 70.9774 260.408 71.1874 257.578C71.2969 256.044 71.327 254.505 71.2774 252.968C71.3275 251.798 71.0967 250.632 70.6044 249.569C70.112 248.507 69.3724 247.577 68.4474 246.858C64.5674 243.858 60.6574 240.718 56.8874 237.698L55.4474 236.548C54.308 235.6 52.9346 234.975 51.4709 234.739C50.0071 234.503 48.507 234.665 47.1274 235.208C43.7274 236.338 40.2574 237.418 36.8974 238.468L32.4474 239.858L32.2474 239.928C32.1174 239.928 31.9974 240.018 31.8574 240.048C25.0374 241.868 22.5374 240.868 19.1674 234.978C15.1174 227.898 11.4774 220.758 8.74738 215.328C6.60738 211.048 7.17738 208.228 10.8674 204.948C15.2074 201.068 18.8674 197.998 22.4274 195.288C26.4274 192.288 27.9274 188.568 27.2074 183.698C26.7174 180.408 26.3074 177.048 25.9174 173.798C25.6674 171.798 25.4274 169.798 25.1674 167.798C25.0775 166.801 24.7394 165.842 24.1839 165.009C23.6285 164.176 22.8734 163.495 21.9874 163.028C20.0674 162.028 18.1474 161.028 16.2174 159.978C13.4874 158.538 10.7474 157.098 8.03738 155.628C4.87738 153.918 1.69738 152.198 0.167377 148.568C0.153635 148.499 0.153635 148.427 0.167377 148.358L0.00737746 146.408C-0.00245915 146.332 -0.00245915 146.254 0.00737746 146.178L1.22738 141.378C2.22738 137.518 3.22738 133.658 4.22738 129.808C5.00738 126.878 5.91738 124.028 6.78738 121.378C8.14738 117.228 11.2974 114.908 15.4774 115.058C18.3674 115.148 21.2774 115.428 24.0974 115.708C25.5674 115.858 27.0974 115.998 28.5174 116.118L30.2474 116.278C31.9508 116.505 33.6719 116.568 35.3874 116.468C36.9371 116.377 38.4151 115.784 39.5974 114.778C44.4574 109.348 48.9574 103.778 52.7174 99.1081C53.9974 97.4981 54.2674 95.3881 53.5174 92.8281C52.8374 90.5581 52.1374 88.2981 51.4374 86.0381C50.5674 83.2581 49.6774 80.3881 48.8574 77.5381C48.1763 75.5008 47.7957 73.3752 47.7274 71.2281C47.7311 70.3584 47.9101 69.4983 48.2538 68.6994C48.5974 67.9004 49.0986 67.179 49.7274 66.5781C58.5474 60.0281 66.4674 55.6281 74.7274 52.7281C76.171 52.1466 77.7651 52.0526 79.267 52.4606C80.7689 52.8686 82.0964 53.7561 83.0474 54.9881C84.3274 56.4881 85.6274 57.9881 86.9374 59.4481C89.2874 62.1281 91.7274 64.8881 93.9974 67.7181C96.7674 71.1481 99.8174 72.3981 103.887 71.7181C107.547 71.1581 111.287 70.7181 114.887 70.2981C116.887 70.0714 118.887 69.8314 120.887 69.5781C121.822 69.4502 122.71 69.0953 123.476 68.5444C124.241 67.9935 124.86 67.2635 125.277 66.4181C126.327 64.5581 127.337 62.6681 128.347 60.7781C129.057 59.4681 129.757 58.1481 130.477 56.8381L131.227 55.4781C132.457 53.2181 133.727 50.8881 135.087 48.6581C137.087 45.4081 140.037 44.1181 143.487 45.0081C153.237 47.5281 160.707 49.5681 167.727 51.6481C171.147 52.6481 173.157 55.6481 173.087 59.5881C173.027 62.5881 172.727 65.5081 172.427 68.3781C172.277 69.8681 172.127 71.3781 172.007 72.8381C171.847 74.8381 171.707 76.9081 171.697 79.0081C171.645 80.2476 171.89 81.4816 172.412 82.6071C172.934 83.7326 173.718 84.717 174.697 85.4781C175.697 86.3181 176.777 87.1581 177.827 87.9881C181.197 90.6881 184.687 93.4781 188.017 96.3581C189.176 97.4338 190.61 98.1669 192.16 98.4758C193.71 98.7848 195.315 98.6575 196.797 98.1081C199.497 97.2981 202.187 96.4481 204.867 95.5981C207.697 94.7081 210.517 93.8081 213.357 92.9581C218.077 91.5381 221.547 92.8581 223.957 97.0181C227.697 103.458 231.367 110.018 234.867 116.618C237.537 121.618 236.957 124.978 232.717 128.928C231.107 130.428 229.387 131.838 227.717 133.208C226.547 134.208 225.367 135.138 224.217 136.138C222.127 137.968 220.217 139.788 218.427 141.568C217.691 142.266 217.127 143.125 216.78 144.077C216.433 145.03 216.312 146.051 216.427 147.058L216.787 150.638C217.257 155.248 217.737 160.018 218.327 164.638C218.482 166.128 219.026 167.552 219.903 168.766C220.781 169.98 221.961 170.943 223.327 171.558C224.747 172.268 226.167 172.958 227.597 173.648C229.597 174.598 231.537 175.548 233.477 176.538C235.601 177.581 237.665 178.743 239.657 180.018C243.017 182.228 244.257 185.338 243.227 189.018C241.317 195.908 239.227 203.078 236.967 210.918C236.616 211.97 236.142 212.976 235.557 213.918L235.407 214.188C233.787 217.088 231.407 218.438 228.407 218.188C224.741 217.888 221.074 217.555 217.407 217.188L212.497 216.778C212.217 216.778 211.957 216.778 211.687 216.708C207.177 216.028 203.767 217.548 200.957 221.458C199.117 224.028 197.047 226.458 195.037 228.858C194.177 229.858 193.307 230.918 192.457 231.948C191.2 233.386 190.362 235.142 190.036 237.024C189.709 238.906 189.907 240.841 190.607 242.618C192.187 247.278 193.847 252.268 195.297 257.318C196.897 262.878 195.837 265.568 190.957 268.418C184.857 271.968 178.207 275.628 170.627 279.588C166.627 281.688 163.417 281.118 160.267 277.738C157.787 275.078 155.417 272.238 153.127 269.498L151.597 267.658C145.597 260.548 144.417 260.068 135.247 261.278C133.181 261.545 131.117 261.825 129.057 262.118C127.447 262.338 125.837 262.568 124.227 262.778C122.578 262.92 120.995 263.492 119.636 264.436C118.276 265.379 117.187 266.663 116.477 268.158C115.827 269.458 115.187 270.768 114.547 272.068C113.287 274.638 111.997 277.288 110.607 279.848C109.492 281.88 108.182 283.798 106.697 285.578C106.157 286.382 105.43 287.042 104.578 287.504C103.726 287.965 102.776 288.214 101.807 288.228ZM50.2874 233.228C52.4859 233.241 54.6098 234.027 56.2874 235.448L57.7274 236.598C61.4974 239.598 65.3974 242.738 69.2674 245.748C70.3535 246.594 71.2254 247.684 71.8126 248.93C72.3997 250.175 72.6857 251.542 72.6474 252.918C72.694 254.502 72.6607 256.087 72.5474 257.668C72.3374 260.508 72.0974 263.348 71.8574 266.178C71.6707 268.458 71.484 270.738 71.2974 273.018C71.0974 275.518 72.1774 277.378 74.5974 278.708L75.0274 278.938C75.7906 279.401 76.6021 279.78 77.4474 280.068C82.9874 281.681 88.5374 283.268 94.0974 284.828L100.457 286.638C101.369 286.914 102.344 286.894 103.243 286.579C104.142 286.264 104.917 285.672 105.457 284.888C106.886 283.179 108.148 281.337 109.227 279.388C110.587 276.848 111.887 274.208 113.137 271.658C113.777 270.348 114.417 269.038 115.077 267.728C115.894 266.034 117.134 264.58 118.677 263.506C120.221 262.432 122.015 261.775 123.887 261.598L128.697 260.938C130.767 260.648 132.837 260.358 134.907 260.088C144.567 258.828 146.217 259.468 152.507 266.968L154.037 268.798C156.317 271.528 158.677 274.358 161.127 276.988C163.817 279.868 166.417 280.338 169.827 278.548C177.377 274.598 184.007 270.958 190.097 267.408C194.427 264.888 195.217 262.848 193.797 257.898C192.377 252.948 190.707 247.898 189.127 243.268C188.358 241.266 188.146 239.092 188.514 236.979C188.882 234.866 189.816 232.892 191.217 231.268C192.067 230.268 192.937 229.188 193.817 228.158C195.817 225.808 197.817 223.368 199.667 220.848C202.777 216.518 206.667 214.778 211.727 215.528C211.957 215.528 212.177 215.528 212.407 215.578H212.857L217.367 215.978C221.037 216.298 224.717 216.618 228.367 216.918C230.847 217.118 232.717 216.058 234.067 213.638L234.217 213.368C234.749 212.501 235.185 211.579 235.517 210.618C237.807 202.788 239.847 195.618 241.767 188.728C242.627 185.648 241.617 183.128 238.767 181.258C236.832 180.014 234.829 178.879 232.767 177.858C230.827 176.858 228.867 175.928 226.917 174.978C225.477 174.288 224.047 173.598 222.627 172.888C221.064 172.162 219.714 171.043 218.71 169.642C217.706 168.24 217.082 166.602 216.897 164.888C216.307 160.198 215.817 155.418 215.357 150.798L214.987 147.218C214.852 146.009 214.995 144.786 215.404 143.64C215.813 142.495 216.477 141.458 217.347 140.608C219.127 138.808 221.097 136.958 223.217 135.108C224.367 134.108 225.557 133.108 226.747 132.108C228.387 130.758 230.087 129.358 231.667 127.888C235.477 124.348 235.937 121.758 233.527 117.258C230.037 110.708 226.377 104.128 222.657 97.6981C220.557 94.0881 217.787 93.0281 213.657 94.2681C210.827 95.1281 208.007 96.0181 205.187 96.9081C202.367 97.7981 199.807 98.6081 197.107 99.4281C195.399 100.044 193.556 100.183 191.775 99.8308C189.994 99.4785 188.342 98.6479 186.997 97.4281C183.697 94.5581 180.217 91.7781 176.857 89.0881L173.727 86.5981C172.599 85.697 171.698 84.5434 171.097 83.2302C170.496 81.9171 170.212 80.4812 170.267 79.0381C170.267 76.8881 170.417 74.7481 170.577 72.7481C170.697 71.2581 170.847 69.7481 171.007 68.2681C171.297 65.4281 171.597 62.4781 171.647 59.5981C171.707 56.2481 170.117 53.8481 167.297 53.0081C160.297 50.9381 152.827 48.8981 143.107 46.3881C139.507 45.4581 137.377 47.5181 136.237 49.3881C134.897 51.5981 133.627 53.9081 132.407 56.1481L131.657 57.5181C130.951 58.8514 130.244 60.1614 129.537 61.4481C128.537 63.3481 127.537 65.2481 126.447 67.1181C125.922 68.1498 125.154 69.0388 124.211 69.7093C123.267 70.3797 122.175 70.8116 121.027 70.9681C119.027 71.2281 117.027 71.4581 115.027 71.6881C111.427 72.1081 107.707 72.5481 104.027 73.1081C99.4674 73.8081 95.9174 72.3581 92.8474 68.5481C90.5874 65.7481 88.1674 62.9981 85.8474 60.3281C84.5374 58.8381 83.2374 57.3281 81.9474 55.8581C81.1885 54.8311 80.1062 54.0893 78.8746 53.7519C77.643 53.4145 76.3337 53.5013 75.1574 53.9981C67.0774 56.8581 59.2674 61.1981 50.5774 67.6581C49.6641 68.6149 49.1524 69.8854 49.1474 71.2081C49.1896 73.2132 49.5265 75.2011 50.1474 77.1081C50.9674 79.9481 51.8574 82.8081 52.7174 85.5781C53.4174 87.8481 54.1274 90.1181 54.7974 92.3881C55.6774 95.3881 55.3174 97.9781 53.7974 99.9381C50.0274 104.658 45.5174 110.218 40.6274 115.668C39.2243 116.947 37.423 117.703 35.5274 117.808C33.7193 117.934 31.9031 117.873 30.1074 117.628C29.5374 117.568 28.9774 117.508 28.4074 117.468C26.9274 117.348 25.4074 117.198 23.9574 117.058C21.1674 116.778 18.2774 116.498 15.4374 116.408C11.9274 116.268 9.25738 118.258 8.10738 121.768C7.24738 124.398 6.34738 127.228 5.57738 130.118C4.57738 133.968 3.57738 137.828 2.57738 141.688L1.38738 146.368L1.52738 148.068C2.82738 151.168 5.64738 152.698 8.64738 154.318C11.4374 155.828 14.1674 157.318 16.8974 158.708C18.8274 159.708 20.7574 160.708 22.6774 161.708C23.7633 162.273 24.6897 163.103 25.3712 164.12C26.0527 165.137 26.4675 166.309 26.5774 167.528C26.8474 169.528 27.0874 171.528 27.3274 173.528C27.7274 176.758 28.1274 180.108 28.6174 183.388C29.4174 188.728 27.6774 192.948 23.3074 196.288C19.7874 198.978 16.1374 202.018 11.8174 205.868C8.59738 208.748 8.16738 210.868 10.0274 214.598C12.7374 220.008 16.3774 227.128 20.4074 234.178C23.4874 239.558 25.2574 240.268 31.5274 238.588C31.6274 238.588 31.7174 238.528 31.8174 238.498L32.0574 238.418L36.5074 237.028C39.8674 236.028 43.3374 234.898 46.7174 233.778C47.8704 233.406 49.0757 233.22 50.2874 233.228ZM121.537 217.688C108.726 217.64 96.4002 212.782 86.9998 204.078C77.5994 195.374 71.8098 183.458 70.7774 170.688C70.2442 163.999 71.0484 157.271 73.1431 150.896C75.2377 144.521 78.5808 138.627 82.9774 133.558C91.8874 123.158 104.627 116.398 117.047 115.468C145.957 113.298 170.327 133.988 172.587 162.528C174.287 174.528 170.217 187.988 161.707 198.608C157.307 204.097 151.816 208.614 145.582 211.873C139.348 215.133 132.506 217.066 125.487 217.548C124.167 217.598 122.847 217.688 121.537 217.688ZM121.167 116.688C119.837 116.688 118.507 116.688 117.167 116.838C105.097 117.738 92.7174 124.318 84.0474 134.448C79.7629 139.381 76.5053 145.119 74.4654 151.326C72.4256 157.533 71.6443 164.085 72.1674 170.598C72.9903 180.522 76.7675 189.971 83.0118 197.728C89.256 205.484 97.6809 211.192 107.2 214.115C116.719 217.038 126.895 217.042 136.416 214.126C145.938 211.211 154.367 205.51 160.617 197.758C168.907 187.428 172.857 174.328 171.207 162.758C169.117 136.198 147.497 116.688 121.167 116.688Z" fill="#231F20"/>
<path d="M294.087 339.598C290.977 339.198 289.857 337.128 289.417 334.298C289.088 331.797 288.56 329.325 287.837 326.908C287.412 325.623 286.539 324.533 285.377 323.838C282.234 322.32 279.005 320.984 275.707 319.838C274.783 319.595 273.801 319.72 272.967 320.188C270.627 321.518 268.407 323.078 266.127 324.528C262.387 326.898 260.737 326.858 257.597 323.768C254.987 321.188 252.657 318.318 250.147 315.638C249.587 315.128 249.241 314.425 249.178 313.67C249.115 312.915 249.34 312.164 249.807 311.568C251.077 309.518 252.267 307.398 253.717 305.478C254.839 304.137 255.534 302.491 255.712 300.751C255.89 299.012 255.544 297.259 254.717 295.718C250.637 286.718 251.987 287.838 242.717 286.088C237.207 285.088 236.467 284.488 236.237 278.918C236.107 275.538 236.237 272.138 236.407 268.748C236.517 266.408 237.477 265.278 239.747 264.748C242.197 264.168 244.697 263.748 247.187 263.338C248.479 263.172 249.703 262.665 250.733 261.869C251.763 261.073 252.562 260.016 253.047 258.808C253.917 256.808 254.787 254.808 255.607 252.808C256.038 251.798 256.207 250.696 256.098 249.604C255.99 248.511 255.608 247.464 254.987 246.558C253.317 243.878 251.767 241.128 250.127 238.438C249.668 237.826 249.46 237.062 249.545 236.302C249.631 235.542 250.004 234.843 250.587 234.348C253.947 231.048 257.327 227.768 260.847 224.648C261.27 224.395 261.744 224.242 262.235 224.2C262.725 224.159 263.219 224.23 263.677 224.408C265.276 225.18 266.808 226.083 268.257 227.108C269.517 227.908 270.727 228.798 271.977 229.598C272.848 230.188 273.849 230.559 274.894 230.677C275.939 230.796 276.997 230.659 277.977 230.278C280.767 229.278 283.497 228.048 286.217 226.828C287.055 226.439 287.777 225.839 288.313 225.087C288.85 224.335 289.182 223.457 289.277 222.538C289.827 219.608 290.587 216.728 291.277 213.818C291.382 213.183 291.715 212.607 292.214 212.2C292.713 211.793 293.344 211.583 293.987 211.608C298.627 211.518 303.277 211.498 307.917 211.458C309.917 211.458 310.917 212.628 311.337 214.458C311.937 217.148 312.617 219.818 313.067 222.538C313.169 223.681 313.591 224.773 314.287 225.686C314.982 226.599 315.922 227.297 316.997 227.698C319.827 228.828 322.567 230.148 325.427 231.178C326.335 231.445 327.31 231.348 328.147 230.908C330.887 229.348 333.487 227.538 336.147 225.908C339.377 223.998 339.887 223.988 342.667 226.498C345.272 228.843 347.752 231.323 350.097 233.928C352.297 236.378 352.347 238.138 350.617 240.988C349.047 243.588 347.367 246.128 345.697 248.678C345.342 249.168 345.123 249.744 345.062 250.346C345 250.948 345.099 251.556 345.347 252.108C346.687 255.208 347.897 258.378 349.407 261.398C350.013 262.403 350.967 263.15 352.087 263.498C354.437 264.208 356.897 264.568 359.317 265.048C363.657 265.908 365.017 267.398 365.157 271.788C365.247 274.888 365.227 277.998 365.157 281.098C365.047 284.518 363.917 285.778 360.527 286.498C358.217 286.988 355.897 287.388 353.577 287.798C352.426 287.943 351.333 288.389 350.41 289.091C349.486 289.794 348.764 290.727 348.317 291.798C347.087 294.688 345.857 297.608 344.847 300.578C344.609 301.556 344.748 302.588 345.237 303.468C346.707 306.058 348.477 308.468 349.987 311.068C351.797 314.168 351.777 314.938 349.347 317.628C346.962 320.267 344.442 322.78 341.797 325.158C339.217 327.468 338.467 327.468 335.517 325.718C333.297 324.408 331.117 322.988 329.017 321.498C328.069 320.748 326.927 320.284 325.724 320.16C324.522 320.036 323.309 320.257 322.227 320.798C320.227 321.728 318.127 322.598 316.097 323.538C315.017 324.024 314.078 324.777 313.368 325.724C312.658 326.672 312.2 327.785 312.037 328.958C311.777 330.428 311.567 331.958 311.297 333.378C310.727 336.558 310.167 339.758 305.827 339.628L294.087 339.598ZM301.347 301.298C305.387 301.678 309.447 300.831 312.997 298.868C326.647 290.928 330.687 275.248 324.107 262.948C322.17 259.192 319.362 255.955 315.918 253.506C312.473 251.057 308.493 249.468 304.309 248.872C300.125 248.276 295.86 248.69 291.868 250.079C287.877 251.468 284.277 253.793 281.367 256.858C274.937 263.558 273.627 271.608 274.637 280.348C274.798 282.175 275.278 283.958 276.057 285.618C281.187 295.598 288.727 301.928 301.347 301.248V301.298Z" fill="#FFFDFA"/>
<path d="M306.057 340.248H293.997C289.997 339.728 289.087 336.638 288.727 334.358C288.404 331.89 287.883 329.452 287.167 327.068C286.798 325.964 286.056 325.023 285.067 324.408C281.943 322.899 278.739 321.564 275.467 320.408C274.734 320.244 273.965 320.355 273.307 320.718C271.747 321.608 270.207 322.618 268.717 323.598C267.977 324.078 267.247 324.598 266.497 325.028C262.427 327.618 260.407 327.438 257.107 324.188C255.517 322.608 254.007 320.908 252.547 319.268C251.547 318.178 250.627 317.098 249.637 316.038C248.974 315.414 248.564 314.566 248.487 313.658C248.409 312.751 248.669 311.846 249.217 311.118L250.137 309.618C251.059 308.025 252.06 306.48 253.137 304.988C254.188 303.749 254.841 302.221 255.011 300.605C255.18 298.988 254.859 297.359 254.087 295.928C253.707 295.088 253.367 294.348 253.087 293.668C250.627 288.138 250.627 288.138 244.927 287.118L242.637 286.698C236.967 285.628 235.837 284.888 235.637 278.868C235.497 275.438 235.637 271.938 235.797 268.638C235.73 267.514 236.094 266.406 236.815 265.54C237.536 264.675 238.559 264.116 239.677 263.978C241.857 263.458 244.107 263.078 246.277 262.708L247.167 262.558C248.344 262.412 249.459 261.953 250.397 261.228C251.334 260.503 252.06 259.54 252.497 258.438L252.837 257.678C253.587 255.938 254.337 254.198 255.047 252.438C255.436 251.53 255.588 250.539 255.491 249.556C255.393 248.573 255.048 247.631 254.487 246.818C253.487 245.288 252.617 243.728 251.697 242.178C251.007 241.008 250.327 239.848 249.617 238.688C249.085 237.938 248.849 237.018 248.955 236.104C249.06 235.19 249.499 234.348 250.187 233.738C253.247 230.738 256.827 227.258 260.477 224.018C260.998 223.677 261.593 223.466 262.213 223.402C262.832 223.337 263.457 223.422 264.037 223.648C265.332 224.242 266.57 224.951 267.737 225.768L268.737 226.408C269.377 226.818 270.007 227.248 270.627 227.678C271.247 228.108 271.837 228.508 272.457 228.898C273.217 229.426 274.091 229.764 275.008 229.886C275.924 230.008 276.857 229.909 277.727 229.598C280.357 228.598 282.907 227.518 285.937 226.168C286.67 225.82 287.3 225.288 287.766 224.623C288.233 223.959 288.519 223.186 288.597 222.378C288.987 220.308 289.487 218.238 289.967 216.228C290.167 215.368 290.377 214.498 290.577 213.628C290.717 212.841 291.135 212.131 291.756 211.627C292.377 211.124 293.159 210.861 293.957 210.888C297.427 210.808 300.897 210.788 304.367 210.758H307.897C309.367 210.698 311.337 211.348 311.997 214.288C312.147 214.968 312.307 215.648 312.467 216.338C312.917 218.338 313.397 220.338 313.737 222.398C313.82 223.424 314.193 224.405 314.813 225.227C315.433 226.049 316.274 226.677 317.237 227.038C318.397 227.498 319.547 227.988 320.687 228.488C322.307 229.178 323.977 229.898 325.637 230.488C326.353 230.682 327.116 230.603 327.777 230.268C329.287 229.408 330.777 228.458 332.227 227.538C333.417 226.768 334.607 226.008 335.827 225.288C339.367 223.198 340.187 223.288 343.167 225.958C345.787 228.326 348.283 230.826 350.647 233.448C353.017 236.088 353.177 238.148 351.247 241.328C349.857 243.628 348.357 245.908 346.917 248.118L346.317 249.038C346.021 249.429 345.837 249.894 345.784 250.382C345.731 250.869 345.812 251.362 346.017 251.808C346.417 252.738 346.807 253.668 347.197 254.608C348.087 256.748 349.017 258.968 350.067 261.068C350.584 261.9 351.383 262.518 352.317 262.808C354.068 263.3 355.844 263.698 357.637 263.998L359.487 264.348C364.187 265.268 365.737 267.068 365.877 271.748C365.967 274.748 365.957 277.868 365.877 281.108C365.747 284.838 364.437 286.368 360.687 287.108C358.637 287.548 356.547 287.918 354.517 288.278L353.727 288.418C352.69 288.533 351.702 288.923 350.866 289.55C350.031 290.176 349.379 291.014 348.977 291.978C347.667 295.068 346.497 297.848 345.527 300.718C345.354 301.504 345.475 302.326 345.867 303.028C346.627 304.378 347.497 305.718 348.337 307.028C349.177 308.338 349.887 309.408 350.607 310.638C352.607 314.048 352.487 315.148 349.887 318.018C347.485 320.679 344.945 323.213 342.277 325.608C339.507 328.088 338.447 328.188 335.177 326.248C332.967 324.938 330.767 323.508 328.637 321.998C327.79 321.315 326.764 320.892 325.682 320.778C324.6 320.665 323.508 320.866 322.537 321.358L319.637 322.598C318.547 323.068 317.467 323.548 316.387 324.048C315.401 324.486 314.546 325.173 313.904 326.04C313.263 326.908 312.857 327.927 312.727 328.998C312.587 329.728 312.477 330.468 312.357 331.198C312.237 331.928 312.117 332.678 311.987 333.418C311.437 336.478 310.727 340.248 306.057 340.248ZM294.137 338.858H305.817C309.387 338.988 309.967 336.768 310.617 333.198C310.744 332.451 310.864 331.711 310.977 330.978C311.097 330.238 311.217 329.498 311.347 328.758C311.525 327.471 312.028 326.25 312.808 325.21C313.588 324.171 314.621 323.348 315.807 322.818C316.887 322.318 317.977 321.818 319.077 321.358L321.937 320.088C323.127 319.49 324.463 319.244 325.788 319.379C327.113 319.513 328.372 320.023 329.417 320.848C331.517 322.338 333.687 323.748 335.867 325.038C338.607 326.658 339.017 326.628 341.327 324.558C343.961 322.199 346.468 319.702 348.837 317.078C351.027 314.648 351.067 314.218 349.377 311.338C348.677 310.128 347.897 308.938 347.147 307.778C346.297 306.468 345.417 305.118 344.637 303.728C344.046 302.68 343.884 301.443 344.187 300.278C345.187 297.368 346.357 294.558 347.677 291.438C348.17 290.264 348.964 289.24 349.979 288.471C350.993 287.702 352.194 287.214 353.457 287.058L354.257 286.908C356.257 286.558 358.347 286.188 360.377 285.758C363.477 285.108 364.377 284.088 364.467 281.018C364.557 277.948 364.587 274.688 364.467 271.748C364.347 267.748 363.257 266.478 359.197 265.668L357.367 265.328C355.523 265.024 353.697 264.617 351.897 264.108C350.589 263.712 349.481 262.832 348.797 261.648C347.727 259.508 346.797 257.268 345.887 255.098C345.497 254.178 345.117 253.248 344.717 252.318C344.424 251.661 344.307 250.939 344.379 250.223C344.451 249.508 344.709 248.823 345.127 248.238L345.727 247.318C347.167 245.118 348.657 242.848 350.037 240.568C351.647 237.908 351.547 236.518 349.587 234.338C347.26 231.752 344.8 229.289 342.217 226.958C339.687 224.678 339.527 224.668 336.517 226.448C335.317 227.168 334.137 227.918 332.957 228.668C331.497 229.598 329.957 230.568 328.447 231.438C327.432 231.973 326.247 232.088 325.147 231.758C323.437 231.138 321.747 230.408 320.147 229.708C319.017 229.218 317.877 228.708 316.727 228.268C315.538 227.825 314.497 227.055 313.726 226.047C312.954 225.038 312.484 223.832 312.367 222.568C312.037 220.568 311.567 218.568 311.117 216.568C310.957 215.878 310.797 215.198 310.647 214.508C310.267 212.818 309.437 212.068 307.957 212.068H304.427C300.967 212.068 297.497 212.118 294.037 212.188C293.559 212.182 293.095 212.346 292.728 212.653C292.361 212.959 292.116 213.387 292.037 213.858C291.837 214.728 291.627 215.598 291.417 216.458C290.937 218.458 290.417 220.518 290.067 222.548C289.955 223.579 289.577 224.563 288.97 225.404C288.364 226.246 287.55 226.915 286.607 227.348C283.557 228.708 280.977 229.828 278.317 230.818C277.242 231.23 276.084 231.376 274.941 231.246C273.797 231.115 272.702 230.711 271.747 230.068C271.117 229.668 270.497 229.248 269.887 228.818C269.277 228.388 268.657 227.978 268.027 227.578C267.687 227.368 267.357 227.148 267.027 226.928C265.932 226.155 264.767 225.486 263.547 224.928C263.207 224.805 262.846 224.753 262.485 224.773C262.124 224.794 261.771 224.888 261.447 225.048C257.827 228.268 254.267 231.728 251.217 234.728C250.754 235.115 250.457 235.666 250.39 236.266C250.323 236.866 250.49 237.469 250.857 237.948C251.567 239.118 252.257 240.288 252.947 241.458C253.857 242.998 254.777 244.548 255.717 246.068C256.392 247.069 256.807 248.221 256.926 249.422C257.045 250.623 256.863 251.835 256.397 252.948C255.677 254.718 254.917 256.468 254.167 258.218L253.827 258.988C253.296 260.301 252.425 261.449 251.304 262.316C250.183 263.182 248.852 263.735 247.447 263.918L246.557 264.078C244.407 264.438 242.187 264.818 240.047 265.328C238.047 265.788 237.337 266.678 237.247 268.698C237.077 272.098 236.937 275.428 237.077 278.798C237.287 284.068 237.857 284.348 242.987 285.318L245.267 285.728C251.567 286.868 251.737 286.998 254.457 293.098C254.747 293.768 255.087 294.508 255.457 295.338C256.332 296.996 256.694 298.876 256.498 300.74C256.303 302.604 255.557 304.368 254.357 305.808C253.296 307.262 252.311 308.771 251.407 310.328C251.097 310.838 250.797 311.328 250.477 311.848C250.094 312.315 249.906 312.911 249.953 313.513C250 314.115 250.277 314.676 250.727 315.078C251.727 316.138 252.727 317.238 253.677 318.328C255.117 319.958 256.607 321.638 258.167 323.178C261.007 325.978 262.297 326.088 265.837 323.848L268.027 322.418C269.537 321.418 271.097 320.418 272.707 319.498C273.714 318.932 274.903 318.785 276.017 319.088C279.341 320.235 282.596 321.571 285.767 323.088C287.098 323.861 288.097 325.096 288.577 326.558C289.314 329.011 289.852 331.519 290.187 334.058C290.577 337.168 291.727 338.528 294.137 338.858ZM303.137 302.008C302.567 302.008 301.987 302.008 301.387 301.948C289.657 302.558 281.387 297.458 275.477 285.888C274.65 284.154 274.145 282.283 273.987 280.368C272.807 270.118 274.987 262.478 280.907 256.368C283.859 253.236 287.516 250.855 291.574 249.424C295.633 247.992 299.974 247.551 304.237 248.138C308.558 248.742 312.671 250.369 316.235 252.884C319.799 255.399 322.711 258.73 324.727 262.598C331.727 275.728 326.877 291.598 313.357 299.448C310.231 301.212 306.686 302.096 303.097 302.008H303.137ZM301.347 300.598H301.397C305.298 300.979 309.222 300.163 312.647 298.258C325.497 290.778 330.167 275.738 323.487 263.258C321.573 259.579 318.805 256.41 315.417 254.018C312.028 251.626 308.116 250.08 304.007 249.508C299.961 248.951 295.84 249.37 291.988 250.73C288.136 252.09 284.666 254.353 281.867 257.328C276.277 263.158 274.197 270.438 275.327 280.248C275.478 281.982 275.935 283.674 276.677 285.248C282.337 296.248 290.167 301.158 301.307 300.558L301.347 300.598Z" fill="#231F20"/>
<path d="M179.097 316.058C179.201 315.691 179.341 315.336 179.517 314.998C179.909 314.402 180.351 313.84 180.837 313.318C183.137 310.918 183.627 308.318 181.967 305.398C181.271 304.457 180.364 303.693 179.317 303.168C178.268 302.617 177.186 302.129 176.077 301.708C175.734 301.59 175.444 301.352 175.261 301.038C175.077 300.725 175.012 300.356 175.077 299.998C175.377 297.918 175.637 295.838 176.077 293.778C176.179 293.519 176.338 293.286 176.542 293.098C176.747 292.909 176.991 292.769 177.257 292.688C178.187 292.489 179.137 292.395 180.087 292.408C181.078 292.403 182.051 292.14 182.91 291.646C183.769 291.151 184.485 290.442 184.987 289.588C186.527 287.338 186.987 285.428 185.457 282.848C183.637 279.738 183.927 279.438 186.817 277.178C187.817 276.368 188.957 275.658 189.997 274.878C190.115 274.771 190.252 274.688 190.402 274.634C190.551 274.58 190.71 274.556 190.869 274.564C191.028 274.571 191.184 274.61 191.327 274.678C191.471 274.745 191.6 274.841 191.707 274.958C192.817 275.958 193.967 276.838 195.087 277.788C195.502 278.163 196.001 278.434 196.543 278.577C197.084 278.719 197.651 278.73 198.197 278.608C198.967 278.448 199.737 278.238 200.517 278.078C201.459 277.915 202.33 277.473 203.018 276.81C203.706 276.147 204.18 275.293 204.377 274.358C205.687 269.718 206.547 270.418 209.847 270.968C210.977 271.158 212.097 271.458 213.227 271.678C213.624 271.708 213.995 271.884 214.269 272.172C214.542 272.461 214.699 272.841 214.707 273.238C214.837 274.748 215.077 276.238 215.167 277.738C215.162 278.145 215.267 278.546 215.471 278.898C215.675 279.251 215.971 279.541 216.327 279.738C221.067 282.738 220.597 282.738 225.387 280.488C227.127 279.668 227.687 279.778 228.917 281.218C230.147 282.658 230.987 283.938 232.007 285.298C232.291 285.609 232.443 286.017 232.434 286.438C232.425 286.859 232.254 287.26 231.957 287.558C230.827 288.928 229.677 290.308 228.617 291.738C228.332 292.161 228.208 292.672 228.267 293.178C228.517 294.468 228.907 295.718 229.267 296.978C229.404 297.596 229.705 298.165 230.138 298.626C230.571 299.087 231.12 299.423 231.727 299.598C232.942 299.957 234.112 300.45 235.217 301.068C235.501 301.259 235.738 301.51 235.911 301.804C236.084 302.099 236.189 302.428 236.217 302.768C236.127 304.698 235.857 306.638 235.577 308.558C235.529 309.084 235.275 309.569 234.87 309.908C234.466 310.247 233.943 310.413 233.417 310.368C233.141 310.383 232.864 310.383 232.587 310.368C229.047 310.098 226.867 311.928 225.377 314.948C225.074 315.483 224.898 316.081 224.864 316.695C224.829 317.309 224.936 317.922 225.177 318.488C225.637 319.538 226.087 320.598 226.557 321.648C226.841 322.11 226.93 322.666 226.807 323.194C226.683 323.722 226.356 324.179 225.897 324.468C224.431 325.548 222.974 326.645 221.527 327.758C221.365 327.905 221.175 328.018 220.968 328.091C220.761 328.163 220.542 328.194 220.323 328.181C220.104 328.168 219.89 328.111 219.694 328.015C219.497 327.918 219.321 327.783 219.177 327.618C218.177 326.748 217.177 325.928 216.177 325.038C215.802 324.65 215.335 324.365 214.818 324.209C214.302 324.053 213.754 324.032 213.227 324.148C211.941 324.388 210.675 324.722 209.437 325.148C208.762 325.459 208.207 325.982 207.857 326.638C207.376 327.64 207.001 328.689 206.737 329.768C206.645 330.444 206.292 331.058 205.754 331.478C205.217 331.898 204.536 332.092 203.857 332.018C201.927 331.808 200.027 331.388 198.107 331.068C197.71 331.012 197.347 330.812 197.087 330.506C196.827 330.2 196.689 329.809 196.697 329.408C196.607 328.498 196.567 327.588 196.497 326.668C196.487 326.114 196.43 325.562 196.327 325.018C195.607 322.188 190.657 319.928 188.057 321.208C187.057 321.698 186.107 322.288 185.057 322.698C184.841 322.776 184.611 322.807 184.382 322.789C184.153 322.772 183.93 322.707 183.727 322.598C181.773 321.017 180.24 318.976 179.267 316.658C179.194 316.463 179.137 316.262 179.097 316.058ZM206.017 313.918C209.291 313.882 212.42 312.562 214.731 310.243C217.042 307.925 218.351 304.792 218.377 301.518C218.395 299.843 218.08 298.181 217.453 296.628C216.826 295.075 215.898 293.661 214.722 292.468C213.547 291.275 212.147 290.326 210.603 289.675C209.059 289.025 207.402 288.686 205.727 288.678C202.358 288.759 199.156 290.157 196.806 292.573C194.456 294.988 193.146 298.228 193.157 301.598C193.185 303.254 193.54 304.888 194.202 306.406C194.865 307.924 195.822 309.295 197.018 310.44C198.213 311.586 199.625 312.483 201.169 313.08C202.714 313.677 204.362 313.962 206.017 313.918Z" fill="#D1D3D4"/>
<path d="M204.247 332.748H203.837C202.467 332.598 201.097 332.338 199.767 332.098L198.057 331.788C197.504 331.711 196.997 331.437 196.63 331.016C196.263 330.596 196.059 330.057 196.057 329.498C196.007 328.958 195.967 328.408 195.937 327.868L195.827 326.298C195.82 325.935 195.78 325.574 195.707 325.218C195.068 323.904 193.994 322.852 192.666 322.242C191.339 321.631 189.841 321.499 188.427 321.868C188.077 322.038 187.737 322.218 187.427 322.408C186.779 322.777 186.112 323.111 185.427 323.408C185.086 323.546 184.716 323.601 184.349 323.568C183.983 323.535 183.629 323.415 183.317 323.218C181.275 321.566 179.672 319.437 178.647 317.018C178.58 316.85 178.529 316.676 178.497 316.498L178.447 316.278C178.402 316.142 178.402 315.995 178.447 315.858L178.537 315.578C178.627 315.254 178.762 314.945 178.937 314.658C179.352 314.031 179.817 313.439 180.327 312.888C182.497 310.628 182.827 308.378 181.327 305.798C180.701 304.975 179.894 304.308 178.967 303.848C178.293 303.457 177.587 303.122 176.857 302.848L175.757 302.388C175.274 302.207 174.869 301.864 174.612 301.417C174.355 300.969 174.261 300.447 174.347 299.938L174.507 298.818C174.737 297.128 174.977 295.388 175.317 293.678C175.446 293.29 175.668 292.939 175.962 292.655C176.256 292.371 176.615 292.163 177.007 292.048C177.993 291.837 178.999 291.737 180.007 291.748C180.889 291.748 181.754 291.515 182.516 291.072C183.279 290.63 183.91 289.993 184.347 289.228C185.917 286.938 186.037 285.368 184.787 283.228C182.787 279.808 183.187 279.098 186.327 276.658C186.927 276.188 187.537 275.748 188.157 275.318C188.617 274.998 189.077 274.678 189.527 274.318C189.89 274.006 190.357 273.844 190.834 273.865C191.312 273.885 191.763 274.087 192.097 274.428C192.717 274.958 193.337 275.478 193.967 275.988L195.477 277.248C195.812 277.555 196.216 277.776 196.655 277.893C197.094 278.01 197.554 278.018 197.997 277.918C198.397 277.838 198.787 277.748 199.187 277.648C199.587 277.548 199.937 277.468 200.307 277.398C201.126 277.261 201.883 276.879 202.479 276.302C203.075 275.725 203.483 274.981 203.647 274.168C204.897 269.748 205.977 269.548 209.007 270.118L209.897 270.278C210.567 270.388 211.227 270.538 211.897 270.688C212.367 270.788 212.837 270.898 213.307 270.988C213.855 271.045 214.364 271.298 214.741 271.701C215.117 272.103 215.336 272.628 215.357 273.178C215.407 273.808 215.487 274.438 215.557 275.068C215.657 275.938 215.757 276.818 215.817 277.698C215.802 277.995 215.872 278.291 216.019 278.549C216.166 278.808 216.384 279.019 216.647 279.158L217.457 279.668C220.887 281.838 220.887 281.848 224.557 280.098L225.037 279.868C227.037 278.868 227.967 279.088 229.397 280.778C230.187 281.708 230.917 282.708 231.617 283.668L232.517 284.888C232.896 285.324 233.098 285.885 233.085 286.462C233.072 287.039 232.845 287.59 232.447 288.008L232.287 288.208C231.227 289.498 230.127 290.818 229.127 292.208C228.955 292.471 228.877 292.785 228.907 293.098C229.087 294.028 229.357 294.978 229.607 295.898L229.877 296.848C230.001 297.356 230.261 297.82 230.629 298.19C230.998 298.56 231.46 298.822 231.967 298.948C233.23 299.323 234.447 299.836 235.597 300.478C235.985 300.737 236.307 301.082 236.537 301.486C236.768 301.891 236.902 302.343 236.927 302.808C236.837 304.718 236.577 306.588 236.277 308.668C236.211 309.359 235.879 309.997 235.351 310.446C234.822 310.896 234.14 311.123 233.447 311.078H233.167C232.961 311.093 232.754 311.093 232.547 311.078C229.547 310.848 227.547 312.188 226.017 315.268C225.756 315.71 225.603 316.208 225.571 316.721C225.54 317.234 225.631 317.747 225.837 318.218L226.217 319.118C226.547 319.868 226.867 320.628 227.217 321.368C227.57 321.978 227.675 322.699 227.511 323.384C227.347 324.068 226.927 324.664 226.337 325.048C224.864 326.115 223.407 327.205 221.967 328.318C221.513 328.716 220.921 328.921 220.318 328.889C219.715 328.857 219.148 328.591 218.737 328.148L217.517 327.098C216.917 326.598 216.327 326.098 215.757 325.558C215.466 325.249 215.098 325.02 214.691 324.896C214.285 324.771 213.852 324.755 213.437 324.848L212.827 324.978C211.783 325.174 210.756 325.455 209.757 325.818C209.236 326.063 208.808 326.47 208.537 326.978C208.077 327.937 207.722 328.943 207.477 329.978C207.341 330.742 206.945 331.435 206.357 331.94C205.768 332.444 205.023 332.73 204.247 332.748ZM189.887 320.148C191.052 320.172 192.197 320.444 193.247 320.948C194.128 321.287 194.925 321.812 195.584 322.486C196.243 323.161 196.749 323.97 197.067 324.858C197.164 325.299 197.217 325.747 197.227 326.198L197.337 327.758C197.337 328.288 197.397 328.818 197.447 329.358C197.517 330.098 197.837 330.308 198.287 330.358L200.017 330.668C201.327 330.908 202.667 331.158 204.017 331.298C204.518 331.331 205.013 331.175 205.404 330.86C205.795 330.545 206.053 330.095 206.127 329.598C206.4 328.473 206.792 327.38 207.297 326.338C207.724 325.533 208.406 324.892 209.237 324.518C210.312 324.131 211.415 323.83 212.537 323.618L213.127 323.488C213.764 323.345 214.427 323.367 215.053 323.551C215.679 323.734 216.249 324.074 216.707 324.538C217.267 325.058 217.837 325.538 218.417 326.038C218.837 326.398 219.257 326.748 219.667 327.118C219.754 327.223 219.861 327.31 219.982 327.372C220.103 327.434 220.235 327.471 220.371 327.48C220.507 327.49 220.643 327.471 220.771 327.426C220.9 327.381 221.017 327.31 221.117 327.218C222.567 326.108 224.027 324.998 225.507 323.918C225.675 323.823 225.821 323.693 225.936 323.537C226.05 323.382 226.13 323.203 226.171 323.014C226.211 322.826 226.212 322.63 226.171 322.441C226.131 322.252 226.051 322.074 225.937 321.918C225.597 321.158 225.277 320.398 224.937 319.638L224.547 318.748C224.265 318.089 224.138 317.374 224.176 316.658C224.215 315.941 224.417 315.244 224.767 314.618C226.547 311.008 229.147 309.398 232.647 309.618C232.781 309.628 232.914 309.628 233.047 309.618H233.417C233.594 309.642 233.775 309.629 233.946 309.58C234.118 309.531 234.278 309.447 234.416 309.333C234.554 309.22 234.667 309.079 234.748 308.92C234.829 308.761 234.877 308.586 234.887 308.408C235.198 306.514 235.412 304.604 235.527 302.688C235.457 302.263 235.229 301.881 234.887 301.618C233.825 301.031 232.702 300.562 231.537 300.218C230.809 300.024 230.146 299.638 229.618 299.1C229.09 298.561 228.717 297.89 228.537 297.158L228.277 296.218C228.007 295.268 227.727 294.298 227.537 293.308C227.433 292.604 227.605 291.888 228.017 291.308C229.017 289.928 230.147 288.588 231.217 287.308L231.377 287.108C231.558 286.922 231.658 286.672 231.658 286.413C231.658 286.154 231.558 285.905 231.377 285.718C231.067 285.308 230.767 284.898 230.467 284.478C229.777 283.538 229.067 282.568 228.307 281.678C227.307 280.478 227.077 280.428 225.617 281.128L225.137 281.348C220.897 283.348 220.657 283.348 216.687 280.848L215.887 280.338C215.439 280.077 215.066 279.704 214.804 279.255C214.543 278.806 214.403 278.297 214.397 277.778C214.347 276.918 214.247 276.068 214.147 275.218C214.067 274.551 213.997 273.911 213.937 273.298C213.887 272.718 213.657 272.478 213.017 272.358L211.567 272.038C210.927 271.898 210.297 271.758 209.657 271.648L208.737 271.478C206.307 271.038 205.987 270.968 204.987 274.538C204.753 275.598 204.21 276.564 203.427 277.315C202.644 278.066 201.656 278.568 200.587 278.758L199.497 278.998C199.087 279.098 198.677 279.198 198.267 279.278C197.616 279.422 196.939 279.406 196.295 279.232C195.65 279.058 195.058 278.731 194.567 278.278L193.067 277.028C192.427 276.508 191.797 276.028 191.177 275.448C190.817 275.138 190.657 275.158 190.347 275.398C190.037 275.638 189.427 276.068 188.957 276.398C188.487 276.728 187.757 277.238 187.177 277.688C184.447 279.818 184.447 279.818 185.987 282.458C187.867 285.668 186.857 287.948 185.497 289.938C184.934 290.888 184.134 291.676 183.175 292.224C182.216 292.773 181.132 293.064 180.027 293.068C179.13 293.053 178.235 293.14 177.357 293.328C177.08 293.433 176.845 293.627 176.687 293.878C176.357 295.538 176.117 297.258 175.887 298.928L175.727 300.098C175.7 300.203 175.694 300.311 175.709 300.418C175.724 300.525 175.76 300.628 175.815 300.721C175.87 300.813 175.942 300.895 176.029 300.959C176.115 301.024 176.213 301.071 176.317 301.098C176.667 301.258 177.017 301.398 177.377 301.538C178.19 301.824 178.976 302.178 179.727 302.598C180.878 303.169 181.868 304.018 182.607 305.068C184.377 308.188 183.967 311.128 181.377 313.828C180.923 314.319 180.511 314.847 180.147 315.408C180.041 315.586 179.96 315.778 179.907 315.978C179.907 316.028 179.907 316.068 179.907 316.118V316.168C179.924 316.26 179.947 316.35 179.977 316.438C180.909 318.647 182.372 320.592 184.237 322.098C184.468 322.172 184.717 322.172 184.947 322.098C185.584 321.829 186.205 321.526 186.807 321.188L187.877 320.628C188.504 320.323 189.19 320.16 189.887 320.148ZM206.057 314.598C202.525 314.649 199.117 313.293 196.583 310.831C194.049 308.369 192.598 305.001 192.547 301.468C192.497 297.935 193.852 294.527 196.314 291.994C198.777 289.46 202.145 288.008 205.677 287.958H205.727C209.288 287.998 212.688 289.445 215.184 291.984C217.68 294.524 219.069 297.948 219.047 301.508C219.032 304.958 217.661 308.263 215.232 310.712C212.802 313.16 209.507 314.556 206.057 314.598ZM205.637 289.358C204.072 289.383 202.527 289.716 201.09 290.338C199.654 290.96 198.354 291.859 197.264 292.984C196.175 294.108 195.318 295.436 194.742 296.892C194.166 298.348 193.882 299.903 193.907 301.468C193.932 303.033 194.265 304.579 194.887 306.015C195.51 307.452 196.409 308.752 197.533 309.841C198.658 310.93 199.986 311.787 201.441 312.363C202.897 312.939 204.452 313.223 206.017 313.198C209.115 313.19 212.085 311.958 214.278 309.77C216.472 307.582 217.712 304.616 217.727 301.518C217.738 299.933 217.436 298.361 216.838 296.892C216.241 295.424 215.359 294.087 214.245 292.96C213.13 291.832 211.804 290.936 210.343 290.321C208.881 289.706 207.313 289.386 205.727 289.378L205.637 289.358Z" fill="#D1D3D4"/>
<path d="M348.727 71.7281C347.007 71.3581 345.297 70.9181 343.557 70.6281C342.309 70.5382 341.144 69.9662 340.31 69.033C339.476 68.0999 339.037 66.8788 339.087 65.6281C338.967 61.2881 337.497 57.4481 335.607 53.6281C332.796 48.152 332.26 41.7871 334.117 35.9181C337.937 23.7681 349.507 18.4081 361.987 22.3881C380.387 28.2581 381.527 48.8681 368.777 60.2581C365.337 63.3381 362.027 66.3381 359.937 70.5481C358.777 72.8781 356.697 73.5981 354.137 72.9481C352.327 72.4581 350.507 72.1281 348.727 71.7281Z" fill="#FFFDFA"/>
<path d="M355.827 73.8481C355.193 73.8448 354.561 73.7608 353.947 73.5981C352.717 73.2881 351.487 73.0281 350.247 72.7781L348.557 72.4181C348.027 72.3081 347.497 72.1781 346.977 72.0581C345.817 71.7981 344.607 71.5181 343.427 71.3181C342.016 71.2009 340.705 70.546 339.763 69.4889C338.821 68.4317 338.322 67.0531 338.367 65.6381C338.098 61.5233 336.935 57.5168 334.957 53.8981C332.08 48.2593 331.534 41.7157 333.437 35.6781C334.215 32.9169 335.544 30.3418 337.343 28.1076C339.143 25.8734 341.375 24.0265 343.907 22.6781C349.197 19.9381 355.687 19.5681 362.177 21.6781C370.287 24.2681 375.867 30.0481 377.457 37.5481C379.207 45.7481 376.057 54.6381 369.227 60.7381C365.977 63.6381 362.617 66.6381 360.547 70.8181C360.148 71.7331 359.487 72.5093 358.647 73.0486C357.807 73.5879 356.826 73.8662 355.827 73.8481ZM348.827 71.0481L350.517 71.3981C351.767 71.6581 353.027 71.9281 354.267 72.2381C356.617 72.8381 358.267 72.1581 359.267 70.2381C361.467 65.8181 364.927 62.7281 368.267 59.7381C374.727 53.9681 377.717 45.5881 376.077 37.8781C374.557 30.7881 369.467 25.5181 361.727 23.0481C355.587 21.0481 349.487 21.4281 344.527 24.0481C342.173 25.3016 340.093 27.0135 338.41 29.0829C336.727 31.1524 335.475 33.5375 334.727 36.0981C333.826 38.9178 333.49 41.8878 333.739 44.8377C333.987 47.7875 334.816 50.6593 336.177 53.2881C338.244 57.0836 339.456 61.285 339.727 65.5981C339.673 66.6882 340.051 67.7558 340.779 68.5686C341.508 69.3814 342.528 69.8736 343.617 69.9381C344.847 70.1381 346.067 70.4281 347.247 70.6981L348.807 71.0481H348.827Z" fill="#231F20"/>
<path d="M355.616 73.2454L341.716 70.2428C340.475 69.9746 339.251 70.7637 338.982 72.0053L338.824 72.7383C338.556 73.98 339.345 75.2039 340.587 75.4722L354.486 78.4748C355.728 78.743 356.951 77.9539 357.22 76.7123L357.378 75.9792C357.646 74.7376 356.857 73.5136 355.616 73.2454Z" fill="#FFFDFA"/>
<path d="M354.967 79.2281C354.753 79.2275 354.538 79.2074 354.327 79.1681L340.437 76.1681C340.052 76.0851 339.686 75.9268 339.362 75.7024C339.038 75.4779 338.761 75.1917 338.547 74.8601C338.333 74.5285 338.187 74.158 338.117 73.7699C338.047 73.3818 338.054 72.9836 338.137 72.5981L338.287 71.8781C338.37 71.4925 338.529 71.127 338.753 70.8027C338.978 70.4783 339.264 70.2014 339.595 69.9877C339.927 69.7741 340.297 69.6279 340.686 69.5577C341.074 69.4874 341.472 69.4943 341.857 69.5781L355.757 72.5781C356.143 72.6611 356.508 72.8194 356.833 73.0439C357.157 73.2683 357.434 73.5545 357.648 73.8861C357.861 74.2177 358.008 74.5882 358.078 74.9763C358.148 75.3645 358.141 75.7627 358.057 76.1481L357.907 76.8681C357.761 77.5384 357.389 78.1382 356.854 78.5676C356.319 78.9971 355.653 79.2302 354.967 79.2281ZM354.627 77.7981C355.043 77.8819 355.475 77.8003 355.832 77.5707C356.189 77.341 356.442 76.9814 356.537 76.5681L356.687 75.8381C356.733 75.6325 356.737 75.4199 356.7 75.2127C356.662 75.0055 356.584 74.8078 356.47 74.631C356.355 74.4542 356.207 74.302 356.033 74.183C355.859 74.0641 355.664 73.9808 355.457 73.9381L341.567 70.9381C341.151 70.8489 340.716 70.9283 340.358 71.1588C340.001 71.3893 339.748 71.7522 339.657 72.1681L339.507 72.8981C339.462 73.103 339.457 73.3149 339.494 73.5216C339.531 73.7283 339.608 73.9256 339.722 74.1023C339.835 74.2789 339.982 74.4314 340.155 74.5508C340.328 74.6702 340.522 74.7543 340.727 74.7981L354.627 77.7981Z" fill="#231F20"/>
<path d="M354.487 78.4789L340.587 75.4763C339.346 75.208 338.122 75.9971 337.854 77.2387L337.695 77.9718C337.427 79.2134 338.216 80.4374 339.458 80.7056L353.357 83.7082C354.599 83.9765 355.823 83.1874 356.091 81.9457L356.249 81.2127C356.517 79.971 355.728 78.7471 354.487 78.4789Z" fill="#FFFDFA"/>
<path d="M353.837 84.4581C353.622 84.459 353.407 84.4355 353.197 84.3881L339.307 81.3881C338.922 81.3051 338.556 81.1468 338.232 80.9224C337.908 80.6979 337.631 80.4117 337.417 80.0801C337.203 79.7485 337.057 79.378 336.987 78.9899C336.917 78.6018 336.924 78.2036 337.007 77.8181L337.157 77.0981C337.239 76.7116 337.397 76.3451 337.621 76.0196C337.845 75.6941 338.131 75.416 338.462 75.2014C338.794 74.9867 339.165 74.8398 339.554 74.7688C339.942 74.6979 340.341 74.7045 340.727 74.7881L354.627 77.7881C355.013 77.8712 355.378 78.0294 355.703 78.2539C356.027 78.4783 356.304 78.7645 356.518 79.0961C356.731 79.4277 356.878 79.7982 356.948 80.1863C357.018 80.5745 357.011 80.9727 356.927 81.3581L356.777 82.0781C356.635 82.752 356.265 83.3565 355.73 83.7899C355.194 84.2232 354.526 84.4592 353.837 84.4581ZM340.097 76.1281C339.731 76.1266 339.375 76.2509 339.089 76.4803C338.804 76.7096 338.605 77.0301 338.527 77.3881L338.377 78.1081C338.328 78.314 338.323 78.5279 338.36 78.7362C338.398 78.9445 338.479 79.1426 338.597 79.3181C338.71 79.4949 338.856 79.6478 339.028 79.7679C339.199 79.888 339.393 79.9731 339.597 80.0181L353.487 83.0181C353.694 83.0636 353.907 83.0679 354.115 83.0306C354.323 82.9933 354.521 82.9153 354.699 82.8009C354.876 82.6866 355.029 82.5382 355.149 82.3644C355.269 82.1905 355.354 81.9947 355.397 81.7881L355.547 81.0681C355.594 80.862 355.599 80.6486 355.561 80.4407C355.523 80.2328 355.444 80.0346 355.327 79.8581C355.216 79.6813 355.07 79.5289 354.898 79.4103C354.726 79.2917 354.532 79.2093 354.327 79.1681L340.437 76.1681C340.325 76.1451 340.212 76.1317 340.097 76.1281Z" fill="#231F20"/>
<path d="M353.537 83.7481C353.107 85.7481 349.537 86.6281 345.627 85.7481C341.717 84.8681 338.837 82.6181 339.267 80.6381L353.537 83.7481Z" fill="#FFFDFA"/>
<path d="M348.507 86.7881C347.498 86.7854 346.493 86.6748 345.507 86.4581C341.117 85.4581 338.087 82.8981 338.607 80.5181C338.623 80.4277 338.659 80.3418 338.71 80.266C338.762 80.1901 338.829 80.1261 338.907 80.0781C338.985 80.0272 339.071 79.9922 339.162 79.975C339.253 79.9579 339.347 79.9589 339.437 79.9781L353.727 83.0581C353.908 83.101 354.065 83.213 354.164 83.37C354.263 83.527 354.296 83.7166 354.257 83.8981C353.827 85.7081 351.517 86.7881 348.507 86.7881ZM340.017 81.5381C340.467 82.8381 342.607 84.3981 345.777 85.0881C348.947 85.7781 351.547 85.2281 352.497 84.2381L340.017 81.5381Z" fill="#231F20"/>
<path d="M353.657 70.5981H353.607C353.516 70.593 353.426 70.5698 353.344 70.5297C353.261 70.4896 353.188 70.4334 353.127 70.3645C353.067 70.2956 353.02 70.2153 352.991 70.1284C352.962 70.0414 352.951 69.9496 352.957 69.8581C353.2 65.4233 353.951 61.0311 355.197 56.7681C353.363 56.804 351.534 56.5509 349.777 56.0181C349.182 60.1249 348.211 64.1685 346.877 68.0981L346.717 68.5981C346.664 68.7757 346.543 68.9249 346.38 69.013C346.216 69.1011 346.025 69.1209 345.847 69.0681C345.669 69.0127 345.52 68.8893 345.432 68.7246C345.344 68.5599 345.324 68.3671 345.377 68.1881L345.537 67.6881C346.878 63.7577 347.846 59.7099 348.427 55.5981C345.943 54.6353 343.727 53.0884 341.967 51.0881C340.843 49.8895 340.068 48.4058 339.727 46.7981C339.539 45.9439 339.573 45.0555 339.827 44.2184C340.081 43.3813 340.546 42.6236 341.177 42.0181C341.695 41.584 342.303 41.2693 342.956 41.0965C343.609 40.9237 344.293 40.8969 344.957 41.0181C345.621 41.1126 346.256 41.3525 346.816 41.7207C347.376 42.0889 347.848 42.5763 348.197 43.1481C349.197 44.9981 349.837 47.8181 349.987 51.5281C350.025 52.5283 350.008 53.5297 349.937 54.5281C351.785 55.1298 353.727 55.3874 355.667 55.2881C355.667 55.2081 355.717 55.1281 355.747 55.0581L355.887 54.6381C357.017 51.3181 358.427 47.1881 361.467 45.0181C361.987 44.6581 363.787 43.4981 365.337 44.0181C365.725 44.1573 366.072 44.3912 366.346 44.6986C366.62 45.006 366.813 45.3771 366.907 45.7781C367.205 46.8879 367.234 48.0526 366.992 49.1759C366.751 50.2992 366.245 51.3489 365.517 52.2381C364.097 53.9394 362.215 55.1932 360.097 55.8481C359 56.217 357.867 56.4684 356.717 56.5981C355.403 60.9137 354.617 65.373 354.377 69.8781C354.379 69.973 354.361 70.0673 354.325 70.1552C354.29 70.2432 354.237 70.3231 354.169 70.3902C354.102 70.4573 354.022 70.5103 353.935 70.546C353.847 70.5817 353.752 70.5995 353.657 70.5981ZM364.467 45.3581C363.663 45.4378 362.897 45.7428 362.257 46.2381C359.587 48.1381 358.257 52.0281 357.197 55.1581C358.025 55.0186 358.841 54.8147 359.637 54.5481C361.495 53.9785 363.15 52.8889 364.407 51.4081C364.994 50.6942 365.404 49.8527 365.605 48.9512C365.807 48.0498 365.794 47.1136 365.567 46.2181C365.357 45.5381 364.997 45.4181 364.877 45.3781C364.742 45.3522 364.604 45.3488 364.467 45.3681V45.3581ZM344.057 42.3581C343.332 42.332 342.621 42.57 342.057 43.0281C341.612 43.4776 341.287 44.032 341.112 44.6402C340.937 45.2484 340.919 45.8907 341.057 46.5081C341.37 47.8573 342.04 49.0974 342.997 50.0981C344.508 51.8348 346.397 53.203 348.517 54.0981C348.517 53.2781 348.567 52.4581 348.517 51.6281C348.377 48.1481 347.837 45.5381 346.907 43.8781C346.659 43.4907 346.329 43.162 345.94 42.9151C345.551 42.6681 345.114 42.5088 344.657 42.4481C344.459 42.4149 344.258 42.3981 344.057 42.3981V42.3581Z" fill="#231F20"/>
<path d="M309.017 69.5981C308.848 69.5922 308.687 69.5252 308.563 69.4096C308.44 69.294 308.362 69.1375 308.345 68.9692C308.328 68.8008 308.373 68.632 308.471 68.4939C308.568 68.3558 308.713 68.2578 308.877 68.2181L324.877 64.8281C325.059 64.7923 325.247 64.8287 325.402 64.9295C325.557 65.0304 325.667 65.1877 325.707 65.3681C325.726 65.4581 325.728 65.5509 325.711 65.6413C325.694 65.7317 325.659 65.8179 325.609 65.895C325.559 65.9721 325.494 66.0385 325.419 66.0905C325.343 66.1425 325.257 66.1791 325.167 66.1981L309.167 69.5881L309.017 69.5981Z" fill="#D1D3D4"/>
<path d="M332.417 18.9081C332.244 18.9094 332.076 18.8451 331.947 18.7281L321.947 9.6181C321.877 9.55632 321.821 9.4812 321.78 9.39714C321.74 9.31308 321.717 9.22179 321.712 9.12863C321.707 9.03547 321.721 8.94232 321.753 8.85464C321.785 8.76697 321.834 8.68655 321.897 8.6181C322.03 8.4862 322.21 8.41219 322.397 8.41219C322.585 8.41219 322.764 8.4862 322.897 8.6181L332.897 17.7281C332.964 17.7933 333.017 17.8711 333.053 17.9569C333.089 18.0428 333.107 18.135 333.107 18.2281C333.107 18.3212 333.089 18.4134 333.053 18.4993C333.017 18.5851 332.964 18.6629 332.897 18.7281C332.765 18.8458 332.594 18.91 332.417 18.9081Z" fill="#D1D3D4"/>
<path d="M388.387 33.7981C388.221 33.7952 388.06 33.7327 387.935 33.622C387.811 33.5113 387.729 33.3597 387.706 33.1944C387.683 33.0291 387.72 32.8611 387.81 32.7206C387.9 32.5801 388.038 32.4763 388.197 32.4281L402.647 28.4281C402.828 28.379 403.02 28.4036 403.182 28.4965C403.345 28.5893 403.463 28.7428 403.512 28.9231C403.561 29.1034 403.537 29.2959 403.444 29.4581C403.351 29.6203 403.198 29.739 403.017 29.7881L388.567 33.7281L388.387 33.7981Z" fill="#D1D3D4"/>
<path d="M382.997 92.5981C382.899 92.601 382.801 92.5818 382.711 92.542C382.621 92.5022 382.541 92.4428 382.477 92.3681L373.797 82.6881C373.673 82.5474 373.61 82.3631 373.621 82.1757C373.632 81.9883 373.717 81.813 373.857 81.6881C373.926 81.6253 374.007 81.577 374.095 81.546C374.183 81.515 374.277 81.5019 374.37 81.5075C374.463 81.5131 374.554 81.5372 374.638 81.5786C374.722 81.6199 374.796 81.6775 374.857 81.7481L383.527 91.4281C383.59 91.4972 383.638 91.5781 383.669 91.6662C383.701 91.7542 383.714 91.8476 383.708 91.9408C383.702 92.0339 383.678 92.125 383.637 92.2087C383.596 92.2924 383.538 92.367 383.467 92.4281C383.339 92.5433 383.17 92.6042 382.997 92.5981Z" fill="#D1D3D4"/>
<path d="M361.837 12.6481H361.727C361.636 12.6336 361.548 12.601 361.469 12.5523C361.39 12.5035 361.322 12.4397 361.268 12.3643C361.214 12.289 361.176 12.2036 361.155 12.1133C361.134 12.023 361.132 11.9294 361.147 11.8381L362.987 0.5481C363.026 0.374041 363.13 0.22131 363.277 0.121075C363.425 0.0208392 363.605 -0.0193393 363.781 0.00873195C363.957 0.0368032 364.116 0.131009 364.225 0.272129C364.334 0.413249 364.385 0.59064 364.367 0.768101L362.527 12.0681C362.499 12.2306 362.414 12.3778 362.288 12.4839C362.162 12.5901 362.002 12.6482 361.837 12.6481Z" fill="#D1D3D4"/>
<path d="M318.477 43.3981H318.337L304.407 40.5081C304.317 40.4891 304.232 40.4525 304.156 40.4005C304.08 40.3485 304.016 40.2821 303.965 40.205C303.915 40.1279 303.881 40.0417 303.864 39.9513C303.847 39.8609 303.848 39.7681 303.867 39.6781C303.885 39.5875 303.921 39.5014 303.973 39.4248C304.024 39.3483 304.091 39.2829 304.168 39.2326C304.246 39.1822 304.332 39.1479 304.423 39.1317C304.514 39.1155 304.607 39.1176 304.697 39.1381L318.627 42.0281C318.804 42.0567 318.964 42.1521 319.072 42.2946C319.181 42.4372 319.231 42.616 319.212 42.7943C319.193 42.9725 319.106 43.1366 318.969 43.2527C318.832 43.3687 318.656 43.428 318.477 43.4181V43.3981Z" fill="#D1D3D4"/>
<path d="M401.917 61.3081H401.757L389.147 58.3081C388.967 58.2652 388.81 58.1532 388.711 57.9962C388.612 57.8392 388.578 57.6496 388.617 57.4681C388.639 57.3778 388.677 57.2927 388.732 57.2175C388.786 57.1424 388.855 57.0788 388.934 57.0304C389.013 56.982 389.101 56.9498 389.192 56.9357C389.284 56.9216 389.377 56.9258 389.467 56.9481L402.077 59.9481C402.258 59.9909 402.413 60.1033 402.511 60.2607C402.608 60.4181 402.639 60.6078 402.597 60.7881C402.558 60.9378 402.469 61.0701 402.346 61.1642C402.223 61.2583 402.072 61.3089 401.917 61.3081Z" fill="#D1D3D4"/>
<path d="M307.367 206.848L326.827 224.128C326.827 224.128 354.397 197.228 352.457 194.128C350.517 191.028 330.727 203.238 330.727 203.238L318.727 190.238" fill="#FFFDFA"/>
<path d="M326.827 224.828C326.654 224.828 326.487 224.763 326.357 224.648L306.897 207.368C306.826 207.307 306.768 207.232 306.727 207.148C306.686 207.064 306.662 206.972 306.658 206.879C306.653 206.785 306.667 206.692 306.7 206.604C306.733 206.516 306.783 206.436 306.847 206.368C306.908 206.296 306.982 206.238 307.066 206.195C307.149 206.153 307.241 206.129 307.334 206.123C307.428 206.117 307.522 206.131 307.61 206.163C307.698 206.195 307.779 206.244 307.847 206.308L326.847 223.158C339.717 210.568 352.507 196.488 351.907 194.408C351.833 194.345 351.743 194.303 351.647 194.288C348.887 193.638 337.897 199.628 331.187 203.808C331.051 203.894 330.888 203.93 330.728 203.91C330.567 203.89 330.419 203.815 330.307 203.698L318.307 190.698C318.241 190.633 318.188 190.555 318.152 190.469C318.116 190.383 318.097 190.291 318.097 190.198C318.097 190.105 318.116 190.013 318.152 189.927C318.188 189.841 318.241 189.763 318.307 189.698C318.44 189.566 318.62 189.492 318.807 189.492C318.995 189.492 319.174 189.566 319.307 189.698L330.917 202.268C334.107 200.268 348.027 191.948 351.917 192.868C352.149 192.913 352.37 193.005 352.566 193.137C352.762 193.269 352.929 193.44 353.057 193.638C355.057 196.898 335.717 216.338 327.307 224.548C327.251 224.626 327.179 224.69 327.097 224.739C327.014 224.787 326.922 224.817 326.827 224.828Z" fill="#231F20"/>
<path d="M279.607 149.038C279.607 149.038 310.857 179.328 325.047 192.208L306.527 210.138C306.527 210.138 256.937 168.358 240.727 161.658L279.607 149.038Z" fill="#231F20"/>
<path d="M306.527 210.838C306.362 210.836 306.203 210.776 306.077 210.668C305.577 210.258 256.387 168.878 240.467 162.298C240.336 162.243 240.225 162.15 240.148 162.03C240.071 161.911 240.033 161.77 240.037 161.628C240.044 161.486 240.093 161.348 240.179 161.234C240.264 161.12 240.382 161.034 240.517 160.988L279.387 148.378C279.508 148.339 279.636 148.333 279.759 148.362C279.883 148.39 279.996 148.451 280.087 148.538C280.397 148.838 311.497 178.968 325.517 191.688C325.589 191.753 325.646 191.831 325.686 191.919C325.725 192.007 325.746 192.102 325.747 192.198C325.748 192.293 325.73 192.387 325.694 192.474C325.658 192.562 325.605 192.641 325.537 192.708L307.007 210.598C306.947 210.668 306.874 210.725 306.792 210.767C306.709 210.808 306.619 210.832 306.527 210.838ZM242.667 161.758C259.417 169.878 301.227 204.758 306.487 209.198L324.027 192.198C310.517 179.888 282.627 152.918 279.417 149.808L242.667 161.758Z" fill="#231F20"/>
<path d="M189.447 121.118C189.847 122.238 187.147 161.118 205.637 166.508C224.127 171.898 258.567 166.508 258.567 166.508L252.127 199.388L274.607 202.778C274.607 202.778 296.607 147.668 291.147 143.128C281.477 135.078 224.597 116.298 224.597 116.298L189.447 121.118Z" fill="#231F20"/>
<path d="M274.607 203.478H274.507L252.017 200.088C251.925 200.073 251.837 200.039 251.758 199.99C251.679 199.94 251.611 199.875 251.557 199.798C251.504 199.722 251.465 199.636 251.445 199.545C251.424 199.454 251.422 199.36 251.437 199.268L257.727 167.338C251.957 168.158 222.167 172.038 205.487 167.168C194.487 163.948 188.847 149.168 188.847 123.238C188.847 122.328 188.847 121.468 188.847 121.288C188.814 121.196 188.803 121.097 188.815 121C188.827 120.902 188.862 120.809 188.917 120.728C188.974 120.643 189.05 120.572 189.138 120.52C189.226 120.468 189.325 120.436 189.427 120.428L224.497 115.598C224.603 115.578 224.712 115.578 224.817 115.598C227.137 116.368 281.927 134.518 291.597 142.598C297.277 147.328 277.527 197.358 275.257 203.048C275.204 203.176 275.114 203.285 274.998 203.362C274.882 203.438 274.746 203.479 274.607 203.478ZM252.947 198.808L274.167 202.008C282.587 180.838 294.367 146.708 290.707 143.668C281.487 135.998 227.817 118.098 224.527 117.008L190.187 121.728C190.187 122.058 190.187 122.538 190.187 123.238C190.187 148.478 195.447 162.808 205.827 165.838C223.967 171.128 258.107 165.838 258.447 165.838C258.558 165.82 258.671 165.829 258.777 165.864C258.883 165.899 258.979 165.959 259.057 166.038C259.134 166.12 259.191 166.219 259.222 166.326C259.253 166.434 259.259 166.548 259.237 166.658L252.947 198.808Z" fill="#231F20"/>
<path d="M239.897 61.3681L276.367 74.1381L278.017 46.5381C278.017 46.5381 274.817 41.0981 274.607 39.6881C274.397 38.2781 278.017 36.5581 278.017 36.5581C278.017 36.5581 278.247 26.4481 279.377 25.0681C280.507 23.6881 282.477 23.2981 282.677 25.0681C282.877 26.8381 282.727 36.5981 282.727 36.5981C282.727 36.5981 289.027 37.2781 289.817 38.3881C290.607 39.4981 291.007 45.9481 289.817 47.4581C288.627 48.9681 300.067 93.1081 295.737 94.0881C291.407 95.0681 231.997 84.4381 231.997 84.4381" fill="#FFFDFA"/>
<path d="M294.877 94.7481C286.197 94.7481 234.157 85.4381 231.877 85.0281C231.795 85.0125 231.716 84.9807 231.645 84.9345C231.575 84.8884 231.514 84.8287 231.467 84.759C231.419 84.6894 231.386 84.611 231.369 84.5285C231.352 84.4459 231.351 84.3609 231.367 84.2781C231.381 84.1951 231.41 84.1156 231.455 84.0444C231.5 83.9733 231.559 83.912 231.628 83.8643C231.697 83.8166 231.775 83.7835 231.858 83.767C231.94 83.7504 232.025 83.7508 232.107 83.7681C248.587 86.7681 292.157 94.2081 295.577 93.4281C297.737 92.9381 293.387 71.2481 291.577 61.9881C289.127 49.7881 288.817 47.6881 289.347 46.9881C290.297 45.7781 289.977 39.6081 289.347 38.6881C288.977 38.2081 285.937 37.5081 282.707 37.1581C282.548 37.1453 282.4 37.0717 282.294 36.9524C282.188 36.8332 282.132 36.6777 282.137 36.5181C282.137 36.4181 282.327 26.8281 282.137 25.1081C282.087 24.6081 281.857 24.5381 281.787 24.5181C281.432 24.507 281.079 24.5865 280.762 24.7492C280.446 24.9119 280.176 25.1524 279.977 25.4481C279.357 26.1981 278.867 31.6781 278.757 36.5381C278.752 36.6562 278.716 36.7709 278.653 36.8709C278.59 36.9708 278.502 37.0526 278.397 37.1081C276.717 37.8981 275.267 39.1081 275.337 39.5581C275.477 40.4981 277.457 44.1181 278.667 46.1781C278.737 46.2884 278.768 46.4183 278.757 46.5481L277.107 74.1481C277.101 74.2458 277.073 74.3407 277.024 74.4256C276.976 74.5106 276.908 74.5833 276.827 74.6381C276.744 74.6923 276.65 74.7276 276.551 74.7414C276.453 74.7552 276.352 74.7473 276.257 74.7181L239.727 61.9781C239.567 61.9211 239.436 61.8027 239.363 61.6489C239.289 61.4951 239.28 61.3186 239.337 61.1581C239.394 60.9977 239.513 60.8664 239.667 60.7933C239.82 60.7201 239.997 60.7111 240.157 60.7681L275.817 73.2581L277.407 46.6881C276.797 45.6881 274.227 41.1781 274.017 39.7781C273.787 38.2181 276.237 36.7781 277.427 36.1581C277.497 33.7881 277.787 26.0481 278.927 24.6681C279.275 24.1703 279.756 23.7799 280.314 23.5413C280.873 23.3027 281.487 23.2254 282.087 23.3181C282.445 23.4337 282.759 23.6572 282.984 23.9581C283.21 24.2589 283.337 24.6222 283.347 24.9981C283.527 26.5581 283.407 33.8381 283.347 35.9981C285.547 36.2581 289.527 36.8781 290.347 37.9981C291.347 39.3481 291.687 46.0981 290.347 47.8281C290.187 48.5881 291.527 55.2881 292.817 61.7581C297.277 84.0081 298.817 94.0381 295.897 94.6981C295.56 94.7474 295.218 94.7641 294.877 94.7481Z" fill="#231F20"/>
<path d="M233.187 21.2581C231.8 19.0487 229.803 17.2879 227.437 16.1881C225.437 15.3881 224.007 16.0081 222.037 16.3881C221.247 16.5381 220.917 17.6281 220.107 17.6981C219.297 17.7681 217.927 16.6981 217.107 16.4781C199.367 11.9181 194.397 34.7781 183.917 43.5281C177.037 49.2681 168.017 52.9081 163.367 60.5281C161.938 62.9077 161.009 65.5542 160.637 68.3053C160.266 71.0565 160.46 73.8545 161.207 76.5281C162.383 80.1769 164.239 83.57 166.677 86.5281C169.464 90.2527 172.842 93.4957 176.677 96.1281C189.097 104.368 206.477 103.028 218.807 94.6481C236.147 82.8681 242.317 61.7981 240.487 41.8281C239.907 34.4484 237.389 27.3527 233.187 21.2581Z" fill="#FFFDFA"/>
<path d="M195.937 102.418C188.965 102.506 182.121 100.541 176.257 96.7681C172.352 94.1014 168.919 90.8029 166.097 87.0081C163.59 83.9843 161.692 80.5036 160.507 76.7581C159.738 73.9913 159.537 71.0969 159.919 68.2504C160.301 65.4039 161.256 62.6645 162.727 60.1981C165.897 54.9981 171.057 51.5781 176.047 48.2781C178.603 46.6517 181.066 44.8857 183.427 42.9881C186.747 40.2181 189.487 35.9881 192.377 31.5981C198.477 22.2581 204.777 12.5981 217.247 15.8081C217.719 15.9596 218.172 16.1642 218.597 16.4181C219.037 16.695 219.521 16.8945 220.027 17.0081C220.187 17.0081 220.387 16.7781 220.597 16.5581C220.925 16.1441 221.378 15.8462 221.887 15.7081C222.267 15.6381 222.617 15.5481 222.947 15.4781C224.49 14.968 226.158 14.9891 227.687 15.5381C230.487 16.6281 232.487 19.0981 233.687 20.8581C237.969 27.0801 240.522 34.3267 241.087 41.8581C243.167 64.5681 234.957 84.5581 219.087 95.3181C212.243 99.9235 204.187 102.395 195.937 102.418ZM212.727 16.5981C203.877 16.5981 198.667 24.5981 193.597 32.3681C190.597 36.8881 187.857 41.1681 184.377 44.0681C181.973 45.9963 179.466 47.7922 176.867 49.4481C171.777 52.8181 166.977 55.9981 163.967 60.9381C162.594 63.239 161.702 65.7945 161.345 68.45C160.987 71.1055 161.172 73.806 161.887 76.3881C163.023 79.9629 164.839 83.2841 167.237 86.1681C169.961 89.8271 173.269 93.0129 177.027 95.5981C188.697 103.348 205.707 102.738 218.387 94.1281C233.807 83.6581 241.797 64.1281 239.757 41.9481C239.208 34.6734 236.745 27.6734 232.617 21.6581C231.467 20.0381 229.617 17.7881 227.187 16.8281C225.923 16.378 224.542 16.378 223.277 16.8281C222.917 16.9081 222.557 16.9881 222.167 17.0581C221.952 17.1641 221.764 17.318 221.617 17.5081C221.266 17.9726 220.751 18.2869 220.177 18.3881C219.374 18.3513 218.597 18.0878 217.937 17.6281C217.621 17.4353 217.286 17.2746 216.937 17.1481C215.563 16.7866 214.148 16.6018 212.727 16.5981Z" fill="#231F20"/>
<path d="M186.377 57.3181C187.137 56.3181 229.437 49.1381 239.897 61.3681C250.357 73.5981 234.347 121.688 234.347 121.688L177.917 118.298C177.917 118.298 165.727 83.1281 186.377 57.3181Z" fill="#F0AE00"/>
<path d="M226.297 54.2981L227.067 64.1981C227.067 64.1981 226.137 68.8181 219.387 67.7981C212.637 66.7781 211.277 62.3081 211.277 62.3081L210.497 43.7981C210.497 43.7981 220.377 37.3981 218.017 26.8881C219.527 29.2386 221.724 31.0676 224.309 32.1267C226.894 33.1857 229.742 33.4237 232.467 32.8081C232.467 32.8081 233.417 42.2881 233.067 47.4681C232.717 52.6481 226.297 54.2981 226.297 54.2981Z" fill="#FFFDFA"/>
<path d="M221.227 68.5981C220.578 68.5938 219.93 68.5436 219.287 68.4481C212.187 67.3681 210.667 62.6681 210.607 62.4481C210.597 62.3919 210.597 62.3343 210.607 62.2781L209.827 43.7681C209.825 43.6463 209.853 43.5257 209.908 43.4174C209.964 43.3091 210.047 43.2165 210.147 43.1481C210.247 43.0881 219.587 36.8781 217.367 26.9781C217.335 26.8173 217.359 26.65 217.437 26.5056C217.515 26.3612 217.642 26.2488 217.794 26.188C217.947 26.1273 218.116 26.122 218.272 26.1732C218.428 26.2244 218.561 26.3288 218.647 26.4681C220.071 28.7036 222.154 30.442 224.608 31.4433C227.062 32.4445 229.766 32.6594 232.347 32.0581C232.444 32.0368 232.544 32.0366 232.64 32.0573C232.737 32.078 232.828 32.1192 232.907 32.1781C232.986 32.2374 233.052 32.3125 233.1 32.3986C233.148 32.4847 233.178 32.5799 233.187 32.6781C233.187 33.0681 234.187 42.2681 233.797 47.4581C233.467 52.1881 228.737 54.1881 227.067 54.7481L227.797 64.0781C227.803 64.1413 227.803 64.2049 227.797 64.2681C227.727 64.3781 226.817 68.5981 221.227 68.5981ZM211.967 62.1381C212.177 62.7081 213.697 66.1381 219.497 67.0581C225.077 67.9081 226.207 64.6881 226.357 64.0581L225.597 54.2781C225.583 54.1132 225.627 53.9483 225.722 53.8128C225.817 53.6774 225.957 53.58 226.117 53.5381C226.177 53.5381 232.057 51.9581 232.367 47.3481C232.484 42.7448 232.307 38.1388 231.837 33.5581C229.515 33.9715 227.126 33.7914 224.891 33.0344C222.657 32.2774 220.65 30.9681 219.057 29.2281C219.497 37.5081 212.807 42.9081 211.217 44.0681L211.967 62.1381Z" fill="#231F20"/>
<path d="M213.577 42.9981C213.274 42.1112 212.692 41.3465 211.917 40.8181C211.177 40.3434 210.357 40.0047 209.497 39.8181C209.044 39.6659 208.561 39.6213 208.087 39.6881C207.758 39.7636 207.448 39.9066 207.177 40.1081C206.492 40.5168 205.977 41.1596 205.727 41.9181C205.599 42.5452 205.626 43.1941 205.807 43.8081C205.941 44.5029 206.17 45.176 206.487 45.8081C206.815 46.4215 207.262 46.9638 207.801 47.4035C208.34 47.8432 208.961 48.1716 209.628 48.3697C210.295 48.5678 210.994 48.6316 211.686 48.5575C212.378 48.4835 213.048 48.2729 213.657 47.9381" fill="#FFFDFA"/>
<path d="M211.107 49.2981C210.538 49.2991 209.972 49.2149 209.427 49.0481C207.903 48.5917 206.623 47.5486 205.867 46.1481C205.528 45.4702 205.28 44.7507 205.127 44.0081C204.919 43.2824 204.892 42.5168 205.047 41.7781C205.341 40.8551 205.959 40.0698 206.787 39.5681C207.135 39.3159 207.529 39.1357 207.947 39.0381C208.527 38.9521 209.119 39 209.677 39.1781C210.609 39.3754 211.499 39.7342 212.307 40.2381C213.209 40.8509 213.89 41.7381 214.247 42.7681C214.308 42.9445 214.297 43.1379 214.215 43.3057C214.134 43.4735 213.989 43.6021 213.812 43.6631C213.636 43.7241 213.443 43.7125 213.275 43.631C213.107 43.5494 212.978 43.4045 212.917 43.2281C212.662 42.485 212.175 41.8436 211.527 41.3981C210.848 40.9875 210.104 40.6934 209.327 40.5281C208.973 40.4134 208.598 40.3726 208.227 40.4081C207.99 40.4732 207.766 40.5817 207.567 40.7281C207.03 41.051 206.621 41.5489 206.407 42.1381C206.31 42.6571 206.337 43.1918 206.487 43.6981C206.613 44.3197 206.822 44.9217 207.107 45.4881C207.391 46.0195 207.778 46.4893 208.245 46.8701C208.712 47.2508 209.25 47.535 209.828 47.7062C210.405 47.8774 211.011 47.9321 211.611 47.8672C212.21 47.8023 212.79 47.6191 213.317 47.3281C213.398 47.2841 213.487 47.2565 213.578 47.2467C213.67 47.237 213.762 47.2454 213.85 47.2714C213.939 47.2974 214.021 47.3405 214.092 47.3983C214.164 47.456 214.223 47.5273 214.267 47.6081C214.311 47.6889 214.339 47.7775 214.349 47.869C214.359 47.9604 214.35 48.0529 214.324 48.1411C214.298 48.2293 214.255 48.3115 214.197 48.3831C214.139 48.4546 214.068 48.5141 213.987 48.5581C213.106 49.0462 212.115 49.3009 211.107 49.2981Z" fill="#231F20"/>
<path d="M224.357 37.1381C224.357 37.1381 228.437 41.8581 227.727 42.8581C227.017 43.8581 224.657 43.5381 224.657 43.5381" fill="#FFFDFA"/>
<path d="M225.497 44.2981C225.186 44.2981 224.876 44.278 224.567 44.2381C224.383 44.2142 224.216 44.1181 224.102 43.9709C223.989 43.8237 223.939 43.6374 223.962 43.4531C223.986 43.2688 224.082 43.1015 224.23 42.988C224.377 42.8746 224.563 42.8242 224.747 42.8481C225.567 42.9481 226.857 42.8481 227.157 42.4481C227.157 41.9981 225.627 39.6781 223.827 37.5981C223.767 37.5285 223.721 37.4477 223.692 37.3603C223.663 37.2728 223.651 37.1805 223.657 37.0886C223.664 36.9967 223.688 36.9069 223.73 36.8245C223.771 36.742 223.828 36.6685 223.897 36.6081C223.967 36.5477 224.048 36.5016 224.135 36.4724C224.223 36.4432 224.315 36.4316 224.407 36.4381C224.499 36.4446 224.589 36.4691 224.671 36.5103C224.753 36.5515 224.827 36.6085 224.887 36.6781C227.837 40.0881 228.987 42.3081 228.297 43.2581C227.941 43.6332 227.503 43.9218 227.018 44.102C226.532 44.2823 226.012 44.3493 225.497 44.2981Z" fill="#231F20"/>
<path d="M221.54 37.7003C221.988 37.5438 222.173 36.9055 221.953 36.2745C221.733 35.6436 221.191 35.259 220.743 35.4155C220.294 35.572 220.109 36.2104 220.329 36.8413C220.549 37.4723 221.092 37.8568 221.54 37.7003Z" fill="#231F20"/>
<path d="M227.231 37.0328C227.68 36.8762 227.865 36.2379 227.645 35.607C227.424 34.976 226.882 34.5914 226.434 34.7479C225.986 34.9044 225.8 35.5428 226.021 36.1737C226.241 36.8047 226.783 37.1893 227.231 37.0328Z" fill="#231F20"/>
<path d="M227.817 45.5981L221.367 44.8181C221.367 44.8181 221.027 49.6281 224.757 49.9581C227.317 50.1981 227.817 45.5981 227.817 45.5981Z" fill="#FFFDFA"/>
<path d="M224.947 50.6881H224.697C221.207 50.3881 220.537 46.6881 220.697 44.8181C220.705 44.723 220.732 44.6305 220.777 44.5463C220.821 44.462 220.883 44.3878 220.957 44.3281C221.027 44.2643 221.109 44.2168 221.199 44.1891C221.289 44.1614 221.384 44.1542 221.477 44.1681L227.927 44.9381C228.11 44.9607 228.276 45.0541 228.39 45.1981C228.504 45.3422 228.557 45.5254 228.537 45.7081C228.307 47.5981 227.327 50.6881 224.947 50.6881ZM222.077 45.6881C222.147 46.8881 222.587 49.1281 224.817 49.3281C226.227 49.4381 226.817 47.3881 226.997 46.2781L222.077 45.6881Z" fill="#231F20"/>
<path d="M226.297 54.2981C226.297 54.2981 221.147 54.5881 218.677 53.2981C218.677 53.2981 220.987 59.0681 226.677 60.2381L226.297 54.2981Z" fill="#231F20"/>
<path d="M226.657 60.9581H226.517C220.517 59.7281 218.127 53.8481 218.027 53.5981C217.969 53.4623 217.954 53.3114 217.987 53.167C218.019 53.0225 218.096 52.8921 218.207 52.7943C218.318 52.6966 218.458 52.6365 218.605 52.6228C218.752 52.6091 218.9 52.6425 219.027 52.7181C221.297 53.8881 226.237 53.6281 226.287 53.6181C226.469 53.6173 226.645 53.6845 226.78 53.8066C226.915 53.9287 227 54.0969 227.017 54.2781L227.387 60.2781C227.395 60.3853 227.378 60.4929 227.336 60.592C227.294 60.6911 227.23 60.7788 227.147 60.8481C227.003 60.9432 226.829 60.9824 226.657 60.9581ZM220.127 54.5981C221.433 56.8231 223.479 58.5186 225.907 59.3881L225.637 55.0681C223.789 55.128 221.939 54.9702 220.127 54.5981Z" fill="#231F20"/>
<path d="M272.507 202.778L268.807 215.538C268.807 215.538 285.007 223.718 282.167 225.458C279.327 227.198 250.617 224.098 249.547 223.558C248.477 223.018 252.727 198.318 252.727 198.318" fill="#FFFDFA"/>
<path d="M276.997 226.658C267.657 226.658 250.217 224.658 249.227 224.178C248.697 223.908 247.697 223.408 252.057 198.178C252.072 198.088 252.105 198.002 252.154 197.925C252.202 197.847 252.265 197.78 252.339 197.727C252.414 197.674 252.498 197.637 252.586 197.616C252.675 197.596 252.767 197.593 252.857 197.608C252.947 197.623 253.033 197.656 253.111 197.704C253.188 197.753 253.255 197.816 253.308 197.89C253.361 197.964 253.399 198.048 253.419 198.137C253.44 198.226 253.443 198.318 253.427 198.408C251.597 209.028 249.857 220.918 250.077 222.978C253.077 223.638 279.337 226.358 281.797 224.848C281.797 223.768 275.667 219.758 268.487 216.138C268.342 216.067 268.227 215.946 268.163 215.798C268.099 215.649 268.09 215.483 268.137 215.328L271.837 202.568C271.857 202.474 271.896 202.384 271.952 202.305C272.008 202.226 272.079 202.16 272.162 202.11C272.245 202.06 272.337 202.028 272.433 202.016C272.528 202.003 272.626 202.011 272.719 202.038C272.811 202.065 272.897 202.111 272.972 202.173C273.046 202.234 273.106 202.311 273.149 202.398C273.192 202.484 273.217 202.578 273.222 202.675C273.227 202.771 273.212 202.868 273.177 202.958L269.637 215.158C273.387 217.078 283.087 222.278 283.197 224.838C283.208 225.079 283.151 225.319 283.033 225.529C282.914 225.739 282.739 225.912 282.527 226.028C281.817 226.488 279.727 226.658 276.997 226.658Z" fill="#231F20"/>
<path d="M236.237 135.698C236.114 135.699 235.992 135.665 235.887 135.598L220.617 125.208L222.777 134.378C222.815 134.539 222.786 134.707 222.699 134.847C222.612 134.987 222.473 135.086 222.312 135.123C222.152 135.16 221.983 135.132 221.844 135.045C221.704 134.958 221.605 134.819 221.567 134.658L219.047 123.948C219.018 123.826 219.026 123.699 219.07 123.582C219.114 123.465 219.193 123.364 219.296 123.292C219.399 123.221 219.521 123.182 219.646 123.182C219.771 123.181 219.894 123.218 219.997 123.288L236.587 134.598C236.722 134.691 236.815 134.834 236.845 134.995C236.875 135.156 236.84 135.323 236.747 135.458C236.689 135.537 236.611 135.6 236.522 135.642C236.433 135.684 236.336 135.703 236.237 135.698Z" fill="#FFFDFA"/>
<path d="M246.807 139.728L224.597 123.978L268.097 113.758L296.897 131.408L246.807 139.728Z" fill="#FFFDFA"/>
<path d="M246.807 140.368C246.677 140.37 246.551 140.327 246.447 140.248L224.227 124.508C224.126 124.437 224.047 124.337 224.001 124.222C223.954 124.106 223.943 123.98 223.967 123.858C223.992 123.738 224.05 123.627 224.135 123.539C224.22 123.45 224.328 123.388 224.447 123.358L267.947 113.128C268.029 113.108 268.113 113.105 268.196 113.119C268.278 113.133 268.357 113.163 268.427 113.208L297.227 130.858C297.34 130.925 297.429 131.025 297.481 131.146C297.534 131.266 297.546 131.4 297.517 131.528C297.493 131.656 297.43 131.773 297.337 131.864C297.244 131.955 297.126 132.016 296.997 132.038L246.917 140.358L246.807 140.368ZM226.117 124.278L246.967 139.048L295.097 131.048L267.987 114.428L226.117 124.278Z" fill="#231F20"/>
<path d="M194.377 62.5381C194.377 62.5381 193.777 108.048 197.057 108.718C200.337 109.388 240.267 112.498 242.537 112.928C244.807 113.358 250.657 115.788 252.027 117.528C253.397 119.268 256.027 126.868 254.207 126.778C252.387 126.688 247.697 126.688 246.157 126.298C244.617 125.908 241.687 122.298 241.687 122.298C241.687 122.298 242.857 126.218 240.797 125.808C238.737 125.398 234.347 121.718 234.347 121.718C234.347 121.718 187.177 131.138 180.407 122.818C173.637 114.498 171.407 93.6181 175.257 76.3581C179.107 59.0981 191.467 53.2081 194.377 62.5381Z" fill="#FFFDFA"/>
<path d="M254.237 127.418H254.177C253.687 127.418 253.017 127.418 252.247 127.358C250.156 127.375 248.066 127.228 245.997 126.918C244.703 126.327 243.561 125.448 242.657 124.348C242.695 124.936 242.521 125.517 242.167 125.988C241.979 126.187 241.739 126.331 241.475 126.405C241.211 126.479 240.932 126.48 240.667 126.408C238.717 126.018 235.187 123.208 234.177 122.408C229.767 123.268 186.627 131.478 179.917 123.218C173.077 114.808 170.707 93.7181 174.637 76.2181C177.327 64.2181 183.917 57.7281 189.027 57.5181C191.827 57.4381 194.027 59.1781 195.027 62.3781C195.032 62.4447 195.032 62.5115 195.027 62.5781C194.747 83.9181 195.507 106.798 197.267 108.148C199.007 108.488 212.397 109.638 224.267 110.648C233.617 111.448 241.687 112.138 242.717 112.328C245.127 112.788 251.097 115.258 252.597 117.168C253.757 118.648 256.247 125.018 255.327 126.808C255.227 127.007 255.069 127.171 254.875 127.279C254.681 127.388 254.459 127.436 254.237 127.418ZM241.727 121.598C241.824 121.597 241.919 121.617 242.006 121.659C242.092 121.701 242.168 121.762 242.227 121.838C243.307 123.178 245.387 125.398 246.357 125.648C248.345 125.923 250.35 126.057 252.357 126.048L254.307 126.108C254.737 125.368 252.917 119.568 251.597 117.898C250.417 116.388 244.817 113.968 242.487 113.528C241.487 113.348 233.097 112.628 224.167 111.858C212.317 110.858 198.887 109.698 196.997 109.308C196.107 109.128 194.447 108.788 193.917 85.3081C193.607 74.5981 193.727 63.8081 193.727 62.5981C192.897 60.0081 191.267 58.5981 189.067 58.7281C184.557 58.9181 178.397 65.1781 175.867 76.4281C172.017 93.5981 174.267 114.188 180.867 122.338C182.697 124.588 189.197 126.818 209.807 124.678C222.277 123.388 234.067 121.038 234.187 121.018C234.282 120.998 234.38 121.001 234.474 121.025C234.567 121.049 234.654 121.095 234.727 121.158C235.907 122.158 239.317 124.798 240.877 125.158C240.987 125.158 241.127 125.158 241.177 125.158C241.467 124.838 241.337 123.488 241.037 122.478C240.995 122.335 241.004 122.182 241.062 122.046C241.121 121.909 241.225 121.796 241.357 121.728C241.462 121.644 241.593 121.598 241.727 121.598Z" fill="#231F20"/>
<path d="M246.807 139.728C247.917 136.948 261.167 96.0481 261.167 96.0481L313.387 89.0481L296.897 131.398L246.807 139.728Z" fill="#FFFDFA"/>
<path d="M246.807 140.368C246.713 140.367 246.62 140.345 246.535 140.304C246.45 140.262 246.376 140.202 246.317 140.128C246.243 140.041 246.195 139.935 246.177 139.822C246.159 139.709 246.173 139.594 246.217 139.488C247.297 136.758 260.427 96.2581 260.557 95.8481C260.597 95.735 260.666 95.6345 260.757 95.5571C260.849 95.4797 260.959 95.4283 261.077 95.4081L313.297 88.4081C313.408 88.3994 313.518 88.4166 313.621 88.4582C313.723 88.4999 313.814 88.5649 313.887 88.6481C313.957 88.7357 314.002 88.8396 314.02 88.95C314.037 89.0604 314.026 89.1734 313.987 89.2781L297.487 131.598C297.447 131.701 297.38 131.792 297.294 131.862C297.209 131.932 297.106 131.979 296.997 131.998L246.917 140.318L246.807 140.368ZM261.647 96.5981C260.317 100.698 250.077 132.298 247.787 138.888L296.427 130.808L312.427 89.8081L261.647 96.5981Z" fill="#231F20"/>
<path d="M277.977 121.818C277.217 121.83 276.464 121.665 275.777 121.338C274.867 120.868 273.437 119.648 274.057 116.708C274.469 114.761 275.359 112.946 276.647 111.428C277.472 110.38 278.579 109.589 279.837 109.148C280.523 108.915 281.257 108.865 281.968 109.004C282.678 109.143 283.34 109.465 283.887 109.938C284.662 110.732 285.132 111.773 285.217 112.878C285.392 114.073 285.303 115.292 284.957 116.449C284.612 117.606 284.018 118.674 283.217 119.578C282.534 120.277 281.719 120.835 280.82 121.22C279.921 121.604 278.955 121.807 277.977 121.818ZM281.207 110.338C280.868 110.336 280.531 110.386 280.207 110.488C279.203 110.853 278.323 111.494 277.667 112.338C276.536 113.676 275.752 115.274 275.387 116.988C275.057 118.538 275.387 119.588 276.387 120.088C277.937 120.888 280.737 120.178 282.157 118.628C282.819 117.876 283.309 116.99 283.594 116.03C283.879 115.07 283.952 114.059 283.807 113.068C283.754 112.281 283.433 111.537 282.897 110.958C282.432 110.546 281.829 110.325 281.207 110.338Z" fill="#D1D3D4"/>
<path d="M283.067 45.5981C282.898 45.5981 282.735 45.5307 282.615 45.4106C282.495 45.2906 282.427 45.1278 282.427 44.9581C282.413 44.2785 282.15 43.6278 281.687 43.1299C281.224 42.6321 280.594 42.3218 279.917 42.2581C279.766 42.2438 279.616 42.2204 279.467 42.1881C279.309 42.1521 279.17 42.0583 279.078 41.9251C278.985 41.7918 278.946 41.6289 278.967 41.4681C279 41.3129 279.086 41.174 279.21 41.0754C279.334 40.9768 279.489 40.9247 279.647 40.9281L280.157 40.9881C280.906 41.0396 281.655 40.9102 282.343 40.6108C283.03 40.3114 283.635 39.8509 284.107 39.2681C284.217 39.1381 284.327 38.9681 284.277 38.8581C283.957 38.0981 280.757 37.3781 277.977 37.1881C277.807 37.1753 277.648 37.0956 277.536 36.9664C277.423 36.8372 277.366 36.669 277.377 36.4981C277.39 36.33 277.469 36.1738 277.596 36.0633C277.723 35.9529 277.889 35.8971 278.057 35.9081C279.597 36.0181 284.667 36.4981 285.457 38.3581C285.575 38.6505 285.603 38.9714 285.537 39.2797C285.471 39.588 285.315 39.8696 285.087 40.0881C284.371 40.9639 283.421 41.6191 282.347 41.9781C282.792 42.3376 283.147 42.7961 283.383 43.317C283.619 43.8378 283.73 44.4067 283.707 44.9781C283.702 45.1443 283.632 45.302 283.513 45.4178C283.394 45.5335 283.234 45.5982 283.067 45.5981Z" fill="#231F20"/>
<path d="M279.997 189.258C279.924 189.269 279.85 189.269 279.777 189.258C279.701 189.229 279.631 189.186 279.572 189.13C279.513 189.074 279.465 189.007 279.432 188.933C279.398 188.858 279.38 188.778 279.377 188.697C279.375 188.615 279.388 188.534 279.417 188.458C281.467 182.938 289.097 158.938 289.177 158.698C289.201 158.62 289.241 158.547 289.293 158.484C289.345 158.421 289.409 158.369 289.482 158.33C289.554 158.292 289.634 158.269 289.715 158.262C289.797 158.254 289.879 158.263 289.957 158.288C290.112 158.341 290.241 158.452 290.315 158.597C290.39 158.743 290.405 158.912 290.357 159.068C290.277 159.308 282.637 183.348 280.577 188.888C280.528 189 280.447 189.095 280.343 189.161C280.24 189.227 280.12 189.261 279.997 189.258Z" fill="#FFFDFA"/>
</svg>
