<svg width="404" height="341" viewBox="0 0 404 341" fill="none" xmlns="http://www.w3.org/2000/svg">
<path d="M0.890816 146.75C2.28082 141.3 3.63082 135.83 5.08082 130.39C5.83082 127.56 6.72082 124.77 7.63082 122C8.85082 118.28 11.6908 116 15.6308 116.16C19.9708 116.29 24.3008 116.87 28.6308 117.21C30.949 117.536 33.2917 117.653 35.6308 117.56C37.3531 117.464 38.992 116.787 40.2808 115.64C44.8408 110.56 49.1708 105.28 53.4308 99.9504C55.0308 97.9504 55.0708 95.4404 54.3508 93.0304C52.8408 87.9304 51.1808 82.8605 49.7008 77.7505C49.0701 75.7737 48.7332 73.7151 48.7008 71.6404C48.7 70.8787 48.8498 70.1244 49.1416 69.4208C49.4333 68.7171 49.8613 68.0781 50.4008 67.5404C57.9172 61.7404 66.2641 57.1051 75.1608 53.7904C76.4705 53.25 77.9222 53.1581 79.2897 53.5289C80.6571 53.8997 81.8635 54.7124 82.7208 55.8404C86.3608 60.0904 90.1508 64.2005 93.6608 68.5505C96.4508 72.0205 99.6608 73.5505 104.201 72.8605C109.851 71.9905 115.541 71.4405 121.201 70.7205C122.241 70.5796 123.23 70.1873 124.084 69.5774C124.938 68.9674 125.63 68.1584 126.101 67.2205C127.891 64.0505 129.561 60.8104 131.311 57.6204C132.811 54.8904 134.311 52.1305 135.901 49.4705C137.631 46.6205 140.281 45.2904 143.541 46.1304C151.641 48.2304 159.731 50.3905 167.761 52.7705C171.151 53.7705 172.671 56.7204 172.611 60.0304C172.531 64.4304 171.891 68.8304 171.541 73.2304C171.371 75.3004 171.231 77.3805 171.231 79.4605C171.175 80.7968 171.436 82.1275 171.992 83.3439C172.548 84.5604 173.384 85.6282 174.431 86.4605C178.891 90.0505 183.431 93.5705 187.731 97.3205C188.982 98.4668 190.523 99.2489 192.187 99.582C193.851 99.9152 195.575 99.7867 197.171 99.2105C202.711 97.5405 208.171 95.7204 213.731 94.0604C218.101 92.7404 221.251 93.8605 223.531 97.8005C227.271 104.26 230.901 110.787 234.421 117.38C236.981 122.17 236.421 125.11 232.421 128.85C229.711 131.37 226.751 133.61 223.961 136.05C221.961 137.8 219.961 139.62 218.131 141.51C217.33 142.286 216.718 143.234 216.342 144.283C215.966 145.332 215.835 146.453 215.961 147.56C216.571 153.45 217.131 159.34 217.871 165.21C218.043 166.81 218.626 168.338 219.564 169.645C220.501 170.952 221.761 171.994 223.221 172.67C226.591 174.34 230.011 175.93 233.361 177.67C235.463 178.703 237.506 179.851 239.481 181.11C242.431 183.05 243.741 185.83 242.761 189.35C240.761 196.684 238.674 203.984 236.501 211.25C236.122 212.357 235.619 213.417 235.001 214.41C233.621 216.89 231.571 218.29 228.631 218.05C223.451 217.62 218.271 217.16 213.101 216.71C212.711 216.71 212.321 216.71 211.931 216.62C207.071 215.89 203.421 217.62 200.541 221.62C197.921 225.26 194.901 228.62 192.061 232.08C190.722 233.607 189.828 235.471 189.475 237.471C189.123 239.47 189.325 241.528 190.061 243.42C191.711 248.28 193.331 253.15 194.741 258.08C196.241 263.29 195.391 265.67 190.741 268.39C184.071 272.27 177.281 275.96 170.441 279.54C166.701 281.54 163.801 280.94 160.911 277.84C158.021 274.74 155.101 271.17 152.261 267.78C146.151 260.5 144.731 259.92 135.261 261.16C131.581 261.64 127.921 262.16 124.261 262.66C122.501 262.824 120.813 263.441 119.362 264.45C117.911 265.46 116.746 266.827 115.981 268.42C113.981 272.31 112.191 276.26 110.121 280.09C109.026 282.084 107.74 283.966 106.281 285.71C105.654 286.601 104.765 287.272 103.737 287.631C102.709 287.99 101.595 288.017 100.551 287.71C92.8808 285.53 85.2008 283.37 77.5508 281.14C76.5033 280.775 75.4976 280.299 74.5508 279.72C72.0508 278.35 70.6508 276.31 70.8808 273.37C71.2808 268.25 71.7508 263.14 72.1408 258.02C72.2509 256.463 72.2809 254.901 72.2308 253.34C72.2723 252.068 72.0133 250.804 71.4746 249.65C70.936 248.496 70.133 247.486 69.1308 246.7C64.7608 243.31 60.4508 239.85 56.1308 236.4C54.9012 235.369 53.4159 234.689 51.8317 234.432C50.2476 234.175 48.6234 234.351 47.1308 234.94C42.2608 236.56 37.3508 238.04 32.4608 239.58C32.2708 239.64 32.0908 239.72 31.9008 239.77C25.4808 241.48 23.2908 240.77 19.9908 235.02C16.3208 228.6 12.9108 222.02 9.60081 215.41C7.60081 211.35 8.11081 208.92 11.6008 205.85C15.3308 202.52 19.1508 199.27 23.1308 196.23C27.2708 193.07 28.9408 189.14 28.1308 183.99C27.3208 178.84 26.7908 173.41 26.1308 168.12C26.029 167.012 25.6519 165.947 25.0337 165.021C24.4154 164.095 23.5757 163.339 22.5908 162.82C17.9408 160.34 13.2708 157.93 8.64082 155.43C5.64082 153.79 2.53082 152.15 1.08082 148.71L0.890816 146.75ZM172.171 163C169.951 134.9 145.731 114.45 117.381 116.57C94.1108 118.3 69.3808 140.8 71.7508 171.04C73.9508 198.5 98.3108 219.38 125.751 217.26C158.111 214.73 175.331 185.14 172.171 163Z" fill="#FFFDFA"/>
<path d="M102.081 288.63C101.492 288.625 100.906 288.538 100.341 288.37L94.0008 286.56C88.4408 284.994 82.8875 283.407 77.3408 281.8C76.3944 281.484 75.4856 281.065 74.6308 280.55L74.2108 280.32C71.3008 278.72 69.9408 276.32 70.2108 273.32C70.3908 271.04 70.5775 268.76 70.7708 266.48C71.0108 263.64 71.2508 260.81 71.4608 257.98C71.5704 256.446 71.6004 254.908 71.5508 253.37C71.6009 252.2 71.3701 251.035 70.8778 249.972C70.3855 248.909 69.6459 247.979 68.7208 247.26C64.8408 244.26 60.9308 241.12 57.1608 238.1L55.7208 236.95C54.5814 236.002 53.208 235.377 51.7443 235.141C50.2806 234.905 48.7804 235.068 47.4008 235.61C44.0008 236.74 40.5308 237.82 37.1708 238.87L32.7208 240.26L32.5208 240.33C32.3908 240.33 32.2708 240.42 32.1308 240.45C25.3108 242.27 22.8108 241.27 19.4408 235.38C15.3908 228.3 11.7508 221.16 9.02082 215.73C6.88082 211.45 7.45082 208.63 11.1408 205.35C15.4808 201.47 19.1408 198.4 22.7008 195.69C26.7008 192.69 28.2008 188.97 27.4808 184.1C26.9908 180.81 26.5808 177.45 26.1908 174.2C25.9408 172.2 25.7008 170.2 25.4408 168.2C25.3509 167.203 25.0128 166.244 24.4574 165.411C23.9019 164.578 23.1468 163.897 22.2608 163.43C20.3408 162.43 18.4208 161.43 16.4908 160.38C13.7608 158.94 11.0208 157.5 8.31082 156.03C5.15082 154.32 1.97081 152.6 0.440815 148.97C0.427073 148.901 0.427073 148.83 0.440815 148.76L0.280815 146.81C0.270978 146.734 0.270978 146.657 0.280815 146.58L1.50082 141.78C2.50082 137.92 3.50082 134.06 4.50082 130.21C5.28082 127.28 6.19082 124.43 7.06082 121.78C8.42082 117.63 11.5708 115.31 15.7508 115.46C18.6408 115.55 21.5508 115.83 24.3708 116.11C25.8408 116.26 27.3708 116.4 28.7908 116.52L30.5208 116.68C32.2242 116.907 33.9453 116.971 35.6608 116.87C37.2106 116.78 38.6885 116.186 39.8708 115.18C44.7308 109.75 49.2308 104.18 52.9908 99.5104C54.2708 97.9004 54.5408 95.7904 53.7908 93.2304C53.1108 90.9604 52.4108 88.7005 51.7108 86.4405C50.8408 83.6605 49.9508 80.7905 49.1308 77.9405C48.4498 75.9031 48.0691 73.7775 48.0008 71.6305C48.0045 70.7607 48.1836 69.9007 48.5272 69.1017C48.8708 68.3028 49.372 67.5813 50.0008 66.9804C58.8208 60.4304 66.7408 56.0305 75.0008 53.1305C76.4444 52.5489 78.0385 52.455 79.5404 52.8629C81.0423 53.2709 82.3698 54.1584 83.3208 55.3904C84.6008 56.8904 85.9008 58.3905 87.2108 59.8505C89.5608 62.5305 92.0008 65.2904 94.2708 68.1204C97.0408 71.5504 100.091 72.8004 104.161 72.1204C107.821 71.5604 111.561 71.1204 115.161 70.7004C117.161 70.4738 119.161 70.2338 121.161 69.9804C122.095 69.8525 122.984 69.4976 123.749 68.9467C124.514 68.3959 125.133 67.6658 125.551 66.8205C126.601 64.9605 127.611 63.0704 128.621 61.1804C129.331 59.8704 130.031 58.5505 130.751 57.2405L131.501 55.8805C132.731 53.6205 134.001 51.2904 135.361 49.0604C137.361 45.8104 140.311 44.5205 143.761 45.4105C153.511 47.9305 160.981 49.9705 168.001 52.0505C171.421 53.0505 173.431 56.0505 173.361 59.9905C173.301 62.9905 173.001 65.9104 172.701 68.7804C172.551 70.2704 172.401 71.7805 172.281 73.2405C172.121 75.2405 171.981 77.3105 171.971 79.4105C171.919 80.65 172.164 81.8839 172.686 83.0094C173.208 84.1349 173.991 85.1193 174.971 85.8805C175.971 86.7205 177.051 87.5604 178.101 88.3904C181.471 91.0904 184.961 93.8804 188.291 96.7604C189.449 97.8361 190.883 98.5692 192.433 98.8782C193.983 99.1872 195.589 99.0598 197.071 98.5104C199.771 97.7004 202.461 96.8505 205.141 96.0005C207.971 95.1105 210.791 94.2105 213.631 93.3605C218.351 91.9405 221.821 93.2604 224.231 97.4204C227.971 103.86 231.641 110.42 235.141 117.02C237.811 122.02 237.231 125.38 232.991 129.33C231.381 130.83 229.661 132.24 227.991 133.61C226.821 134.61 225.641 135.54 224.491 136.54C222.401 138.37 220.491 140.19 218.701 141.97C217.965 142.668 217.401 143.527 217.054 144.48C216.707 145.432 216.586 146.453 216.701 147.46L217.061 151.04C217.531 155.65 218.011 160.42 218.601 165.04C218.756 166.531 219.299 167.954 220.177 169.168C221.054 170.383 222.235 171.345 223.601 171.96C225.021 172.67 226.441 173.36 227.871 174.05C229.871 175 231.811 175.95 233.751 176.94C235.875 177.983 237.938 179.145 239.931 180.42C243.291 182.63 244.531 185.74 243.501 189.42C241.591 196.31 239.501 203.48 237.241 211.32C236.889 212.372 236.416 213.379 235.831 214.32L235.681 214.59C234.061 217.49 231.681 218.84 228.681 218.59C225.014 218.29 221.347 217.957 217.681 217.59L212.771 217.18C212.491 217.18 212.231 217.18 211.961 217.11C207.451 216.43 204.041 217.95 201.231 221.86C199.391 224.43 197.321 226.86 195.311 229.26C194.451 230.26 193.581 231.32 192.731 232.35C191.473 233.788 190.635 235.544 190.309 237.426C189.983 239.308 190.181 241.243 190.881 243.02C192.461 247.68 194.121 252.67 195.571 257.72C197.171 263.28 196.111 265.97 191.231 268.82C185.131 272.37 178.481 276.03 170.901 279.99C166.901 282.09 163.691 281.52 160.541 278.14C158.061 275.48 155.691 272.64 153.401 269.9L151.871 268.06C145.871 260.95 144.691 260.47 135.521 261.68C133.454 261.947 131.391 262.227 129.331 262.52C127.721 262.74 126.111 262.97 124.501 263.18C122.852 263.323 121.269 263.894 119.909 264.838C118.549 265.782 117.461 267.065 116.751 268.56C116.101 269.86 115.461 271.17 114.821 272.47C113.561 275.04 112.271 277.69 110.881 280.25C109.765 282.282 108.456 284.201 106.971 285.98C106.43 286.784 105.703 287.445 104.851 287.906C104 288.368 103.049 288.616 102.081 288.63ZM50.5608 233.63C52.7593 233.644 54.8832 234.429 56.5608 235.85L58.0008 237C61.7708 240 65.6708 243.14 69.5408 246.15C70.627 246.997 71.4989 248.087 72.086 249.332C72.6732 250.578 72.9591 251.944 72.9208 253.32C72.9675 254.904 72.9341 256.49 72.8208 258.07C72.6108 260.91 72.3708 263.75 72.1308 266.58C71.9441 268.86 71.7575 271.14 71.5708 273.42C71.3708 275.92 72.4508 277.78 74.8708 279.11L75.3008 279.34C76.0641 279.804 76.8755 280.183 77.7208 280.47C83.2608 282.084 88.8108 283.67 94.3708 285.23L100.731 287.04C101.642 287.317 102.618 287.296 103.516 286.981C104.415 286.667 105.191 286.075 105.731 285.29C107.159 283.581 108.421 281.739 109.501 279.79C110.861 277.25 112.161 274.61 113.411 272.06C114.051 270.75 114.691 269.44 115.351 268.13C116.167 266.437 117.407 264.982 118.951 263.908C120.494 262.834 122.289 262.177 124.161 262L128.971 261.34C131.041 261.05 133.111 260.76 135.181 260.49C144.841 259.23 146.491 259.87 152.781 267.37L154.311 269.2C156.591 271.93 158.951 274.76 161.401 277.39C164.091 280.27 166.691 280.74 170.101 278.95C177.651 275 184.281 271.36 190.371 267.81C194.701 265.29 195.491 263.25 194.071 258.3C192.651 253.35 190.981 248.3 189.401 243.67C188.631 241.668 188.42 239.495 188.788 237.382C189.156 235.269 190.09 233.295 191.491 231.67C192.341 230.67 193.211 229.59 194.091 228.56C196.091 226.21 198.091 223.77 199.941 221.25C203.051 216.92 206.941 215.18 212.001 215.93C212.231 215.93 212.451 215.93 212.681 215.98H213.131L217.641 216.38C221.311 216.7 224.991 217.02 228.641 217.32C231.121 217.52 232.991 216.46 234.341 214.04L234.491 213.77C235.023 212.904 235.459 211.982 235.791 211.02C238.081 203.19 240.121 196.02 242.041 189.13C242.901 186.05 241.891 183.53 239.041 181.66C237.106 180.416 235.103 179.281 233.041 178.26C231.101 177.26 229.141 176.33 227.191 175.38C225.751 174.69 224.321 174 222.901 173.29C221.337 172.564 219.988 171.446 218.984 170.044C217.98 168.642 217.355 167.005 217.171 165.29C216.581 160.6 216.091 155.82 215.631 151.2L215.261 147.62C215.126 146.412 215.268 145.188 215.677 144.043C216.086 142.897 216.751 141.86 217.621 141.01C219.401 139.21 221.371 137.36 223.491 135.51C224.641 134.51 225.831 133.51 227.021 132.51C228.661 131.16 230.361 129.76 231.941 128.29C235.751 124.75 236.211 122.16 233.801 117.66C230.311 111.11 226.651 104.53 222.931 98.1005C220.831 94.4905 218.061 93.4304 213.931 94.6704C211.101 95.5304 208.281 96.4204 205.461 97.3104C202.641 98.2004 200.081 99.0105 197.381 99.8305C195.673 100.446 193.829 100.585 192.048 100.233C190.267 99.8808 188.616 99.0502 187.271 97.8305C183.971 94.9605 180.491 92.1805 177.131 89.4905L174.001 87.0005C172.872 86.0993 171.971 84.9457 171.37 83.6326C170.769 82.3195 170.485 80.8835 170.541 79.4405C170.541 77.2905 170.691 75.1504 170.851 73.1504C170.971 71.6604 171.121 70.1504 171.281 68.6704C171.571 65.8304 171.871 62.8805 171.921 60.0005C171.981 56.6505 170.391 54.2505 167.571 53.4105C160.571 51.3405 153.101 49.3005 143.381 46.7905C139.781 45.8605 137.651 47.9204 136.511 49.7904C135.171 52.0004 133.901 54.3105 132.681 56.5505L131.931 57.9204C131.224 59.2538 130.517 60.5638 129.811 61.8505C128.811 63.7505 127.811 65.6505 126.721 67.5205C126.195 68.5521 125.428 69.4412 124.484 70.1116C123.54 70.7821 122.448 71.214 121.301 71.3704C119.301 71.6304 117.301 71.8604 115.301 72.0904C111.701 72.5104 107.981 72.9504 104.301 73.5104C99.7408 74.2104 96.1908 72.7604 93.1208 68.9504C90.8608 66.1504 88.4408 63.4004 86.1208 60.7304C84.8108 59.2404 83.5108 57.7304 82.2208 56.2604C81.4619 55.2335 80.3796 54.4916 79.148 54.1543C77.9164 53.8169 76.6072 53.9036 75.4308 54.4004C67.3508 57.2604 59.5408 61.6004 50.8508 68.0604C49.9376 69.0173 49.4258 70.2878 49.4208 71.6105C49.463 73.6155 49.8 75.6035 50.4208 77.5104C51.2408 80.3504 52.1308 83.2104 52.9908 85.9804C53.6908 88.2504 54.4008 90.5204 55.0708 92.7904C55.9508 95.7904 55.5908 98.3804 54.0708 100.34C50.3008 105.06 45.7908 110.62 40.9008 116.07C39.4977 117.349 37.6964 118.105 35.8008 118.21C33.9927 118.336 32.1766 118.276 30.3808 118.03C29.8108 117.97 29.2508 117.91 28.6808 117.87C27.2008 117.75 25.6808 117.6 24.2308 117.46C21.4408 117.18 18.5508 116.9 15.7108 116.81C12.2008 116.67 9.53082 118.66 8.38082 122.17C7.52082 124.8 6.62081 127.63 5.85081 130.52C4.85081 134.37 3.85081 138.23 2.85081 142.09L1.66082 146.77L1.80082 148.47C3.10082 151.57 5.92081 153.1 8.92081 154.72C11.7108 156.23 14.4408 157.72 17.1708 159.11C19.1008 160.11 21.0308 161.11 22.9508 162.11C24.0368 162.676 24.9631 163.505 25.6446 164.522C26.3261 165.539 26.7409 166.711 26.8508 167.93C27.1208 169.93 27.3608 171.93 27.6008 173.93C28.0008 177.16 28.4008 180.51 28.8908 183.79C29.6908 189.13 27.9508 193.35 23.5808 196.69C20.0608 199.38 16.4108 202.42 12.0908 206.27C8.87082 209.15 8.44082 211.27 10.3008 215C13.0108 220.41 16.6508 227.53 20.6808 234.58C23.7608 239.96 25.5308 240.67 31.8008 238.99C31.9008 238.99 31.9908 238.93 32.0908 238.9L32.3308 238.82L36.7808 237.43C40.1408 236.43 43.6108 235.3 46.9908 234.18C48.1439 233.808 49.3491 233.622 50.5608 233.63ZM121.811 218.09C109 218.042 96.6736 213.185 87.2732 204.481C77.8728 195.777 72.0832 183.86 71.0508 171.09C70.5177 164.401 71.3219 157.673 73.4165 151.298C75.5111 144.924 78.8542 139.03 83.2508 133.96C92.1608 123.56 104.901 116.8 117.321 115.87C146.231 113.7 170.601 134.39 172.861 162.93C174.561 174.93 170.491 188.39 161.981 199.01C157.58 204.499 152.09 209.016 145.855 212.276C139.621 215.536 132.779 217.468 125.761 217.95C124.441 218 123.121 218.09 121.811 218.09ZM121.441 117.09C120.111 117.09 118.781 117.09 117.441 117.24C105.371 118.14 92.9908 124.72 84.3208 134.85C80.0363 139.783 76.7788 145.521 74.7389 151.729C72.699 157.936 71.9177 164.488 72.4408 171C73.2638 180.924 77.041 190.373 83.2852 198.13C89.5295 205.886 97.9544 211.594 107.473 214.517C116.992 217.44 127.169 217.444 136.69 214.529C146.211 211.613 154.64 205.912 160.891 198.16C169.181 187.83 173.131 174.73 171.481 163.16C169.391 136.6 147.771 117.09 121.441 117.09Z" fill="#231F20"/>
<path d="M294.361 340C291.251 339.6 290.131 337.53 289.691 334.7C289.362 332.199 288.833 329.728 288.111 327.31C287.686 326.025 286.813 324.935 285.651 324.24C282.507 322.722 279.279 321.386 275.981 320.24C275.057 319.997 274.074 320.122 273.241 320.59C270.901 321.92 268.681 323.48 266.401 324.93C262.661 327.3 261.011 327.26 257.871 324.17C255.261 321.59 252.931 318.72 250.421 316.04C249.861 315.53 249.514 314.827 249.451 314.072C249.388 313.317 249.613 312.566 250.081 311.97C251.351 309.92 252.541 307.8 253.991 305.88C255.112 304.539 255.807 302.893 255.985 301.154C256.164 299.414 255.817 297.661 254.991 296.12C250.911 287.12 252.261 288.24 242.991 286.49C237.481 285.49 236.741 284.89 236.511 279.32C236.381 275.94 236.511 272.54 236.681 269.15C236.791 266.81 237.751 265.68 240.021 265.15C242.471 264.57 244.971 264.15 247.461 263.74C248.752 263.575 249.976 263.068 251.006 262.271C252.036 261.475 252.835 260.418 253.321 259.21C254.191 257.21 255.061 255.21 255.881 253.21C256.311 252.201 256.48 251.098 256.372 250.006C256.263 248.914 255.881 247.866 255.261 246.96C253.591 244.28 252.041 241.53 250.401 238.84C249.942 238.229 249.733 237.464 249.819 236.704C249.904 235.944 250.277 235.245 250.861 234.75C254.221 231.45 257.601 228.17 261.121 225.05C261.543 224.797 262.018 224.644 262.508 224.603C262.999 224.561 263.492 224.632 263.951 224.81C265.549 225.582 267.081 226.486 268.531 227.51C269.791 228.31 271.001 229.2 272.251 230C273.121 230.591 274.122 230.961 275.167 231.079C276.212 231.198 277.27 231.061 278.251 230.68C281.041 229.68 283.771 228.45 286.491 227.23C287.328 226.841 288.051 226.241 288.587 225.489C289.123 224.737 289.455 223.859 289.551 222.94C290.101 220.01 290.861 217.13 291.551 214.22C291.655 213.585 291.988 213.009 292.487 212.602C292.987 212.195 293.617 211.985 294.261 212.01C298.901 211.92 303.551 211.9 308.191 211.86C310.191 211.86 311.191 213.03 311.611 214.86C312.211 217.55 312.891 220.22 313.341 222.94C313.442 224.084 313.865 225.175 314.56 226.088C315.256 227.001 316.195 227.699 317.271 228.1C320.101 229.23 322.841 230.55 325.701 231.58C326.608 231.847 327.584 231.75 328.421 231.31C331.161 229.75 333.761 227.94 336.421 226.31C339.651 224.4 340.161 224.39 342.941 226.9C345.546 229.245 348.026 231.725 350.371 234.33C352.571 236.78 352.621 238.54 350.891 241.39C349.321 243.99 347.641 246.53 345.971 249.08C345.616 249.571 345.397 250.146 345.335 250.748C345.274 251.351 345.372 251.959 345.621 252.51C346.961 255.61 348.171 258.78 349.681 261.8C350.287 262.805 351.24 263.552 352.361 263.9C354.711 264.61 357.171 264.97 359.591 265.45C363.931 266.31 365.291 267.8 365.431 272.19C365.521 275.29 365.501 278.4 365.431 281.5C365.321 284.92 364.191 286.18 360.801 286.9C358.491 287.39 356.171 287.79 353.851 288.2C352.7 288.345 351.607 288.791 350.683 289.493C349.76 290.196 349.038 291.13 348.591 292.2C347.361 295.09 346.131 298.01 345.121 300.98C344.883 301.959 345.022 302.991 345.511 303.87C346.981 306.46 348.751 308.87 350.261 311.47C352.071 314.57 352.051 315.34 349.621 318.03C347.236 320.669 344.716 323.182 342.071 325.56C339.491 327.87 338.741 327.87 335.791 326.12C333.571 324.81 331.391 323.39 329.291 321.9C328.343 321.15 327.2 320.686 325.998 320.562C324.795 320.438 323.582 320.66 322.501 321.2C320.501 322.13 318.401 323 316.371 323.94C315.291 324.427 314.352 325.179 313.642 326.127C312.932 327.075 312.474 328.187 312.311 329.36C312.051 330.83 311.841 332.36 311.571 333.78C311.001 336.96 310.441 340.16 306.101 340.03L294.361 340ZM301.621 301.7C305.66 302.081 309.72 301.234 313.271 299.27C326.921 291.33 330.961 275.65 324.381 263.35C322.443 259.595 319.635 256.357 316.191 253.908C312.747 251.459 308.766 249.871 304.583 249.274C300.399 248.678 296.133 249.092 292.142 250.482C288.151 251.871 284.55 254.195 281.641 257.26C275.211 263.96 273.901 272.01 274.911 280.75C275.071 282.577 275.552 284.361 276.331 286.02C281.461 296 289.001 302.33 301.621 301.65V301.7Z" fill="#FFFDFA"/>
<path d="M306.331 340.65H294.271C290.271 340.13 289.361 337.04 289.001 334.76C288.678 332.292 288.156 329.855 287.441 327.47C287.072 326.366 286.329 325.426 285.341 324.81C282.217 323.302 279.012 321.966 275.741 320.81C275.007 320.647 274.239 320.757 273.581 321.12C272.021 322.01 270.481 323.02 268.991 324C268.251 324.48 267.521 325 266.771 325.43C262.701 328.02 260.681 327.84 257.381 324.59C255.791 323.01 254.281 321.31 252.821 319.67C251.821 318.58 250.901 317.5 249.911 316.44C249.247 315.816 248.838 314.969 248.76 314.061C248.683 313.153 248.943 312.248 249.491 311.52L250.411 310.02C251.332 308.428 252.334 306.882 253.411 305.39C254.462 304.151 255.115 302.623 255.284 301.007C255.454 299.391 255.132 297.761 254.361 296.33C253.981 295.49 253.641 294.75 253.361 294.07C250.901 288.54 250.901 288.54 245.201 287.52L242.911 287.1C237.241 286.03 236.111 285.29 235.911 279.27C235.771 275.84 235.911 272.34 236.071 269.04C236.004 267.916 236.368 266.808 237.089 265.943C237.809 265.077 238.833 264.518 239.951 264.38C242.131 263.86 244.381 263.48 246.551 263.11L247.441 262.96C248.617 262.815 249.732 262.355 250.67 261.63C251.608 260.906 252.333 259.942 252.771 258.84L253.111 258.08C253.861 256.34 254.611 254.6 255.321 252.84C255.709 251.933 255.862 250.941 255.764 249.958C255.666 248.976 255.321 248.034 254.761 247.22C253.761 245.69 252.891 244.13 251.971 242.58C251.281 241.41 250.601 240.25 249.891 239.09C249.359 238.34 249.123 237.42 249.228 236.506C249.333 235.593 249.772 234.75 250.461 234.14C253.521 231.14 257.101 227.66 260.751 224.42C261.272 224.08 261.867 223.869 262.486 223.804C263.105 223.74 263.731 223.824 264.311 224.05C265.605 224.644 266.844 225.354 268.011 226.17L269.011 226.81C269.651 227.22 270.281 227.65 270.901 228.08C271.521 228.51 272.111 228.91 272.731 229.3C273.49 229.828 274.364 230.167 275.281 230.289C276.198 230.41 277.13 230.312 278.001 230C280.631 229 283.181 227.92 286.211 226.57C286.944 226.222 287.574 225.69 288.04 225.026C288.506 224.362 288.792 223.588 288.871 222.78C289.261 220.71 289.761 218.64 290.241 216.63C290.441 215.77 290.651 214.9 290.851 214.03C290.99 213.243 291.408 212.533 292.029 212.03C292.65 211.526 293.432 211.264 294.231 211.29C297.701 211.21 301.171 211.19 304.641 211.16H308.171C309.641 211.1 311.611 211.75 312.271 214.69C312.421 215.37 312.581 216.05 312.741 216.74C313.191 218.74 313.671 220.74 314.011 222.8C314.093 223.826 314.466 224.808 315.086 225.629C315.706 226.451 316.547 227.079 317.511 227.44C318.671 227.9 319.821 228.39 320.961 228.89C322.581 229.58 324.251 230.3 325.911 230.89C326.627 231.084 327.389 231.006 328.051 230.67C329.561 229.81 331.051 228.86 332.501 227.94C333.691 227.17 334.881 226.41 336.101 225.69C339.641 223.6 340.461 223.69 343.441 226.36C346.06 228.728 348.557 231.228 350.921 233.85C353.291 236.49 353.451 238.55 351.521 241.73C350.131 244.03 348.631 246.31 347.191 248.52L346.591 249.44C346.295 249.832 346.11 250.296 346.058 250.784C346.005 251.272 346.085 251.765 346.291 252.21C346.691 253.14 347.081 254.07 347.471 255.01C348.361 257.15 349.291 259.37 350.341 261.47C350.857 262.302 351.656 262.92 352.591 263.21C354.341 263.703 356.117 264.1 357.911 264.4L359.761 264.75C364.461 265.67 366.011 267.47 366.151 272.15C366.241 275.15 366.231 278.27 366.151 281.51C366.021 285.24 364.711 286.77 360.961 287.51C358.911 287.95 356.821 288.32 354.791 288.68L354.001 288.82C352.963 288.935 351.975 289.326 351.14 289.952C350.304 290.578 349.652 291.417 349.251 292.38C347.941 295.47 346.771 298.25 345.801 301.12C345.627 301.906 345.748 302.728 346.141 303.43C346.901 304.78 347.771 306.12 348.611 307.43C349.451 308.74 350.161 309.81 350.881 311.04C352.881 314.45 352.761 315.55 350.161 318.42C347.758 321.081 345.218 323.615 342.551 326.01C339.781 328.49 338.721 328.59 335.451 326.65C333.241 325.34 331.041 323.91 328.911 322.4C328.064 321.718 327.037 321.294 325.955 321.181C324.873 321.067 323.781 321.268 322.811 321.76L319.911 323C318.821 323.47 317.741 323.95 316.661 324.45C315.675 324.889 314.819 325.575 314.178 326.443C313.536 327.31 313.131 328.329 313.001 329.4C312.861 330.13 312.751 330.87 312.631 331.6C312.511 332.33 312.391 333.08 312.261 333.82C311.711 336.88 311.001 340.65 306.331 340.65ZM294.411 339.26H306.091C309.661 339.39 310.241 337.17 310.891 333.6C311.018 332.854 311.137 332.114 311.251 331.38C311.371 330.64 311.491 329.9 311.621 329.16C311.798 327.873 312.301 326.652 313.081 325.613C313.862 324.574 314.894 323.75 316.081 323.22C317.161 322.72 318.251 322.22 319.351 321.76L322.211 320.49C323.401 319.892 324.737 319.646 326.062 319.781C327.386 319.916 328.645 320.425 329.691 321.25C331.791 322.74 333.961 324.15 336.141 325.44C338.881 327.06 339.291 327.03 341.601 324.96C344.235 322.602 346.741 320.105 349.111 317.48C351.301 315.05 351.341 314.62 349.651 311.74C348.951 310.53 348.171 309.34 347.421 308.18C346.571 306.87 345.691 305.52 344.911 304.13C344.319 303.082 344.158 301.845 344.461 300.68C345.461 297.77 346.631 294.96 347.951 291.84C348.443 290.666 349.237 289.642 350.252 288.873C351.267 288.104 352.467 287.617 353.731 287.46L354.531 287.31C356.531 286.96 358.621 286.59 360.651 286.16C363.751 285.51 364.651 284.49 364.741 281.42C364.831 278.35 364.861 275.09 364.741 272.15C364.621 268.15 363.531 266.88 359.471 266.07L357.641 265.73C355.796 265.426 353.97 265.019 352.171 264.51C350.862 264.114 349.754 263.235 349.071 262.05C348.001 259.91 347.071 257.67 346.161 255.5C345.771 254.58 345.391 253.65 344.991 252.72C344.697 252.064 344.58 251.342 344.652 250.626C344.724 249.91 344.982 249.226 345.401 248.64L346.001 247.72C347.441 245.52 348.931 243.25 350.311 240.97C351.921 238.31 351.821 236.92 349.861 234.74C347.533 232.155 345.073 229.691 342.491 227.36C339.961 225.08 339.801 225.07 336.791 226.85C335.591 227.57 334.411 228.32 333.231 229.07C331.771 230 330.231 230.97 328.721 231.84C327.705 232.375 326.52 232.49 325.421 232.16C323.711 231.54 322.021 230.81 320.421 230.11C319.291 229.62 318.151 229.11 317.001 228.67C315.811 228.227 314.771 227.457 313.999 226.449C313.228 225.441 312.757 224.235 312.641 222.97C312.311 220.97 311.841 218.97 311.391 216.97C311.231 216.28 311.071 215.6 310.921 214.91C310.541 213.22 309.711 212.47 308.231 212.47H304.701C301.241 212.47 297.771 212.52 294.311 212.59C293.833 212.584 293.368 212.749 293.002 213.055C292.635 213.361 292.39 213.789 292.311 214.26C292.111 215.13 291.901 216 291.691 216.86C291.211 218.86 290.691 220.92 290.341 222.95C290.228 223.981 289.85 224.965 289.244 225.807C288.637 226.648 287.823 227.318 286.881 227.75C283.831 229.11 281.251 230.23 278.591 231.22C277.516 231.632 276.358 231.779 275.214 231.648C274.071 231.518 272.975 231.114 272.021 230.47C271.391 230.07 270.771 229.65 270.161 229.22C269.551 228.79 268.931 228.38 268.301 227.98C267.961 227.77 267.631 227.55 267.301 227.33C266.205 226.558 265.04 225.888 263.821 225.33C263.481 225.208 263.119 225.155 262.759 225.176C262.398 225.196 262.045 225.29 261.721 225.45C258.101 228.67 254.541 232.13 251.491 235.13C251.027 235.517 250.73 236.068 250.663 236.668C250.596 237.268 250.764 237.871 251.131 238.35C251.841 239.52 252.531 240.69 253.221 241.86C254.131 243.4 255.051 244.95 255.991 246.47C256.666 247.471 257.081 248.624 257.2 249.825C257.318 251.026 257.137 252.237 256.671 253.35C255.951 255.12 255.191 256.87 254.441 258.62L254.101 259.39C253.569 260.704 252.698 261.852 251.577 262.718C250.456 263.584 249.126 264.137 247.721 264.32L246.831 264.48C244.681 264.84 242.461 265.22 240.321 265.73C238.321 266.19 237.611 267.08 237.521 269.1C237.351 272.5 237.211 275.83 237.351 279.2C237.561 284.47 238.131 284.75 243.261 285.72L245.541 286.13C251.841 287.27 252.011 287.4 254.731 293.5C255.021 294.17 255.361 294.91 255.731 295.74C256.605 297.398 256.968 299.279 256.772 301.143C256.576 303.007 255.831 304.771 254.631 306.21C253.569 307.665 252.584 309.173 251.681 310.73C251.371 311.24 251.071 311.73 250.751 312.25C250.368 312.717 250.18 313.314 250.226 313.916C250.273 314.518 250.551 315.078 251.001 315.48C252.001 316.54 253.001 317.64 253.951 318.73C255.391 320.36 256.881 322.04 258.441 323.58C261.281 326.38 262.571 326.49 266.111 324.25L268.301 322.82C269.811 321.82 271.371 320.82 272.981 319.9C273.988 319.335 275.176 319.187 276.291 319.49C279.614 320.637 282.869 321.973 286.041 323.49C287.371 324.264 288.371 325.499 288.851 326.96C289.587 329.413 290.125 331.921 290.461 334.46C290.851 337.57 292.001 338.93 294.411 339.26ZM303.411 302.41C302.841 302.41 302.261 302.41 301.661 302.35C289.931 302.96 281.661 297.86 275.751 286.29C274.924 284.556 274.419 282.686 274.261 280.77C273.081 270.52 275.261 262.88 281.181 256.77C284.132 253.639 287.79 251.258 291.848 249.826C295.906 248.395 300.248 247.954 304.511 248.54C308.831 249.144 312.945 250.771 316.509 253.287C320.073 255.802 322.984 259.132 325.001 263C332.001 276.13 327.151 292 313.631 299.85C310.504 301.614 306.959 302.499 303.371 302.41H303.411ZM301.621 301H301.671C305.571 301.381 309.496 300.565 312.921 298.66C325.771 291.18 330.441 276.14 323.761 263.66C321.846 259.981 319.079 256.813 315.69 254.421C312.301 252.029 308.389 250.482 304.281 249.91C300.234 249.353 296.113 249.772 292.261 251.132C288.41 252.493 284.94 254.755 282.141 257.73C276.551 263.56 274.471 270.84 275.601 280.65C275.751 282.384 276.208 284.077 276.951 285.65C282.611 296.65 290.441 301.56 301.581 300.96L301.621 301Z" fill="#231F20"/>
<path d="M179.371 316.46C179.474 316.094 179.615 315.738 179.791 315.4C180.183 314.804 180.624 314.242 181.111 313.72C183.411 311.32 183.901 308.72 182.241 305.8C181.545 304.859 180.637 304.095 179.591 303.57C178.541 303.019 177.459 302.532 176.351 302.11C176.007 301.992 175.717 301.754 175.534 301.441C175.351 301.127 175.286 300.758 175.351 300.4C175.651 298.32 175.911 296.24 176.351 294.18C176.452 293.921 176.611 293.689 176.816 293.5C177.02 293.311 177.265 293.171 177.531 293.09C178.461 292.891 179.41 292.797 180.361 292.81C181.352 292.805 182.325 292.543 183.184 292.048C184.043 291.554 184.758 290.845 185.261 289.99C186.801 287.74 187.261 285.83 185.731 283.25C183.911 280.14 184.201 279.84 187.091 277.58C188.091 276.77 189.231 276.06 190.271 275.28C190.388 275.173 190.526 275.09 190.675 275.037C190.825 274.983 190.984 274.959 191.142 274.966C191.301 274.974 191.457 275.012 191.601 275.08C191.745 275.148 191.874 275.243 191.981 275.36C193.091 276.36 194.241 277.24 195.361 278.19C195.776 278.566 196.275 278.836 196.816 278.979C197.357 279.122 197.925 279.132 198.471 279.01C199.241 278.85 200.011 278.64 200.791 278.48C201.732 278.317 202.603 277.876 203.291 277.212C203.979 276.549 204.453 275.695 204.651 274.76C205.961 270.12 206.821 270.82 210.121 271.37C211.251 271.56 212.371 271.86 213.501 272.08C213.897 272.11 214.268 272.286 214.542 272.575C214.816 272.863 214.972 273.243 214.981 273.64C215.111 275.15 215.351 276.64 215.441 278.14C215.435 278.548 215.54 278.949 215.744 279.301C215.949 279.653 216.245 279.943 216.601 280.14C221.341 283.14 220.871 283.14 225.661 280.89C227.401 280.07 227.961 280.18 229.191 281.62C230.421 283.06 231.261 284.34 232.281 285.7C232.564 286.012 232.717 286.42 232.707 286.84C232.698 287.261 232.527 287.662 232.231 287.96C231.101 289.33 229.951 290.71 228.891 292.14C228.606 292.563 228.481 293.074 228.541 293.58C228.791 294.87 229.181 296.12 229.541 297.38C229.678 297.998 229.978 298.567 230.411 299.028C230.844 299.489 231.393 299.825 232.001 300C233.215 300.359 234.386 300.853 235.491 301.47C235.774 301.661 236.011 301.912 236.184 302.207C236.357 302.501 236.462 302.83 236.491 303.17C236.401 305.1 236.131 307.04 235.851 308.96C235.803 309.486 235.548 309.971 235.144 310.311C234.739 310.65 234.217 310.815 233.691 310.77C233.414 310.786 233.137 310.786 232.861 310.77C229.321 310.5 227.141 312.33 225.651 315.35C225.348 315.885 225.172 316.483 225.137 317.097C225.102 317.711 225.21 318.325 225.451 318.89C225.911 319.94 226.361 321 226.831 322.05C227.114 322.513 227.204 323.068 227.08 323.596C226.956 324.124 226.63 324.582 226.171 324.87C224.704 325.95 223.247 327.047 221.801 328.16C221.638 328.307 221.448 328.42 221.241 328.493C221.034 328.566 220.815 328.596 220.596 328.583C220.378 328.57 220.164 328.514 219.967 328.417C219.77 328.321 219.595 328.186 219.451 328.02C218.451 327.15 217.451 326.33 216.451 325.44C216.076 325.053 215.608 324.767 215.092 324.612C214.575 324.456 214.028 324.435 213.501 324.55C212.215 324.791 210.948 325.125 209.711 325.55C209.035 325.861 208.48 326.384 208.131 327.04C207.65 328.042 207.274 329.091 207.011 330.17C206.918 330.847 206.566 331.46 206.028 331.881C205.49 332.301 204.809 332.494 204.131 332.42C202.201 332.21 200.301 331.79 198.381 331.47C197.983 331.414 197.62 331.214 197.36 330.908C197.101 330.602 196.962 330.212 196.971 329.81C196.881 328.9 196.841 327.99 196.771 327.07C196.76 326.517 196.703 325.965 196.601 325.42C195.881 322.59 190.931 320.33 188.331 321.61C187.331 322.1 186.381 322.69 185.331 323.1C185.114 323.178 184.884 323.209 184.655 323.192C184.426 323.175 184.203 323.109 184.001 323C182.046 321.419 180.514 319.379 179.541 317.06C179.468 316.865 179.411 316.665 179.371 316.46ZM206.291 314.32C209.564 314.284 212.693 312.964 215.004 310.646C217.316 308.327 218.625 305.194 218.651 301.92C218.668 300.245 218.354 298.584 217.727 297.03C217.099 295.477 216.171 294.063 214.996 292.87C213.82 291.677 212.42 290.728 210.876 290.078C209.333 289.427 207.676 289.088 206.001 289.08C202.632 289.162 199.429 290.56 197.079 292.975C194.729 295.39 193.419 298.631 193.431 302C193.458 303.656 193.813 305.29 194.476 306.808C195.138 308.326 196.095 309.697 197.291 310.843C198.487 311.988 199.898 312.886 201.443 313.483C202.988 314.08 204.635 314.364 206.291 314.32Z" fill="#D1D3D4"/>
<path d="M204.521 333.15H204.111C202.741 333 201.371 332.74 200.041 332.5L198.331 332.19C197.778 332.113 197.271 331.839 196.903 331.419C196.536 330.998 196.333 330.459 196.331 329.9C196.281 329.36 196.241 328.81 196.211 328.27L196.101 326.7C196.094 326.338 196.054 325.976 195.981 325.62C195.342 324.307 194.267 323.255 192.94 322.644C191.612 322.033 190.114 321.901 188.701 322.27C188.351 322.44 188.011 322.62 187.701 322.81C187.053 323.18 186.385 323.514 185.701 323.81C185.359 323.949 184.99 324.003 184.623 323.97C184.256 323.937 183.902 323.817 183.591 323.62C181.549 321.968 179.945 319.839 178.921 317.42C178.853 317.253 178.803 317.078 178.771 316.9L178.721 316.68C178.676 316.544 178.676 316.397 178.721 316.26L178.811 315.98C178.901 315.657 179.035 315.347 179.211 315.06C179.625 314.434 180.09 313.842 180.601 313.29C182.771 311.03 183.101 308.78 181.601 306.2C180.975 305.377 180.167 304.71 179.241 304.25C178.567 303.859 177.861 303.524 177.131 303.25L176.031 302.79C175.548 302.61 175.143 302.266 174.885 301.819C174.628 301.372 174.535 300.849 174.621 300.34L174.781 299.22C175.011 297.53 175.251 295.79 175.591 294.08C175.72 293.692 175.941 293.341 176.235 293.058C176.53 292.774 176.888 292.565 177.281 292.45C178.267 292.24 179.273 292.139 180.281 292.15C181.162 292.15 182.028 291.917 182.79 291.474C183.552 291.032 184.184 290.396 184.621 289.63C186.191 287.34 186.311 285.77 185.061 283.63C183.061 280.21 183.461 279.5 186.601 277.06C187.201 276.59 187.811 276.15 188.431 275.72C188.891 275.4 189.351 275.08 189.801 274.72C190.163 274.409 190.63 274.247 191.108 274.267C191.585 274.288 192.037 274.489 192.371 274.83C192.991 275.36 193.611 275.88 194.241 276.39L195.751 277.65C196.085 277.957 196.49 278.179 196.928 278.295C197.367 278.412 197.828 278.421 198.271 278.32C198.671 278.24 199.061 278.15 199.461 278.05C199.861 277.95 200.211 277.87 200.581 277.8C201.399 277.663 202.156 277.281 202.753 276.704C203.349 276.128 203.756 275.384 203.921 274.57C205.171 270.15 206.251 269.95 209.281 270.52L210.171 270.68C210.841 270.79 211.501 270.94 212.171 271.09C212.641 271.19 213.111 271.3 213.581 271.39C214.129 271.448 214.638 271.701 215.014 272.103C215.391 272.505 215.61 273.03 215.631 273.58C215.681 274.21 215.761 274.84 215.831 275.47C215.931 276.34 216.031 277.22 216.091 278.1C216.076 278.398 216.146 278.693 216.293 278.952C216.44 279.21 216.658 279.422 216.921 279.56L217.731 280.07C221.161 282.24 221.161 282.25 224.831 280.5L225.311 280.27C227.311 279.27 228.241 279.49 229.671 281.18C230.461 282.11 231.191 283.11 231.891 284.07L232.791 285.29C233.169 285.726 233.372 286.287 233.359 286.864C233.346 287.441 233.118 287.992 232.721 288.41L232.561 288.61C231.501 289.9 230.401 291.22 229.401 292.61C229.228 292.873 229.151 293.187 229.181 293.5C229.361 294.43 229.631 295.38 229.881 296.3L230.151 297.25C230.274 297.758 230.534 298.222 230.903 298.592C231.271 298.962 231.734 299.225 232.241 299.35C233.504 299.725 234.721 300.238 235.871 300.88C236.258 301.139 236.58 301.484 236.811 301.888C237.042 302.293 237.175 302.745 237.201 303.21C237.111 305.12 236.851 306.99 236.551 309.07C236.485 309.761 236.152 310.399 235.624 310.849C235.096 311.299 234.413 311.525 233.721 311.48H233.441C233.234 311.495 233.027 311.495 232.821 311.48C229.821 311.25 227.821 312.59 226.291 315.67C226.029 316.113 225.876 316.611 225.845 317.124C225.814 317.637 225.905 318.15 226.111 318.62L226.491 319.52C226.821 320.27 227.141 321.03 227.491 321.77C227.843 322.38 227.948 323.101 227.784 323.786C227.621 324.47 227.201 325.066 226.611 325.45C225.137 326.517 223.681 327.607 222.241 328.72C221.786 329.118 221.194 329.323 220.591 329.291C219.988 329.259 219.421 328.994 219.011 328.55L217.791 327.5C217.191 327 216.601 326.5 216.031 325.96C215.739 325.651 215.372 325.423 214.965 325.298C214.558 325.174 214.126 325.157 213.711 325.25L213.101 325.38C212.056 325.577 211.03 325.858 210.031 326.22C209.509 326.465 209.081 326.872 208.811 327.38C208.35 328.339 207.995 329.345 207.751 330.38C207.615 331.144 207.219 331.837 206.63 332.342C206.041 332.847 205.296 333.132 204.521 333.15ZM190.161 320.55C191.325 320.574 192.471 320.847 193.521 321.35C194.401 321.689 195.198 322.214 195.857 322.889C196.517 323.563 197.023 324.372 197.341 325.26C197.437 325.701 197.491 326.15 197.501 326.6L197.611 328.16C197.611 328.69 197.671 329.22 197.721 329.76C197.791 330.5 198.111 330.71 198.561 330.76L200.291 331.07C201.601 331.31 202.941 331.56 204.291 331.7C204.792 331.734 205.287 331.577 205.678 331.262C206.068 330.947 206.327 330.497 206.401 330C206.673 328.875 207.065 327.782 207.571 326.74C207.997 325.935 208.68 325.295 209.511 324.92C210.585 324.533 211.689 324.232 212.811 324.02L213.401 323.89C214.038 323.748 214.7 323.769 215.327 323.953C215.953 324.137 216.522 324.476 216.981 324.94C217.541 325.46 218.111 325.94 218.691 326.44C219.111 326.8 219.531 327.15 219.941 327.52C220.027 327.626 220.134 327.712 220.255 327.774C220.376 327.836 220.509 327.873 220.644 327.883C220.78 327.892 220.916 327.874 221.045 327.829C221.173 327.784 221.291 327.713 221.391 327.62C222.841 326.51 224.301 325.4 225.781 324.32C225.949 324.225 226.095 324.095 226.209 323.94C226.323 323.784 226.404 323.606 226.444 323.417C226.485 323.228 226.485 323.033 226.445 322.844C226.405 322.655 226.325 322.476 226.211 322.32C225.871 321.56 225.551 320.8 225.211 320.04L224.821 319.15C224.539 318.491 224.412 317.776 224.45 317.06C224.488 316.344 224.69 315.646 225.041 315.02C226.821 311.41 229.421 309.8 232.921 310.02C233.054 310.031 233.188 310.031 233.321 310.02H233.691C233.868 310.044 234.048 310.031 234.22 309.982C234.392 309.933 234.551 309.849 234.689 309.736C234.827 309.622 234.94 309.481 235.021 309.322C235.103 309.163 235.15 308.989 235.161 308.81C235.472 306.916 235.685 305.007 235.801 303.09C235.731 302.666 235.502 302.283 235.161 302.02C234.098 301.433 232.975 300.964 231.811 300.62C231.082 300.427 230.419 300.04 229.891 299.502C229.363 298.963 228.99 298.293 228.811 297.56L228.551 296.62C228.281 295.67 228.001 294.7 227.811 293.71C227.706 293.007 227.878 292.29 228.291 291.71C229.291 290.33 230.421 288.99 231.491 287.71L231.651 287.51C231.831 287.324 231.932 287.075 231.932 286.815C231.932 286.556 231.831 286.307 231.651 286.12C231.341 285.71 231.041 285.3 230.741 284.88C230.051 283.94 229.341 282.97 228.581 282.08C227.581 280.88 227.351 280.83 225.891 281.53L225.411 281.75C221.171 283.75 220.931 283.75 216.961 281.25L216.161 280.74C215.712 280.479 215.339 280.106 215.078 279.657C214.817 279.208 214.676 278.7 214.671 278.18C214.621 277.32 214.521 276.47 214.421 275.62C214.341 274.954 214.271 274.314 214.211 273.7C214.161 273.12 213.931 272.88 213.291 272.76L211.841 272.44C211.201 272.3 210.571 272.16 209.931 272.05L209.011 271.88C206.581 271.44 206.261 271.37 205.261 274.94C205.027 276 204.484 276.966 203.7 277.717C202.917 278.468 201.929 278.971 200.861 279.16L199.771 279.4C199.361 279.5 198.951 279.6 198.541 279.68C197.889 279.824 197.212 279.809 196.568 279.634C195.924 279.46 195.331 279.133 194.841 278.68L193.341 277.43C192.701 276.91 192.071 276.43 191.451 275.85C191.091 275.54 190.931 275.56 190.621 275.8C190.311 276.04 189.701 276.47 189.231 276.8C188.761 277.13 188.031 277.64 187.451 278.09C184.721 280.22 184.721 280.22 186.261 282.86C188.141 286.07 187.131 288.35 185.771 290.34C185.207 291.29 184.407 292.078 183.449 292.627C182.49 293.175 181.405 293.466 180.301 293.47C179.404 293.455 178.508 293.543 177.631 293.73C177.353 293.836 177.118 294.029 176.961 294.28C176.631 295.94 176.391 297.66 176.161 299.33L176.001 300.5C175.974 300.605 175.968 300.714 175.983 300.82C175.998 300.927 176.034 301.03 176.088 301.123C176.143 301.216 176.216 301.297 176.302 301.362C176.388 301.427 176.486 301.474 176.591 301.5C176.941 301.66 177.291 301.8 177.651 301.94C178.463 302.226 179.249 302.581 180.001 303C181.151 303.571 182.141 304.42 182.881 305.47C184.651 308.59 184.241 311.53 181.651 314.23C181.196 314.721 180.785 315.249 180.421 315.81C180.314 315.988 180.233 316.18 180.181 316.38C180.181 316.43 180.181 316.47 180.181 316.52V316.57C180.197 316.662 180.22 316.752 180.251 316.84C181.182 319.049 182.646 320.994 184.511 322.5C184.742 322.575 184.99 322.575 185.221 322.5C185.857 322.232 186.478 321.928 187.081 321.59L188.151 321.03C188.778 320.726 189.464 320.562 190.161 320.55ZM206.331 315C202.798 315.051 199.39 313.696 196.857 311.233C194.323 308.771 192.871 305.403 192.821 301.87C192.77 298.338 194.125 294.93 196.588 292.396C199.05 289.863 202.418 288.411 205.951 288.36H206.001C209.561 288.4 212.961 289.848 215.457 292.387C217.953 294.926 219.342 298.35 219.321 301.91C219.305 305.36 217.935 308.666 215.505 311.114C213.075 313.563 209.78 314.959 206.331 315ZM205.911 289.76C204.345 289.785 202.8 290.118 201.364 290.741C199.927 291.363 198.627 292.262 197.538 293.386C196.449 294.511 195.591 295.839 195.015 297.294C194.439 298.75 194.156 300.305 194.181 301.87C194.206 303.436 194.539 304.981 195.161 306.418C195.783 307.854 196.682 309.154 197.806 310.244C198.931 311.333 200.259 312.19 201.715 312.766C203.171 313.342 204.725 313.625 206.291 313.6C209.389 313.593 212.358 312.36 214.552 310.173C216.745 307.985 217.985 305.019 218.001 301.92C218.011 300.335 217.709 298.763 217.112 297.295C216.514 295.826 215.633 294.49 214.518 293.362C213.404 292.235 212.078 291.338 210.616 290.723C209.155 290.109 207.586 289.788 206.001 289.78L205.911 289.76Z" fill="#D1D3D4"/>
<path d="M349.001 72.1305C347.281 71.7605 345.571 71.3204 343.831 71.0304C342.582 70.9406 341.418 70.3685 340.584 69.4354C339.749 68.5022 339.311 67.2811 339.361 66.0304C339.241 61.6904 337.771 57.8504 335.881 54.0304C333.069 48.5543 332.534 42.1894 334.391 36.3204C338.211 24.1704 349.781 18.8104 362.261 22.7904C380.661 28.6604 381.801 49.2704 369.051 60.6604C365.611 63.7404 362.301 66.7404 360.211 70.9504C359.051 73.2804 356.971 74.0005 354.411 73.3505C352.601 72.8605 350.781 72.5305 349.001 72.1305Z" fill="#FFFDFA"/>
<path d="M356.101 74.2505C355.466 74.2471 354.834 74.1631 354.221 74.0005C352.991 73.6905 351.761 73.4305 350.521 73.1805L348.831 72.8205C348.301 72.7105 347.771 72.5805 347.251 72.4605C346.091 72.2005 344.881 71.9205 343.701 71.7205C342.29 71.6032 340.978 70.9483 340.036 69.8912C339.094 68.8341 338.595 67.4555 338.641 66.0405C338.372 61.9256 337.208 57.9191 335.231 54.3005C332.354 48.6616 331.808 42.118 333.711 36.0805C334.489 33.3193 335.817 30.7441 337.617 28.5099C339.416 26.2758 341.649 24.4289 344.181 23.0805C349.471 20.3405 355.961 19.9705 362.451 22.0805C370.561 24.6705 376.141 30.4505 377.731 37.9505C379.481 46.1505 376.331 55.0405 369.501 61.1405C366.251 64.0405 362.891 67.0405 360.821 71.2205C360.422 72.1355 359.76 72.9117 358.92 73.451C358.08 73.9903 357.099 74.2685 356.101 74.2505ZM349.101 71.4505L350.791 71.8005C352.041 72.0605 353.301 72.3305 354.541 72.6405C356.891 73.2405 358.541 72.5605 359.541 70.6405C361.741 66.2205 365.201 63.1305 368.541 60.1405C375.001 54.3705 377.991 45.9905 376.351 38.2805C374.831 31.1905 369.741 25.9205 362.001 23.4505C355.861 21.4505 349.761 21.8305 344.801 24.4505C342.446 25.704 340.366 27.4158 338.683 29.4853C337 31.5547 335.748 33.9399 335.001 36.5005C334.099 39.3202 333.763 42.2901 334.012 45.24C334.261 48.1899 335.09 51.0616 336.451 53.6905C338.517 57.4859 339.729 61.6874 340.001 66.0005C339.946 67.0906 340.324 68.1582 341.053 68.9709C341.781 69.7837 342.801 70.2759 343.891 70.3405C345.121 70.5405 346.341 70.8305 347.521 71.1005L349.081 71.4505H349.101Z" fill="#231F20"/>
<path d="M355.889 73.6477L341.99 70.6451C340.748 70.3769 339.524 71.166 339.256 72.4076L339.097 73.1407C338.829 74.3823 339.618 75.6063 340.86 75.8745L354.759 78.8771C356.001 79.1453 357.225 78.3562 357.493 77.1146L357.651 76.3815C357.92 75.1399 357.131 73.916 355.889 73.6477Z" fill="#FFFDFA"/>
<path d="M355.241 79.6305C355.026 79.6299 354.812 79.6098 354.601 79.5705L340.711 76.5705C340.325 76.4874 339.96 76.3291 339.635 76.1047C339.311 75.8803 339.034 75.594 338.82 75.2625C338.607 74.9309 338.461 74.5604 338.39 74.1722C338.32 73.7841 338.327 73.3859 338.411 73.0005L338.561 72.2805C338.644 71.8948 338.802 71.5294 339.027 71.205C339.251 70.8806 339.537 70.6037 339.869 70.3901C340.2 70.1764 340.571 70.0303 340.959 69.96C341.347 69.8897 341.745 69.8967 342.131 69.9805L356.031 72.9805C356.416 73.0635 356.782 73.2218 357.106 73.4462C357.431 73.6707 357.708 73.9569 357.921 74.2885C358.135 74.62 358.281 74.9905 358.351 75.3787C358.422 75.7668 358.415 76.165 358.331 76.5505L358.181 77.2705C358.034 77.9407 357.663 78.5405 357.128 78.97C356.593 79.3994 355.927 79.6325 355.241 79.6305ZM354.901 78.2005C355.317 78.2843 355.749 78.2027 356.105 77.973C356.462 77.7433 356.715 77.3837 356.811 76.9705L356.961 76.2405C357.006 76.0349 357.01 75.8223 356.973 75.6151C356.936 75.4078 356.857 75.2101 356.743 75.0333C356.629 74.8566 356.48 74.7043 356.306 74.5854C356.133 74.4664 355.937 74.3832 355.731 74.3405L341.841 71.3405C341.425 71.2513 340.99 71.3306 340.632 71.5611C340.274 71.7917 340.022 72.1546 339.931 72.5705L339.781 73.3005C339.735 73.5054 339.731 73.7173 339.767 73.924C339.804 74.1306 339.882 74.328 339.995 74.5046C340.108 74.6813 340.256 74.8337 340.428 74.9531C340.601 75.0726 340.796 75.1566 341.001 75.2005L354.901 78.2005Z" fill="#231F20"/>
<path d="M354.76 78.8812L340.861 75.8786C339.619 75.6104 338.395 76.3995 338.127 77.6411L337.969 78.3742C337.7 79.6158 338.489 80.8398 339.731 81.108L353.63 84.1106C354.872 84.3788 356.096 83.5897 356.364 82.3481L356.523 81.615C356.791 80.3734 356.002 79.1494 354.76 78.8812Z" fill="#FFFDFA"/>
<path d="M354.111 84.8605C353.896 84.8614 353.681 84.8379 353.471 84.7905L339.581 81.7905C339.195 81.7074 338.83 81.5492 338.505 81.3247C338.181 81.1003 337.904 80.814 337.69 80.4825C337.477 80.1509 337.331 79.7804 337.26 79.3922C337.19 79.0041 337.197 78.6059 337.281 78.2205L337.431 77.5005C337.513 77.1139 337.67 76.7474 337.894 76.4219C338.118 76.0964 338.404 75.8184 338.736 75.6037C339.068 75.3891 339.438 75.2421 339.827 75.1712C340.216 75.1003 340.615 75.1068 341.001 75.1905L354.901 78.1905C355.286 78.2735 355.652 78.4318 355.976 78.6562C356.301 78.8806 356.578 79.1669 356.791 79.4985C357.005 79.8301 357.151 80.2005 357.221 80.5887C357.292 80.9768 357.285 81.375 357.201 81.7605L357.051 82.4805C356.908 83.1544 356.539 83.7588 356.003 84.1922C355.468 84.6256 354.8 84.8616 354.111 84.8605ZM340.371 76.5305C340.004 76.529 339.649 76.6533 339.363 76.8826C339.077 77.112 338.879 77.4324 338.801 77.7905L338.651 78.5105C338.602 78.7164 338.596 78.9303 338.634 79.1385C338.672 79.3468 338.752 79.545 338.871 79.7205C338.983 79.8973 339.129 80.0501 339.301 80.1702C339.473 80.2904 339.666 80.3754 339.871 80.4205L353.761 83.4205C353.967 83.466 354.18 83.4702 354.388 83.433C354.596 83.3957 354.794 83.3176 354.972 83.2033C355.15 83.0889 355.303 82.9406 355.423 82.7667C355.543 82.5929 355.627 82.397 355.671 82.1905L355.821 81.4705C355.867 81.2643 355.872 81.0509 355.834 80.843C355.796 80.6351 355.717 80.437 355.601 80.2605C355.49 80.0836 355.344 79.9313 355.172 79.8127C355 79.694 354.806 79.6117 354.601 79.5705L340.711 76.5705C340.599 76.5474 340.485 76.534 340.371 76.5305Z" fill="#231F20"/>
<path d="M353.811 84.1504C353.381 86.1504 349.811 87.0304 345.901 86.1504C341.991 85.2704 339.111 83.0204 339.541 81.0404L353.811 84.1504Z" fill="#FFFDFA"/>
<path d="M348.781 87.1905C347.772 87.1877 346.766 87.0771 345.781 86.8605C341.391 85.8605 338.361 83.3005 338.881 80.9205C338.897 80.8301 338.932 80.7442 338.984 80.6683C339.035 80.5925 339.103 80.5285 339.181 80.4805C339.258 80.4296 339.345 80.3945 339.436 80.3774C339.527 80.3602 339.62 80.3613 339.711 80.3805L354.001 83.4605C354.181 83.5034 354.338 83.6153 354.437 83.7724C354.536 83.9294 354.57 84.119 354.531 84.3005C354.101 86.1105 351.791 87.1905 348.781 87.1905ZM340.291 81.9405C340.741 83.2405 342.881 84.8005 346.051 85.4905C349.221 86.1805 351.821 85.6305 352.771 84.6405L340.291 81.9405Z" fill="#231F20"/>
<path d="M353.931 71.0005H353.881C353.789 70.9954 353.7 70.9721 353.617 70.932C353.535 70.8919 353.461 70.8358 353.401 70.7669C353.34 70.698 353.294 70.6177 353.265 70.5307C353.236 70.4438 353.224 70.3519 353.231 70.2604C353.473 65.8256 354.225 61.4334 355.471 57.1704C353.636 57.2063 351.807 56.9533 350.051 56.4204C349.455 60.5272 348.484 64.5708 347.151 68.5005L346.991 69.0005C346.938 69.178 346.816 69.3272 346.653 69.4154C346.49 69.5035 346.299 69.5233 346.121 69.4705C345.942 69.415 345.793 69.2916 345.705 69.1269C345.617 68.9622 345.598 68.7695 345.651 68.5904L345.811 68.0904C347.151 64.16 348.119 60.1122 348.701 56.0005C346.217 55.0377 344.001 53.4907 342.241 51.4905C341.116 50.2918 340.342 48.8081 340.001 47.2004C339.812 46.3462 339.847 45.4579 340.101 44.6208C340.354 43.7837 340.819 43.026 341.451 42.4204C341.969 41.9863 342.576 41.6717 343.229 41.4988C343.883 41.326 344.566 41.2992 345.231 41.4204C345.894 41.5149 346.529 41.7548 347.089 42.123C347.649 42.4913 348.121 42.9787 348.471 43.5505C349.471 45.4005 350.111 48.2204 350.261 51.9304C350.298 52.9306 350.282 53.9321 350.211 54.9304C352.058 55.5322 354 55.7898 355.941 55.6905C355.941 55.6105 355.991 55.5305 356.021 55.4605L356.161 55.0404C357.291 51.7204 358.701 47.5904 361.741 45.4204C362.261 45.0604 364.061 43.9004 365.611 44.4204C365.999 44.5596 366.345 44.7936 366.619 45.101C366.894 45.4084 367.087 45.7794 367.181 46.1805C367.478 47.2903 367.508 48.455 367.266 49.5783C367.024 50.7016 366.519 51.7512 365.791 52.6404C364.37 54.3417 362.488 55.5955 360.371 56.2505C359.274 56.6194 358.141 56.8708 356.991 57.0005C355.676 61.3161 354.89 65.7754 354.651 70.2804C354.652 70.3754 354.634 70.4696 354.599 70.5576C354.563 70.6455 354.51 70.7254 354.443 70.7926C354.376 70.8597 354.296 70.9127 354.208 70.9484C354.12 70.9841 354.026 71.0018 353.931 71.0005ZM364.741 45.7605C363.936 45.8401 363.17 46.1451 362.531 46.6404C359.861 48.5404 358.531 52.4304 357.471 55.5604C358.299 55.421 359.115 55.217 359.911 54.9504C361.768 54.3808 363.423 53.2912 364.681 51.8104C365.267 51.0965 365.677 50.255 365.879 49.3536C366.08 48.4521 366.067 47.516 365.841 46.6205C365.631 45.9405 365.271 45.8204 365.151 45.7804C365.016 45.7546 364.877 45.7512 364.741 45.7704V45.7605ZM344.331 42.7605C343.605 42.7343 342.894 42.9724 342.331 43.4305C341.885 43.88 341.56 44.4344 341.386 45.0425C341.211 45.6507 341.192 46.2931 341.331 46.9105C341.643 48.2596 342.313 49.4997 343.271 50.5005C344.782 52.2371 346.67 53.6053 348.791 54.5005C348.791 53.6805 348.841 52.8604 348.791 52.0304C348.651 48.5504 348.111 45.9404 347.181 44.2804C346.932 43.893 346.602 43.5644 346.213 43.3174C345.825 43.0705 345.387 42.9111 344.931 42.8504C344.733 42.8172 344.532 42.8005 344.331 42.8005V42.7605Z" fill="#231F20"/>
<path d="M309.291 70.0004C309.122 69.9945 308.96 69.9276 308.837 69.812C308.713 69.6963 308.636 69.5399 308.619 69.3715C308.602 69.2032 308.646 69.0343 308.744 68.8962C308.842 68.7582 308.986 68.6602 309.151 68.6204L325.151 65.2304C325.332 65.1946 325.52 65.231 325.676 65.3319C325.831 65.4327 325.94 65.5901 325.981 65.7704C326 65.8604 326.001 65.9532 325.984 66.0436C325.967 66.134 325.933 66.2202 325.883 66.2973C325.833 66.3744 325.768 66.4408 325.692 66.4929C325.616 66.5449 325.531 66.5814 325.441 66.6004L309.441 69.9904L309.291 70.0004Z" fill="#D1D3D4"/>
<path d="M332.691 19.3104C332.517 19.3118 332.349 19.2475 332.221 19.1304L322.221 10.0204C322.151 9.95866 322.094 9.88354 322.054 9.79948C322.013 9.71543 321.99 9.62414 321.985 9.53098C321.981 9.43781 321.995 9.34466 322.027 9.25699C322.058 9.16932 322.107 9.08889 322.171 9.02045C322.304 8.88854 322.484 8.81454 322.671 8.81454C322.858 8.81454 323.038 8.88854 323.171 9.02045L333.171 18.1304C333.237 18.1956 333.29 18.2734 333.326 18.3593C333.362 18.4451 333.381 18.5373 333.381 18.6304C333.381 18.7236 333.362 18.8158 333.326 18.9016C333.29 18.9875 333.237 19.0653 333.171 19.1304C333.039 19.2481 332.868 19.3123 332.691 19.3104Z" fill="#D1D3D4"/>
<path d="M388.661 34.2004C388.494 34.1975 388.334 34.135 388.209 34.0244C388.084 33.9137 388.003 33.762 387.98 33.5967C387.957 33.4314 387.994 33.2634 388.084 33.1229C388.174 32.9824 388.311 32.8787 388.471 32.8305L402.921 28.8305C403.101 28.7814 403.294 28.806 403.456 28.8988C403.618 28.9916 403.737 29.1451 403.786 29.3254C403.835 29.5058 403.81 29.6982 403.717 29.8605C403.625 30.0227 403.471 30.1414 403.291 30.1905L388.841 34.1304L388.661 34.2004Z" fill="#D1D3D4"/>
<path d="M383.271 93.0005C383.172 93.0033 383.075 92.9841 382.985 92.9443C382.895 92.9045 382.815 92.8451 382.751 92.7705L374.071 83.0905C373.947 82.9497 373.883 82.7655 373.894 82.5781C373.906 82.3907 373.991 82.2153 374.131 82.0905C374.2 82.0277 374.281 81.9794 374.369 81.9483C374.457 81.9173 374.55 81.9042 374.643 81.9098C374.737 81.9154 374.828 81.9396 374.911 81.9809C374.995 82.0222 375.07 82.0799 375.131 82.1505L383.801 91.8305C383.864 91.8995 383.912 91.9805 383.943 92.0685C383.974 92.1566 383.987 92.2499 383.981 92.3431C383.976 92.4363 383.952 92.5274 383.91 92.6111C383.869 92.6948 383.811 92.7694 383.741 92.8305C383.612 92.9456 383.444 93.0065 383.271 93.0005Z" fill="#D1D3D4"/>
<path d="M362.111 13.0504H362.001C361.909 13.0359 361.822 13.0033 361.743 12.9546C361.664 12.9059 361.596 12.842 361.542 12.7667C361.488 12.6913 361.449 12.606 361.428 12.5157C361.408 12.4253 361.405 12.3318 361.421 12.2404L363.261 0.950443C363.3 0.776385 363.403 0.623654 363.551 0.523419C363.698 0.423183 363.878 0.383004 364.054 0.411076C364.23 0.439147 364.389 0.533353 364.498 0.674473C364.607 0.815593 364.658 0.992983 364.641 1.17044L362.801 12.4704C362.773 12.6329 362.688 12.7802 362.562 12.8863C362.435 12.9924 362.276 13.0505 362.111 13.0504Z" fill="#D1D3D4"/>
<path d="M318.751 43.8004H318.611L304.681 40.9104C304.591 40.8914 304.506 40.8549 304.43 40.8029C304.354 40.7508 304.289 40.6844 304.239 40.6073C304.189 40.5302 304.154 40.444 304.137 40.3536C304.121 40.2632 304.122 40.1704 304.141 40.0804C304.159 39.9898 304.194 39.9037 304.246 39.8272C304.298 39.7507 304.364 39.6853 304.442 39.6349C304.519 39.5846 304.606 39.5503 304.697 39.534C304.788 39.5178 304.881 39.52 304.971 39.5404L318.901 42.4304C319.078 42.459 319.237 42.5544 319.346 42.697C319.455 42.8395 319.504 43.0183 319.485 43.1966C319.466 43.3749 319.379 43.5389 319.242 43.655C319.106 43.7711 318.93 43.8303 318.751 43.8204V43.8004Z" fill="#D1D3D4"/>
<path d="M402.191 61.7105H402.031L389.421 58.7105C389.24 58.6675 389.084 58.5556 388.984 58.3985C388.885 58.2415 388.852 58.052 388.891 57.8704C388.912 57.7802 388.951 57.695 389.005 57.6199C389.059 57.5447 389.128 57.4811 389.207 57.4328C389.286 57.3844 389.374 57.3522 389.466 57.3381C389.557 57.3239 389.651 57.3282 389.741 57.3505L402.351 60.3505C402.531 60.3932 402.687 60.5056 402.784 60.6631C402.882 60.8205 402.913 61.0101 402.871 61.1904C402.831 61.3401 402.743 61.4724 402.62 61.5665C402.497 61.6606 402.346 61.7112 402.191 61.7105Z" fill="#D1D3D4"/>
<path d="M307.641 207.25L327.101 224.53C327.101 224.53 354.671 197.63 352.731 194.53C350.791 191.43 331.001 203.64 331.001 203.64L319.001 190.64" fill="#FFFDFA"/>
<path d="M327.101 225.23C326.927 225.23 326.76 225.166 326.631 225.05L307.171 207.77C307.1 207.709 307.042 207.635 307.001 207.55C306.959 207.466 306.936 207.375 306.931 207.281C306.926 207.188 306.941 207.094 306.973 207.006C307.006 206.918 307.056 206.838 307.121 206.77C307.181 206.699 307.255 206.64 307.339 206.598C307.423 206.556 307.514 206.531 307.608 206.525C307.701 206.52 307.795 206.533 307.883 206.565C307.972 206.597 308.052 206.646 308.121 206.71L327.121 223.56C339.991 210.97 352.781 196.89 352.181 194.81C352.107 194.747 352.017 194.706 351.921 194.69C349.161 194.04 338.171 200.03 331.461 204.21C331.324 204.297 331.162 204.333 331.001 204.313C330.841 204.293 330.692 204.218 330.581 204.1L318.581 191.1C318.514 191.035 318.461 190.957 318.425 190.872C318.389 190.786 318.371 190.694 318.371 190.6C318.371 190.507 318.389 190.415 318.425 190.329C318.461 190.243 318.514 190.166 318.581 190.1C318.714 189.969 318.894 189.895 319.081 189.895C319.268 189.895 319.448 189.969 319.581 190.1L331.191 202.67C334.381 200.67 348.301 192.35 352.191 193.27C352.423 193.316 352.643 193.407 352.839 193.539C353.035 193.672 353.202 193.842 353.331 194.04C355.331 197.3 335.991 216.74 327.581 224.95C327.525 225.028 327.453 225.093 327.37 225.141C327.288 225.189 327.196 225.22 327.101 225.23Z" fill="#231F20"/>
<path d="M279.881 149.44C279.881 149.44 311.131 179.73 325.321 192.61L306.801 210.54C306.801 210.54 257.211 168.76 241.001 162.06L279.881 149.44Z" fill="#231F20"/>
<path d="M306.801 211.24C306.635 211.239 306.476 211.179 306.351 211.07C305.851 210.66 256.661 169.28 240.741 162.7C240.61 162.646 240.498 162.552 240.421 162.433C240.344 162.313 240.306 162.173 240.311 162.03C240.317 161.888 240.366 161.751 240.452 161.636C240.538 161.522 240.656 161.437 240.791 161.39L279.661 148.78C279.781 148.741 279.91 148.736 280.033 148.764C280.156 148.792 280.269 148.853 280.361 148.94C280.671 149.24 311.771 179.37 325.791 192.09C325.862 192.155 325.919 192.234 325.959 192.321C325.999 192.409 326.02 192.504 326.021 192.6C326.022 192.695 326.003 192.789 325.967 192.877C325.931 192.964 325.878 193.044 325.811 193.11L307.281 211C307.221 211.07 307.148 211.128 307.065 211.169C306.983 211.21 306.893 211.235 306.801 211.24ZM242.941 162.16C259.691 170.28 301.501 205.16 306.761 209.6L324.301 192.6C310.791 180.29 282.901 153.32 279.691 150.21L242.941 162.16Z" fill="#231F20"/>
<path d="M189.721 121.52C190.121 122.64 187.421 161.52 205.911 166.91C224.401 172.3 258.841 166.91 258.841 166.91L252.401 199.79L274.881 203.18C274.881 203.18 296.881 148.07 291.421 143.53C281.751 135.48 224.871 116.7 224.871 116.7L189.721 121.52Z" fill="#231F20"/>
<path d="M274.881 203.88H274.781L252.291 200.49C252.199 200.475 252.111 200.442 252.032 200.392C251.953 200.342 251.884 200.277 251.831 200.2C251.777 200.124 251.739 200.038 251.718 199.947C251.698 199.856 251.695 199.762 251.711 199.67L258.001 167.74C252.231 168.56 222.441 172.44 205.761 167.57C194.761 164.35 189.121 149.57 189.121 123.64C189.121 122.73 189.121 121.87 189.121 121.69C189.087 121.598 189.076 121.499 189.088 121.402C189.101 121.305 189.136 121.212 189.191 121.13C189.248 121.045 189.323 120.974 189.411 120.922C189.5 120.87 189.599 120.839 189.701 120.83L224.771 116C224.877 115.981 224.985 115.981 225.091 116C227.411 116.77 282.201 134.92 291.871 143C297.551 147.73 277.801 197.76 275.531 203.45C275.477 203.578 275.387 203.688 275.271 203.764C275.155 203.841 275.02 203.881 274.881 203.88ZM253.221 199.21L274.441 202.41C282.861 181.24 294.641 147.11 290.981 144.07C281.761 136.4 228.091 118.5 224.801 117.41L190.461 122.13C190.461 122.46 190.461 122.94 190.461 123.64C190.461 148.88 195.721 163.21 206.101 166.24C224.241 171.53 258.381 166.24 258.721 166.24C258.831 166.223 258.944 166.232 259.05 166.266C259.156 166.301 259.252 166.361 259.331 166.44C259.408 166.522 259.464 166.621 259.495 166.729C259.527 166.837 259.532 166.95 259.511 167.06L253.221 199.21Z" fill="#231F20"/>
<path d="M240.171 61.7705L276.641 74.5404L278.291 46.9405C278.291 46.9405 275.091 41.5004 274.881 40.0904C274.671 38.6804 278.291 36.9604 278.291 36.9604C278.291 36.9604 278.521 26.8504 279.651 25.4704C280.781 24.0904 282.751 23.7004 282.951 25.4704C283.151 27.2404 283.001 37.0004 283.001 37.0004C283.001 37.0004 289.301 37.6804 290.091 38.7904C290.881 39.9004 291.281 46.3505 290.091 47.8605C288.901 49.3705 300.341 93.5105 296.011 94.4905C291.681 95.4705 232.271 84.8404 232.271 84.8404" fill="#FFFDFA"/>
<path d="M295.151 95.1504C286.471 95.1504 234.431 85.8405 232.151 85.4305C232.068 85.4149 231.989 85.3831 231.919 85.3369C231.848 85.2907 231.787 85.2311 231.74 85.1614C231.693 85.0917 231.659 85.0133 231.642 84.9308C231.625 84.8483 231.625 84.7632 231.641 84.6805C231.654 84.5974 231.684 84.5179 231.729 84.4468C231.773 84.3757 231.832 84.3144 231.901 84.2667C231.971 84.219 232.049 84.1859 232.131 84.1693C232.214 84.1528 232.299 84.1532 232.381 84.1705C248.861 87.1705 292.431 94.6105 295.851 93.8305C298.011 93.3405 293.661 71.6505 291.851 62.3905C289.401 50.1905 289.091 48.0905 289.621 47.3905C290.571 46.1805 290.251 40.0105 289.621 39.0905C289.251 38.6105 286.211 37.9105 282.981 37.5605C282.822 37.5477 282.674 37.474 282.567 37.3548C282.461 37.2356 282.405 37.08 282.411 36.9205C282.411 36.8205 282.601 27.2305 282.411 25.5105C282.361 25.0105 282.131 24.9405 282.061 24.9205C281.705 24.9094 281.352 24.9889 281.036 25.1516C280.719 25.3142 280.449 25.5547 280.251 25.8505C279.631 26.6005 279.141 32.0805 279.031 36.9405C279.026 37.0586 278.99 37.1732 278.926 37.2732C278.863 37.3732 278.775 37.4549 278.671 37.5105C276.991 38.3005 275.541 39.5105 275.611 39.9605C275.751 40.9005 277.731 44.5205 278.941 46.5805C279.01 46.6907 279.042 46.8206 279.031 46.9505L277.381 74.5505C277.375 74.6481 277.346 74.743 277.298 74.828C277.249 74.9129 277.182 74.9856 277.101 75.0405C277.017 75.0947 276.923 75.1299 276.825 75.1437C276.726 75.1576 276.626 75.1496 276.531 75.1205L240.001 62.3805C239.84 62.3234 239.709 62.205 239.636 62.0512C239.563 61.8974 239.554 61.7209 239.611 61.5605C239.668 61.4 239.786 61.2688 239.94 61.1956C240.094 61.1225 240.27 61.1134 240.431 61.1705L276.091 73.6605L277.681 47.0905C277.071 46.0905 274.501 41.5805 274.291 40.1805C274.061 38.6205 276.511 37.1805 277.701 36.5605C277.771 34.1905 278.061 26.4505 279.201 25.0705C279.549 24.5726 280.029 24.1823 280.588 23.9437C281.146 23.7051 281.761 23.6277 282.361 23.7205C282.719 23.836 283.032 24.0596 283.258 24.3604C283.483 24.6612 283.61 25.0246 283.621 25.4005C283.801 26.9605 283.681 34.2405 283.621 36.4005C285.821 36.6605 289.801 37.2805 290.621 38.4005C291.621 39.7505 291.961 46.5004 290.621 48.2304C290.461 48.9904 291.801 55.6905 293.091 62.1605C297.551 84.4105 299.091 94.4405 296.171 95.1005C295.833 95.1497 295.492 95.1665 295.151 95.1504Z" fill="#231F20"/>
<path d="M233.461 21.6605C232.073 19.4511 230.076 17.6903 227.711 16.5905C225.711 15.7905 224.281 16.4105 222.311 16.7905C221.521 16.9405 221.191 18.0305 220.381 18.1005C219.571 18.1705 218.201 17.1005 217.381 16.8805C199.641 12.3205 194.671 35.1805 184.191 43.9305C177.311 49.6705 168.291 53.3104 163.641 60.9304C162.211 63.3101 161.282 65.9565 160.911 68.7077C160.539 71.4589 160.733 74.2569 161.481 76.9305C162.656 80.5792 164.512 83.9723 166.951 86.9304C169.738 90.6551 173.116 93.898 176.951 96.5304C189.371 104.77 206.751 103.43 219.081 95.0505C236.421 83.2705 242.591 62.2005 240.761 42.2305C240.18 34.8508 237.662 27.7551 233.461 21.6605Z" fill="#FFFDFA"/>
<path d="M196.211 102.82C189.239 102.908 182.395 100.944 176.531 97.1704C172.626 94.5037 169.192 91.2053 166.371 87.4105C163.863 84.3866 161.965 80.9059 160.781 77.1605C160.011 74.3936 159.811 71.4993 160.192 68.6528C160.574 65.8063 161.529 63.0669 163.001 60.6005C166.171 55.4005 171.331 51.9804 176.321 48.6804C178.876 47.054 181.34 45.288 183.701 43.3905C187.021 40.6205 189.761 36.3905 192.651 32.0005C198.751 22.6605 205.051 13.0005 217.521 16.2105C217.992 16.3619 218.445 16.5666 218.871 16.8205C219.31 17.0973 219.794 17.2969 220.301 17.4105C220.461 17.4105 220.661 17.1805 220.871 16.9605C221.199 16.5465 221.651 16.2486 222.161 16.1105C222.541 16.0405 222.891 15.9504 223.221 15.8804C224.763 15.3703 226.432 15.3914 227.961 15.9405C230.761 17.0305 232.761 19.5005 233.961 21.2605C238.242 27.4824 240.796 34.729 241.361 42.2605C243.441 64.9705 235.231 84.9605 219.361 95.7205C212.517 100.326 204.46 102.797 196.211 102.82ZM213.001 17.0005C204.151 17.0005 198.941 25.0005 193.871 32.7705C190.871 37.2905 188.131 41.5705 184.651 44.4705C182.247 46.3986 179.74 48.1946 177.141 49.8505C172.051 53.2205 167.251 56.4004 164.241 61.3404C162.868 63.6414 161.976 66.1968 161.618 68.8524C161.261 71.5079 161.445 74.2083 162.161 76.7904C163.296 80.3653 165.113 83.6864 167.511 86.5705C170.235 90.2294 173.542 93.4153 177.301 96.0005C188.971 103.75 205.981 103.14 218.661 94.5304C234.081 84.0604 242.071 64.5305 240.031 42.3505C239.482 35.0758 237.019 28.0757 232.891 22.0604C231.741 20.4404 229.891 18.1905 227.461 17.2305C226.196 16.7804 224.815 16.7804 223.551 17.2305C223.191 17.3105 222.831 17.3905 222.441 17.4605C222.226 17.5664 222.037 17.7204 221.891 17.9105C221.539 18.3749 221.025 18.6892 220.451 18.7905C219.647 18.7537 218.871 18.4902 218.211 18.0305C217.894 17.8377 217.559 17.6769 217.211 17.5505C215.837 17.189 214.422 17.0041 213.001 17.0005Z" fill="#231F20"/>
<path d="M186.651 57.7205C187.411 56.7205 229.711 49.5405 240.171 61.7705C250.631 74.0005 234.621 122.09 234.621 122.09L178.191 118.7C178.191 118.7 166.001 83.5305 186.651 57.7205Z" fill="#3185FF"/>
<path d="M226.571 54.7004L227.341 64.6005C227.341 64.6005 226.411 69.2204 219.661 68.2004C212.911 67.1804 211.551 62.7105 211.551 62.7105L210.771 44.2004C210.771 44.2004 220.651 37.8005 218.291 27.2905C219.801 29.641 221.997 31.4699 224.582 32.529C227.167 33.5881 230.016 33.826 232.741 33.2104C232.741 33.2104 233.691 42.6905 233.341 47.8705C232.991 53.0505 226.571 54.7004 226.571 54.7004Z" fill="#FFFDFA"/>
<path d="M221.501 69.0005C220.851 68.9961 220.203 68.946 219.561 68.8505C212.461 67.7705 210.941 63.0705 210.881 62.8505C210.87 62.7943 210.87 62.7366 210.881 62.6804L210.101 44.1705C210.098 44.0486 210.126 43.928 210.182 43.8198C210.238 43.7115 210.32 43.6189 210.421 43.5505C210.521 43.4905 219.861 37.2804 217.641 27.3804C217.608 27.2196 217.633 27.0524 217.711 26.9079C217.789 26.7635 217.915 26.6511 218.068 26.5904C218.22 26.5296 218.389 26.5244 218.545 26.5756C218.701 26.6268 218.834 26.7311 218.921 26.8705C220.345 29.1059 222.427 30.8443 224.881 31.8456C227.335 32.8469 230.04 33.0617 232.621 32.4605C232.717 32.4392 232.817 32.4389 232.914 32.4596C233.01 32.4803 233.101 32.5215 233.181 32.5805C233.26 32.6398 233.325 32.7149 233.373 32.801C233.422 32.887 233.451 32.9822 233.461 33.0805C233.461 33.4705 234.461 42.6705 234.071 47.8605C233.741 52.5905 229.011 54.5904 227.341 55.1504L228.071 64.4805C228.076 64.5437 228.076 64.6072 228.071 64.6705C228.001 64.7805 227.091 69.0005 221.501 69.0005ZM212.241 62.5404C212.451 63.1104 213.971 66.5405 219.771 67.4605C225.351 68.3105 226.481 65.0905 226.631 64.4605L225.871 54.6804C225.856 54.5155 225.9 54.3507 225.995 54.2152C226.09 54.0797 226.231 53.9824 226.391 53.9405C226.451 53.9405 232.331 52.3605 232.641 47.7505C232.758 43.1472 232.581 38.5412 232.111 33.9605C229.788 34.3739 227.399 34.1937 225.165 33.4367C222.93 32.6798 220.924 31.3705 219.331 29.6304C219.771 37.9104 213.081 43.3105 211.491 44.4705L212.241 62.5404Z" fill="#231F20"/>
<path d="M213.851 43.4005C213.547 42.5136 212.965 41.7488 212.191 41.2205C211.45 40.7457 210.631 40.4071 209.771 40.2205C209.317 40.0682 208.835 40.0237 208.361 40.0904C208.032 40.166 207.722 40.309 207.451 40.5105C206.765 40.9192 206.25 41.562 206.001 42.3204C205.872 42.9475 205.9 43.5965 206.081 44.2104C206.214 44.9053 206.443 45.5783 206.761 46.2104C207.089 46.8239 207.535 47.3661 208.074 47.8058C208.613 48.2455 209.234 48.5739 209.901 48.772C210.568 48.9701 211.268 49.034 211.959 48.9599C212.651 48.8858 213.321 48.6753 213.931 48.3404" fill="#FFFDFA"/>
<path d="M211.381 49.7005C210.811 49.7015 210.245 49.6172 209.701 49.4505C208.177 48.9941 206.896 47.9509 206.141 46.5505C205.802 45.8725 205.553 45.153 205.401 44.4105C205.193 43.6848 205.165 42.9192 205.321 42.1805C205.614 41.2574 206.232 40.4722 207.061 39.9705C207.408 39.7182 207.803 39.538 208.221 39.4405C208.801 39.3545 209.392 39.4024 209.951 39.5805C210.883 39.7778 211.773 40.1365 212.581 40.6405C213.483 41.2532 214.163 42.1404 214.521 43.1705C214.582 43.3468 214.57 43.5402 214.489 43.708C214.407 43.8759 214.262 44.0045 214.086 44.0655C213.909 44.1265 213.716 44.1149 213.548 44.0333C213.38 43.9517 213.252 43.8068 213.191 43.6305C212.935 42.8874 212.448 42.2459 211.801 41.8005C211.121 41.3898 210.378 41.0957 209.601 40.9305C209.246 40.8158 208.872 40.7749 208.501 40.8105C208.263 40.8755 208.039 40.984 207.841 41.1305C207.304 41.4534 206.894 41.9512 206.681 42.5405C206.583 43.0594 206.611 43.5942 206.761 44.1005C206.887 44.7221 207.095 45.3241 207.381 45.8905C207.665 46.4219 208.052 46.8916 208.519 47.2724C208.986 47.6532 209.523 47.9374 210.101 48.1086C210.679 48.2797 211.285 48.3345 211.884 48.2696C212.483 48.2046 213.063 48.0214 213.591 47.7305C213.672 47.6865 213.76 47.6588 213.852 47.6491C213.943 47.6393 214.036 47.6477 214.124 47.6737C214.212 47.6997 214.294 47.7428 214.366 47.8006C214.437 47.8584 214.497 47.9297 214.541 48.0104C214.585 48.0912 214.612 48.1798 214.622 48.2713C214.632 48.3627 214.624 48.4552 214.598 48.5434C214.572 48.6317 214.528 48.7139 214.471 48.7854C214.413 48.857 214.342 48.9165 214.261 48.9605C213.38 49.4485 212.388 49.7033 211.381 49.7005Z" fill="#231F20"/>
<path d="M224.631 37.5405C224.631 37.5405 228.711 42.2605 228.001 43.2605C227.291 44.2605 224.931 43.9405 224.931 43.9405" fill="#FFFDFA"/>
<path d="M225.771 44.7004C225.46 44.7004 225.149 44.6804 224.841 44.6404C224.656 44.6166 224.489 44.5205 224.376 44.3733C224.262 44.226 224.212 44.0398 224.236 43.8555C224.26 43.6711 224.356 43.5038 224.503 43.3904C224.65 43.2769 224.836 43.2266 225.021 43.2505C225.841 43.3505 227.131 43.2504 227.431 42.8504C227.431 42.4004 225.901 40.0805 224.101 38.0005C224.04 37.9308 223.994 37.85 223.965 37.7626C223.936 37.6752 223.924 37.5829 223.931 37.491C223.937 37.399 223.962 37.3093 224.003 37.2268C224.044 37.1444 224.101 37.0709 224.171 37.0105C224.24 36.95 224.321 36.9039 224.409 36.8748C224.496 36.8456 224.588 36.8339 224.68 36.8404C224.772 36.8469 224.862 36.8715 224.944 36.9126C225.027 36.9538 225.1 37.0109 225.161 37.0805C228.111 40.4905 229.261 42.7105 228.571 43.6605C228.214 44.0355 227.776 44.3242 227.291 44.5044C226.806 44.6846 226.286 44.7517 225.771 44.7004Z" fill="#231F20"/>
<path d="M221.813 38.1027C222.262 37.9462 222.447 37.3078 222.227 36.6769C222.006 36.0459 221.464 35.6613 221.016 35.8178C220.568 35.9744 220.382 36.6127 220.603 37.2437C220.823 37.8746 221.365 38.2592 221.813 38.1027Z" fill="#231F20"/>
<path d="M227.505 37.4351C227.953 37.2786 228.138 36.6402 227.918 36.0093C227.698 35.3784 227.156 34.9938 226.707 35.1503C226.259 35.3068 226.074 35.9451 226.294 36.5761C226.514 37.207 227.056 37.5916 227.505 37.4351Z" fill="#231F20"/>
<path d="M228.091 46.0005L221.641 45.2205C221.641 45.2205 221.301 50.0305 225.031 50.3605C227.591 50.6005 228.091 46.0005 228.091 46.0005Z" fill="#FFFDFA"/>
<path d="M225.221 51.0904H224.971C221.481 50.7904 220.811 47.0904 220.971 45.2204C220.978 45.1254 221.005 45.0329 221.05 44.9486C221.095 44.8643 221.156 44.7901 221.231 44.7304C221.3 44.6666 221.383 44.6191 221.473 44.5914C221.563 44.5637 221.658 44.5566 221.751 44.5704L228.201 45.3404C228.383 45.363 228.549 45.4564 228.664 45.6005C228.778 45.7445 228.831 45.9277 228.811 46.1104C228.581 48.0004 227.601 51.0904 225.221 51.0904ZM222.351 46.0904C222.421 47.2904 222.861 49.5304 225.091 49.7304C226.501 49.8404 227.091 47.7904 227.271 46.6804L222.351 46.0904Z" fill="#231F20"/>
<path d="M226.571 54.7004C226.571 54.7004 221.421 54.9904 218.951 53.7004C218.951 53.7004 221.261 59.4704 226.951 60.6404L226.571 54.7004Z" fill="#231F20"/>
<path d="M226.931 61.3604H226.791C220.791 60.1304 218.401 54.2504 218.301 54.0004C218.242 53.8647 218.228 53.7137 218.26 53.5693C218.292 53.4249 218.37 53.2944 218.481 53.1967C218.592 53.0989 218.731 53.0388 218.878 53.0252C219.026 53.0115 219.174 53.0448 219.301 53.1204C221.571 54.2904 226.511 54.0305 226.561 54.0205C226.743 54.0196 226.919 54.0868 227.054 54.2089C227.189 54.331 227.273 54.4992 227.291 54.6804L227.661 60.6804C227.669 60.7877 227.651 60.8952 227.609 60.9943C227.568 61.0934 227.503 61.1812 227.421 61.2504C227.276 61.3456 227.102 61.3847 226.931 61.3604ZM220.401 55.0004C221.706 57.2255 223.752 58.9209 226.181 59.7904L225.911 55.4704C224.062 55.5303 222.213 55.3726 220.401 55.0004Z" fill="#231F20"/>
<path d="M272.781 203.18L269.081 215.94C269.081 215.94 285.281 224.12 282.441 225.86C279.601 227.6 250.891 224.5 249.821 223.96C248.751 223.42 253.001 198.72 253.001 198.72" fill="#FFFDFA"/>
<path d="M277.271 227.06C267.931 227.06 250.491 225.06 249.501 224.58C248.971 224.31 247.971 223.81 252.331 198.58C252.346 198.49 252.379 198.404 252.427 198.327C252.475 198.25 252.538 198.183 252.613 198.13C252.687 198.077 252.771 198.039 252.86 198.019C252.949 197.998 253.041 197.995 253.131 198.01C253.221 198.026 253.307 198.058 253.384 198.107C253.462 198.155 253.529 198.218 253.582 198.292C253.634 198.367 253.672 198.451 253.693 198.54C253.713 198.628 253.716 198.72 253.701 198.81C251.871 209.43 250.131 221.32 250.351 223.38C253.351 224.04 279.611 226.76 282.071 225.25C282.071 224.17 275.941 220.16 268.761 216.54C268.616 216.469 268.501 216.348 268.437 216.2C268.372 216.051 268.363 215.885 268.411 215.73L272.111 202.97C272.13 202.876 272.169 202.786 272.225 202.708C272.281 202.629 272.353 202.562 272.435 202.512C272.518 202.463 272.61 202.431 272.706 202.418C272.802 202.406 272.899 202.413 272.992 202.44C273.085 202.467 273.171 202.513 273.245 202.575C273.319 202.637 273.38 202.713 273.423 202.8C273.466 202.886 273.491 202.981 273.495 203.077C273.5 203.174 273.485 203.27 273.451 203.36L269.911 215.56C273.661 217.48 283.361 222.68 283.471 225.24C283.482 225.482 283.425 225.721 283.306 225.931C283.188 226.142 283.013 226.315 282.801 226.43C282.091 226.89 280.001 227.06 277.271 227.06Z" fill="#231F20"/>
<path d="M236.511 136.1C236.387 136.102 236.265 136.067 236.161 136L220.891 125.61L223.051 134.78C223.088 134.941 223.06 135.11 222.973 135.249C222.885 135.389 222.746 135.488 222.586 135.525C222.425 135.563 222.257 135.534 222.117 135.447C221.977 135.36 221.878 135.221 221.841 135.06L219.321 124.35C219.291 124.229 219.299 124.101 219.344 123.984C219.388 123.867 219.467 123.766 219.569 123.695C219.672 123.623 219.794 123.585 219.919 123.584C220.045 123.583 220.167 123.62 220.271 123.69L236.861 135C236.996 135.094 237.088 135.236 237.118 135.397C237.148 135.559 237.113 135.725 237.021 135.86C236.962 135.939 236.885 136.002 236.796 136.044C236.707 136.086 236.609 136.105 236.511 136.1Z" fill="#FFFDFA"/>
<path d="M247.081 140.13L224.871 124.38L268.371 114.16L297.171 131.81L247.081 140.13Z" fill="#FFFDFA"/>
<path d="M247.081 140.77C246.951 140.772 246.824 140.73 246.721 140.65L224.501 124.91C224.399 124.839 224.32 124.74 224.274 124.624C224.228 124.509 224.216 124.382 224.241 124.26C224.266 124.14 224.324 124.03 224.409 123.941C224.494 123.853 224.602 123.79 224.721 123.76L268.221 113.53C268.302 113.511 268.387 113.508 268.469 113.521C268.551 113.535 268.63 113.565 268.701 113.61L297.501 131.26C297.614 131.327 297.703 131.428 297.755 131.548C297.807 131.669 297.82 131.802 297.791 131.93C297.766 132.058 297.703 132.176 297.61 132.267C297.518 132.358 297.399 132.418 297.271 132.44L247.191 140.76L247.081 140.77ZM226.391 124.68L247.241 139.45L295.371 131.45L268.261 114.83L226.391 124.68Z" fill="#231F20"/>
<path d="M194.651 62.9404C194.651 62.9404 194.051 108.45 197.331 109.12C200.611 109.79 240.541 112.9 242.811 113.33C245.081 113.76 250.931 116.19 252.301 117.93C253.671 119.67 256.301 127.27 254.481 127.18C252.661 127.09 247.971 127.09 246.431 126.7C244.891 126.31 241.961 122.7 241.961 122.7C241.961 122.7 243.131 126.62 241.071 126.21C239.011 125.8 234.621 122.12 234.621 122.12C234.621 122.12 187.451 131.54 180.681 123.22C173.911 114.9 171.681 94.0204 175.531 76.7604C179.381 59.5004 191.741 53.6104 194.651 62.9404Z" fill="#FFFDFA"/>
<path d="M254.511 127.82H254.451C253.961 127.82 253.291 127.82 252.521 127.76C250.429 127.778 248.339 127.631 246.271 127.32C244.976 126.729 243.834 125.85 242.931 124.75C242.968 125.338 242.794 125.92 242.441 126.39C242.252 126.589 242.013 126.733 241.749 126.807C241.485 126.881 241.205 126.882 240.941 126.81C238.991 126.42 235.461 123.61 234.451 122.81C230.041 123.67 186.901 131.88 180.191 123.62C173.351 115.21 170.981 94.1204 174.911 76.6204C177.601 64.6204 184.191 58.1304 189.301 57.9204C192.101 57.8404 194.301 59.5804 195.301 62.7804C195.306 62.847 195.306 62.9139 195.301 62.9804C195.021 84.3204 195.781 107.2 197.541 108.55C199.281 108.89 212.671 110.04 224.541 111.05C233.891 111.85 241.961 112.54 242.991 112.73C245.401 113.19 251.371 115.66 252.871 117.57C254.031 119.05 256.521 125.42 255.601 127.21C255.5 127.409 255.343 127.573 255.149 127.682C254.955 127.79 254.733 127.839 254.511 127.82ZM242.001 122C242.097 121.999 242.192 122.02 242.279 122.061C242.366 122.103 242.442 122.164 242.501 122.24C243.581 123.58 245.661 125.8 246.631 126.05C248.619 126.325 250.624 126.459 252.631 126.45L254.581 126.51C255.011 125.77 253.191 119.97 251.871 118.3C250.691 116.79 245.091 114.37 242.761 113.93C241.761 113.75 233.371 113.03 224.441 112.26C212.591 111.26 199.161 110.1 197.271 109.71C196.381 109.53 194.721 109.19 194.191 85.7105C193.881 75.0005 194.001 64.2105 194.001 63.0005C193.171 60.4105 191.541 59.0005 189.341 59.1305C184.831 59.3205 178.671 65.5805 176.141 76.8305C172.291 94.0005 174.541 114.59 181.141 122.74C182.971 124.99 189.471 127.22 210.081 125.08C222.551 123.79 234.341 121.44 234.461 121.42C234.556 121.401 234.654 121.403 234.747 121.427C234.841 121.452 234.928 121.497 235.001 121.56C236.181 122.56 239.591 125.2 241.151 125.56C241.261 125.56 241.401 125.56 241.451 125.56C241.741 125.24 241.611 123.89 241.311 122.88C241.269 122.738 241.278 122.585 241.336 122.448C241.394 122.311 241.499 122.199 241.631 122.13C241.736 122.046 241.866 122 242.001 122Z" fill="#231F20"/>
<path d="M247.081 140.13C248.191 137.35 261.441 96.4504 261.441 96.4504L313.661 89.4504L297.171 131.8L247.081 140.13Z" fill="#FFFDFA"/>
<path d="M247.081 140.77C246.986 140.77 246.893 140.748 246.808 140.706C246.724 140.665 246.649 140.605 246.591 140.53C246.517 140.443 246.468 140.337 246.451 140.225C246.433 140.112 246.447 139.996 246.491 139.89C247.571 137.16 260.701 96.6605 260.831 96.2505C260.87 96.1373 260.939 96.0368 261.031 95.9594C261.122 95.8821 261.233 95.8306 261.351 95.8105L313.571 88.8105C313.681 88.8017 313.792 88.8189 313.894 88.8606C313.997 88.9022 314.088 88.9673 314.161 89.0505C314.23 89.138 314.276 89.242 314.293 89.3523C314.311 89.4627 314.3 89.5757 314.261 89.6805L297.761 132C297.72 132.103 297.653 132.194 297.568 132.264C297.482 132.334 297.38 132.381 297.271 132.4L247.191 140.72L247.081 140.77ZM261.921 97.0005C260.591 101.1 250.351 132.7 248.061 139.29L296.701 131.21L312.701 90.2105L261.921 97.0005Z" fill="#231F20"/>
<path d="M278.251 122.22C277.49 122.232 276.737 122.068 276.051 121.74C275.141 121.27 273.711 120.05 274.331 117.11C274.743 115.163 275.633 113.348 276.921 111.83C277.745 110.782 278.852 109.991 280.111 109.55C280.796 109.317 281.531 109.268 282.241 109.406C282.951 109.545 283.613 109.867 284.161 110.34C284.935 111.134 285.406 112.175 285.491 113.28C285.665 114.475 285.576 115.694 285.231 116.851C284.885 118.009 284.292 119.076 283.491 119.98C282.807 120.68 281.993 121.238 281.094 121.622C280.195 122.006 279.229 122.21 278.251 122.22ZM281.481 110.74C281.142 110.738 280.804 110.789 280.481 110.89C279.477 111.256 278.596 111.897 277.941 112.74C276.809 114.079 276.026 115.676 275.661 117.39C275.331 118.94 275.661 119.99 276.661 120.49C278.211 121.29 281.011 120.58 282.431 119.03C283.092 118.279 283.582 117.392 283.867 116.432C284.152 115.472 284.225 114.461 284.081 113.47C284.027 112.684 283.706 111.939 283.171 111.36C282.706 110.949 282.102 110.727 281.481 110.74Z" fill="#D1D3D4"/>
<path d="M283.341 46.0004C283.171 46.0004 283.008 45.933 282.888 45.813C282.768 45.693 282.701 45.5302 282.701 45.3604C282.687 44.6808 282.423 44.0301 281.96 43.5323C281.497 43.0344 280.868 42.7241 280.191 42.6604C280.04 42.6461 279.889 42.6228 279.741 42.5904C279.583 42.5544 279.444 42.4606 279.351 42.3274C279.259 42.1942 279.219 42.0312 279.241 41.8704C279.273 41.7153 279.359 41.5764 279.483 41.4778C279.608 41.3792 279.762 41.3271 279.921 41.3304L280.431 41.3904C281.179 41.442 281.928 41.3125 282.616 41.0132C283.304 40.7138 283.909 40.2532 284.381 39.6704C284.491 39.5404 284.601 39.3704 284.551 39.2604C284.231 38.5004 281.031 37.7804 278.251 37.5904C278.08 37.5776 277.921 37.498 277.809 37.3688C277.697 37.2396 277.64 37.0713 277.651 36.9004C277.664 36.7324 277.742 36.5761 277.87 36.4657C277.997 36.3552 278.163 36.2994 278.331 36.3104C279.871 36.4204 284.941 36.9004 285.731 38.7604C285.849 39.0528 285.877 39.3738 285.811 39.6821C285.745 39.9904 285.588 40.2719 285.361 40.4904C284.644 41.3663 283.694 42.0215 282.621 42.3804C283.066 42.74 283.42 43.1984 283.656 43.7193C283.892 44.2402 284.004 44.809 283.981 45.3804C283.976 45.5467 283.906 45.7044 283.786 45.8201C283.667 45.9358 283.507 46.0005 283.341 46.0004Z" fill="#231F20"/>
<path d="M280.271 189.66C280.198 189.671 280.124 189.671 280.051 189.66C279.975 189.632 279.905 189.588 279.846 189.532C279.786 189.476 279.738 189.409 279.705 189.335C279.672 189.261 279.653 189.181 279.651 189.099C279.648 189.018 279.662 188.937 279.691 188.86C281.741 183.34 289.371 159.34 289.451 159.1C289.475 159.022 289.514 158.949 289.566 158.886C289.619 158.823 289.683 158.771 289.755 158.733C289.828 158.695 289.907 158.671 289.989 158.664C290.07 158.657 290.153 158.666 290.231 158.69C290.386 158.743 290.514 158.854 290.589 158.999C290.663 159.145 290.678 159.314 290.631 159.47C290.551 159.71 282.911 183.75 280.851 189.29C280.801 189.403 280.72 189.497 280.617 189.563C280.514 189.629 280.393 189.663 280.271 189.66Z" fill="#FFFDFA"/>
</svg>
